<svg width="355" height="355" viewBox="0 0 355 355" fill="none" xmlns="http://www.w3.org/2000/svg">
<path d="M106.35 282.42L99.1401 292.67C98.4001 293.72 98.6501 295.17 99.7001 295.91C100.1 296.19 100.57 296.33 101.03 296.33C101.77 296.33 102.49 295.99 102.94 295.34L110.15 285.09C110.88 284.03 110.63 282.59 109.58 281.85C108.53 281.11 107.08 281.36 106.34 282.41L106.35 282.42Z" fill="#733E0A"/>
<path d="M77.04 256.25C76.3 255.2 74.85 254.94 73.8 255.68L67.65 259.99C66.6 260.73 66.35 262.17 67.08 263.23C67.53 263.87 68.25 264.22 68.99 264.22C69.45 264.22 69.91 264.09 70.32 263.8L76.48 259.49C77.53 258.75 77.78 257.3 77.05 256.25H77.04Z" fill="#733E0A"/>
<path d="M89.61 264.05C88.74 263.09 87.28 263.01 86.32 263.86L76.97 272.2C76.01 273.06 75.92 274.52 76.78 275.49C77.24 276 77.88 276.26 78.52 276.26C79.07 276.26 79.63 276.06 80.07 275.67L89.41 267.34C90.37 266.48 90.46 265.01 89.61 264.06V264.05Z" fill="#733E0A"/>
<path d="M118.39 293.22C117.26 292.6 115.85 293.02 115.23 294.15L111.63 300.74C111.02 301.87 111.44 303.28 112.56 303.9C112.91 304.09 113.29 304.19 113.68 304.19C114.5 304.19 115.3 303.75 115.72 302.98L119.32 296.38C119.93 295.25 119.52 293.84 118.39 293.23V293.22Z" fill="#733E0A"/>
<path d="M92.3001 277.31L87.2901 282.91C86.4301 283.87 86.5101 285.33 87.4701 286.19C87.9201 286.58 88.4701 286.78 89.0201 286.78C89.6601 286.78 90.3001 286.52 90.7601 286L95.7601 280.4C96.6201 279.44 96.5401 277.97 95.5801 277.11C94.6301 276.26 93.1601 276.34 92.3001 277.3V277.31Z" fill="#733E0A"/>
<path d="M75.1301 250.87C75.2401 250.87 75.3401 250.87 75.4501 250.87C66.3401 238.19 59.5301 223.67 55.6901 207.88C48.1501 211.99 44.5901 218.41 43.3601 221.11C47.8101 234.74 54.3901 247.68 62.7401 259.38C63.2301 258.18 64.0401 257.15 65.1201 256.39L71.2701 252.08C72.3901 251.29 73.7301 250.86 75.1201 250.86L75.1301 250.87Z" fill="#733E0A"/>
<path d="M254.22 276.72C253.4 275.73 251.94 275.58 250.95 276.4C249.96 277.22 249.81 278.69 250.63 279.67L258.6 289.34C259.06 289.9 259.73 290.18 260.4 290.18C260.92 290.18 261.44 290.01 261.87 289.65C262.87 288.83 263 287.37 262.19 286.37L254.22 276.71V276.72Z" fill="#733E0A"/>
<path d="M267.52 270.88C266.6 269.98 265.13 270.01 264.23 270.93C263.34 271.86 263.37 273.33 264.29 274.22L269.7 279.44C270.15 279.88 270.74 280.09 271.31 280.09C271.92 280.09 272.53 279.86 272.98 279.38C273.87 278.46 273.85 276.99 272.93 276.09L267.52 270.87V270.88Z" fill="#733E0A"/>
<path d="M245.88 289.35C245.19 288.27 243.74 287.96 242.67 288.66C241.59 289.36 241.28 290.8 241.98 291.87L246.05 298.19C246.5 298.88 247.25 299.26 248.02 299.26C248.45 299.26 248.89 299.14 249.28 298.89C250.36 298.19 250.67 296.75 249.97 295.67L245.89 289.35H245.88Z" fill="#733E0A"/>
<path d="M296.54 212.24C293.45 223.19 288.84 233.61 282.95 243.24C283.04 243.24 283.12 243.24 283.2 243.24C284.41 243.24 285.6 243.56 286.64 244.19L293.1 248.04C295.31 249.36 296.49 251.77 296.36 254.19C301.6 246.14 306.05 237.5 309.6 228.35C306.31 218.49 302.56 214.61 296.54 212.25V212.24Z" fill="#733E0A"/>
<path d="M290.84 251.8L284.38 247.95C283.28 247.29 281.85 247.65 281.19 248.76C280.53 249.86 280.89 251.29 282 251.95L288.45 255.8C288.83 256.02 289.24 256.13 289.64 256.13C290.44 256.13 291.2 255.73 291.64 255C292.3 253.89 291.93 252.47 290.83 251.81L290.84 251.8Z" fill="#733E0A"/>
<path d="M272.77 256.68C271.75 255.9 270.29 256.1 269.51 257.12C268.73 258.14 268.93 259.6 269.95 260.38L279.91 267.97C280.34 268.29 280.83 268.45 281.32 268.45C282.02 268.45 282.72 268.14 283.17 267.53C283.95 266.51 283.75 265.05 282.74 264.27L272.77 256.68Z" fill="#733E0A"/>
<path d="M220.6 302.41C220.17 301.2 218.83 300.57 217.63 301C216.42 301.43 215.79 302.76 216.22 303.97L218.75 311.05C219.09 312 219.98 312.6 220.94 312.6C221.2 312.6 221.46 312.55 221.72 312.46C222.93 312.03 223.56 310.69 223.12 309.49L220.6 302.41Z" fill="#733E0A"/>
<path d="M176.7 303.08C175.41 303.08 174.37 304.12 174.37 305.4V317.93C174.37 319.21 175.41 320.25 176.7 320.25C177.99 320.25 179.02 319.21 179.02 317.93V305.4C179.02 304.11 177.98 303.08 176.7 303.08Z" fill="#733E0A"/>
<path d="M158.93 301.72C157.66 301.52 156.47 302.4 156.28 303.67L154.36 316.05C154.17 317.32 155.04 318.51 156.3 318.7C156.42 318.72 156.55 318.73 156.67 318.73C157.79 318.73 158.78 317.91 158.96 316.76L160.87 304.38C161.07 303.11 160.2 301.92 158.93 301.73V301.72Z" fill="#733E0A"/>
<path d="M144.28 303.69C143.04 303.35 141.76 304.07 141.41 305.31L139.41 312.55C139.07 313.79 139.8 315.07 141.04 315.41C141.24 315.47 141.46 315.49 141.66 315.49C142.68 315.49 143.61 314.82 143.9 313.78L145.9 306.54C146.25 305.31 145.52 304.02 144.29 303.68L144.28 303.69Z" fill="#733E0A"/>
<path d="M133.11 294.64C131.92 294.15 130.57 294.73 130.09 295.92L125.41 307.54C124.93 308.73 125.5 310.08 126.7 310.56C126.98 310.68 127.27 310.73 127.57 310.73C128.49 310.73 129.36 310.18 129.73 309.27L134.41 297.65C134.89 296.46 134.31 295.1 133.12 294.63L133.11 294.64Z" fill="#733E0A"/>
<path d="M206.08 301.74C205.78 300.49 204.53 299.71 203.28 300C202.03 300.29 201.25 301.54 201.54 302.79L204.4 314.99C204.65 316.06 205.6 316.78 206.66 316.78C206.83 316.78 207.01 316.76 207.2 316.71C208.45 316.42 209.22 315.17 208.92 313.92L206.07 301.72L206.08 301.74Z" fill="#733E0A"/>
<path d="M190.43 307.31C189.15 307.45 188.24 308.61 188.39 309.88L189.23 317.35C189.36 318.54 190.37 319.41 191.53 319.41C191.62 319.41 191.71 319.41 191.8 319.4C193.07 319.25 193.99 318.1 193.85 316.83L193 309.36C192.86 308.08 191.71 307.16 190.43 307.31Z" fill="#733E0A"/>
<path d="M232.12 292.84C231.56 291.68 230.19 291.18 229.02 291.74C227.86 292.3 227.37 293.68 227.91 294.84L233.3 306.15C233.77 307.14 234.87 307.65 235.9 307.43C236.07 307.39 236.24 307.33 236.4 307.25C237.55 306.7 238.06 305.31 237.5 304.15L232.11 292.84H232.12Z" fill="#733E0A"/>
<path d="M176.69 79.95C193.33 79.93 206.79 66.4599 206.83 49.8099C206.79 33.1599 193.34 19.6999 176.69 19.6699C160.05 19.6899 146.58 33.1599 146.55 49.8099C146.58 66.4599 160.04 79.93 176.69 79.95ZM183.19 61.7899V66.6299L178.85 63.6299V73.5999H174.16V60.4L169.81 57.4V52.5999L174.16 55.58V45.4399H163.76L168.46 40.7399H174.16V34.33L176.5 31.9899L178.84 34.33V40.7399H184.55L189.24 45.4299H178.84V58.7999L183.18 61.78L183.19 61.7899ZM176.49 25.34L196.63 45.4799H191.28L176.5 30.6599L161.72 45.4799H156.38L176.5 25.3499L176.49 25.34Z" fill="#733E0A"/>
<path d="M177.77 0.26001C79.9601 0.26001 0.670044 79.55 0.670044 177.36C0.670044 275.17 79.9601 354.45 177.77 354.45C275.58 354.45 354.87 275.17 354.87 177.36C354.87 79.55 275.58 0.26001 177.77 0.26001ZM176.7 6.01001C200.89 6.01001 220.5 25.63 220.5 49.83C220.5 51.66 220.38 53.47 220.16 55.24C219.08 53.29 217.88 51.42 216.56 49.63C216.46 27.7 198.66 9.95 176.7 9.94C155.02 9.94 137.38 27.26 136.86 48.83C135.5 50.6 134.25 52.46 133.14 54.4C132.98 52.89 132.9 51.36 132.9 49.82C132.9 25.62 152.51 6.01001 176.7 6.01001ZM146.17 65.5C151.78 76.51 163.2 84.07 176.4 84.07C189.21 84.07 200.34 76.97 206.12 66.51C207.58 67.68 208.97 68.93 210.29 70.26C203.39 81.59 190.93 89.16 176.69 89.15C161.85 89.15 148.94 80.91 142.24 68.76C143.48 67.6 144.8 66.51 146.16 65.49L146.17 65.5ZM144.88 49.81C144.88 32.23 159.12 17.98 176.7 17.99C194.28 17.99 208.52 32.24 208.51 49.82C208.51 67.4 194.27 81.65 176.7 81.64C159.12 81.64 144.88 67.38 144.88 49.81ZM177.78 323.07C112.49 323.07 57.24 280.12 38.7 220.94C38.7 220.94 43.4 206.96 58.85 201.74C69.72 256.91 118.35 298.53 176.7 298.53C193.31 298.53 209.1 295.14 223.48 289.05L218.51 282.2H218.53C217.19 279.97 214.63 279.14 212.5 279.14C211.76 279.14 211.06 279.24 210.43 279.43C204.64 281.28 200.79 282.64 194.74 283.48C194.13 283.44 193.44 282.97 192.85 282.43C191.84 280.7 191.07 278.3 190.81 277.85C188.25 272.99 183.25 269.97 177.77 269.97C172.65 269.97 167.97 272.58 165.26 276.93L165.15 277.11C164.86 277.63 164.03 280.1 162.99 281.84C162.35 282.41 161.62 282.88 161 282.83C160.94 282.83 160.87 282.83 160.78 282.82C115.55 274.72 78.58 238.79 71.79 193.31C71.92 192.78 72.7 191.43 74.24 189.99C75.12 189.38 75.93 188.69 76.65 187.93C79.39 185.04 80.92 180.27 80.92 176.3C80.92 171.5 78.72 168.01 74.83 165C74.59 164.81 74.34 164.63 74.09 164.46C73.33 163.9 71.83 162.43 71.87 160.88C71.87 160.83 71.87 160.77 71.87 160.7C76.18 132.91 91.54 107.74 114.26 91C115.24 90.29 116.05 88.97 116.05 87.1C116.05 85.99 115.73 84.67 115.12 83.15L105.07 52.95L104.9 52.42C62.94 76.94 34.45 121.99 33.19 173.79C27.26 176.65 21.64 181.45 19.73 193.91C19.17 188.46 18.87 182.94 18.87 177.35C18.87 105.01 67.24 44.02 133.4 24.81C130.28 30.01 128.07 35.81 126.98 42.01C122.59 43.65 118.26 45.43 114.08 47.49L133.36 74.11H133.38L137.33 79.66C137.77 80.29 138.23 80.92 138.7 81.54L138.81 81.68C147.97 93.5 161.78 100.28 176.68 100.28C192.49 100.28 207.22 92.5 216.19 79.48C216.83 78.83 217.71 78.26 218.42 78.27C218.51 78.27 218.59 78.27 218.66 78.28C252.18 92.14 276.91 122.79 283.26 158.41C283.3 158.82 283.39 159.3 283.51 159.82C283.57 160.17 283.62 160.58 283.68 160.99C283.49 162.38 281.72 165.02 280.6 166.21C277.75 169.11 276.17 171.98 276.17 176.02C276.17 180.55 278.15 185.79 281.59 188.73C282.68 190.02 283.49 191.33 283.87 192.33C279.71 222.12 262.72 249.19 237.81 266.11C236.14 267.26 234.38 269.71 234.36 272.71C234.36 273.66 234.55 274.65 234.98 275.64H235L237.18 282.18C264.98 265.92 285.69 238.82 293.44 206.66C304.65 209.69 309.91 214.62 314.23 228.48C293.53 283.74 240.24 323.09 177.75 323.09L177.78 323.07ZM81.23 100.49C81.89 101.04 81.98 102.01 81.43 102.67C81.13 103.04 80.68 103.23 80.23 103.23C79.88 103.23 79.53 103.11 79.25 102.87L69.62 94.85C68.97 94.3 68.88 93.32 69.42 92.66C69.97 92 70.95 91.91 71.6 92.46L81.22 100.48L81.23 100.49ZM79.69 81.67C80.31 81.08 81.29 81.1 81.88 81.71L87.08 87.15C87.66 87.77 87.64 88.75 87.03 89.34C86.73 89.63 86.34 89.77 85.96 89.77C85.55 89.77 85.14 89.61 84.84 89.29L79.65 83.86C79.05 83.24 79.08 82.26 79.69 81.67ZM69.09 110.96C68.8 111.42 68.3 111.67 67.79 111.67C67.5 111.67 67.21 111.59 66.95 111.41L60.65 107.31C59.94 106.84 59.73 105.89 60.2 105.17C60.67 104.45 61.63 104.25 62.35 104.72L68.65 108.82C69.36 109.29 69.57 110.24 69.1 110.96H69.09ZM65.99 123.13C66.57 123.42 66.88 124.02 66.84 124.62C66.83 124.82 66.77 125.02 66.68 125.21C66.41 125.75 65.86 126.06 65.29 126.06C65.06 126.06 64.84 126.01 64.62 125.9H64.6L60.88 124.03L53.4 120.29C52.64 119.91 52.33 118.97 52.71 118.21C53.09 117.44 54.03 117.13 54.79 117.52L65.99 123.13ZM55.62 134.12C56.43 134.42 56.84 135.3 56.55 136.11C56.32 136.74 55.73 137.13 55.1 137.13C54.92 137.13 54.74 137.1 54.57 137.04L47.49 134.48C46.69 134.19 46.28 133.3 46.57 132.49C46.86 131.69 47.75 131.27 48.56 131.56L55.63 134.12H55.62ZM56.3 148.67C57.14 148.87 57.65 149.71 57.45 150.54C57.28 151.25 56.64 151.72 55.95 151.72C55.83 151.72 55.71 151.71 55.59 151.68L43.4 148.77C42.57 148.57 42.06 147.73 42.25 146.9C42.45 146.07 43.28 145.55 44.12 145.75L56.3 148.66V148.67ZM48.72 161.73C49.56 161.83 50.17 162.6 50.08 163.45C49.99 164.24 49.32 164.82 48.54 164.82C48.48 164.82 48.42 164.82 48.36 164.82L40.89 163.94C40.04 163.83 39.43 163.07 39.53 162.22C39.63 161.37 40.4 160.76 41.26 160.86L48.73 161.75L48.72 161.73ZM91.52 71.61C92.21 71.09 93.18 71.23 93.69 71.91L101.24 81.92C101.76 82.6 101.61 83.57 100.94 84.08C100.66 84.29 100.33 84.4 100 84.4C99.53 84.4 99.06 84.18 98.76 83.78L91.21 73.78C90.69 73.1 90.83 72.12 91.51 71.61H91.52ZM241.63 69.83L245.46 63.35C245.9 62.62 246.84 62.38 247.59 62.81C248.32 63.24 248.56 64.2 248.14 64.93L244.32 71.4C244.09 71.78 243.73 72.03 243.33 72.12C242.96 72.21 242.55 72.16 242.19 71.95C241.45 71.52 241.2 70.57 241.64 69.83H241.63ZM250.02 81.91L257.57 71.9C258.08 71.21 259.06 71.08 259.74 71.6C260.43 72.11 260.56 73.08 260.04 73.77L252.49 83.77C252.19 84.17 251.72 84.39 251.25 84.39C250.93 84.39 250.6 84.29 250.32 84.07C249.64 83.56 249.51 82.59 250.02 81.91ZM307.86 148.77L295.67 151.68C295.55 151.71 295.42 151.72 295.31 151.72C294.61 151.72 293.97 151.24 293.8 150.54C293.6 149.7 294.12 148.87 294.95 148.67L307.14 145.76C307.97 145.56 308.81 146.08 309.01 146.91C309.2 147.74 308.69 148.58 307.86 148.78V148.77ZM310.01 160.84C310.86 160.74 311.63 161.35 311.73 162.2C311.83 163.05 311.22 163.82 310.38 163.92L302.91 164.8C302.85 164.8 302.78 164.8 302.72 164.8C301.95 164.8 301.28 164.22 301.18 163.43C301.09 162.58 301.69 161.81 302.54 161.71L310.01 160.82V160.84ZM303.76 134.47L296.69 137.03C296.52 137.09 296.33 137.12 296.16 137.12C295.52 137.12 294.93 136.73 294.7 136.1C294.41 135.29 294.83 134.41 295.63 134.11L302.7 131.55C303.5 131.26 304.39 131.68 304.68 132.48C304.97 133.29 304.56 134.18 303.76 134.47ZM298.63 119.4C298.51 119.78 298.24 120.1 297.85 120.3L294.12 122.17L286.65 125.92H286.63C286.42 126.02 286.2 126.07 285.97 126.07H285.95C285.52 126.07 285.11 125.9 284.82 125.58C284.79 125.55 284.78 125.52 284.76 125.5C284.69 125.42 284.62 125.33 284.57 125.22C284.19 124.45 284.49 123.52 285.26 123.13L296.47 117.52C297.07 117.22 297.77 117.36 298.23 117.8C298.35 117.92 298.46 118.05 298.55 118.21C298.74 118.59 298.76 119.01 298.63 119.39V119.4ZM290.6 107.31L284.31 111.41C284.05 111.58 283.75 111.67 283.46 111.67C282.95 111.67 282.46 111.42 282.16 110.96C281.69 110.24 281.89 109.28 282.6 108.82L288.9 104.72C289.62 104.25 290.58 104.45 291.05 105.17C291.52 105.89 291.32 106.85 290.6 107.31ZM281.62 94.85L271.99 102.87C271.7 103.11 271.34 103.23 271 103.23C270.56 103.23 270.12 103.04 269.81 102.67C269.39 102.18 269.35 101.5 269.62 100.97C269.71 100.79 269.84 100.63 270 100.49L279.63 92.47C280.29 91.92 281.26 92.01 281.81 92.67C282.35 93.33 282.27 94.31 281.61 94.86L281.62 94.85ZM271.6 83.86L266.4 89.29C266.1 89.61 265.69 89.77 265.29 89.77C264.89 89.77 264.51 89.63 264.22 89.34C263.6 88.75 263.58 87.77 264.17 87.15L269.36 81.71C269.95 81.09 270.94 81.07 271.56 81.67C272.18 82.26 272.19 83.24 271.61 83.86H271.6ZM322.35 176.64C322.05 114.13 282.07 61.03 226.31 41.15C225.12 34.99 222.79 29.24 219.57 24.1C287.01 42.46 336.63 104.08 336.63 177.35C336.63 184.02 336.21 190.59 335.41 197.04C333.6 187.84 329 178.83 322.34 176.64H322.35Z" fill="#733E0A"/>
<path d="M232.36 286.87L192.2 166.07L117.54 62.95L157.7 183.76L232.36 286.87ZM135.52 96.59L188.83 167.3C189.17 167.7 189.48 168.12 189.78 168.56L189.94 168.77C190.24 169.25 190.53 169.74 190.78 170.26C193.25 175.25 192.65 180.96 189.71 185.25C188.32 187.26 183.97 190 186.69 195.2C186.71 195.25 187.52 196.98 188.29 198.68L219.56 262.03L183.67 198.63C183.35 198.18 183.09 197.71 182.88 197.24C181.77 194.61 178.55 192.33 174.49 191.34C174.48 191.34 174.47 191.34 174.45 191.34C170.25 190.45 166.46 187.76 164.33 183.65C161.77 178.7 162.27 172.98 165.14 168.64C166.48 166.62 170.76 163.83 168 158.69L167.95 158.59C167.7 158.14 165.72 154.68 165.01 152.97L135.52 96.59Z" fill="#733E0A"/>
<path d="M177.77 232.02V220.34L173.59 214.56L177.06 244.09L179.57 222.82L178.96 221.97L177.77 232.02Z" fill="#733E0A"/>
<path d="M206.37 145.99L193.24 159.12L195.86 162.72L215.41 137.95L191.55 156.78L191.97 157.36L206.37 145.99Z" fill="#733E0A"/>
<path d="M176.35 120.58V135.78L181.03 142.25L177.06 108.51L174.21 132.81L174.82 133.66L176.35 120.58Z" fill="#733E0A"/>
<path d="M150.81 180.48L121.34 177.01H149.66L147.91 171.75L109.28 176.3L151.06 181.22L150.81 180.48Z" fill="#733E0A"/>
<path d="M147.75 206.62L159.4 194.97L156.94 191.57L138.72 214.65L160.95 197.1L160.53 196.53L147.75 206.62Z" fill="#733E0A"/>
<path d="M198.9 171.6L232.78 175.59H200.22L202.13 181.33L244.85 176.3L198.66 170.86L198.9 171.6Z" fill="#733E0A"/>
<path d="M179.36 180.29C177.42 181.31 175.01 180.55 174 178.6C173.86 178.33 173.77 178.06 173.69 177.78C173.71 178.32 173.84 178.87 174.1 179.38C175.06 181.22 177.32 181.93 179.15 180.98C180.12 180.48 180.78 179.6 181.04 178.63C180.68 179.31 180.11 179.9 179.36 180.29Z" fill="#733E0A"/>
<path d="M177.48 164.61C170.73 164.61 165.26 170.09 165.27 176.85C165.28 183.6 170.76 189.07 177.51 189.07C184.27 189.05 189.74 183.58 189.73 176.82C189.73 170.07 184.24 164.6 177.48 164.61ZM180.25 182.14C177.33 183.65 173.74 182.51 172.22 179.59C170.7 176.67 171.84 173.07 174.76 171.55C177.68 170.03 181.27 171.18 182.79 174.1C184.3 177.02 183.17 180.62 180.25 182.14Z" fill="#733E0A"/>
</svg>
