<svg width="35" height="24" viewBox="0 0 35 24" fill="none" xmlns="http://www.w3.org/2000/svg">
<path d="M34.9386 5.63111V5.20954C34.9386 5.02585 34.8643 4.84968 34.7319 4.71979C34.5996 4.5899 34.4201 4.51694 34.2329 4.51694C33.2602 4.44945 32.2971 4.28466 31.3586 4.02511L31.1234 3.93474H31.0518C28.3821 3.29233 22.9711 1.92723 15.4122 0.0602235H15.3201C15.1112 0.0203302 14.8988 0.000165354 14.6859 0C14.3372 0.0053329 13.9918 0.0663502 13.6631 0.18067H13.571C13.4964 0.199756 13.4267 0.233923 13.3664 0.281022L1.4603 8.7528C1.22738 8.87599 1.01378 9.03152 0.826113 9.21456C0.448887 9.58279 0.18628 10.0487 0.068969 10.558C-0.0483418 11.0673 -0.0154985 11.5989 0.163661 12.0905C0.34282 12.5822 0.660888 13.0136 1.08069 13.3344C1.50049 13.6552 2.00467 13.8521 2.53429 13.9021C2.82526 13.9526 3.12299 13.9526 3.41396 13.9021L3.77197 13.8319C3.91622 13.7862 4.05647 13.7291 4.19135 13.6612L4.40614 13.5408H4.47775L5.78701 12.6173L5.95067 12.5069C5.60379 13.1503 5.42126 13.8668 5.41878 14.5947C5.42114 15.065 5.49704 15.5322 5.64381 15.9799C5.81451 16.4691 6.06684 16.927 6.3905 17.335C6.5337 17.4956 6.68714 17.6562 6.83034 17.7867L12.6504 23.8093C12.7081 23.8697 12.7778 23.9179 12.8552 23.9507C12.9326 23.9835 13.0161 24.0003 13.1005 24C13.1847 23.9997 13.2681 23.9826 13.3454 23.9498C13.4228 23.917 13.4925 23.8692 13.5505 23.8093L19.5752 17.5458C19.9039 17.1899 20.1701 16.7828 20.3628 16.3413H21.3243C21.9687 16.3413 22.7666 16.3413 23.7485 16.3413C25.6486 16.3189 27.4899 15.6919 28.9958 14.5546C29.3129 14.3438 29.6198 14.123 29.9266 13.9021C31.3177 12.8984 32.5247 12.005 34.2943 12.005C34.4067 12.0063 34.5178 11.9805 34.6177 11.9298C34.7176 11.879 34.8033 11.8049 34.8671 11.7139C34.9218 11.6393 34.9609 11.5547 34.9819 11.4651C35.003 11.3754 35.0057 11.2826 34.9898 11.1919V5.74151C34.9775 5.70277 34.9603 5.6657 34.9386 5.63111ZM18.5728 16.6725L13.0187 22.4542L7.63839 16.8632C7.52588 16.7629 7.41337 16.6424 7.31109 16.532C7.07335 16.2317 6.89313 15.8916 6.77919 15.5282C6.67343 15.2036 6.61825 14.8652 6.61553 14.5245C6.60644 13.7309 6.91069 12.9647 7.46451 12.3864C7.71551 12.1138 8.02153 11.8954 8.36314 11.7451C8.70475 11.5948 9.07449 11.5158 9.44887 11.5132C10.0068 11.5255 10.5486 11.6986 11.007 12.0109C11.4653 12.3233 11.8199 12.7611 12.0265 13.2697C12.112 13.4673 12.2542 13.6361 12.4359 13.7555C12.6175 13.875 12.8307 13.9399 13.0494 13.9423C13.2689 13.9438 13.4839 13.8805 13.6663 13.7605C13.8487 13.6406 13.9901 13.4696 14.0722 13.2697C14.2817 12.761 14.6384 12.3236 15.0983 12.0115C15.5582 11.6993 16.1011 11.5261 16.6601 11.5132C17.0149 11.5152 17.3658 11.5863 17.6924 11.7224C18.019 11.8586 18.3148 12.057 18.5626 12.3062H16.3941C16.1001 12.2556 15.7983 12.2688 15.51 12.3449C15.2217 12.4209 14.9539 12.558 14.7253 12.7464C14.4967 12.9349 14.3129 13.1701 14.1868 13.4357C14.0607 13.7012 13.9954 13.9906 13.9954 14.2836C13.9954 14.5765 14.0607 14.8659 14.1868 15.1315C14.3129 15.397 14.4967 15.6323 14.7253 15.8207C14.9539 16.0091 15.2217 16.1462 15.51 16.2222C15.7983 16.2983 16.1001 16.3116 16.3941 16.261H18.9615C18.8707 16.4055 18.7643 16.5401 18.6444 16.6625L18.5728 16.6725ZM9.20338 10.3187L12.8652 7.98993H13.2028L17.7545 9.15433H17.867C18.4501 9.32497 19.0433 9.47555 19.6161 9.60604L21.3039 10.0477C21.519 10.176 21.6896 10.3652 21.7932 10.5904C21.8968 10.8156 21.9285 11.0662 21.8842 11.3095C21.84 11.5527 21.7218 11.7771 21.5452 11.9532C21.3686 12.1293 21.1418 12.2488 20.8947 12.2961H20.0457C19.8849 12.0244 19.6927 11.7718 19.4729 11.5433C19.1067 11.1498 18.6612 10.8352 18.1647 10.6192C17.6682 10.4033 17.1315 10.2907 16.5885 10.2886C15.8356 10.302 15.1011 10.5189 14.4658 10.9156C13.8305 11.3124 13.3192 11.8734 12.988 12.537C12.6568 11.8734 12.1454 11.3124 11.5101 10.9156C10.8749 10.5189 10.1404 10.302 9.3875 10.2886L9.20338 10.3187ZM33.5066 6.42406V10.6499C31.8352 10.9386 30.2777 11.675 29.006 12.7779C28.7094 12.9987 28.423 13.2095 28.1161 13.4203C26.8443 14.3882 25.2862 14.9237 23.6769 14.9461H21.2732H16.3225C16.1625 14.9461 16.009 14.8836 15.8958 14.7726C15.7826 14.6615 15.719 14.5109 15.719 14.3538C15.719 14.2765 15.7347 14.2 15.7651 14.1287C15.7956 14.0574 15.8402 13.9928 15.8964 13.9386C15.9526 13.8844 16.0192 13.8417 16.0923 13.813C16.1655 13.7844 16.2438 13.7703 16.3225 13.7716H21.0686C21.6193 13.686 22.1288 13.4335 22.5257 13.0493C22.9226 12.665 23.187 12.1685 23.2818 11.6294C23.3766 11.0902 23.297 10.5355 23.0541 10.043C22.8113 9.55049 22.4174 9.14497 21.9278 8.8833C21.8778 8.85292 21.8222 8.83246 21.7641 8.82307L19.9639 8.35133C19.3911 8.22084 18.8183 8.07028 18.2455 7.90967H18.1125L13.4892 6.63487H13.3664C13.0543 6.60959 12.7401 6.63332 12.4356 6.70514C12.3591 6.72237 12.2863 6.75294 12.2208 6.79545L4.91757 11.4429L3.63899 12.3463L3.51625 12.4065C3.45446 12.4398 3.38933 12.4667 3.3219 12.4868H3.16848C3.02986 12.5119 2.88773 12.5119 2.7491 12.4868H2.6059C2.34071 12.4683 2.0866 12.3751 1.87409 12.2183C1.66158 12.0616 1.4997 11.8479 1.40789 11.6031C1.31608 11.3582 1.29824 11.0926 1.35652 10.8381C1.41481 10.5835 1.54674 10.3509 1.73646 10.1681C1.83501 10.0705 1.949 9.98917 2.07401 9.92725L2.16608 9.86697L2.66727 9.50563L14.0313 1.42533H14.0927C14.3798 1.31846 14.692 1.29408 14.9928 1.35506C22.5211 3.2321 27.9116 4.56714 30.6017 5.21959L30.837 5.29985H30.9086C31.7473 5.51128 32.5977 5.67548 33.4555 5.79168L33.5066 6.42406Z" fill="#007595"/>
</svg>
