<svg width="35" height="36" viewBox="0 0 35 36" fill="none" xmlns="http://www.w3.org/2000/svg">
<path d="M34.8689 35.6059C34.9547 35.4629 35 35.2994 35 35.1328C35 34.9662 34.9547 34.8027 34.8689 34.6597L19.7884 9.27212L18.6283 7.17189L21.9113 1.402C22.0343 1.1847 22.0656 0.927673 21.9981 0.687454C21.9307 0.447236 21.7701 0.243504 21.5516 0.121083C21.3332 -0.00133897 21.0748 -0.0324269 20.8333 0.0346611C20.5919 0.101749 20.387 0.261515 20.2639 0.478813L17.5379 5.24475L15.2178 1.24044C15.0831 1.04385 14.8789 0.904935 14.6459 0.85137C14.4129 0.797805 14.1682 0.833527 13.9605 0.951403C13.7527 1.06928 13.5972 1.26067 13.525 1.48745C13.4527 1.71424 13.469 1.95977 13.5706 2.17516L16.4127 7.14881L15.7282 8.30279L0.125676 34.5789C0.043307 34.7231 0 34.8861 0 35.052C0 35.2179 0.043307 35.3809 0.125676 35.5251C0.210891 35.6674 0.331329 35.7856 0.475514 35.8685C0.619699 35.9513 0.782847 35.996 0.949329 35.9983H34.0452C34.2047 36.0079 34.3641 35.977 34.5082 35.9083C34.6523 35.8397 34.7765 35.7356 34.8689 35.6059ZM11.1344 34.1865L17.4915 23.4891L23.8485 34.1865H11.1344ZM10.0556 21.6428L12.1437 18.1808L16.5519 10.7492V21.4235L16.3895 21.6889L8.98839 34.2442H2.65455L10.0556 21.6428ZM26.0526 34.1981L18.5936 21.6428L18.4427 21.3774V10.7031L22.8509 18.1347L24.9389 21.5966L32.398 34.1519L26.0526 34.1981Z" fill="#007595"/>
</svg>
