<svg width="35" height="38" viewBox="0 0 35 38" fill="none" xmlns="http://www.w3.org/2000/svg">
<path d="M10.4184 32.5489C9.69115 32.2329 8.98582 31.8685 8.30718 31.4584C8.0629 31.3101 7.87098 31.1792 7.74011 31.092L7.59181 30.9873C7.49986 30.9092 7.39273 30.8511 7.27719 30.8166C7.16165 30.782 7.0402 30.7718 6.92051 30.7865C6.80082 30.8013 6.68549 30.8407 6.5818 30.9023C6.47811 30.9639 6.38831 31.0463 6.31807 31.1443C6.17133 31.3325 6.10302 31.5701 6.1274 31.8075C6.15179 32.0449 6.26699 32.2636 6.44893 32.4181C9.87753 35.2709 13.0095 36.8761 16.0455 37.321C16.6546 37.4149 17.27 37.4615 17.8863 37.4606C18.766 37.4569 19.6429 37.3634 20.5036 37.1815C21.7733 36.9098 23.0063 36.4881 24.1764 35.9252L24.9005 36.972C24.9838 37.1241 25.1105 37.248 25.2644 37.3277C25.4183 37.4075 25.5925 37.4396 25.7647 37.42C25.937 37.4003 26.0995 37.3298 26.2315 37.2174C26.3634 37.105 26.459 36.9558 26.5058 36.7889L28.5036 31.7289C28.5574 31.5993 28.5791 31.4587 28.5669 31.319C28.5548 31.1793 28.5091 31.0445 28.4338 30.9262C28.3608 30.8059 28.2618 30.7036 28.144 30.6266C28.0263 30.5496 27.8928 30.4999 27.7534 30.4813L22.3182 29.8706C22.1486 29.8457 21.9754 29.8712 21.8202 29.9441C21.6651 30.0171 21.5348 30.1341 21.4458 30.2806C21.3581 30.4269 21.3119 30.5943 21.3119 30.7648C21.3119 30.9354 21.3581 31.1027 21.4458 31.249L22.0128 32.2C20.5821 33.0675 18.9755 33.604 17.3105 33.7703C14.947 33.9501 12.5763 33.53 10.4184 32.5489ZM23.1121 32.8804C23.2395 32.7933 23.3292 32.6613 23.3632 32.5108C23.3972 32.3602 23.3729 32.2024 23.2953 32.0691L22.7282 31.1182L27.195 31.6241L25.5461 35.8204L24.8395 34.7997C24.7564 34.6803 24.6334 34.5945 24.4926 34.5577C24.3519 34.5209 24.2026 34.5356 24.0718 34.5991C22.8502 35.2206 21.5544 35.6838 20.2157 35.9775C18.8881 36.2643 17.5197 36.3086 16.1764 36.1084C14.1786 35.7617 12.271 35.0171 10.5667 33.9186C12.7235 34.7888 15.0534 35.1443 17.3716 34.9568C19.4275 34.7507 21.4001 34.0372 23.1121 32.8804Z" fill="#007595"/>
<path d="M26.2618 6.00992C26.5061 6.15823 26.698 6.28908 26.8201 6.37632L26.9684 6.48106C27.1609 6.62382 27.4012 6.68631 27.6388 6.65539C27.8764 6.62447 28.0927 6.50255 28.2422 6.3153C28.3211 6.22447 28.3804 6.11828 28.4164 6.00342C28.4523 5.88857 28.4641 5.76752 28.451 5.64789C28.4379 5.52826 28.4002 5.41262 28.3402 5.30827C28.2802 5.20392 28.1993 5.11312 28.1026 5.04155C24.6827 2.18875 21.5507 0.59223 18.506 0.138573C17.018 -0.0849983 15.5017 -0.0377324 14.0305 0.278137C12.7622 0.555094 11.5299 0.976611 10.3576 1.53442L9.63353 0.487508C9.55029 0.335434 9.42362 0.211638 9.2697 0.131864C9.11578 0.0520899 8.94158 0.0199797 8.76933 0.0396384C8.59708 0.0592971 8.4346 0.129842 8.30261 0.242247C8.17062 0.354652 8.07512 0.503815 8.02829 0.670735L6.03918 5.73074C5.98746 5.8622 5.96685 6.00389 5.97896 6.14464C5.99106 6.28539 6.03555 6.42138 6.10896 6.54208C6.17879 6.66429 6.27715 6.76783 6.39565 6.84378C6.51414 6.91974 6.64924 6.96587 6.78945 6.97829L12.2159 7.58899H12.3206C12.4826 7.58891 12.6417 7.54589 12.7817 7.46423C12.9217 7.38258 13.0375 7.26521 13.1173 7.12419C13.1972 6.98317 13.2381 6.8235 13.2361 6.66146C13.2341 6.49943 13.1891 6.34086 13.1057 6.20188L12.5474 5.25965C13.9733 4.38702 15.5776 3.84727 17.241 3.68058C19.5857 3.50491 21.937 3.9188 24.0807 4.88452C24.8319 5.21098 25.5605 5.58693 26.2618 6.00992ZM17.1974 2.52025C15.1415 2.72632 13.1689 3.4398 11.4569 4.59661C11.3272 4.68388 11.2359 4.81758 11.2018 4.97014C11.1677 5.12271 11.1935 5.28252 11.2737 5.41668L11.8407 6.35891L7.37398 5.85289L9.02284 1.6653L9.7295 2.67728C9.81138 2.79813 9.93438 2.8851 10.0756 2.92201C10.2168 2.95892 10.3667 2.9433 10.4972 2.87797C11.7182 2.25506 13.0142 1.79177 14.3533 1.49954C15.6808 1.21274 17.0493 1.16838 18.3926 1.36866C20.3899 1.71665 22.2973 2.46122 24.0022 3.55843C21.8457 2.68678 19.5161 2.32837 17.1974 2.51152V2.52025Z" fill="#007595"/>
<path d="M6.3967 20.2743C7.0748 20.3025 7.75162 20.1933 8.38646 19.9533C9.02129 19.7133 9.60103 19.3474 10.0908 18.8776C10.5806 18.4078 10.9703 17.8437 11.2366 17.2194C11.5028 16.5952 11.6401 15.9235 11.6401 15.2448C11.6401 14.5661 11.5028 13.8944 11.2366 13.2701C10.9703 12.6458 10.5806 12.0818 10.0908 11.612C9.60103 11.1422 9.02129 10.7762 8.38646 10.5362C7.75162 10.2962 7.0748 10.1871 6.3967 10.2153C5.06466 10.2176 3.78785 10.7478 2.84595 11.6897C1.90406 12.6316 1.37389 13.9084 1.37158 15.2404C1.37158 16.574 1.90074 17.853 2.84288 18.7968C3.78502 19.7406 5.06315 20.272 6.3967 20.2743ZM3.77945 12.6319C4.20888 12.2001 4.73828 11.881 5.32063 11.703C5.90299 11.525 6.52029 11.4934 7.11776 11.6113C7.71522 11.7291 8.27436 11.9926 8.74554 12.3783C9.21671 12.7641 9.58535 13.2603 9.81874 13.8228C10.0521 14.3852 10.143 14.9966 10.0834 15.6026C10.0238 16.2087 9.81545 16.7906 9.47691 17.2968C9.13837 17.803 8.6801 18.2178 8.14277 18.5043C7.60544 18.7909 7.00566 18.9404 6.3967 18.9395C5.41565 18.9395 4.47479 18.5497 3.78108 17.856C3.08738 17.1623 2.69766 16.2215 2.69766 15.2404C2.69647 14.7557 2.79146 14.2755 2.97716 13.8278C3.16285 13.38 3.43555 12.9735 3.77945 12.6319Z" fill="#007595"/>
<path d="M12.7653 27.3226C12.7653 27.1394 12.8787 22.8995 10.2091 20.448C10.0875 20.3441 9.93282 20.2871 9.7729 20.2871C9.61298 20.2871 9.45831 20.3441 9.33669 20.448C9.33669 20.448 6.35301 22.6901 3.61363 20.448C3.49201 20.3441 3.33734 20.2871 3.17742 20.2871C3.0175 20.2871 2.86283 20.3441 2.74121 20.448C1.84938 21.3516 1.14753 22.4247 0.677047 23.6039C0.206563 24.7831 -0.0230252 26.0445 0.00182134 27.3139C-0.000275986 27.4014 0.0156835 27.4884 0.0487063 27.5695C0.081729 27.6505 0.131107 27.7239 0.193754 27.785C0.254443 27.8488 0.327553 27.8996 0.40857 27.9341C0.489588 27.9686 0.576807 27.9861 0.664867 27.9857H12.0848C12.1733 27.988 12.2614 27.9726 12.3439 27.9403C12.4264 27.908 12.5015 27.8596 12.565 27.7978C12.6284 27.7359 12.6788 27.662 12.7132 27.5804C12.7476 27.4988 12.7653 27.4112 12.7653 27.3226ZM1.42386 26.6334C1.53195 24.8689 2.1945 23.1835 3.31701 21.8177C4.27234 22.4264 5.38161 22.7498 6.51442 22.7498C7.64723 22.7498 8.75649 22.4264 9.71182 21.8177C10.7829 23.2075 11.3929 24.8974 11.4567 26.6509L1.42386 26.6334Z" fill="#007595"/>
<path d="M25.0923 11.6892C24.387 12.392 23.9064 13.2885 23.7115 14.2649C23.5166 15.2413 23.6161 16.2536 23.9975 17.1733C24.3788 18.0931 25.0248 18.8788 25.8535 19.4308C26.6821 19.9828 27.6561 20.2762 28.6517 20.2738C29.4804 20.2752 30.2967 20.072 31.028 19.6822C31.7593 19.2925 32.3831 18.7281 32.844 18.0394C33.3049 17.3507 33.5886 16.5589 33.67 15.7341C33.7513 14.9094 33.6278 14.0774 33.3104 13.3118C32.993 12.5463 32.4915 11.871 31.8504 11.3459C31.2094 10.8207 30.4486 10.4619 29.6356 10.3014C28.8225 10.1409 27.9825 10.1835 27.1899 10.4256C26.3974 10.6677 25.6768 11.1017 25.0923 11.6892ZM32.3508 15.2399C32.3485 16.2202 31.958 17.1598 31.2648 17.853C30.5716 18.5462 29.6321 18.9366 28.6517 18.9389C28.166 18.9389 27.6849 18.8433 27.2362 18.6574C26.7874 18.4715 26.3796 18.199 26.0361 17.8555C25.6926 17.512 25.4202 17.1042 25.2343 16.6554C25.0484 16.2067 24.9527 15.7257 24.9527 15.2399C24.955 14.2596 25.3454 13.32 26.0386 12.6268C26.7319 11.9336 27.6714 11.5432 28.6517 11.5409C29.6321 11.5432 30.5716 11.9336 31.2648 12.6268C31.958 13.32 32.3485 14.2596 32.3508 15.2399Z" fill="#007595"/>
<path d="M32.4644 20.4484C32.3428 20.3445 32.1881 20.2875 32.0282 20.2875C31.8683 20.2875 31.7136 20.3445 31.592 20.4484C31.592 20.4484 28.6083 22.6905 25.8602 20.4484C25.7394 20.3428 25.5844 20.2847 25.424 20.2847C25.2636 20.2847 25.1086 20.3428 24.9878 20.4484C24.096 21.352 23.3941 22.4251 22.9236 23.6043C22.4531 24.7835 22.2236 26.0449 22.2484 27.3143C22.2447 27.402 22.2599 27.4895 22.293 27.5708C22.3261 27.6521 22.3764 27.7253 22.4403 27.7854C22.5007 27.8496 22.5737 27.9006 22.6548 27.9351C22.7359 27.9697 22.8233 27.987 22.9114 27.986H34.3227C34.4955 27.9861 34.6616 27.9187 34.7854 27.7981C34.9093 27.6775 34.9811 27.5133 34.9857 27.3405C35.0293 27.1398 35.134 22.8998 32.4644 20.4484ZM23.6443 26.6338C23.7524 24.8692 24.4149 23.1838 25.5374 21.8181C26.4928 22.4268 27.602 22.7502 28.7348 22.7502C29.8676 22.7502 30.9769 22.4268 31.9322 21.8181C33.0033 23.2079 33.6133 24.8977 33.6771 26.6513L23.6443 26.6338Z" fill="#007595"/>
</svg>
