<svg width="4195" height="1352" viewBox="0 0 4195 1352" fill="none" xmlns="http://www.w3.org/2000/svg">
<path d="M173.573 1115.77C211.312 1089.3 249.728 1063.95 288.401 1039.02C327.08 1014.1 366.076 989.706 405.273 965.652C424.79 953.478 444.617 941.848 464.274 929.912L493.823 912.131L523.616 894.765C533.521 888.937 543.48 883.195 553.544 877.636C556.351 876.257 557.346 875.007 563.833 872.572C565.438 872.065 567.385 871.626 569.63 871.541C571.864 871.443 574.39 871.803 576.331 872.425C580.334 873.707 582.574 875.458 584.1 876.526L597.91 887.07C616.017 901.239 634.148 915.377 652.096 929.766L637.828 931.267C664.594 903.912 693.411 879.29 722.087 854.846C736.343 842.526 750.886 830.584 764.903 818.093C779.007 805.694 793.116 793.331 806.603 780.334L809.685 777.362L813.114 780.029C886.475 837.101 962.727 890.451 1037.81 945.32C1075.35 972.754 1112.35 1000.88 1149.46 1028.86L1205.04 1070.94C1223.59 1085.04 1241.89 1099.08 1260.33 1111.93C1278.76 1124.83 1297.7 1136.28 1317.55 1144.57C1337.21 1153.03 1358.05 1158.11 1380.1 1160.88C1402.09 1163.66 1424.86 1164.38 1448.05 1165.38L1517.73 1168.21C1610.62 1172.29 1703.48 1177.76 1796.3 1185.63L1796.24 1188.88C1703.2 1193.42 1610.2 1195.56 1517.22 1196.31L1447.49 1196.64C1424.25 1196.79 1400.47 1196.67 1376.26 1194.11C1352.19 1191.6 1327.18 1186.53 1304.04 1176.69C1281 1166.96 1260.03 1154.05 1240.46 1140.27C1220.86 1126.42 1202.82 1111.45 1184.67 1097.06L1130.31 1053.42C1094.12 1024.25 1057.82 995.228 1022.06 965.511C950.547 906.078 880.207 845.137 806.969 787.913L813.474 787.614L771.824 825.818C757.8 838.358 744.173 851.306 730.515 864.163C703.388 890.066 677.275 916.946 653.78 945.552L647.964 952.636L639.512 947.059C620.313 934.385 601.291 921.473 582.251 908.586L568.196 898.841C567.385 898.255 567.183 898.395 568.422 898.853C568.99 899.054 570.07 899.237 570.869 899.195C571.681 899.17 572.212 899.042 572.45 898.975C573.499 898.469 569.771 900.617 567.574 902.026C557.834 908.122 547.99 914.041 538.092 919.868L508.475 937.479L478.621 954.668C458.672 966.054 438.899 977.734 418.809 988.882C378.794 1011.45 338.583 1033.7 298.055 1055.41C257.515 1077.1 216.725 1098.39 175.252 1118.56L173.573 1115.77Z" fill="#552A00"/>
<path d="M984.197 923.707C996.64 909.306 1008.96 894.777 1021.54 880.486L1059.56 837.839L1098.06 795.601L1137.29 754.041C1189.83 698.842 1243.49 644.644 1298.72 592.051L1340.31 552.778L1382.39 514.031L1424.85 475.686L1467.87 437.963L1511.29 400.698L1555.08 363.861L1599.46 327.737L1644.23 292.107L1655.12 283.442L1665.92 292.272L1703.18 322.727L1740.25 353.426L1716.47 355.946C1765.99 295.256 1817.06 235.847 1869.61 177.804C1922.15 119.756 1976.48 63.337 2032.68 8.87667L2040.87 0.950195L2048.66 8.54106C2081.29 40.3264 2120.47 65.7778 2163.16 82.9977C2184.51 91.6137 2206.7 98.2405 2229.36 102.701C2252.01 107.107 2275.15 109.584 2298.3 109.242L2302.04 109.187L2303.67 112.44L2338.49 181.99L2373.74 251.321L2409.56 320.365L2445.96 389.111L2434.02 392.345C2432.98 376.595 2431.57 360.87 2430.36 345.127L2426.58 297.916L2419.06 203.5L2417.08 178.775L2436.67 194.762C2467.18 219.676 2495.31 247.624 2520.73 277.792C2545.84 308.21 2568.5 340.514 2588.81 373.904C2599.05 390.557 2608.9 407.362 2618.61 424.179L2647.06 474.752C2665.98 508.35 2685.57 541.252 2706.72 572.946C2712.1 580.89 2717.29 589.055 2722.36 593.93C2724.98 596.45 2727.36 598.147 2730.2 599.318C2733.1 600.533 2736.73 601.32 2740.86 601.784C2744.96 602.253 2749.63 602.418 2754.53 602.662L2769.03 603.346L2798.01 604.816L2855.98 607.941L2884.96 609.503C2894.53 610.015 2904.55 610.473 2914.97 612.255C2925.29 614.024 2936.32 617.643 2945.5 624.331C2954.56 630.908 2961.33 639.122 2967.25 647.115C2978.75 663.072 2989.55 678.864 3000.73 694.748C3022.93 726.447 3044.85 758.373 3066.56 790.445L3063.96 792.392C3039.32 762.504 3014.89 732.464 2990.75 702.204L2954.6 656.976C2948.68 649.739 2942.49 643.241 2935.59 638.786C2928.79 634.393 2920.87 632.135 2912.11 631.055C2903.38 629.969 2894 630.097 2884.25 629.902L2855.23 629.456L2797.19 628.559L2768.17 628.016L2753.66 627.699C2748.9 627.577 2743.89 627.558 2738.37 627.082C2732.89 626.594 2726.89 625.648 2720.77 623.324C2714.56 621.011 2708.84 617.1 2704.44 612.993C2699.96 608.85 2696.42 604.462 2693.29 600.307C2690.16 596.145 2687.46 592.252 2684.58 588.213C2661.78 556.196 2641.82 522.512 2622.24 489L2593.2 438.756C2583.65 422.013 2574.02 405.391 2564.08 389.031C2544.07 356.41 2523.47 324.356 2499.96 294.548C2476.86 264.447 2451.12 236.414 2422.8 211.042L2440.41 202.31L2443.48 296.977L2445.01 344.31C2445.57 360.083 2445.92 375.875 2446.65 391.637L2448.04 421.762L2434.71 394.871L2400.16 325.18L2365.02 255.788L2329.32 186.683L2293.2 117.797L2298.56 120.995C2274.64 121.672 2250.61 120.409 2226.9 116.626C2203.2 112.897 2179.82 106.887 2157.17 98.7347C2111.89 82.4302 2069.32 57.7354 2033.03 25.3094L2049.01 24.9737C1995.57 81.6064 1943.12 139.093 1891.88 197.624C1840.64 256.148 1790.91 315.978 1742.76 377.029L1732.34 390.246L1718.98 379.549L1681.41 349.466L1644.04 319.139L1665.73 319.304L1621.29 354.811L1577.15 390.691L1533.13 426.717L1489.45 463.177L1446.09 500.021L1402.91 537.078L1360.08 574.563L1317.51 612.346C1261.03 663.042 1204.98 714.304 1149.93 766.666L1067.83 845.772L986.583 925.897L984.197 923.707Z" fill="#552A00"/>
<path d="M1667.57 302.389L1750.7 630.591L1736.87 624.581L1969.02 502.816L1975.95 499.185L1978.75 506.263L2112.31 843.722L1965.9 511.633L1975.62 515.08L1745.97 641.502L1735.38 647.329L1732.13 635.497L1642.39 309.04L1667.57 302.389Z" fill="#552A00"/>
<path d="M2050.2 14.1245C2059.36 44.8847 2069.73 75.651 2081.05 105.813C2092.51 135.927 2104.85 165.814 2120.06 193.798C2127.73 207.656 2136.12 221.306 2146.36 232.302C2151.5 237.708 2157.06 241.918 2163.52 244.628C2169.91 247.264 2176.85 248.063 2183.86 247.282C2197.98 245.519 2211.71 237.555 2223.7 227.829C2235.72 218.072 2246.74 206.185 2255.92 193.786L2262.05 185.505L2266.43 194.53L2552.47 783.111L2255.48 199.979L2265.99 200.73C2256.1 214.618 2245.05 226.944 2232.08 237.964C2219.17 248.722 2204.02 258.461 2185.68 261.219C2176.59 262.458 2166.86 261.548 2158.15 258.107C2149.48 254.739 2141.78 249.003 2135.64 242.742C2123.47 230.111 2114.56 215.918 2106.21 201.566C2089.84 172.709 2076.77 142.584 2064.55 112.214C2052.47 81.7469 2041.48 51.0843 2031.51 19.7383L2050.2 14.1245Z" fill="#552A00"/>
<path d="M2939.81 637.724L2719.67 728.772L2715.5 730.499L2712.36 727.509L2635.32 654.395L2643.66 653.364L2396.61 1022.65L2634.45 647.359L2637.9 641.904L2642.8 646.322L2721.62 717.508L2714.31 716.245L2932.13 619.778L2939.81 637.724Z" fill="#552A00"/>
<path d="M3643.73 780.554C3579.59 789.762 3517.36 813.993 3458.59 844.399C3399.67 874.94 3343.77 911.838 3289.21 950.665C3275.64 960.203 3261.85 970.979 3245.19 978.173C3236.92 981.786 3227.86 984.129 3219.06 985.197C3210.22 986.314 3201.5 986.423 3192.98 986.283L3092.13 983.317C3058.57 982.25 3025.04 981.084 2992.03 986.326C2975.6 988.968 2959.35 993.264 2944.24 1000.37C2929.18 1007.49 2915.44 1017.69 2904.84 1030.76C2914.89 1017.27 2928.34 1006.37 2943.32 998.511C2958.35 990.67 2974.72 985.618 2991.3 982.25C3024.57 975.55 3058.69 975.348 3092.2 975.037L3192.93 973.865C3209.49 973.53 3225.4 971.87 3239.22 964.975C3253.3 958.25 3265.93 947.688 3279.35 937.382C3332.66 896.175 3387.68 856.567 3446.87 822.829C3505.96 789.28 3569.67 761.174 3638.47 748.433L3643.73 780.554Z" fill="#552A00"/>
<path d="M647.903 952.612C614.106 983.537 579.596 1013.79 544.255 1042.87L437.971 1129.51L537.774 1035.57C570.851 1004.14 602.865 971.766 634.215 938.681L647.903 952.612Z" fill="#552A00"/>
<path d="M622.119 960.368L543.779 907.378" stroke="#552A00" stroke-width="1.0667" stroke-miterlimit="10"/>
<path d="M603.683 979.949L517.282 923.505" stroke="#552A00" stroke-width="1.0667" stroke-miterlimit="10"/>
<path d="M581.793 1000.68L490.784 941.934" stroke="#552A00" stroke-width="1.0667" stroke-miterlimit="10"/>
<path d="M547.233 1030.63L447.003 963.821" stroke="#552A00" stroke-width="1.0667" stroke-miterlimit="10"/>
<path d="M516.128 1062.89L408.984 989.163" stroke="#552A00" stroke-width="1.0667" stroke-miterlimit="10"/>
<path d="M471.194 1098.6L358.295 1017.96" stroke="#552A00" stroke-width="1.0667" stroke-miterlimit="10"/>
<path d="M2864.4 620.767L2899.12 644.913" stroke="#552A00" stroke-width="1.0667" stroke-miterlimit="10"/>
<path d="M2831.94 624.538L2866.66 654.725" stroke="#552A00" stroke-width="1.0667" stroke-miterlimit="10"/>
<path d="M2791.93 621.518L2835.71 669.821" stroke="#552A00" stroke-width="1.0667" stroke-miterlimit="10"/>
<path d="M2747.4 618.503L2796.46 684.917" stroke="#552A00" stroke-width="1.0667" stroke-miterlimit="10"/>
<path d="M3592.16 774.714L3734.11 863.743L3587.22 783.129L3592.16 774.714Z" fill="#552A00"/>
<path d="M3549.73 785.808L3829.03 953.613L3544.83 794.253L3549.73 785.808Z" fill="#552A00"/>
<path d="M3495.21 810.051L3719.97 947.553L3490.27 818.472L3495.21 810.051Z" fill="#552A00"/>
<path d="M3446.62 836.241L3616.96 935.435L3441.92 844.796L3446.62 836.241Z" fill="#552A00"/>
<path d="M3404.22 859.471L3505.87 921.297L3399.49 868.014L3404.22 859.471Z" fill="#552A00"/>
<path d="M3357.78 887.754L3424.07 930.389L3353.02 896.278L3357.78 887.754Z" fill="#552A00"/>
<path d="M1018.23 942.91L1276.72 705.194L1027.22 952.325L1018.23 942.91Z" fill="#552A00"/>
<path d="M1043.6 959.044L1265.73 761.107L1052.47 968.575L1043.6 959.044Z" fill="#552A00"/>
<path d="M1073.49 983.574L1260.29 815.519L1082.45 993.02L1073.49 983.574Z" fill="#552A00"/>
<path d="M1119.77 1010.76L1331.04 820.961L1128.69 1020.25L1119.77 1010.76Z" fill="#552A00"/>
<path d="M1146.97 1035.26L1292.94 906.67L1155.91 1044.73L1146.97 1035.26Z" fill="#552A00"/>
<path d="M1178.22 1062.51L1331.04 924.354L1187.25 1071.89L1178.22 1062.51Z" fill="#552A00"/>
<path d="M1202.76 1088.93L1318.79 988.297L1211.7 1098.4L1202.76 1088.93Z" fill="#552A00"/>
<path d="M1239.5 1108.71L1310.63 1050.88L1248.42 1118.2L1239.5 1108.71Z" fill="#552A00"/>
<path d="M3115.96 669.382L3201.64 748.806L3223.06 768.661L3228.4 773.622C3230.24 775.288 3231.05 775.892 3232.17 775.721C3233.51 775.599 3235.87 774.245 3238.04 773.22L3244.59 770.004L3297.04 744.284L3246.92 774.293L3240.65 778.046C3238.5 779.2 3236.79 780.756 3233.35 781.707C3231.66 782.159 3229.4 781.921 3227.84 781.164C3226.22 780.45 3225.06 779.517 3224.05 778.742L3218.29 774.239L3195.29 756.238L3103.27 684.246L3115.96 669.382Z" fill="#552A00"/>
<path d="M1136.74 763.132C1102.95 734.185 1069.16 705.237 1035.37 676.295C1032.89 674.178 1030.16 671.944 1026.9 671.804C1022.76 671.627 1019.34 674.837 1016.5 677.851C967.915 729.334 928.418 791.055 869.155 829.779C907.968 859.056 944.297 898.835 985.399 924.805L1136.74 763.132Z" fill="#552A00"/>
<path d="M724.479 859.654C712.128 851.447 700.337 842.404 689.2 832.616C662.464 858.684 633.714 882.695 603.299 904.357C619.52 911.033 635.045 919.374 649.569 929.217" fill="#552A00"/>
<path d="M2458.06 1232.56C2487.48 1201.73 2518.75 1172.82 2550.11 1144.12C2581.55 1115.51 2613.28 1087.24 2645.17 1059.21L2740.61 975.092C2756.47 961.057 2772.08 946.84 2787.49 932.524C2802.72 918.508 2817.61 902.96 2834.65 888.657C2851.53 874.372 2871.01 861.186 2893.95 853.937C2905.29 850.214 2917.69 848.402 2929.01 848.274C2940.42 847.987 2951.28 848.622 2961.7 848.994C2982.42 850.068 3002.09 849.989 3016.32 840.854C3030.7 832.287 3038.49 812.199 3047.94 793.033C3057 773.824 3066.31 754.724 3075.07 735.381L3088.34 706.427L3094.74 691.855C3096.89 686.998 3099.15 681.75 3102.77 676.832C3106.3 671.847 3111.82 667.746 3117.52 665.672C3123.26 663.524 3129.05 662.773 3134.6 662.401C3145.74 661.895 3155.89 662.096 3166.5 661.455C3187.51 660.497 3208.41 657.733 3229.07 654.078C3249.7 650.179 3270.07 645.059 3290 638.683C3310.08 632.263 3329.07 624.691 3348.74 616.136C3358.71 611.956 3369.26 607.867 3380.88 605.372C3392.38 602.791 3405.52 602.4 3417.84 605.524C3430.08 608.551 3440.87 613.945 3450.49 619.711C3460.18 625.557 3468.76 631.324 3477.76 637.047C3548.93 683.319 3620.35 729.181 3690.72 776.637C3726.12 800.032 3760.75 824.586 3795.79 848.543C3830.66 872.737 3864.99 897.786 3900.36 921.211C3970.72 968.666 4040.42 1017.17 4109.06 1067.47L4107.32 1070.22C4032.52 1029.59 3958.8 987.174 3885.72 943.703L3858.3 927.435C3849.19 921.968 3840.38 916.037 3831.4 910.362L3777.83 875.886C3742.41 852.454 3706.58 829.62 3671.53 805.621C3600.98 758.294 3531.5 709.374 3461.75 660.863C3444.04 648.788 3427.67 635.4 3411.15 630.28C3395.02 624.959 3375.87 629.304 3356.21 636.004C3336.35 642.954 3315.28 649.544 3294.45 654.572C3273.46 659.515 3252.32 663.615 3231.02 666.38C3209.74 669.26 3188.35 671.035 3166.93 671.731C3156.33 672.25 3145.24 671.939 3135.17 672.28C3125.02 672.598 3115.89 675.398 3110.95 682.812C3108.31 686.504 3106.34 691.093 3104.31 695.968L3098.16 710.656L3086.33 740.226C3078.34 759.899 3070.92 779.81 3063.25 799.617C3059.39 809.539 3056.07 819.418 3051.29 829.877C3046.6 840.122 3039.6 851.105 3029.26 858.928C3019.09 866.897 3006.74 871.169 2995.12 873.243C2983.41 875.336 2972.12 875.727 2961.31 875.898C2950.51 875.965 2940.13 875.831 2930.32 876.508C2920.45 877.216 2911.67 878.638 2902.81 881.548C2885.19 887.382 2868.69 898.237 2852.9 910.832C2837.13 923.512 2822.22 938.303 2806.09 952.893C2790.02 967.062 2773.83 980.968 2757.5 994.631C2724.97 1022.11 2691.9 1048.79 2658.81 1075.43C2625.74 1102.08 2592.42 1128.39 2559.21 1154.81C2526.02 1181.27 2492.71 1207.54 2460.31 1234.93L2458.06 1232.56Z" fill="#552A00"/>
<path d="M2934.94 630.164C2982.94 599.343 3030.92 568.521 3078.91 537.7C3107.43 572.964 3137.38 607.068 3168.68 639.896C3194.92 618.314 3223.58 599.684 3253.96 584.466C3268.14 604.529 3282.31 624.593 3296.49 644.662C3240.65 657.69 3185.7 661.559 3129.91 667.447C3122.58 668.222 3117.23 670.577 3111.31 674.952C3106.59 678.431 3103.43 681.384 3100.64 686.534C3083.98 717.233 3074.76 747.627 3056.86 778.638L2934.94 630.164Z" fill="#552A00"/>
<path d="M1324.35 1174.89C1344.61 1137.86 1363.98 1084.88 1384.26 1047.85C1398.42 1087.82 1412.57 1127.79 1426.73 1167.76C1434.09 1114.38 1447.91 1061.9 1467.81 1011.83C1480.14 1066.49 1492.46 1121.17 1504.8 1175.84C1522.71 1136.13 1540.63 1096.42 1558.54 1056.71C1567.64 1098.4 1576.74 1140.09 1585.84 1181.78C1596.01 1152.52 1606.19 1123.27 1616.37 1094.01C1625.82 1122.13 1635.28 1150.26 1644.73 1178.39C1663.35 1132.93 1681.96 1087.48 1700.58 1042.03C1714.58 1087.64 1724.49 1134.5 1730.14 1181.87C1739.57 1147.21 1752.31 1113.46 1768.15 1081.22C1781.43 1116.92 1796.11 1155.27 1809.39 1190.97L1324.35 1174.89Z" fill="#1A430B"/>
<path d="M149.846 1167.4C148.772 1229.09 151.079 1290.64 156.596 1351.72H314.862C316.968 1308.57 320.672 1265.61 326.085 1223.02C327.556 1266.16 330.778 1309.09 335.581 1351.72H467.197L481.129 1219.93L487.745 1351.72H606.38C615.888 1296.92 623.193 1241.6 628.002 1185.9C630.144 1241 629.857 1296.34 627.325 1351.72H767.595C771.744 1302.71 777.396 1253.93 784.707 1205.52C784.499 1254.4 785.982 1303.16 788.948 1351.72H894.945L905.155 1234.38L915.963 1351.72H1026.26L1044.37 1204.49L1048.29 1351.72H1120.64C1097.79 1275.83 1074.94 1199.95 1052.09 1124.07C1026.01 1189.28 997.757 1253.62 967.39 1316.96C946.262 1270.03 927.857 1221.86 912.307 1172.8C890.679 1220.45 873.342 1270.05 860.563 1320.79C835.847 1249.85 815.452 1177.4 799.524 1103.98C767.79 1169.9 736.05 1235.83 704.316 1301.75C681.602 1229.65 658.888 1157.54 636.174 1085.44C604.714 1161.1 573.249 1236.77 541.79 1312.43C526.881 1248.4 511.972 1184.38 497.063 1120.35C462.919 1181.94 428.781 1243.54 394.636 1305.13C374.919 1245.55 355.201 1185.97 335.483 1126.39C309.437 1187.59 289.024 1251.19 274.591 1316.12C235.607 1231.04 196.617 1145.96 157.633 1060.89C105.168 1151.49 52.6978 1261.12 0.233154 1351.73H135.273C136.854 1289.89 141.699 1228.33 149.846 1167.4Z" fill="#1A430B"/>
<path d="M65.8673 1300.74C71.7686 1300.57 76.8521 1302.21 81.7526 1304.28C86.5676 1306.53 91.1812 1309.22 94.9831 1313.75C89.0757 1313.94 83.9922 1312.29 79.0979 1310.21C74.289 1307.95 69.6754 1305.26 65.8673 1300.74Z" fill="white"/>
<path d="M81.9356 1253.73C87.8125 1254.39 92.6397 1256.73 97.2106 1259.47C101.678 1262.38 105.882 1265.7 109.025 1270.72C103.136 1270.07 98.3152 1267.73 93.7504 1264.98C89.2954 1262.06 85.0846 1258.74 81.9356 1253.73Z" fill="white"/>
<path d="M102.587 1209.46C107.573 1209.9 111.393 1211.95 114.939 1214.38C118.362 1216.97 121.505 1219.95 123.476 1224.57C118.484 1224.14 114.664 1222.09 111.125 1219.65C107.707 1217.04 104.564 1214.05 102.587 1209.46Z" fill="white"/>
<path d="M121.042 1161.34C124.764 1161.56 127.028 1163.13 128.957 1165.03C130.733 1167.07 132.161 1169.43 132.124 1173.17C128.395 1172.96 126.125 1171.38 124.209 1169.48C122.439 1167.43 121.017 1165.07 121.042 1161.34Z" fill="white"/>
<path d="M152.446 1106.85C154.942 1112.67 155.461 1118.29 155.503 1123.93C155.345 1129.56 154.698 1135.17 152.055 1140.93C149.541 1135.33 149.028 1129.58 148.998 1123.85C149.175 1118.13 149.816 1112.39 152.446 1106.85Z" fill="white"/>
<path d="M182.379 1168.22C182.965 1171.66 181.983 1173.87 180.628 1175.79C179.108 1177.59 177.21 1179.11 173.732 1179.39C173.134 1175.94 174.116 1173.73 175.483 1171.81C177.015 1170.02 178.907 1168.51 182.379 1168.22Z" fill="white"/>
<path d="M167.44 1224.46C171.626 1220.75 176.057 1218.79 180.622 1217.04C185.254 1215.48 189.922 1214.19 195.518 1214.41C192.101 1218.86 187.554 1221.37 182.813 1223.16C178.01 1224.77 172.908 1225.73 167.44 1224.46Z" fill="white"/>
<path d="M170.443 1273.83C174.745 1269.5 179.908 1266.97 185.217 1264.89C190.594 1263 196.165 1261.54 202.256 1262.04C197.74 1266.46 192.705 1268.95 187.481 1270.98C182.184 1272.83 176.747 1274.23 170.443 1273.83Z" fill="white"/>
<path d="M185.37 1319.13C189.8 1315.16 194.548 1312.91 199.424 1310.87C204.38 1309.01 209.372 1307.39 215.328 1307.27C211.691 1312.01 206.863 1314.81 201.816 1316.91C196.702 1318.82 191.265 1320.07 185.37 1319.13Z" fill="white"/>
<path d="M287.516 1318.25C291.129 1317.91 293.472 1319.1 295.517 1320.65C297.433 1322.36 299.038 1324.44 299.368 1328.06C295.749 1328.41 293.405 1327.22 291.367 1325.66C289.469 1323.94 287.858 1321.86 287.516 1318.25Z" fill="white"/>
<path d="M296.927 1270.41C300.6 1270.43 302.877 1271.86 304.823 1273.63C306.63 1275.55 308.094 1277.8 308.155 1281.49C304.469 1281.48 302.193 1280.05 300.259 1278.26C298.464 1276.34 296.994 1274.08 296.927 1270.41Z" fill="white"/>
<path d="M330.393 1183.67C332.963 1187.28 333.536 1190.9 333.646 1194.51C333.549 1198.13 332.975 1201.74 330.393 1205.35C327.812 1201.74 327.238 1198.13 327.141 1194.51C327.251 1190.9 327.83 1187.29 330.393 1183.67Z" fill="white"/>
<path d="M358.203 1248.05C358.112 1252.66 356.751 1256.05 355.158 1259.41C353.388 1262.67 351.435 1265.76 347.737 1268.54C346.559 1264.05 347.634 1260.04 349.361 1256.45C351.271 1252.95 353.889 1249.74 358.203 1248.05Z" fill="white"/>
<path d="M371.141 1307.46C371.538 1311.42 370.293 1314.25 368.663 1316.81C366.863 1319.26 364.672 1321.43 360.821 1322.47C360.413 1318.51 361.658 1315.68 363.299 1313.12C365.112 1310.69 367.309 1308.51 371.141 1307.46Z" fill="white"/>
<path d="M417.802 1315.52C422.782 1315.63 426.7 1317.42 430.367 1319.61C433.925 1321.97 437.227 1324.74 439.454 1329.2C434.468 1329.11 430.55 1327.31 426.895 1325.11C423.343 1322.73 420.042 1319.97 417.802 1315.52Z" fill="white"/>
<path d="M436.458 1273.96C440.864 1274.29 443.989 1276.16 446.82 1278.38C449.518 1280.76 451.91 1283.51 453.014 1287.79C448.602 1287.47 445.471 1285.6 442.652 1283.37C439.961 1280.98 437.569 1278.23 436.458 1273.96Z" fill="white"/>
<path d="M456.829 1227.59C460.392 1227.34 462.632 1228.57 464.554 1230.15C466.343 1231.88 467.807 1233.97 467.941 1237.55C464.365 1237.81 462.132 1236.58 460.216 1234.99C458.434 1233.26 456.969 1231.16 456.829 1227.59Z" fill="white"/>
<path d="M487.696 1171.91C490.235 1175.34 490.778 1178.92 490.857 1182.47C490.729 1186.03 490.125 1189.6 487.513 1192.99C484.962 1189.35 484.413 1185.9 484.352 1182.42C484.492 1178.95 485.102 1175.5 487.696 1171.91Z" fill="white"/>
<path d="M508.115 1233.18C509.25 1236.09 508.396 1238.08 507.127 1239.53C505.717 1240.86 503.752 1241.77 500.798 1240.71C500.707 1237.6 501.415 1236.21 502.458 1235.01C503.636 1233.93 505.009 1233.18 508.115 1233.18Z" fill="white"/>
<path d="M516.897 1272.93C515.17 1276.81 512.863 1279.01 510.343 1281.08C507.7 1282.98 504.972 1284.63 500.762 1285.27C501.274 1281.02 503.63 1278.14 506.388 1275.91C509.269 1273.84 512.668 1272.32 516.897 1272.93Z" fill="white"/>
<path d="M524.336 1314.44C521.975 1318.9 518.569 1321.68 514.92 1324.06C511.161 1326.26 507.151 1328.06 502.086 1328.15C504.442 1323.67 507.847 1320.89 511.502 1318.52C515.274 1316.33 519.283 1314.53 524.336 1314.44Z" fill="white"/>
<path d="M569.527 1312.51C573.487 1312.38 576.203 1313.8 578.632 1315.59C580.932 1317.54 582.934 1319.87 583.691 1323.76C579.724 1323.91 577.002 1322.48 574.586 1320.68C572.291 1318.73 570.289 1316.4 569.527 1312.51Z" fill="white"/>
<path d="M581.762 1268.16C586.156 1267.9 589.494 1269.32 592.582 1271.14C595.56 1273.13 598.276 1275.52 599.93 1279.61C595.524 1279.89 592.192 1278.46 589.11 1276.63C586.138 1274.64 583.416 1272.24 581.762 1268.16Z" fill="white"/>
<path d="M599.222 1215.31C602.609 1214.77 604.733 1215.78 606.557 1217.14C608.254 1218.66 609.639 1220.55 609.749 1223.99C606.35 1224.53 604.232 1223.53 602.414 1222.16C600.736 1220.62 599.344 1218.74 599.222 1215.31Z" fill="white"/>
<path d="M630.858 1142.79C633.427 1146.81 634.001 1150.84 634.111 1154.86C634.013 1158.89 633.44 1162.92 630.858 1166.94C628.277 1162.92 627.703 1158.89 627.606 1154.86C627.709 1150.84 628.289 1146.81 630.858 1142.79Z" fill="white"/>
<path d="M657.448 1217.09C658.015 1220.96 656.679 1223.84 654.884 1226.29C652.938 1228.62 650.448 1230.59 646.542 1230.94C646.701 1227.04 648.08 1224.57 649.77 1222.27C651.62 1220.09 653.701 1218.17 657.448 1217.09Z" fill="white"/>
<path d="M668.573 1275.27C668.408 1278.89 666.901 1281.04 665.076 1282.85C663.117 1284.5 660.835 1285.8 657.203 1285.62C657.362 1281.99 658.87 1279.83 660.7 1278.04C662.665 1276.4 664.948 1275.1 668.573 1275.27Z" fill="white"/>
<path d="M675.994 1313.03C673.833 1318.21 670.391 1321.86 666.644 1325.15C662.769 1328.28 658.583 1331.05 653.109 1332.28C655.263 1327.1 658.705 1323.45 662.458 1320.17C666.339 1317.04 670.526 1314.27 675.994 1313.03Z" fill="white"/>
<path d="M726.658 1309.13C730.82 1308.99 733.951 1310.55 736.776 1312.48C739.486 1314.57 741.927 1317.07 743.062 1321.09C738.729 1321.12 735.702 1319.63 732.944 1317.74C730.307 1315.67 727.964 1313.25 726.658 1309.13Z" fill="white"/>
<path d="M737.441 1271.59C741.341 1271.28 744.057 1272.57 746.498 1274.24C748.817 1276.07 750.849 1278.29 751.685 1282.12C747.773 1282.44 745.057 1281.15 742.629 1279.47C740.322 1277.62 738.296 1275.41 737.441 1271.59Z" fill="white"/>
<path d="M758.917 1223.5C761.748 1222.66 763.201 1223.25 764.33 1224.18C765.318 1225.26 765.971 1226.68 765.239 1229.56C762.401 1230.41 760.949 1229.82 759.826 1228.87C758.849 1227.79 758.197 1226.37 758.917 1223.5Z" fill="white"/>
<path d="M792.011 1152.09C794.458 1155.99 794.916 1159.82 794.904 1163.64C794.69 1167.46 793.995 1171.26 791.291 1175C788.832 1171.1 788.374 1167.26 788.399 1163.44C788.63 1159.62 789.326 1155.82 792.011 1152.09Z" fill="white"/>
<path d="M806.975 1221.68C806.908 1225.08 806.102 1226.82 804.998 1228.51C803.741 1230.09 802.331 1231.39 799.103 1232.5C797.546 1229.43 798.34 1226.75 799.731 1224.69C801.281 1222.73 803.576 1221.15 806.975 1221.68Z" fill="white"/>
<path d="M816.739 1269.81C816.208 1273.66 814.652 1275.98 812.815 1278.13C810.832 1280.14 808.653 1281.88 804.845 1282.72C804.497 1278.82 806.041 1276.02 808.031 1273.72C810.173 1271.56 812.834 1269.79 816.739 1269.81Z" fill="white"/>
<path d="M829.799 1310.76C828.347 1315.36 825.771 1318.3 822.866 1320.92C819.833 1323.37 816.501 1325.43 811.723 1326.11C812.968 1321.67 815.665 1318.62 818.656 1315.96C821.774 1313.45 825.222 1311.28 829.799 1310.76Z" fill="white"/>
<path d="M873.622 1311.96C877.406 1312.67 879.615 1314.59 881.452 1316.8C883.13 1319.13 884.424 1321.76 884.131 1325.6C880.335 1324.9 878.126 1322.98 876.301 1320.76C874.635 1318.42 873.342 1315.8 873.622 1311.96Z" fill="white"/>
<path d="M884.137 1276.62C887.06 1277.52 888.086 1278.71 888.781 1280.11C889.294 1281.59 889.404 1283.15 887.976 1285.87C884.9 1285.67 883.545 1284.22 882.776 1282.6C882.178 1280.91 882.111 1278.93 884.137 1276.62Z" fill="white"/>
<path d="M931.347 1277.85C931.811 1281.46 931.024 1283.74 929.932 1285.93C928.668 1288.04 927.161 1289.91 923.847 1291.44C922.328 1288.09 922.993 1285.23 924.238 1282.79C925.654 1280.44 927.716 1278.36 931.347 1277.85Z" fill="white"/>
<path d="M946.189 1315C945.194 1318.87 943.345 1321.12 941.24 1323.2C939 1325.14 936.602 1326.8 932.653 1327.46C932.678 1323.44 934.551 1320.65 936.834 1318.42C939.25 1316.34 942.18 1314.7 946.189 1315Z" fill="white"/>
<path d="M992.563 1317.67C996.829 1316.68 1000.48 1317.88 1003.68 1319.68C1006.78 1321.65 1009.55 1324.31 1010.67 1328.56C1006.31 1328.34 1003.29 1326.93 1000.33 1325.25C997.47 1323.41 994.803 1321.4 992.563 1317.67Z" fill="white"/>
<path d="M1006.32 1276.53C1009.88 1276.05 1012.2 1277.13 1014.23 1278.58C1016.14 1280.19 1017.76 1282.19 1018.14 1285.76C1014.58 1286.25 1012.26 1285.17 1010.23 1283.71C1008.33 1282.08 1006.71 1280.09 1006.32 1276.53Z" fill="white"/>
<path d="M1019.86 1232.02C1023.16 1232.07 1024.88 1233.35 1026.23 1234.91C1027.43 1236.59 1028.24 1238.58 1027.47 1241.79C1024.17 1241.75 1022.44 1240.47 1021.1 1238.91C1019.92 1237.21 1019.1 1235.23 1019.86 1232.02Z" fill="white"/>
<path d="M1046.6 1171.91C1049.01 1174.44 1049.54 1176.68 1049.7 1178.98C1049.65 1181.28 1049.23 1183.53 1046.93 1186.18C1044.09 1184.09 1043.34 1181.59 1043.2 1179.12C1043.25 1176.65 1043.88 1174.12 1046.6 1171.91Z" fill="white"/>
<path d="M1069.52 1246.28C1070.4 1249.43 1069.24 1251.57 1067.67 1253.09C1065.98 1254.47 1063.71 1255.37 1060.69 1254.12C1061.12 1250.9 1062.08 1249.47 1063.36 1248.23C1064.76 1247.12 1066.29 1246.33 1069.52 1246.28Z" fill="white"/>
<path d="M1080.03 1279.73C1078.49 1284.37 1075.84 1287.36 1072.86 1290C1069.75 1292.48 1066.35 1294.58 1061.51 1295.28C1062.84 1290.8 1065.62 1287.71 1068.68 1285.01C1071.87 1282.47 1075.39 1280.28 1080.03 1279.73Z" fill="white"/>
<path d="M1084.99 1320.01C1084.1 1323.28 1082.09 1324.9 1079.9 1326.07C1077.63 1327.06 1075.11 1327.62 1072 1326.27C1073.21 1322.83 1075.02 1321.3 1077.08 1320.21C1079.22 1319.29 1081.54 1318.82 1084.99 1320.01Z" fill="white"/>
<path d="M4151.95 1082.14L4194.77 1082.18C4184.74 1052.15 4169.97 988.797 4157.78 959.623C4144.19 985.081 4130.6 1010.53 4117.02 1035.99C4105.29 1006.35 4093.56 976.721 4081.82 947.084C4067.1 972.273 4052.37 997.462 4037.65 1022.65C4019.44 980.37 4001.24 938.089 3983.04 895.815C3953.56 936.832 3927.59 980.523 3905.52 1026.21C3886.09 981.377 3866.66 936.552 3847.23 891.72C3825.93 937.833 3804.64 983.94 3783.35 1030.05C3760.6 963.614 3737.85 897.175 3715.11 830.737C3682.56 898.042 3650.02 965.347 3617.47 1032.65C3600.16 982.188 3582.85 931.725 3565.53 881.261C3545.18 932.713 3524.83 984.166 3504.48 1035.62C3485.64 987.625 3466.8 939.633 3447.96 891.641C3422.06 945.564 3417.13 958.519 3395.24 1014.29L3389.52 1029.16C3378.02 1010.43 3366.51 991.702 3355 972.981C3346.41 991.824 3337.82 1010.67 3329.23 1029.51C3323.75 1007.87 3316.18 986.783 3306.68 966.671C3291.41 994.539 3259.95 1053.47 3244.67 1081.33L3284.52 1081.37C3291.25 1060.43 3297.03 1039.05 3301.66 1017.28C3302.42 1038.52 3302.11 1059.92 3300.81 1081.38L3345.98 1081.43C3350.4 1059.79 3353.83 1037.83 3356.09 1015.59C3359.3 1037.28 3361.39 1059.28 3362.47 1081.44L3437.41 1081.51C3443.66 1039.51 3447.7 997.022 3449.17 954.26C3453.41 996.376 3455.14 1038.89 3454.64 1081.53L3551.55 1081.61C3557.56 1042.62 3561.7 1003.19 3563.67 963.492C3567.26 1002.61 3568.74 1042.06 3568.33 1081.63L3692.15 1081.74L3705.01 931.56L3709.35 1081.75L3838.61 1081.87C3842.69 1042.33 3845.52 1002.58 3846.91 962.656C3851.17 1002.18 3854.02 1041.97 3855.61 1081.89L3963.2 1081.99L3974.63 963.498L3979.79 1082.01L4068.04 1082.08L4075.91 997.944L4084.75 1082.1L4134.97 1082.14L4145.92 1022.31L4151.95 1082.14Z" fill="#1A430B"/>
<path d="M3301.67 1017.27C3297.03 1039.05 3291.26 1060.42 3284.53 1081.36L3300.82 1081.38C3302.12 1059.92 3302.43 1038.52 3301.67 1017.27Z" fill="white"/>
<path d="M3345.98 1081.42L3362.47 1081.43C3361.39 1059.27 3359.3 1037.28 3356.1 1015.58C3353.83 1037.82 3350.4 1059.79 3345.98 1081.42Z" fill="white"/>
<path d="M3449.19 954.248C3447.71 997.01 3443.67 1039.5 3437.42 1081.5L3454.65 1081.52C3455.15 1038.88 3453.42 996.364 3449.19 954.248Z" fill="white"/>
<path d="M3563.68 963.486C3561.71 1003.19 3557.57 1042.6 3551.56 1081.61L3568.34 1081.62C3568.76 1042.06 3567.28 1002.6 3563.68 963.486Z" fill="white"/>
<path d="M3692.16 1081.73L3709.37 1081.74L3705.02 931.548L3692.16 1081.73Z" fill="white"/>
<path d="M3838.63 1081.86L3855.63 1081.88C3854.04 1041.96 3851.19 1002.18 3846.93 962.644C3845.54 1002.56 3842.71 1042.32 3838.63 1081.86Z" fill="white"/>
<path d="M3963.21 1081.97L3979.81 1081.99L3974.64 963.479L3963.21 1081.97Z" fill="white"/>
<path d="M4068.06 1082.06L4084.77 1082.08L4075.92 997.926L4068.06 1082.06Z" fill="white"/>
<path d="M4145.93 1022.3L4134.98 1082.12L4151.95 1082.14L4145.93 1022.3Z" fill="white"/>
<path d="M3403.86 1049.92C3407.75 1049.12 3410.6 1049.88 3413.34 1050.99C3416.01 1052.28 3418.48 1053.88 3420.49 1057.31C3416.77 1058.74 3413.59 1058.11 3410.7 1056.93C3407.9 1055.57 3405.3 1053.63 3403.86 1049.92Z" fill="white"/>
<path d="M3410.04 1018.9C3414.42 1018.23 3417.82 1019.12 3421.15 1020.31C3424.41 1021.7 3427.5 1023.37 3430.24 1026.86C3426.03 1028.31 3422.25 1027.64 3418.76 1026.36C3415.35 1024.9 3412.13 1022.83 3410.04 1018.9Z" fill="white"/>
<path d="M3420.92 986.161C3423.84 984.892 3425.76 985.337 3427.44 986.191C3429.01 987.223 3430.35 988.663 3430.67 991.842C3427.75 993.123 3425.83 992.678 3424.16 991.811C3422.59 990.768 3421.26 989.328 3420.92 986.161Z" fill="white"/>
<path d="M3429.79 953.79C3432.73 952.795 3434.77 953.582 3436.49 954.723C3438.08 956.029 3439.42 957.756 3439.29 960.874C3436 961.631 3434.17 960.996 3432.6 959.941C3431.15 958.726 3430.02 957.152 3429.79 953.79Z" fill="white"/>
<path d="M3449.03 923.64C3451.34 926.251 3451.8 928.478 3451.89 930.761C3451.78 933.043 3451.29 935.264 3448.92 937.839C3446.14 935.691 3445.46 933.171 3445.38 930.712C3445.51 928.253 3446.23 925.745 3449.03 923.64Z" fill="white"/>
<path d="M3468.39 969.076C3470.19 971.736 3469.9 973.939 3469.1 975.812C3468.12 977.594 3466.54 979.168 3463.32 979.345C3462.21 976.337 3462.55 974.58 3463.26 972.932C3464.16 971.37 3465.35 970.034 3468.39 969.076Z" fill="white"/>
<path d="M3484.4 1009.39C3483.68 1013.41 3483.23 1015.88 3481.74 1018.95C3480.95 1020.39 3480.03 1021.91 3478.63 1023.17C3477.29 1024.44 3475.51 1025.56 3473.35 1025.63C3473.99 1021.58 3474.44 1019.09 3475.94 1016.01C3476.75 1014.57 3477.67 1013.05 3479.09 1011.79C3480.45 1010.53 3482.25 1009.43 3484.4 1009.39Z" fill="white"/>
<path d="M3487.21 1043.86C3486.87 1048.02 3485.01 1050.91 3482.82 1053.47C3480.47 1055.89 3477.76 1058.01 3473.63 1058.7C3474.02 1054.45 3475.84 1051.61 3478.01 1049.09C3480.35 1046.7 3483.01 1044.64 3487.21 1043.86Z" fill="white"/>
<path d="M3521.23 1044.55C3524.76 1044.43 3526.79 1045.4 3528.69 1046.67C3530.49 1048.1 3532.01 1049.74 3532.94 1053.15C3529.58 1054.3 3526.97 1053.36 3524.84 1051.91C3522.83 1050.3 3521.15 1048.1 3521.23 1044.55Z" fill="white"/>
<path d="M3528.97 1018.51C3532.33 1017.54 3534.65 1018.28 3536.73 1019.41C3538.71 1020.72 3540.43 1022.44 3541.12 1025.87C3537.75 1026.86 3535.43 1026.12 3533.36 1024.98C3531.39 1023.65 3529.66 1021.93 3528.97 1018.51Z" fill="white"/>
<path d="M3538.23 982.091C3541.58 981.969 3543.37 982.921 3544.99 984.184C3546.47 985.6 3547.66 987.247 3547.99 990.591C3544.75 991.512 3542.5 990.518 3540.72 989.09C3539.07 987.516 3537.78 985.429 3538.23 982.091Z" fill="white"/>
<path d="M3560.97 921.602C3563.67 924.018 3564.38 926.239 3564.62 928.527C3564.65 930.828 3564.19 933.11 3561.77 935.813C3559.08 933.781 3558.36 931.328 3558.12 928.887C3558.1 926.44 3558.54 923.92 3560.97 921.602Z" fill="white"/>
<path d="M3585.55 980.181C3586.64 983.305 3586.03 985.386 3585.03 987.217C3583.85 988.944 3582.27 990.414 3578.98 990.835C3577.88 987.705 3578.48 985.624 3579.5 983.8C3580.69 982.085 3582.27 980.608 3585.55 980.181Z" fill="white"/>
<path d="M3597.9 1012.9C3597.63 1017.24 3595.99 1020.12 3593.97 1022.74C3591.79 1025.22 3589.26 1027.36 3585.04 1028.42C3585.1 1024.31 3586.86 1021.28 3588.96 1018.59C3591.23 1016.02 3593.87 1013.74 3597.9 1012.9Z" fill="white"/>
<path d="M3600.34 1051.46C3600.23 1055.57 3598.15 1058.46 3595.66 1060.68C3593.03 1062.77 3589.82 1064.3 3585.76 1063.67C3587.2 1059.85 3589.22 1057.71 3591.48 1055.69C3593.86 1053.84 3596.33 1052.22 3600.34 1051.46Z" fill="white"/>
<path d="M3643.38 1045.79C3647.78 1045.69 3650.97 1046.94 3654.09 1048.45C3657.12 1050.14 3659.96 1052.06 3662.38 1055.74C3658.1 1056.87 3654.39 1055.85 3651.08 1054.21C3647.85 1052.4 3644.89 1049.94 3643.38 1045.79Z" fill="white"/>
<path d="M3650.25 1015.4C3654.88 1015.57 3658.29 1017.11 3661.59 1018.93C3664.79 1020.94 3667.78 1023.18 3670.15 1027.17C3665.55 1027.84 3661.72 1026.46 3658.28 1024.54C3654.94 1022.44 3651.89 1019.75 3650.25 1015.4Z" fill="white"/>
<path d="M3664.89 978.832C3669.24 978.649 3672.47 980.12 3675.45 981.981C3678.31 984.013 3680.9 986.442 3682.39 990.536C3678.04 990.731 3674.8 989.254 3671.83 987.387C3668.97 985.349 3666.38 982.921 3664.89 978.832Z" fill="white"/>
<path d="M3679.84 928.992C3683.33 928.656 3685.51 929.809 3687.37 931.316C3689.1 932.976 3690.51 934.99 3690.6 938.511C3687.09 938.859 3684.92 937.705 3683.06 936.186C3681.34 934.514 3679.93 932.5 3679.84 928.992Z" fill="white"/>
<path d="M3710.79 882.238C3713.41 885.502 3714.03 888.596 3714.19 891.726C3714.14 894.857 3713.61 897.969 3711.08 901.319C3708.46 898.304 3707.83 895.058 3707.68 891.83C3707.74 888.596 3708.27 885.332 3710.79 882.238Z" fill="white"/>
<path d="M3734.32 933.391C3734.49 936.814 3733.61 938.712 3732.41 940.482C3731.06 942.135 3729.49 943.514 3726.15 944.314C3724.93 941.073 3725.81 938.59 3727.2 936.582C3728.74 934.697 3730.88 933.153 3734.32 933.391Z" fill="white"/>
<path d="M3740.01 973.987C3738.89 978.265 3736.9 981.017 3734.69 983.683C3732.34 986.222 3729.86 988.534 3725.75 990.176C3725.52 985.734 3727.39 982.262 3729.81 979.381C3732.38 976.636 3735.58 974.335 3740.01 973.987Z" fill="white"/>
<path d="M3748.2 1016.69C3746.14 1021.9 3742.76 1025.6 3739.07 1028.97C3735.25 1032.17 3731.12 1035.01 3725.67 1036.34C3727.73 1031.12 3731.11 1027.41 3734.8 1024.06C3738.63 1020.87 3742.76 1018.03 3748.2 1016.69Z" fill="white"/>
<path d="M3745.64 1051.84C3744.63 1055.72 3742.7 1057.84 3740.46 1059.58C3738.1 1061.17 3735.48 1062.33 3731.48 1062.04C3732.19 1058.35 3734.3 1056.11 3736.66 1054.3C3739.14 1052.65 3741.92 1051.36 3745.64 1051.84Z" fill="white"/>
<path d="M3799.6 1050.35C3803.38 1049.77 3806.06 1050.85 3808.49 1052.32C3810.8 1053.96 3812.84 1056 3813.79 1059.71C3810.01 1060.31 3807.32 1059.23 3804.9 1057.75C3802.6 1056.09 3800.55 1054.05 3799.6 1050.35Z" fill="white"/>
<path d="M3810.67 1015.65C3813.93 1014.55 3816.35 1015.24 3818.52 1016.34C3820.59 1017.62 3822.44 1019.33 3823.18 1022.7C3819.74 1023.72 3817.43 1023.08 3815.33 1022.01C3813.33 1020.76 3811.58 1019.11 3810.67 1015.65Z" fill="white"/>
<path d="M3823.15 974.811C3826.24 974.335 3827.76 974.903 3829.13 975.806C3830.38 976.868 3831.33 978.173 3831.71 981.285C3828.9 982.731 3826.81 982.097 3825.2 980.992C3823.71 979.729 3822.54 977.893 3823.15 974.811Z" fill="white"/>
<path d="M3844.3 924.037C3846.82 926.789 3847.48 929.321 3847.79 931.933C3847.9 934.563 3847.63 937.162 3845.54 940.268C3842.54 938.016 3841.61 935.222 3841.3 932.433C3841.19 929.626 3841.68 926.722 3844.3 924.037Z" fill="white"/>
<path d="M3869.89 976.404C3870.48 979.406 3870.15 980.773 3869.46 982.066C3868.61 983.256 3867.52 984.141 3864.54 984.898C3862.63 982.451 3863.01 980.266 3863.95 978.6C3865.06 977.032 3866.86 975.751 3869.89 976.404Z" fill="white"/>
<path d="M3882.47 1013.74C3883.48 1016.65 3882.9 1018.34 3881.96 1019.75C3880.86 1021.03 3879.37 1022.02 3876.29 1021.79C3875.27 1018.88 3875.85 1017.18 3876.8 1015.79C3877.92 1014.51 3879.41 1013.52 3882.47 1013.74Z" fill="white"/>
<path d="M3896.61 1048.98C3896.68 1052.31 3895.44 1054.11 3893.91 1055.57C3892.24 1056.87 3890.26 1057.8 3886.97 1057.21C3886.91 1053.87 3888.14 1052.07 3889.68 1050.62C3891.35 1049.33 3893.34 1048.4 3896.61 1048.98Z" fill="white"/>
<path d="M3923.54 1042.81C3927.13 1042.02 3929.85 1043.02 3932.3 1044.4C3934.63 1045.97 3936.74 1047.95 3937.63 1051.53C3933.82 1052.2 3931.23 1051.28 3928.87 1049.93C3926.62 1048.41 3924.64 1046.5 3923.54 1042.81Z" fill="white"/>
<path d="M3938.15 1004.31C3941.93 1004.34 3944.25 1005.45 3946.48 1006.83C3948.6 1008.38 3950.49 1010.13 3951.91 1013.64C3948.29 1014.8 3945.31 1013.8 3942.83 1012.22C3940.46 1010.49 3938.42 1008.1 3938.15 1004.31Z" fill="white"/>
<path d="M3951.14 971.4C3953.75 970.058 3955.26 970.369 3956.51 971.071C3957.64 971.943 3958.51 973.212 3958.26 976.153C3955.64 977.508 3954.13 977.197 3952.89 976.483C3951.77 975.598 3950.9 974.323 3951.14 971.4Z" fill="white"/>
<path d="M3973.78 927.283C3976.75 929.894 3977.74 932.787 3978.28 935.746C3978.6 938.736 3978.46 941.787 3976.33 945.125C3973.35 942.513 3972.36 939.627 3971.84 936.662C3971.52 933.678 3971.67 930.621 3973.78 927.283Z" fill="white"/>
<path d="M3998.65 971.266C3998.91 974.159 3998.75 975.147 3998.17 976.032C3997.46 976.813 3996.53 977.191 3993.65 977.606C3991.65 975.428 3992.07 973.378 3993.06 972.005C3994.17 970.729 3996.07 969.844 3998.65 971.266Z" fill="white"/>
<path d="M4010.22 998.646C4010.54 1002.72 4009.43 1005.6 4008 1008.36C4006.4 1011.02 4004.5 1013.46 4000.84 1015.29C3999.81 1011.31 4000.81 1008.07 4002.33 1005.17C4004.03 1002.37 4006.29 999.835 4010.22 998.646Z" fill="white"/>
<path d="M4024.77 1042.03C4023.74 1046.46 4021.35 1049.44 4018.67 1052.04C4017.29 1053.25 4015.99 1054.32 4014.6 1055.28C4013.24 1056.3 4011.87 1057.19 4010.18 1058.77C4009.17 1056.64 4009.64 1054.14 4010.57 1052.19C4011.47 1050.16 4012.89 1048.61 4014.26 1047.27C4017.12 1044.79 4020.27 1042.69 4024.77 1042.03Z" fill="white"/>
<path d="M4044.09 1046.55C4047.61 1046.91 4049.51 1048.08 4051.27 1049.54C4052.9 1051.14 4054.25 1052.91 4054.94 1056.39C4051.48 1057.27 4048.9 1056.05 4046.89 1054.36C4045.03 1052.51 4043.57 1050.07 4044.09 1046.55Z" fill="white"/>
<path d="M4055.36 1019.03C4058.46 1018.21 4060.44 1019.18 4061.95 1020.53C4063.33 1022.02 4064.32 1023.99 4063.51 1027.11C4060.31 1027.24 4058.73 1026.35 4057.37 1025.15C4056.16 1023.8 4055.27 1022.23 4055.36 1019.03Z" fill="white"/>
<path d="M4096.87 1023.55C4098.16 1025.97 4097.95 1027.07 4097.39 1027.86C4096.68 1028.52 4095.62 1028.86 4093.05 1027.87C4091.75 1025.44 4091.96 1024.33 4092.52 1023.55C4093.24 1022.91 4094.3 1022.57 4096.87 1023.55Z" fill="white"/>
<path d="M4108.43 1052.21C4109.01 1055.89 4107.56 1058.58 4105.66 1060.7C4103.61 1062.68 4100.97 1064.21 4097.26 1063.75C4097.86 1060.09 4099.28 1058.06 4100.98 1056.18C4102.81 1054.42 4104.8 1052.94 4108.43 1052.21Z" fill="white"/>
<path d="M4167.03 1041.36C4167.81 1044.38 4167.3 1045.87 4166.4 1047.09C4165.35 1048.18 4163.95 1048.9 4160.84 1048.58C4159.79 1045.86 4160.45 1044.18 4161.46 1042.85C4162.62 1041.66 4164.18 1040.75 4167.03 1041.36Z" fill="white"/>
<path d="M4172.7 1060.83C4173 1064.14 4172.03 1065.92 4170.7 1067.38C4169.23 1068.7 4167.44 1069.66 4164.13 1069.31C4163.67 1066.13 4164.74 1064.27 4166.13 1062.76C4167.66 1061.4 4169.54 1060.36 4172.7 1060.83Z" fill="white"/>
<path d="M4123.51 1048.29C4126.92 1048.22 4128.86 1049.49 4130.47 1051.07C4131.92 1052.8 4133.02 1054.85 4132.64 1058.25C4129.22 1058.34 4127.27 1057.07 4125.68 1055.47C4124.23 1053.73 4123.14 1051.68 4123.51 1048.29Z" fill="white"/>
<path d="M3322.26 1064.57C3325.5 1063.15 3327.96 1063.57 3330.23 1064.42C3332.43 1065.46 3334.43 1066.94 3335.65 1070.26C3332.41 1071.69 3329.95 1071.27 3327.68 1070.41C3325.5 1069.36 3323.49 1067.88 3322.26 1064.57Z" fill="white"/>
<path d="M3336.02 1037.83C3339.36 1036.72 3341.64 1037.31 3343.72 1038.31C3345.7 1039.49 3347.42 1041.09 3348.31 1044.51C3345.1 1045.7 3342.74 1045.07 3340.61 1044.03C3338.59 1042.81 3336.77 1041.16 3336.02 1037.83Z" fill="white"/>
<path d="M3382.45 1043.87C3382.66 1046.88 3381.7 1048.29 3380.47 1049.3C3379.12 1050.16 3377.49 1050.63 3374.68 1049.47C3374.47 1046.44 3375.42 1045.04 3376.67 1044.03C3378.02 1043.18 3379.66 1042.72 3382.45 1043.87Z" fill="white"/>
<path d="M3389.75 1064.57C3389.87 1067.46 3388.76 1068.68 3387.48 1069.36C3386.12 1069.86 3384.47 1069.86 3382.41 1067.8C3382.9 1064.94 3383.77 1063.99 3384.86 1063.41C3386.02 1063.01 3387.3 1063.01 3389.75 1064.57Z" fill="white"/>
<path d="M3264.21 1060.93C3267.91 1059.76 3270.8 1060.4 3273.5 1061.48C3276.12 1062.75 3278.54 1064.45 3280.15 1067.99C3276.45 1069.17 3273.56 1068.53 3270.87 1067.43C3268.25 1066.15 3265.83 1064.45 3264.21 1060.93Z" fill="white"/>
<path d="M3280.53 1032.33C3283.62 1030.99 3285.83 1031.44 3287.83 1032.31C3289.74 1033.36 3291.44 1034.84 3292.25 1038.12C3289.15 1039.47 3286.95 1039.02 3284.95 1038.14C3283.05 1037.08 3281.35 1035.59 3280.53 1032.33Z" fill="white"/>
<path d="M3319.44 1034.01C3320.43 1036.75 3319.82 1038.28 3318.88 1039.49C3317.78 1040.56 3316.31 1041.33 3313.47 1040.62C3312.63 1037.71 3313.15 1036.27 3314.04 1035.14C3315.09 1034.13 3316.47 1033.48 3319.44 1034.01Z" fill="white"/>
<path d="M3302.81 995.063C3304.96 997.535 3305.3 999.414 3305.29 1001.34C3305.07 1003.25 3304.49 1005.07 3302.03 1007.24C3299.33 1005.35 3298.76 1003.08 3298.8 1000.92C3299.04 998.768 3299.9 996.595 3302.81 995.063Z" fill="white"/>
<path d="M1501.15 1339.95C1590.87 1286.07 1682.19 1235.26 1773.84 1185.07L1842.72 1147.71L1911.92 1110.89C1935.05 1098.54 1958.76 1086.64 1983.48 1076.31C2008.12 1065.83 2034.11 1057.54 2061.02 1052.61C2074.48 1050.21 2088.18 1048.7 2101.94 1048.56C2108.81 1048.27 2115.67 1049.03 2122.51 1049.23C2125.93 1049.44 2129.36 1049.48 2132.76 1049.83L2142.9 1051.37C2156.49 1052.98 2169.62 1056.64 2182.69 1060.08L2201.86 1066.55C2208.22 1068.74 2214.28 1071.64 2220.49 1074.15C2244.98 1084.93 2268.27 1097.81 2290.39 1112.17C2312.63 1126.33 2334.14 1141.37 2355.42 1156.6C2376.8 1171.67 2397.82 1187.16 2419.38 1201.78C2430.22 1208.96 2440.99 1216.29 2452.03 1223.1C2463.03 1229.99 2473.96 1237.44 2485.21 1240C2496.31 1242.8 2507.64 1238.77 2518.67 1232.76C2529.68 1226.52 2541.08 1219.55 2552.26 1212.98L2619.67 1172.99L2653.31 1152.87C2664.63 1146.26 2675.29 1139.27 2687.96 1132.85C2694.29 1129.73 2701.1 1126.91 2708.57 1125.06C2716.01 1123.22 2724.26 1122.53 2732.21 1123.49C2748.15 1125.47 2761.47 1132.38 2773.24 1138.88C2818.87 1164.96 2863.7 1191.32 2908.79 1217.84L2976.34 1257.55C2998.86 1270.79 3020.77 1283.72 3043.43 1292.69C3065.86 1301.62 3089.74 1306.46 3114.69 1308.82C3139.58 1311.28 3165.28 1311.15 3191.43 1311.55C3295.89 1313.26 3400.35 1315.3 3504.8 1318.83C3609.25 1322.15 3713.69 1326.55 3818.11 1332.76L3818.08 1336.01C3713.57 1340.39 3609.06 1342.96 3504.57 1344.46C3400.08 1346.16 3295.61 1346.38 3191.13 1346.26C3165.07 1346.15 3138.45 1345.99 3111.32 1343.35C3097.78 1342.01 3084.12 1340.01 3070.53 1336.98C3056.97 1333.91 3043.4 1329.5 3030.54 1324.06C3004.8 1313.19 2981.89 1298.83 2959.69 1285.19L2892.99 1244.06C2848.57 1216.71 2803.96 1189.11 2760.02 1161.4C2749.37 1154.8 2738.99 1149.29 2728.88 1147.64C2719.06 1145.8 2708.4 1148.21 2697.31 1153C2686.36 1157.76 2674.68 1164.39 2663.1 1170.33L2628.4 1188.53L2559.12 1225.19C2547.47 1231.31 2536.25 1237.41 2524.26 1243.53C2518.21 1246.55 2511.74 1249.38 2504.63 1250.98C2497.59 1252.63 2489.68 1252.65 2482.6 1250.74C2475.49 1248.92 2469.18 1245.72 2463.34 1242.32C2457.48 1238.9 2452.09 1235.32 2446.54 1231.77C2435.41 1224.77 2424.65 1217.3 2413.78 1209.96L2349.38 1165.25C2327.83 1150.59 2305.93 1136.54 2283.5 1123.63C2260.98 1110.86 2237.65 1099.8 2213.76 1090.96C2207.72 1088.95 2201.81 1086.53 2195.7 1084.85L2177.4 1079.91C2165.03 1077.53 2152.73 1074.9 2140.25 1074.27L2130.94 1073.44C2127.84 1073.29 2124.72 1073.43 2121.62 1073.41C2115.41 1073.57 2109.2 1073.16 2103.03 1073.76C2090.68 1074.44 2078.44 1076.73 2066.26 1079.19C2017.47 1089.86 1971.48 1112.95 1925.22 1136.47L1855.52 1172.21L1785.52 1207.43C1691.98 1254.01 1598.12 1299.96 1502.66 1342.84L1501.15 1339.95Z" fill="#552A00"/>
<path d="M2992.58 1285.45C3006.7 1265.83 3022.71 1247.6 3040.33 1231.06C3048.66 1259.17 3059.87 1286.43 3073.71 1312.27C3077.4 1290.64 3083.61 1269.45 3092.17 1249.25C3103.26 1272 3114.34 1294.74 3125.42 1317.48C3139.71 1288.08 3154 1258.69 3168.29 1229.29C3173.11 1259.68 3180.49 1289.67 3190.33 1318.83C3202.66 1293.71 3214.98 1268.59 3227.31 1243.47C3239.23 1270.09 3249.66 1297.38 3258.53 1325.16C3271.68 1305.76 3284.84 1286.36 3297.99 1266.96C3307.48 1287.7 3316.96 1308.45 3326.44 1329.2C3339.59 1309.69 3352.73 1290.18 3365.87 1270.67C3373.76 1286.08 3381.64 1301.49 3389.52 1316.9C3399.17 1303.45 3408.83 1290.01 3418.48 1276.56C3425.95 1290.32 3433.42 1304.08 3440.89 1317.84C3453.15 1305.14 3465.4 1292.44 3477.65 1279.74C3488.21 1294.95 3498.76 1310.15 3509.32 1325.36C3349.49 1334.57 3186.4 1343.48 3031.82 1301.83L2992.58 1285.45Z" fill="#1A430B"/>
<path d="M1967.07 968.117L2242.93 722.688L2246.4 719.595L2250.1 722.676L2472.83 908.336L2460.1 923.145L2242.94 730.999L2250.11 730.993L1967.07 968.117Z" fill="#552A00"/>
<path d="M3466.54 1147.41C3481.37 1146.67 3496.19 1146.36 3511.02 1145.82L3555.52 1144.92C3585.18 1144.38 3614.84 1144.43 3644.5 1144.16C3674.16 1144.42 3703.83 1144.39 3733.48 1144.9L3777.97 1145.81C3792.8 1146.36 3807.63 1146.67 3822.47 1147.41C3807.64 1148.14 3792.81 1148.46 3777.97 1149L3733.48 1149.91C3703.83 1150.43 3674.16 1150.4 3644.5 1150.65C3614.84 1150.38 3585.18 1150.43 3555.52 1149.9L3511.02 1148.99C3496.19 1148.46 3481.37 1148.14 3466.54 1147.41Z" fill="#552A00"/>
<path d="M3994.22 1126.71C4012.85 1124.16 4031.47 1123.57 4050.09 1123.46C4068.72 1123.55 4087.34 1124.14 4105.97 1126.71C4087.34 1129.29 4068.72 1129.87 4050.09 1129.97C4031.47 1129.86 4012.85 1129.28 3994.22 1126.71Z" fill="#552A00"/>
<path d="M3745.9 1106.02C3765.22 1103.47 3784.53 1102.87 3803.85 1102.77C3823.16 1102.86 3842.48 1103.45 3861.79 1106.02C3842.48 1108.6 3823.16 1109.18 3803.85 1109.27C3784.53 1109.17 3765.21 1108.59 3745.9 1106.02Z" fill="#552A00"/>
<path d="M2978.16 1126.71C2987.13 1125.98 2996.1 1125.66 3005.06 1125.13L3031.96 1124.22C3049.9 1123.63 3067.84 1123.55 3085.77 1123.46C3103.7 1123.54 3121.64 1123.62 3139.57 1124.21L3166.47 1125.12C3175.43 1125.66 3184.4 1125.98 3193.37 1126.71C3184.4 1127.45 3175.43 1127.77 3166.47 1128.31L3139.57 1129.22C3121.63 1129.81 3103.7 1129.9 3085.77 1129.97C3067.83 1129.89 3049.89 1129.81 3031.96 1129.21L3005.06 1128.31C2996.1 1127.76 2987.13 1127.45 2978.16 1126.71Z" fill="#552A00"/>
<path d="M3185.11 1190.86C3194.42 1190.13 3203.73 1189.81 3213.04 1189.27L3240.98 1188.37C3259.61 1187.77 3278.23 1187.69 3296.85 1187.61C3315.48 1187.68 3334.1 1187.76 3352.73 1188.36L3380.67 1189.27C3389.98 1189.81 3399.29 1190.13 3408.6 1190.86C3399.29 1191.6 3389.98 1191.92 3380.67 1192.46L3352.73 1193.37C3334.1 1193.96 3315.48 1194.04 3296.85 1194.12C3278.23 1194.04 3259.6 1193.95 3240.98 1193.35L3213.04 1192.45C3203.72 1191.91 3194.42 1191.59 3185.11 1190.86Z" fill="#552A00"/>
<path d="M2955.4 1188.79C2980.23 1186.23 3005.06 1185.64 3029.9 1185.54C3054.73 1185.63 3079.56 1186.21 3104.39 1188.79C3079.56 1191.36 3054.73 1191.95 3029.9 1192.04C3005.07 1191.94 2980.24 1191.35 2955.4 1188.79Z" fill="#552A00"/>
<path d="M3516.2 1246.73C3534.82 1244.17 3553.45 1243.58 3572.08 1243.48C3590.7 1243.57 3609.33 1244.15 3627.95 1246.73C3609.32 1249.3 3590.69 1249.89 3572.08 1249.98C3553.45 1249.88 3534.82 1249.29 3516.2 1246.73Z" fill="#552A00"/>
<path d="M3710.72 1207.41C3719.86 1206.68 3729 1206.36 3738.14 1205.83L3765.56 1204.92C3783.84 1204.33 3802.12 1204.25 3820.4 1204.16C3838.68 1204.23 3856.96 1204.32 3875.24 1204.91L3902.66 1205.82C3911.8 1206.36 3920.93 1206.68 3930.08 1207.41C3920.93 1208.15 3911.8 1208.47 3902.66 1209.01L3875.24 1209.91C3856.96 1210.51 3838.68 1210.59 3820.4 1210.67C3802.12 1210.59 3783.84 1210.5 3765.56 1209.9L3738.14 1209C3729 1208.46 3719.86 1208.15 3710.72 1207.41Z" fill="#552A00"/>
<path d="M3985.95 1217.76C4004.57 1215.21 4023.2 1214.61 4041.82 1214.51C4060.44 1214.6 4079.07 1215.19 4097.69 1217.76C4079.07 1220.34 4060.44 1220.92 4041.82 1221.01C4023.2 1220.9 4004.57 1220.32 3985.95 1217.76Z" fill="#552A00"/>
<path d="M3721.07 1283.97C3742.45 1281.41 3763.83 1280.82 3785.22 1280.72C3806.6 1280.81 3827.98 1281.39 3849.37 1283.97C3827.98 1286.54 3806.6 1287.13 3785.22 1287.22C3763.83 1287.12 3742.45 1286.53 3721.07 1283.97Z" fill="#552A00"/>
<path d="M3292.71 1137.06C3303.05 1134.49 3313.4 1133.92 3323.75 1133.81C3334.09 1133.91 3344.44 1134.48 3354.78 1137.06C3344.44 1139.64 3334.09 1140.22 3323.75 1140.32C3313.4 1140.21 3303.06 1139.63 3292.71 1137.06Z" fill="#552A00"/>
<path d="M2802.27 1122.58C2816.76 1120.01 2831.24 1119.43 2845.73 1119.32C2860.22 1119.42 2874.7 1120 2889.19 1122.58C2874.7 1125.16 2860.22 1125.73 2845.73 1125.83C2831.24 1125.72 2816.75 1125.15 2802.27 1122.58Z" fill="#552A00"/>
<path d="M1171.62 1302.59C1189.55 1300.04 1207.49 1299.44 1225.42 1299.34C1243.35 1299.43 1261.29 1300.02 1279.22 1302.59C1261.28 1305.17 1243.35 1305.75 1225.42 1305.84C1207.48 1305.74 1189.55 1305.15 1171.62 1302.59Z" fill="#552A00"/>
<path d="M1328.88 1286.04C1346.82 1283.49 1364.75 1282.9 1382.68 1282.79C1400.62 1282.88 1418.55 1283.47 1436.48 1286.04C1418.55 1288.62 1400.61 1289.2 1382.68 1289.3C1364.75 1289.19 1346.82 1288.6 1328.88 1286.04Z" fill="#552A00"/>
<path d="M1353.72 1337.77C1369.59 1335.21 1385.45 1334.62 1401.31 1334.52C1417.18 1334.61 1433.04 1335.2 1448.91 1337.77C1433.04 1340.35 1417.18 1340.93 1401.31 1341.02C1385.45 1340.92 1369.58 1340.33 1353.72 1337.77Z" fill="#552A00"/>
<path d="M1452.06 1241.99C1483.09 1239.43 1514.12 1238.84 1545.15 1238.73C1576.17 1238.83 1607.21 1239.41 1638.23 1241.99C1607.21 1244.56 1576.17 1245.15 1545.15 1245.24C1514.12 1245.14 1483.1 1244.54 1452.06 1241.99Z" fill="#552A00"/>
<path d="M1304.86 1233.33C1314.24 1230.76 1323.62 1230.19 1333 1230.08C1342.38 1230.17 1351.76 1230.75 1361.14 1233.33C1351.76 1235.91 1342.38 1236.49 1333 1236.58C1323.63 1236.47 1314.24 1235.9 1304.86 1233.33Z" fill="#552A00"/>
<path d="M1486.7 1287.44C1493.92 1284.87 1501.14 1284.3 1508.35 1284.19C1515.56 1284.29 1522.78 1284.86 1529.99 1287.44C1522.78 1290.02 1515.56 1290.6 1508.35 1290.69C1501.13 1290.58 1493.92 1290.01 1486.7 1287.44Z" fill="#552A00"/>
</svg>
