<svg width="911" height="2756" viewBox="0 0 911 2756" fill="none" xmlns="http://www.w3.org/2000/svg">
<path d="M186.938 1445.02C192.301 1442.96 194.927 1447.91 197.495 1453.94L186.586 1454.6C186.982 1451.42 187.1 1448.22 186.938 1445.02Z" fill="#6A7282"/>
<path d="M199.465 1458.61C200.592 1461.53 201.726 1464.7 202.918 1467.49L185.145 1467.47C185.387 1464.73 185.751 1462.08 186.146 1459.42L199.465 1458.61Z" fill="#6A7282"/>
<path d="M188.301 1491.27L240.319 1490.24C231.985 1516.21 200.452 1522.99 188.301 1491.27Z" fill="#6A7282"/>
<path d="M184.804 1472.31L205.156 1472.33C207.3 1476.12 209.755 1478.47 212.871 1477.61C214.099 1477.27 215.06 1475.26 215.833 1472.34L241.62 1472.31C242.426 1476.66 242.423 1481.12 241.612 1485.47L186.781 1486.46C185.423 1481.87 184.756 1477.1 184.804 1472.31Z" fill="#6A7282"/>
<path d="M218.553 1457.56L237.955 1456.36C238.857 1459.63 239.627 1463.35 240.555 1467.64L217.03 1467.69C217.554 1464.45 218.033 1460.93 218.553 1457.56Z" fill="#6A7282"/>
<path d="M224.637 1436.05C227.102 1435.08 229.814 1434.92 232.378 1435.59C233.776 1440.65 235.059 1445.3 236.773 1451.5L219.268 1452.56C220.455 1444.14 221.941 1436.8 224.637 1436.05Z" fill="#6A7282"/>
<path d="M171.439 1389.97L229.881 1372.99C230.757 1377.33 231.222 1381.75 231.268 1386.18L175.436 1396.73C173.995 1394.55 172.665 1392.31 171.439 1389.97Z" fill="#6A7282"/>
<path d="M222.049 1352.22C225.006 1358.09 227.411 1364.21 229.232 1370.52L170.251 1387.65C168.77 1384.66 167.459 1381.59 166.322 1378.45L222.049 1352.22Z" fill="#6A7282"/>
<path d="M163.16 1367.59L212.664 1336.7C215.705 1340.9 218.444 1345.32 220.861 1349.91L165.477 1375.98C164.556 1373.23 163.782 1370.43 163.16 1367.59Z" fill="#6A7282"/>
<path d="M200.149 1322.68C204.171 1326.31 207.846 1330.32 211.128 1334.64L162.611 1364.9C162.024 1361.94 161.605 1358.94 161.358 1355.93L200.149 1322.68Z" fill="#6A7282"/>
<path d="M176.986 1399.08L231.326 1388.84C231.343 1393.22 231.184 1397.78 230.995 1402.34C229.099 1404.27 226.889 1405.86 224.46 1407.05C220.326 1408.19 215.33 1404.35 212.993 1404.99C210.656 1405.64 202.225 1422.74 177.823 1419.61C170.39 1409.28 160.115 1399.87 152.79 1373.36C150.978 1366.8 141.954 1318.73 167.538 1311.66C177.664 1308.86 188.404 1312.96 198.17 1321L161.121 1352.74C160.859 1347.55 161.052 1342.35 161.696 1337.2C161.741 1337.02 161.748 1336.84 161.715 1336.65C161.682 1336.47 161.611 1336.3 161.507 1336.15C161.403 1335.99 161.267 1335.87 161.109 1335.77C160.952 1335.67 160.775 1335.61 160.592 1335.59C160.409 1335.57 160.223 1335.58 160.046 1335.64C159.869 1335.69 159.706 1335.78 159.568 1335.9C159.429 1336.03 159.318 1336.18 159.241 1336.34C159.165 1336.51 159.125 1336.7 159.125 1336.88C158.436 1342.82 158.321 1348.81 158.78 1354.77L155.081 1357.96C154.875 1358.19 154.761 1358.5 154.761 1358.81C154.762 1359.13 154.876 1359.43 155.083 1359.67C155.29 1359.91 155.576 1360.06 155.888 1360.11C156.2 1360.15 156.517 1360.08 156.78 1359.91L159.069 1357.92C159.364 1360.74 159.788 1363.56 160.353 1366.3L156.395 1368.78C156.108 1368.96 155.904 1369.25 155.83 1369.59C155.755 1369.92 155.816 1370.27 155.998 1370.55C156.18 1370.84 156.468 1371.04 156.801 1371.12C157.133 1371.19 157.481 1371.13 157.768 1370.95L160.932 1368.98C161.677 1371.68 162.422 1374.37 163.158 1377.04C161.675 1377.74 159.668 1378.29 160.338 1379.78C161.008 1381.28 162.55 1380.21 164.033 1379.51C165.128 1382.51 166.384 1385.46 167.794 1388.33L164.799 1389.16C164.515 1389.29 164.286 1389.51 164.154 1389.8C164.021 1390.08 163.994 1390.4 164.077 1390.7C164.16 1391 164.348 1391.26 164.606 1391.43C164.864 1391.61 165.176 1391.68 165.485 1391.65L168.931 1390.7C170.094 1392.92 171.377 1395.11 172.741 1397.25C171.052 1397.56 168.866 1397.58 169.155 1399.21C169.444 1400.84 171.927 1400.02 174.254 1399.58C177.557 1404.45 181.328 1408.99 185.513 1413.13C185.619 1413.29 185.757 1413.41 185.916 1413.5C186.076 1413.59 186.253 1413.65 186.437 1413.67C186.62 1413.68 186.805 1413.66 186.978 1413.6C187.152 1413.54 187.31 1413.44 187.442 1413.31C187.574 1413.18 187.676 1413.03 187.742 1412.86C187.808 1412.68 187.836 1412.5 187.825 1412.32C187.813 1412.13 187.761 1411.95 187.674 1411.79C187.586 1411.63 187.464 1411.49 187.317 1411.38C183.516 1407.59 180.058 1403.48 176.986 1399.08Z" fill="#6A7282"/>
<path d="M108.35 1347.41C109.453 1350.42 110.798 1353.32 112.371 1356.1L102.091 1359.71C102.14 1351.46 103.32 1347.54 108.35 1347.41Z" fill="#6A7282"/>
<path d="M114.805 1360.33C116.171 1362.63 117.537 1364.93 118.858 1367.35L102.494 1374.29C102.492 1371.16 102.335 1368.04 102.22 1364.77L114.805 1360.33Z" fill="#6A7282"/>
<path d="M76.9968 1409.88L125.301 1390.49C126.335 1424.27 94.7404 1430.5 76.9968 1409.88Z" fill="#6A7282"/>
<path d="M92.3907 1383.79C94.2435 1386.22 96.0288 1387.64 97.1691 1387.49C100.251 1387.09 101.721 1383.95 102.22 1379.62L120.961 1371.69C122.902 1376.07 124.196 1380.72 124.802 1385.48L73.9052 1405.9C71.4139 1402.22 69.6234 1398.12 68.6238 1393.8L92.3907 1383.79Z" fill="#6A7282"/>
<path d="M84.1493 1371.11C85.9902 1374.16 87.7963 1377.19 89.5192 1379.81L67.798 1388.92C67.0098 1384.58 66.3639 1380.84 65.836 1377.52L84.1493 1371.11Z" fill="#6A7282"/>
<path d="M70.2257 1353.81C72.9993 1353.45 77.2641 1359.69 81.6271 1366.93L65.0836 1372.73C64.249 1366.35 63.6241 1361.57 62.9427 1356.36C65.0383 1354.76 67.5889 1353.87 70.2257 1353.81Z" fill="#6A7282"/>
<path d="M40.8562 1297.75L101.302 1290.66C101.077 1293.26 100.73 1295.88 100.251 1298.45L44.7149 1310.48C43.0323 1306.37 41.7404 1302.11 40.8562 1297.75Z" fill="#6A7282"/>
<path d="M39.9887 1275.55L101.53 1278.03C101.706 1281.36 101.693 1284.7 101.491 1288.03L40.4909 1295.2C39.7133 1288.68 39.5452 1282.1 39.9887 1275.55Z" fill="#6A7282"/>
<path d="M42.5961 1257.62L100.216 1266.79C100.748 1269.66 101.126 1272.55 101.349 1275.45L40.2785 1272.97C40.6836 1267.81 41.4581 1262.68 42.5961 1257.62Z" fill="#6A7282"/>
<path d="M97.3444 1255.38C98.2868 1258.24 99.0655 1261.16 99.6766 1264.11L43.2061 1255.1C44.5497 1249.86 46.3789 1244.75 48.6698 1239.84L97.3444 1255.38Z" fill="#6A7282"/>
<path d="M96.2899 1252.36L49.8359 1237.49C55.7046 1226.29 63.9744 1218.34 74.4215 1216.98C100.74 1213.53 111.129 1261.32 112.012 1268.07C115.58 1295.34 109.778 1308.01 106.95 1320.42C85.6872 1332.79 70.8397 1320.41 68.8366 1320.67C66.8334 1320.94 63.3222 1326.44 59.1002 1326.99C56.3996 1326.85 53.7438 1326.24 51.2488 1325.2C49.2975 1321.07 47.3771 1316.93 45.6885 1312.89L99.7512 1301.33C98.6282 1306.56 97.0423 1311.68 95.0124 1316.62C94.9201 1316.78 94.863 1316.96 94.8448 1317.15C94.8266 1317.33 94.8478 1317.52 94.907 1317.69C94.9661 1317.87 95.0619 1318.03 95.1879 1318.16C95.314 1318.3 95.4674 1318.4 95.638 1318.48C95.8086 1318.55 95.9924 1318.58 96.1774 1318.58C96.3624 1318.57 96.5443 1318.53 96.711 1318.45C96.8777 1318.37 97.0253 1318.25 97.1442 1318.11C97.2631 1317.97 97.3504 1317.8 97.4005 1317.63C99.6286 1312.17 101.334 1306.51 102.493 1300.72C104.81 1300.23 107.474 1300.23 107.047 1298.4C106.621 1296.58 104.657 1297.62 102.982 1298C103.407 1295.49 103.736 1292.98 103.941 1290.47C106.283 1290.17 108.825 1290.43 108.587 1288.61C108.349 1286.79 105.891 1287.65 104.099 1287.85C104.283 1284.65 104.293 1281.45 104.129 1278.25C105.768 1278.32 107.605 1278.71 107.642 1277.07C107.679 1275.44 105.618 1275.74 103.949 1275.68C103.74 1272.88 103.408 1270.11 102.86 1267.36L106.541 1267.94C106.707 1267.97 106.877 1267.96 107.042 1267.92C107.206 1267.89 107.361 1267.82 107.498 1267.72C107.775 1267.52 107.962 1267.22 108.017 1266.89C108.073 1266.55 107.994 1266.21 107.796 1265.93C107.598 1265.65 107.298 1265.46 106.962 1265.41L102.351 1264.66C101.803 1261.91 101.098 1259.15 100.276 1256.47C102.007 1257 104.234 1258.21 104.799 1256.54C104.889 1256.21 104.852 1255.87 104.697 1255.57C104.541 1255.27 104.278 1255.04 103.961 1254.92L99.3186 1253.46C97.4004 1247.78 94.9299 1242.3 91.9425 1237.09C91.8764 1236.92 91.7728 1236.76 91.639 1236.63C91.5052 1236.49 91.3444 1236.39 91.1674 1236.33C90.9904 1236.26 90.8016 1236.24 90.6138 1236.25C90.4261 1236.27 90.244 1236.32 90.0798 1236.42C89.9157 1236.51 89.7735 1236.63 89.663 1236.79C89.5525 1236.94 89.4764 1237.11 89.4398 1237.3C89.4032 1237.48 89.4071 1237.67 89.451 1237.86C89.495 1238.04 89.578 1238.21 89.6945 1238.36C92.3106 1242.82 94.5181 1247.5 96.2899 1252.36Z" fill="#6A7282"/>
<path d="M189.935 583.326C189.234 586.445 188.787 589.615 188.599 592.807L178.009 590.256C182.525 583.352 185.641 580.702 189.935 583.326Z" fill="#6A7282"/>
<path d="M188.351 597.678C188.252 600.349 188.154 603.02 187.946 605.777L170.436 602.728C172.134 600.094 173.692 597.393 175.372 594.578L188.351 597.678Z" fill="#6A7282"/>
<path d="M129.711 618.795L180.81 628.708C163.355 657.647 133.431 645.745 129.711 618.795Z" fill="#6A7282"/>
<path d="M156.794 605.231C157.036 608.27 157.762 610.438 158.801 610.931C161.608 612.264 164.546 610.425 167.313 607.06L187.362 610.557C186.614 615.296 185.181 619.9 183.109 624.227L129.275 613.772C129.174 609.335 129.894 604.918 131.4 600.744L156.794 605.231Z" fill="#6A7282"/>
<path d="M156.749 590.106C156.641 593.667 156.519 597.187 156.541 600.328L133.351 596.2C135.047 592.119 136.533 588.628 137.889 585.555L156.749 590.106Z" fill="#6A7282"/>
<path d="M154.437 568.02C156.963 569.219 157.159 576.778 156.901 585.222L139.856 581.121C142.615 575.309 144.681 570.957 146.934 566.213C149.563 566.004 152.191 566.637 154.437 568.02Z" fill="#6A7282"/>
<path d="M160.171 504.995L214.799 531.825C213.2 533.887 211.489 535.896 209.693 537.796L156.512 517.777C157.328 513.411 158.553 509.132 160.171 504.995Z" fill="#6A7282"/>
<path d="M171.487 485.871L221.842 521.337C220.182 524.232 218.359 527.031 216.382 529.72L161.25 502.651C164.133 496.752 167.561 491.134 171.487 485.871Z" fill="#6A7282"/>
<path d="M183.401 472.226L226.834 511.184C225.727 513.879 224.476 516.512 223.088 519.074L173.128 483.864C176.27 479.744 179.703 475.855 183.401 472.226Z" fill="#6A7282"/>
<path d="M230.61 500.041C229.85 502.955 228.925 505.824 227.838 508.633L185.283 470.436C189.257 466.759 193.564 463.459 198.15 460.581L230.61 500.041Z" fill="#6A7282"/>
<path d="M231.367 496.925L200.403 459.242C211.411 453.012 222.669 450.822 232.187 455.34C256.165 466.724 238.97 512.507 236.051 518.656C224.254 543.504 212.507 551 203.401 559.889C178.827 558.75 173.07 540.294 171.245 539.427C169.42 538.561 163.484 541.282 159.637 539.456C157.446 537.87 155.544 535.92 154.014 533.69C154.617 529.159 155.248 524.642 156.022 520.33L207.707 539.949C203.929 543.731 199.821 547.169 195.433 550.223C195.268 550.307 195.123 550.426 195.008 550.571C194.893 550.716 194.81 550.883 194.765 551.063C194.719 551.242 194.712 551.429 194.745 551.611C194.777 551.794 194.848 551.967 194.952 552.12C195.057 552.273 195.192 552.401 195.35 552.498C195.508 552.594 195.685 552.656 195.869 552.679C196.052 552.701 196.239 552.685 196.416 552.63C196.592 552.576 196.756 552.484 196.894 552.362C201.728 548.983 206.23 545.153 210.341 540.924C212.555 541.768 214.794 543.21 215.426 541.446C216.057 539.681 213.843 539.49 212.232 538.897C213.945 537.027 215.588 535.089 217.118 533.097C219.252 534.111 221.245 535.71 222.032 534.054C222.818 532.397 220.289 531.782 218.674 530.98C220.562 528.395 222.307 525.71 223.904 522.936C225.244 523.881 226.578 525.203 227.496 523.849C228.413 522.496 226.519 521.631 225.151 520.672C226.491 518.212 227.719 515.698 228.75 513.091L231.525 515.579C231.65 515.692 231.796 515.78 231.954 515.837C232.113 515.894 232.281 515.919 232.449 515.911C232.789 515.895 233.109 515.745 233.338 515.493C233.567 515.241 233.686 514.909 233.67 514.569C233.654 514.229 233.504 513.91 233.252 513.681L229.782 510.554C230.813 507.947 231.718 505.245 232.483 502.547C233.651 503.927 234.864 506.154 236.246 505.056C236.498 504.831 236.656 504.52 236.687 504.184C236.719 503.848 236.623 503.513 236.418 503.245L233.31 499.499C234.782 493.683 235.681 487.738 235.993 481.747C236.033 481.563 236.033 481.372 235.992 481.188C235.952 481.004 235.872 480.831 235.758 480.681C235.645 480.531 235.5 480.407 235.334 480.318C235.168 480.229 234.984 480.177 234.796 480.166C234.608 480.154 234.42 480.184 234.245 480.252C234.069 480.32 233.91 480.426 233.779 480.561C233.648 480.697 233.548 480.859 233.486 481.036C233.423 481.214 233.4 481.403 233.418 481.591C233.198 486.753 232.512 491.886 231.367 496.925Z" fill="#6A7282"/>
<path d="M159.935 927.379C165.681 927.192 166.503 932.765 166.916 939.275L156.408 936.29C157.837 933.426 159.017 930.445 159.935 927.379Z" fill="#6A7282"/>
<path d="M167.212 944.344C167.303 947.466 167.315 950.832 167.504 953.898L150.756 947.949C151.899 945.444 153.128 943.038 154.386 940.665L167.212 944.344Z" fill="#6A7282"/>
<path d="M145.797 971.403L195.171 987.881C178.657 1009.52 146.671 1005.36 145.797 971.403Z" fill="#6A7282"/>
<path d="M148.822 952.394L168.002 959.2C168.758 963.491 170.288 966.528 173.513 966.755C174.784 966.845 176.359 965.274 178.064 962.746L202.383 971.348C201.684 975.715 200.194 979.918 197.987 983.75L145.966 966.369C146.218 961.594 147.18 956.884 148.822 952.394Z" fill="#6A7282"/>
<path d="M185.567 949.597L204.256 954.967C204.017 958.346 203.505 962.08 202.946 966.465L180.752 958.667C182.319 955.88 183.942 952.754 185.567 949.597Z" fill="#6A7282"/>
<path d="M198.466 931.501C201.112 931.394 203.723 932.135 205.919 933.616C205.547 938.887 205.21 943.661 204.755 950.11L187.897 945.274C191.821 937.793 195.676 931.304 198.466 931.501Z" fill="#6A7282"/>
<path d="M163.683 870.314L224.444 873.793C223.823 878.191 222.787 882.52 221.35 886.723L165.195 878.023C164.564 875.486 164.062 872.895 163.683 870.314Z" fill="#6A7282"/>
<path d="M223.987 851.577C224.818 858.091 225.042 864.667 224.656 871.222L163.338 867.704C162.938 864.39 162.726 861.057 162.703 857.72L223.987 851.577Z" fill="#6A7282"/>
<path d="M163.344 846.425L220.316 833.84C221.785 838.817 222.895 843.894 223.637 849.03L162.729 855.136C162.779 852.224 162.985 849.316 163.344 846.425Z" fill="#6A7282"/>
<path d="M213.194 816.449C215.809 821.211 217.981 826.204 219.681 831.364L163.847 843.717C164.283 840.737 164.887 837.784 165.656 834.872L213.194 816.449Z" fill="#6A7282"/>
<path d="M165.875 880.751L220.521 889.189C219.077 893.325 217.406 897.569 215.705 901.811C213.279 903.016 210.663 903.791 207.972 904.1C203.693 903.798 200.266 898.509 197.847 898.338C195.429 898.167 181.78 911.443 159.817 900.358C156.255 888.142 149.708 875.84 151.645 848.402C152.125 841.613 159.649 793.289 186.125 795.158C196.604 795.898 205.364 803.34 211.89 814.176L166.381 831.652C167.861 826.663 169.778 821.815 172.109 817.163C172.216 817.008 172.289 816.832 172.322 816.647C172.355 816.461 172.348 816.271 172.3 816.089C172.253 815.907 172.166 815.737 172.047 815.591C171.927 815.445 171.778 815.327 171.609 815.245C171.439 815.162 171.254 815.117 171.066 815.113C170.877 815.109 170.691 815.146 170.518 815.221C170.345 815.296 170.19 815.407 170.065 815.547C169.939 815.688 169.845 815.854 169.79 816.034C167.118 821.404 164.978 827.024 163.402 832.813L158.855 834.548C158.581 834.703 158.372 834.952 158.268 835.249C158.163 835.546 158.169 835.871 158.285 836.164C158.401 836.457 158.619 836.698 158.899 836.843C159.178 836.987 159.501 837.026 159.807 836.952L162.625 835.873C161.963 838.631 161.425 841.397 161.04 844.205L156.483 845.192C156.178 845.296 155.922 845.509 155.765 845.79C155.607 846.071 155.559 846.4 155.63 846.714C155.7 847.029 155.885 847.306 156.147 847.492C156.41 847.679 156.732 847.762 157.052 847.725L160.694 846.891C160.497 849.682 160.3 852.472 160.103 855.262C158.471 855.427 156.396 855.25 156.528 856.91C156.66 858.571 158.476 858.014 160.108 857.849C160.135 861.049 160.336 864.246 160.709 867.425L157.609 867.206C157.298 867.232 157.008 867.369 156.789 867.59C156.57 867.812 156.438 868.105 156.416 868.415C156.394 868.726 156.484 869.034 156.669 869.284C156.855 869.534 157.124 869.71 157.427 869.78L160.992 870.031C161.344 872.549 161.825 875.013 162.398 877.484C160.693 877.363 158.635 876.501 158.362 878.165C158.089 879.828 160.706 879.826 163.049 880.178C164.531 885.887 166.571 891.437 169.139 896.747C169.2 896.922 169.297 897.082 169.424 897.217C169.551 897.351 169.705 897.457 169.876 897.528C170.047 897.598 170.232 897.631 170.417 897.625C170.602 897.618 170.783 897.573 170.949 897.491C171.115 897.409 171.262 897.293 171.38 897.15C171.497 897.008 171.583 896.842 171.632 896.663C171.681 896.484 171.691 896.298 171.662 896.115C171.632 895.932 171.565 895.758 171.463 895.603C169.162 890.829 167.292 885.858 165.875 880.751Z" fill="#6A7282"/>
<path d="M170.317 1188.41C175.788 1186.64 178.117 1191.77 180.311 1197.92L169.388 1197.95C169.97 1194.8 170.281 1191.61 170.317 1188.41Z" fill="#6A7282"/>
<path d="M181.996 1202.71C182.946 1205.68 183.886 1208.91 184.914 1211.81L167.175 1210.72C167.581 1207.99 168.098 1205.34 168.652 1202.71L181.996 1202.71Z" fill="#6A7282"/>
<path d="M168.886 1234.63L220.891 1236.83C210.995 1262.19 179.104 1267.03 168.886 1234.63Z" fill="#6A7282"/>
<path d="M166.544 1215.52L186.857 1216.77C188.769 1220.68 191.079 1223.18 194.24 1222.51C195.487 1222.24 196.567 1220.3 197.508 1217.4L223.256 1218.95C223.79 1223.34 223.519 1227.79 222.456 1232.08L167.658 1229.74C166.581 1225.08 166.206 1220.29 166.544 1215.52Z" fill="#6A7282"/>
<path d="M201.087 1202.69L220.533 1202.69C221.237 1206 221.775 1209.73 222.449 1214.1L198.964 1212.73C199.701 1209.62 200.397 1206.17 201.087 1202.69Z" fill="#6A7282"/>
<path d="M208.488 1181.73C211.002 1180.9 213.716 1180.89 216.235 1181.71C217.333 1186.88 218.328 1191.56 219.671 1197.88L202.134 1197.89C203.839 1189.61 205.752 1182.31 208.488 1181.73Z" fill="#6A7282"/>
<path d="M158.161 1132.53L217.519 1119.09C218.137 1123.49 218.337 1127.94 218.116 1132.38L161.743 1139.52C160.436 1137.26 159.238 1134.91 158.161 1132.53Z" fill="#6A7282"/>
<path d="M210.945 1097.87C213.543 1103.9 215.574 1110.16 217.014 1116.57L157.108 1130.12C155.809 1127.04 154.684 1123.9 153.741 1120.7L210.945 1097.87Z" fill="#6A7282"/>
<path d="M151.238 1109.66L202.519 1081.83C205.305 1086.21 207.774 1090.79 209.905 1095.52L153.053 1118.21C152.296 1115.39 151.691 1112.54 151.238 1109.66Z" fill="#6A7282"/>
<path d="M190.871 1067.09C194.7 1070.94 198.166 1075.14 201.225 1079.63L150.974 1106.92C150.57 1103.94 150.335 1100.93 150.269 1097.92L190.871 1067.09Z" fill="#6A7282"/>
<path d="M163.15 1141.96L218.001 1134.98C217.755 1139.35 217.321 1143.89 216.857 1148.44C214.859 1150.26 212.558 1151.73 210.057 1152.77C205.862 1153.66 201.107 1149.53 198.735 1150.03C196.364 1150.53 186.911 1167.06 162.742 1162.47C155.945 1151.72 146.255 1141.7 140.54 1114.79C139.126 1108.14 133.013 1059.61 158.976 1054.1C169.252 1051.92 179.726 1056.65 188.99 1065.26L150.078 1094.63C150.122 1089.42 150.625 1084.23 151.581 1079.12C151.642 1078.94 151.663 1078.75 151.644 1078.56C151.624 1078.38 151.564 1078.2 151.468 1078.03C151.372 1077.87 151.242 1077.73 151.087 1077.63C150.932 1077.52 150.756 1077.45 150.571 1077.41C150.385 1077.38 150.195 1077.39 150.013 1077.44C149.83 1077.49 149.661 1077.57 149.516 1077.69C149.37 1077.81 149.252 1077.96 149.17 1078.13C149.088 1078.3 149.044 1078.49 149.04 1078.67C147.955 1084.57 147.451 1090.57 147.534 1096.56L143.643 1099.49C143.423 1099.71 143.291 1100.01 143.273 1100.32C143.254 1100.64 143.35 1100.95 143.542 1101.2C143.734 1101.45 144.01 1101.62 144.319 1101.68C144.628 1101.74 144.949 1101.69 145.222 1101.54L147.633 1099.72C147.758 1102.55 148.005 1105.36 148.41 1108.17L144.303 1110.37C144.039 1110.56 143.852 1110.83 143.778 1111.15C143.704 1111.46 143.749 1111.79 143.904 1112.07C144.058 1112.35 144.312 1112.57 144.616 1112.68C144.92 1112.78 145.252 1112.77 145.55 1112.65L148.82 1110.84C149.401 1113.58 149.982 1116.32 150.564 1119.05C149.041 1119.66 146.997 1120.06 147.583 1121.62C148.168 1123.18 149.759 1122.15 151.282 1121.54C152.192 1124.61 153.268 1127.62 154.505 1130.57L151.464 1131.22C151.173 1131.33 150.931 1131.54 150.782 1131.82C150.633 1132.09 150.587 1132.41 150.652 1132.71C150.717 1133.02 150.888 1133.29 151.135 1133.48C151.383 1133.67 151.689 1133.76 152 1133.74L155.497 1133C156.53 1135.32 157.672 1137.56 158.906 1139.78C157.233 1140.13 155.018 1139.87 155.214 1141.54C155.411 1143.22 157.926 1142.49 160.275 1142.19C163.276 1147.26 166.769 1152.03 170.704 1156.43C170.811 1156.58 170.948 1156.71 171.107 1156.8C171.267 1156.9 171.444 1156.95 171.628 1156.98C171.812 1157 171.998 1156.98 172.174 1156.92C172.35 1156.86 172.512 1156.77 172.649 1156.64C172.786 1156.52 172.895 1156.37 172.969 1156.2C173.042 1156.03 173.079 1155.84 173.077 1155.66C173.074 1155.47 173.032 1155.29 172.954 1155.12C172.875 1154.96 172.762 1154.81 172.622 1154.69C169.092 1150.73 165.922 1146.47 163.15 1141.96Z" fill="#6A7282"/>
<path d="M328.758 449.105C334.043 451.367 332.431 456.764 330.051 462.837L321.793 455.688C324.298 453.697 326.629 451.494 328.758 449.105Z" fill="#6A7282"/>
<path d="M328.175 467.554C326.937 470.422 325.524 473.477 324.397 476.335L311.739 463.859C313.834 462.073 315.965 460.413 318.109 458.795L328.175 467.554Z" fill="#6A7282"/>
<path d="M297.324 483.014L335.091 518.832C310.972 531.456 283.749 514.157 297.324 483.014Z" fill="#6A7282"/>
<path d="M308.106 467.069L322.606 481.35C321.476 485.558 321.578 488.957 324.404 490.527C325.517 491.146 327.609 490.389 330.224 488.819L348.62 506.902C346.139 510.563 343.012 513.741 339.39 516.28L299.606 478.523C301.854 474.304 304.719 470.443 308.106 467.069Z" fill="#6A7282"/>
<path d="M342.584 480.079L357.247 492.851C355.602 495.812 353.557 498.978 351.196 502.715L334.384 486.26C336.984 484.398 339.777 482.252 342.584 480.079Z" fill="#6A7282"/>
<path d="M361.927 469.139C364.37 470.162 366.423 471.938 367.786 474.209C365.219 478.827 362.894 483.011 359.754 488.661L346.524 477.149C353.245 472.03 359.482 467.781 361.927 469.139Z" fill="#6A7282"/>
<path d="M356.294 398.983L409.879 427.839C407.456 431.561 404.686 435.046 401.605 438.246L354.403 406.608C354.905 404.042 355.545 401.482 356.294 398.983Z" fill="#6A7282"/>
<path d="M418.863 407.515C416.86 413.769 414.281 419.823 411.159 425.599L357.086 396.471C358.125 393.3 359.343 390.19 360.734 387.156L418.863 407.515Z" fill="#6A7282"/>
<path d="M366.094 377.192L423.04 389.89C422.266 395.021 421.124 400.09 419.624 405.058L361.851 384.826C363.128 382.208 364.545 379.659 366.094 377.192Z" fill="#6A7282"/>
<path d="M423.943 371.119C424.299 376.54 424.154 381.983 423.512 387.378L367.694 374.952C369.35 372.436 371.147 370.016 373.075 367.702L423.943 371.119Z" fill="#6A7282"/>
<path d="M353.865 409.367L399.811 440.129C396.753 443.265 393.444 446.404 390.108 449.528C387.4 449.595 384.701 449.19 382.132 448.332C378.383 446.248 377.515 440.005 375.396 438.827C373.277 437.65 355.293 443.905 340.082 424.57C342.022 411.994 341.294 398.077 354.656 374.035C357.963 368.086 385.223 327.482 408.423 340.376C417.605 345.479 422.394 355.928 423.723 368.507L375.095 365.091C378.546 361.197 382.333 357.615 386.414 354.386C386.577 354.291 386.717 354.162 386.825 354.008C386.934 353.854 387.007 353.678 387.041 353.493C387.075 353.308 387.069 353.117 387.022 352.935C386.976 352.752 386.89 352.582 386.772 352.436C386.653 352.289 386.504 352.17 386.336 352.087C386.167 352.003 385.982 351.957 385.794 351.952C385.605 351.947 385.418 351.983 385.245 352.057C385.072 352.131 384.916 352.241 384.79 352.381C380.097 356.117 375.781 360.304 371.904 364.882L367.05 364.531C366.736 364.556 366.441 364.694 366.221 364.918C366 365.143 365.869 365.44 365.85 365.755C365.831 366.069 365.926 366.38 366.119 366.629C366.311 366.879 366.587 367.05 366.895 367.112L369.905 367.327C368.139 369.546 366.481 371.825 364.944 374.206L360.398 373.173C360.078 373.138 359.756 373.222 359.494 373.41C359.233 373.598 359.05 373.876 358.981 374.191C358.912 374.506 358.961 374.835 359.12 375.115C359.28 375.395 359.536 375.606 359.842 375.709L363.495 376.494C362.136 378.939 360.777 381.384 359.418 383.829C357.87 383.288 356.064 382.25 355.482 383.81C354.899 385.371 356.779 385.634 358.328 386.174C356.998 389.086 355.828 392.068 354.822 395.106L352.105 393.596C351.813 393.489 351.492 393.489 351.2 393.597C350.908 393.706 350.664 393.915 350.513 394.187C350.362 394.459 350.313 394.777 350.375 395.082C350.437 395.387 350.606 395.66 350.852 395.851L353.976 397.588C353.23 400.017 352.623 402.453 352.097 404.935C350.603 404.104 349.103 402.453 348.152 403.844C347.201 405.236 349.573 406.341 351.547 407.652C350.474 413.452 349.975 419.344 350.056 425.242C350.037 425.426 350.057 425.612 350.115 425.787C350.174 425.963 350.269 426.124 350.394 426.26C350.519 426.397 350.672 426.504 350.842 426.577C351.013 426.65 351.196 426.685 351.381 426.681C351.566 426.677 351.749 426.634 351.916 426.555C352.083 426.475 352.231 426.361 352.351 426.22C352.47 426.078 352.558 425.913 352.609 425.735C352.66 425.558 352.673 425.371 352.646 425.188C352.58 419.888 352.988 414.594 353.865 409.367Z" fill="#6A7282"/>
<path d="M499.361 235.538C503.604 239.417 500.301 243.98 496.051 248.928L490.614 239.454C493.636 238.402 496.563 237.091 499.361 235.538Z" fill="#6A7282"/>
<path d="M492.724 252.764C490.61 255.063 488.268 257.48 486.261 259.807L478.427 243.854C480.994 242.858 483.554 241.995 486.111 241.175L492.724 252.764Z" fill="#6A7282"/>
<path d="M458.5 257.181L482.338 303.453C455.405 307.414 435.412 282.102 458.5 257.181Z" fill="#6A7282"/>
<path d="M473.939 245.684L482.916 263.949C480.462 267.549 479.437 270.792 481.586 273.206C482.433 274.158 484.658 274.133 487.644 273.514L499.045 296.653C495.495 299.291 491.494 301.259 487.238 302.461L462.136 253.694C465.651 250.452 469.629 247.753 473.939 245.684Z" fill="#6A7282"/>
<path d="M502.195 269.34L511.824 286.234C509.294 288.487 506.32 290.801 502.858 293.55L492.415 272.47C495.484 271.57 498.828 270.466 502.195 269.34Z" fill="#6A7282"/>
<path d="M524.064 265.394C526.033 267.165 527.385 269.519 527.923 272.112C523.976 275.625 520.401 278.808 515.572 283.106L506.881 267.874C514.914 265.259 522.204 263.305 524.064 265.394Z" fill="#6A7282"/>
<path d="M541.89 197.306L582.956 242.224C579.44 244.939 575.676 247.314 571.713 249.319L537.59 203.881C538.91 201.624 540.359 199.419 541.89 197.306Z" fill="#6A7282"/>
<path d="M598.141 226.001C594.188 231.244 589.756 236.108 584.903 240.531L543.466 195.196C545.493 192.545 547.669 190.011 549.982 187.606L598.141 226.001Z" fill="#6A7282"/>
<path d="M558.329 179.968L607.899 210.74C605.475 215.329 602.725 219.738 599.67 223.933L551.806 185.775C553.875 183.725 556.053 181.786 558.329 179.968Z" fill="#6A7282"/>
<path d="M614.944 193.319C613.491 198.554 611.559 203.644 609.173 208.525L560.579 178.382C562.972 176.553 565.466 174.861 568.05 173.312L614.944 193.319Z" fill="#6A7282"/>
<path d="M536.171 206.308L569.398 250.506C565.476 252.457 561.316 254.329 557.136 256.177C554.559 255.347 552.145 254.074 550.002 252.417C547.151 249.213 548.39 243.033 546.778 241.222C545.167 239.412 526.126 239.384 518.144 216.114C524.125 204.882 528.028 191.504 548.573 173.215C553.657 168.69 592.786 139.352 610.434 159.177C617.418 167.024 618.492 178.467 615.597 190.781L570.818 171.514C575.36 168.977 580.118 166.844 585.035 165.142C585.22 165.106 585.395 165.031 585.548 164.921C585.701 164.811 585.829 164.67 585.922 164.506C586.015 164.343 586.072 164.161 586.088 163.973C586.104 163.785 586.08 163.596 586.016 163.419C585.953 163.242 585.851 163.08 585.72 162.946C585.588 162.812 585.428 162.707 585.252 162.64C585.076 162.573 584.888 162.545 584.7 162.558C584.512 162.57 584.329 162.624 584.163 162.714C578.5 164.693 573.045 167.222 567.875 170.265L563.408 168.332C563.103 168.252 562.78 168.284 562.498 168.424C562.216 168.563 561.993 168.8 561.872 169.091C561.75 169.382 561.738 169.706 561.837 170.005C561.936 170.304 562.14 170.557 562.411 170.718L565.181 171.913C562.782 173.425 560.465 175.029 558.229 176.77L554.278 174.295C553.987 174.157 553.655 174.13 553.346 174.221C553.038 174.313 552.773 174.515 552.604 174.789C552.435 175.063 552.374 175.39 552.431 175.707C552.489 176.024 552.662 176.309 552.917 176.506L556.106 178.452C554.016 180.312 551.927 182.172 549.838 184.032C548.554 183.011 547.193 181.434 546.128 182.715C545.063 183.996 546.751 184.865 548.035 185.886C545.819 188.196 543.731 190.625 541.778 193.162L539.712 190.84C539.472 190.642 539.168 190.536 538.857 190.542C538.546 190.548 538.247 190.666 538.014 190.873C537.781 191.08 537.631 191.363 537.589 191.672C537.547 191.98 537.616 192.294 537.785 192.555L540.162 195.225C538.656 197.273 537.279 199.372 535.964 201.541C534.827 200.264 533.956 198.21 532.599 199.21C531.242 200.21 533.117 202.036 534.549 203.924C531.623 209.046 529.208 214.443 527.338 220.038C527.26 220.205 527.217 220.388 527.214 220.573C527.212 220.758 527.248 220.941 527.321 221.111C527.395 221.281 527.504 221.433 527.64 221.558C527.777 221.683 527.939 221.777 528.115 221.834C528.291 221.892 528.477 221.911 528.661 221.891C528.845 221.871 529.022 221.812 529.182 221.718C529.341 221.624 529.479 221.498 529.586 221.346C529.693 221.195 529.766 221.023 529.801 220.842C531.488 215.817 533.619 210.953 536.171 206.308Z" fill="#6A7282"/>
<path d="M108.046 824.722C108.049 827.919 108.312 831.11 108.832 834.264L97.9332 834.14C100.818 826.41 103.273 823.14 108.046 824.722Z" fill="#6A7282"/>
<path d="M109.663 839.07C110.155 841.698 110.641 844.355 111.046 847.09L93.2945 847.974C94.3703 845.03 95.2945 842.052 96.3135 838.936L109.663 839.07Z" fill="#6A7282"/>
<path d="M57.1159 872.588L109.001 871.063C98.4925 903.073 66.6474 898.209 57.1159 872.588Z" fill="#6A7282"/>
<path d="M80.5381 853.421C81.4514 856.302 82.6298 858.287 83.7517 858.539C86.7841 859.221 89.2442 856.78 91.2023 852.887L111.529 851.882C111.846 856.658 111.465 861.456 110.399 866.122L55.5769 867.815C54.5602 863.511 54.3414 859.056 54.9314 854.673L80.5381 853.421Z" fill="#6A7282"/>
<path d="M77.1628 838.677C77.876 842.023 78.5044 845.605 79.2115 848.695L55.6819 849.776C56.4308 845.453 57.1108 841.72 57.7628 838.394L77.1628 838.677Z" fill="#6A7282"/>
<path d="M70.0271 817.705C72.7562 818.319 74.6126 825.649 76.2205 833.942L58.6846 833.727C60.0956 827.45 61.1521 822.75 62.3109 817.595C64.8331 816.838 67.5276 816.876 70.0271 817.705Z" fill="#6A7282"/>
<path d="M61.7563 754.874L120.952 769.009C119.841 771.403 118.621 773.71 117.281 775.988L61.0024 768.148C60.8341 763.709 61.0865 759.265 61.7563 754.874Z" fill="#6A7282"/>
<path d="M68.5807 733.728L125.512 757.229C124.526 760.428 123.363 763.57 122.027 766.639L62.285 752.381C63.801 745.982 65.9085 739.737 68.5807 733.728Z" fill="#6A7282"/>
<path d="M77.1958 717.793L128.138 746.255C127.654 749.117 127.017 751.951 126.229 754.745L69.7393 731.407C71.8966 726.697 74.3885 722.147 77.1958 717.793Z" fill="#6A7282"/>
<path d="M129.373 734.523C129.272 737.533 129.001 740.535 128.563 743.515L78.6304 715.662C81.6986 711.19 85.1758 707.013 89.017 703.184L129.373 734.523Z" fill="#6A7282"/>
<path d="M129.425 731.317L90.9192 701.382C100.278 692.91 110.777 688.293 121.056 690.604C146.953 696.425 140.274 744.842 138.774 751.513C132.748 778.319 122.941 788.219 116.018 798.895C91.796 803.198 82.1146 786.464 80.1436 786.021C78.1726 785.578 72.9747 789.57 68.8204 788.636C66.334 787.572 64.049 786.089 62.0653 784.251C61.6551 779.699 61.2751 775.154 61.0802 770.777L115.852 778.375C112.997 782.906 109.746 787.175 106.136 791.131C106.022 791.256 105.934 791.402 105.877 791.561C105.819 791.721 105.794 791.889 105.802 792.058C105.809 792.227 105.851 792.393 105.922 792.546C105.994 792.699 106.096 792.836 106.221 792.95C106.346 793.064 106.492 793.152 106.651 793.209C106.81 793.267 106.979 793.292 107.148 793.284C107.317 793.276 107.482 793.235 107.635 793.164C107.788 793.092 107.926 792.99 108.04 792.865C112.008 788.515 115.554 783.798 118.629 778.776C120.981 779.082 123.511 779.874 123.704 778.165C123.897 776.456 121.729 776.606 120.034 776.353C121.293 774.151 122.462 771.929 123.523 769.619C125.827 770.137 128.117 771.289 128.526 769.469C128.935 767.65 126.326 767.637 124.567 767.241C125.835 764.303 126.946 761.298 127.896 758.242C129.418 758.839 131.004 759.864 131.601 758.342C132.198 756.82 130.166 756.363 128.62 755.729C129.385 753.034 130.029 750.312 130.461 747.542L133.709 749.387C134.005 749.514 134.338 749.527 134.643 749.424C134.948 749.321 135.204 749.108 135.362 748.828C135.52 748.547 135.569 748.218 135.499 747.903C135.429 747.589 135.245 747.312 134.982 747.125L130.902 744.869C131.34 742.069 131.62 739.265 131.779 736.434C133.216 737.553 134.897 739.428 135.995 738.082C136.194 737.804 136.282 737.461 136.24 737.121C136.198 736.782 136.031 736.47 135.771 736.248L131.915 733.279C132.084 727.288 131.67 721.296 130.681 715.385C130.679 715.197 130.637 715.011 130.557 714.841C130.477 714.67 130.361 714.519 130.217 714.397C130.073 714.276 129.905 714.187 129.723 714.137C129.542 714.087 129.351 714.076 129.166 714.107C128.98 714.137 128.803 714.207 128.646 714.312C128.49 714.418 128.358 714.556 128.261 714.716C128.163 714.877 128.101 715.058 128.079 715.245C128.057 715.432 128.076 715.621 128.135 715.8C129.035 720.923 129.467 726.117 129.425 731.317Z" fill="#6A7282"/>
<path d="M77.27 1088.31C78.4191 1091.29 79.8087 1094.18 81.4248 1096.94L71.2063 1100.73C71.1275 1092.48 72.2469 1088.55 77.27 1088.31Z" fill="#6A7282"/>
<path d="M83.9238 1101.13C85.3255 1103.4 86.7318 1105.71 88.0901 1108.12L71.836 1115.31C71.7849 1112.17 71.58 1109.06 71.414 1105.79L83.9238 1101.13Z" fill="#6A7282"/>
<path d="M46.8884 1151.26L94.7771 1131.23C96.4441 1164.88 64.9721 1171.76 46.8884 1151.26Z" fill="#6A7282"/>
<path d="M61.8808 1124.96C63.7663 1127.33 65.5781 1128.76 66.7159 1128.59C69.791 1128.14 71.2122 1124.98 71.6446 1120.64L90.2595 1112.42C92.2676 1116.76 93.6321 1121.38 94.3099 1126.11L43.7401 1147.35C41.2476 1143.7 39.4463 1139.62 38.4255 1135.31L61.8808 1124.96Z" fill="#6A7282"/>
<path d="M53.4438 1112.41C55.3092 1115.28 57.18 1118.4 58.9479 1121.03L37.3706 1130.47C36.5196 1126.17 35.8157 1122.44 35.232 1119.1L53.4438 1112.41Z" fill="#6A7282"/>
<path d="M39.2629 1095.39C42.0305 1094.99 46.3916 1101.16 50.8662 1108.33L34.4191 1114.42C33.4857 1108.05 32.7869 1103.28 32.0203 1098.06C34.1031 1096.44 36.6322 1095.51 39.2629 1095.39Z" fill="#6A7282"/>
<path d="M9.01458 1039.7L69.3427 1031.68C69.1634 1034.31 68.8521 1036.9 68.4178 1039.51L13.07 1052.37C11.3214 1048.28 9.96355 1044.04 9.01458 1039.7Z" fill="#6A7282"/>
<path d="M7.80304 1017.52L69.3751 1019.04C69.6021 1022.38 69.6424 1025.73 69.4957 1029.08L8.61419 1037.19C7.7348 1030.67 7.46319 1024.08 7.80304 1017.52Z" fill="#6A7282"/>
<path d="M10.1322 999.553L67.8921 1007.86C68.4664 1010.7 68.8879 1013.58 69.1546 1016.47L8.05281 1014.94C8.37778 1009.77 9.0727 1004.62 10.1322 999.553Z" fill="#6A7282"/>
<path d="M64.8392 996.463C65.824 999.31 66.6477 1002.21 67.3064 1005.15L10.7075 997.05C11.9684 991.775 13.7166 986.629 15.9297 981.678L64.8392 996.463Z" fill="#6A7282"/>
<path d="M63.738 993.452L17.0593 979.313C22.7581 968.048 30.9038 959.974 41.3284 958.446C67.5899 954.595 78.7146 1002.19 79.7066 1008.95C83.6925 1036.14 78.0871 1048.9 75.4519 1061.34C54.3833 1074.05 39.3456 1061.89 37.3468 1062.19C35.348 1062.48 31.927 1068.07 27.7141 1068.69C25.0116 1068.59 22.3466 1068.02 19.8358 1067.02C17.8207 1062.91 15.8364 1058.81 14.0854 1054.79L67.94 1042.25C66.8994 1047.5 65.3945 1052.65 63.4432 1057.64C63.3817 1057.8 63.3518 1057.96 63.3553 1058.13C63.3588 1058.3 63.3956 1058.47 63.4635 1058.62C63.5314 1058.78 63.6292 1058.92 63.7512 1059.04C63.8732 1059.15 64.017 1059.24 64.1746 1059.31C64.3321 1059.37 64.5001 1059.4 64.6692 1059.39C64.8382 1059.39 65.0049 1059.35 65.1597 1059.29C65.3146 1059.22 65.4546 1059.12 65.5717 1059C65.6887 1058.88 65.7806 1058.73 65.842 1058.57C67.9867 1053.09 69.6053 1047.42 70.676 1041.63C72.9815 1041.07 75.6269 1040.9 75.1944 1039.24C74.7619 1037.57 72.7917 1038.49 71.1185 1038.86C71.5048 1036.35 71.7989 1033.86 71.9609 1031.32C74.298 1030.98 76.8484 1031.23 76.5778 1029.39C76.3073 1027.54 73.8668 1028.47 72.0832 1028.73C72.213 1025.53 72.1733 1022.33 71.9643 1019.13C73.5994 1019.15 75.447 1019.53 75.4585 1017.9C75.47 1016.26 73.4097 1016.57 71.7393 1016.53C71.4873 1013.74 71.1122 1010.97 70.5219 1008.23L74.2161 1008.78C74.538 1008.8 74.8532 1008.69 75.101 1008.48C75.3489 1008.28 75.5118 1007.99 75.5587 1007.67C75.6055 1007.35 75.5329 1007.03 75.3547 1006.76C75.1765 1006.49 74.9053 1006.3 74.5934 1006.22L69.9758 1005.57C69.381 1002.8 68.6369 1000.08 67.7698 997.384C69.5124 997.914 71.7539 999.061 72.2972 997.411C72.383 997.08 72.3415 996.728 72.1809 996.426C72.0203 996.124 71.7523 995.893 71.4297 995.779L66.7654 994.39C64.7754 988.737 62.241 983.291 59.1981 978.128C59.1292 977.953 59.0232 977.795 58.8874 977.664C58.7515 977.534 58.589 977.434 58.4111 977.373C58.2332 977.311 58.044 977.288 57.8565 977.306C57.6691 977.325 57.4877 977.383 57.3251 977.478C57.1624 977.573 57.0222 977.702 56.9141 977.857C56.806 978.011 56.7326 978.187 56.6989 978.372C56.6651 978.557 56.6719 978.748 56.7187 978.93C56.7655 979.113 56.8513 979.283 56.97 979.429C59.6471 983.888 61.9124 988.582 63.738 993.452Z" fill="#6A7282"/>
<path d="M312.838 331.893C311.417 334.757 310.232 337.731 309.292 340.787L299.59 335.822C305.614 330.186 309.269 328.351 312.838 331.893Z" fill="#6A7282"/>
<path d="M307.896 345.46C307.167 348.032 306.419 350.628 305.563 353.257L289.276 346.143C291.55 343.986 293.704 341.732 296.003 339.396L307.896 345.46Z" fill="#6A7282"/>
<path d="M245.921 352.073L293.057 373.812C269.393 397.794 243.046 379.257 245.921 352.073Z" fill="#6A7282"/>
<path d="M275.429 345.34C274.963 348.326 275.134 350.628 276.027 351.354C278.438 353.314 281.728 352.224 285.215 349.611L303.862 357.762C302.019 362.18 299.542 366.306 296.509 370.009L246.669 347.112C247.675 342.806 249.463 338.72 251.943 335.058L275.429 345.34Z" fill="#6A7282"/>
<path d="M278.972 330.636C278.12 333.95 277.088 337.436 276.345 340.518L254.796 331.008C257.392 327.471 259.663 324.431 261.728 321.743L278.972 330.636Z" fill="#6A7282"/>
<path d="M281.922 308.68C284.092 310.444 282.49 317.834 280.237 325.976L264.631 317.975C268.69 312.983 271.729 309.245 275.062 305.145C277.658 305.59 280.053 306.824 281.922 308.68Z" fill="#6A7282"/>
<path d="M302.496 248.74L349.204 287.757C347.142 289.406 345.024 290.928 342.808 292.371L295.91 260.289C297.736 256.24 299.941 252.373 302.496 248.74Z" fill="#6A7282"/>
<path d="M318.023 232.845L358.532 279.239C356.225 281.665 353.785 283.96 351.221 286.113L304.079 246.744C308.287 241.689 312.955 237.036 318.023 232.845Z" fill="#6A7282"/>
<path d="M332.833 222.414L365.77 270.583C364.062 272.93 362.23 275.184 360.281 277.336L320.094 231.283C324.123 228.026 328.38 225.062 332.833 222.414Z" fill="#6A7282"/>
<path d="M372.101 260.629C370.67 263.279 369.091 265.847 367.371 268.319L335.066 221.145C339.805 218.507 344.778 216.315 349.922 214.598L372.101 260.629Z" fill="#6A7282"/>
<path d="M373.575 257.782L352.428 213.831C364.581 210.413 376.037 210.955 384.212 217.601C404.806 234.346 377.266 274.722 372.952 280.028C355.62 301.345 342.43 305.843 331.477 312.319C307.873 305.385 306.657 286.091 305.089 284.816C303.522 283.542 297.09 284.802 293.786 282.116C292.034 280.056 290.648 277.71 289.691 275.181C291.35 270.922 293.034 266.683 294.809 262.678L340.467 293.872C335.893 296.658 331.08 299.032 326.086 300.967C325.929 301.028 325.785 301.119 325.663 301.236C325.54 301.353 325.442 301.493 325.374 301.648C325.306 301.802 325.269 301.969 325.265 302.138C325.262 302.307 325.291 302.475 325.352 302.633C325.414 302.791 325.505 302.935 325.622 303.057C325.739 303.179 325.879 303.277 326.034 303.345C326.188 303.413 326.355 303.45 326.524 303.454C326.693 303.458 326.861 303.428 327.019 303.367C332.509 301.239 337.785 298.594 342.774 295.468C344.744 296.789 346.657 298.624 347.591 297.18C348.524 295.736 346.516 294.905 345.112 293.923C347.22 292.513 349.255 291.043 351.234 289.448C353.067 290.938 354.604 292.989 355.78 291.542C356.957 290.095 354.626 288.921 353.227 287.784C355.671 285.717 358.004 283.522 360.216 281.208C361.313 282.421 362.276 284.045 363.488 282.948C364.701 281.851 363.085 280.537 361.983 279.281C363.869 277.208 365.657 275.058 367.277 272.77L369.364 275.868C369.573 276.114 369.864 276.274 370.184 276.318C370.503 276.361 370.827 276.285 371.093 276.104C371.36 275.923 371.55 275.65 371.627 275.337C371.704 275.024 371.663 274.694 371.511 274.41L368.862 270.574C370.502 268.261 372.001 265.875 373.404 263.411C374.192 265.053 374.862 267.48 376.445 266.765C376.747 266.604 376.978 266.336 377.092 266.013C377.206 265.691 377.195 265.337 377.061 265.022L374.931 260.646C377.75 255.358 380.048 249.808 381.794 244.076C381.877 243.906 381.922 243.721 381.926 243.533C381.93 243.345 381.894 243.158 381.819 242.985C381.744 242.812 381.633 242.657 381.493 242.532C381.352 242.406 381.186 242.312 381.007 242.256C380.827 242.201 380.637 242.185 380.45 242.209C380.263 242.234 380.084 242.299 379.925 242.399C379.765 242.5 379.63 242.633 379.527 242.791C379.424 242.949 379.357 243.127 379.329 243.314C377.854 248.301 375.928 253.144 373.575 257.782Z" fill="#6A7282"/>
<path d="M522.998 119.638C520.712 121.873 518.612 124.289 516.717 126.864L509.195 118.977C516.742 115.643 520.798 115.117 522.998 119.638Z" fill="#6A7282"/>
<path d="M513.857 130.815C512.321 133.002 510.758 135.205 509.083 137.405L496.054 125.317C498.912 124.031 501.689 122.613 504.631 121.166L513.857 130.815Z" fill="#6A7282"/>
<path d="M453.17 116.613L490.496 152.685C460.246 167.517 441.489 141.327 453.17 116.613Z" fill="#6A7282"/>
<path d="M483.247 119.991C481.822 122.657 481.224 124.886 481.827 125.865C483.457 128.512 486.923 128.568 491.076 127.251L505.991 141.098C502.793 144.66 499.094 147.738 495.009 150.234L455.512 112.177C457.883 108.443 460.919 105.176 464.468 102.537L483.247 119.991Z" fill="#6A7282"/>
<path d="M491.442 107.279C489.545 110.126 487.421 113.077 485.703 115.741L468.497 99.655C472.114 97.1718 475.261 95.0511 478.097 93.1953L491.442 107.279Z" fill="#6A7282"/>
<path d="M501.47 87.5245C502.937 89.9063 498.987 96.3539 494.174 103.297L482.081 90.5952C487.559 87.2216 491.661 84.6955 496.16 81.9249C498.464 83.201 500.318 85.1563 501.47 87.5245Z" fill="#6A7282"/>
<path d="M540.665 37.7269L571.888 89.9677C569.398 90.844 566.896 91.5819 564.328 92.214L530.638 46.457C533.697 43.2369 537.055 40.3138 540.665 37.7269Z" fill="#6A7282"/>
<path d="M560.567 27.8436L583.504 85.0043C580.526 86.5331 577.465 87.8943 574.335 89.0815L542.819 36.3645C548.458 32.9804 554.4 30.1277 560.567 27.8436Z" fill="#6A7282"/>
<path d="M577.989 22.8823L593.192 79.2208C590.805 80.8732 588.332 82.3964 585.782 83.7841L563.037 27.053C567.915 25.3075 572.911 23.9138 577.989 22.8823Z" fill="#6A7282"/>
<path d="M602.452 71.9117C600.227 73.9414 597.889 75.8442 595.45 77.611L580.515 22.4207C585.859 21.4937 591.277 21.0653 596.7 21.1409L602.452 71.9117Z" fill="#6A7282"/>
<path d="M604.783 69.7101L599.318 21.2441C611.918 22.026 622.554 26.3167 628.079 35.2881C641.997 57.8886 602.679 86.92 596.857 90.5055C573.462 104.913 559.527 104.807 547.051 107.307C527.055 92.9756 532.272 74.3596 531.213 72.6395C530.153 70.9193 523.666 69.9868 521.433 66.3612C520.458 63.8386 519.924 61.1672 519.855 58.4636C522.826 54.9911 525.814 51.545 528.81 48.3493L561.622 92.8585C556.385 93.9794 551.059 94.6331 545.707 94.8122C545.538 94.818 545.372 94.857 545.218 94.9271C545.064 94.9971 544.925 95.0967 544.81 95.2203C544.694 95.3439 544.605 95.4891 544.545 95.6474C544.486 95.8058 544.458 95.9742 544.464 96.1432C544.47 96.3122 544.509 96.4783 544.579 96.6322C544.649 96.7861 544.749 96.9247 544.872 97.0401C544.996 97.1555 545.141 97.2455 545.299 97.3048C545.458 97.3641 545.626 97.3916 545.795 97.3858C551.68 97.188 557.533 96.4315 563.274 95.1262C564.698 97.0234 565.898 99.3869 567.256 98.3317C568.614 97.2766 566.993 95.8294 565.99 94.4391C568.446 93.803 570.852 93.0876 573.246 92.2337C574.485 94.2449 575.26 96.6881 576.847 95.7103C578.435 94.7324 576.623 92.8556 575.677 91.3207C578.666 90.1757 581.592 88.8732 584.444 87.4187C585.079 88.9252 585.453 90.7759 586.959 90.1402C588.466 89.5044 587.374 87.7314 586.748 86.1821C589.211 84.8476 591.609 83.4073 593.893 81.7817L594.841 85.3955C594.957 85.6962 595.18 85.9434 595.467 86.0898C595.754 86.2361 596.085 86.2711 596.396 86.1881C596.707 86.1052 596.977 85.9101 597.153 85.6403C597.329 85.3706 597.399 85.0452 597.35 84.7269L596.114 80.2315C598.425 78.5896 600.627 76.8317 602.765 74.968C602.967 76.778 602.799 79.2907 604.529 79.1374C604.867 79.0852 605.174 78.9083 605.388 78.6413C605.602 78.3744 605.708 78.0369 605.685 77.6955L605.118 72.8619C609.523 68.7994 613.524 64.3187 617.063 59.4828C617.197 59.3502 617.301 59.1903 617.367 59.0139C617.433 58.8376 617.46 58.649 617.447 58.4611C617.433 58.2733 617.379 58.0906 617.288 57.9256C617.197 57.7606 617.072 57.6173 616.92 57.5054C616.769 57.3935 616.595 57.3157 616.41 57.2774C616.226 57.2391 616.035 57.2411 615.852 57.2834C615.668 57.3257 615.496 57.4071 615.347 57.5222C615.198 57.6374 615.075 57.7834 614.988 57.9503C611.95 62.1719 608.534 66.1081 604.783 69.7101Z" fill="#6A7282"/>
<path d="M222.155 671.674C227.563 673.616 226.317 679.079 224.323 685.322L215.631 678.695C218.003 676.546 220.185 674.197 222.155 671.674Z" fill="#6A7282"/>
<path d="M222.757 690.152C221.708 693.094 220.496 696.234 219.637 698.991L206.195 687.363C208.17 685.444 210.176 683.678 212.21 681.924L222.757 690.152Z" fill="#6A7282"/>
<path d="M192.975 707.581L232.935 740.984C209.752 755.006 181.45 739.538 192.975 707.581Z" fill="#6A7282"/>
<path d="M202.713 690.94L218.109 704.25C217.255 708.522 217.577 711.907 220.499 713.291C221.65 713.836 223.689 712.945 226.183 711.237L245.727 728.059C243.496 731.879 240.58 735.254 237.125 738.016L194.961 702.95C196.935 698.584 199.547 694.536 202.713 690.94Z" fill="#6A7282"/>
<path d="M237.95 701.713L253.424 713.478C251.974 716.54 250.126 719.86 248.026 723.714L230.181 708.385C232.615 706.442 235.289 704.064 237.95 701.713Z" fill="#6A7282"/>
<path d="M256.555 689.513C259.058 690.385 261.217 692.034 262.717 694.219C260.469 698.966 258.407 703.32 255.653 709.135L241.704 698.505C248.012 693.101 254.027 688.316 256.555 689.513Z" fill="#6A7282"/>
<path d="M246.366 619.898L301.711 645.215C299.536 649.076 297.003 652.724 294.144 656.109L244.974 627.629C245.322 625.008 245.781 622.44 246.366 619.898Z" fill="#6A7282"/>
<path d="M309.356 624.351C307.766 630.722 305.585 636.931 302.843 642.898L246.993 617.341C247.826 614.109 248.84 610.927 250.029 607.808L309.356 624.351Z" fill="#6A7282"/>
<path d="M254.731 597.517L312.395 606.463C311.951 611.633 311.14 616.766 309.97 621.822L251.006 605.382C252.106 602.696 253.35 600.07 254.731 597.517Z" fill="#6A7282"/>
<path d="M312.077 587.674C312.746 593.056 312.913 598.488 312.577 603.901L256.07 595.125C257.562 592.497 259.202 589.955 260.982 587.513L312.077 587.674Z" fill="#6A7282"/>
<path d="M244.63 630.39L292.463 658.133C289.614 661.461 286.516 664.809 283.39 668.142C280.695 668.364 277.982 668.126 275.367 667.438C271.491 665.602 270.219 659.428 268.028 658.391C265.837 657.353 248.297 664.762 231.849 646.484C232.969 633.808 231.339 619.968 243.112 595.11C246.026 588.958 270.593 546.671 294.581 558.032C304.075 562.528 309.532 572.644 311.675 585.11L262.887 584.942C266.078 580.844 269.62 577.033 273.474 573.552C273.626 573.446 273.752 573.309 273.846 573.15C273.94 572.991 274 572.814 274.02 572.63C274.041 572.446 274.022 572.261 273.965 572.085C273.909 571.909 273.815 571.747 273.692 571.61C273.568 571.473 273.416 571.364 273.247 571.29C273.078 571.215 272.895 571.178 272.71 571.18C272.525 571.182 272.343 571.223 272.175 571.3C272.008 571.377 271.858 571.49 271.737 571.629C267.303 575.669 263.268 580.126 259.69 584.941L254.81 584.934C254.498 584.979 254.213 585.135 254.008 585.374C253.802 585.613 253.69 585.917 253.692 586.232C253.693 586.547 253.809 586.851 254.017 587.087C254.225 587.324 254.511 587.477 254.823 587.519L257.854 587.51C256.235 589.839 254.729 592.22 253.35 594.697L248.733 593.989C248.396 593.939 248.054 594.025 247.78 594.227C247.507 594.43 247.325 594.733 247.275 595.07C247.226 595.406 247.311 595.749 247.514 596.022C247.717 596.295 248.02 596.477 248.356 596.527L252.039 597.102C250.842 599.63 249.644 602.158 248.46 604.658C246.88 604.219 244.998 603.328 244.531 604.895C244.064 606.462 245.931 606.658 247.511 607.097C246.376 610.09 245.401 613.141 244.592 616.238L241.783 614.908C241.485 614.819 241.164 614.84 240.88 614.967C240.596 615.095 240.366 615.319 240.233 615.6C240.1 615.882 240.071 616.202 240.153 616.502C240.235 616.803 240.422 617.064 240.679 617.239L243.909 618.769C243.336 621.214 242.875 623.712 242.511 626.223C241.033 625.35 239.362 623.94 238.517 625.362C237.671 626.785 240.084 627.79 242.139 628.969C241.456 634.818 241.344 640.72 241.806 646.591C241.819 646.76 241.865 646.924 241.941 647.075C242.017 647.226 242.122 647.36 242.251 647.471C242.379 647.581 242.527 647.665 242.688 647.717C242.849 647.77 243.018 647.791 243.187 647.778C243.355 647.765 243.52 647.72 243.671 647.643C243.822 647.567 243.956 647.462 244.066 647.333C244.176 647.205 244.26 647.057 244.313 646.896C244.366 646.735 244.387 646.566 244.374 646.397C243.986 641.064 244.072 635.708 244.63 630.39Z" fill="#6A7282"/>
<path d="M482.699 2285.34C485.134 2287.41 487.733 2289.28 490.471 2290.93L483.288 2299.12C479.22 2291.84 478.361 2287.9 482.699 2285.34Z" fill="#6A7282"/>
<path d="M494.649 2293.39C496.968 2294.72 499.287 2296.05 501.631 2297.52L490.79 2311.6C489.247 2308.87 487.58 2306.24 485.963 2303.57L494.649 2293.39Z" fill="#6A7282"/>
<path d="M486.076 2355.13L518.613 2314.5C536.117 2343.41 511.795 2364.54 486.076 2355.13Z" fill="#6A7282"/>
<path d="M486.661 2324.84C489.465 2326.04 491.722 2326.41 492.641 2325.72C495.127 2323.85 494.883 2320.42 493.172 2316.38L505.592 2300.26C509.439 2303.12 512.849 2306.53 515.715 2310.38L481.426 2353.18C477.488 2351.16 473.955 2348.44 471.005 2345.14L486.661 2324.84Z" fill="#6A7282"/>
<path d="M473.251 2317.85C476.353 2319.6 479.412 2321.35 482.204 2322.79L467.765 2341.4C464.942 2338 462.541 2335.06 460.452 2332.43L473.251 2317.85Z" fill="#6A7282"/>
<path d="M452.623 2309.63C454.86 2307.95 461.643 2311.29 468.998 2315.44L457.441 2328.63C453.579 2323.48 450.687 2319.63 447.534 2315.43C448.572 2313 450.354 2310.97 452.623 2309.63Z" fill="#6A7282"/>
<path d="M399.493 2275.24L448.648 2239.36C449.73 2241.73 450.713 2244.18 451.56 2246.65L409.107 2284.43C405.621 2281.67 402.403 2278.6 399.493 2275.24Z" fill="#6A7282"/>
<path d="M387.825 2256.33L442.639 2228.24C444.43 2231.06 446.06 2233.98 447.522 2236.98L397.92 2273.2C394.038 2267.9 390.658 2262.25 387.825 2256.33Z" fill="#6A7282"/>
<path d="M381.285 2239.44L435.972 2219.1C437.842 2221.34 439.592 2223.67 441.215 2226.09L386.811 2253.94C384.625 2249.25 382.778 2244.4 381.285 2239.44Z" fill="#6A7282"/>
<path d="M427.863 2210.58C430.09 2212.61 432.199 2214.76 434.181 2217.03L380.576 2236.94C379.168 2231.71 378.25 2226.36 377.834 2220.97L427.863 2210.58Z" fill="#6A7282"/>
<path d="M425.456 2208.46L377.697 2218.35C377.3 2205.71 380.596 2194.72 389.023 2188.4C410.25 2172.46 442.787 2208.98 446.873 2214.42C463.385 2236.42 464.559 2250.3 468.194 2262.5C455.758 2283.72 436.742 2280.24 435.126 2281.45C433.51 2282.66 433.159 2289.18 429.753 2291.74C427.331 2292.94 424.72 2293.72 422.034 2294.04C418.303 2291.4 414.597 2288.74 411.14 2286.05L452.469 2249.31C454.059 2254.42 455.193 2259.65 455.856 2264.96C455.855 2265.14 455.892 2265.33 455.967 2265.5C456.042 2265.66 456.152 2265.82 456.289 2265.94C456.427 2266.06 456.59 2266.16 456.766 2266.21C456.942 2266.27 457.129 2266.29 457.312 2266.26C457.496 2266.24 457.673 2266.18 457.832 2266.09C457.991 2265.99 458.128 2265.87 458.233 2265.71C458.339 2265.56 458.411 2265.39 458.445 2265.21C458.479 2265.03 458.473 2264.84 458.429 2264.66C457.686 2258.81 456.389 2253.04 454.556 2247.44C456.334 2245.87 458.652 2244.56 457.383 2243.18C456.114 2241.8 454.915 2243.67 453.642 2244.82C452.783 2242.43 451.831 2240.08 450.779 2237.8C452.669 2236.38 455.012 2235.36 453.911 2233.89C452.81 2232.42 451.089 2234.38 449.629 2235.43C448.218 2232.56 446.652 2229.77 444.938 2227.06C446.399 2226.32 448.189 2225.75 447.418 2224.31C446.646 2222.87 444.999 2224.14 443.514 2224.91C441.959 2222.58 440.305 2220.32 438.477 2218.2L441.969 2216.89C442.289 2216.78 442.55 2216.54 442.694 2216.23C442.837 2215.92 442.853 2215.57 442.736 2215.25C442.62 2214.93 442.382 2214.67 442.073 2214.53C441.765 2214.38 441.412 2214.37 441.092 2214.48L436.71 2216.1C434.882 2213.98 432.911 2211.92 430.877 2209.99C432.643 2209.59 435.179 2209.56 434.849 2207.82C434.767 2207.49 434.565 2207.21 434.282 2207.03C434 2206.84 433.658 2206.77 433.325 2206.83L428.564 2207.84C424.091 2203.83 419.239 2200.26 414.077 2197.18C413.93 2197.07 413.761 2196.99 413.582 2196.95C413.402 2196.91 413.215 2196.9 413.034 2196.94C412.852 2196.97 412.68 2197.05 412.53 2197.15C412.379 2197.26 412.252 2197.4 412.158 2197.55C412.064 2197.71 412.005 2197.89 411.985 2198.07C411.965 2198.26 411.984 2198.44 412.04 2198.62C412.097 2198.8 412.191 2198.96 412.315 2199.09C412.439 2199.23 412.591 2199.34 412.76 2199.41C417.258 2202.04 421.508 2205.07 425.456 2208.46Z" fill="#6A7282"/>
<path d="M818.597 2677.01C821.33 2678.67 824.192 2680.1 827.156 2681.3L821.36 2690.52C816.191 2683.97 814.719 2680.22 818.597 2677.01Z" fill="#6A7282"/>
<path d="M831.671 2683.07C834.171 2684.01 836.672 2684.96 839.218 2686.03L830.742 2701.66C828.787 2699.21 826.724 2696.87 824.704 2694.48L831.671 2683.07Z" fill="#6A7282"/>
<path d="M832.974 2745.38L858.673 2700.11C880.53 2725.89 859.859 2750.6 832.974 2745.38Z" fill="#6A7282"/>
<path d="M828.76 2715.38C831.719 2716.12 834.005 2716.13 834.803 2715.3C836.963 2713.06 836.179 2709.72 833.85 2706L843.562 2688.11C847.814 2690.33 851.721 2693.16 855.16 2696.51L828.074 2744.19C823.867 2742.82 819.948 2740.69 816.513 2737.91L828.76 2715.38Z" fill="#6A7282"/>
<path d="M814.412 2710.6C817.753 2711.84 821.049 2713.08 824.034 2714.06L812.722 2734.72C809.396 2731.81 806.561 2729.29 804.081 2727.02L814.412 2710.6Z" fill="#6A7282"/>
<path d="M792.743 2705.75C794.686 2703.73 801.913 2705.96 809.833 2708.9L800.507 2723.74C795.88 2719.27 792.415 2715.93 788.637 2712.28C789.278 2709.72 790.716 2707.43 792.743 2705.75Z" fill="#6A7282"/>
<path d="M734.842 2680.2L777.7 2636.99C779.144 2639.16 780.502 2641.42 781.729 2643.73L745.788 2687.75C741.911 2685.58 738.246 2683.05 734.842 2680.2Z" fill="#6A7282"/>
<path d="M720.329 2663.37L770.008 2626.97C772.222 2629.46 774.293 2632.09 776.211 2634.82L732.965 2678.43C728.294 2673.81 724.064 2668.77 720.329 2663.37Z" fill="#6A7282"/>
<path d="M711.198 2647.73L761.978 2619C764.179 2620.91 766.276 2622.93 768.26 2625.06L718.949 2661.18C716.048 2656.89 713.458 2652.39 711.198 2647.73Z" fill="#6A7282"/>
<path d="M752.623 2611.86C755.142 2613.51 757.566 2615.3 759.882 2617.23L710.102 2645.37C707.885 2640.43 706.133 2635.3 704.868 2630.03L752.623 2611.86Z" fill="#6A7282"/>
<path d="M749.912 2610.15L704.318 2627.47C701.926 2615.05 703.443 2603.68 710.762 2596.11C729.201 2577.01 767.105 2607.92 772.001 2612.65C791.786 2631.75 795.142 2645.28 800.661 2656.75C791.74 2679.67 772.412 2679.24 771.008 2680.69C769.605 2682.15 770.289 2688.64 767.331 2691.7C765.13 2693.27 762.674 2694.45 760.073 2695.19C755.971 2693.17 751.891 2691.14 748.052 2689.03L783.048 2646.22C785.426 2651 787.374 2655.99 788.868 2661.13C788.896 2661.31 788.962 2661.48 789.062 2661.64C789.163 2661.8 789.295 2661.93 789.451 2662.03C789.607 2662.13 789.782 2662.19 789.965 2662.22C790.148 2662.25 790.334 2662.24 790.513 2662.19C790.691 2662.14 790.856 2662.05 790.998 2661.93C791.139 2661.81 791.254 2661.66 791.335 2661.5C791.415 2661.33 791.459 2661.15 791.463 2660.96C791.468 2660.78 791.433 2660.59 791.361 2660.42C789.702 2654.77 787.509 2649.28 784.812 2644.03C786.319 2642.2 788.4 2640.54 786.929 2639.38C785.458 2638.22 784.57 2640.25 783.495 2641.59C782.269 2639.37 780.956 2637.2 779.557 2635.11C781.198 2633.41 783.35 2632.03 782.031 2630.76C780.712 2629.49 779.322 2631.69 778.047 2632.96C776.2 2630.35 774.211 2627.84 772.092 2625.44C773.416 2624.47 775.093 2623.63 774.104 2622.32C773.114 2621.02 771.69 2622.54 770.344 2623.53C768.44 2621.48 766.45 2619.51 764.308 2617.7L767.551 2615.87C767.849 2615.7 768.068 2615.42 768.161 2615.1C768.254 2614.77 768.214 2614.42 768.048 2614.12C767.883 2613.82 767.606 2613.61 767.279 2613.51C766.952 2613.42 766.601 2613.46 766.303 2613.62L762.233 2615.92C760.091 2614.11 757.819 2612.39 755.506 2610.8C757.187 2610.13 759.685 2609.7 759.084 2608.04C758.952 2607.73 758.707 2607.48 758.399 2607.34C758.091 2607.2 757.742 2607.19 757.423 2607.29L752.882 2609.04C747.83 2605.79 742.475 2603.03 736.891 2600.82C736.728 2600.73 736.549 2600.68 736.365 2600.66C736.18 2600.65 735.995 2600.68 735.822 2600.74C735.648 2600.8 735.49 2600.9 735.358 2601.03C735.226 2601.16 735.123 2601.32 735.055 2601.49C734.988 2601.66 734.958 2601.84 734.967 2602.03C734.976 2602.21 735.024 2602.39 735.108 2602.56C735.192 2602.72 735.31 2602.87 735.454 2602.98C735.598 2603.1 735.765 2603.18 735.944 2603.23C740.8 2605.11 745.476 2607.42 749.912 2610.15Z" fill="#6A7282"/>
<path d="M247.156 1829.23C248.771 1831.99 250.607 1834.62 252.646 1837.08L243.163 1842.44C241.728 1834.22 242.217 1830.21 247.156 1829.23Z" fill="#6A7282"/>
<path d="M255.778 1840.78C257.528 1842.8 259.279 1844.82 261.007 1846.98L246.124 1856.69C245.569 1853.61 244.865 1850.57 244.221 1847.51L255.778 1840.78Z" fill="#6A7282"/>
<path d="M227.305 1896.22L271.431 1868.61C278.408 1901.68 248.474 1913.6 227.305 1896.22Z" fill="#6A7282"/>
<path d="M237.855 1867.83C240.106 1869.88 242.116 1870.97 243.212 1870.63C246.174 1869.69 247.077 1866.37 246.795 1861.99L263.841 1850.87C266.526 1854.85 268.62 1859.19 270.055 1863.77L223.559 1892.84C220.507 1889.64 218.072 1885.91 216.374 1881.82L237.855 1867.83Z" fill="#6A7282"/>
<path d="M227.506 1856.8C229.856 1859.48 232.167 1862.13 234.326 1864.42L214.553 1877.22C213.01 1873.08 211.715 1869.51 210.61 1866.34L227.506 1856.8Z" fill="#6A7282"/>
<path d="M210.749 1842.23C213.415 1841.38 218.714 1846.77 224.285 1853.13L209.025 1861.75C207.078 1855.62 205.62 1851.03 204.03 1846.02C205.81 1844.08 208.163 1842.75 210.749 1842.23Z" fill="#6A7282"/>
<path d="M171.95 1792.23L230.196 1774.58C230.434 1777.18 230.554 1779.82 230.536 1782.43L177.993 1804.07C175.612 1800.32 173.588 1796.36 171.95 1792.23Z" fill="#6A7282"/>
<path d="M167.179 1770.53L228.193 1762.11C228.954 1765.36 229.53 1768.65 229.919 1771.97L171.14 1789.78C169.225 1783.5 167.898 1777.05 167.179 1770.53Z" fill="#6A7282"/>
<path d="M166.583 1752.42L224.917 1751.28C225.946 1754.01 226.828 1756.79 227.56 1759.61L167.01 1767.94C166.497 1762.78 166.355 1757.6 166.583 1752.42Z" fill="#6A7282"/>
<path d="M220.077 1740.56C221.51 1743.21 222.79 1745.94 223.912 1748.73L166.738 1749.83C167.136 1744.43 168.035 1739.08 169.424 1733.85L220.077 1740.56Z" fill="#6A7282"/>
<path d="M218.505 1737.76L170.158 1731.33C173.958 1719.27 180.696 1709.99 190.738 1706.8C216.036 1698.76 234.694 1743.97 236.754 1750.46C245.077 1776.68 241.601 1790.17 241.007 1802.88C222.26 1818.81 205.461 1809.24 203.535 1809.85C201.61 1810.47 199.125 1816.5 195.067 1817.79C192.383 1818.13 189.662 1818 187.022 1817.41C184.372 1813.69 181.752 1809.96 179.377 1806.27L230.515 1785.24C230.332 1790.59 229.674 1795.9 228.548 1801.13C228.486 1801.3 228.461 1801.49 228.476 1801.67C228.49 1801.86 228.544 1802.04 228.633 1802.2C228.722 1802.36 228.845 1802.5 228.993 1802.61C229.141 1802.73 229.311 1802.8 229.491 1802.84C229.672 1802.89 229.859 1802.89 230.04 1802.85C230.221 1802.81 230.393 1802.74 230.543 1802.63C230.692 1802.52 230.817 1802.38 230.909 1802.22C231.001 1802.06 231.058 1801.88 231.076 1801.7C232.306 1795.93 232.986 1790.06 233.106 1784.16C235.301 1783.27 237.923 1782.79 237.18 1781.07C236.438 1779.35 234.689 1780.72 233.107 1781.39C233.084 1778.85 232.963 1776.32 232.724 1773.82C234.975 1773.1 237.523 1772.91 236.969 1771.16C236.414 1769.42 234.144 1770.69 232.417 1771.21C232.034 1768.03 231.478 1764.87 230.753 1761.76C232.378 1761.53 234.255 1761.59 234.003 1759.97C233.751 1758.36 231.776 1759.02 230.121 1759.25C229.423 1756.54 228.606 1753.86 227.581 1751.25L231.308 1751.18C231.648 1751.17 231.973 1751.03 232.21 1750.79C232.448 1750.55 232.579 1750.22 232.575 1749.88C232.57 1749.54 232.431 1749.21 232.188 1748.98C231.944 1748.74 231.616 1748.61 231.276 1748.61L226.606 1748.69C225.581 1746.08 224.4 1743.49 223.118 1740.99C224.914 1741.21 227.321 1742.01 227.581 1740.26C227.613 1739.93 227.515 1739.59 227.31 1739.32C227.104 1739.06 226.804 1738.88 226.472 1738.82L221.645 1738.2C218.747 1732.94 215.345 1727.97 211.487 1723.36C211.386 1723.21 211.253 1723.08 211.097 1722.98C210.941 1722.88 210.766 1722.81 210.583 1722.79C210.401 1722.76 210.214 1722.77 210.037 1722.82C209.859 1722.87 209.694 1722.96 209.553 1723.08C209.412 1723.2 209.298 1723.35 209.218 1723.51C209.138 1723.68 209.095 1723.86 209.09 1724.05C209.086 1724.23 209.121 1724.41 209.193 1724.58C209.264 1724.76 209.372 1724.91 209.507 1725.03C212.887 1728.99 215.899 1733.26 218.505 1737.76Z" fill="#6A7282"/>
<path d="M501.105 2173.79C505.271 2169.83 509.592 2173.44 514.231 2178.03L504.4 2182.79C503.561 2179.7 502.459 2176.69 501.105 2173.79Z" fill="#6A7282"/>
<path d="M517.824 2181.61C519.969 2183.88 522.216 2186.39 524.397 2188.55L507.935 2195.25C507.122 2192.62 506.439 2190.01 505.8 2187.4L517.824 2181.61Z" fill="#6A7282"/>
<path d="M519.836 2216.06L567.662 2195.52C569.728 2222.66 543.08 2240.84 519.836 2216.06Z" fill="#6A7282"/>
<path d="M509.448 2199.86L528.296 2192.18C531.715 2194.88 534.878 2196.13 537.437 2194.15C538.445 2193.38 538.576 2191.16 538.168 2188.13L562.047 2178.38C564.43 2182.1 566.114 2186.23 567.015 2190.56L516.612 2212.19C513.624 2208.46 511.209 2204.3 509.448 2199.86Z" fill="#6A7282"/>
<path d="M535.022 2173.33L552.548 2164.9C554.599 2167.56 556.719 2170.71 559.219 2174.36L537.46 2183.3C536.777 2180.18 535.909 2176.76 535.022 2173.33Z" fill="#6A7282"/>
<path d="M532.615 2151.23C534.52 2149.39 536.963 2148.21 539.587 2147.86C542.815 2152.04 545.74 2155.83 549.69 2160.94L533.887 2168.55C531.84 2160.35 530.401 2152.94 532.615 2151.23Z" fill="#6A7282"/>
<path d="M465.942 2128.69L513.622 2090.87C516.084 2094.56 518.191 2098.48 519.913 2102.58L472.199 2133.44C469.964 2131.87 467.942 2130.36 465.942 2128.69Z" fill="#6A7282"/>
<path d="M498.463 2074.53C503.417 2078.84 507.959 2083.61 512.032 2088.76L463.909 2126.92C461.406 2124.71 459.03 2122.36 456.793 2119.89L498.463 2074.53Z" fill="#6A7282"/>
<path d="M449.796 2111.08L483.961 2063.78C488.368 2066.52 492.574 2069.57 496.545 2072.91L455.132 2117.99C453.231 2115.78 451.45 2113.47 449.796 2111.08Z" fill="#6A7282"/>
<path d="M467.093 2055.56C472.216 2057.37 477.159 2059.65 481.858 2062.38L448.37 2108.72C446.697 2106.25 445.163 2103.68 443.776 2101.04L467.093 2055.56Z" fill="#6A7282"/>
<path d="M474.521 2135.02L520.935 2104.97C522.607 2109.02 524.183 2113.3 525.735 2117.6C524.725 2120.11 523.287 2122.43 521.484 2124.45C518.089 2127.07 512.011 2125.4 510.092 2126.88C508.172 2128.37 506.813 2147.36 483.041 2153.69C472.255 2146.94 459.183 2142.11 442.377 2120.34C438.218 2114.95 411.689 2073.86 432.701 2057.64C441.017 2051.23 452.507 2050.96 464.588 2054.7L442.369 2098.2C440.155 2093.49 438.361 2088.59 437.007 2083.57C436.984 2083.38 436.921 2083.2 436.823 2083.04C436.724 2082.88 436.592 2082.75 436.435 2082.64C436.278 2082.54 436.101 2082.47 435.914 2082.44C435.728 2082.41 435.538 2082.42 435.357 2082.47C435.176 2082.52 435.008 2082.61 434.864 2082.73C434.721 2082.86 434.606 2083.01 434.526 2083.18C434.447 2083.35 434.406 2083.54 434.406 2083.72C434.405 2083.91 434.445 2084.1 434.524 2084.27C436.115 2090.01 438.262 2095.59 440.933 2100.92L438.693 2105.24C438.592 2105.54 438.602 2105.86 438.721 2106.15C438.84 2106.44 439.061 2106.68 439.343 2106.82C439.624 2106.96 439.947 2107 440.252 2106.92C440.557 2106.84 440.824 2106.66 441.003 2106.4L442.389 2103.72C443.729 2106.22 445.168 2108.64 446.748 2110.99L444.003 2114.76C443.844 2115.04 443.795 2115.37 443.864 2115.69C443.933 2116 444.116 2116.28 444.378 2116.47C444.64 2116.65 444.962 2116.74 445.282 2116.7C445.602 2116.67 445.898 2116.51 446.113 2116.27L448.223 2113.31C449.932 2115.53 451.641 2117.74 453.35 2119.95C452.242 2121.16 450.574 2122.41 451.777 2123.56C452.981 2124.71 453.965 2123.09 455.074 2121.88C457.223 2124.25 459.5 2126.51 461.894 2128.63L459.433 2130.53C459.219 2130.76 459.092 2131.05 459.077 2131.36C459.061 2131.67 459.157 2131.98 459.347 2132.23C459.537 2132.47 459.809 2132.64 460.114 2132.71C460.419 2132.77 460.737 2132.72 461.009 2132.57L463.839 2130.39C465.776 2132.03 467.774 2133.56 469.846 2135.02C468.493 2136.06 466.383 2136.79 467.285 2138.21C468.188 2139.64 470.14 2137.89 472.124 2136.6C477.029 2139.87 482.244 2142.66 487.694 2144.92C487.855 2145.01 488.034 2145.06 488.219 2145.08C488.403 2145.09 488.589 2145.07 488.763 2145.01C488.938 2144.95 489.097 2144.85 489.231 2144.72C489.365 2144.59 489.471 2144.44 489.54 2144.27C489.61 2144.1 489.642 2143.91 489.635 2143.73C489.628 2143.54 489.581 2143.36 489.499 2143.2C489.416 2143.03 489.3 2142.88 489.156 2142.77C489.013 2142.65 488.847 2142.56 488.668 2142.52C483.737 2140.45 479.002 2137.94 474.521 2135.02Z" fill="#6A7282"/>
<path d="M815.368 2557.79C818.517 2552.98 823.55 2555.51 829.115 2558.92L820.634 2565.8C819.111 2562.99 817.349 2560.31 815.368 2557.79Z" fill="#6A7282"/>
<path d="M833.433 2561.59C836.041 2563.31 838.802 2565.23 841.42 2566.84L826.927 2577.13C825.534 2574.75 824.271 2572.36 823.052 2569.97L833.433 2561.59Z" fill="#6A7282"/>
<path d="M843.274 2594.66L885.131 2563.72C893.353 2589.67 871.57 2613.46 843.274 2594.66Z" fill="#6A7282"/>
<path d="M829.453 2581.26L846.045 2569.48C849.991 2571.32 853.356 2571.82 855.395 2569.31C856.199 2568.32 855.818 2566.13 854.729 2563.28L875.744 2548.32C878.916 2551.4 881.499 2555.04 883.367 2559.04L839.249 2591.63C835.487 2588.68 832.185 2585.19 829.453 2581.26Z" fill="#6A7282"/>
<path d="M848.279 2549.58L863.414 2537.37C866.018 2539.49 868.803 2542.08 872.071 2545.05L852.935 2558.74C851.555 2555.85 849.929 2552.73 848.279 2549.58Z" fill="#6A7282"/>
<path d="M840.882 2528.63C842.315 2526.4 844.422 2524.69 846.896 2523.74C850.995 2527.08 854.709 2530.1 859.725 2534.17L846.081 2545.19C842.213 2537.68 839.117 2530.8 840.882 2528.63Z" fill="#6A7282"/>
<path d="M770.819 2521.93L808.581 2474.21C811.824 2477.24 814.772 2480.58 817.385 2484.17L777.997 2525.13C775.461 2524.11 773.149 2523.11 770.819 2521.93Z" fill="#6A7282"/>
<path d="M790.088 2461.78C795.896 2464.84 801.407 2468.43 806.55 2472.52L768.435 2520.68C765.494 2519.1 762.644 2517.36 759.899 2515.46L790.088 2461.78Z" fill="#6A7282"/>
<path d="M751.072 2508.48L773.51 2454.63C778.427 2456.28 783.219 2458.29 787.85 2460.64L757.848 2513.99C755.493 2512.28 753.231 2510.44 751.072 2508.48Z" fill="#6A7282"/>
<path d="M755.208 2450.48C760.61 2451.07 765.944 2452.16 771.143 2453.74L749.145 2506.52C746.951 2504.49 744.871 2502.35 742.915 2500.09L755.208 2450.48Z" fill="#6A7282"/>
<path d="M780.619 2526.14L818.927 2486.26C821.481 2489.82 823.994 2493.63 826.488 2497.46C826.081 2500.14 825.211 2502.72 823.918 2505.1C821.213 2508.43 814.914 2508.2 813.385 2510.08C811.855 2511.96 814.877 2530.76 793.185 2542.36C781.14 2538.26 767.31 2536.55 745.968 2519.2C740.687 2514.9 705.462 2480.98 722.206 2460.38C728.832 2452.23 739.956 2449.34 752.575 2450.22L740.896 2497.65C737.663 2493.57 734.797 2489.22 732.329 2484.63C732.264 2484.46 732.162 2484.3 732.029 2484.16C731.896 2484.03 731.736 2483.93 731.56 2483.86C731.383 2483.79 731.194 2483.77 731.007 2483.78C730.819 2483.8 730.636 2483.85 730.471 2483.94C730.307 2484.03 730.163 2484.16 730.052 2484.31C729.94 2484.46 729.863 2484.64 729.825 2484.82C729.787 2485 729.789 2485.2 729.832 2485.38C729.875 2485.56 729.956 2485.73 730.072 2485.88C732.935 2491.11 736.3 2496.05 740.12 2500.62L738.927 2505.34C738.897 2505.65 738.981 2505.97 739.164 2506.22C739.347 2506.48 739.616 2506.66 739.923 2506.74C740.229 2506.81 740.551 2506.77 740.83 2506.62C741.11 2506.48 741.327 2506.24 741.442 2505.94L742.178 2503.02C744.055 2505.14 746.009 2507.17 748.086 2509.1L746.276 2513.4C746.185 2513.71 746.212 2514.04 746.352 2514.33C746.491 2514.62 746.733 2514.85 747.031 2514.97C747.329 2515.09 747.661 2515.1 747.965 2514.99C748.269 2514.89 748.522 2514.67 748.676 2514.39L750.052 2511.02C752.222 2512.78 754.392 2514.55 756.563 2516.31C755.76 2517.74 754.423 2519.34 755.857 2520.19C757.292 2521.03 757.879 2519.23 758.682 2517.8C761.317 2519.61 764.049 2521.29 766.865 2522.81L764.905 2525.22C764.748 2525.49 764.692 2525.8 764.748 2526.11C764.803 2526.42 764.967 2526.69 765.209 2526.89C765.45 2527.09 765.754 2527.19 766.065 2527.18C766.377 2527.17 766.675 2527.05 766.906 2526.85L769.161 2524.07C771.423 2525.23 773.716 2526.25 776.068 2527.2C774.989 2528.53 773.101 2529.72 774.306 2530.9C775.51 2532.08 777.012 2529.93 778.647 2528.22C784.171 2530.29 789.885 2531.81 795.707 2532.76C795.885 2532.81 796.072 2532.82 796.255 2532.79C796.438 2532.77 796.613 2532.7 796.769 2532.6C796.925 2532.5 797.058 2532.37 797.159 2532.22C797.26 2532.06 797.327 2531.89 797.356 2531.7C797.384 2531.52 797.374 2531.33 797.324 2531.15C797.275 2530.98 797.189 2530.81 797.07 2530.67C796.952 2530.53 796.805 2530.41 796.639 2530.33C796.472 2530.25 796.291 2530.2 796.106 2530.2C790.832 2529.31 785.649 2527.95 780.619 2526.14Z" fill="#6A7282"/>
<path d="M653.075 2373.82C656.946 2369.57 661.515 2372.86 666.471 2377.1L657.008 2382.56C655.949 2379.54 654.633 2376.61 653.075 2373.82Z" fill="#6A7282"/>
<path d="M670.313 2380.42C672.615 2382.53 675.037 2384.87 677.368 2386.87L661.43 2394.74C660.43 2392.17 659.561 2389.61 658.736 2387.06L670.313 2380.42Z" fill="#6A7282"/>
<path d="M674.796 2414.64L721.022 2390.71C725.034 2417.64 699.761 2437.68 674.796 2414.64Z" fill="#6A7282"/>
<path d="M663.27 2399.22L681.517 2390.21C685.122 2392.66 688.366 2393.68 690.776 2391.52C691.726 2390.67 691.697 2388.45 691.073 2385.46L714.19 2374.02C716.834 2377.56 718.81 2381.56 720.02 2385.81L671.302 2411.01C668.053 2407.5 665.346 2403.53 663.27 2399.22Z" fill="#6A7282"/>
<path d="M686.871 2370.92L703.747 2361.26C705.983 2363.76 708.324 2366.75 711.08 2370.21L690.02 2380.69C689.114 2377.63 688.003 2374.29 686.871 2370.92Z" fill="#6A7282"/>
<path d="M682.883 2349.06C684.65 2347.09 687.001 2345.73 689.594 2345.19C693.114 2349.13 696.303 2352.7 700.611 2357.52L685.395 2366.24C682.765 2358.21 680.797 2350.92 682.883 2349.06Z" fill="#6A7282"/>
<path d="M614.761 2331.36L659.599 2290.21C662.321 2293.72 664.704 2297.48 666.716 2301.44L621.344 2335.65C619.001 2334.24 616.876 2332.89 614.761 2331.36Z" fill="#6A7282"/>
<path d="M643.306 2275.01C648.557 2278.95 653.429 2283.38 657.862 2288.22L612.606 2329.75C609.951 2327.72 607.413 2325.55 605.003 2323.24L643.306 2275.01Z" fill="#6A7282"/>
<path d="M597.391 2314.96L628.068 2265.33C632.661 2267.74 637.075 2270.49 641.276 2273.53L603.21 2321.47C601.156 2319.41 599.213 2317.23 597.391 2314.96Z" fill="#6A7282"/>
<path d="M610.653 2258.34C615.893 2259.78 620.987 2261.7 625.871 2264.08L595.8 2312.71C593.953 2310.36 592.239 2307.92 590.665 2305.38L610.653 2258.34Z" fill="#6A7282"/>
<path d="M623.773 2337.07L667.907 2303.75C669.866 2307.67 671.746 2311.83 673.602 2316C672.776 2318.58 671.508 2321 669.855 2323.15C666.657 2326 660.475 2324.78 658.667 2326.39C656.859 2328.01 656.868 2347.05 633.613 2355.07C622.37 2349.11 608.985 2345.24 590.657 2324.73C586.121 2319.65 556.708 2280.58 576.5 2262.89C584.333 2255.89 595.774 2254.8 608.094 2257.67L589.058 2302.65C586.511 2298.11 584.37 2293.36 582.658 2288.44C582.622 2288.26 582.547 2288.08 582.437 2287.93C582.327 2287.78 582.185 2287.65 582.021 2287.56C581.857 2287.46 581.675 2287.41 581.487 2287.39C581.3 2287.38 581.111 2287.4 580.934 2287.46C580.756 2287.53 580.595 2287.63 580.461 2287.76C580.327 2287.89 580.223 2288.05 580.156 2288.23C580.089 2288.41 580.062 2288.59 580.075 2288.78C580.088 2288.97 580.141 2289.15 580.232 2289.32C582.232 2294.93 584.774 2300.34 587.821 2305.46L585.897 2309.93C585.818 2310.24 585.851 2310.56 585.991 2310.84C586.131 2311.12 586.368 2311.35 586.659 2311.47C586.95 2311.59 587.275 2311.6 587.573 2311.5C587.872 2311.4 588.125 2311.2 588.285 2310.92L589.475 2308.15C590.991 2310.55 592.6 2312.86 594.346 2315.09L591.878 2319.05C591.74 2319.34 591.714 2319.67 591.806 2319.98C591.898 2320.29 592.1 2320.55 592.375 2320.72C592.65 2320.89 592.977 2320.95 593.294 2320.89C593.61 2320.84 593.894 2320.66 594.091 2320.41L595.983 2317.3C597.846 2319.39 599.71 2321.47 601.574 2323.56C600.555 2324.84 598.982 2326.21 600.265 2327.27C601.548 2328.33 602.413 2326.64 603.432 2325.36C605.746 2327.57 608.179 2329.65 610.719 2331.6L608.402 2333.67C608.204 2333.91 608.099 2334.21 608.106 2334.53C608.112 2334.84 608.23 2335.14 608.438 2335.37C608.645 2335.6 608.929 2335.75 609.237 2335.79C609.546 2335.83 609.859 2335.76 610.121 2335.59L612.786 2333.21C614.837 2334.71 616.939 2336.09 619.11 2337.4C617.835 2338.54 615.783 2339.41 616.786 2340.77C617.788 2342.12 619.611 2340.24 621.496 2338.81C626.623 2341.72 632.025 2344.13 637.623 2345.99C637.791 2346.07 637.973 2346.11 638.158 2346.11C638.343 2346.11 638.527 2346.08 638.697 2346C638.866 2345.93 639.019 2345.82 639.143 2345.68C639.267 2345.55 639.361 2345.38 639.418 2345.21C639.475 2345.03 639.494 2344.85 639.474 2344.66C639.454 2344.48 639.394 2344.3 639.3 2344.14C639.206 2343.98 639.079 2343.84 638.928 2343.74C638.776 2343.63 638.604 2343.56 638.422 2343.52C633.355 2341.81 628.452 2339.65 623.773 2337.07Z" fill="#6A7282"/>
<path d="M380.978 1947.92C385.649 1944.57 389.432 1948.74 393.397 1953.92L383.005 1957.29C382.598 1954.11 381.92 1950.98 380.978 1947.92Z" fill="#6A7282"/>
<path d="M396.462 1957.97C398.275 1960.51 400.157 1963.3 402.02 1965.75L384.793 1970.12C384.349 1967.4 384.032 1964.72 383.758 1962.05L396.462 1957.97Z" fill="#6A7282"/>
<path d="M393.722 1992.37L443.917 1978.59C442.234 2005.76 413.342 2020.1 393.722 1992.37Z" fill="#6A7282"/>
<path d="M385.659 1974.89L405.383 1969.87C408.399 1973.02 411.36 1974.69 414.166 1973.09C415.272 1972.45 415.707 1970.27 415.717 1967.22L440.711 1960.84C442.56 1964.86 443.66 1969.18 443.957 1973.59L391.06 1988.09C388.613 1983.98 386.793 1979.53 385.659 1974.89Z" fill="#6A7282"/>
<path d="M414.637 1952.12L433.154 1946.19C434.82 1949.1 436.487 1952.51 438.462 1956.47L415.681 1962.34C415.433 1959.15 415.043 1955.65 414.637 1952.12Z" fill="#6A7282"/>
<path d="M415.288 1929.91C417.427 1928.35 420.009 1927.51 422.658 1927.52C425.281 1932.11 427.657 1936.26 430.866 1941.87L414.168 1947.23C413.267 1938.83 412.86 1931.3 415.288 1929.91Z" fill="#6A7282"/>
<path d="M352.344 1898.42L404.769 1867.5C406.7 1871.5 408.248 1875.68 409.392 1879.97L357.89 1903.98C355.892 1902.12 354.095 1900.35 352.344 1898.42Z" fill="#6A7282"/>
<path d="M391.999 1849.24C396.313 1854.19 400.158 1859.53 403.485 1865.19L350.574 1896.38C348.398 1893.85 346.368 1891.2 344.492 1888.44L391.999 1849.24Z" fill="#6A7282"/>
<path d="M338.772 1878.75L379.111 1836.6C383.101 1839.92 386.847 1843.52 390.321 1847.37L343.107 1886.33C341.528 1883.89 340.081 1881.35 338.772 1878.75Z" fill="#6A7282"/>
<path d="M363.533 1826.14C368.359 1828.64 372.941 1831.58 377.222 1834.92L337.684 1876.22C336.366 1873.54 335.199 1870.79 334.188 1867.98L363.533 1826.14Z" fill="#6A7282"/>
<path d="M359.972 1905.87L410.075 1882.48C411.175 1886.72 412.148 1891.17 413.094 1895.65C411.749 1898 410.006 1900.1 407.942 1901.85C404.219 1903.98 398.428 1901.49 396.324 1902.69C394.219 1903.9 390.263 1922.52 365.846 1925.53C356.09 1917.36 343.806 1910.78 330.151 1886.9C326.772 1881 306.14 1836.66 329.181 1823.48C338.3 1818.26 349.719 1819.57 361.17 1824.95L333.185 1864.98C331.639 1860.01 330.534 1854.91 329.884 1849.75C329.887 1849.56 329.849 1849.38 329.773 1849.2C329.698 1849.03 329.586 1848.88 329.445 1848.75C329.304 1848.63 329.137 1848.53 328.957 1848.48C328.777 1848.42 328.587 1848.41 328.4 1848.43C328.214 1848.46 328.035 1848.53 327.876 1848.63C327.717 1848.73 327.582 1848.86 327.481 1849.02C327.379 1849.18 327.312 1849.36 327.286 1849.54C327.259 1849.73 327.274 1849.92 327.328 1850.1C328.115 1856.01 329.475 1861.83 331.389 1867.47L328.576 1871.44C328.435 1871.72 328.401 1872.05 328.479 1872.35C328.557 1872.66 328.743 1872.92 329.002 1873.1C329.261 1873.28 329.577 1873.36 329.889 1873.33C330.202 1873.29 330.492 1873.14 330.705 1872.91L332.447 1870.45C333.431 1873.11 334.522 1875.7 335.765 1878.25L332.528 1881.61C332.332 1881.86 332.238 1882.18 332.263 1882.5C332.288 1882.82 332.432 1883.12 332.665 1883.35C332.899 1883.57 333.206 1883.7 333.528 1883.71C333.85 1883.71 334.164 1883.6 334.409 1883.4L336.907 1880.75C338.295 1883.18 339.684 1885.61 341.072 1888.03C339.808 1889.08 337.985 1890.09 339.019 1891.39C340.052 1892.7 341.251 1891.23 342.515 1890.18C344.318 1892.83 346.264 1895.37 348.343 1897.8L345.645 1899.35C345.401 1899.54 345.235 1899.82 345.177 1900.12C345.119 1900.43 345.171 1900.74 345.326 1901.02C345.481 1901.29 345.727 1901.49 346.02 1901.6C346.313 1901.7 346.634 1901.7 346.925 1901.59L350.028 1899.81C351.721 1901.71 353.491 1903.49 355.342 1905.22C353.858 1906.07 351.669 1906.5 352.367 1908.03C353.065 1909.57 355.239 1908.11 357.382 1907.1C361.789 1911.02 366.572 1914.5 371.661 1917.48C371.808 1917.59 371.978 1917.67 372.158 1917.71C372.339 1917.75 372.526 1917.75 372.707 1917.72C372.889 1917.68 373.06 1917.61 373.21 1917.5C373.36 1917.39 373.486 1917.25 373.578 1917.09C373.671 1916.93 373.728 1916.75 373.747 1916.57C373.765 1916.38 373.744 1916.2 373.685 1916.02C373.626 1915.85 373.53 1915.69 373.405 1915.55C373.279 1915.41 373.126 1915.31 372.955 1915.24C368.355 1912.51 364.009 1909.37 359.972 1905.87Z" fill="#6A7282"/>
<path d="M273.716 1714.83C278.619 1711.82 282.088 1716.26 285.664 1721.72L275.055 1724.32C274.881 1721.12 274.433 1717.95 273.716 1714.83Z" fill="#6A7282"/>
<path d="M288.427 1725.98C290.049 1728.65 291.723 1731.57 293.403 1734.14L275.903 1737.25C275.658 1734.5 275.538 1731.8 275.459 1729.12L288.427 1725.98Z" fill="#6A7282"/>
<path d="M283.185 1760.09L334.251 1750.01C330.591 1776.98 300.73 1789.18 283.185 1760.09Z" fill="#6A7282"/>
<path d="M276.418 1742.06L296.456 1738.5C299.234 1741.86 302.065 1743.74 304.981 1742.35C306.13 1741.8 306.723 1739.65 306.956 1736.61L332.348 1732.07C333.899 1736.21 334.681 1740.6 334.656 1745.02L280.842 1755.62C278.702 1751.35 277.211 1746.78 276.418 1742.06Z" fill="#6A7282"/>
<path d="M306.979 1721.47L325.88 1716.9C327.33 1719.93 328.743 1723.46 330.424 1727.55L307.276 1731.74C307.261 1728.54 307.127 1725.02 306.979 1721.47Z" fill="#6A7282"/>
<path d="M309.249 1699.37C311.497 1697.97 314.133 1697.32 316.774 1697.52C319.055 1702.29 321.122 1706.6 323.913 1712.43L306.869 1716.56C306.583 1708.12 306.726 1700.57 309.249 1699.37Z" fill="#6A7282"/>
<path d="M248.77 1663.37L303.311 1636.36C304.945 1640.49 306.184 1644.77 307.012 1649.13L253.895 1669.32C252.039 1667.31 250.376 1665.42 248.77 1663.37Z" fill="#6A7282"/>
<path d="M291.906 1617.22C295.848 1622.47 299.293 1628.07 302.198 1633.96L247.153 1661.21C245.168 1658.53 243.336 1655.74 241.666 1652.85L291.906 1617.22Z" fill="#6A7282"/>
<path d="M236.668 1642.76L279.975 1603.67C283.712 1607.27 287.186 1611.13 290.369 1615.23L240.439 1650.64C239.043 1648.09 237.784 1645.46 236.668 1642.76Z" fill="#6A7282"/>
<path d="M265.202 1592.1C269.832 1594.94 274.188 1598.21 278.213 1601.86L235.767 1640.16C234.649 1637.4 233.686 1634.57 232.882 1631.69L265.202 1592.1Z" fill="#6A7282"/>
<path d="M255.834 1671.35L307.51 1651.68C308.298 1655.99 308.943 1660.51 309.561 1665.03C308.048 1667.28 306.156 1669.25 303.97 1670.85C300.101 1672.7 294.507 1669.79 292.32 1670.84C290.134 1671.89 284.829 1690.17 260.258 1691.39C251.124 1682.53 239.353 1675.08 227.476 1650.27C224.537 1644.13 207.194 1598.4 231.134 1586.94C240.61 1582.4 251.902 1584.54 262.931 1590.74L232.101 1628.62C230.922 1623.55 230.192 1618.39 229.919 1613.19C229.936 1613 229.912 1612.81 229.849 1612.64C229.786 1612.46 229.686 1612.3 229.554 1612.16C229.423 1612.03 229.264 1611.92 229.088 1611.86C228.912 1611.79 228.724 1611.76 228.536 1611.77C228.348 1611.78 228.165 1611.84 227.999 1611.92C227.833 1612.01 227.689 1612.14 227.576 1612.29C227.463 1612.44 227.383 1612.61 227.343 1612.8C227.304 1612.98 227.304 1613.17 227.345 1613.36C227.699 1619.3 228.631 1625.21 230.128 1630.97L227.033 1634.73C226.872 1635 226.814 1635.32 226.87 1635.63C226.925 1635.94 227.091 1636.22 227.337 1636.42C227.582 1636.61 227.891 1636.72 228.206 1636.7C228.52 1636.69 228.82 1636.57 229.049 1636.35L230.966 1634.02C231.753 1636.74 232.653 1639.41 233.706 1642.05L230.232 1645.16C230.019 1645.4 229.901 1645.71 229.903 1646.03C229.905 1646.35 230.026 1646.66 230.243 1646.9C230.46 1647.14 230.757 1647.29 231.077 1647.32C231.398 1647.35 231.719 1647.27 231.979 1647.08L234.662 1644.62C235.87 1647.14 237.078 1649.67 238.286 1652.19C236.949 1653.14 235.057 1654.01 235.993 1655.39C236.928 1656.77 238.231 1655.39 239.568 1654.44C241.173 1657.2 242.928 1659.88 244.824 1662.46L242.021 1663.81C241.764 1663.98 241.578 1664.24 241.498 1664.54C241.417 1664.85 241.447 1665.16 241.581 1665.45C241.716 1665.73 241.946 1665.95 242.231 1666.08C242.516 1666.2 242.836 1666.22 243.135 1666.13L246.358 1664.59C247.909 1666.6 249.544 1668.51 251.264 1670.37C249.722 1671.11 247.507 1671.38 248.091 1672.96C248.676 1674.54 250.95 1673.24 253.161 1672.39C257.271 1676.62 261.787 1680.44 266.645 1683.79C266.784 1683.91 266.947 1684 267.124 1684.05C267.301 1684.11 267.488 1684.12 267.671 1684.1C267.855 1684.08 268.031 1684.02 268.189 1683.92C268.347 1683.82 268.482 1683.69 268.586 1683.54C268.69 1683.39 268.76 1683.21 268.792 1683.03C268.823 1682.85 268.816 1682.66 268.77 1682.48C268.724 1682.3 268.64 1682.14 268.525 1681.99C268.409 1681.85 268.264 1681.73 268.099 1681.64C263.71 1678.59 259.605 1675.15 255.834 1671.35Z" fill="#6A7282"/>
<path d="M348.981 2057.24C350.84 2059.84 352.906 2062.29 355.161 2064.55L346.214 2070.78C344.076 2062.81 344.176 2058.72 348.981 2057.24Z" fill="#6A7282"/>
<path d="M358.627 2067.98C360.553 2069.84 362.491 2071.72 364.409 2073.71L350.468 2084.74C349.635 2081.71 348.659 2078.75 347.68 2075.62L358.627 2067.98Z" fill="#6A7282"/>
<path d="M335.299 2125.78L376.625 2094.33C386.687 2126.58 357.933 2141.11 335.299 2125.78Z" fill="#6A7282"/>
<path d="M343.243 2096.58C345.659 2098.39 347.771 2099.32 348.831 2098.88C351.696 2097.67 352.282 2094.26 351.617 2089.95L367.584 2077.33C370.615 2081.04 373.089 2085.16 374.93 2089.58L331.275 2122.79C327.905 2119.9 325.093 2116.42 322.977 2112.52L343.243 2096.58Z" fill="#6A7282"/>
<path d="M331.924 2086.5C334.447 2088.81 337.038 2091.36 339.407 2093.47L320.876 2108.01C318.976 2104.05 317.363 2100.62 315.963 2097.53L331.924 2086.5Z" fill="#6A7282"/>
<path d="M313.915 2073.51C316.493 2072.43 322.26 2077.32 328.384 2083.14L313.98 2093.14C311.485 2087.21 309.617 2082.77 307.568 2077.9C309.182 2075.82 311.398 2074.29 313.915 2073.51Z" fill="#6A7282"/>
<path d="M270.742 2027.24L327.148 2004.38C327.632 2006.98 327.978 2009.56 328.21 2012.2L277.822 2038.46C275.114 2034.95 272.743 2031.19 270.742 2027.24Z" fill="#6A7282"/>
<path d="M264.022 2006.06L323.985 1992.06C325.04 1995.24 325.916 1998.47 326.61 2001.74L269.761 2024.99C267.263 2018.87 265.342 2012.53 264.022 2006.06Z" fill="#6A7282"/>
<path d="M261.787 1988.08L319.789 1981.68C321.057 1984.3 322.183 1986.97 323.164 1989.71L263.619 2003.5C262.641 1998.41 262.029 1993.26 261.787 1988.08Z" fill="#6A7282"/>
<path d="M313.985 1971.41C315.65 1973.92 317.172 1976.53 318.545 1979.21L261.718 1985.51C261.621 1980.09 262.027 1974.67 262.932 1969.32L313.985 1971.41Z" fill="#6A7282"/>
<path d="M312.166 1968.77L263.434 1966.75C266.136 1954.42 272.005 1944.57 281.717 1940.48C306.182 1930.19 328.85 1973.49 331.502 1979.79C342.157 2005.12 339.919 2018.87 340.479 2031.58C323.255 2049.15 305.657 2041.14 303.795 2041.93C301.933 2042.71 300.018 2048.98 296.093 2050.63C293.451 2051.21 290.73 2051.32 288.047 2050.98C285.071 2047.51 282.123 2044.03 279.424 2040.58L328.432 2014.97C328.715 2020.28 328.53 2025.61 327.878 2030.88C327.857 2031.05 327.87 2031.22 327.916 2031.38C327.962 2031.55 328.039 2031.7 328.144 2031.83C328.248 2031.96 328.378 2032.08 328.525 2032.16C328.672 2032.24 328.835 2032.29 329.003 2032.31C329.17 2032.33 329.341 2032.32 329.503 2032.28C329.666 2032.23 329.818 2032.15 329.951 2032.05C330.084 2031.94 330.195 2031.81 330.278 2031.67C330.361 2031.52 330.414 2031.36 330.434 2031.19C331.14 2025.34 331.289 2019.44 330.878 2013.57C332.971 2012.45 335.49 2011.63 334.655 2010.13C333.82 2008.62 332.142 2010 330.615 2010.78C330.362 2008.26 330.024 2005.77 329.546 2003.27C331.724 2002.36 334.257 2001.97 333.533 2000.25C332.81 1998.53 330.678 2000.03 329.016 2000.73C328.341 1997.59 327.497 1994.49 326.491 1991.44C328.089 1991.07 329.975 1990.99 329.577 1989.4C329.18 1987.82 327.26 1988.62 325.634 1989C324.692 1986.37 323.636 1983.78 322.379 1981.27L326.096 1980.89C326.41 1980.82 326.689 1980.64 326.877 1980.37C327.066 1980.11 327.151 1979.79 327.117 1979.47C327.083 1979.15 326.931 1978.85 326.692 1978.64C326.452 1978.42 326.141 1978.3 325.819 1978.3L321.187 1978.84C319.919 1976.3 318.519 1973.86 317.004 1971.46C318.824 1971.54 321.281 1972.09 321.395 1970.35C321.395 1970.01 321.267 1969.68 321.036 1969.43C320.805 1969.18 320.488 1969.02 320.147 1968.99L315.283 1968.81C311.953 1963.88 308.154 1959.28 303.939 1955.07C303.829 1954.92 303.687 1954.79 303.523 1954.7C303.358 1954.61 303.176 1954.55 302.988 1954.54C302.801 1954.52 302.612 1954.55 302.435 1954.61C302.258 1954.68 302.097 1954.78 301.963 1954.91C301.83 1955.04 301.726 1955.2 301.66 1955.38C301.594 1955.56 301.567 1955.75 301.58 1955.93C301.594 1956.12 301.648 1956.3 301.739 1956.47C301.83 1956.63 301.956 1956.78 302.107 1956.89C305.814 1960.54 309.181 1964.52 312.166 1968.77Z" fill="#6A7282"/>
<path d="M650.054 2490.52C652.593 2492.46 655.286 2494.19 658.105 2495.7L651.375 2504.27C646.996 2497.28 645.894 2493.34 650.054 2490.52Z" fill="#6A7282"/>
<path d="M662.424 2497.96C664.809 2499.17 667.213 2500.4 669.63 2501.75L659.53 2516.37C657.848 2513.73 656.047 2511.18 654.195 2508.48L662.424 2497.96Z" fill="#6A7282"/>
<path d="M657.049 2560.06L687.351 2517.88C706.418 2545.77 683.18 2568.08 657.049 2560.06Z" fill="#6A7282"/>
<path d="M656.09 2529.81C658.932 2530.84 661.224 2531.11 662.107 2530.37C664.493 2528.38 664.053 2524.94 662.156 2521.02L673.726 2504.28C677.71 2506.93 681.285 2510.15 684.339 2513.84L652.324 2558.37C648.257 2556.6 644.549 2554.1 641.383 2550.99L656.09 2529.81Z" fill="#6A7282"/>
<path d="M642.316 2523.49C645.406 2524.96 648.63 2526.64 651.512 2527.96L638.053 2547.29C635.078 2544.07 632.529 2541.25 630.287 2538.71L642.316 2523.49Z" fill="#6A7282"/>
<path d="M621.292 2516.34C623.439 2514.55 630.386 2517.54 637.945 2521.31L627.105 2535.09C622.982 2530.15 619.895 2526.46 616.509 2522.4C617.443 2519.94 619.113 2517.82 621.292 2516.34Z" fill="#6A7282"/>
<path d="M566.459 2484.75L613.696 2446.37C614.92 2448.71 616.008 2451.08 617.001 2453.53L576.514 2493.4C572.897 2490.84 569.53 2487.94 566.459 2484.75Z" fill="#6A7282"/>
<path d="M553.83 2466.46L607.062 2435.51C609.001 2438.24 610.786 2441.08 612.409 2444.01L564.862 2482.88C560.681 2477.76 556.988 2472.27 553.83 2466.46Z" fill="#6A7282"/>
<path d="M546.427 2449.93L600.011 2426.83C601.988 2428.95 603.85 2431.18 605.588 2433.51L552.694 2464.13C550.269 2459.55 548.174 2454.81 546.427 2449.93Z" fill="#6A7282"/>
<path d="M591.454 2418.71C593.781 2420.62 595.998 2422.66 598.096 2424.82L545.61 2447.5C543.928 2442.34 542.729 2437.04 542.028 2431.66L591.454 2418.71Z" fill="#6A7282"/>
<path d="M588.941 2416.71L541.755 2429.05C540.726 2416.47 543.452 2405.33 551.54 2398.58C571.917 2381.57 606.275 2416.33 610.656 2421.58C628.262 2442.68 630.151 2456.48 634.41 2468.47C623.086 2490.31 603.915 2487.81 602.364 2489.11C600.813 2490.4 600.818 2496.96 597.549 2499.69C595.192 2501.01 592.625 2501.92 589.959 2502.38C586.097 2499.93 582.259 2497.47 578.668 2494.96L618.025 2456.12C619.851 2461.11 621.233 2466.26 622.156 2471.5C622.186 2471.66 622.248 2471.82 622.34 2471.96C622.431 2472.11 622.549 2472.23 622.688 2472.33C622.827 2472.42 622.983 2472.49 623.149 2472.53C623.314 2472.56 623.485 2472.57 623.651 2472.54C623.817 2472.51 623.976 2472.44 624.119 2472.35C624.261 2472.26 624.384 2472.14 624.48 2472C624.577 2471.86 624.645 2471.71 624.681 2471.54C624.717 2471.38 624.72 2471.21 624.69 2471.04C623.653 2465.24 622.067 2459.56 619.954 2454.06C621.628 2452.38 623.795 2450.86 622.557 2449.66C621.318 2448.47 620.118 2450.28 618.885 2451.47C617.904 2449.14 616.852 2446.86 615.664 2444.61C617.478 2443.09 619.785 2441.98 618.59 2440.55C617.395 2439.12 615.797 2441.18 614.413 2442.33C612.847 2439.53 611.133 2436.81 609.277 2434.19C610.697 2433.37 612.476 2432.74 611.631 2431.34C610.786 2429.94 609.187 2431.27 607.744 2432.11C606.07 2429.86 604.302 2427.7 602.366 2425.67L605.807 2424.21C606.088 2424.06 606.301 2423.8 606.405 2423.5C606.509 2423.19 606.496 2422.86 606.369 2422.56C606.243 2422.27 606.011 2422.03 605.719 2421.89C605.427 2421.76 605.095 2421.73 604.787 2421.83L600.514 2423.69C598.559 2421.64 596.504 2419.71 594.354 2417.86C596.116 2417.4 598.627 2417.21 598.228 2415.52C598.128 2415.19 597.909 2414.92 597.614 2414.74C597.319 2414.57 596.97 2414.51 596.635 2414.58L591.933 2415.84C587.303 2412.09 582.323 2408.81 577.062 2406.02C576.912 2405.91 576.738 2405.83 576.554 2405.79C576.37 2405.75 576.18 2405.75 575.996 2405.79C575.812 2405.83 575.639 2405.91 575.489 2406.02C575.338 2406.14 575.214 2406.28 575.125 2406.45C575.036 2406.61 574.984 2406.8 574.973 2406.98C574.961 2407.17 574.99 2407.36 575.058 2407.54C575.127 2407.71 575.232 2407.87 575.367 2408C575.502 2408.13 575.664 2408.23 575.842 2408.3C580.455 2410.7 584.839 2413.52 588.941 2416.71Z" fill="#6A7282"/>
<path d="M173.177 1587.53C174.941 1590.2 176.919 1592.72 179.091 1595.06L169.927 1600.96C168.075 1592.92 168.322 1588.84 173.177 1587.53Z" fill="#6A7282"/>
<path d="M182.432 1598.61C184.291 1600.53 186.16 1602.49 188.005 1604.54L173.678 1615.06C172.954 1612.01 172.084 1609.02 171.218 1605.86L182.432 1598.61Z" fill="#6A7282"/>
<path d="M157.049 1655.54L199.475 1625.59C208.375 1658.18 179.12 1671.67 157.049 1655.54Z" fill="#6A7282"/>
<path d="M166.034 1626.64C168.384 1628.54 170.461 1629.55 171.536 1629.14C174.442 1628.04 175.15 1624.64 174.639 1620.32L191.048 1608.28C193.944 1612.09 196.27 1616.3 197.951 1620.78L153.134 1652.4C149.871 1649.4 147.185 1645.82 145.209 1641.85L166.034 1626.64Z" fill="#6A7282"/>
<path d="M155.083 1616.16C157.522 1618.56 160.019 1621.21 162.312 1623.4L143.272 1637.26C141.515 1633.24 140.025 1629.75 138.737 1626.62L155.083 1616.16Z" fill="#6A7282"/>
<path d="M137.55 1602.54C140.166 1601.54 145.754 1606.64 151.665 1612.67L136.913 1622.16C134.632 1616.14 132.924 1611.64 131.051 1606.7C132.738 1604.67 135.008 1603.22 137.55 1602.54Z" fill="#6A7282"/>
<path d="M96.0625 1554.75L153.25 1533.93C153.642 1536.54 153.895 1539.13 154.032 1541.77L102.736 1566.21C100.155 1562.61 97.9209 1558.77 96.0625 1554.75Z" fill="#6A7282"/>
<path d="M90.1057 1533.34L150.531 1521.5C151.472 1524.71 152.232 1527.97 152.808 1531.27L95.163 1552.46C92.8855 1546.26 91.1923 1539.86 90.1057 1533.34Z" fill="#6A7282"/>
<path d="M88.5155 1515.3L146.71 1510.98C147.883 1513.63 148.913 1516.35 149.795 1519.12L89.7943 1530.77C88.9992 1525.65 88.5718 1520.48 88.5155 1515.3Z" fill="#6A7282"/>
<path d="M141.277 1500.51C142.851 1503.08 144.279 1505.73 145.555 1508.46L88.5388 1512.73C88.6353 1507.3 89.2354 1501.9 90.3314 1496.59L141.277 1500.51Z" fill="#6A7282"/>
<path d="M139.553 1497.8L90.9258 1494.04C94.0676 1481.81 100.286 1472.17 110.137 1468.44C134.955 1459.03 156.059 1503.11 158.483 1509.51C168.224 1535.2 165.495 1548.86 165.6 1561.59C147.757 1578.52 130.457 1569.89 128.568 1570.61C126.679 1571.32 124.541 1577.52 120.56 1579.03C117.899 1579.51 115.175 1579.53 112.506 1579.09C109.656 1575.52 106.835 1571.94 104.261 1568.39L154.155 1544.55C154.248 1549.87 153.871 1555.18 153.031 1560.44C153.005 1560.6 153.012 1560.77 153.052 1560.94C153.091 1561.1 153.163 1561.26 153.263 1561.39C153.362 1561.53 153.488 1561.65 153.632 1561.73C153.777 1561.82 153.937 1561.88 154.104 1561.91C154.271 1561.93 154.442 1561.93 154.606 1561.89C154.77 1561.85 154.925 1561.77 155.062 1561.67C155.198 1561.57 155.314 1561.45 155.402 1561.3C155.49 1561.16 155.549 1561 155.575 1560.83C156.49 1555.02 156.849 1549.13 156.649 1543.24C158.781 1542.2 161.328 1541.47 160.548 1539.93C159.767 1538.4 158.04 1539.72 156.486 1540.44C156.324 1537.91 156.075 1535.42 155.687 1532.9C157.896 1532.07 160.441 1531.77 159.78 1530.02C159.119 1528.28 156.934 1529.7 155.249 1530.34C154.686 1527.18 153.954 1524.05 153.057 1520.97C154.668 1520.66 156.556 1520.64 156.215 1519.04C155.875 1517.44 153.928 1518.18 152.288 1518.5C151.442 1515.83 150.479 1513.21 149.313 1510.66L153.041 1510.41C153.358 1510.35 153.642 1510.18 153.84 1509.92C154.038 1509.67 154.135 1509.35 154.112 1509.03C154.089 1508.71 153.948 1508.41 153.717 1508.18C153.485 1507.96 153.178 1507.83 152.856 1507.82L148.209 1508.18C147.032 1505.6 145.72 1503.11 144.293 1500.66C146.108 1500.8 148.544 1501.44 148.72 1499.71C148.732 1499.37 148.616 1499.04 148.394 1498.78C148.173 1498.52 147.861 1498.35 147.522 1498.31L142.668 1497.95C139.516 1492.9 135.884 1488.17 131.823 1483.82C131.718 1483.66 131.58 1483.53 131.42 1483.43C131.259 1483.33 131.079 1483.27 130.892 1483.25C130.705 1483.23 130.515 1483.24 130.336 1483.3C130.157 1483.36 129.992 1483.46 129.854 1483.58C129.716 1483.71 129.606 1483.87 129.534 1484.04C129.462 1484.22 129.428 1484.4 129.435 1484.59C129.442 1484.78 129.489 1484.96 129.574 1485.13C129.659 1485.3 129.78 1485.45 129.927 1485.57C133.501 1489.34 136.723 1493.44 139.553 1497.8Z" fill="#6A7282"/>
</svg>
