<svg width="1249" height="2041" viewBox="0 0 1249 2041" fill="none" xmlns="http://www.w3.org/2000/svg">
<path d="M793.478 1279.79C790.579 1274.83 785.437 1277.06 779.664 1280.16L787.77 1287.49C789.445 1284.76 791.355 1282.19 793.478 1279.79Z" fill="#6A7282"/>
<path d="M775.203 1282.58C772.503 1284.15 769.638 1285.92 766.959 1287.36L780.851 1298.44C782.376 1296.15 783.745 1293.86 785.097 1291.54L775.203 1282.58Z" fill="#6A7282"/>
<path d="M763.52 1315.05L723.542 1281.75C713.825 1307.24 734.212 1332.23 763.52 1315.05Z" fill="#6A7282"/>
<path d="M778.096 1302.43L762.193 1289.73C758.149 1291.35 754.762 1291.66 752.867 1289.04C752.12 1288.01 752.623 1285.84 753.845 1283.07L733.73 1266.94C730.383 1269.83 727.599 1273.32 725.516 1277.22L767.708 1312.25C771.639 1309.51 775.14 1306.2 778.096 1302.43Z" fill="#6A7282"/>
<path d="M760.955 1269.84L746.556 1256.78C743.811 1258.76 740.885 1261.19 737.481 1263.96L755.817 1278.69C757.433 1275.84 759.257 1272.79 760.955 1269.84Z" fill="#6A7282"/>
<path d="M769.643 1249.24C768.328 1246.94 766.311 1245.12 763.888 1244.04C759.633 1247.12 755.73 1249.95 750.518 1253.72L763.522 1265.48C767.855 1258.17 771.283 1251.5 769.643 1249.24Z" fill="#6A7282"/>
<path d="M839.973 1246.49L804.952 1196.72C801.554 1199.56 798.432 1202.72 795.627 1206.15L832.626 1249.28C835.114 1248.47 837.555 1247.55 839.973 1246.49Z" fill="#6A7282"/>
<path d="M824.038 1185.4C818.066 1188.13 812.361 1191.41 806.998 1195.2L842.347 1245.43C845.372 1244.02 848.315 1242.44 851.163 1240.7L824.038 1185.4Z" fill="#6A7282"/>
<path d="M860.419 1234.19L841.067 1179.14C836.066 1180.52 831.169 1182.26 826.413 1184.33L853.368 1239.29C855.808 1237.72 858.161 1236.02 860.419 1234.19Z" fill="#6A7282"/>
<path d="M859.598 1176.01C854.184 1176.34 848.813 1177.17 843.553 1178.49L862.525 1232.44C864.836 1230.49 867.034 1228.41 869.11 1226.21L859.598 1176.01Z" fill="#6A7282"/>
<path d="M829.951 1250.14L793.92 1208.19C791.169 1211.6 788.446 1215.26 785.741 1218.94C786.016 1221.63 786.747 1224.26 787.902 1226.7C790.417 1230.18 796.719 1230.3 798.14 1232.26C799.561 1234.23 795.463 1252.84 816.469 1265.65C828.725 1262.23 842.629 1261.3 864.913 1245.17C870.427 1241.18 907.502 1209.29 891.942 1187.79C885.784 1179.27 874.84 1175.76 862.192 1175.94L871.288 1223.87C874.733 1219.98 877.831 1215.8 880.548 1211.38C880.625 1211.21 880.736 1211.06 880.875 1210.94C881.014 1210.82 881.178 1210.72 881.354 1210.67C881.531 1210.62 881.717 1210.6 881.9 1210.63C882.084 1210.65 882.26 1210.71 882.417 1210.81C882.575 1210.9 882.71 1211.03 882.814 1211.19C882.918 1211.34 882.988 1211.51 883.02 1211.69C883.052 1211.88 883.045 1212.06 883 1212.24C882.954 1212.42 882.871 1212.59 882.756 1212.73C879.583 1217.8 875.929 1222.55 871.846 1226.92L872.746 1231.72C872.759 1232.03 872.657 1232.34 872.46 1232.58C872.263 1232.83 871.984 1233 871.674 1233.05C871.364 1233.11 871.044 1233.05 870.774 1232.89C870.503 1232.73 870.3 1232.47 870.201 1232.18L869.656 1229.19C867.663 1231.21 865.572 1233.15 863.415 1234.94L864.956 1239.35C865.067 1239.67 865.045 1240.02 864.896 1240.33C864.747 1240.63 864.482 1240.87 864.161 1240.98C863.839 1241.09 863.486 1241.07 863.18 1240.92C862.875 1240.77 862.641 1240.5 862.53 1240.18L861.291 1236.67C859.024 1238.31 856.758 1239.95 854.517 1241.57C855.238 1243.04 856.459 1244.73 855.004 1245.47C853.549 1246.22 853.014 1244.42 852.293 1242.95C849.559 1244.61 846.738 1246.13 843.841 1247.49L845.663 1250.01C845.805 1250.29 845.843 1250.61 845.77 1250.91C845.697 1251.21 845.518 1251.48 845.266 1251.66C845.014 1251.84 844.704 1251.93 844.394 1251.9C844.084 1251.88 843.792 1251.74 843.573 1251.52L841.478 1248.63C839.179 1249.64 836.807 1250.55 834.406 1251.36C835.534 1252.66 837.226 1254.04 835.983 1255.13C834.74 1256.23 833.31 1254.04 831.774 1252.23C826.149 1253.98 820.367 1255.17 814.511 1255.79C814.334 1255.84 814.148 1255.85 813.966 1255.82C813.784 1255.79 813.611 1255.73 813.457 1255.63C813.303 1255.52 813.173 1255.39 813.076 1255.23C812.979 1255.08 812.917 1254.9 812.894 1254.72C812.872 1254.54 812.889 1254.35 812.944 1254.18C813 1254 813.093 1253.84 813.217 1253.7C813.341 1253.57 813.493 1253.46 813.663 1253.39C813.832 1253.32 814.015 1253.28 814.199 1253.29C819.533 1252.71 824.804 1251.65 829.951 1250.14Z" fill="#6A7282"/>
<path d="M924.71 1264.7C922.286 1266.78 919.697 1268.67 916.968 1270.33L924.196 1278.48C928.168 1271.25 929.043 1267.25 924.71 1264.7Z" fill="#6A7282"/>
<path d="M912.785 1272.84C910.474 1274.18 908.162 1275.52 905.826 1277L916.744 1291.02C918.272 1288.29 919.925 1285.64 921.62 1282.84L912.785 1272.84Z" fill="#6A7282"/>
<path d="M921.697 1334.52L888.937 1294.08C871.593 1323.08 896.16 1343.9 921.697 1334.52Z" fill="#6A7282"/>
<path d="M920.946 1304.24C918.149 1305.46 915.894 1305.84 914.971 1305.15C912.475 1303.3 912.718 1299.84 914.389 1295.82L901.881 1279.76C898.049 1282.65 894.658 1286.08 891.813 1289.94L926.337 1332.55C930.3 1330.55 933.861 1327.84 936.838 1324.55L920.946 1304.24Z" fill="#6A7282"/>
<path d="M934.318 1297.18C931.225 1298.94 928.176 1300.71 925.392 1302.16L939.933 1320.69C942.737 1317.28 945.122 1314.33 947.197 1311.69L934.318 1297.18Z" fill="#6A7282"/>
<path d="M954.901 1288.84C952.655 1287.17 945.89 1290.55 938.558 1294.75L950.187 1307.87C954.02 1302.7 956.891 1298.83 960.021 1294.61C958.97 1292.19 957.177 1290.17 954.901 1288.84Z" fill="#6A7282"/>
<path d="M1007.84 1254.16L958.49 1218.55C957.42 1220.93 956.45 1223.38 955.618 1225.86L998.277 1263.4C1001.75 1260.63 1004.95 1257.54 1007.84 1254.16Z" fill="#6A7282"/>
<path d="M1019.4 1235.19L964.437 1207.4C962.662 1210.23 961.047 1213.15 959.603 1216.16L1009.4 1252.11C1013.26 1246.79 1016.6 1241.13 1019.4 1235.19Z" fill="#6A7282"/>
<path d="M1025.85 1218.26L971.054 1198.23C969.196 1200.47 967.458 1202.81 965.85 1205.24L1020.41 1232.8C1022.57 1228.09 1024.39 1223.23 1025.85 1218.26Z" fill="#6A7282"/>
<path d="M979.116 1189.66C976.901 1191.7 974.803 1193.86 972.834 1196.14L1026.55 1215.76C1027.93 1210.52 1028.81 1205.17 1029.2 1199.77L979.116 1189.66Z" fill="#6A7282"/>
<path d="M981.511 1187.52L1029.32 1197.15C1029.65 1184.51 1026.3 1173.54 1017.83 1167.26C996.519 1151.44 964.184 1188.14 960.128 1193.6C943.737 1215.69 942.639 1229.58 939.071 1241.8C951.624 1262.95 970.62 1259.36 972.243 1260.57C973.865 1261.77 974.253 1268.29 977.672 1270.83C980.101 1272.02 982.716 1272.78 985.404 1273.08C989.12 1270.42 992.811 1267.74 996.253 1265.03L954.65 1228.63C953.087 1233.74 951.982 1238.98 951.348 1244.29C951.351 1244.47 951.314 1244.66 951.24 1244.83C951.166 1245 951.057 1245.15 950.92 1245.27C950.783 1245.4 950.621 1245.49 950.445 1245.55C950.269 1245.61 950.083 1245.62 949.899 1245.6C949.715 1245.58 949.538 1245.52 949.379 1245.43C949.219 1245.34 949.082 1245.21 948.975 1245.06C948.869 1244.91 948.796 1244.73 948.761 1244.55C948.726 1244.37 948.73 1244.18 948.773 1244C949.485 1238.15 950.75 1232.37 952.552 1226.76C950.766 1225.2 948.441 1223.9 949.702 1222.52C950.963 1221.13 952.172 1222.99 953.452 1224.14C954.298 1221.75 955.237 1219.39 956.276 1217.1C954.379 1215.69 952.03 1214.68 953.123 1213.21C954.216 1211.74 955.947 1213.68 957.414 1214.73C958.809 1211.85 960.359 1209.05 962.058 1206.33C960.593 1205.6 958.8 1205.04 959.563 1203.59C960.327 1202.15 961.981 1203.41 963.47 1204.17C965.012 1201.83 966.654 1199.57 968.471 1197.43L964.971 1196.15C964.812 1196.09 964.666 1196.01 964.541 1195.89C964.417 1195.78 964.315 1195.64 964.243 1195.49C964.098 1195.18 964.08 1194.83 964.195 1194.51C964.309 1194.19 964.546 1193.93 964.854 1193.78C965.162 1193.64 965.515 1193.62 965.835 1193.73L970.225 1195.33C972.042 1193.19 974.002 1191.12 976.025 1189.18C974.257 1188.8 971.721 1188.77 972.042 1187.04C972.121 1186.71 972.322 1186.43 972.604 1186.24C972.885 1186.05 973.227 1185.98 973.56 1186.04L978.326 1187.02C982.768 1182.99 987.595 1179.4 992.736 1176.31C992.88 1176.19 993.048 1176.1 993.23 1176.05C993.411 1176 993.601 1175.99 993.787 1176.02C993.973 1176.05 994.151 1176.12 994.307 1176.22C994.464 1176.33 994.596 1176.46 994.694 1176.62C994.792 1176.78 994.855 1176.96 994.877 1177.15C994.899 1177.34 994.881 1177.53 994.823 1177.71C994.765 1177.89 994.669 1178.05 994.541 1178.19C994.414 1178.33 994.258 1178.44 994.084 1178.51C989.63 1181.13 985.422 1184.15 981.511 1187.52Z" fill="#6A7282"/>
<path d="M1041.3 527.172C1042.4 530.175 1043.25 533.262 1043.84 536.403L1054.02 532.514C1048.65 526.247 1045.22 524.019 1041.3 527.172Z" fill="#6A7282"/>
<path d="M1044.71 541.202C1045.15 543.838 1045.59 546.475 1046.15 549.182L1063.13 543.91C1061.11 541.516 1059.21 539.037 1057.19 536.461L1044.71 541.202Z" fill="#6A7282"/>
<path d="M1105.58 554.615L1056.18 571.006C1077.2 597.465 1105.35 581.819 1105.58 554.615Z" fill="#6A7282"/>
<path d="M1076.98 544.64C1077.13 547.685 1076.69 549.928 1075.72 550.551C1073.11 552.233 1069.96 550.786 1066.78 547.804L1047.35 553.847C1048.7 558.45 1050.71 562.833 1053.32 566.857L1105.37 549.577C1104.9 545.164 1103.62 540.876 1101.59 536.929L1076.98 544.64Z" fill="#6A7282"/>
<path d="M1075.08 529.634C1075.65 533.152 1076.22 536.627 1076.6 539.746L1099.07 532.673C1096.86 528.845 1094.94 525.573 1093.2 522.7L1075.08 529.634Z" fill="#6A7282"/>
<path d="M1074.54 507.434C1072.19 508.948 1072.96 516.47 1074.3 524.811L1090.68 518.555C1087.2 513.146 1084.59 509.095 1081.75 504.679C1079.11 504.809 1076.59 505.774 1074.54 507.434Z" fill="#6A7282"/>
<path d="M1060.76 445.668L1010.03 479.289C1011.88 481.129 1013.83 482.902 1015.86 484.555L1066.03 457.874C1064.66 453.649 1062.9 449.562 1060.76 445.668Z" fill="#6A7282"/>
<path d="M1047.08 428.155L1001.7 469.793C1003.72 472.451 1005.88 474.993 1008.19 477.406L1059.39 443.482C1055.77 438.002 1051.65 432.87 1047.08 428.155Z" fill="#6A7282"/>
<path d="M1033.51 416.153L995.443 460.366C996.887 462.896 998.465 465.347 1000.17 467.709L1045.2 426.375C1041.55 422.693 1037.65 419.277 1033.51 416.153Z" fill="#6A7282"/>
<path d="M990.267 449.799C991.395 452.592 992.681 455.318 994.119 457.965L1031.42 414.619C1027.01 411.483 1022.31 408.764 1017.39 406.498L990.267 449.799Z" fill="#6A7282"/>
<path d="M989.116 446.806L1014.99 405.459C1003.27 400.694 991.823 399.968 982.964 405.671C960.646 420.039 983.577 463.236 987.262 468.959C1002.15 492.086 1014.76 498.012 1024.94 505.658C1049.16 501.373 1052.5 482.33 1054.2 481.237C1055.9 480.143 1062.13 482.079 1065.71 479.774C1067.68 477.921 1069.32 475.742 1070.55 473.334C1069.37 468.919 1068.16 464.52 1066.84 460.343L1018.1 486.436C1022.34 489.701 1026.85 492.583 1031.6 495.048C1031.77 495.111 1031.93 495.211 1032.06 495.339C1032.2 495.468 1032.3 495.624 1032.37 495.796C1032.44 495.968 1032.47 496.153 1032.46 496.338C1032.45 496.522 1032.4 496.703 1032.32 496.868C1032.23 497.033 1032.11 497.178 1031.97 497.294C1031.83 497.41 1031.66 497.494 1031.48 497.54C1031.3 497.586 1031.11 497.594 1030.93 497.562C1030.75 497.531 1030.58 497.461 1030.42 497.357C1025.19 494.627 1020.24 491.407 1015.62 487.741C1013.53 488.863 1011.5 490.58 1010.64 488.911C1009.79 487.242 1011.96 486.768 1013.48 485.974C1011.54 484.339 1009.67 482.628 1007.89 480.85C1005.91 482.128 1004.13 483.971 1003.14 482.429C1002.15 480.887 1004.58 479.952 1006.08 478.95C1003.87 476.628 1001.8 474.189 999.858 471.643C998.65 472.753 997.497 474.235 996.413 473.01C995.329 471.786 997.097 470.685 998.331 469.558C996.686 467.29 995.145 464.955 993.788 462.502L991.355 465.326C991.246 465.454 991.112 465.56 990.963 465.637C990.813 465.714 990.649 465.76 990.481 465.774C990.142 465.802 989.806 465.694 989.546 465.473C989.287 465.253 989.126 464.939 989.098 464.6C989.07 464.261 989.178 463.924 989.398 463.665L992.438 460.119C991.081 457.666 989.837 455.103 988.732 452.524C987.751 454.043 986.833 456.408 985.322 455.496C985.043 455.306 984.847 455.017 984.772 454.688C984.698 454.359 984.75 454.014 984.919 453.722L987.52 449.608C985.313 444.03 983.659 438.249 982.58 432.347C982.517 432.17 982.493 431.981 982.509 431.793C982.526 431.606 982.582 431.424 982.676 431.26C982.769 431.097 982.897 430.955 983.05 430.846C983.204 430.736 983.379 430.661 983.564 430.626C983.749 430.591 983.939 430.596 984.122 430.641C984.305 430.686 984.476 430.77 984.623 430.887C984.77 431.005 984.89 431.153 984.975 431.321C985.06 431.489 985.107 431.674 985.114 431.862C985.995 436.954 987.334 441.956 989.116 446.806Z" fill="#6A7282"/>
<path d="M1106.82 868.891C1101.07 868.704 1100.25 874.277 1099.84 880.787L1110.34 877.802C1108.92 874.938 1107.74 871.956 1106.82 868.891Z" fill="#6A7282"/>
<path d="M1099.54 885.855C1099.45 888.978 1099.44 892.343 1099.25 895.41L1116 889.461C1114.85 886.955 1113.62 884.55 1112.37 882.177L1099.54 885.855Z" fill="#6A7282"/>
<path d="M1120.96 912.915L1071.58 929.393C1088.1 951.034 1120.08 946.876 1120.96 912.915Z" fill="#6A7282"/>
<path d="M1117.93 893.905L1098.75 900.711C1097.99 905.002 1096.46 908.039 1093.24 908.267C1091.97 908.356 1090.39 906.785 1088.69 904.257L1064.37 912.86C1065.07 917.226 1066.56 921.429 1068.77 925.261L1120.79 907.88C1120.53 903.105 1119.57 898.395 1117.93 893.905Z" fill="#6A7282"/>
<path d="M1081.19 891.109L1062.5 896.479C1062.74 899.858 1063.25 903.592 1063.81 907.977L1086 900.178C1084.43 897.391 1082.81 894.266 1081.19 891.109Z" fill="#6A7282"/>
<path d="M1068.29 873.013C1065.64 872.906 1063.03 873.647 1060.83 875.128C1061.21 880.399 1061.54 885.173 1062 891.622L1078.86 886.786C1074.93 879.305 1071.08 872.816 1068.29 873.013Z" fill="#6A7282"/>
<path d="M1103.07 811.825L1042.31 815.305C1042.93 819.703 1043.97 824.032 1045.4 828.235L1101.56 819.534C1102.19 816.997 1102.69 814.407 1103.07 811.825Z" fill="#6A7282"/>
<path d="M1042.77 793.089C1041.94 799.603 1041.71 806.179 1042.1 812.734L1103.41 809.215C1103.81 805.902 1104.03 802.569 1104.05 799.231L1042.77 793.089Z" fill="#6A7282"/>
<path d="M1103.41 787.936L1046.44 775.351C1044.97 780.328 1043.86 785.405 1043.12 790.541L1104.02 796.648C1103.97 793.735 1103.77 790.827 1103.41 787.936Z" fill="#6A7282"/>
<path d="M1053.56 757.961C1050.94 762.723 1048.77 767.715 1047.07 772.876L1102.91 785.229C1102.47 782.249 1101.87 779.296 1101.1 776.383L1053.56 757.961Z" fill="#6A7282"/>
<path d="M1100.88 822.263L1046.23 830.701C1047.68 834.836 1049.35 839.081 1051.05 843.322C1053.47 844.528 1056.09 845.303 1058.78 845.612C1063.06 845.31 1066.49 840.02 1068.91 839.85C1071.32 839.679 1084.97 852.954 1106.94 841.87C1110.5 829.654 1117.04 817.352 1115.11 789.914C1114.63 783.125 1107.1 734.801 1080.63 736.67C1070.15 737.41 1061.39 744.852 1054.86 755.688L1100.37 773.164C1098.89 768.175 1096.97 763.327 1094.64 758.675C1094.54 758.52 1094.46 758.344 1094.43 758.159C1094.4 757.973 1094.4 757.783 1094.45 757.601C1094.5 757.418 1094.59 757.248 1094.71 757.103C1094.83 756.957 1094.97 756.839 1095.14 756.756C1095.31 756.674 1095.5 756.629 1095.69 756.625C1095.88 756.621 1096.06 756.657 1096.23 756.732C1096.41 756.807 1096.56 756.919 1096.69 757.059C1096.81 757.199 1096.91 757.365 1096.96 757.545C1099.64 762.916 1101.77 768.536 1103.35 774.324L1107.9 776.06C1108.17 776.215 1108.38 776.464 1108.48 776.761C1108.59 777.058 1108.58 777.383 1108.47 777.676C1108.35 777.969 1108.13 778.21 1107.85 778.354C1107.57 778.499 1107.25 778.538 1106.95 778.464L1104.13 777.385C1104.79 780.143 1105.33 782.909 1105.71 785.717L1110.27 786.704C1110.57 786.808 1110.83 787.02 1110.99 787.301C1111.15 787.582 1111.19 787.912 1111.12 788.226C1111.05 788.54 1110.87 788.817 1110.61 789.004C1110.34 789.19 1110.02 789.273 1109.7 789.237L1106.06 788.403C1106.26 791.193 1106.45 793.984 1106.65 796.774C1108.28 796.939 1110.36 796.761 1110.22 798.422C1110.09 800.083 1108.28 799.526 1106.64 799.36C1106.62 802.561 1106.42 805.758 1106.04 808.937L1109.14 808.718C1109.45 808.744 1109.74 808.88 1109.96 809.102C1110.18 809.324 1110.31 809.616 1110.34 809.927C1110.36 810.238 1110.27 810.546 1110.08 810.796C1109.9 811.046 1109.63 811.222 1109.33 811.291L1105.76 811.543C1105.41 814.06 1104.93 816.525 1104.35 818.995C1106.06 818.875 1108.12 818.013 1108.39 819.676C1108.66 821.339 1106.05 821.337 1103.7 821.69C1102.22 827.399 1100.18 832.949 1097.61 838.259C1097.55 838.434 1097.46 838.594 1097.33 838.728C1097.2 838.863 1097.05 838.969 1096.88 839.039C1096.71 839.11 1096.52 839.143 1096.34 839.136C1096.15 839.13 1095.97 839.085 1095.8 839.003C1095.64 838.921 1095.49 838.805 1095.37 838.662C1095.26 838.519 1095.17 838.353 1095.12 838.175C1095.07 837.996 1095.06 837.809 1095.09 837.626C1095.12 837.444 1095.19 837.269 1095.29 837.115C1097.59 832.34 1099.46 827.37 1100.88 822.263Z" fill="#6A7282"/>
<path d="M979.079 1097.58C975.331 1093.22 970.669 1096.38 965.594 1100.48L974.899 1106.2C976.043 1103.22 977.441 1100.33 979.079 1097.58Z" fill="#6A7282"/>
<path d="M961.66 1103.69C959.299 1105.74 956.811 1108 954.424 1109.94L970.133 1118.25C971.206 1115.72 972.147 1113.18 973.044 1110.65L961.66 1103.69Z" fill="#6A7282"/>
<path d="M956.207 1137.77L910.68 1112.54C905.904 1139.34 930.597 1160.09 956.207 1137.77Z" fill="#6A7282"/>
<path d="M968.166 1122.68L950.182 1113.16C946.509 1115.5 943.237 1116.43 940.889 1114.21C939.964 1113.33 940.056 1111.11 940.765 1108.14L917.983 1096.04C915.238 1099.51 913.15 1103.45 911.819 1107.67L959.802 1134.24C963.149 1130.82 965.968 1126.93 968.166 1122.68Z" fill="#6A7282"/>
<path d="M945.378 1093.72L928.784 1083.59C926.456 1086.05 924.052 1088.95 921.2 1092.33L941.953 1103.4C942.946 1100.36 944.151 1097.05 945.378 1093.72Z" fill="#6A7282"/>
<path d="M949.986 1071.98C948.275 1069.96 945.964 1068.54 943.388 1067.92C939.757 1071.76 936.467 1075.24 932.025 1079.93L946.986 1089.08C949.844 1081.13 952.018 1073.91 949.986 1071.98Z" fill="#6A7282"/>
<path d="M1018.58 1056.23L974.932 1013.82C972.112 1017.25 969.623 1020.94 967.499 1024.84L1011.88 1060.33C1014.18 1059.08 1016.43 1057.7 1018.58 1056.23Z" fill="#6A7282"/>
<path d="M991.608 999.135C986.247 1002.93 981.251 1007.21 976.682 1011.93L1020.74 1054.72C1023.45 1052.77 1026.05 1050.68 1028.52 1048.44L991.608 999.135Z" fill="#6A7282"/>
<path d="M1036.41 1040.32L1007.16 989.844C1002.5 992.128 998.007 994.743 993.721 997.67L1030.41 1046.67C1032.52 1044.66 1034.53 1042.54 1036.41 1040.32Z" fill="#6A7282"/>
<path d="M1024.79 983.331C1019.51 984.624 1014.36 986.401 1009.41 988.638L1038.07 1038.12C1039.97 1035.79 1041.73 1033.35 1043.36 1030.81L1024.79 983.331Z" fill="#6A7282"/>
<path d="M1009.41 1061.67L966.243 1027.12C964.173 1030.98 962.176 1035.08 960.202 1039.21C960.954 1041.81 962.153 1044.26 963.744 1046.45C966.86 1049.4 973.075 1048.35 974.836 1050.01C976.597 1051.68 976.047 1070.71 999.065 1079.39C1010.47 1073.76 1023.96 1070.26 1042.87 1050.28C1047.54 1045.34 1078.06 1007.12 1058.77 988.874C1051.14 981.655 1039.74 980.234 1027.34 982.755L1045.24 1028.1C1047.92 1023.63 1050.19 1018.94 1052.04 1014.08C1052.08 1013.9 1052.16 1013.72 1052.28 1013.57C1052.39 1013.42 1052.54 1013.3 1052.7 1013.21C1052.87 1013.12 1053.05 1013.07 1053.24 1013.06C1053.43 1013.05 1053.62 1013.08 1053.79 1013.15C1053.97 1013.22 1054.13 1013.33 1054.26 1013.46C1054.39 1013.6 1054.49 1013.76 1054.55 1013.94C1054.61 1014.12 1054.63 1014.31 1054.61 1014.49C1054.6 1014.68 1054.54 1014.86 1054.44 1015.03C1052.29 1020.63 1049.6 1026 1046.4 1031.08L1048.2 1035.6C1048.27 1035.91 1048.23 1036.23 1048.08 1036.51C1047.93 1036.79 1047.69 1037 1047.39 1037.11C1047.1 1037.23 1046.77 1037.23 1046.48 1037.12C1046.18 1037.01 1045.93 1036.8 1045.78 1036.53L1044.67 1033.72C1043.09 1036.07 1041.41 1038.34 1039.61 1040.52L1041.96 1044.55C1042.09 1044.84 1042.11 1045.17 1042.01 1045.48C1041.9 1045.79 1041.69 1046.04 1041.42 1046.2C1041.14 1046.36 1040.81 1046.42 1040.49 1046.35C1040.18 1046.28 1039.9 1046.1 1039.71 1045.84L1037.86 1042.59C1035.94 1044.62 1034.02 1046.66 1032.09 1048.69C1033.07 1050 1034.61 1051.41 1033.3 1052.44C1031.98 1053.46 1031.17 1051.75 1030.18 1050.43C1027.81 1052.58 1025.32 1054.59 1022.72 1056.47L1024.98 1058.6C1025.17 1058.85 1025.27 1059.16 1025.25 1059.47C1025.24 1059.78 1025.11 1060.07 1024.9 1060.3C1024.68 1060.53 1024.39 1060.67 1024.09 1060.7C1023.78 1060.73 1023.46 1060.65 1023.21 1060.48L1020.61 1058.02C1018.52 1059.46 1016.38 1060.78 1014.17 1062.02C1015.41 1063.2 1017.44 1064.13 1016.4 1065.46C1015.36 1066.78 1013.59 1064.86 1011.75 1063.37C1006.54 1066.14 1001.07 1068.39 995.421 1070.09C995.251 1070.16 995.068 1070.2 994.883 1070.19C994.698 1070.19 994.515 1070.15 994.348 1070.07C994.18 1069.99 994.031 1069.88 993.911 1069.74C993.79 1069.6 993.701 1069.43 993.649 1069.26C993.597 1069.08 993.583 1068.89 993.609 1068.71C993.635 1068.52 993.699 1068.35 993.797 1068.19C993.896 1068.04 994.027 1067.9 994.181 1067.8C994.336 1067.7 994.51 1067.63 994.692 1067.6C999.766 1066.07 1004.69 1064.08 1009.41 1061.67Z" fill="#6A7282"/>
<path d="M886.392 411.887C881.44 414.809 883.733 419.955 886.873 425.672L894.144 417.521C891.404 415.869 888.81 413.984 886.392 411.887Z" fill="#6A7282"/>
<path d="M889.339 430.11C890.935 432.795 892.729 435.643 894.213 438.334L905.165 424.336C902.857 422.833 900.53 421.46 898.197 420.131L889.339 430.11Z" fill="#6A7282"/>
<path d="M921.92 441.481L889.064 481.852C914.604 491.274 939.381 470.623 921.92 441.481Z" fill="#6A7282"/>
<path d="M909.179 427.052L896.633 443.076C898.294 447.105 898.629 450.489 896.029 452.409C895.004 453.166 892.831 452.683 890.037 451.463L874.115 471.757C877.045 475.07 880.555 477.82 884.473 479.872L919.079 437.32C916.308 433.424 912.971 429.963 909.179 427.052Z" fill="#6A7282"/>
<path d="M876.657 444.382L863.755 458.93C865.768 461.656 868.201 464.533 871.023 467.936L885.583 449.459C882.766 447.946 879.72 446.176 876.657 444.382Z" fill="#6A7282"/>
<path d="M856.069 436.016C853.778 437.344 851.97 439.369 850.91 441.795C854.049 446.046 856.892 449.896 860.732 455.097L872.373 441.981C865.051 437.767 858.32 434.354 856.069 436.016Z" fill="#6A7282"/>
<path d="M852.647 365.716L803.212 401.214C806.093 404.594 809.287 407.695 812.753 410.473L855.502 373.035C854.675 370.555 853.711 368.099 852.647 365.716Z" fill="#6A7282"/>
<path d="M791.693 382.212C794.482 388.157 797.817 393.83 801.655 399.157L851.54 363.327C850.102 360.316 848.495 357.388 846.726 354.558L791.693 382.212Z" fill="#6A7282"/>
<path d="M840.131 345.365L785.286 365.269C786.714 370.258 788.497 375.139 790.623 379.873L845.319 352.39C843.716 349.958 841.984 347.612 840.131 345.365Z" fill="#6A7282"/>
<path d="M781.981 346.77C782.324 352.192 783.166 357.571 784.496 362.839L838.256 343.349C836.291 341.066 834.199 338.897 831.989 336.849L781.981 346.77Z" fill="#6A7282"/>
<path d="M856.39 375.703L814.774 412.111C818.21 414.828 821.894 417.516 825.604 420.186C828.298 419.904 830.922 419.156 833.36 417.975C836.81 415.427 836.87 409.125 838.82 407.685C840.77 406.245 859.408 410.139 872.011 389.011C868.472 376.788 867.407 362.893 851.069 340.766C847.026 335.29 814.778 298.523 793.425 314.289C784.974 320.529 781.567 331.506 781.864 344.152L829.651 334.52C825.729 331.101 821.512 328.035 817.051 325.357C816.877 325.284 816.722 325.174 816.594 325.035C816.467 324.896 816.372 324.731 816.314 324.552C816.257 324.373 816.239 324.183 816.261 323.996C816.284 323.809 816.347 323.629 816.446 323.469C816.544 323.308 816.677 323.171 816.833 323.067C816.99 322.962 817.168 322.893 817.354 322.864C817.54 322.834 817.73 322.846 817.911 322.897C818.093 322.948 818.261 323.038 818.404 323.16C823.538 326.263 828.356 329.861 832.789 333.903L837.558 332.932C837.872 332.916 838.182 333.015 838.429 333.209C838.677 333.404 838.846 333.682 838.905 333.991C838.964 334.3 838.909 334.621 838.75 334.893C838.592 335.165 838.34 335.371 838.042 335.472L835.085 336.071C837.122 338.045 839.058 340.092 840.888 342.256L845.264 340.648C845.577 340.572 845.907 340.615 846.191 340.767C846.474 340.92 846.691 341.172 846.8 341.476C846.909 341.779 846.902 342.111 846.78 342.41C846.658 342.708 846.431 342.951 846.141 343.091L842.619 344.339C844.281 346.589 845.942 348.84 847.604 351.09C849.07 350.355 850.727 349.093 851.505 350.566C852.284 352.039 850.452 352.541 848.986 353.276C850.678 355.993 852.222 358.799 853.61 361.684L856.111 359.838C856.387 359.693 856.705 359.652 857.009 359.722C857.312 359.792 857.58 359.968 857.765 360.219C857.95 360.47 858.04 360.778 858.017 361.088C857.995 361.399 857.862 361.691 857.643 361.913L854.768 364.036C855.819 366.35 856.734 368.688 857.574 371.081C858.95 370.066 860.225 368.235 861.347 369.493C862.469 370.751 860.258 372.152 858.469 373.705C860.277 379.319 861.529 385.098 862.206 390.958C862.249 391.138 862.252 391.325 862.217 391.507C862.182 391.688 862.108 391.86 862.002 392.011C861.895 392.163 861.757 392.289 861.597 392.383C861.438 392.477 861.26 392.536 861.076 392.556C860.892 392.576 860.706 392.556 860.53 392.499C860.354 392.441 860.193 392.347 860.056 392.222C859.919 392.098 859.811 391.945 859.737 391.775C859.664 391.605 859.627 391.422 859.63 391.237C859.015 385.973 857.93 380.774 856.39 375.703Z" fill="#6A7282"/>
<path d="M689.78 221.994C686.07 226.386 689.932 230.487 694.782 234.849L698.958 224.755C695.825 224.099 692.755 223.176 689.78 221.994Z" fill="#6A7282"/>
<path d="M698.574 238.225C700.966 240.233 703.599 242.329 705.888 244.38L711.609 227.553C708.935 226.895 706.285 226.367 703.644 225.882L698.574 238.225Z" fill="#6A7282"/>
<path d="M733.082 238.211L715.383 287.16C742.601 287.63 759.179 259.961 733.082 238.211Z" fill="#6A7282"/>
<path d="M716.295 228.792L709.737 248.059C712.634 251.314 714.067 254.398 712.245 257.068C711.527 258.121 709.318 258.382 706.277 258.151L697.941 282.563C701.8 284.723 706.021 286.161 710.396 286.806L729.028 235.22C725.127 232.457 720.835 230.29 716.295 228.792Z" fill="#6A7282"/>
<path d="M691.31 255.881L683.93 273.871C686.728 275.78 689.975 277.693 693.761 279.975L701.411 257.729C698.252 257.23 694.794 256.564 691.31 255.881Z" fill="#6A7282"/>
<path d="M669.115 254.775C667.39 256.784 666.351 259.292 666.151 261.933C670.516 264.91 674.47 267.607 679.811 271.25L686.474 255.027C678.172 253.465 670.691 252.464 669.115 254.775Z" fill="#6A7282"/>
<path d="M642.694 189.539L607.736 239.357C611.571 241.598 615.609 243.471 619.797 244.951L647.803 195.507C646.204 193.438 644.484 191.437 642.694 189.539Z" fill="#6A7282"/>
<path d="M590.593 225.219C595.187 229.911 600.207 234.166 605.588 237.93L640.861 187.649C638.51 185.28 636.027 183.047 633.423 180.959L590.593 225.219Z" fill="#6A7282"/>
<path d="M624.165 174.455L578.956 211.338C581.949 215.577 585.243 219.596 588.811 223.364L631.38 179.376C629.064 177.609 626.656 175.966 624.165 174.455Z" fill="#6A7282"/>
<path d="M569.733 194.964C571.846 199.969 574.415 204.77 577.409 209.304L621.73 173.17C619.122 171.664 616.431 170.306 613.67 169.102L569.733 194.964Z" fill="#6A7282"/>
<path d="M649.521 197.732L622.245 245.83C626.385 247.262 630.75 248.584 635.133 249.88C637.583 248.726 639.814 247.154 641.725 245.235C644.142 241.692 642.119 235.722 643.485 233.719C644.851 231.716 663.731 229.244 668.658 205.142C661.285 194.771 655.697 182.005 632.973 166.506C627.35 162.67 584.778 138.599 569.822 160.526C563.903 169.205 564.307 180.692 568.759 192.532L610.694 167.675C605.863 165.741 600.871 164.238 595.776 163.181C595.588 163.169 595.405 163.117 595.239 163.028C595.073 162.939 594.929 162.815 594.815 162.664C594.702 162.514 594.622 162.341 594.582 162.157C594.542 161.973 594.542 161.782 594.582 161.598C594.622 161.414 594.702 161.241 594.816 161.091C594.929 160.941 595.074 160.817 595.24 160.728C595.406 160.639 595.589 160.586 595.777 160.575C595.965 160.563 596.153 160.593 596.329 160.661C602.199 161.896 607.935 163.704 613.453 166.058L617.634 163.567C617.926 163.449 618.251 163.44 618.549 163.542C618.846 163.644 619.097 163.85 619.255 164.123C619.413 164.395 619.467 164.716 619.407 165.025C619.347 165.334 619.177 165.611 618.929 165.805L616.335 167.347C618.909 168.538 621.412 169.831 623.854 171.271L627.454 168.309C627.725 168.134 628.05 168.066 628.369 168.116C628.687 168.167 628.975 168.334 629.178 168.584C629.38 168.834 629.483 169.151 629.467 169.472C629.45 169.794 629.315 170.098 629.088 170.326L626.175 172.666C628.486 174.242 630.797 175.819 633.108 177.395C634.25 176.217 635.397 174.479 636.618 175.613C637.839 176.747 636.276 177.825 635.134 179.002C637.628 181.009 640.011 183.149 642.273 185.414L644.024 182.847C644.237 182.619 644.524 182.476 644.834 182.442C645.143 182.408 645.455 182.485 645.712 182.661C645.969 182.836 646.155 183.098 646.237 183.399C646.318 183.699 646.289 184.019 646.155 184.3L644.141 187.253C645.898 189.09 647.533 190.996 649.115 192.978C650.078 191.566 650.678 189.417 652.153 190.234C653.627 191.052 652.002 193.103 650.825 195.16C654.384 199.863 657.472 204.906 660.044 210.214C660.144 210.37 660.209 210.545 660.236 210.728C660.262 210.912 660.25 211.098 660.199 211.276C660.148 211.454 660.06 211.619 659.94 211.76C659.82 211.902 659.672 212.016 659.505 212.095C659.338 212.175 659.156 212.218 658.971 212.221C658.786 212.225 658.602 212.19 658.432 212.117C658.262 212.044 658.109 211.936 657.983 211.8C657.858 211.664 657.763 211.503 657.705 211.327C655.387 206.561 652.649 202.011 649.521 197.732Z" fill="#6A7282"/>
<path d="M1167.15 789.838C1167.55 793.009 1167.7 796.208 1167.58 799.403L1178.38 797.889C1174.53 790.59 1171.68 787.659 1167.15 789.838Z" fill="#6A7282"/>
<path d="M1167.37 804.275C1167.22 806.944 1167.08 809.642 1167.02 812.406L1184.74 811.018C1183.3 808.235 1182 805.4 1180.6 802.439L1167.37 804.275Z" fill="#6A7282"/>
<path d="M1223.77 830.816L1172.11 835.923C1186.62 866.331 1217.58 857.443 1223.77 830.816Z" fill="#6A7282"/>
<path d="M1198.09 814.793C1197.55 817.767 1196.64 819.886 1195.56 820.279C1192.63 821.342 1189.88 819.235 1187.44 815.624L1167.16 817.221C1167.45 821.998 1168.44 826.708 1170.09 831.2L1224.68 825.885C1225.14 821.486 1224.79 817.04 1223.65 812.767L1198.09 814.793Z" fill="#6A7282"/>
<path d="M1199.56 799.739C1199.28 803.149 1199.11 806.781 1198.8 809.936L1222.28 808.007C1220.98 803.814 1219.83 800.198 1218.76 796.983L1199.56 799.739Z" fill="#6A7282"/>
<path d="M1203.96 778.028C1201.33 778.984 1200.42 786.491 1199.89 794.922L1217.25 792.471C1215.05 786.426 1213.4 781.899 1211.6 776.934C1209 776.504 1206.33 776.886 1203.96 778.028Z" fill="#6A7282"/>
<path d="M1204.14 714.655L1147.24 736.228C1148.64 738.46 1150.15 740.592 1151.77 742.682L1206.59 727.724C1206.19 723.301 1205.37 718.925 1204.14 714.655Z" fill="#6A7282"/>
<path d="M1194.68 694.552L1141.21 725.125C1142.6 728.172 1144.15 731.14 1145.87 734.013L1203.3 712.25C1200.98 706.096 1198.09 700.171 1194.68 694.552Z" fill="#6A7282"/>
<path d="M1184.1 679.847L1137.21 714.576C1138.05 717.353 1139.04 720.083 1140.18 722.754L1193.23 692.398C1190.49 688.002 1187.44 683.807 1184.1 679.847Z" fill="#6A7282"/>
<path d="M1134.48 703.098C1134.97 706.071 1135.62 709.013 1136.44 711.913L1182.41 677.917C1178.79 673.873 1174.81 670.173 1170.51 666.866L1134.48 703.098Z" fill="#6A7282"/>
<path d="M1134.02 699.925L1168.39 665.321C1158.03 658.112 1147.03 654.873 1137.13 658.477C1112.19 667.554 1124.99 714.723 1127.33 721.148C1136.72 746.966 1147.71 755.534 1155.94 765.24C1180.52 766.417 1187.98 748.584 1189.88 747.894C1191.78 747.203 1197.44 750.499 1201.45 749.043C1203.78 747.67 1205.85 745.907 1207.59 743.831C1207.41 739.264 1207.21 734.707 1206.84 730.342L1153.49 744.866C1156.9 748.996 1160.67 752.815 1164.75 756.278C1164.88 756.388 1164.99 756.522 1165.07 756.672C1165.14 756.822 1165.19 756.987 1165.2 757.155C1165.22 757.324 1165.2 757.493 1165.15 757.654C1165.09 757.815 1165.01 757.964 1164.9 758.093C1164.79 758.222 1164.66 758.328 1164.51 758.405C1164.36 758.482 1164.19 758.529 1164.02 758.543C1163.86 758.557 1163.69 758.537 1163.53 758.485C1163.36 758.434 1163.22 758.351 1163.09 758.241C1158.6 754.433 1154.48 750.206 1150.79 745.618C1148.49 746.222 1146.08 747.33 1145.67 745.66C1145.27 743.99 1147.43 743.862 1149.08 743.394C1147.55 741.371 1146.11 739.316 1144.76 737.16C1142.54 737.968 1140.42 739.403 1139.78 737.65C1139.15 735.898 1141.73 735.552 1143.43 734.935C1141.79 732.182 1140.31 729.345 1138.98 726.434C1137.54 727.221 1136.1 728.44 1135.31 727.006C1134.53 725.573 1136.48 724.86 1137.94 724.034C1136.83 721.459 1135.85 718.841 1135.07 716.149L1132.08 718.393C1131.8 718.557 1131.47 718.613 1131.16 718.549C1130.84 718.486 1130.56 718.308 1130.37 718.05C1130.18 717.791 1130.09 717.471 1130.12 717.15C1130.14 716.829 1130.29 716.531 1130.53 716.312L1134.29 713.555C1133.5 710.833 1132.86 708.088 1132.34 705.3C1131.06 706.593 1129.63 708.667 1128.37 707.473C1128.14 707.222 1128.01 706.893 1128 706.551C1128 706.209 1128.13 705.878 1128.36 705.625L1131.8 702.188C1130.87 696.268 1130.52 690.272 1130.74 684.283C1130.72 684.096 1130.74 683.906 1130.8 683.727C1130.86 683.548 1130.95 683.383 1131.08 683.244C1131.21 683.105 1131.36 682.996 1131.54 682.923C1131.71 682.85 1131.9 682.815 1132.08 682.822C1132.27 682.828 1132.46 682.875 1132.63 682.96C1132.79 683.044 1132.94 683.164 1133.06 683.311C1133.18 683.458 1133.26 683.629 1133.31 683.812C1133.35 683.994 1133.36 684.185 1133.32 684.37C1133.08 689.565 1133.32 694.772 1134.02 699.925Z" fill="#6A7282"/>
<path d="M1126.85 1068.32C1125.04 1070.95 1123.02 1073.44 1120.8 1075.74L1129.86 1081.81C1131.86 1073.8 1131.68 1069.72 1126.85 1068.32Z" fill="#6A7282"/>
<path d="M1117.4 1079.24C1115.51 1081.12 1113.6 1083.04 1111.72 1085.07L1125.86 1095.84C1126.64 1092.8 1127.56 1089.82 1128.48 1086.68L1117.4 1079.24Z" fill="#6A7282"/>
<path d="M1141.76 1136.61L1099.84 1105.99C1090.39 1138.33 1119.4 1152.34 1141.76 1136.61Z" fill="#6A7282"/>
<path d="M1133.29 1107.55C1130.91 1109.41 1128.82 1110.38 1127.75 1109.95C1124.86 1108.8 1124.21 1105.39 1124.8 1101.07L1108.61 1088.74C1105.65 1092.5 1103.25 1096.67 1101.49 1101.12L1145.73 1133.54C1149 1130.57 1151.7 1127.02 1153.7 1123.07L1133.29 1107.55Z" fill="#6A7282"/>
<path d="M1144.42 1097.3C1141.94 1099.66 1139.39 1102.25 1137.06 1104.4L1155.85 1118.61C1157.68 1114.62 1159.23 1111.16 1160.57 1108.05L1144.42 1097.3Z" fill="#6A7282"/>
<path d="M1162.17 1084.05C1159.57 1083.01 1153.89 1088 1147.88 1093.93L1162.46 1103.68C1164.84 1097.7 1166.63 1093.23 1168.59 1088.32C1166.94 1086.27 1164.7 1084.78 1162.17 1084.05Z" fill="#6A7282"/>
<path d="M1204.54 1036.92L1147.73 1015.08C1147.3 1017.68 1147 1020.28 1146.81 1022.91L1197.65 1048.29C1200.3 1044.73 1202.61 1040.92 1204.54 1036.92Z" fill="#6A7282"/>
<path d="M1210.88 1015.62L1150.64 1002.79C1149.64 1005.98 1148.82 1009.23 1148.19 1012.52L1205.51 1034.57C1207.89 1028.43 1209.68 1022.09 1210.88 1015.62Z" fill="#6A7282"/>
<path d="M1212.79 997.611L1154.68 992.254C1153.46 994.888 1152.39 997.586 1151.45 1000.33L1211.24 1013.06C1212.12 1007.95 1212.64 1002.79 1212.79 997.611Z" fill="#6A7282"/>
<path d="M1160.3 981.882C1158.68 984.421 1157.21 987.05 1155.88 989.755L1212.81 995.043C1212.81 989.619 1212.31 984.207 1211.31 978.877L1160.3 981.882Z" fill="#6A7282"/>
<path d="M1162.07 979.21L1210.76 976.315C1207.84 964.034 1201.79 954.287 1192.01 950.376C1167.37 940.523 1145.48 984.222 1142.94 990.571C1132.74 1016.08 1135.22 1029.8 1134.89 1042.52C1152.43 1059.77 1169.88 1051.45 1171.76 1052.2C1173.63 1052.95 1175.66 1059.18 1179.61 1060.76C1182.26 1061.29 1184.99 1061.36 1187.66 1060.97C1190.58 1057.45 1193.46 1053.91 1196.1 1050.42L1146.64 1025.69C1146.43 1031.04 1146.69 1036.4 1147.43 1041.71C1147.46 1041.87 1147.45 1042.04 1147.4 1042.21C1147.36 1042.37 1147.29 1042.52 1147.18 1042.66C1147.08 1042.79 1146.95 1042.91 1146.81 1042.99C1146.66 1043.08 1146.5 1043.13 1146.33 1043.16C1146.17 1043.18 1146 1043.17 1145.83 1043.13C1145.67 1043.08 1145.51 1043.01 1145.38 1042.91C1145.25 1042.81 1145.13 1042.68 1145.05 1042.53C1144.96 1042.39 1144.91 1042.23 1144.88 1042.06C1144.07 1036.23 1143.82 1030.33 1144.12 1024.45C1142.01 1023.37 1139.48 1022.59 1140.28 1021.07C1141.09 1019.56 1142.79 1020.91 1144.34 1021.66C1144.54 1019.13 1144.84 1016.63 1145.27 1014.13C1143.08 1013.25 1140.54 1012.91 1141.23 1011.18C1141.92 1009.44 1144.08 1010.91 1145.75 1011.58C1146.37 1008.44 1147.15 1005.33 1148.1 1002.27C1146.51 1001.91 1144.62 1001.85 1144.99 1000.26C1145.36 998.668 1147.29 999.441 1148.93 999.793C1149.82 997.138 1150.83 994.529 1152.04 992.001L1148.32 991.684C1148 991.622 1147.72 991.444 1147.53 991.187C1147.33 990.929 1147.24 990.609 1147.27 990.288C1147.3 989.967 1147.45 989.668 1147.68 989.449C1147.92 989.229 1148.23 989.104 1148.55 989.099L1153.19 989.548C1154.41 986.991 1155.77 984.521 1157.24 982.096C1155.42 982.206 1152.97 982.801 1152.83 981.07C1152.82 980.728 1152.94 980.396 1153.17 980.139C1153.4 979.883 1153.71 979.72 1154.05 979.684L1158.91 979.418C1162.16 974.383 1165.89 969.676 1170.05 965.363C1170.16 965.208 1170.3 965.079 1170.46 964.983C1170.63 964.888 1170.81 964.829 1171 964.81C1171.18 964.792 1171.37 964.814 1171.55 964.875C1171.73 964.937 1171.89 965.036 1172.03 965.166C1172.16 965.296 1172.27 965.454 1172.34 965.629C1172.41 965.805 1172.44 965.993 1172.43 966.181C1172.42 966.369 1172.37 966.552 1172.28 966.719C1172.19 966.886 1172.07 967.031 1171.92 967.146C1168.28 970.86 1164.98 974.898 1162.07 979.21Z" fill="#6A7282"/>
<path d="M887.13 293.602C888.906 296.26 890.464 299.057 891.788 301.967L900.773 295.798C894.075 290.982 890.214 289.631 887.13 293.602Z" fill="#6A7282"/>
<path d="M893.773 306.422C894.826 308.879 895.902 311.357 897.088 313.855L912.327 304.708C909.795 302.862 907.369 300.902 904.789 298.881L893.773 306.422Z" fill="#6A7282"/>
<path d="M956.084 305.022L912.13 332.634C938.677 353.378 962.426 331.612 956.084 305.022Z" fill="#6A7282"/>
<path d="M925.956 302.134C926.801 305.036 926.927 307.341 926.135 308.175C923.996 310.429 920.593 309.77 916.8 307.626L899.353 318.105C901.748 322.249 904.735 326.023 908.218 329.306L954.706 300.199C953.154 296.057 950.857 292.235 947.927 288.922L925.956 302.134Z" fill="#6A7282"/>
<path d="M920.555 288.007C921.824 291.183 923.296 294.509 924.428 297.469L944.578 285.272C941.55 282.097 938.907 279.373 936.514 276.973L920.555 288.007Z" fill="#6A7282"/>
<path d="M914.81 266.611C912.884 268.64 915.421 275.763 918.702 283.548L933.151 273.609C928.485 269.18 924.991 265.863 921.159 262.225C918.642 263 916.425 264.531 914.81 266.611Z" fill="#6A7282"/>
<path d="M886.71 209.809L845.398 254.501C847.654 255.871 849.951 257.108 852.333 258.256L894.724 220.417C892.394 216.636 889.71 213.084 886.71 209.809Z" fill="#6A7282"/>
<path d="M869.27 196.039L835.053 247.251C837.652 249.36 840.368 251.323 843.186 253.129L884.883 208.032C880.061 203.559 874.835 199.544 869.27 196.039Z" fill="#6A7282"/>
<path d="M853.243 187.596L826.764 239.596C828.759 241.704 830.866 243.704 833.075 245.587L867.016 194.756C862.602 192.044 857.999 189.651 853.243 187.596Z" fill="#6A7282"/>
<path d="M819.207 230.537C820.967 232.982 822.863 235.325 824.886 237.556L850.866 186.625C845.828 184.617 840.614 183.082 835.292 182.039L819.207 230.537Z" fill="#6A7282"/>
<path d="M817.38 227.903L832.708 181.601C820.217 179.771 808.926 181.779 801.672 189.421C783.398 208.671 815.895 245.177 820.854 249.884C840.78 268.8 854.438 271.567 866.132 276.583C888.65 266.676 887.379 247.385 888.77 245.92C890.161 244.455 896.701 244.878 899.633 241.79C901.106 239.522 902.179 237.018 902.804 234.387C900.611 230.377 898.397 226.389 896.123 222.645L854.848 259.443C859.742 261.618 864.819 263.355 870.02 264.632C870.184 264.673 870.339 264.745 870.475 264.846C870.611 264.946 870.726 265.072 870.814 265.217C870.901 265.361 870.96 265.522 870.985 265.689C871.01 265.856 871.003 266.027 870.962 266.191C870.922 266.355 870.849 266.51 870.749 266.646C870.649 266.782 870.523 266.897 870.378 266.984C870.233 267.072 870.073 267.13 869.906 267.155C869.738 267.181 869.568 267.173 869.404 267.133C863.686 265.727 858.114 263.782 852.764 261.322C850.98 262.885 849.319 264.951 848.208 263.639C847.097 262.327 848.981 261.244 850.248 260.09C847.976 258.962 845.769 257.766 843.602 256.438C841.976 258.151 840.715 260.382 839.362 259.098C838.01 257.814 840.17 256.351 841.411 255.044C838.722 253.308 836.127 251.431 833.636 249.42C832.704 250.763 831.958 252.498 830.614 251.565C829.271 250.633 830.705 249.123 831.636 247.735C829.5 245.922 827.45 244.019 825.55 241.958L823.878 245.299C823.703 245.569 823.434 245.766 823.123 245.85C822.812 245.934 822.481 245.9 822.194 245.754C821.906 245.609 821.682 245.363 821.566 245.063C821.449 244.762 821.447 244.43 821.561 244.128L823.696 239.984C821.773 237.901 819.98 235.727 818.272 233.463C817.702 235.193 817.349 237.686 815.687 237.18C815.367 237.059 815.103 236.823 814.949 236.518C814.794 236.212 814.76 235.86 814.852 235.531L816.403 230.918C812.929 226.035 809.936 220.827 807.469 215.365C807.365 215.208 807.297 215.03 807.268 214.844C807.24 214.658 807.252 214.468 807.304 214.287C807.356 214.106 807.447 213.938 807.57 213.795C807.693 213.653 807.845 213.538 808.016 213.46C808.188 213.382 808.374 213.341 808.562 213.342C808.75 213.342 808.936 213.384 809.107 213.463C809.278 213.542 809.43 213.657 809.552 213.8C809.674 213.944 809.764 214.112 809.815 214.293C811.918 219.05 814.45 223.605 817.38 227.903Z" fill="#6A7282"/>
<path d="M651.457 110.087C654.011 112.009 656.405 114.136 658.614 116.447L665.061 107.659C657.149 105.322 653.059 105.32 651.457 110.087Z" fill="#6A7282"/>
<path d="M661.957 119.998C663.762 121.97 665.595 123.955 667.538 125.921L678.907 112.26C675.908 111.352 672.972 110.302 669.869 109.245L661.957 119.998Z" fill="#6A7282"/>
<path d="M720.318 98.1205L687.933 138.687C719.837 149.512 735.076 121.13 720.318 98.1205Z" fill="#6A7282"/>
<path d="M690.925 105.333C692.68 107.794 693.559 109.928 693.087 110.977C691.81 113.81 688.38 114.311 684.093 113.538L671.079 129.186C674.708 132.308 678.772 134.885 683.143 136.835L717.426 94.0225C714.596 90.6241 711.166 87.7736 707.307 85.6124L690.925 105.333Z" fill="#6A7282"/>
<path d="M681.165 93.7784C683.411 96.3584 685.898 99.0122 687.943 101.433L702.941 83.2713C699.035 81.2732 695.642 79.5742 692.591 78.0979L681.165 93.7784Z" fill="#6A7282"/>
<path d="M668.684 75.476C667.535 78.0264 672.28 83.9135 677.945 90.1807L688.306 76.0317C682.44 73.3894 678.048 71.4109 673.231 69.241C671.11 70.8023 669.522 72.9795 668.684 75.476Z" fill="#6A7282"/>
<path d="M623.419 31.1229L599.163 86.9403C601.744 87.4897 604.321 87.9002 606.948 88.1973L634.484 38.4932C631.037 35.6926 627.332 33.2248 623.419 31.1229Z" fill="#6A7282"/>
<path d="M602.413 23.8765L587.005 83.5091C590.155 84.6429 593.365 85.5997 596.622 86.3753L621.108 30.0479C615.081 27.4159 608.822 25.3498 602.413 23.8765Z" fill="#6A7282"/>
<path d="M584.498 21.1928L576.654 79.0171C579.234 80.3493 581.882 81.5424 584.589 82.5912L599.862 23.4091C594.8 22.3045 589.666 21.5638 584.498 21.1928Z" fill="#6A7282"/>
<path d="M566.533 72.9584C569 74.6856 571.563 76.2724 574.209 77.7114L581.933 21.0603C576.515 20.8272 571.087 21.098 565.718 21.8692L566.533 72.9584Z" fill="#6A7282"/>
<path d="M563.939 71.0739L563.135 22.3074C550.74 24.7006 540.743 30.3216 536.415 39.9281C525.514 64.1286 568.235 87.8712 574.469 90.6794C599.52 101.963 613.326 100.069 626.02 100.947C644.01 84.1665 636.446 66.3744 637.276 64.5325C638.106 62.6905 644.42 60.9328 646.168 57.0505C646.811 54.4236 646.998 51.7057 646.72 49.0156C643.327 45.9534 639.921 42.9194 636.539 40.135L609.714 88.4888C615.051 88.928 620.417 88.8925 625.749 88.3828C625.917 88.3668 626.087 88.3842 626.248 88.4339C626.41 88.4836 626.56 88.5646 626.691 88.6724C626.821 88.7801 626.929 88.9125 627.008 89.0619C627.087 89.2113 627.136 89.3749 627.152 89.5432C627.168 89.7115 627.151 89.8813 627.101 90.0429C627.051 90.2046 626.97 90.3548 626.862 90.4851C626.755 90.6154 626.622 90.7232 626.473 90.8024C626.323 90.8815 626.16 90.9304 625.991 90.9464C620.13 91.5059 614.228 91.5071 608.367 90.9499C607.198 93.0142 606.312 95.5122 604.83 94.6401C603.348 93.768 604.77 92.1247 605.585 90.6172C603.068 90.3016 600.59 89.9011 598.106 89.3617C597.136 91.5154 596.681 94.0378 594.981 93.2719C593.281 92.506 594.838 90.412 595.578 88.7684C592.467 88.0167 589.398 87.1007 586.383 86.0243C585.946 87.6 585.814 89.4833 584.238 89.0463C582.662 88.6092 583.518 86.7106 583.939 85.0938C581.325 84.0867 578.762 82.9662 576.288 81.6474L575.812 85.353C575.736 85.666 575.546 85.9398 575.281 86.1218C575.015 86.3038 574.691 86.3809 574.372 86.3386C574.052 86.2963 573.76 86.1375 573.551 85.8925C573.341 85.6476 573.23 85.3339 573.238 85.0119L573.886 80.3951C571.384 79.0635 568.974 77.603 566.615 76.0291C566.647 77.8501 567.137 80.3204 565.401 80.3906C565.058 80.3823 564.732 80.2461 564.485 80.0088C564.239 79.7716 564.09 79.4505 564.069 79.1091L564.011 74.2426C559.12 70.7794 554.578 66.8495 550.447 62.5081C550.297 62.3938 550.174 62.2484 550.085 62.082C549.997 61.9156 549.946 61.7321 549.935 61.5441C549.925 61.356 549.955 61.1679 550.024 60.9926C550.093 60.8173 550.199 60.659 550.335 60.5286C550.471 60.3982 550.633 60.2988 550.811 60.2371C550.989 60.1754 551.178 60.153 551.366 60.1713C551.553 60.1896 551.734 60.2483 551.897 60.3433C552.06 60.4384 552.2 60.5675 552.308 60.7218C555.862 64.5184 559.755 67.9835 563.939 71.0739Z" fill="#6A7282"/>
<path d="M1020.69 618.925C1015.58 621.546 1017.51 626.803 1020.29 632.739L1028.06 625.051C1025.43 623.223 1022.97 621.174 1020.69 618.925Z" fill="#6A7282"/>
<path d="M1022.47 637.327C1023.88 640.11 1025.49 643.069 1026.7 645.693L1038.53 632.435C1036.33 630.786 1034.11 629.291 1031.87 627.813L1022.47 637.327Z" fill="#6A7282"/>
<path d="M1054.24 650.789L1018.9 689.046C1043.69 699.975 1069.77 681.002 1054.24 650.789Z" fill="#6A7282"/>
<path d="M1042.45 635.536L1028.89 650.712C1030.28 654.84 1030.4 658.238 1027.68 659.986C1026.6 660.674 1024.47 660.052 1021.78 658.679L1004.55 677.871C1007.26 681.372 1010.58 684.345 1014.36 686.641L1051.67 646.451C1049.16 642.375 1046.05 638.696 1042.45 635.536Z" fill="#6A7282"/>
<path d="M1008.88 650.744L995.048 664.399C996.879 667.249 999.138 670.305 1001.72 673.857L1017.44 656.364C1014.78 654.75 1011.82 652.734 1008.88 650.744Z" fill="#6A7282"/>
<path d="M988.866 641.034C986.495 642.22 984.566 644.133 983.359 646.493C986.199 650.912 988.803 654.965 992.28 660.378L1004.75 648.045C997.799 643.496 991.219 639.522 988.866 641.034Z" fill="#6A7282"/>
<path d="M990.032 570.687L938.396 602.901C941.048 606.451 944.029 609.743 947.299 612.733L992.405 578.176C991.724 575.621 990.938 573.134 990.032 570.687Z" fill="#6A7282"/>
<path d="M928.135 583.191C930.53 589.305 933.49 595.183 936.976 600.747L989.082 568.231C987.841 565.133 986.427 562.107 984.847 559.167L928.135 583.191Z" fill="#6A7282"/>
<path d="M978.862 549.565L922.824 565.841C923.929 570.912 925.392 575.898 927.201 580.761L983.566 556.887C982.13 554.364 980.56 551.92 978.862 549.565Z" fill="#6A7282"/>
<path d="M920.727 547.167C920.755 552.59 921.287 557.999 922.315 563.324L977.227 547.365C975.41 544.95 973.458 542.64 971.379 540.447L920.727 547.167Z" fill="#6A7282"/>
<path d="M993.101 580.869L949.226 614.525C952.478 617.459 955.981 620.381 959.509 623.286C962.21 623.16 964.87 622.575 967.375 621.557C970.984 619.238 971.452 612.953 973.492 611.642C975.531 610.332 993.877 615.427 1007.84 595.188C1005.1 582.762 1004.94 568.827 990.076 545.686C986.396 539.959 956.603 501.176 934.272 515.523C925.434 521.202 921.321 531.934 920.797 544.573L969.159 538.142C965.469 534.487 961.466 531.163 957.197 528.205C957.033 528.119 956.89 528 956.776 527.854C956.663 527.708 956.581 527.54 956.537 527.361C956.493 527.182 956.488 526.995 956.522 526.813C956.555 526.631 956.627 526.459 956.732 526.307C956.837 526.155 956.974 526.028 957.132 525.932C957.29 525.837 957.467 525.776 957.65 525.754C957.834 525.732 958.02 525.75 958.196 525.805C958.372 525.86 958.535 525.952 958.673 526.075C963.589 529.512 968.163 533.415 972.33 537.73L977.168 537.096C977.483 537.101 977.786 537.219 978.02 537.43C978.255 537.64 978.405 537.928 978.444 538.24C978.483 538.553 978.407 538.869 978.231 539.13C978.056 539.391 977.791 539.58 977.487 539.662L974.48 540.042C976.385 542.143 978.184 544.312 979.87 546.591L984.358 545.296C984.685 545.203 985.036 545.244 985.333 545.41C985.63 545.576 985.849 545.853 985.942 546.181C986.035 546.508 985.994 546.859 985.828 547.156C985.662 547.453 985.385 547.672 985.057 547.765L981.479 548.808C982.991 551.161 984.503 553.515 985.998 555.842C987.509 555.203 989.261 554.078 989.925 555.572C990.59 557.066 988.763 557.501 987.252 558.139C988.763 560.961 990.121 563.862 991.321 566.829L993.936 565.149C994.221 565.023 994.541 565.003 994.839 565.093C995.138 565.182 995.394 565.375 995.562 565.637C995.731 565.899 995.8 566.213 995.757 566.521C995.715 566.83 995.563 567.113 995.33 567.32L992.323 569.251C993.206 571.603 993.984 574.021 994.667 576.464C996.021 575.409 997.497 573.796 998.518 575.098C999.539 576.4 997.275 577.707 995.389 579.14C996.817 584.853 997.685 590.692 997.981 596.573C997.99 596.742 997.966 596.911 997.91 597.071C997.854 597.23 997.767 597.377 997.654 597.503C997.541 597.628 997.404 597.731 997.251 597.804C997.099 597.877 996.933 597.919 996.764 597.928C996.596 597.937 996.427 597.913 996.267 597.856C996.108 597.8 995.961 597.713 995.835 597.6C995.709 597.487 995.607 597.35 995.534 597.198C995.461 597.045 995.419 596.88 995.41 596.711C995.11 591.372 994.337 586.071 993.101 580.869Z" fill="#6A7282"/>
<path d="M107.815 1947.95C105.795 1950.43 103.577 1952.74 101.183 1954.86L109.729 1961.61C112.412 1953.71 112.544 1949.68 107.815 1947.95Z" fill="#6A7282"/>
<path d="M97.5191 1958.04C95.4788 1959.76 93.4386 1961.49 91.3986 1963.36L104.61 1975.24C105.633 1972.28 106.796 1969.39 107.903 1966.47L97.5191 1958.04Z" fill="#6A7282"/>
<path d="M117.122 2017.2L77.7698 1983.13C65.7873 2014.73 93.5309 2031.11 117.122 2017.2Z" fill="#6A7282"/>
<path d="M111.066 1987.52C108.526 1989.21 106.373 1989.97 105.343 1989.46C102.561 1988.08 102.18 1984.66 103.131 1980.38L87.9994 1966.77C84.7344 1970.28 81.9976 1974.25 79.8746 1978.55L121.343 2014.44C124.851 2011.75 127.833 2008.43 130.138 2004.65L111.066 1987.52Z" fill="#6A7282"/>
<path d="M122.99 1978.21C120.255 1980.5 117.563 1982.77 115.078 1984.69L132.646 2000.38C134.808 1996.53 136.637 1993.2 138.216 1990.24L122.99 1978.21Z" fill="#6A7282"/>
<path d="M141.789 1966.4C139.285 1965.15 133.219 1969.66 126.737 1975.08L140.489 1985.95C143.356 1980.2 145.503 1975.88 147.844 1971.18C146.384 1968.98 144.264 1967.31 141.789 1966.4Z" fill="#6A7282"/>
<path d="M187.819 1922.96L132.982 1896.57C132.347 1899.1 131.823 1901.68 131.439 1904.27L180.026 1933.74C182.956 1930.4 185.565 1926.79 187.819 1922.96Z" fill="#6A7282"/>
<path d="M195.873 1902.25L136.881 1884.55C135.629 1887.64 134.553 1890.81 133.659 1894.02L188.996 1920.67C191.856 1914.76 194.158 1908.59 195.873 1902.25Z" fill="#6A7282"/>
<path d="M199.248 1884.46L141.784 1874.35C140.348 1876.89 139.049 1879.5 137.892 1882.17L196.438 1899.72C197.738 1894.71 198.677 1889.61 199.248 1884.46Z" fill="#6A7282"/>
<path d="M148.216 1864.5C146.393 1866.9 144.708 1869.4 143.17 1871.99L199.493 1881.87C199.932 1876.47 199.867 1871.05 199.299 1865.66L148.216 1864.5Z" fill="#6A7282"/>
<path d="M150.2 1861.98L198.961 1863.07C197.063 1850.56 191.833 1840.35 182.401 1835.66C158.64 1823.83 133.249 1865.63 130.215 1871.72C117.956 1896.34 119.315 1910.21 117.946 1922.86C134.018 1941.49 152.09 1934.62 153.898 1935.52C155.707 1936.42 157.233 1942.77 161.044 1944.67C163.644 1945.41 166.353 1945.7 169.052 1945.53C172.243 1942.26 175.407 1938.97 178.32 1935.7L131.026 1907.05C130.385 1912.36 130.218 1917.71 130.526 1923.05C130.561 1923.23 130.557 1923.42 130.514 1923.6C130.471 1923.78 130.39 1923.95 130.277 1924.09C130.164 1924.24 130.021 1924.36 129.858 1924.45C129.695 1924.53 129.515 1924.59 129.33 1924.6C129.146 1924.61 128.96 1924.58 128.787 1924.52C128.614 1924.45 128.456 1924.35 128.325 1924.22C128.193 1924.09 128.091 1923.94 128.025 1923.76C127.959 1923.59 127.93 1923.41 127.941 1923.22C127.613 1917.33 127.845 1911.43 128.633 1905.58C126.602 1904.36 124.085 1903.49 125.083 1901.9C126.081 1900.32 127.598 1901.94 129.059 1902.84C129.472 1900.34 129.982 1897.85 130.603 1895.42C128.489 1894.36 126 1893.78 126.817 1892.14C127.634 1890.5 129.68 1892.11 131.308 1892.89C132.175 1889.81 133.21 1886.77 134.406 1883.8C132.834 1883.33 130.971 1883.1 131.469 1881.54C131.967 1879.99 133.817 1880.94 135.416 1881.43C136.524 1878.85 137.743 1876.33 139.156 1873.91L135.486 1873.27C135.15 1873.21 134.851 1873.02 134.653 1872.75C134.456 1872.47 134.377 1872.12 134.434 1871.79C134.49 1871.45 134.678 1871.15 134.955 1870.96C135.232 1870.76 135.577 1870.68 135.912 1870.74L140.514 1871.53C141.928 1869.11 143.494 1866.73 145.144 1864.47C143.337 1864.4 140.836 1864.82 140.847 1863.06C140.868 1862.72 141.016 1862.4 141.26 1862.17C141.505 1861.94 141.828 1861.81 142.165 1861.8L147.03 1861.93C150.704 1857.18 154.83 1852.79 159.351 1848.83C159.474 1848.7 159.626 1848.59 159.795 1848.51C159.964 1848.44 160.147 1848.4 160.332 1848.4C160.517 1848.4 160.699 1848.44 160.867 1848.52C161.034 1848.6 161.184 1848.71 161.305 1848.85C161.426 1848.99 161.516 1849.15 161.569 1849.33C161.622 1849.51 161.638 1849.69 161.613 1849.88C161.589 1850.06 161.527 1850.24 161.429 1850.39C161.332 1850.55 161.203 1850.69 161.05 1850.79C157.1 1854.18 153.468 1857.93 150.2 1861.98Z" fill="#6A7282"/>
<path d="M453.512 1571.81C450.759 1573.44 447.878 1574.84 444.898 1575.99L450.574 1585.29C455.828 1578.81 457.349 1575.07 453.512 1571.81Z" fill="#6A7282"/>
<path d="M440.361 1577.7C437.848 1578.62 435.336 1579.53 432.776 1580.57L441.049 1596.3C443.036 1593.88 445.129 1591.57 447.179 1589.21L440.361 1577.7Z" fill="#6A7282"/>
<path d="M438.25 1639.99L413.14 1594.4C390.951 1619.89 411.3 1644.87 438.25 1639.99Z" fill="#6A7282"/>
<path d="M442.852 1610.06C439.885 1610.76 437.599 1610.73 436.811 1609.89C434.681 1607.63 435.508 1604.29 437.885 1600.6L428.405 1582.59C424.125 1584.76 420.182 1587.54 416.7 1590.84L443.165 1638.87C447.389 1637.56 451.336 1635.48 454.806 1632.73L442.852 1610.06Z" fill="#6A7282"/>
<path d="M457.261 1605.46C453.905 1606.65 450.593 1607.85 447.596 1608.79L458.639 1629.6C462.002 1626.73 464.87 1624.25 467.379 1622.01L457.261 1605.46Z" fill="#6A7282"/>
<path d="M478.992 1600.88C477.075 1598.85 469.82 1600.98 461.863 1603.82L470.995 1618.78C475.68 1614.37 479.188 1611.07 483.013 1607.47C482.405 1604.9 480.997 1602.6 478.992 1600.88Z" fill="#6A7282"/>
<path d="M537.219 1576.09L494.925 1532.33C493.452 1534.48 492.065 1536.73 490.808 1539.02L526.176 1583.5C530.081 1581.38 533.778 1578.9 537.219 1576.09Z" fill="#6A7282"/>
<path d="M551.949 1559.45L502.746 1522.41C500.499 1524.88 498.395 1527.47 496.442 1530.18L539.118 1574.35C543.849 1569.79 548.144 1564.81 551.949 1559.45Z" fill="#6A7282"/>
<path d="M561.282 1543.93L510.878 1514.54C508.653 1516.42 506.53 1518.42 504.518 1520.53L553.357 1557.28C556.314 1553.02 558.962 1548.56 561.282 1543.93Z" fill="#6A7282"/>
<path d="M520.325 1507.53C517.785 1509.15 515.338 1510.91 512.997 1512.8L562.408 1541.59C564.689 1536.68 566.508 1531.57 567.841 1526.32L520.325 1507.53Z" fill="#6A7282"/>
<path d="M523.059 1505.85L568.424 1523.76C570.977 1511.38 569.607 1499.99 562.387 1492.32C544.196 1472.99 505.895 1503.4 500.939 1508.06C480.908 1526.91 477.376 1540.39 471.71 1551.79C480.333 1574.83 499.665 1574.64 501.049 1576.11C502.434 1577.59 501.665 1584.07 504.583 1587.17C506.764 1588.77 509.204 1589.98 511.796 1590.75C515.923 1588.79 520.029 1586.81 523.895 1584.75L489.458 1541.49C487.018 1546.24 485.005 1551.21 483.445 1556.32C483.415 1556.5 483.346 1556.68 483.244 1556.83C483.141 1556.98 483.007 1557.12 482.85 1557.21C482.693 1557.31 482.517 1557.38 482.334 1557.4C482.151 1557.43 481.964 1557.41 481.787 1557.36C481.609 1557.31 481.445 1557.22 481.305 1557.1C481.165 1556.98 481.052 1556.83 480.974 1556.66C480.895 1556.49 480.854 1556.31 480.852 1556.12C480.85 1555.94 480.887 1555.75 480.961 1555.58C482.694 1549.95 484.958 1544.49 487.722 1539.28C486.239 1537.43 484.18 1535.74 485.665 1534.6C487.151 1533.46 488.013 1535.5 489.071 1536.86C490.325 1534.65 491.666 1532.49 493.092 1530.43C491.473 1528.71 489.339 1527.3 490.674 1526.04C492.01 1524.79 493.372 1527 494.63 1528.3C496.511 1525.71 498.531 1523.22 500.682 1520.85C499.371 1519.87 497.704 1519 498.711 1517.71C499.717 1516.42 501.122 1517.96 502.454 1518.97C504.385 1516.94 506.401 1515 508.565 1513.22L505.346 1511.34C505.051 1511.17 504.835 1510.89 504.746 1510.56C504.657 1510.23 504.703 1509.88 504.872 1509.59C505.041 1509.29 505.321 1509.08 505.649 1508.99C505.978 1508.9 506.328 1508.94 506.623 1509.11L510.664 1511.46C512.828 1509.68 515.122 1507.99 517.456 1506.43C515.784 1505.74 513.292 1505.27 513.914 1503.62C514.05 1503.31 514.298 1503.06 514.608 1502.93C514.918 1502.8 515.267 1502.79 515.585 1502.9L520.103 1504.71C525.196 1501.52 530.587 1498.83 536.199 1496.69C536.363 1496.6 536.543 1496.55 536.727 1496.54C536.912 1496.53 537.096 1496.56 537.269 1496.62C537.442 1496.69 537.598 1496.79 537.729 1496.92C537.859 1497.05 537.961 1497.21 538.026 1497.38C538.091 1497.56 538.119 1497.74 538.108 1497.92C538.096 1498.11 538.046 1498.29 537.96 1498.45C537.874 1498.62 537.754 1498.76 537.608 1498.87C537.463 1498.99 537.294 1499.07 537.115 1499.11C532.234 1500.93 527.529 1503.18 523.059 1505.85Z" fill="#6A7282"/>
<path d="M100.246 1793.16C96.1755 1789.1 91.7697 1792.61 87.0228 1797.09L96.7375 1802.08C97.6498 1799.01 98.8236 1796.03 100.246 1793.16Z" fill="#6A7282"/>
<path d="M83.3457 1800.59C81.1471 1802.8 78.8403 1805.26 76.6084 1807.37L92.9061 1814.46C93.7821 1811.85 94.5269 1809.25 95.228 1806.66L83.3457 1800.59Z" fill="#6A7282"/>
<path d="M80.5127 1834.98L33.19 1813.3C30.477 1840.39 56.6838 1859.19 80.5127 1834.98Z" fill="#6A7282"/>
<path d="M91.2844 1819.02L72.6246 1810.9C69.142 1813.52 65.9502 1814.69 63.4393 1812.66C62.4494 1811.85 62.3715 1809.63 62.852 1806.62L39.2116 1796.3C36.7404 1799.96 34.959 1804.05 33.9548 1808.36L83.828 1831.18C86.9042 1827.52 89.4173 1823.43 91.2844 1819.02Z" fill="#6A7282"/>
<path d="M66.3495 1791.89L49.0292 1783.05C46.9155 1785.66 44.7209 1788.76 42.1349 1792.34L63.6742 1801.8C64.432 1798.7 65.381 1795.3 66.3495 1791.89Z" fill="#6A7282"/>
<path d="M69.2825 1769.86C67.4222 1767.98 65.0086 1766.73 62.3933 1766.32C59.0661 1770.42 56.0521 1774.14 51.9813 1779.16L67.5985 1787.14C69.8401 1778.99 71.4555 1771.62 69.2825 1769.86Z" fill="#6A7282"/>
<path d="M136.475 1748.91L89.7102 1709.96C87.1605 1713.6 84.9609 1717.47 83.1411 1721.52L130.106 1753.51C132.378 1751.99 134.436 1750.54 136.475 1748.91Z" fill="#6A7282"/>
<path d="M105.254 1694C100.199 1698.19 95.5444 1702.84 91.35 1707.89L138.549 1747.19C141.104 1745.05 143.535 1742.75 145.831 1740.33L105.254 1694Z" fill="#6A7282"/>
<path d="M153.036 1731.69L120.009 1683.59C115.537 1686.23 111.26 1689.18 107.21 1692.42L147.537 1738.47C149.489 1736.31 151.325 1734.05 153.036 1731.69Z" fill="#6A7282"/>
<path d="M137.068 1675.78C131.903 1677.46 126.907 1679.63 122.144 1682.24L154.517 1729.37C156.249 1726.94 157.844 1724.41 159.294 1721.8L137.068 1675.78Z" fill="#6A7282"/>
<path d="M127.747 1755.04L82.0631 1723.89C80.2947 1727.9 78.6169 1732.14 76.9634 1736.4C77.9122 1738.94 79.2948 1741.29 81.0494 1743.35C84.3812 1746.05 90.4973 1744.53 92.3806 1746.06C94.2638 1747.58 95.1704 1766.6 118.784 1773.5C129.728 1767.01 142.912 1762.49 160.232 1741.12C164.518 1735.84 192.019 1695.4 171.4 1678.68C163.24 1672.07 151.759 1671.52 139.592 1674.98L160.768 1718.99C163.093 1714.34 165.004 1709.49 166.477 1704.5C166.504 1704.31 166.571 1704.13 166.674 1703.97C166.777 1703.82 166.912 1703.68 167.071 1703.58C167.23 1703.48 167.41 1703.42 167.596 1703.39C167.783 1703.37 167.973 1703.38 168.153 1703.44C168.333 1703.49 168.499 1703.59 168.639 1703.71C168.78 1703.84 168.891 1703.99 168.966 1704.17C169.041 1704.34 169.078 1704.52 169.074 1704.71C169.07 1704.9 169.025 1705.09 168.943 1705.26C167.215 1710.96 164.936 1716.48 162.138 1721.74L164.275 1726.12C164.369 1726.42 164.351 1726.74 164.225 1727.03C164.099 1727.32 163.872 1727.55 163.588 1727.69C163.303 1727.82 162.979 1727.85 162.676 1727.76C162.373 1727.68 162.111 1727.49 161.938 1727.22L160.616 1724.51C159.217 1726.98 157.721 1729.37 156.085 1731.68L158.739 1735.51C158.891 1735.8 158.933 1736.13 158.856 1736.44C158.779 1736.75 158.59 1737.03 158.324 1737.21C158.057 1737.39 157.733 1737.47 157.414 1737.42C157.095 1737.38 156.803 1737.22 156.594 1736.97L154.555 1733.96C152.794 1736.14 151.033 1738.31 149.271 1740.48C150.35 1741.72 151.988 1743 150.757 1744.13C149.527 1745.25 148.581 1743.6 147.502 1742.37C145.296 1744.69 142.967 1746.89 140.523 1748.95L142.937 1750.91C143.146 1751.14 143.266 1751.44 143.274 1751.75C143.283 1752.06 143.179 1752.37 142.983 1752.61C142.787 1752.85 142.511 1753.01 142.205 1753.07C141.899 1753.13 141.582 1753.07 141.313 1752.91L138.537 1750.66C136.56 1752.26 134.527 1753.73 132.421 1755.15C133.749 1756.22 135.841 1757 134.904 1758.4C133.968 1759.8 132.058 1758.01 130.105 1756.67C125.124 1759.83 119.844 1762.49 114.342 1764.62C114.178 1764.7 113.998 1764.76 113.813 1764.77C113.629 1764.78 113.444 1764.75 113.271 1764.68C113.097 1764.62 112.94 1764.52 112.809 1764.39C112.679 1764.26 112.577 1764.1 112.512 1763.93C112.446 1763.75 112.418 1763.57 112.43 1763.38C112.441 1763.2 112.492 1763.02 112.578 1762.85C112.665 1762.69 112.785 1762.55 112.931 1762.43C113.077 1762.32 113.246 1762.24 113.425 1762.19C118.405 1760.25 123.198 1757.85 127.747 1755.04Z" fill="#6A7282"/>
<path d="M283.486 1589.53C280.351 1584.72 275.31 1587.23 269.735 1590.62L278.195 1597.53C279.727 1594.72 281.497 1592.04 283.486 1589.53Z" fill="#6A7282"/>
<path d="M265.408 1593.27C262.796 1594.98 260.028 1596.9 257.405 1598.5L271.867 1608.83C273.268 1606.46 274.538 1604.08 275.764 1601.69L265.408 1593.27Z" fill="#6A7282"/>
<path d="M255.467 1626.32L213.704 1595.25C205.403 1621.18 227.113 1645.03 255.467 1626.32Z" fill="#6A7282"/>
<path d="M269.328 1612.96L252.773 1601.12C248.821 1602.96 245.454 1603.44 243.423 1600.93C242.622 1599.94 243.01 1597.74 244.107 1594.9L223.139 1579.88C219.957 1582.95 217.363 1586.57 215.482 1590.58L259.501 1623.3C263.272 1620.36 266.585 1616.88 269.328 1612.96Z" fill="#6A7282"/>
<path d="M250.599 1581.22L235.502 1568.97C232.892 1571.08 230.098 1573.65 226.822 1576.62L245.916 1590.36C247.304 1587.48 248.94 1584.36 250.599 1581.22Z" fill="#6A7282"/>
<path d="M258.061 1560.29C256.634 1558.06 254.533 1556.34 252.062 1555.39C247.952 1558.71 244.229 1561.72 239.2 1565.78L252.811 1576.84C256.701 1569.34 259.819 1562.47 258.061 1560.29Z" fill="#6A7282"/>
<path d="M328.144 1553.81L290.528 1505.97C287.276 1509 284.318 1512.32 281.693 1515.9L320.956 1556.98C323.495 1555.97 325.81 1554.98 328.144 1553.81Z" fill="#6A7282"/>
<path d="M309.059 1493.59C303.242 1496.64 297.719 1500.22 292.564 1504.28L330.531 1552.56C333.478 1551 336.333 1549.26 339.083 1547.37L309.059 1493.59Z" fill="#6A7282"/>
<path d="M347.932 1540.42L325.659 1486.5C320.736 1488.14 315.938 1490.13 311.301 1492.46L341.139 1545.91C343.499 1544.2 345.767 1542.37 347.932 1540.42Z" fill="#6A7282"/>
<path d="M343.973 1482.41C338.57 1482.98 333.232 1484.06 328.029 1485.62L349.865 1538.46C352.066 1536.44 354.152 1534.3 356.115 1532.05L343.973 1482.41Z" fill="#6A7282"/>
<path d="M318.331 1557.99L280.146 1517.99C277.58 1521.55 275.055 1525.34 272.55 1529.17C272.949 1531.85 273.81 1534.43 275.096 1536.82C277.792 1540.15 284.091 1539.94 285.615 1541.83C287.138 1543.71 284.059 1562.5 305.716 1574.17C317.773 1570.1 331.608 1568.44 353.003 1551.15C358.298 1546.87 393.626 1513.05 376.945 1492.41C370.343 1484.24 359.228 1481.31 346.607 1482.16L358.141 1529.62C361.386 1525.55 364.266 1521.2 366.748 1516.63C366.813 1516.45 366.916 1516.29 367.049 1516.16C367.182 1516.03 367.343 1515.92 367.52 1515.86C367.696 1515.79 367.885 1515.77 368.073 1515.78C368.261 1515.8 368.443 1515.85 368.608 1515.94C368.772 1516.03 368.915 1516.16 369.026 1516.31C369.137 1516.47 369.214 1516.64 369.251 1516.82C369.289 1517.01 369.286 1517.2 369.243 1517.38C369.199 1517.57 369.117 1517.74 369.001 1517.89C366.122 1523.1 362.742 1528.03 358.908 1532.59L360.086 1537.32C360.116 1537.63 360.031 1537.94 359.847 1538.2C359.663 1538.45 359.393 1538.64 359.087 1538.71C358.78 1538.78 358.458 1538.74 358.179 1538.59C357.9 1538.45 357.684 1538.2 357.57 1537.91L356.842 1534.98C354.959 1537.1 352.998 1539.13 350.916 1541.05L352.713 1545.35C352.802 1545.66 352.774 1545.99 352.634 1546.28C352.494 1546.57 352.251 1546.8 351.953 1546.92C351.655 1547.04 351.322 1547.05 351.019 1546.94C350.716 1546.83 350.463 1546.62 350.31 1546.33L348.945 1542.96C346.769 1544.72 344.593 1546.48 342.417 1548.24C343.215 1549.67 344.548 1551.27 343.111 1552.11C341.673 1552.95 341.092 1551.14 340.293 1549.71C337.653 1551.52 334.916 1553.18 332.095 1554.7L334.048 1557.11C334.204 1557.38 334.259 1557.7 334.202 1558.01C334.146 1558.31 333.981 1558.59 333.739 1558.78C333.497 1558.98 333.193 1559.08 332.881 1559.07C332.57 1559.06 332.272 1558.94 332.042 1558.74L329.795 1555.96C327.529 1557.11 325.233 1558.12 322.879 1559.07C323.953 1560.4 325.838 1561.59 324.63 1562.77C323.422 1563.94 321.926 1561.79 320.297 1560.07C314.766 1562.13 309.047 1563.63 303.223 1564.56C303.045 1564.61 302.858 1564.62 302.675 1564.59C302.492 1564.57 302.317 1564.5 302.161 1564.4C302.006 1564.3 301.873 1564.17 301.772 1564.01C301.672 1563.86 301.605 1563.68 301.577 1563.5C301.549 1563.32 301.561 1563.13 301.61 1562.95C301.66 1562.77 301.747 1562.61 301.866 1562.47C301.985 1562.32 302.132 1562.21 302.299 1562.13C302.465 1562.05 302.647 1562 302.832 1562C308.108 1561.13 313.295 1559.79 318.331 1557.99Z" fill="#6A7282"/>
<path d="M510.101 1435.33C507.279 1430.32 502.088 1432.51 496.309 1435.53L504.313 1442.96C506.02 1440.26 507.957 1437.7 510.101 1435.33Z" fill="#6A7282"/>
<path d="M491.823 1437.91C489.107 1439.45 486.223 1441.18 483.504 1442.61L497.279 1453.84C498.828 1451.57 500.247 1449.27 501.623 1446.96L491.823 1437.91Z" fill="#6A7282"/>
<path d="M479.802 1470.25L440.097 1436.6C430.166 1461.94 450.317 1487.13 479.802 1470.25Z" fill="#6A7282"/>
<path d="M494.484 1457.8L478.714 1444.94C474.653 1446.52 471.263 1446.79 469.396 1444.15C468.659 1443.11 469.185 1440.95 470.462 1438.18L450.49 1421.85C447.119 1424.72 444.3 1428.17 442.169 1432.04L484.019 1467.5C487.97 1464.8 491.497 1461.54 494.484 1457.8Z" fill="#6A7282"/>
<path d="M477.809 1424.94L463.521 1411.75C460.782 1413.69 457.83 1416.08 454.372 1418.84L472.554 1433.76C474.123 1430.98 475.953 1427.97 477.809 1424.94Z" fill="#6A7282"/>
<path d="M486.585 1404.53C485.303 1402.21 483.315 1400.36 480.91 1399.25C476.597 1402.3 472.691 1405.07 467.414 1408.81L480.295 1420.71C484.654 1413.47 488.201 1406.81 486.585 1404.53Z" fill="#6A7282"/>
<path d="M556.939 1402.51L522.438 1352.38C519 1355.19 515.837 1358.32 512.99 1361.73L549.564 1405.22C552.162 1404.37 554.535 1403.53 556.939 1402.51Z" fill="#6A7282"/>
<path d="M541.718 1341.2C535.719 1343.87 529.98 1347.09 524.577 1350.82L559.4 1401.42C562.44 1400.04 565.4 1398.49 568.265 1396.78L541.718 1341.2Z" fill="#6A7282"/>
<path d="M577.537 1390.41L558.735 1335.17C553.718 1336.5 548.803 1338.19 544.027 1340.22L570.409 1395.45C572.873 1393.9 575.253 1392.21 577.537 1390.41Z" fill="#6A7282"/>
<path d="M577.272 1332.26C571.843 1332.49 566.448 1333.22 561.156 1334.45L579.59 1388.57C581.915 1386.7 584.133 1384.7 586.235 1382.57L577.272 1332.26Z" fill="#6A7282"/>
<path d="M546.88 1406.05L511.313 1363.72C508.527 1367.1 505.766 1370.73 503.022 1374.38C503.25 1377.08 503.946 1379.72 505.077 1382.18C507.556 1385.68 513.856 1385.87 515.257 1387.85C516.657 1389.83 512.391 1408.38 533.262 1421.41C545.553 1418.11 559.466 1417.33 581.917 1401.43C587.472 1397.5 624.878 1366 609.542 1344.33C603.473 1335.76 592.566 1332.13 579.917 1332.17L588.412 1380.27C591.909 1376.42 595.059 1372.26 597.827 1367.86C597.903 1367.68 598.016 1367.53 598.157 1367.41C598.299 1367.28 598.465 1367.19 598.646 1367.14C598.826 1367.08 599.016 1367.07 599.203 1367.09C599.389 1367.12 599.568 1367.19 599.726 1367.29C599.885 1367.39 600.019 1367.53 600.12 1367.69C600.221 1367.84 600.287 1368.02 600.313 1368.21C600.338 1368.4 600.323 1368.59 600.269 1368.77C600.214 1368.95 600.121 1369.11 599.996 1369.25C596.791 1374.28 593.104 1378.98 588.989 1383.29L589.864 1388.08C589.874 1388.39 589.769 1388.7 589.569 1388.94C589.37 1389.19 589.089 1389.35 588.778 1389.4C588.468 1389.46 588.149 1389.39 587.88 1389.23C587.611 1389.07 587.41 1388.81 587.315 1388.51L586.775 1385.54C584.761 1387.54 582.676 1389.43 580.475 1391.22L581.996 1395.63C582.065 1395.94 582.016 1396.27 581.858 1396.55C581.699 1396.83 581.443 1397.04 581.137 1397.15C580.832 1397.25 580.499 1397.24 580.204 1397.11C579.908 1396.98 579.67 1396.75 579.535 1396.46L578.386 1393C576.103 1394.62 573.82 1396.24 571.537 1397.85C572.243 1399.33 573.471 1401.01 571.983 1401.76C570.495 1402.51 570.029 1400.67 569.324 1399.19C566.574 1400.83 563.737 1402.32 560.825 1403.65L562.621 1406.18C562.76 1406.46 562.794 1406.78 562.718 1407.08C562.642 1407.38 562.461 1407.65 562.206 1407.83C561.952 1408.01 561.642 1408.09 561.332 1408.06C561.022 1408.03 560.732 1407.9 560.516 1407.67L558.45 1404.76C556.116 1405.76 553.76 1406.63 551.35 1407.42C552.338 1408.82 554.143 1410.13 552.863 1411.22C551.582 1412.32 550.226 1410.08 548.709 1408.26C543.06 1409.96 537.257 1411.09 531.385 1411.65C531.204 1411.69 531.017 1411.69 530.836 1411.65C530.655 1411.61 530.485 1411.54 530.336 1411.43C530.187 1411.32 530.063 1411.18 529.972 1411.02C529.882 1410.85 529.826 1410.68 529.81 1410.49C529.794 1410.31 529.817 1410.12 529.878 1409.95C529.939 1409.77 530.036 1409.61 530.164 1409.48C530.291 1409.34 530.446 1409.24 530.617 1409.17C530.788 1409.1 530.973 1409.07 531.157 1409.07C536.478 1408.54 541.74 1407.53 546.88 1406.05Z" fill="#6A7282"/>
<path d="M250.959 1720.6C248.475 1722.61 245.832 1724.42 243.055 1726L250.02 1734.39C254.204 1727.27 255.196 1723.31 250.959 1720.6Z" fill="#6A7282"/>
<path d="M238.8 1728.38C236.45 1729.66 234.08 1730.95 231.701 1732.36L242.201 1746.7C243.809 1744.01 245.539 1741.42 247.316 1738.66L238.8 1728.38Z" fill="#6A7282"/>
<path d="M245.887 1790.31L214.433 1748.99C196.142 1777.39 219.987 1799.05 245.887 1790.31Z" fill="#6A7282"/>
<path d="M246.01 1760.04C243.198 1761.15 240.914 1761.48 240.011 1760.77C237.571 1758.85 237.916 1755.4 239.705 1751.42L227.676 1735.01C223.768 1737.77 220.283 1741.09 217.332 1744.86L250.563 1788.49C254.58 1786.61 258.217 1784 261.296 1780.81L246.01 1760.04Z" fill="#6A7282"/>
<path d="M259.604 1753.35C256.557 1754.9 253.38 1756.67 250.535 1758.07L264.523 1777.02C267.408 1773.71 269.878 1770.83 272.05 1768.23L259.604 1753.35Z" fill="#6A7282"/>
<path d="M280.424 1745.62C278.228 1743.89 271.366 1747.07 263.914 1751.05L275.131 1764.53C279.115 1759.48 282.099 1755.69 285.372 1751.55C284.371 1749.11 282.643 1747.04 280.424 1745.62Z" fill="#6A7282"/>
<path d="M334.364 1712.52L286.086 1675.47C284.927 1677.84 283.905 1680.24 282.98 1682.72L324.552 1721.45C328.096 1718.79 331.382 1715.8 334.364 1712.52Z" fill="#6A7282"/>
<path d="M346.484 1693.9L292.418 1664.43C290.555 1667.21 288.849 1670.1 287.307 1673.07L335.909 1710.62C339.947 1705.39 343.487 1699.79 346.484 1693.9Z" fill="#6A7282"/>
<path d="M353.427 1677.17L299.226 1655.55C297.309 1657.73 295.509 1660.01 293.836 1662.38L347.555 1691.54C349.853 1686.9 351.816 1682.09 353.427 1677.17Z" fill="#6A7282"/>
<path d="M307.557 1647.2C305.283 1649.17 303.123 1651.28 301.086 1653.49L354.178 1674.71C355.717 1669.51 356.769 1664.18 357.321 1658.79L307.557 1647.2Z" fill="#6A7282"/>
<path d="M310.013 1645.14L357.522 1656.17C358.203 1643.57 355.171 1632.51 346.899 1625.98C326.061 1609.54 292.676 1645.24 288.441 1650.6C271.424 1672.18 269.917 1686.03 265.99 1698.13C277.912 1719.65 297.007 1716.62 298.593 1717.88C300.179 1719.13 300.355 1725.68 303.698 1728.32C306.09 1729.58 308.682 1730.41 311.359 1730.8C315.152 1728.25 318.921 1725.68 322.442 1723.07L282.027 1685.33C280.34 1690.37 279.1 1695.56 278.323 1700.82C278.297 1700.98 278.239 1701.14 278.152 1701.29C278.065 1701.43 277.95 1701.56 277.813 1701.66C277.677 1701.76 277.523 1701.83 277.359 1701.87C277.195 1701.91 277.024 1701.92 276.857 1701.9C276.69 1701.87 276.529 1701.81 276.384 1701.73C276.24 1701.64 276.113 1701.52 276.013 1701.39C275.913 1701.25 275.84 1701.1 275.8 1700.93C275.759 1700.77 275.751 1700.6 275.777 1700.43C276.654 1694.61 278.082 1688.88 280.043 1683.33C278.323 1681.7 276.115 1680.23 277.32 1679C278.525 1677.78 279.775 1679.55 281.04 1680.71C281.956 1678.35 282.945 1676.04 284.07 1673.76C282.215 1672.3 279.878 1671.24 281.033 1669.78C282.188 1668.32 283.843 1670.33 285.258 1671.45C286.746 1668.6 288.384 1665.84 290.167 1663.17C288.725 1662.39 286.93 1661.8 287.736 1660.38C288.541 1658.96 290.176 1660.25 291.643 1661.05C293.253 1658.76 294.961 1656.54 296.84 1654.46L293.36 1653.1C293.075 1652.95 292.855 1652.7 292.743 1652.4C292.631 1652.1 292.634 1651.76 292.753 1651.46C292.871 1651.16 293.096 1650.92 293.385 1650.78C293.673 1650.63 294.004 1650.6 294.315 1650.69L298.637 1652.43C300.535 1650.33 302.536 1648.34 304.634 1646.44C302.86 1646.03 300.345 1645.9 300.697 1644.2C300.788 1643.87 300.999 1643.59 301.289 1643.41C301.579 1643.22 301.927 1643.16 302.263 1643.22L306.999 1644.34C311.523 1640.47 316.411 1637.05 321.593 1634.12C321.74 1634.01 321.911 1633.92 322.094 1633.88C322.276 1633.83 322.467 1633.83 322.652 1633.86C322.837 1633.9 323.012 1633.97 323.165 1634.08C323.319 1634.19 323.447 1634.33 323.54 1634.49C323.634 1634.66 323.691 1634.84 323.708 1635.03C323.725 1635.21 323.7 1635.4 323.637 1635.58C323.574 1635.76 323.473 1635.92 323.342 1636.05C323.21 1636.19 323.051 1636.29 322.875 1636.36C318.33 1638.89 314.025 1641.83 310.013 1645.14Z" fill="#6A7282"/>
<path d="M690.98 1407.66C687.815 1408.12 684.619 1408.31 681.423 1408.25L683.099 1419.01C690.339 1415.06 693.226 1412.16 690.98 1407.66Z" fill="#6A7282"/>
<path d="M676.548 1408.11C673.878 1407.99 671.178 1407.89 668.413 1407.88L670.068 1425.58C672.828 1424.09 675.644 1422.75 678.583 1421.3L676.548 1408.11Z" fill="#6A7282"/>
<path d="M650.859 1464.89L645.062 1413.29C614.789 1428.28 624.142 1459.11 650.859 1464.89Z" fill="#6A7282"/>
<path d="M666.494 1438.98C663.512 1438.49 661.379 1437.6 660.97 1436.53C659.863 1433.62 661.929 1430.84 665.503 1428.35L663.601 1408.09C658.829 1408.45 654.135 1409.51 649.668 1411.23L655.803 1465.74C660.218 1466.18 664.676 1465.81 668.958 1464.65L666.494 1438.98Z" fill="#6A7282"/>
<path d="M681.597 1440.21C678.184 1439.98 674.549 1439.87 671.39 1439.61L673.672 1463.05C677.844 1461.69 681.443 1460.49 684.642 1459.37L681.597 1440.21Z" fill="#6A7282"/>
<path d="M703.43 1444.26C702.434 1441.65 694.914 1440.85 686.476 1440.44L689.187 1457.77C695.199 1455.48 699.701 1453.76 704.638 1451.88C705.029 1449.28 704.607 1446.62 703.43 1444.26Z" fill="#6A7282"/>
<path d="M766.711 1443.53L744.286 1386.95C742.074 1388.39 739.965 1389.93 737.901 1391.58L753.709 1446.16C758.116 1445.69 762.469 1444.81 766.711 1443.53Z" fill="#6A7282"/>
<path d="M786.67 1433.76L755.384 1380.73C752.358 1382.16 749.414 1383.76 746.566 1385.52L769.016 1442.68C775.166 1440.26 781.076 1437.28 786.67 1433.76Z" fill="#6A7282"/>
<path d="M801.214 1422.96L765.784 1376.6C763.02 1377.48 760.306 1378.52 757.652 1379.69L788.801 1432.28C793.156 1429.48 797.304 1426.36 801.214 1422.96Z" fill="#6A7282"/>
<path d="M777.22 1373.7C774.255 1374.23 771.322 1374.93 768.435 1375.79L803.118 1421.24C807.108 1417.57 810.747 1413.53 813.989 1409.18L777.22 1373.7Z" fill="#6A7282"/>
<path d="M780.386 1373.19L815.502 1407.04C822.555 1396.57 825.628 1385.52 821.876 1375.68C812.425 1350.87 765.454 1364.38 759.064 1366.82C733.391 1376.6 724.988 1387.72 715.408 1396.09C714.6 1420.68 732.543 1427.88 733.262 1429.77C733.981 1431.65 730.771 1437.37 732.287 1441.35C733.694 1443.66 735.488 1445.71 737.59 1447.41C742.154 1447.17 746.707 1446.89 751.066 1446.46L735.742 1393.33C731.706 1396.8 727.983 1400.61 724.617 1404.72C724.509 1404.85 724.377 1404.96 724.228 1405.04C724.079 1405.12 723.915 1405.17 723.747 1405.19C723.578 1405.2 723.409 1405.19 723.247 1405.14C723.085 1405.09 722.935 1405.01 722.804 1404.9C722.674 1404.79 722.566 1404.66 722.486 1404.51C722.407 1404.36 722.358 1404.2 722.341 1404.03C722.325 1403.86 722.342 1403.69 722.392 1403.53C722.441 1403.37 722.522 1403.22 722.629 1403.09C726.37 1398.54 730.534 1394.36 735.066 1390.6C734.428 1388.31 733.284 1385.92 734.947 1385.49C736.611 1385.05 736.772 1387.22 737.264 1388.86C739.264 1387.3 741.297 1385.83 743.432 1384.45C742.591 1382.24 741.125 1380.14 742.867 1379.48C744.61 1378.81 744.995 1381.39 745.637 1383.08C748.374 1381.4 751.199 1379.87 754.099 1378.49C753.262 1377.08 752.021 1375.65 753.443 1374.85C754.865 1374.04 755.606 1375.98 756.454 1377.42C759.013 1376.28 761.616 1375.26 764.296 1374.44L762.007 1371.48C761.838 1371.21 761.778 1370.88 761.837 1370.56C761.895 1370.25 762.069 1369.96 762.324 1369.77C762.58 1369.57 762.899 1369.48 763.22 1369.5C763.541 1369.53 763.842 1369.67 764.064 1369.9L766.878 1373.62C769.587 1372.79 772.323 1372.11 775.103 1371.55C773.79 1370.29 771.694 1368.89 772.87 1367.61C773.117 1367.37 773.444 1367.24 773.786 1367.23C774.128 1367.22 774.461 1367.35 774.718 1367.57L778.206 1370.96C784.075 1369.97 790.026 1369.54 795.977 1369.68C796.163 1369.66 796.353 1369.67 796.533 1369.73C796.713 1369.78 796.88 1369.87 797.02 1370C797.161 1370.12 797.273 1370.28 797.349 1370.45C797.424 1370.62 797.461 1370.81 797.458 1371C797.454 1371.19 797.41 1371.37 797.328 1371.54C797.246 1371.71 797.129 1371.86 796.983 1371.98C796.838 1372.1 796.669 1372.19 796.486 1372.24C796.304 1372.28 796.114 1372.29 795.928 1372.26C790.73 1372.1 785.528 1372.41 780.386 1373.19Z" fill="#6A7282"/>
</svg>
