<svg width="1670" height="1553" viewBox="0 0 1670 1553" fill="none" xmlns="http://www.w3.org/2000/svg">
<path d="M898.216 1292.54C896.223 1287.15 890.772 1288.44 884.548 1290.49L891.256 1299.12C893.379 1296.73 895.708 1294.52 898.216 1292.54Z" fill="#6A7282"/>
<path d="M879.734 1292.1C876.802 1293.18 873.674 1294.42 870.785 1295.37L882.537 1308.71C884.438 1306.71 886.186 1304.69 887.92 1302.64L879.734 1292.1Z" fill="#6A7282"/>
<path d="M862.582 1322.05L829.004 1282.31C815.003 1305.71 830.734 1333.87 862.582 1322.05Z" fill="#6A7282"/>
<path d="M879.131 1312.16L865.679 1296.88C861.414 1297.78 858.026 1297.49 856.615 1294.58C856.059 1293.43 856.932 1291.39 858.616 1288.88L841.613 1269.49C837.814 1271.76 834.466 1274.7 831.736 1278.18L867.194 1320.02C871.541 1318 875.565 1315.35 879.131 1312.16Z" fill="#6A7282"/>
<path d="M867.919 1277.07L856.011 1261.71C852.963 1263.19 849.659 1265.07 845.825 1267.2L861.32 1284.9C863.408 1282.37 865.733 1279.69 867.919 1277.07Z" fill="#6A7282"/>
<path d="M880.057 1258.3C879.162 1255.81 877.493 1253.66 875.293 1252.18C870.567 1254.48 866.233 1256.58 860.444 1259.39L871.203 1273.24C876.744 1266.78 881.278 1260.82 880.057 1258.3Z" fill="#6A7282"/>
<path d="M949.792 1267.83L923.96 1212.72C920.119 1214.93 916.495 1217.5 913.137 1220.39L942.074 1269.29C944.664 1268.93 947.227 1268.45 949.792 1267.83Z" fill="#6A7282"/>
<path d="M944.724 1204.9C938.368 1206.55 932.18 1208.78 926.24 1211.58L952.316 1267.19C955.54 1266.33 958.713 1265.28 961.82 1264.07L944.724 1204.9Z" fill="#6A7282"/>
<path d="M972.066 1259.27L962.583 1201.69C957.417 1202.18 952.292 1203.04 947.248 1204.26L964.236 1263.07C966.912 1261.94 969.526 1260.67 972.066 1259.27Z" fill="#6A7282"/>
<path d="M981.375 1201.83C975.987 1201.21 970.553 1201.1 965.143 1201.49L974.446 1257.91C977.06 1256.39 979.586 1254.73 982.012 1252.92L981.375 1201.83Z" fill="#6A7282"/>
<path d="M939.289 1269.68L911.101 1222.1C907.8 1224.98 904.482 1228.11 901.177 1231.27C900.98 1233.97 901.244 1236.68 901.956 1239.29C903.828 1243.14 910.013 1244.36 911.071 1246.54C912.129 1248.72 904.856 1266.34 923.315 1282.61C935.979 1281.37 949.834 1282.87 974.582 1270.86C980.706 1267.89 1022.76 1242.93 1011.18 1219.05C1006.59 1209.6 996.428 1204.24 983.942 1202.21L984.565 1250.99C988.633 1247.77 992.411 1244.19 995.855 1240.3C995.96 1240.15 996.096 1240.02 996.254 1239.93C996.412 1239.83 996.589 1239.77 996.772 1239.75C996.956 1239.73 997.142 1239.74 997.318 1239.8C997.495 1239.85 997.657 1239.94 997.796 1240.07C997.934 1240.19 998.044 1240.34 998.12 1240.51C998.196 1240.68 998.235 1240.86 998.235 1241.04C998.235 1241.23 998.196 1241.41 998.12 1241.58C998.044 1241.75 997.933 1241.9 997.795 1242.02C993.788 1246.46 989.364 1250.5 984.583 1254.09L984.636 1258.97C984.593 1259.29 984.44 1259.57 984.203 1259.78C983.966 1259.99 983.663 1260.1 983.348 1260.1C983.033 1260.11 982.728 1259.99 982.489 1259.79C982.251 1259.58 982.095 1259.3 982.05 1258.99L982.031 1255.95C979.718 1257.59 977.322 1259.14 974.887 1260.53L975.638 1265.14C975.691 1265.47 975.608 1265.82 975.408 1266.09C975.208 1266.37 974.907 1266.55 974.571 1266.6C974.234 1266.66 973.891 1266.57 973.616 1266.37C973.341 1266.17 973.156 1265.87 973.103 1265.54L972.494 1261.86C969.977 1263.08 967.46 1264.3 964.972 1265.51C965.425 1267.08 966.334 1268.96 964.771 1269.44C963.209 1269.92 962.995 1268.06 962.541 1266.48C959.559 1267.64 956.517 1268.65 953.428 1269.48L954.785 1272.28C954.876 1272.58 954.858 1272.9 954.733 1273.18C954.609 1273.47 954.386 1273.7 954.106 1273.84C953.826 1273.97 953.506 1274 953.205 1273.92C952.904 1273.85 952.641 1273.66 952.464 1273.41L950.904 1270.19C948.464 1270.79 945.97 1271.27 943.463 1271.66C944.349 1273.13 945.775 1274.79 944.361 1275.64C942.946 1276.5 941.919 1274.1 940.72 1272.06C934.878 1272.79 928.977 1272.96 923.102 1272.55C922.919 1272.57 922.734 1272.55 922.56 1272.49C922.386 1272.43 922.226 1272.34 922.092 1272.21C921.959 1272.08 921.854 1271.93 921.786 1271.76C921.717 1271.59 921.687 1271.4 921.696 1271.22C921.705 1271.04 921.754 1270.86 921.84 1270.69C921.925 1270.53 922.045 1270.39 922.19 1270.28C922.336 1270.16 922.505 1270.08 922.684 1270.04C922.863 1270 923.05 1270 923.23 1270.04C928.583 1270.39 933.957 1270.27 939.289 1269.68Z" fill="#6A7282"/>
<path d="M418.87 1409.48C418.204 1403.78 412.601 1403.75 406.069 1404.28L410.553 1414.25C413.181 1412.42 415.964 1410.83 418.87 1409.48Z" fill="#6A7282"/>
<path d="M401.011 1404.71C397.907 1405.07 394.574 1405.53 391.542 1405.78L399.821 1421.51C402.138 1420.02 404.313 1418.46 406.482 1416.88L401.011 1404.71Z" fill="#6A7282"/>
<path d="M377.284 1429.77L354.02 1383.23C334.896 1402.68 343.546 1433.75 377.284 1429.77Z" fill="#6A7282"/>
<path d="M395.698 1424.05L386.224 1406.04C381.87 1405.91 378.645 1404.82 377.96 1401.66C377.69 1400.42 379.02 1398.64 381.249 1396.59L369.294 1373.75C365.069 1375.05 361.12 1377.13 357.647 1379.87L382.243 1428.88C386.943 1427.95 391.478 1426.32 395.698 1424.05Z" fill="#6A7282"/>
<path d="M393.071 1387.32L385.12 1369.58C381.809 1370.3 378.156 1371.35 373.927 1372.52L384.812 1393.37C387.438 1391.4 390.331 1389.34 393.071 1387.32Z" fill="#6A7282"/>
<path d="M409.292 1371.94C409.01 1369.3 407.893 1366.82 406.105 1364.87C400.971 1365.98 396.264 1367 389.976 1368.37L397.168 1384.36C404.073 1379.4 409.885 1374.67 409.292 1371.94Z" fill="#6A7282"/>
<path d="M474.817 1397.63L462.703 1337.99C458.449 1339.23 454.322 1340.87 450.377 1342.89L466.971 1397.23C469.572 1397.5 472.178 1397.63 474.817 1397.63Z" fill="#6A7282"/>
<path d="M484.726 1335.28C478.161 1335.38 471.619 1336.1 465.187 1337.42L477.42 1397.61C480.756 1397.53 484.086 1397.26 487.392 1396.81L484.726 1335.28Z" fill="#6A7282"/>
<path d="M498.481 1394.56L502.837 1336.37C497.701 1335.63 492.518 1335.26 487.329 1335.25L489.976 1396.41C492.842 1395.95 495.681 1395.33 498.481 1394.56Z" fill="#6A7282"/>
<path d="M521.066 1340.94C515.976 1339.07 510.722 1337.68 505.374 1336.78L501.114 1393.8C504.012 1392.94 506.859 1391.92 509.642 1390.74L521.066 1340.94Z" fill="#6A7282"/>
<path d="M464.175 1396.95L447.995 1344.08C444.108 1346.1 440.146 1348.35 436.19 1350.64C435.363 1353.22 434.98 1355.91 435.058 1358.62C435.967 1362.81 441.692 1365.45 442.206 1367.82C442.72 1370.19 431.498 1385.6 445.603 1405.75C458.202 1407.53 471.312 1412.26 498.193 1406.43C504.844 1404.98 551.6 1390.64 545.972 1364.7C543.744 1354.43 535.128 1346.83 523.472 1341.91L512.578 1389.47C517.292 1387.29 521.807 1384.71 526.071 1381.74C526.209 1381.62 526.371 1381.52 526.547 1381.47C526.723 1381.41 526.909 1381.4 527.093 1381.42C527.276 1381.44 527.453 1381.5 527.611 1381.59C527.77 1381.69 527.906 1381.82 528.012 1381.97C528.117 1382.12 528.189 1382.29 528.223 1382.47C528.257 1382.66 528.252 1382.84 528.208 1383.02C528.165 1383.2 528.084 1383.37 527.97 1383.52C527.857 1383.66 527.713 1383.78 527.55 1383.87C522.61 1387.24 517.358 1390.12 511.865 1392.49L510.766 1397.24C510.651 1397.53 510.434 1397.78 510.155 1397.92C509.876 1398.07 509.554 1398.11 509.248 1398.04C508.941 1397.96 508.672 1397.78 508.488 1397.53C508.305 1397.27 508.221 1396.96 508.251 1396.64L508.946 1393.69C506.312 1394.74 503.62 1395.68 500.926 1396.45L500.569 1401.11C500.541 1401.45 500.38 1401.76 500.121 1401.98C499.861 1402.2 499.525 1402.31 499.186 1402.28C498.847 1402.25 498.533 1402.09 498.312 1401.83C498.092 1401.58 497.984 1401.24 498.011 1400.9L498.286 1397.18C495.553 1397.78 492.819 1398.37 490.116 1398.96C490.185 1400.59 490.627 1402.63 488.994 1402.73C487.362 1402.83 487.594 1400.97 487.525 1399.33C484.353 1399.75 481.16 1400.01 477.96 1400.1L478.62 1403.14C478.638 1403.45 478.545 1403.75 478.356 1404C478.168 1404.25 477.898 1404.42 477.593 1404.49C477.289 1404.55 476.971 1404.51 476.697 1404.36C476.423 1404.21 476.211 1403.97 476.098 1403.68L475.341 1400.19C472.829 1400.19 470.291 1400.08 467.764 1399.86C468.278 1401.5 469.273 1403.45 467.696 1403.95C466.119 1404.45 465.687 1401.87 465.004 1399.6C459.153 1398.94 453.379 1397.71 447.766 1395.93C447.583 1395.91 447.408 1395.84 447.253 1395.75C447.097 1395.65 446.965 1395.52 446.865 1395.36C446.765 1395.21 446.699 1395.03 446.673 1394.85C446.647 1394.67 446.66 1394.48 446.713 1394.31C446.765 1394.13 446.855 1393.97 446.977 1393.83C447.098 1393.69 447.248 1393.58 447.416 1393.5C447.584 1393.43 447.767 1393.39 447.951 1393.39C448.135 1393.4 448.316 1393.44 448.482 1393.52C453.601 1395.13 458.853 1396.27 464.175 1396.95Z" fill="#6A7282"/>
<path d="M1028.51 1303.3C1025.4 1304.05 1022.24 1304.54 1019.05 1304.78L1021.77 1315.33C1028.6 1310.71 1031.2 1307.55 1028.51 1303.3Z" fill="#6A7282"/>
<path d="M1014.19 1305.11C1011.52 1305.25 1008.85 1305.39 1006.1 1305.64L1009.42 1323.1C1012.03 1321.36 1014.7 1319.76 1017.49 1318.03L1014.19 1305.11Z" fill="#6A7282"/>
<path d="M993.991 1364.07L983.279 1313.13C954.617 1331.04 966.986 1360.77 993.991 1364.07Z" fill="#6A7282"/>
<path d="M1007.13 1336.78C1004.09 1336.58 1001.91 1335.89 1001.4 1334.86C1000.02 1332.07 1001.81 1329.11 1005.14 1326.29L1001.32 1306.3C996.599 1307.12 992.017 1308.62 987.724 1310.76L999.021 1364.43C1003.46 1364.46 1007.86 1363.67 1012.01 1362.1L1007.13 1336.78Z" fill="#6A7282"/>
<path d="M1022.25 1336.58C1018.69 1336.75 1015.18 1336.93 1012.04 1336.95L1016.53 1360.08C1020.58 1358.32 1024.05 1356.78 1027.1 1355.37L1022.25 1336.58Z" fill="#6A7282"/>
<path d="M1044.37 1338.55C1043.13 1336.04 1035.57 1335.97 1027.13 1336.36L1031.5 1353.33C1037.27 1350.48 1041.59 1348.35 1046.3 1346.02C1046.47 1343.39 1045.79 1340.77 1044.37 1338.55Z" fill="#6A7282"/>
<path d="M1107.3 1331.83L1079.62 1277.63C1077.58 1279.26 1075.6 1281 1073.73 1282.83L1094.58 1335.69C1098.93 1334.8 1103.19 1333.51 1107.3 1331.83Z" fill="#6A7282"/>
<path d="M1126.24 1320.22L1089.99 1270.42C1087.12 1272.13 1084.35 1273.99 1081.7 1276.01L1109.63 1330.71C1115.48 1327.74 1121.04 1324.22 1126.24 1320.22Z" fill="#6A7282"/>
<path d="M1139.7 1308.09L1100.07 1265.27C1097.39 1266.42 1094.78 1267.71 1092.24 1269.14L1128.23 1318.54C1132.3 1315.34 1136.13 1311.84 1139.7 1308.09Z" fill="#6A7282"/>
<path d="M1111.15 1261.32C1108.25 1262.13 1105.39 1263.1 1102.6 1264.23L1141.46 1306.18C1145.08 1302.15 1148.31 1297.79 1151.11 1293.16L1111.15 1261.32Z" fill="#6A7282"/>
<path d="M1114.25 1260.52L1152.42 1290.89C1158.47 1279.78 1160.49 1268.49 1155.82 1259.04C1144.06 1235.25 1098.55 1253.16 1092.45 1256.17C1067.79 1268.36 1060.48 1280.22 1051.74 1289.47C1053.26 1314.02 1071.8 1319.49 1072.7 1321.3C1073.59 1323.11 1070.97 1329.09 1072.85 1332.9C1074.47 1335.07 1076.45 1336.94 1078.71 1338.44C1083.23 1337.76 1087.73 1337.06 1092.03 1336.22L1071.61 1284.85C1067.88 1288.68 1064.51 1292.85 1061.53 1297.28C1061.44 1297.45 1061.33 1297.59 1061.18 1297.71C1061.04 1297.83 1060.87 1297.91 1060.7 1297.96C1060.52 1298.01 1060.33 1298.02 1060.15 1297.99C1059.96 1297.96 1059.79 1297.89 1059.64 1297.79C1059.48 1297.69 1059.35 1297.56 1059.25 1297.4C1059.15 1297.24 1059.09 1297.07 1059.06 1296.88C1059.04 1296.7 1059.05 1296.51 1059.1 1296.34C1059.15 1296.16 1059.24 1295.99 1059.36 1295.85C1062.67 1290.97 1066.43 1286.41 1070.59 1282.23C1069.71 1280.03 1068.23 1277.81 1069.99 1277.15C1071.74 1276.49 1071.97 1278.71 1072.59 1280.31C1074.43 1278.56 1076.34 1276.89 1078.31 1275.33C1077.26 1273.21 1075.63 1271.24 1077.28 1270.43C1078.92 1269.62 1079.57 1272.14 1080.4 1273.74C1082.96 1271.81 1085.61 1270.03 1088.36 1268.39C1087.4 1267.06 1086.05 1265.75 1087.39 1264.81C1088.73 1263.87 1089.63 1265.75 1090.61 1267.1C1093.05 1265.73 1095.54 1264.46 1098.13 1263.39L1095.6 1260.65C1095.48 1260.53 1095.39 1260.38 1095.33 1260.23C1095.28 1260.07 1095.25 1259.9 1095.25 1259.73C1095.26 1259.39 1095.41 1259.07 1095.66 1258.84C1095.91 1258.6 1096.24 1258.48 1096.58 1258.49C1096.92 1258.5 1097.24 1258.65 1097.47 1258.89L1100.65 1262.31C1103.24 1261.24 1105.93 1260.3 1108.62 1259.49C1107.22 1258.34 1104.97 1257.16 1106.05 1255.77C1106.27 1255.51 1106.58 1255.35 1106.91 1255.31C1107.25 1255.27 1107.58 1255.36 1107.86 1255.57L1111.65 1258.61C1117.44 1257.05 1123.37 1256.06 1129.36 1255.65C1129.54 1255.61 1129.73 1255.61 1129.92 1255.64C1130.1 1255.68 1130.27 1255.76 1130.43 1255.87C1130.58 1255.98 1130.7 1256.13 1130.8 1256.29C1130.89 1256.45 1130.94 1256.64 1130.96 1256.82C1130.97 1257.01 1130.94 1257.2 1130.88 1257.38C1130.81 1257.55 1130.71 1257.71 1130.58 1257.85C1130.44 1257.98 1130.28 1258.08 1130.11 1258.15C1129.93 1258.21 1129.74 1258.24 1129.55 1258.23C1124.4 1258.53 1119.27 1259.29 1114.25 1260.52Z" fill="#6A7282"/>
<path d="M1537.68 715.607C1536.2 718.44 1534.49 721.148 1532.57 723.704L1542.3 728.603C1543.32 720.415 1542.65 716.38 1537.68 715.607Z" fill="#6A7282"/>
<path d="M1529.61 727.582C1527.96 729.684 1526.31 731.786 1524.69 734.023L1540.02 743.015C1540.43 739.907 1540.98 736.839 1541.52 733.605L1529.61 727.582Z" fill="#6A7282"/>
<path d="M1560.71 781.597L1515.31 756.133C1509.93 789.496 1540.45 799.757 1560.71 781.597Z" fill="#6A7282"/>
<path d="M1548.81 753.742C1546.66 755.904 1544.71 757.089 1543.6 756.794C1540.59 755.997 1539.54 752.694 1539.6 748.338L1522.04 738.048C1519.55 742.147 1517.67 746.587 1516.45 751.227L1564.29 778.046C1567.23 774.726 1569.54 770.89 1571.09 766.732L1548.81 753.742Z" fill="#6A7282"/>
<path d="M1558.62 742.23C1556.4 745.017 1554.22 747.782 1552.17 750.165L1572.54 762.004C1573.88 757.794 1575 754.169 1575.95 750.949L1558.62 742.23Z" fill="#6A7282"/>
<path d="M1574.66 726.873C1571.96 726.155 1566.92 731.796 1561.66 738.406L1577.32 746.294C1578.97 740.075 1580.21 735.419 1581.55 730.343C1579.68 728.484 1577.27 727.269 1574.66 726.873Z" fill="#6A7282"/>
<path d="M1611.02 675.075L1552 660.238C1551.89 662.845 1551.89 665.484 1552.04 668.094L1605.55 687.193C1607.75 683.334 1609.58 679.277 1611.02 675.075Z" fill="#6A7282"/>
<path d="M1614.75 653.169L1553.4 647.684C1552.8 650.966 1552.38 654.28 1552.15 657.609L1611.71 672.59C1613.33 666.225 1614.34 659.723 1614.75 653.169Z" fill="#6A7282"/>
<path d="M1614.48 635.058L1556.16 636.711C1555.26 639.482 1554.51 642.3 1553.92 645.152L1614.79 650.577C1615.06 645.403 1614.95 640.217 1614.48 635.058Z" fill="#6A7282"/>
<path d="M1560.48 625.766C1559.17 628.481 1558.03 631.269 1557.04 634.114L1614.2 632.475C1613.54 627.1 1612.39 621.798 1610.75 616.638L1560.48 625.766Z" fill="#6A7282"/>
<path d="M1561.91 622.9L1609.9 614.16C1605.52 602.291 1598.35 593.343 1588.17 590.639C1562.51 583.827 1546.04 629.876 1544.29 636.454C1537.24 663.039 1541.35 676.352 1542.56 689.02C1562.04 704.034 1578.37 693.673 1580.32 694.191C1582.27 694.71 1585.04 700.623 1589.16 701.715C1591.85 701.922 1594.57 701.663 1597.17 700.95C1599.64 697.104 1602.08 693.249 1604.28 689.459L1552.16 671.021C1552.6 676.349 1553.51 681.628 1554.88 686.794C1554.95 686.965 1554.99 687.149 1554.98 687.334C1554.98 687.519 1554.93 687.701 1554.85 687.867C1554.77 688.033 1554.65 688.18 1554.51 688.299C1554.37 688.417 1554.2 688.503 1554.02 688.552C1553.85 688.601 1553.66 688.612 1553.48 688.583C1553.29 688.555 1553.12 688.488 1552.96 688.386C1552.81 688.285 1552.68 688.152 1552.58 687.996C1552.48 687.84 1552.41 687.665 1552.39 687.482C1550.88 681.779 1549.92 675.947 1549.52 670.063C1547.28 669.276 1544.64 668.929 1545.3 667.174C1545.96 665.42 1547.77 666.705 1549.39 667.294C1549.29 664.76 1549.29 662.219 1549.41 659.71C1547.12 659.104 1544.57 659.037 1545.04 657.265C1545.51 655.492 1547.84 656.657 1549.59 657.09C1549.82 653.897 1550.22 650.719 1550.8 647.571C1549.16 647.426 1547.29 647.572 1547.47 645.946C1547.64 644.321 1549.64 644.885 1551.31 645.037C1551.88 642.294 1552.56 639.583 1553.46 636.927L1549.74 637.031C1549.57 637.037 1549.4 637.01 1549.24 636.951C1549.08 636.892 1548.94 636.802 1548.82 636.687C1548.57 636.456 1548.42 636.134 1548.41 635.794C1548.4 635.454 1548.52 635.123 1548.75 634.874C1548.98 634.625 1549.31 634.478 1549.65 634.466L1554.31 634.323C1555.21 631.668 1556.27 629.022 1557.43 626.468C1555.65 626.766 1553.28 627.682 1552.94 625.95C1552.89 625.616 1552.97 625.277 1553.16 625C1553.36 624.723 1553.65 624.529 1553.98 624.458L1558.77 623.608C1561.4 618.219 1564.56 613.101 1568.2 608.328C1568.28 608.162 1568.41 608.017 1568.56 607.903C1568.71 607.788 1568.88 607.708 1569.06 607.667C1569.25 607.626 1569.44 607.625 1569.62 607.664C1569.81 607.704 1569.98 607.783 1570.13 607.895C1570.28 608.008 1570.41 608.152 1570.5 608.318C1570.58 608.483 1570.64 608.667 1570.65 608.854C1570.66 609.042 1570.63 609.231 1570.57 609.407C1570.5 609.583 1570.4 609.742 1570.26 609.874C1567.09 613.955 1564.3 618.315 1561.91 622.9Z" fill="#6A7282"/>
<path d="M1329.3 994.247C1325.57 989.875 1320.89 993.022 1315.81 997.103L1325.09 1002.86C1326.24 999.872 1327.65 996.991 1329.3 994.247Z" fill="#6A7282"/>
<path d="M1311.86 1000.3C1309.49 1002.33 1307 1004.59 1304.6 1006.52L1320.28 1014.89C1321.36 1012.36 1322.31 1009.83 1323.22 1007.3L1311.86 1000.3Z" fill="#6A7282"/>
<path d="M1306.29 1034.36L1260.85 1008.97C1255.98 1035.75 1280.61 1056.59 1306.29 1034.36Z" fill="#6A7282"/>
<path d="M1318.3 1019.31L1300.35 1009.72C1296.67 1012.06 1293.39 1012.97 1291.05 1010.74C1290.13 1009.86 1290.23 1007.64 1290.95 1004.68L1268.21 992.502C1265.45 995.961 1263.35 999.893 1262.01 1004.11L1309.9 1030.84C1313.26 1027.44 1316.09 1023.55 1318.3 1019.31Z" fill="#6A7282"/>
<path d="M1295.61 990.274L1279.05 980.081C1276.72 982.534 1274.3 985.428 1271.44 988.796L1292.15 999.943C1293.16 996.907 1294.37 993.602 1295.61 990.274Z" fill="#6A7282"/>
<path d="M1300.29 968.551C1298.59 966.524 1296.28 965.093 1293.71 964.469C1290.07 968.294 1286.76 971.76 1282.31 976.441L1297.24 985.641C1300.12 977.701 1302.32 970.48 1300.29 968.551Z" fill="#6A7282"/>
<path d="M1368.94 953.031L1325.44 910.475C1322.61 913.896 1320.1 917.579 1317.97 921.472L1362.23 957.108C1364.53 955.865 1366.78 954.491 1368.94 953.031Z" fill="#6A7282"/>
<path d="M1342.16 895.844C1336.79 899.619 1331.78 903.884 1327.19 908.585L1371.11 951.528C1373.82 949.591 1376.43 947.502 1378.91 945.271L1342.16 895.844Z" fill="#6A7282"/>
<path d="M1386.83 937.186L1357.74 886.606C1353.08 888.874 1348.58 891.474 1344.28 894.386L1380.8 943.51C1382.92 941.511 1384.93 939.4 1386.83 937.186Z" fill="#6A7282"/>
<path d="M1375.39 880.153C1370.11 881.429 1364.96 883.188 1360 885.408L1388.49 934.991C1390.4 932.661 1392.17 930.225 1393.81 927.695L1375.39 880.153Z" fill="#6A7282"/>
<path d="M1359.75 958.443L1316.7 923.745C1314.62 927.599 1312.61 931.693 1310.62 935.808C1311.36 938.413 1312.55 940.868 1314.14 943.065C1317.24 946.023 1323.46 944.993 1325.22 946.665C1326.97 948.337 1326.36 967.367 1349.35 976.129C1360.77 970.531 1374.28 967.081 1393.25 947.164C1397.94 942.236 1428.58 904.118 1409.36 885.812C1401.76 878.567 1390.36 877.107 1377.95 879.586L1395.7 924.989C1398.39 920.535 1400.68 915.852 1402.55 910.995C1402.59 910.811 1402.67 910.639 1402.78 910.49C1402.9 910.34 1403.04 910.218 1403.21 910.13C1403.38 910.042 1403.56 909.992 1403.75 909.982C1403.94 909.972 1404.12 910.003 1404.3 910.072C1404.47 910.142 1404.63 910.249 1404.76 910.385C1404.89 910.521 1404.99 910.684 1405.05 910.862C1405.11 911.041 1405.14 911.23 1405.12 911.417C1405.1 911.605 1405.04 911.786 1404.94 911.948C1402.77 917.541 1400.06 922.909 1396.85 927.973L1398.63 932.502C1398.7 932.809 1398.65 933.131 1398.5 933.409C1398.36 933.686 1398.11 933.901 1397.82 934.012C1397.52 934.124 1397.2 934.125 1396.9 934.016C1396.61 933.907 1396.36 933.695 1396.21 933.418L1395.11 930.609C1393.52 932.956 1391.83 935.218 1390.02 937.394L1392.36 941.426C1392.49 941.721 1392.5 942.054 1392.4 942.359C1392.3 942.665 1392.09 942.923 1391.81 943.082C1391.53 943.242 1391.2 943.292 1390.89 943.224C1390.57 943.156 1390.29 942.973 1390.1 942.712L1388.27 939.459C1386.34 941.485 1384.41 943.51 1382.48 945.535C1383.46 946.853 1384.99 948.266 1383.67 949.288C1382.35 950.309 1381.54 948.592 1380.56 947.275C1378.18 949.411 1375.68 951.417 1373.08 953.282L1375.33 955.426C1375.52 955.673 1375.62 955.979 1375.6 956.29C1375.59 956.601 1375.46 956.896 1375.24 957.122C1375.03 957.347 1374.74 957.488 1374.43 957.52C1374.12 957.552 1373.81 957.471 1373.55 957.294L1370.97 954.829C1368.87 956.265 1366.72 957.57 1364.51 958.811C1365.75 959.99 1367.77 960.93 1366.73 962.252C1365.68 963.575 1363.92 961.639 1362.08 960.145C1356.86 962.897 1351.39 965.128 1345.73 966.808C1345.56 966.881 1345.38 966.917 1345.2 966.914C1345.01 966.91 1344.83 966.868 1344.66 966.789C1344.49 966.709 1344.35 966.596 1344.23 966.455C1344.11 966.314 1344.02 966.149 1343.97 965.971C1343.91 965.794 1343.9 965.607 1343.93 965.424C1343.95 965.24 1344.02 965.065 1344.12 964.909C1344.22 964.753 1344.35 964.619 1344.5 964.518C1344.66 964.416 1344.83 964.348 1345.01 964.319C1350.09 962.803 1355.03 960.837 1359.75 958.443Z" fill="#6A7282"/>
<path d="M1122.11 1159.63C1119.73 1154.4 1114.37 1156.13 1108.35 1158.65L1115.69 1166.74C1117.62 1164.19 1119.77 1161.81 1122.11 1159.63Z" fill="#6A7282"/>
<path d="M1103.68 1160.63C1100.84 1161.93 1097.82 1163.42 1094.99 1164.61L1107.74 1176.98C1109.48 1174.85 1111.09 1172.68 1112.66 1170.5L1103.68 1160.63Z" fill="#6A7282"/>
<path d="M1088.92 1191.83L1052.26 1154.88C1040.18 1179.28 1058.1 1206.1 1088.92 1191.83Z" fill="#6A7282"/>
<path d="M1104.62 1180.68L1090.01 1166.51C1085.83 1167.74 1082.43 1167.71 1080.8 1164.92C1080.15 1163.82 1080.86 1161.71 1082.37 1159.07L1063.88 1141.08C1060.27 1143.65 1057.17 1146.85 1054.71 1150.52L1093.36 1189.44C1097.53 1187.1 1101.32 1184.15 1104.62 1180.68Z" fill="#6A7282"/>
<path d="M1090.83 1146.51L1077.73 1132.14C1074.81 1133.85 1071.69 1135.97 1068.01 1138.41L1084.84 1154.85C1086.64 1152.21 1088.72 1149.37 1090.83 1146.51Z" fill="#6A7282"/>
<path d="M1101.33 1126.92C1100.25 1124.5 1098.43 1122.49 1096.13 1121.18C1091.57 1123.85 1087.44 1126.27 1081.86 1129.54L1093.67 1142.5C1098.64 1135.67 1102.74 1129.34 1101.33 1126.92Z" fill="#6A7282"/>
<path d="M1171.6 1130.97L1141.53 1078.05C1137.87 1080.56 1134.45 1083.4 1131.32 1086.56L1164.02 1133.03C1166.57 1132.47 1169.11 1131.77 1171.6 1130.97Z" fill="#6A7282"/>
<path d="M1161.65 1068.61C1155.44 1070.75 1149.45 1073.47 1143.74 1076.72L1174.09 1130.12C1177.24 1129.01 1180.32 1127.72 1183.32 1126.26L1161.65 1068.61Z" fill="#6A7282"/>
<path d="M1193.16 1120.67L1179.17 1064.03C1174.06 1064.92 1169.02 1066.18 1164.09 1067.79L1185.62 1125.09C1188.21 1123.75 1190.73 1122.28 1193.16 1120.67Z" fill="#6A7282"/>
<path d="M1197.92 1062.7C1192.49 1062.47 1187.05 1062.74 1181.67 1063.5L1195.36 1119.02C1197.84 1117.31 1200.22 1115.46 1202.49 1113.48L1197.92 1062.7Z" fill="#6A7282"/>
<path d="M1161.27 1133.63L1129.47 1088.39C1126.41 1091.52 1123.34 1094.9 1120.3 1098.31C1120.29 1101.01 1120.76 1103.7 1121.67 1106.25C1123.84 1109.95 1130.1 1110.68 1131.33 1112.77C1132.55 1114.86 1126.71 1132.98 1146.38 1147.75C1158.91 1145.53 1172.84 1145.94 1196.57 1132.04C1202.45 1128.6 1242.42 1100.42 1229.01 1077.52C1223.7 1068.46 1213.14 1063.91 1200.53 1062.86L1205.05 1111.4C1208.87 1107.86 1212.36 1104 1215.5 1099.84C1215.59 1099.68 1215.71 1099.53 1215.87 1099.42C1216.02 1099.31 1216.19 1099.23 1216.38 1099.2C1216.56 1099.16 1216.75 1099.16 1216.93 1099.2C1217.12 1099.24 1217.29 1099.33 1217.44 1099.44C1217.59 1099.56 1217.71 1099.7 1217.8 1099.87C1217.89 1100.04 1217.94 1100.22 1217.94 1100.41C1217.95 1100.6 1217.92 1100.78 1217.85 1100.96C1217.78 1101.13 1217.68 1101.29 1217.54 1101.42C1213.91 1106.2 1209.82 1110.61 1205.33 1114.59L1205.79 1119.43C1205.78 1119.75 1205.65 1120.04 1205.43 1120.27C1205.21 1120.5 1204.91 1120.63 1204.6 1120.66C1204.28 1120.69 1203.97 1120.6 1203.72 1120.41C1203.46 1120.22 1203.29 1119.95 1203.22 1119.64L1202.93 1116.64C1200.76 1118.46 1198.52 1120.17 1196.17 1121.76L1197.31 1126.28C1197.35 1126.6 1197.27 1126.92 1197.09 1127.19C1196.91 1127.45 1196.63 1127.64 1196.32 1127.72C1196.01 1127.79 1195.68 1127.75 1195.39 1127.6C1195.11 1127.45 1194.89 1127.19 1194.78 1126.89L1193.91 1123.26C1191.5 1124.67 1189.09 1126.09 1186.67 1127.5C1187.25 1129.04 1188.33 1130.82 1186.78 1131.43C1185.24 1132.05 1184.93 1130.18 1184.35 1128.64C1181.47 1130.04 1178.52 1131.28 1175.5 1132.35L1177.08 1135.03C1177.19 1135.32 1177.2 1135.64 1177.09 1135.94C1176.99 1136.23 1176.79 1136.48 1176.52 1136.64C1176.25 1136.79 1175.94 1136.85 1175.63 1136.8C1175.32 1136.74 1175.05 1136.58 1174.85 1136.34L1173.04 1133.25C1170.63 1134.05 1168.21 1134.71 1165.74 1135.3C1166.6 1136.77 1168.29 1138.23 1166.92 1139.22C1165.55 1140.2 1164.39 1137.85 1163.04 1135.91C1157.26 1137.11 1151.38 1137.74 1145.48 1137.8C1145.3 1137.82 1145.11 1137.8 1144.94 1137.75C1144.76 1137.7 1144.6 1137.6 1144.46 1137.48C1144.32 1137.36 1144.21 1137.21 1144.13 1137.04C1144.06 1136.87 1144.02 1136.69 1144.01 1136.5C1144.01 1136.32 1144.05 1136.14 1144.13 1135.97C1144.21 1135.8 1144.32 1135.65 1144.45 1135.53C1144.59 1135.4 1144.76 1135.31 1144.93 1135.26C1145.11 1135.2 1145.3 1135.18 1145.48 1135.21C1150.78 1135.15 1156.06 1134.62 1161.27 1133.63Z" fill="#6A7282"/>
<path d="M1518.51 523.463C1513.01 521.772 1510.76 526.933 1508.65 533.106L1519.57 532.988C1518.94 529.849 1518.59 526.662 1518.51 523.463Z" fill="#6A7282"/>
<path d="M1507.03 537.917C1506.12 540.906 1505.22 544.15 1504.24 547.059L1521.96 545.722C1521.51 543.004 1520.96 540.36 1520.37 537.74L1507.03 537.917Z" fill="#6A7282"/>
<path d="M1520.58 569.655L1468.61 572.574C1478.85 597.795 1510.81 602.191 1520.58 569.655Z" fill="#6A7282"/>
<path d="M1522.66 550.518L1502.36 552.043C1500.5 555.984 1498.23 558.512 1495.06 557.884C1493.81 557.636 1492.7 555.706 1491.72 552.818L1466 554.725C1465.52 559.123 1465.86 563.569 1466.98 567.847L1521.74 564.752C1522.75 560.079 1523.06 555.282 1522.66 550.518Z" fill="#6A7282"/>
<path d="M1487.94 538.16L1468.5 538.428C1467.84 541.751 1467.35 545.489 1466.74 549.866L1490.2 548.177C1489.42 545.076 1488.68 541.633 1487.94 538.16Z" fill="#6A7282"/>
<path d="M1480.25 517.311C1477.73 516.512 1475.01 516.541 1472.5 517.392C1471.48 522.575 1470.55 527.27 1469.29 533.612L1486.83 533.378C1485.01 525.128 1482.99 517.854 1480.25 517.311Z" fill="#6A7282"/>
<path d="M1529.9 467.419L1470.36 454.803C1469.8 459.209 1469.66 463.659 1469.94 468.091L1526.41 474.459C1527.69 472.177 1528.85 469.81 1529.9 467.419Z" fill="#6A7282"/>
<path d="M1476.64 433.488C1474.12 439.554 1472.18 445.841 1470.83 452.267L1530.91 464.991C1532.17 461.9 1533.25 458.739 1534.15 455.526L1476.64 433.488Z" fill="#6A7282"/>
<path d="M1536.5 444.459L1484.84 417.34C1482.12 421.756 1479.71 426.362 1477.65 431.122L1534.81 453.026C1535.52 450.203 1536.09 447.343 1536.5 444.459Z" fill="#6A7282"/>
<path d="M1496.29 402.433C1492.51 406.34 1489.1 410.586 1486.11 415.118L1536.73 441.715C1537.09 438.725 1537.29 435.717 1537.31 432.705L1496.29 402.433Z" fill="#6A7282"/>
<path d="M1525.04 476.913L1470.09 470.689C1470.4 475.058 1470.9 479.592 1471.42 484.132C1473.45 485.933 1475.77 487.368 1478.28 488.374C1482.49 489.207 1487.19 485.005 1489.57 485.476C1491.94 485.947 1501.62 502.344 1525.73 497.423C1532.37 486.573 1541.93 476.425 1547.27 449.443C1548.59 442.766 1554.04 394.164 1528 389.007C1517.69 386.966 1507.29 391.844 1498.14 400.583L1537.46 429.408C1537.34 424.206 1536.76 419.024 1535.74 413.923C1535.68 413.745 1535.65 413.556 1535.67 413.369C1535.69 413.181 1535.74 412.999 1535.84 412.836C1535.93 412.673 1536.06 412.532 1536.21 412.422C1536.36 412.313 1536.54 412.238 1536.73 412.203C1536.91 412.168 1537.1 412.174 1537.28 412.219C1537.47 412.265 1537.64 412.349 1537.78 412.467C1537.93 412.585 1538.05 412.733 1538.14 412.901C1538.22 413.07 1538.27 413.254 1538.27 413.443C1539.44 419.327 1540.03 425.312 1540.03 431.311L1543.96 434.18C1544.18 434.402 1544.32 434.698 1544.34 435.012C1544.36 435.326 1544.27 435.638 1544.08 435.89C1543.89 436.142 1543.62 436.317 1543.31 436.383C1543 436.449 1542.68 436.402 1542.41 436.25L1539.97 434.468C1539.88 437.303 1539.68 440.113 1539.31 442.924L1543.45 445.074C1543.71 445.254 1543.9 445.526 1543.98 445.839C1544.06 446.151 1544.02 446.482 1543.87 446.767C1543.72 447.051 1543.47 447.27 1543.17 447.381C1542.86 447.492 1542.53 447.487 1542.23 447.368L1538.94 445.606C1538.39 448.35 1537.85 451.094 1537.31 453.838C1538.84 454.426 1540.89 454.8 1540.32 456.368C1539.76 457.936 1538.15 456.921 1536.62 456.332C1535.75 459.413 1534.72 462.445 1533.52 465.414L1536.57 466.018C1536.87 466.124 1537.11 466.332 1537.26 466.604C1537.42 466.875 1537.47 467.192 1537.41 467.498C1537.35 467.803 1537.18 468.077 1536.93 468.27C1536.69 468.462 1536.38 468.561 1536.07 468.548L1532.57 467.854C1531.56 470.19 1530.45 472.441 1529.25 474.674C1530.93 475.007 1533.14 474.716 1532.97 476.393C1532.79 478.069 1530.27 477.379 1527.91 477.103C1524.98 482.222 1521.56 487.04 1517.68 491.489C1517.58 491.641 1517.44 491.77 1517.28 491.867C1517.13 491.963 1516.95 492.025 1516.77 492.047C1516.58 492.07 1516.4 492.054 1516.22 491.999C1516.04 491.944 1515.88 491.853 1515.74 491.73C1515.6 491.608 1515.49 491.457 1515.41 491.288C1515.34 491.12 1515.3 490.937 1515.3 490.752C1515.3 490.567 1515.34 490.384 1515.41 490.215C1515.49 490.046 1515.6 489.896 1515.74 489.773C1519.22 485.772 1522.33 481.468 1525.04 476.913Z" fill="#6A7282"/>
<path d="M1526.37 250.23C1520.63 250.447 1520.2 256.064 1520.24 262.586L1530.52 258.872C1528.89 256.115 1527.5 253.224 1526.37 250.23Z" fill="#6A7282"/>
<path d="M1520.3 267.663C1520.43 270.784 1520.66 274.142 1520.68 277.215L1536.97 270.106C1535.66 267.687 1534.26 265.373 1532.84 263.095L1520.3 267.663Z" fill="#6A7282"/>
<path d="M1543.56 293.155L1495.47 313.054C1513.46 333.484 1545.07 327.094 1543.56 293.155Z" fill="#6A7282"/>
<path d="M1539.21 274.403L1520.56 282.538C1520.1 286.871 1518.79 290.008 1515.59 290.461C1514.33 290.64 1512.65 289.183 1510.77 286.78L1487.11 297.067C1488.12 301.374 1489.9 305.462 1492.37 309.13L1543.04 288.144C1542.46 283.399 1541.17 278.768 1539.21 274.403Z" fill="#6A7282"/>
<path d="M1502.36 274.19L1484.1 280.857C1484.57 284.211 1485.34 287.9 1486.21 292.235L1507.8 282.9C1506.04 280.23 1504.2 277.225 1502.36 274.19Z" fill="#6A7282"/>
<path d="M1488.23 257.044C1485.58 257.123 1483.03 258.045 1480.94 259.676C1481.68 264.908 1482.35 269.647 1483.26 276.047L1499.73 270.042C1495.3 262.854 1491 256.652 1488.23 257.044Z" fill="#6A7282"/>
<path d="M1518.63 193.568L1458.27 201.299C1459.19 205.643 1460.53 209.889 1462.26 213.98L1517.67 201.365C1518.12 198.789 1518.44 196.17 1518.63 193.568Z" fill="#6A7282"/>
<path d="M1457.17 179.105C1456.79 185.661 1457.03 192.237 1457.87 198.749L1518.8 190.94C1518.96 187.607 1518.94 184.267 1518.73 180.936L1457.17 179.105Z" fill="#6A7282"/>
<path d="M1517.3 169.713L1459.58 161.153C1458.47 166.221 1457.72 171.363 1457.34 176.539L1518.52 178.36C1518.27 175.458 1517.86 172.572 1517.3 169.713Z" fill="#6A7282"/>
<path d="M1465.47 143.307C1463.19 148.241 1461.38 153.373 1460.04 158.64L1516.61 167.049C1515.96 164.107 1515.15 161.203 1514.18 158.352L1465.47 143.307Z" fill="#6A7282"/>
<path d="M1517.18 204.134L1463.26 216.382C1464.99 220.406 1466.95 224.523 1468.95 228.635C1471.45 229.667 1474.12 230.257 1476.82 230.376C1481.07 229.775 1484.12 224.258 1486.52 223.919C1488.92 223.579 1503.47 235.865 1524.6 223.268C1527.29 210.832 1532.96 198.101 1529.11 170.867C1528.15 164.128 1517.26 116.451 1490.98 120.171C1480.58 121.644 1472.36 129.681 1466.61 140.948L1513.23 155.191C1511.41 150.318 1509.15 145.616 1506.5 141.139C1506.38 140.992 1506.3 140.822 1506.25 140.639C1506.21 140.456 1506.2 140.266 1506.24 140.081C1506.27 139.896 1506.35 139.72 1506.45 139.567C1506.56 139.413 1506.7 139.285 1506.87 139.19C1507.03 139.096 1507.21 139.038 1507.4 139.021C1507.59 139.004 1507.78 139.027 1507.95 139.09C1508.13 139.153 1508.29 139.253 1508.43 139.384C1508.56 139.515 1508.67 139.674 1508.74 139.85C1511.78 145.02 1514.31 150.476 1516.29 156.14L1520.94 157.552C1521.23 157.688 1521.45 157.922 1521.58 158.211C1521.7 158.499 1521.72 158.824 1521.62 159.124C1521.53 159.424 1521.33 159.68 1521.06 159.844C1520.79 160.008 1520.47 160.07 1520.16 160.017L1517.27 159.139C1518.13 161.843 1518.86 164.564 1519.44 167.339L1524.05 168.004C1524.37 168.086 1524.64 168.28 1524.81 168.549C1524.99 168.819 1525.06 169.144 1525.01 169.462C1524.96 169.781 1524.8 170.07 1524.55 170.274C1524.3 170.479 1523.99 170.584 1523.66 170.57L1519.97 169.994C1520.37 172.764 1520.76 175.533 1521.15 178.303C1522.79 178.353 1524.85 178.031 1524.83 179.696C1524.82 181.362 1522.97 180.934 1521.33 180.883C1521.52 184.078 1521.55 187.281 1521.4 190.478L1524.48 190.043C1524.79 190.047 1525.09 190.162 1525.32 190.368C1525.55 190.574 1525.71 190.857 1525.75 191.165C1525.79 191.473 1525.73 191.787 1525.56 192.05C1525.39 192.312 1525.13 192.506 1524.84 192.597L1521.3 193.098C1521.12 195.634 1520.82 198.126 1520.42 200.63C1522.11 200.391 1524.1 199.387 1524.49 201.027C1524.88 202.667 1522.27 202.848 1519.96 203.364C1518.88 209.163 1517.23 214.842 1515.04 220.319C1515 220.498 1514.91 220.664 1514.79 220.808C1514.68 220.951 1514.53 221.067 1514.36 221.149C1514.2 221.231 1514.02 221.277 1513.83 221.284C1513.65 221.291 1513.46 221.258 1513.29 221.188C1513.12 221.118 1512.97 221.013 1512.84 220.878C1512.71 220.744 1512.61 220.585 1512.55 220.41C1512.49 220.235 1512.47 220.049 1512.48 219.865C1512.5 219.681 1512.56 219.502 1512.65 219.341C1514.61 214.417 1516.12 209.328 1517.18 204.134Z" fill="#6A7282"/>
<path d="M1428.36 985.57C1426.29 988.005 1424.03 990.268 1421.59 992.337L1429.98 999.294C1432.78 991.534 1433.03 987.451 1428.36 985.57Z" fill="#6A7282"/>
<path d="M1417.85 995.464C1415.77 997.148 1413.68 998.86 1411.6 1000.68L1424.57 1012.84C1425.65 1009.9 1426.87 1007.03 1428.11 1004L1417.85 995.464Z" fill="#6A7282"/>
<path d="M1436.23 1055.02L1397.65 1020.29C1384.95 1051.49 1412.38 1068.39 1436.23 1055.02Z" fill="#6A7282"/>
<path d="M1430.77 1025.25C1428.21 1026.86 1426.03 1027.61 1425.01 1027.07C1422.25 1025.63 1421.96 1022.18 1422.98 1017.94L1408.13 1004.03C1404.8 1007.46 1401.99 1011.37 1399.78 1015.62L1440.49 1052.37C1444.05 1049.75 1447.1 1046.5 1449.48 1042.77L1430.77 1025.25Z" fill="#6A7282"/>
<path d="M1442.88 1016.19C1440.17 1018.28 1437.38 1020.61 1434.84 1022.5L1452.08 1038.55C1454.31 1034.77 1456.2 1031.48 1457.86 1028.53L1442.88 1016.19Z" fill="#6A7282"/>
<path d="M1461.89 1004.82C1459.41 1003.52 1453.26 1007.91 1446.66 1013.19L1460.17 1024.37C1463.16 1018.67 1465.39 1014.4 1467.85 1009.72C1466.41 1007.51 1464.33 1005.8 1461.89 1004.82Z" fill="#6A7282"/>
<path d="M1508.85 962.259L1454.57 934.738C1453.86 937.283 1453.3 939.83 1452.85 942.435L1500.83 972.868C1503.83 969.592 1506.52 966.04 1508.85 962.259Z" fill="#6A7282"/>
<path d="M1517.33 941.719L1458.71 922.805C1457.39 925.883 1456.25 929.031 1455.28 932.236L1510.06 960.016C1513.04 954.155 1515.48 948.03 1517.33 941.719Z" fill="#6A7282"/>
<path d="M1521.07 923.994L1463.81 912.738C1462.33 915.234 1460.98 917.807 1459.77 920.447L1517.94 939.2C1519.35 934.212 1520.39 929.131 1521.07 923.994Z" fill="#6A7282"/>
<path d="M1470.46 902.994C1468.59 905.355 1466.85 907.819 1465.26 910.375L1521.35 921.442C1521.9 916.047 1521.96 910.612 1521.5 905.208L1470.46 902.994Z" fill="#6A7282"/>
<path d="M1472.49 900.516L1521.22 902.602C1519.56 890.087 1514.55 879.775 1505.21 874.886C1481.7 862.571 1455.47 903.809 1452.3 909.866C1439.55 934.204 1440.62 948.099 1438.99 960.719C1454.68 979.671 1472.89 973.174 1474.68 974.112C1476.47 975.049 1477.85 981.456 1481.62 983.432C1484.2 984.229 1486.9 984.577 1489.61 984.458C1492.86 981.253 1496.09 978.033 1499.07 974.822L1452.39 945.179C1451.64 950.481 1451.36 955.84 1451.55 961.192C1451.56 961.361 1451.53 961.529 1451.47 961.688C1451.41 961.846 1451.32 961.991 1451.21 962.115C1451.09 962.239 1450.95 962.338 1450.8 962.409C1450.64 962.479 1450.48 962.518 1450.31 962.524C1450.14 962.53 1449.97 962.502 1449.81 962.443C1449.65 962.384 1449.51 962.294 1449.39 962.179C1449.26 962.064 1449.16 961.925 1449.09 961.771C1449.02 961.617 1448.98 961.451 1448.98 961.282C1448.77 955.398 1449.11 949.507 1450.02 943.688C1448.03 942.4 1445.59 941.367 1446.54 939.939C1447.5 938.511 1449.06 940.028 1450.51 940.931C1450.98 938.438 1451.53 935.987 1452.21 933.54C1450.12 932.444 1447.63 931.841 1448.49 930.189C1449.36 928.537 1451.36 930.215 1452.95 931.051C1453.89 927.99 1454.98 924.981 1456.24 922.035C1454.69 921.506 1452.82 921.262 1453.35 919.715C1453.88 918.168 1455.72 919.134 1457.31 919.651C1458.47 917.101 1459.74 914.608 1461.2 912.217L1457.53 911.522C1457.23 911.428 1456.96 911.223 1456.8 910.946C1456.63 910.67 1456.57 910.343 1456.64 910.026C1456.7 909.71 1456.87 909.428 1457.13 909.233C1457.39 909.039 1457.71 908.946 1458.03 908.973L1462.6 909.894C1464.07 907.475 1465.68 905.156 1467.39 902.894C1465.57 902.818 1463.07 903.16 1463.1 901.423C1463.13 901.082 1463.29 900.764 1463.54 900.532C1463.79 900.3 1464.12 900.171 1464.46 900.17L1469.32 900.401C1473.07 895.724 1477.26 891.421 1481.84 887.555C1481.96 887.412 1482.12 887.298 1482.29 887.22C1482.46 887.141 1482.65 887.101 1482.83 887.102C1483.02 887.102 1483.21 887.143 1483.38 887.223C1483.55 887.302 1483.7 887.417 1483.82 887.561C1483.95 887.704 1484.04 887.872 1484.09 888.053C1484.14 888.235 1484.15 888.425 1484.12 888.611C1484.09 888.797 1484.02 888.974 1483.92 889.131C1483.81 889.288 1483.67 889.42 1483.51 889.519C1479.51 892.842 1475.82 896.523 1472.49 900.516Z" fill="#6A7282"/>
<path d="M1259.1 1167.25C1256.12 1168.41 1253.05 1169.32 1249.92 1169.99L1254.01 1180.09C1260.16 1174.59 1262.31 1171.12 1259.1 1167.25Z" fill="#6A7282"/>
<path d="M1245.15 1170.96C1242.52 1171.46 1239.87 1171.98 1237.17 1172.6L1242.81 1189.45C1245.16 1187.38 1247.6 1185.43 1250.13 1183.35L1245.15 1170.96Z" fill="#6A7282"/>
<path d="M1233.05 1232.11L1215.59 1183.22C1189.6 1204.66 1205.72 1232.55 1233.05 1232.11Z" fill="#6A7282"/>
<path d="M1242.38 1203.31C1239.36 1203.51 1237.09 1203.14 1236.44 1202.18C1234.7 1199.61 1236.08 1196.43 1239 1193.19L1232.53 1173.89C1227.97 1175.33 1223.64 1177.43 1219.68 1180.12L1238.06 1231.8C1242.44 1231.18 1246.67 1229.77 1250.53 1227.62L1242.38 1203.31Z" fill="#6A7282"/>
<path d="M1257.34 1201.09C1253.96 1201.64 1250.4 1202.36 1247.26 1202.83L1254.82 1225.14C1258.58 1222.87 1261.81 1220.88 1264.67 1219.06L1257.34 1201.09Z" fill="#6A7282"/>
<path d="M1279.47 1200.1C1277.91 1197.79 1270.4 1198.72 1262.09 1200.25L1268.68 1216.5C1274.01 1212.9 1278 1210.21 1282.38 1207.25C1282.17 1204.63 1281.15 1202.13 1279.47 1200.1Z" fill="#6A7282"/>
<path d="M1341 1184.94L1306.29 1134.95C1304.47 1136.85 1302.76 1138.83 1301.13 1140.91L1328.91 1190.47C1333.11 1189.01 1337.16 1187.16 1341 1184.94Z" fill="#6A7282"/>
<path d="M1358.22 1170.89L1315.6 1126.41C1312.98 1128.5 1310.48 1130.72 1308.11 1133.09L1343.13 1183.54C1348.54 1179.8 1353.59 1175.56 1358.22 1170.89Z" fill="#6A7282"/>
<path d="M1369.92 1157.06L1324.87 1119.97C1322.38 1121.47 1319.97 1123.09 1317.66 1124.84L1359.95 1168.96C1363.56 1165.24 1366.89 1161.26 1369.92 1157.06Z" fill="#6A7282"/>
<path d="M1335.35 1114.55C1332.58 1115.74 1329.88 1117.09 1327.27 1118.58L1371.38 1154.95C1374.43 1150.46 1377.06 1145.71 1379.22 1140.73L1335.35 1114.55Z" fill="#6A7282"/>
<path d="M1338.31 1113.34L1380.21 1138.31C1384.7 1126.51 1385.17 1115.05 1379.28 1106.31C1364.43 1084.31 1321.77 1108.16 1316.1 1111.98C1293.33 1127.35 1287.67 1140.09 1280.25 1150.42C1285.06 1174.55 1304.17 1177.48 1305.3 1179.15C1306.43 1180.82 1304.6 1187.12 1306.99 1190.65C1308.88 1192.58 1311.09 1194.17 1313.53 1195.34C1317.92 1194.07 1322.29 1192.77 1326.44 1191.36L1299.42 1143.11C1296.24 1147.42 1293.45 1152 1291.08 1156.8C1291 1156.95 1290.9 1157.09 1290.77 1157.2C1290.65 1157.31 1290.5 1157.39 1290.34 1157.45C1290.18 1157.5 1290.01 1157.53 1289.84 1157.51C1289.67 1157.5 1289.51 1157.46 1289.35 1157.38C1289.2 1157.31 1289.07 1157.2 1288.96 1157.08C1288.85 1156.95 1288.76 1156.8 1288.71 1156.64C1288.65 1156.48 1288.63 1156.31 1288.64 1156.14C1288.65 1155.97 1288.7 1155.81 1288.77 1155.66C1291.38 1150.38 1294.48 1145.36 1298.04 1140.67C1296.9 1138.59 1295.24 1136.52 1296.76 1135.72C1298.28 1134.92 1298.93 1136.99 1299.79 1138.48C1301.38 1136.5 1303.02 1134.6 1304.79 1132.78C1303.47 1130.82 1301.56 1129.1 1303.11 1128.06C1304.65 1127.02 1305.61 1129.44 1306.62 1130.94C1308.9 1128.69 1311.29 1126.56 1313.79 1124.56C1312.68 1123.36 1311.15 1122.26 1312.35 1121.15C1313.55 1120.04 1314.72 1121.76 1315.87 1122.97C1318.1 1121.28 1320.4 1119.69 1322.83 1118.28L1319.92 1115.92C1319.7 1115.69 1319.57 1115.39 1319.55 1115.07C1319.54 1114.75 1319.64 1114.43 1319.84 1114.18C1320.05 1113.93 1320.34 1113.77 1320.66 1113.72C1320.97 1113.67 1321.3 1113.74 1321.57 1113.92L1325.15 1116.89C1327.6 1115.47 1330.11 1114.19 1332.69 1113.01C1331.13 1112.08 1328.77 1111.19 1329.62 1109.68C1329.81 1109.39 1330.1 1109.19 1330.43 1109.1C1330.76 1109.02 1331.11 1109.06 1331.41 1109.22L1335.58 1111.73C1341.1 1109.39 1346.83 1107.6 1352.7 1106.37C1352.87 1106.3 1353.06 1106.27 1353.25 1106.29C1353.44 1106.3 1353.62 1106.35 1353.79 1106.44C1353.95 1106.53 1354.09 1106.66 1354.21 1106.81C1354.32 1106.96 1354.4 1107.13 1354.44 1107.32C1354.48 1107.5 1354.48 1107.69 1354.44 1107.87C1354.39 1108.06 1354.31 1108.23 1354.2 1108.38C1354.09 1108.53 1353.94 1108.65 1353.77 1108.74C1353.61 1108.83 1353.42 1108.88 1353.24 1108.89C1348.14 1109.92 1343.14 1111.41 1338.31 1113.34Z" fill="#6A7282"/>
<path d="M1606.42 444.316C1605.65 447.42 1604.63 450.456 1603.37 453.394L1613.99 455.878C1613.03 447.683 1611.43 443.92 1606.42 444.316Z" fill="#6A7282"/>
<path d="M1601.42 457.862C1600.31 460.296 1599.21 462.761 1598.16 465.32L1615.19 470.419C1614.84 467.304 1614.66 464.191 1614.41 460.922L1601.42 457.862Z" fill="#6A7282"/>
<path d="M1644.43 502.965L1594.42 489.087C1596.97 522.681 1629.06 525.566 1644.43 502.965Z" fill="#6A7282"/>
<path d="M1626.27 478.756C1624.7 481.335 1623.08 482.981 1621.93 482.958C1618.82 482.895 1617.01 479.937 1616.04 475.689L1596.55 469.856C1595.1 474.419 1594.32 479.168 1594.24 483.954L1647.07 498.697C1649.09 494.76 1650.36 490.487 1650.84 486.09L1626.27 478.756Z" fill="#6A7282"/>
<path d="M1633.07 465.247C1631.58 468.325 1630.11 471.653 1628.69 474.484L1651.28 481.157C1651.58 476.78 1651.82 472.992 1651.98 469.607L1633.07 465.247Z" fill="#6A7282"/>
<path d="M1645.01 446.587C1642.22 446.53 1638.66 453.204 1635.12 460.873L1652.2 464.855C1652.33 458.423 1652.42 453.606 1652.53 448.324C1650.26 446.985 1647.64 446.379 1645.01 446.587Z" fill="#6A7282"/>
<path d="M1668.06 387.552L1607.2 387.133C1607.7 389.724 1608.34 392.254 1609.09 394.788L1665.62 400.621C1666.84 396.352 1667.66 391.976 1668.06 387.552Z" fill="#6A7282"/>
<path d="M1666.48 365.387L1605.58 374.604C1605.78 377.946 1606.16 381.275 1606.72 384.574L1668.14 385.005C1668.2 378.428 1667.64 371.86 1666.48 365.387Z" fill="#6A7282"/>
<path d="M1661.92 347.856L1605.66 363.321C1605.44 366.216 1605.38 369.121 1605.48 372.022L1665.91 362.857C1664.94 357.768 1663.61 352.755 1661.92 347.856Z" fill="#6A7282"/>
<path d="M1607.26 351.634C1606.64 354.581 1606.19 357.561 1605.9 360.559L1661.04 345.444C1659.13 340.368 1656.75 335.481 1653.94 330.846L1607.26 351.634Z" fill="#6A7282"/>
<path d="M1607.98 348.508L1652.52 328.641C1645.46 318.178 1636.36 311.187 1625.83 310.974C1599.29 310.439 1594.21 359.049 1594.07 365.885C1593.52 393.354 1600.68 405.311 1604.85 417.333C1627.34 427.299 1640.74 413.362 1642.76 413.403C1644.78 413.444 1648.87 418.562 1653.13 418.648C1655.8 418.209 1658.37 417.315 1660.74 416.004C1662.22 411.682 1663.68 407.359 1664.91 403.156L1609.91 397.446C1611.6 402.528 1613.74 407.45 1616.3 412.154C1616.38 412.303 1616.43 412.466 1616.45 412.634C1616.47 412.802 1616.45 412.972 1616.4 413.135C1616.35 413.297 1616.27 413.448 1616.17 413.579C1616.06 413.711 1615.93 413.82 1615.78 413.9C1615.63 413.981 1615.47 414.032 1615.3 414.049C1615.13 414.067 1614.96 414.052 1614.8 414.003C1614.64 413.955 1614.49 413.876 1614.36 413.77C1614.23 413.663 1614.12 413.532 1614.04 413.383C1611.22 408.211 1608.91 402.783 1607.12 397.172C1604.76 396.907 1602.12 397.071 1602.34 395.366C1602.56 393.661 1604.63 394.324 1606.33 394.483C1605.64 392.044 1605.03 389.607 1604.56 387.111C1602.19 387.063 1599.7 387.635 1599.73 385.77C1599.77 383.906 1602.31 384.516 1604.11 384.553C1603.58 381.396 1603.22 378.213 1603.03 375.019C1601.41 375.235 1599.62 375.851 1599.41 374.231C1599.19 372.61 1601.27 372.652 1602.92 372.405C1602.83 369.605 1602.85 366.808 1603.09 364.015L1599.5 365.031C1599.18 365.084 1598.85 365.017 1598.58 364.844C1598.31 364.671 1598.11 364.403 1598.03 364.093C1597.94 363.783 1597.97 363.451 1598.12 363.163C1598.26 362.874 1598.5 362.649 1598.8 362.53L1603.3 361.315C1603.55 358.491 1603.95 355.701 1604.47 352.914C1602.81 353.658 1600.73 355.077 1599.98 353.508C1599.85 353.19 1599.85 352.836 1599.97 352.516C1600.09 352.196 1600.33 351.934 1600.64 351.78L1605.09 349.818C1606.36 343.961 1608.19 338.241 1610.56 332.738C1610.61 332.555 1610.7 332.385 1610.81 332.238C1610.93 332.092 1611.08 331.973 1611.25 331.889C1611.42 331.806 1611.6 331.76 1611.79 331.754C1611.98 331.749 1612.17 331.785 1612.34 331.858C1612.51 331.932 1612.67 332.043 1612.8 332.182C1612.92 332.322 1613.02 332.487 1613.07 332.667C1613.13 332.846 1613.15 333.036 1613.12 333.223C1613.1 333.41 1613.04 333.589 1612.94 333.749C1610.84 338.508 1609.18 343.448 1607.98 348.508Z" fill="#6A7282"/>
<path d="M1583.25 146.518C1583.55 149.701 1583.59 152.903 1583.37 156.092L1594.21 154.935C1590.61 147.514 1587.85 144.49 1583.25 146.518Z" fill="#6A7282"/>
<path d="M1583 160.955C1582.76 163.617 1582.53 166.309 1582.38 169.07L1600.14 168.267C1598.79 165.439 1597.59 162.562 1596.28 159.557L1583 160.955Z" fill="#6A7282"/>
<path d="M1638.49 189.344L1586.69 192.742C1600.19 223.612 1631.43 215.752 1638.49 189.344Z" fill="#6A7282"/>
<path d="M1613.35 172.481C1612.72 175.436 1611.73 177.524 1610.64 177.881C1607.69 178.847 1605.01 176.65 1602.69 172.96L1582.36 173.886C1582.49 178.671 1583.33 183.41 1584.83 187.955L1639.57 184.445C1640.17 180.064 1639.97 175.609 1638.96 171.301L1613.35 172.481Z" fill="#6A7282"/>
<path d="M1615.32 157.484C1614.92 160.883 1614.64 164.508 1614.23 167.65L1637.75 166.498C1636.6 162.265 1635.57 158.613 1634.6 155.364L1615.32 157.484Z" fill="#6A7282"/>
<path d="M1620.43 135.93C1617.78 136.799 1616.62 144.272 1615.81 152.68L1633.24 150.805C1631.24 144.69 1629.75 140.111 1628.1 135.089C1625.52 134.574 1622.84 134.867 1620.43 135.93Z" fill="#6A7282"/>
<path d="M1622.71 72.5982L1565.12 92.2788C1566.46 94.5569 1567.89 96.7372 1569.44 98.8789L1624.72 85.7406C1624.47 81.3062 1623.8 76.9057 1622.71 72.5982Z" fill="#6A7282"/>
<path d="M1613.92 52.1933L1559.47 80.9834C1560.75 84.0749 1562.21 87.0921 1563.83 90.0211L1621.95 70.1667C1619.84 63.9396 1617.15 57.9225 1613.92 52.1933Z" fill="#6A7282"/>
<path d="M1603.83 37.1467L1555.81 70.308C1556.57 73.1114 1557.47 75.8725 1558.52 78.5794L1612.54 49.9933C1609.95 45.5086 1607.04 41.2154 1603.83 37.1467Z" fill="#6A7282"/>
<path d="M1553.47 58.746C1553.86 61.733 1554.41 64.6959 1555.13 67.6207L1602.2 35.1616C1598.72 31.0004 1594.86 27.1715 1590.68 23.724L1553.47 58.746Z" fill="#6A7282"/>
<path d="M1553.12 55.5598L1588.61 22.1104C1578.49 14.5631 1567.61 10.9624 1557.59 14.2369C1532.36 22.4858 1543.6 70.0514 1545.72 76.5504C1554.26 102.665 1564.96 111.591 1572.87 121.563C1597.39 123.552 1605.44 105.975 1607.36 105.348C1609.28 104.72 1614.83 108.201 1618.88 106.878C1621.26 105.583 1623.39 103.89 1625.19 101.872C1625.17 97.3019 1625.11 92.7411 1624.89 88.3661L1571.09 101.12C1574.36 105.36 1578 109.301 1581.97 112.898C1582.09 113.011 1582.2 113.149 1582.27 113.301C1582.34 113.454 1582.38 113.62 1582.39 113.789C1582.4 113.958 1582.37 114.127 1582.32 114.286C1582.26 114.445 1582.17 114.591 1582.06 114.716C1581.94 114.842 1581.81 114.943 1581.65 115.015C1581.5 115.088 1581.34 115.129 1581.17 115.137C1581 115.145 1580.83 115.12 1580.67 115.063C1580.51 115.006 1580.36 114.918 1580.24 114.804C1575.88 110.85 1571.9 106.489 1568.36 101.782C1566.05 102.31 1563.61 103.337 1563.25 101.655C1562.9 99.9719 1565.07 99.9156 1566.73 99.5025C1565.27 97.4301 1563.9 95.3288 1562.62 93.1298C1560.38 93.8638 1558.21 95.2274 1557.63 93.455C1557.05 91.6825 1559.64 91.4222 1561.36 90.8619C1559.82 88.0564 1558.43 85.1712 1557.19 82.2184C1555.73 82.957 1554.25 84.1279 1553.51 82.6691C1552.77 81.2102 1554.75 80.5631 1556.23 79.7853C1555.21 77.1749 1554.32 74.5259 1553.62 71.8092L1550.56 73.954C1550.28 74.1086 1549.95 74.1533 1549.64 74.0795C1549.33 74.0057 1549.05 73.8184 1548.87 73.5539C1548.68 73.2894 1548.6 72.9663 1548.64 72.6467C1548.68 72.327 1548.84 72.0335 1549.08 71.8225L1552.93 69.1909C1552.23 66.4447 1551.69 63.6798 1551.26 60.8762C1549.93 62.1266 1548.44 64.1526 1547.22 62.917C1546.99 62.6586 1546.87 62.3256 1546.88 61.9836C1546.89 61.6415 1547.03 61.3154 1547.27 61.0696L1550.82 57.7482C1550.09 51.8008 1549.93 45.796 1550.36 39.8183C1550.34 39.6307 1550.37 39.4417 1550.43 39.2644C1550.49 39.0871 1550.59 38.9256 1550.73 38.791C1550.86 38.6565 1551.02 38.5521 1551.19 38.4849C1551.37 38.4178 1551.56 38.3896 1551.75 38.4021C1551.93 38.4147 1552.12 38.4677 1552.28 38.5577C1552.45 38.6476 1552.59 38.7724 1552.7 38.9233C1552.82 39.0741 1552.9 39.2476 1552.93 39.4318C1552.97 39.616 1552.97 39.8066 1552.93 39.9904C1552.52 45.1751 1552.58 50.3864 1553.12 55.5598Z" fill="#6A7282"/>
<path d="M1455.99 762.193C1450.61 760.179 1448.03 765.153 1445.52 771.205L1456.43 771.767C1456.01 768.594 1455.87 765.391 1455.99 762.193Z" fill="#6A7282"/>
<path d="M1443.59 775.902C1442.49 778.825 1441.38 782.005 1440.26 784.663L1458.03 784.479C1457.76 781.739 1457.37 779.094 1456.96 776.441L1443.59 775.902Z" fill="#6A7282"/>
<path d="M1455.05 808.453L1402.97 808.112C1411.59 833.795 1443.19 840.286 1455.05 808.453Z" fill="#6A7282"/>
<path d="M1458.37 789.46L1438.02 789.664C1435.91 793.477 1433.48 795.851 1430.36 795.019C1429.13 794.691 1428.15 792.693 1427.35 789.778L1401.56 789.981C1400.79 794.337 1400.84 798.797 1401.69 803.138L1456.53 803.635C1457.84 799.028 1458.47 794.25 1458.37 789.46Z" fill="#6A7282"/>
<path d="M1424.52 774.906L1405.11 773.881C1404.24 777.154 1403.5 780.882 1402.62 785.181L1426.14 785.018C1425.54 781.963 1425.04 778.419 1424.52 774.906Z" fill="#6A7282"/>
<path d="M1418.21 753.571C1415.74 752.618 1413.03 752.481 1410.47 753.179C1409.12 758.255 1407.88 762.91 1406.22 769.126L1423.73 770.031C1422.41 761.831 1420.92 754.291 1418.21 753.571Z" fill="#6A7282"/>
<path d="M1470.98 707.037L1412.39 690.583C1411.55 694.935 1411.13 699.355 1411.12 703.787L1467.05 713.837C1468.48 711.612 1469.79 709.356 1470.98 707.037Z" fill="#6A7282"/>
<path d="M1420.04 669.721C1417.14 675.61 1414.79 681.757 1413.03 688.082L1472.16 704.68C1473.61 701.676 1474.9 698.593 1476 695.445L1420.04 669.721Z" fill="#6A7282"/>
<path d="M1479.07 684.553L1429.29 654.107C1426.28 658.34 1423.58 662.78 1421.21 667.394L1476.83 692.961C1477.72 690.201 1478.47 687.394 1479.07 684.553Z" fill="#6A7282"/>
<path d="M1441.67 639.976C1437.68 643.651 1434.05 647.688 1430.8 652.036L1479.59 681.863C1480.15 678.893 1480.54 675.894 1480.76 672.88L1441.67 639.976Z" fill="#6A7282"/>
<path d="M1465.53 716.164L1411.1 706.417C1411.12 710.797 1411.32 715.354 1411.55 719.918C1413.46 721.829 1415.69 723.401 1418.13 724.566C1422.27 725.671 1427.23 721.782 1429.58 722.407C1431.92 723.031 1440.51 740.021 1464.88 736.705C1472.22 726.31 1482.41 716.803 1489.49 690.225C1491.24 683.648 1499.83 635.502 1474.18 628.666C1464.03 625.961 1453.33 630.152 1443.64 638.28L1480.97 669.685C1481.19 664.496 1480.95 659.299 1480.26 654.152C1480.21 653.973 1480.2 653.786 1480.23 653.604C1480.26 653.422 1480.33 653.248 1480.44 653.095C1480.54 652.942 1480.67 652.812 1480.83 652.714C1480.99 652.617 1481.16 652.554 1481.35 652.529C1481.53 652.505 1481.72 652.519 1481.89 652.572C1482.07 652.625 1482.23 652.714 1482.37 652.835C1482.51 652.956 1482.63 653.105 1482.7 653.273C1482.78 653.44 1482.82 653.622 1482.82 653.807C1483.6 659.756 1483.79 665.765 1483.41 671.751L1487.14 674.9C1487.35 675.136 1487.47 675.439 1487.47 675.754C1487.47 676.069 1487.36 676.374 1487.16 676.614C1486.95 676.853 1486.67 677.01 1486.35 677.056C1486.04 677.102 1485.73 677.034 1485.46 676.864L1483.15 674.898C1482.88 677.721 1482.49 680.512 1481.95 683.293L1485.93 685.737C1486.21 685.917 1486.42 686.204 1486.5 686.535C1486.58 686.866 1486.52 687.215 1486.34 687.504C1486.16 687.793 1485.87 687.999 1485.54 688.077C1485.21 688.154 1484.86 688.097 1484.57 687.918L1481.39 685.976C1480.67 688.679 1479.95 691.382 1479.24 694.054C1480.73 694.741 1482.74 695.277 1482.08 696.775C1481.43 698.272 1479.87 697.215 1478.39 696.529C1477.32 699.546 1476.09 702.504 1474.7 705.39L1477.71 706.191C1477.99 706.316 1478.22 706.54 1478.36 706.82C1478.49 707.101 1478.52 707.421 1478.44 707.722C1478.36 708.023 1478.18 708.285 1477.92 708.461C1477.66 708.638 1477.35 708.716 1477.04 708.683L1473.59 707.763C1472.45 709.999 1471.18 712.204 1469.84 714.354C1471.53 714.644 1473.72 714.648 1473.44 716.28C1473.17 717.911 1470.68 717.119 1468.35 716.691C1465.09 721.595 1461.36 726.171 1457.21 730.352C1457.09 730.472 1456.95 730.568 1456.8 730.634C1456.64 730.7 1456.47 730.734 1456.3 730.736C1456.13 730.737 1455.97 730.705 1455.81 730.641C1455.65 730.577 1455.51 730.484 1455.39 730.365C1455.27 730.246 1455.17 730.105 1455.11 729.949C1455.04 729.794 1455.01 729.626 1455.01 729.457C1455.01 729.288 1455.04 729.121 1455.1 728.964C1455.16 728.807 1455.26 728.665 1455.38 728.544C1459.12 724.726 1462.52 720.583 1465.53 716.164Z" fill="#6A7282"/>
<path d="M581.134 1447.54C577.943 1447.73 574.742 1447.66 571.562 1447.33L572.374 1458.19C580.005 1454.82 583.062 1452.19 581.134 1447.54Z" fill="#6A7282"/>
<path d="M566.744 1446.78C564.092 1446.45 561.44 1446.12 558.685 1445.88L558.876 1463.65C561.749 1462.4 564.666 1461.3 567.565 1460.13L566.744 1446.78Z" fill="#6A7282"/>
<path d="M536.462 1501.26L534.905 1449.23C503.533 1461.8 510.253 1493.31 536.462 1501.26Z" fill="#6A7282"/>
<path d="M554.21 1476.71C551.249 1475.98 549.226 1474.92 548.907 1473.81C548.043 1470.83 550.301 1468.23 554.098 1466.04L553.873 1445.69C549.076 1445.66 544.301 1446.33 539.698 1447.68L541.35 1502.5C545.708 1503.26 550.168 1503.21 554.507 1502.35L554.21 1476.71Z" fill="#6A7282"/>
<path d="M569.13 1479.19C565.598 1478.72 562.104 1478.28 559.007 1477.75L559.349 1501.3C563.649 1500.29 567.335 1499.38 570.585 1498.54L569.13 1479.19Z" fill="#6A7282"/>
<path d="M590.555 1485.03C589.778 1482.34 582.349 1480.93 573.973 1479.83L575.277 1497.31C581.457 1495.52 586.085 1494.18 591.131 1492.72C591.76 1490.16 591.558 1487.47 590.555 1485.03Z" fill="#6A7282"/>
<path d="M653.681 1489.51L635.995 1431.28C633.703 1432.53 631.445 1433.89 629.281 1435.36L640.478 1491.07C644.918 1490.97 649.339 1490.45 653.681 1489.51Z" fill="#6A7282"/>
<path d="M674.377 1481.43L647.479 1426.02C644.355 1427.19 641.299 1428.54 638.327 1430.06L656.168 1488.83C662.455 1486.93 668.551 1484.45 674.377 1481.43Z" fill="#6A7282"/>
<path d="M689.762 1471.86L658.304 1422.72C655.466 1423.38 652.666 1424.19 649.914 1425.15L676.623 1480.13C681.195 1477.69 685.585 1474.93 689.762 1471.86Z" fill="#6A7282"/>
<path d="M669.91 1420.79C666.911 1421.07 663.93 1421.52 660.983 1422.14L691.832 1470.29C696.101 1466.96 700.051 1463.24 703.63 1459.18L669.91 1420.79Z" fill="#6A7282"/>
<path d="M673.106 1420.55L705.314 1457.17C713.235 1447.31 717.208 1436.55 714.281 1426.43C706.905 1400.93 658.951 1410.53 652.413 1412.43C625.99 1420.07 616.7 1430.46 606.462 1438.01C603.63 1462.45 620.919 1471.1 621.48 1473.04C622.042 1474.98 618.401 1480.4 619.584 1484.49C620.796 1486.91 622.415 1489.1 624.369 1490.97C628.938 1491.11 633.498 1491.21 637.878 1491.14L626.955 1436.94C622.614 1440.06 618.559 1443.56 614.839 1447.4C614.729 1447.55 614.588 1447.67 614.427 1447.76C614.265 1447.85 614.086 1447.91 613.902 1447.92C613.718 1447.94 613.532 1447.91 613.357 1447.85C613.183 1447.79 613.023 1447.69 612.889 1447.57C612.755 1447.44 612.65 1447.28 612.58 1447.11C612.51 1446.94 612.478 1446.76 612.485 1446.57C612.492 1446.39 612.538 1446.21 612.621 1446.04C612.703 1445.87 612.82 1445.73 612.963 1445.61C617.076 1441.38 621.58 1437.56 626.416 1434.18C625.939 1431.86 624.877 1429.42 626.72 1429.08C628.563 1428.74 628.395 1430.96 628.721 1432.64C630.842 1431.25 633.02 1429.94 635.231 1428.75C634.575 1426.48 633.317 1424.26 635.078 1423.75C636.84 1423.24 637.04 1425.83 637.571 1427.56C640.426 1426.11 643.358 1424.82 646.353 1423.69C645.635 1422.22 644.546 1420.69 646.029 1420C647.513 1419.31 648.062 1421.32 648.788 1422.82C651.432 1421.9 654.11 1421.09 656.849 1420.49L654.841 1417.35C654.655 1417.07 654.591 1416.72 654.661 1416.39C654.732 1416.05 654.932 1415.76 655.217 1415.58C655.502 1415.39 655.85 1415.33 656.183 1415.4C656.516 1415.47 656.807 1415.67 656.992 1415.95L659.52 1419.88C662.258 1419.28 665.07 1418.83 667.857 1418.51C666.683 1417.13 664.68 1415.57 665.987 1414.39C666.249 1414.18 666.581 1414.07 666.918 1414.09C667.255 1414.12 667.57 1414.26 667.801 1414.51L670.998 1418.18C676.985 1417.66 683.007 1417.73 688.981 1418.38C689.165 1418.38 689.348 1418.42 689.517 1418.49C689.687 1418.57 689.838 1418.68 689.962 1418.81C690.085 1418.95 690.179 1419.11 690.235 1419.29C690.292 1419.46 690.31 1419.65 690.289 1419.83C690.269 1420.02 690.209 1420.19 690.115 1420.35C690.021 1420.51 689.894 1420.65 689.743 1420.75C689.592 1420.86 689.42 1420.93 689.238 1420.97C689.057 1421 688.87 1421 688.69 1420.96C683.519 1420.35 678.303 1420.21 673.106 1420.55Z" fill="#6A7282"/>
<path d="M74.1855 1485.38C71.0395 1484.81 67.9449 1483.99 64.932 1482.92L63.1611 1493.67C71.3718 1492.19 74.9626 1490.35 74.1855 1485.38Z" fill="#6A7282"/>
<path d="M60.3794 1481.25C57.8803 1480.3 55.3813 1479.35 52.7608 1478.47L48.7566 1495.79C51.844 1495.25 54.9382 1494.87 58.0297 1494.42L60.3794 1481.25Z" fill="#6A7282"/>
<path d="M18.1096 1527.05L28.8599 1476.12C-4.59039 1480.94 -5.48706 1513.15 18.1096 1527.05Z" fill="#6A7282"/>
<path d="M41.1429 1507.38C38.4372 1505.98 36.7224 1504.46 36.6723 1503.32C36.5368 1500.21 39.3432 1498.22 43.551 1496.98L48.1298 1477.15C43.4737 1476 38.6745 1475.52 33.8827 1475.75L22.5672 1529.41C26.6232 1531.17 30.9697 1532.18 35.3889 1532.37L41.1429 1507.38Z" fill="#6A7282"/>
<path d="M55.0584 1513.31C51.7358 1512.02 48.4456 1510.77 45.5604 1509.52L40.3408 1532.49C44.7594 1532.52 48.5543 1532.51 51.9118 1532.45L55.0584 1513.31Z" fill="#6A7282"/>
<path d="M74.5033 1524.03C74.3814 1521.24 67.4944 1518.12 59.6151 1515.07L56.7612 1532.37C63.1887 1532.09 68.0015 1531.88 73.249 1531.65C74.4642 1529.31 74.9035 1526.64 74.5033 1524.03Z" fill="#6A7282"/>
<path d="M134.794 1543.27L131.333 1482.51C128.812 1483.18 126.295 1483.97 123.846 1484.89L121.596 1541.67C125.935 1542.62 130.354 1543.15 134.794 1543.27Z" fill="#6A7282"/>
<path d="M156.814 1540.29L143.734 1480.1C140.421 1480.51 137.134 1481.1 133.887 1481.87L137.372 1543.19C143.929 1542.83 150.437 1541.86 156.814 1540.29Z" fill="#6A7282"/>
<path d="M174.019 1534.62L155.03 1479.45C152.117 1479.43 149.204 1479.55 146.305 1479.83L159.302 1539.56C164.319 1538.27 169.237 1536.62 174.019 1534.62Z" fill="#6A7282"/>
<path d="M166.764 1480.31C163.784 1479.88 160.781 1479.61 157.77 1479.52L176.4 1533.59C181.334 1531.36 186.049 1528.67 190.485 1525.57L166.764 1480.31Z" fill="#6A7282"/>
<path d="M169.929 1480.83L192.595 1524.01C202.617 1516.3 209.015 1506.78 208.555 1496.25C207.398 1469.73 158.532 1467.76 151.732 1468.06C124.253 1469.26 112.776 1477.16 101.045 1482.09C92.5327 1505.17 107.295 1517.66 107.383 1519.67C107.471 1521.69 102.655 1526.1 102.84 1530.36C103.448 1532.99 104.505 1535.5 105.964 1537.78C110.372 1538.99 114.779 1540.16 119.052 1541.13L121.214 1485.88C116.26 1487.89 111.494 1490.33 106.973 1493.19C106.831 1493.3 106.666 1493.39 106.488 1493.44C106.309 1493.49 106.122 1493.5 105.94 1493.47C105.757 1493.45 105.582 1493.38 105.426 1493.28C105.271 1493.18 105.139 1493.05 105.039 1492.89C104.939 1492.73 104.873 1492.56 104.846 1492.38C104.818 1492.19 104.83 1492.01 104.881 1491.83C104.931 1491.65 105.019 1491.49 105.138 1491.34C105.257 1491.2 105.405 1491.09 105.572 1491.01C110.565 1487.87 115.845 1485.21 121.34 1483.07C121.424 1480.7 120.967 1478.08 122.838 1478.18C124.709 1478.29 124.024 1480.4 123.943 1482.12C126.332 1481.27 128.757 1480.51 131.187 1479.87C131.084 1477.51 130.385 1475.05 132.217 1474.97C134.049 1474.89 133.633 1477.46 133.742 1479.26C136.858 1478.53 140.011 1477.97 143.188 1477.58C142.838 1475.97 142.14 1474.23 143.744 1473.91C145.348 1473.59 145.407 1475.67 145.759 1477.31C148.546 1477.03 151.34 1476.88 154.142 1476.94L152.931 1473.42C152.818 1473.1 152.837 1472.74 152.984 1472.44C153.131 1472.13 153.394 1471.89 153.715 1471.78C154.036 1471.67 154.388 1471.69 154.695 1471.83C155.002 1471.98 155.238 1472.24 155.351 1472.56L156.881 1476.98C159.684 1477.04 162.525 1477.26 165.308 1477.61C164.491 1475.99 162.912 1474.01 164.461 1473.16C164.766 1473.02 165.114 1472.99 165.436 1473.1C165.758 1473.2 166.029 1473.42 166.196 1473.71L168.438 1478.03C174.377 1478.94 180.214 1480.42 185.866 1482.46C186.046 1482.51 186.215 1482.59 186.362 1482.7C186.509 1482.81 186.63 1482.95 186.718 1483.11C186.806 1483.28 186.858 1483.46 186.871 1483.64C186.885 1483.82 186.859 1484.01 186.796 1484.18C186.732 1484.36 186.633 1484.51 186.504 1484.65C186.375 1484.78 186.219 1484.88 186.047 1484.95C185.875 1485.02 185.691 1485.05 185.506 1485.04C185.322 1485.03 185.141 1484.98 184.977 1484.9C180.095 1483.09 175.058 1481.72 169.929 1480.83Z" fill="#6A7282"/>
<path d="M661.507 1361.89C661.279 1356.15 655.661 1355.73 649.139 1355.79L652.872 1366.05C655.626 1364.42 658.515 1363.03 661.507 1361.89Z" fill="#6A7282"/>
<path d="M644.062 1355.86C640.941 1355.99 637.584 1356.22 634.511 1356.25L641.651 1372.53C644.067 1371.21 646.378 1369.81 648.654 1368.39L644.062 1355.86Z" fill="#6A7282"/>
<path d="M618.614 1379.16L598.625 1331.1C578.228 1349.13 584.678 1380.74 618.614 1379.16Z" fill="#6A7282"/>
<path d="M637.358 1374.78L629.188 1356.14C624.854 1355.69 621.715 1354.39 621.256 1351.19C621.075 1349.93 622.529 1348.24 624.927 1346.36L614.597 1322.72C610.291 1323.73 606.207 1325.52 602.543 1328L623.625 1378.63C628.369 1378.04 632.997 1376.74 637.358 1374.78Z" fill="#6A7282"/>
<path d="M637.502 1337.93L630.801 1319.67C627.478 1320.15 623.76 1320.94 619.427 1321.81L628.802 1343.38C631.469 1341.62 634.47 1339.78 637.502 1337.93Z" fill="#6A7282"/>
<path d="M654.622 1323.76C654.538 1321.11 653.611 1318.56 651.976 1316.48C646.746 1317.23 642.008 1317.91 635.609 1318.83L641.645 1335.29C648.824 1330.84 655.019 1326.53 654.622 1323.76Z" fill="#6A7282"/>
<path d="M718.154 1354.05L710.31 1293.7C705.968 1294.63 701.724 1295.98 697.636 1297.71L710.356 1353.1C713.055 1353.52 715.551 1353.86 718.154 1354.05Z" fill="#6A7282"/>
<path d="M732.563 1292.54C726.007 1292.18 719.431 1292.43 712.921 1293.29L720.844 1354.2C724.178 1354.36 727.518 1354.33 730.848 1354.11L732.563 1292.54Z" fill="#6A7282"/>
<path d="M742.007 1352.67L750.458 1294.94C745.388 1293.83 740.245 1293.09 735.068 1292.72L733.362 1353.91C736.263 1353.65 739.149 1353.23 742.007 1352.67Z" fill="#6A7282"/>
<path d="M768.285 1300.79C763.349 1298.52 758.213 1296.72 752.942 1295.4L744.67 1351.97C747.594 1351.36 750.481 1350.59 753.319 1349.66L768.285 1300.79Z" fill="#6A7282"/>
<path d="M707.586 1352.61L695.237 1298.72C691.216 1300.46 687.103 1302.43 682.995 1304.43C681.967 1306.94 681.383 1309.6 681.268 1312.31C681.877 1316.55 687.4 1319.59 687.744 1321.99C688.088 1324.39 675.83 1338.96 688.467 1360.07C700.907 1362.74 713.649 1368.38 740.876 1364.48C747.613 1363.51 795.27 1352.53 791.5 1326.25C790.007 1315.86 781.954 1307.65 770.677 1301.93L756.307 1348.61C761.176 1346.77 765.874 1344.51 770.346 1341.85C770.492 1341.73 770.663 1341.65 770.845 1341.6C771.028 1341.55 771.218 1341.55 771.403 1341.58C771.589 1341.62 771.764 1341.69 771.918 1341.8C772.072 1341.91 772.201 1342.05 772.295 1342.21C772.39 1342.37 772.448 1342.55 772.465 1342.74C772.483 1342.93 772.46 1343.12 772.398 1343.3C772.335 1343.47 772.235 1343.64 772.104 1343.77C771.973 1343.91 771.815 1344.01 771.639 1344.08C766.496 1347.09 761.071 1349.6 755.443 1351.56L754.039 1356.22C753.904 1356.5 753.67 1356.73 753.382 1356.85C753.093 1356.98 752.769 1356.99 752.468 1356.9C752.168 1356.81 751.912 1356.61 751.747 1356.34C751.583 1356.07 751.521 1355.75 751.573 1355.44L752.446 1352.55C749.743 1353.41 747.023 1354.14 744.25 1354.73L743.593 1359.35C743.512 1359.66 743.318 1359.93 743.049 1360.11C742.78 1360.28 742.455 1360.36 742.137 1360.31C741.818 1360.26 741.528 1360.1 741.323 1359.85C741.118 1359.6 741.012 1359.28 741.026 1358.96L741.578 1355.37C738.809 1355.76 736.04 1356.16 733.271 1356.56C733.224 1358.2 733.55 1360.25 731.884 1360.24C730.219 1360.23 730.644 1358.38 730.691 1356.74C727.497 1356.94 724.294 1356.97 721.096 1356.83L721.538 1359.91C721.534 1360.22 721.419 1360.52 721.214 1360.75C721.008 1360.98 720.726 1361.14 720.418 1361.18C720.109 1361.23 719.796 1361.16 719.533 1360.99C719.27 1360.83 719.075 1360.57 718.984 1360.27L718.476 1356.73C715.94 1356.56 713.448 1356.26 710.942 1355.87C711.185 1357.56 712.193 1359.55 710.554 1359.94C708.914 1360.34 708.728 1357.72 708.208 1355.41C702.407 1354.35 696.724 1352.71 691.243 1350.53C691.064 1350.48 690.898 1350.4 690.755 1350.28C690.611 1350.16 690.495 1350.02 690.412 1349.85C690.33 1349.69 690.283 1349.51 690.276 1349.32C690.269 1349.14 690.301 1348.95 690.371 1348.78C690.441 1348.61 690.546 1348.45 690.68 1348.33C690.814 1348.2 690.973 1348.1 691.148 1348.04C691.323 1347.98 691.508 1347.95 691.693 1347.97C691.877 1347.99 692.056 1348.04 692.217 1348.13C697.195 1350.08 702.339 1351.58 707.586 1352.61Z" fill="#6A7282"/>
<path d="M172.482 1421.09C173.614 1415.46 168.254 1413.73 161.901 1412.24L163.11 1423.1C166.171 1422.16 169.306 1421.49 172.482 1421.09Z" fill="#6A7282"/>
<path d="M156.952 1411.11C153.888 1410.51 150.57 1409.94 147.576 1409.25L150.678 1426.75C153.338 1426.04 155.914 1425.22 158.461 1424.37L156.952 1411.11Z" fill="#6A7282"/>
<path d="M126.727 1427.76L118.63 1376.35C94.558 1389.06 93.3769 1421.29 126.727 1427.76Z" fill="#6A7282"/>
<path d="M145.976 1427.92L142.431 1407.88C138.324 1406.43 135.581 1404.42 135.889 1401.2C136.011 1399.93 137.821 1398.64 140.596 1397.37L136.128 1371.97C131.705 1371.93 127.314 1372.71 123.17 1374.25L131.721 1428.43C136.472 1428.97 141.276 1428.8 145.976 1427.92Z" fill="#6A7282"/>
<path d="M154.803 1392.14L152.593 1372.82C149.252 1372.5 145.454 1372.39 141.037 1372.22L145.062 1395.39C148.07 1394.31 151.421 1393.22 154.803 1392.14Z" fill="#6A7282"/>
<path d="M174.78 1382.41C175.322 1379.82 175.023 1377.12 173.925 1374.71C168.665 1374.21 163.901 1373.75 157.466 1373.13L159.45 1390.56C167.477 1387.92 174.513 1385.19 174.78 1382.41Z" fill="#6A7282"/>
<path d="M229.382 1426.82L235.985 1366.32C231.545 1366.21 227.104 1366.51 222.722 1367.24L222.028 1424.06C224.55 1425.11 226.898 1426.02 229.382 1426.82Z" fill="#6A7282"/>
<path d="M257.883 1370.45C251.597 1368.55 245.147 1367.24 238.619 1366.54L231.962 1427.6C235.163 1428.54 238.416 1429.3 241.704 1429.87L257.883 1370.45Z" fill="#6A7282"/>
<path d="M252.888 1431.1L274.71 1376.99C270.043 1374.72 265.22 1372.79 260.277 1371.21L244.195 1430.27C247.076 1430.7 249.978 1430.98 252.888 1431.1Z" fill="#6A7282"/>
<path d="M290.654 1386.88C286.392 1383.51 281.826 1380.55 277.015 1378.02L255.641 1431.05C258.625 1431.15 261.613 1431.08 264.59 1430.85L290.654 1386.88Z" fill="#6A7282"/>
<path d="M219.451 1422.93L220.154 1367.64C215.837 1368.39 211.375 1369.33 206.91 1370.31C205.321 1372.5 204.125 1374.96 203.375 1377.56C202.966 1381.83 207.617 1386.08 207.386 1388.5C207.155 1390.91 191.808 1402.18 199.113 1425.67C210.573 1431.2 221.625 1439.69 249.005 1442.31C255.781 1442.96 304.683 1443.52 307.213 1417.1C308.214 1406.64 302.321 1396.77 292.711 1388.55L267.743 1430.52C272.907 1429.89 278.006 1428.8 282.979 1427.27C283.149 1427.19 283.335 1427.14 283.523 1427.14C283.711 1427.14 283.898 1427.18 284.07 1427.26C284.242 1427.33 284.395 1427.45 284.519 1427.59C284.643 1427.73 284.735 1427.9 284.788 1428.08C284.841 1428.26 284.855 1428.45 284.828 1428.63C284.801 1428.82 284.734 1429 284.632 1429.16C284.529 1429.32 284.394 1429.45 284.235 1429.55C284.075 1429.65 283.896 1429.72 283.71 1429.74C278.001 1431.46 272.14 1432.61 266.208 1433.19L263.745 1437.38C263.547 1437.63 263.267 1437.79 262.956 1437.85C262.646 1437.9 262.327 1437.84 262.057 1437.68C261.788 1437.52 261.586 1437.26 261.489 1436.96C261.393 1436.66 261.408 1436.34 261.532 1436.05L263.061 1433.45C260.232 1433.64 257.415 1433.72 254.582 1433.63L252.856 1437.97C252.703 1438.25 252.451 1438.47 252.148 1438.58C251.845 1438.68 251.512 1438.68 251.214 1438.56C250.915 1438.43 250.672 1438.21 250.532 1437.92C250.391 1437.63 250.363 1437.3 250.452 1436.99L251.835 1433.62C249.051 1433.35 246.266 1433.09 243.482 1432.82C243.049 1434.4 242.882 1436.48 241.266 1436.08C239.65 1435.67 240.499 1433.97 240.932 1432.39C237.779 1431.83 234.66 1431.11 231.586 1430.22L231.29 1433.31C231.213 1433.61 231.03 1433.88 230.776 1434.05C230.521 1434.23 230.211 1434.32 229.901 1434.29C229.591 1434.26 229.301 1434.12 229.085 1433.89C228.869 1433.67 228.74 1433.37 228.722 1433.06L229.062 1429.51C226.638 1428.74 224.287 1427.86 221.945 1426.89C221.782 1428.59 222.292 1430.76 220.606 1430.76C218.921 1430.75 219.355 1428.17 219.395 1425.8C214.008 1423.4 208.872 1420.47 204.059 1417.06C203.896 1416.97 203.754 1416.85 203.643 1416.7C203.531 1416.55 203.452 1416.38 203.411 1416.2C203.37 1416.02 203.368 1415.83 203.405 1415.65C203.441 1415.47 203.516 1415.3 203.624 1415.15C203.732 1415 203.871 1414.87 204.031 1414.78C204.192 1414.69 204.37 1414.63 204.554 1414.61C204.738 1414.6 204.924 1414.62 205.099 1414.68C205.275 1414.73 205.436 1414.83 205.571 1414.96C209.949 1418.03 214.594 1420.7 219.451 1422.93Z" fill="#6A7282"/>
<path d="M813.657 1394.14C810.46 1394.15 807.267 1393.91 804.11 1393.41L804.294 1404.3C812.008 1401.38 815.265 1398.9 813.657 1394.14Z" fill="#6A7282"/>
<path d="M799.3 1392.6C796.671 1392.12 794.01 1391.65 791.273 1391.26L790.487 1409.02C793.424 1407.93 796.397 1406.99 799.507 1405.95L799.3 1392.6Z" fill="#6A7282"/>
<path d="M766.069 1445.33L767.402 1393.42C735.359 1404.12 740.398 1435.94 766.069 1445.33Z" fill="#6A7282"/>
<path d="M785.109 1421.8C782.223 1420.91 780.232 1419.74 779.973 1418.62C779.275 1415.59 781.703 1413.12 785.584 1411.14L786.479 1390.8C781.701 1390.51 776.906 1390.92 772.245 1392.01L770.852 1446.84C775.164 1447.89 779.631 1448.13 784.032 1447.57L785.109 1421.8Z" fill="#6A7282"/>
<path d="M799.901 1425.09C796.552 1424.4 792.967 1423.79 789.873 1423.1L788.92 1446.63C793.239 1445.86 796.969 1445.16 800.291 1444.49L799.901 1425.09Z" fill="#6A7282"/>
<path d="M820.973 1432.1C820.344 1429.37 813.004 1427.56 804.702 1425.99L805.013 1443.53C811.282 1442.08 815.976 1441 821.125 1439.81C821.869 1437.29 821.815 1434.59 820.973 1432.1Z" fill="#6A7282"/>
<path d="M883.757 1440.05L869.299 1380.93C866.91 1382.05 864.611 1383.29 862.339 1384.64L870.518 1440.87C874.947 1441.01 879.379 1440.74 883.757 1440.05Z" fill="#6A7282"/>
<path d="M904.866 1433.11L881.145 1376.28C877.952 1377.29 874.816 1378.47 871.754 1379.82L886.156 1439.53C892.579 1437.97 898.843 1435.82 904.866 1433.11Z" fill="#6A7282"/>
<path d="M920.754 1424.4L892.013 1373.62C889.154 1374.12 886.323 1374.77 883.533 1375.57L907.18 1431.93C911.878 1429.75 916.415 1427.24 920.754 1424.4Z" fill="#6A7282"/>
<path d="M903.738 1372.32C900.728 1372.44 897.728 1372.72 894.75 1373.18L922.876 1422.96C927.331 1419.87 931.489 1416.37 935.297 1412.5L903.738 1372.32Z" fill="#6A7282"/>
<path d="M906.944 1372.25L937.089 1410.59C945.51 1401.19 950.069 1390.66 947.702 1380.4C941.739 1354.53 893.36 1361.48 886.697 1363.01C859.925 1369.18 850.078 1379.04 839.44 1386.03C835.269 1410.27 852.056 1419.86 852.51 1421.83C852.964 1423.8 849 1429.02 849.957 1433.17C851.034 1435.65 852.53 1437.92 854.379 1439.9C858.933 1440.28 863.48 1440.64 867.858 1440.81L859.961 1386.08C855.488 1388.96 851.278 1392.22 847.379 1395.84C847.255 1395.95 847.109 1396.04 846.95 1396.1C846.791 1396.16 846.623 1396.18 846.454 1396.18C846.285 1396.17 846.119 1396.13 845.966 1396.06C845.812 1395.99 845.674 1395.89 845.56 1395.76C845.445 1395.64 845.356 1395.49 845.298 1395.33C845.24 1395.17 845.213 1395.01 845.22 1394.84C845.227 1394.67 845.267 1394.5 845.339 1394.35C845.41 1394.2 845.51 1394.06 845.635 1393.94C849.963 1389.95 854.661 1386.38 859.665 1383.28C859.347 1380.93 858.541 1378.4 860.249 1378.2C861.957 1378 861.819 1380.17 862.082 1381.86C864.276 1380.59 866.492 1379.41 868.796 1378.33C868.265 1376.03 867.101 1373.75 868.918 1373.33C870.735 1372.91 870.763 1375.52 871.168 1377.28C874.109 1375.99 877.117 1374.86 880.179 1373.89C879.544 1372.38 878.51 1370.8 880.029 1370.19C881.548 1369.59 882.015 1371.62 882.658 1373.16C885.349 1372.38 888.067 1371.72 890.835 1371.27L888.972 1368.04C888.843 1367.74 888.828 1367.41 888.93 1367.1C889.031 1366.8 889.242 1366.54 889.522 1366.38C889.802 1366.22 890.131 1366.17 890.446 1366.24C890.761 1366.31 891.039 1366.49 891.227 1366.75L893.505 1370.82C896.303 1370.37 899.105 1370.07 901.936 1369.9C900.808 1368.47 898.924 1366.79 900.264 1365.69C900.541 1365.49 900.884 1365.4 901.224 1365.44C901.563 1365.48 901.876 1365.64 902.1 1365.9L905.09 1369.74C911.04 1369.56 916.994 1369.95 922.869 1370.91C923.057 1370.91 923.243 1370.95 923.414 1371.03C923.585 1371.11 923.737 1371.22 923.859 1371.36C923.981 1371.51 924.071 1371.68 924.122 1371.86C924.173 1372.04 924.185 1372.23 924.155 1372.42C924.126 1372.6 924.057 1372.78 923.952 1372.94C923.848 1373.09 923.711 1373.22 923.551 1373.32C923.39 1373.42 923.21 1373.49 923.023 1373.51C922.837 1373.53 922.647 1373.51 922.467 1373.46C917.34 1372.58 912.144 1372.18 906.944 1372.25Z" fill="#6A7282"/>
<path d="M341.816 1486.94C338.654 1486.47 335.535 1485.75 332.489 1484.77L331.029 1495.57C339.095 1493.84 342.688 1491.89 341.816 1486.94Z" fill="#6A7282"/>
<path d="M327.856 1483.25C325.328 1482.38 322.769 1481.52 320.122 1480.72L316.668 1498.15C319.737 1497.52 322.817 1497.03 326.048 1496.48L327.856 1483.25Z" fill="#6A7282"/>
<path d="M287.056 1530.37L296.199 1479.25C262.908 1485 263.093 1517.22 287.056 1530.37Z" fill="#6A7282"/>
<path d="M309.425 1509.98C306.707 1508.66 304.914 1507.21 304.828 1506.06C304.594 1502.96 307.367 1500.88 311.502 1499.51L315.451 1479.54C310.772 1478.54 305.97 1478.22 301.198 1478.59L291.555 1532.59C295.661 1534.27 300.04 1535.18 304.476 1535.29L309.425 1509.98Z" fill="#6A7282"/>
<path d="M323.552 1515.46C320.345 1514.27 316.893 1513.13 313.939 1511.98L309.449 1535.1C313.835 1534.99 317.628 1534.86 321.013 1534.7L323.552 1515.46Z" fill="#6A7282"/>
<path d="M343.326 1525.57C343.116 1522.78 336.134 1519.87 328.162 1517.08L325.826 1534.46C332.241 1533.98 337.045 1533.61 342.314 1533.22C343.43 1530.83 343.783 1528.16 343.326 1525.57Z" fill="#6A7282"/>
<path d="M404.195 1542.89L398.814 1482.27C396.283 1483.02 393.824 1483.89 391.375 1484.88L390.984 1541.7C395.34 1542.51 399.764 1542.91 404.195 1542.89Z" fill="#6A7282"/>
<path d="M426.109 1539.21L411.225 1479.46C407.917 1479.97 404.639 1480.66 401.408 1481.54L406.646 1542.73C413.229 1542.17 419.745 1540.99 426.109 1539.21Z" fill="#6A7282"/>
<path d="M443.127 1533L422.371 1478.46C419.468 1478.53 416.572 1478.75 413.693 1479.12L428.573 1538.4C433.547 1536.95 438.411 1535.15 443.127 1533Z" fill="#6A7282"/>
<path d="M434.157 1478.95C431.164 1478.61 428.155 1478.44 425.143 1478.44L445.443 1531.89C450.313 1529.51 454.952 1526.67 459.298 1523.43L434.157 1478.95Z" fill="#6A7282"/>
<path d="M437.337 1479.36L461.358 1521.81C471.1 1513.78 477.194 1504.06 476.401 1493.56C474.406 1467.09 425.533 1466.66 418.714 1467.18C391.317 1469.24 380.097 1477.51 368.528 1482.8C360.75 1506.14 375.899 1518.15 376.051 1520.17C376.203 1522.18 371.498 1526.75 371.818 1530.99C372.509 1533.61 373.645 1536.08 375.175 1538.31C379.619 1539.38 384.061 1540.42 388.362 1541.25L388.806 1485.95C383.951 1488.12 379.297 1490.71 374.897 1493.7C374.757 1493.79 374.599 1493.86 374.434 1493.89C374.268 1493.93 374.097 1493.93 373.931 1493.9C373.765 1493.86 373.607 1493.8 373.466 1493.71C373.326 1493.61 373.204 1493.49 373.11 1493.35C373.015 1493.21 372.949 1493.05 372.916 1492.89C372.882 1492.72 372.882 1492.55 372.914 1492.39C372.946 1492.22 373.011 1492.06 373.104 1491.92C373.198 1491.78 373.318 1491.66 373.458 1491.56C378.339 1488.27 383.522 1485.45 388.937 1483.14C388.976 1480.76 388.56 1478.15 390.279 1478.2C391.998 1478.26 391.534 1480.38 391.539 1482.1C393.9 1481.17 396.268 1480.34 398.708 1479.62C398.53 1477.27 397.724 1474.84 399.583 1474.7C401.443 1474.56 401.076 1477.14 401.212 1478.94C404.314 1478.11 407.458 1477.44 410.631 1476.95C410.23 1475.36 409.446 1473.64 411.039 1473.27C412.632 1472.9 412.789 1474.98 413.191 1476.6C415.969 1476.23 418.756 1475.99 421.559 1475.97L420.206 1472.49C420.123 1472.18 420.158 1471.84 420.305 1471.56C420.451 1471.27 420.698 1471.05 420.999 1470.93C421.3 1470.82 421.633 1470.82 421.934 1470.93C422.234 1471.05 422.482 1471.27 422.629 1471.56L424.267 1475.92C427.102 1475.89 429.917 1476.02 432.741 1476.28C431.842 1474.7 430.231 1472.76 431.723 1471.87C432.027 1471.71 432.379 1471.68 432.709 1471.77C433.039 1471.86 433.323 1472.07 433.505 1472.36L435.882 1476.6C441.792 1477.32 447.619 1478.6 453.282 1480.43C453.468 1480.46 453.646 1480.53 453.803 1480.64C453.96 1480.74 454.093 1480.88 454.192 1481.04C454.291 1481.2 454.355 1481.38 454.378 1481.56C454.401 1481.75 454.384 1481.94 454.327 1482.12C454.27 1482.3 454.175 1482.46 454.048 1482.6C453.921 1482.74 453.766 1482.85 453.592 1482.93C453.419 1483 453.231 1483.03 453.043 1483.03C452.855 1483.02 452.67 1482.98 452.501 1482.89C447.564 1481.26 442.488 1480.08 437.337 1479.36Z" fill="#6A7282"/>
</svg>
