<svg width="1250" height="2041" viewBox="0 0 1250 2041" fill="none" xmlns="http://www.w3.org/2000/svg">
<path d="M793.649 1279.79C790.749 1274.83 785.607 1277.06 779.835 1280.16L787.941 1287.49C789.615 1284.76 791.525 1282.19 793.649 1279.79Z" fill="#552A00"/>
<path d="M775.374 1282.58C772.674 1284.15 769.809 1285.92 767.129 1287.36L781.021 1298.44C782.546 1296.15 783.916 1293.86 785.267 1291.53L775.374 1282.58Z" fill="#552A00"/>
<path d="M763.69 1315.05L723.713 1281.75C713.995 1307.24 734.382 1332.23 763.69 1315.05Z" fill="#552A00"/>
<path d="M778.267 1302.43L762.364 1289.73C758.32 1291.35 754.932 1291.66 753.038 1289.04C752.29 1288.01 752.794 1285.84 754.016 1283.07L733.9 1266.94C730.554 1269.83 727.769 1273.32 725.686 1277.22L767.878 1312.25C771.809 1309.51 775.311 1306.2 778.267 1302.43Z" fill="#552A00"/>
<path d="M761.125 1269.84L746.726 1256.78C743.982 1258.76 741.056 1261.19 737.651 1263.96L755.988 1278.69C757.604 1275.84 759.427 1272.79 761.125 1269.84Z" fill="#552A00"/>
<path d="M769.814 1249.24C768.498 1246.94 766.482 1245.12 764.059 1244.04C759.803 1247.12 755.901 1249.95 750.689 1253.72L763.692 1265.48C768.026 1258.17 771.453 1251.5 769.814 1249.24Z" fill="#552A00"/>
<path d="M840.143 1246.49L805.122 1196.72C801.724 1199.56 798.602 1202.72 795.797 1206.15L832.797 1249.28C835.285 1248.47 837.725 1247.55 840.143 1246.49Z" fill="#552A00"/>
<path d="M824.209 1185.4C818.237 1188.13 812.532 1191.41 807.169 1195.2L842.518 1245.43C845.542 1244.02 848.485 1242.44 851.333 1240.7L824.209 1185.4Z" fill="#552A00"/>
<path d="M860.589 1234.19L841.238 1179.14C836.237 1180.52 831.339 1182.26 826.583 1184.33L853.539 1239.29C855.979 1237.72 858.332 1236.02 860.589 1234.19Z" fill="#552A00"/>
<path d="M859.769 1176.01C854.355 1176.34 848.984 1177.17 843.724 1178.49L862.696 1232.44C865.007 1230.49 867.205 1228.41 869.28 1226.21L859.769 1176.01Z" fill="#552A00"/>
<path d="M830.121 1250.14L794.09 1208.19C791.34 1211.6 788.617 1215.26 785.912 1218.94C786.187 1221.63 786.918 1224.26 788.073 1226.7C790.587 1230.18 796.889 1230.3 798.31 1232.26C799.732 1234.23 795.634 1252.84 816.639 1265.65C828.895 1262.23 842.8 1261.3 865.083 1245.17C870.597 1241.18 907.673 1209.29 892.113 1187.79C885.954 1179.27 875.011 1175.76 862.362 1175.94L871.459 1223.87C874.904 1219.98 878.002 1215.8 880.718 1211.38C880.795 1211.21 880.907 1211.06 881.046 1210.94C881.185 1210.82 881.348 1210.72 881.525 1210.67C881.702 1210.62 881.888 1210.6 882.071 1210.63C882.254 1210.65 882.43 1210.71 882.588 1210.81C882.745 1210.9 882.88 1211.03 882.984 1211.19C883.088 1211.34 883.159 1211.51 883.191 1211.69C883.223 1211.88 883.216 1212.06 883.17 1212.24C883.125 1212.42 883.042 1212.59 882.927 1212.73C879.753 1217.8 876.1 1222.55 872.016 1226.92L872.916 1231.72C872.929 1232.03 872.828 1232.34 872.631 1232.58C872.434 1232.83 872.154 1233 871.844 1233.05C871.535 1233.11 871.215 1233.05 870.944 1232.89C870.674 1232.73 870.47 1232.47 870.372 1232.18L869.826 1229.19C867.833 1231.21 865.743 1233.15 863.586 1234.94L865.127 1239.35C865.238 1239.67 865.216 1240.02 865.067 1240.33C864.918 1240.63 864.653 1240.87 864.331 1240.98C864.009 1241.09 863.657 1241.07 863.351 1240.92C863.045 1240.77 862.811 1240.5 862.7 1240.18L861.461 1236.67C859.195 1238.31 856.929 1239.95 854.688 1241.57C855.409 1243.04 856.63 1244.73 855.174 1245.47C853.719 1246.22 853.184 1244.42 852.464 1242.95C849.73 1244.61 846.908 1246.13 844.012 1247.49L845.834 1250.01C845.975 1250.29 846.013 1250.61 845.94 1250.91C845.867 1251.21 845.689 1251.48 845.436 1251.66C845.184 1251.84 844.875 1251.93 844.565 1251.9C844.254 1251.88 843.963 1251.74 843.744 1251.52L841.649 1248.63C839.35 1249.64 836.978 1250.55 834.577 1251.36C835.705 1252.66 837.397 1254.04 836.153 1255.13C834.91 1256.23 833.48 1254.04 831.945 1252.23C826.319 1253.98 820.538 1255.17 814.682 1255.79C814.505 1255.84 814.319 1255.85 814.137 1255.82C813.955 1255.79 813.781 1255.73 813.628 1255.63C813.474 1255.52 813.344 1255.39 813.247 1255.23C813.15 1255.08 813.088 1254.9 813.065 1254.72C813.042 1254.54 813.059 1254.35 813.115 1254.18C813.171 1254 813.264 1253.84 813.388 1253.7C813.512 1253.57 813.664 1253.46 813.833 1253.39C814.003 1253.32 814.186 1253.28 814.37 1253.29C819.703 1252.71 824.975 1251.65 830.121 1250.14Z" fill="#552A00"/>
<path d="M924.88 1264.7C922.457 1266.78 919.868 1268.66 917.139 1270.33L924.366 1278.48C928.339 1271.25 929.214 1267.25 924.88 1264.7Z" fill="#552A00"/>
<path d="M912.956 1272.84C910.644 1274.18 908.332 1275.52 905.996 1277L916.915 1291.02C918.443 1288.29 920.095 1285.64 921.79 1282.84L912.956 1272.84Z" fill="#552A00"/>
<path d="M921.868 1334.52L889.108 1294.07C871.764 1323.08 896.33 1343.9 921.868 1334.52Z" fill="#552A00"/>
<path d="M921.116 1304.24C918.319 1305.46 916.065 1305.84 915.141 1305.15C912.645 1303.3 912.889 1299.84 914.559 1295.82L902.051 1279.76C898.22 1282.65 894.828 1286.08 891.983 1289.94L926.507 1332.55C930.471 1330.55 934.031 1327.84 937.009 1324.55L921.116 1304.24Z" fill="#552A00"/>
<path d="M934.488 1297.18C931.395 1298.94 928.346 1300.71 925.563 1302.16L940.103 1320.69C942.908 1317.28 945.292 1314.33 947.367 1311.69L934.488 1297.18Z" fill="#552A00"/>
<path d="M955.071 1288.84C952.825 1287.17 946.061 1290.55 938.728 1294.75L950.357 1307.87C954.191 1302.7 957.062 1298.83 960.192 1294.61C959.141 1292.19 957.347 1290.17 955.071 1288.84Z" fill="#552A00"/>
<path d="M1008.01 1254.16L958.66 1218.55C957.591 1220.93 956.621 1223.38 955.788 1225.86L998.448 1263.4C1001.92 1260.63 1005.12 1257.54 1008.01 1254.16Z" fill="#552A00"/>
<path d="M1019.58 1235.19L964.608 1207.4C962.832 1210.23 961.218 1213.15 959.773 1216.16L1009.57 1252.11C1013.43 1246.79 1016.77 1241.13 1019.58 1235.19Z" fill="#552A00"/>
<path d="M1026.02 1218.26L971.225 1198.23C969.366 1200.47 967.629 1202.81 966.02 1205.24L1020.58 1232.8C1022.74 1228.09 1024.56 1223.23 1026.02 1218.26Z" fill="#552A00"/>
<path d="M979.287 1189.66C977.071 1191.7 974.974 1193.86 973.004 1196.14L1026.72 1215.76C1028.1 1210.52 1028.99 1205.17 1029.37 1199.77L979.287 1189.66Z" fill="#552A00"/>
<path d="M981.682 1187.52L1029.5 1197.15C1029.82 1184.51 1026.47 1173.54 1018 1167.26C996.69 1151.44 964.355 1188.14 960.298 1193.6C943.907 1215.69 942.81 1229.58 939.242 1241.8C951.794 1262.95 970.791 1259.36 972.413 1260.57C974.035 1261.77 974.423 1268.29 977.842 1270.83C980.271 1272.02 982.887 1272.78 985.574 1273.08C989.29 1270.42 992.981 1267.74 996.424 1265.03L954.82 1228.63C953.257 1233.74 952.153 1238.98 951.519 1244.29C951.521 1244.47 951.484 1244.66 951.411 1244.83C951.337 1245 951.228 1245.15 951.091 1245.27C950.954 1245.4 950.792 1245.49 950.616 1245.55C950.44 1245.61 950.254 1245.62 950.07 1245.6C949.886 1245.58 949.708 1245.52 949.549 1245.43C949.39 1245.34 949.252 1245.21 949.146 1245.06C949.039 1244.91 948.966 1244.73 948.931 1244.55C948.897 1244.37 948.901 1244.18 948.944 1244C949.655 1238.15 950.92 1232.37 952.722 1226.76C950.936 1225.2 948.611 1223.9 949.872 1222.52C951.133 1221.13 952.343 1222.99 953.623 1224.14C954.468 1221.75 955.407 1219.39 956.446 1217.1C954.549 1215.69 952.201 1214.68 953.293 1213.21C954.386 1211.74 956.118 1213.68 957.584 1214.73C958.979 1211.85 960.529 1209.05 962.228 1206.33C960.764 1205.6 958.971 1205.04 959.734 1203.59C960.497 1202.15 962.151 1203.41 963.641 1204.17C965.183 1201.83 966.825 1199.57 968.641 1197.43L965.141 1196.15C964.983 1196.09 964.837 1196.01 964.712 1195.89C964.587 1195.78 964.486 1195.64 964.414 1195.49C964.268 1195.18 964.251 1194.83 964.365 1194.51C964.48 1194.19 964.717 1193.93 965.025 1193.78C965.332 1193.64 965.685 1193.62 966.005 1193.73L970.396 1195.33C972.213 1193.19 974.173 1191.12 976.195 1189.18C974.428 1188.8 971.892 1188.77 972.212 1187.04C972.292 1186.71 972.493 1186.43 972.774 1186.24C973.056 1186.05 973.397 1185.98 973.73 1186.04L978.497 1187.02C982.939 1182.99 987.765 1179.4 992.907 1176.31C993.05 1176.19 993.219 1176.1 993.4 1176.05C993.582 1176 993.772 1175.99 993.958 1176.02C994.144 1176.05 994.321 1176.12 994.478 1176.22C994.634 1176.33 994.766 1176.46 994.864 1176.62C994.963 1176.78 995.025 1176.96 995.048 1177.15C995.07 1177.34 995.051 1177.53 994.993 1177.71C994.936 1177.89 994.839 1178.05 994.712 1178.19C994.584 1178.33 994.428 1178.44 994.255 1178.51C989.8 1181.13 985.592 1184.15 981.682 1187.52Z" fill="#552A00"/>
<path d="M1041.47 527.172C1042.57 530.175 1043.42 533.262 1044.01 536.403L1054.19 532.514C1048.82 526.247 1045.39 524.019 1041.47 527.172Z" fill="#552A00"/>
<path d="M1044.88 541.202C1045.32 543.838 1045.77 546.475 1046.33 549.182L1063.3 543.91C1061.28 541.516 1059.39 539.037 1057.36 536.461L1044.88 541.202Z" fill="#552A00"/>
<path d="M1105.75 554.615L1056.35 571.006C1077.37 597.465 1105.52 581.819 1105.75 554.615Z" fill="#552A00"/>
<path d="M1077.15 544.64C1077.3 547.685 1076.86 549.928 1075.89 550.551C1073.28 552.233 1070.13 550.786 1066.95 547.804L1047.52 553.847C1048.87 558.45 1050.88 562.833 1053.49 566.857L1105.54 549.577C1105.07 545.164 1103.79 540.876 1101.76 536.929L1077.15 544.64Z" fill="#552A00"/>
<path d="M1075.25 529.634C1075.82 533.152 1076.39 536.627 1076.77 539.746L1099.24 532.674C1097.03 528.845 1095.11 525.573 1093.37 522.7L1075.25 529.634Z" fill="#552A00"/>
<path d="M1074.71 507.434C1072.36 508.948 1073.13 516.47 1074.47 524.811L1090.85 518.555C1087.37 513.146 1084.76 509.095 1081.92 504.679C1079.28 504.809 1076.76 505.774 1074.71 507.434Z" fill="#552A00"/>
<path d="M1060.93 445.668L1010.2 479.289C1012.05 481.129 1014 482.902 1016.03 484.555L1066.2 457.874C1064.83 453.649 1063.07 449.562 1060.93 445.668Z" fill="#552A00"/>
<path d="M1047.25 428.155L1001.87 469.793C1003.89 472.451 1006.05 474.993 1008.36 477.406L1059.56 443.482C1055.94 438.002 1051.82 432.87 1047.25 428.155Z" fill="#552A00"/>
<path d="M1033.69 416.153L995.614 460.366C997.058 462.896 998.636 465.347 1000.34 467.709L1045.37 426.375C1041.72 422.693 1037.82 419.277 1033.69 416.153Z" fill="#552A00"/>
<path d="M990.438 449.799C991.565 452.592 992.852 455.318 994.29 457.965L1031.59 414.619C1027.18 411.483 1022.48 408.764 1017.56 406.498L990.438 449.799Z" fill="#552A00"/>
<path d="M989.287 446.806L1015.16 405.459C1003.44 400.694 991.993 399.968 983.134 405.671C960.817 420.039 983.748 463.236 987.433 468.959C1002.32 492.086 1014.93 498.012 1025.11 505.658C1049.33 501.373 1052.67 482.33 1054.37 481.237C1056.07 480.143 1062.3 482.079 1065.88 479.774C1067.85 477.921 1069.49 475.742 1070.72 473.334C1069.54 468.919 1068.34 464.52 1067.01 460.343L1018.28 486.436C1022.51 489.701 1027.02 492.583 1031.77 495.048C1031.94 495.111 1032.1 495.211 1032.23 495.339C1032.37 495.468 1032.47 495.624 1032.54 495.796C1032.61 495.968 1032.64 496.153 1032.63 496.338C1032.62 496.522 1032.57 496.703 1032.49 496.868C1032.4 497.033 1032.29 497.178 1032.14 497.294C1032 497.41 1031.83 497.494 1031.65 497.54C1031.47 497.586 1031.28 497.594 1031.1 497.562C1030.92 497.531 1030.75 497.461 1030.59 497.357C1025.37 494.627 1020.41 491.407 1015.79 487.741C1013.7 488.863 1011.67 490.58 1010.81 488.911C1009.96 487.242 1012.13 486.768 1013.65 485.974C1011.71 484.339 1009.84 482.628 1008.06 480.85C1006.08 482.128 1004.31 483.971 1003.31 482.429C1002.32 480.887 1004.75 479.952 1006.25 478.95C1004.04 476.628 1001.97 474.189 1000.03 471.643C998.821 472.753 997.668 474.235 996.584 473.01C995.5 471.786 997.268 470.685 998.501 469.558C996.856 467.29 995.316 464.955 993.959 462.502L991.525 465.326C991.416 465.454 991.283 465.56 991.133 465.637C990.983 465.714 990.82 465.76 990.652 465.774C990.313 465.802 989.976 465.694 989.717 465.473C989.458 465.253 989.296 464.939 989.268 464.6C989.241 464.261 989.349 463.924 989.569 463.665L992.609 460.119C991.251 457.666 990.008 455.103 988.902 452.524C987.921 454.043 987.004 456.408 985.493 455.496C985.214 455.306 985.018 455.017 984.943 454.688C984.868 454.359 984.921 454.014 985.09 453.722L987.69 449.608C985.484 444.03 983.83 438.249 982.751 432.347C982.687 432.17 982.663 431.981 982.68 431.793C982.696 431.606 982.753 431.424 982.847 431.26C982.94 431.097 983.068 430.955 983.221 430.846C983.374 430.736 983.549 430.661 983.734 430.626C983.919 430.591 984.11 430.596 984.293 430.641C984.476 430.686 984.646 430.77 984.794 430.887C984.941 431.005 985.061 431.153 985.146 431.321C985.23 431.489 985.278 431.674 985.284 431.862C986.165 436.954 987.505 441.956 989.287 446.806Z" fill="#552A00"/>
<path d="M1106.99 868.891C1101.24 868.704 1100.42 874.277 1100.01 880.787L1110.51 877.802C1109.09 874.938 1107.91 871.956 1106.99 868.891Z" fill="#552A00"/>
<path d="M1099.71 885.855C1099.62 888.978 1099.61 892.343 1099.42 895.41L1116.17 889.461C1115.02 886.955 1113.8 884.55 1112.54 882.177L1099.71 885.855Z" fill="#552A00"/>
<path d="M1121.13 912.915L1071.75 929.393C1088.27 951.034 1120.25 946.876 1121.13 912.915Z" fill="#552A00"/>
<path d="M1118.1 893.905L1098.92 900.711C1098.17 905.002 1096.63 908.039 1093.41 908.267C1092.14 908.356 1090.56 906.785 1088.86 904.257L1064.54 912.86C1065.24 917.226 1066.73 921.429 1068.94 925.261L1120.96 907.88C1120.71 903.105 1119.74 898.395 1118.1 893.905Z" fill="#552A00"/>
<path d="M1081.36 891.109L1062.67 896.479C1062.91 899.858 1063.42 903.592 1063.98 907.977L1086.17 900.178C1084.6 897.391 1082.98 894.266 1081.36 891.109Z" fill="#552A00"/>
<path d="M1068.46 873.013C1065.81 872.906 1063.2 873.647 1061 875.128C1061.38 880.399 1061.71 885.173 1062.17 891.622L1079.03 886.786C1075.1 879.305 1071.25 872.816 1068.46 873.013Z" fill="#552A00"/>
<path d="M1103.24 811.825L1042.48 815.305C1043.1 819.703 1044.14 824.032 1045.57 828.235L1101.73 819.534C1102.36 816.997 1102.86 814.407 1103.24 811.825Z" fill="#552A00"/>
<path d="M1042.94 793.089C1042.11 799.603 1041.88 806.179 1042.27 812.734L1103.59 809.215C1103.99 805.902 1104.2 802.569 1104.22 799.231L1042.94 793.089Z" fill="#552A00"/>
<path d="M1103.58 787.936L1046.61 775.351C1045.14 780.328 1044.03 785.405 1043.29 790.541L1104.19 796.648C1104.14 793.735 1103.94 790.827 1103.58 787.936Z" fill="#552A00"/>
<path d="M1053.73 757.961C1051.11 762.723 1048.94 767.715 1047.24 772.876L1103.08 785.229C1102.64 782.249 1102.04 779.296 1101.27 776.383L1053.73 757.961Z" fill="#552A00"/>
<path d="M1101.05 822.263L1046.4 830.701C1047.85 834.836 1049.52 839.081 1051.22 843.322C1053.64 844.528 1056.26 845.303 1058.95 845.612C1063.23 845.31 1066.66 840.02 1069.08 839.85C1071.49 839.679 1085.14 852.954 1107.11 841.87C1110.67 829.654 1117.21 817.352 1115.28 789.914C1114.8 783.125 1107.27 734.801 1080.8 736.67C1070.32 737.41 1061.56 744.852 1055.03 755.688L1100.54 773.164C1099.06 768.175 1097.15 763.327 1094.81 758.675C1094.71 758.52 1094.63 758.344 1094.6 758.159C1094.57 757.973 1094.58 757.783 1094.62 757.601C1094.67 757.418 1094.76 757.248 1094.88 757.103C1095 756.957 1095.15 756.839 1095.31 756.756C1095.48 756.674 1095.67 756.629 1095.86 756.625C1096.05 756.621 1096.23 756.657 1096.41 756.732C1096.58 756.807 1096.73 756.919 1096.86 757.059C1096.98 757.199 1097.08 757.365 1097.13 757.545C1099.81 762.916 1101.95 768.536 1103.52 774.324L1108.07 776.06C1108.34 776.215 1108.55 776.464 1108.66 776.761C1108.76 777.058 1108.75 777.383 1108.64 777.676C1108.52 777.969 1108.3 778.21 1108.02 778.354C1107.74 778.499 1107.42 778.538 1107.12 778.464L1104.3 777.385C1104.96 780.143 1105.5 782.909 1105.88 785.717L1110.44 786.704C1110.74 786.808 1111 787.02 1111.16 787.301C1111.32 787.582 1111.36 787.912 1111.29 788.226C1111.22 788.54 1111.04 788.817 1110.78 789.004C1110.51 789.19 1110.19 789.273 1109.87 789.237L1106.23 788.403C1106.43 791.193 1106.62 793.984 1106.82 796.774C1108.45 796.939 1110.53 796.761 1110.39 798.422C1110.26 800.083 1108.45 799.526 1106.82 799.36C1106.79 802.561 1106.59 805.758 1106.21 808.937L1109.31 808.718C1109.62 808.744 1109.92 808.88 1110.13 809.102C1110.35 809.324 1110.49 809.616 1110.51 809.927C1110.53 810.238 1110.44 810.546 1110.25 810.796C1110.07 811.046 1109.8 811.222 1109.5 811.291L1105.93 811.543C1105.58 814.06 1105.1 816.525 1104.53 818.995C1106.23 818.875 1108.29 818.013 1108.56 819.676C1108.83 821.339 1106.22 821.337 1103.87 821.69C1102.39 827.399 1100.35 832.949 1097.78 838.259C1097.72 838.434 1097.63 838.594 1097.5 838.728C1097.37 838.863 1097.22 838.969 1097.05 839.039C1096.88 839.11 1096.69 839.143 1096.51 839.136C1096.32 839.13 1096.14 839.085 1095.97 839.003C1095.81 838.921 1095.66 838.805 1095.54 838.662C1095.43 838.519 1095.34 838.353 1095.29 838.175C1095.24 837.996 1095.23 837.809 1095.26 837.626C1095.29 837.444 1095.36 837.269 1095.46 837.115C1097.76 832.34 1099.63 827.37 1101.05 822.263Z" fill="#552A00"/>
<path d="M979.249 1097.58C975.501 1093.22 970.84 1096.38 965.765 1100.48L975.069 1106.2C976.213 1103.22 977.612 1100.33 979.249 1097.58Z" fill="#552A00"/>
<path d="M961.831 1103.69C959.469 1105.74 956.982 1108 954.595 1109.94L970.303 1118.25C971.376 1115.72 972.317 1113.18 973.214 1110.65L961.831 1103.69Z" fill="#552A00"/>
<path d="M956.378 1137.77L910.85 1112.54C906.075 1139.34 930.768 1160.09 956.378 1137.77Z" fill="#552A00"/>
<path d="M968.337 1122.68L950.352 1113.16C946.68 1115.5 943.408 1116.43 941.06 1114.21C940.134 1113.33 940.226 1111.11 940.936 1108.14L918.153 1096.04C915.409 1099.51 913.32 1103.45 911.99 1107.67L959.973 1134.24C963.32 1130.82 966.139 1126.93 968.337 1122.68Z" fill="#552A00"/>
<path d="M945.549 1093.72L928.955 1083.59C926.626 1086.05 924.223 1088.95 921.37 1092.33L942.124 1103.4C943.117 1100.36 944.322 1097.05 945.549 1093.72Z" fill="#552A00"/>
<path d="M950.157 1071.98C948.446 1069.96 946.134 1068.54 943.559 1067.92C939.927 1071.76 936.638 1075.24 932.195 1079.93L947.157 1089.08C950.015 1081.13 952.189 1073.91 950.157 1071.98Z" fill="#552A00"/>
<path d="M1018.75 1056.23L975.103 1013.82C972.283 1017.25 969.794 1020.94 967.67 1024.84L1012.05 1060.33C1014.35 1059.08 1016.6 1057.7 1018.75 1056.23Z" fill="#552A00"/>
<path d="M991.778 999.135C986.418 1002.93 981.421 1007.21 976.853 1011.93L1020.91 1054.72C1023.62 1052.77 1026.22 1050.68 1028.69 1048.44L991.778 999.135Z" fill="#552A00"/>
<path d="M1036.58 1040.32L1007.33 989.844C1002.67 992.128 998.177 994.743 993.892 997.67L1030.58 1046.67C1032.69 1044.66 1034.7 1042.54 1036.58 1040.32Z" fill="#552A00"/>
<path d="M1024.96 983.331C1019.68 984.624 1014.53 986.401 1009.58 988.638L1038.24 1038.12C1040.14 1035.79 1041.9 1033.35 1043.53 1030.81L1024.96 983.331Z" fill="#552A00"/>
<path d="M1009.58 1061.67L966.413 1027.12C964.344 1030.98 962.347 1035.08 960.372 1039.21C961.125 1041.81 962.323 1044.26 963.915 1046.45C967.031 1049.4 973.245 1048.35 975.006 1050.01C976.767 1051.68 976.218 1070.71 999.235 1079.39C1010.64 1073.76 1024.13 1070.26 1043.04 1050.28C1047.71 1045.34 1078.23 1007.12 1058.94 988.874C1051.31 981.655 1039.91 980.234 1027.51 982.755L1045.41 1028.1C1048.09 1023.63 1050.36 1018.94 1052.21 1014.08C1052.25 1013.9 1052.33 1013.72 1052.45 1013.57C1052.56 1013.42 1052.71 1013.3 1052.87 1013.21C1053.04 1013.12 1053.22 1013.07 1053.41 1013.06C1053.6 1013.05 1053.79 1013.08 1053.96 1013.15C1054.14 1013.22 1054.3 1013.33 1054.43 1013.46C1054.56 1013.6 1054.66 1013.76 1054.72 1013.94C1054.78 1014.12 1054.8 1014.31 1054.78 1014.49C1054.77 1014.68 1054.71 1014.86 1054.61 1015.03C1052.46 1020.63 1049.77 1026 1046.57 1031.08L1048.37 1035.6C1048.44 1035.91 1048.4 1036.23 1048.25 1036.51C1048.1 1036.79 1047.86 1037 1047.56 1037.11C1047.27 1037.23 1046.94 1037.23 1046.65 1037.12C1046.35 1037.01 1046.11 1036.8 1045.95 1036.53L1044.84 1033.72C1043.26 1036.07 1041.58 1038.34 1039.78 1040.52L1042.13 1044.55C1042.26 1044.84 1042.28 1045.17 1042.18 1045.48C1042.08 1045.79 1041.87 1046.04 1041.59 1046.2C1041.31 1046.36 1040.98 1046.42 1040.66 1046.35C1040.35 1046.28 1040.07 1046.1 1039.88 1045.84L1038.03 1042.59C1036.11 1044.62 1034.19 1046.66 1032.26 1048.69C1033.25 1050 1034.78 1051.41 1033.47 1052.44C1032.15 1053.46 1031.34 1051.75 1030.36 1050.43C1027.98 1052.58 1025.49 1054.59 1022.89 1056.47L1025.15 1058.6C1025.34 1058.85 1025.44 1059.16 1025.42 1059.47C1025.41 1059.78 1025.28 1060.07 1025.07 1060.3C1024.85 1060.53 1024.57 1060.67 1024.26 1060.7C1023.95 1060.73 1023.63 1060.65 1023.38 1060.48L1020.78 1058.02C1018.69 1059.46 1016.55 1060.78 1014.34 1062.02C1015.58 1063.2 1017.61 1064.13 1016.57 1065.46C1015.53 1066.78 1013.76 1064.86 1011.92 1063.37C1006.71 1066.14 1001.24 1068.39 995.592 1070.09C995.422 1070.16 995.238 1070.2 995.053 1070.19C994.868 1070.19 994.686 1070.15 994.518 1070.07C994.351 1069.99 994.202 1069.88 994.081 1069.74C993.961 1069.6 993.872 1069.43 993.82 1069.26C993.768 1069.08 993.754 1068.89 993.78 1068.71C993.805 1068.52 993.869 1068.35 993.968 1068.19C994.067 1068.04 994.197 1067.9 994.352 1067.8C994.506 1067.7 994.68 1067.63 994.863 1067.6C999.936 1066.07 1004.86 1064.08 1009.58 1061.67Z" fill="#552A00"/>
<path d="M886.562 411.887C881.611 414.809 883.903 419.955 887.043 425.672L894.315 417.521C891.574 415.869 888.98 413.984 886.562 411.887Z" fill="#552A00"/>
<path d="M889.509 430.11C891.105 432.795 892.899 435.643 894.383 438.334L905.335 424.336C903.028 422.833 900.701 421.46 898.367 420.131L889.509 430.11Z" fill="#552A00"/>
<path d="M922.09 441.481L889.234 481.852C914.774 491.274 939.551 470.623 922.09 441.481Z" fill="#552A00"/>
<path d="M909.35 427.052L896.804 443.076C898.464 447.105 898.8 450.489 896.199 452.409C895.174 453.166 893.002 452.683 890.208 451.463L874.286 471.757C877.216 475.07 880.726 477.82 884.643 479.872L919.25 437.32C916.479 433.424 913.142 429.963 909.35 427.052Z" fill="#552A00"/>
<path d="M876.827 444.382L863.926 458.93C865.938 461.656 868.372 464.533 871.194 467.936L885.753 449.459C882.936 447.946 879.891 446.176 876.827 444.382Z" fill="#552A00"/>
<path d="M856.24 436.016C853.948 437.344 852.141 439.369 851.081 441.795C854.219 446.046 857.062 449.896 860.902 455.097L872.544 441.981C865.222 437.767 858.49 434.354 856.24 436.016Z" fill="#552A00"/>
<path d="M852.818 365.716L803.382 401.214C806.263 404.594 809.458 407.695 812.923 410.473L855.672 373.035C854.845 370.555 853.882 368.099 852.818 365.716Z" fill="#552A00"/>
<path d="M791.863 382.212C794.652 388.157 797.987 393.83 801.825 399.157L851.711 363.327C850.273 360.316 848.666 357.388 846.897 354.558L791.863 382.212Z" fill="#552A00"/>
<path d="M840.302 345.365L785.457 365.269C786.884 370.258 788.667 375.139 790.793 379.873L845.49 352.39C843.887 349.958 842.155 347.612 840.302 345.365Z" fill="#552A00"/>
<path d="M782.151 346.77C782.495 352.192 783.337 357.571 784.667 362.839L838.427 343.349C836.462 341.066 834.369 338.897 832.16 336.849L782.151 346.77Z" fill="#552A00"/>
<path d="M856.56 375.703L814.944 412.111C818.38 414.828 822.065 417.516 825.775 420.186C828.469 419.904 831.093 419.156 833.53 417.975C836.981 415.427 837.04 409.125 838.991 407.685C840.941 406.245 859.579 410.139 872.182 389.011C868.643 376.788 867.578 362.893 851.239 340.766C847.196 335.29 814.948 298.523 793.596 314.289C785.145 320.529 781.737 331.506 782.034 344.152L829.822 334.52C825.899 331.101 821.683 328.035 817.222 325.357C817.048 325.284 816.892 325.174 816.765 325.035C816.638 324.896 816.542 324.731 816.485 324.552C816.427 324.373 816.409 324.183 816.432 323.996C816.454 323.809 816.517 323.629 816.616 323.469C816.715 323.308 816.847 323.171 817.004 323.067C817.161 322.962 817.338 322.893 817.524 322.864C817.71 322.834 817.901 322.846 818.082 322.897C818.263 322.948 818.431 323.038 818.575 323.16C823.709 326.263 828.527 329.861 832.959 333.903L837.728 332.932C838.043 332.916 838.352 333.015 838.6 333.209C838.847 333.404 839.016 333.682 839.075 333.991C839.134 334.3 839.079 334.621 838.921 334.893C838.762 335.165 838.511 335.371 838.213 335.472L835.255 336.071C837.292 338.045 839.229 340.092 841.059 342.256L845.434 340.648C845.748 340.572 846.078 340.615 846.361 340.767C846.645 340.92 846.862 341.172 846.971 341.476C847.079 341.779 847.072 342.111 846.951 342.41C846.829 342.708 846.601 342.951 846.311 343.091L842.79 344.339C844.451 346.589 846.113 348.84 847.774 351.09C849.241 350.355 850.897 349.093 851.676 350.566C852.454 352.039 850.623 352.541 849.157 353.276C850.849 355.993 852.393 358.799 853.781 361.684L856.281 359.837C856.557 359.693 856.876 359.652 857.179 359.722C857.482 359.792 857.751 359.968 857.936 360.219C858.121 360.47 858.21 360.778 858.188 361.088C858.165 361.399 858.033 361.691 857.813 361.913L854.938 364.036C855.99 366.35 856.905 368.688 857.745 371.081C859.12 370.066 860.396 368.235 861.518 369.493C862.639 370.751 860.429 372.152 858.639 373.705C860.448 379.319 861.699 385.098 862.377 390.958C862.419 391.138 862.423 391.325 862.388 391.507C862.352 391.688 862.279 391.86 862.172 392.011C862.065 392.163 861.927 392.289 861.768 392.383C861.608 392.477 861.431 392.536 861.247 392.556C861.063 392.576 860.877 392.556 860.701 392.499C860.525 392.441 860.363 392.347 860.227 392.222C860.09 392.098 859.981 391.945 859.908 391.775C859.834 391.605 859.798 391.422 859.801 391.237C859.186 385.973 858.101 380.774 856.56 375.703Z" fill="#552A00"/>
<path d="M689.951 221.994C686.241 226.386 690.102 230.487 694.953 234.849L699.128 224.755C695.996 224.099 692.925 223.176 689.951 221.994Z" fill="#552A00"/>
<path d="M698.744 238.225C701.137 240.233 703.77 242.329 706.058 244.38L711.78 227.553C709.106 226.895 706.456 226.367 703.815 225.882L698.744 238.225Z" fill="#552A00"/>
<path d="M733.252 238.211L715.553 287.16C742.772 287.63 759.349 259.961 733.252 238.211Z" fill="#552A00"/>
<path d="M716.465 228.792L709.908 248.059C712.804 251.314 714.237 254.398 712.416 257.068C711.698 258.121 709.488 258.382 706.447 258.151L698.111 282.563C701.97 284.723 706.191 286.161 710.566 286.806L729.199 235.22C725.297 232.457 721.006 230.29 716.465 228.792Z" fill="#552A00"/>
<path d="M691.48 255.881L684.1 273.871C686.899 275.78 690.146 277.693 693.932 279.975L701.581 257.729C698.423 257.23 694.964 256.564 691.48 255.881Z" fill="#552A00"/>
<path d="M669.286 254.775C667.56 256.784 666.522 259.292 666.322 261.933C670.687 264.91 674.641 267.607 679.981 271.25L686.645 255.027C678.342 253.465 670.862 252.464 669.286 254.775Z" fill="#552A00"/>
<path d="M642.864 189.539L607.906 239.357C611.741 241.598 615.78 243.471 619.968 244.951L647.974 195.507C646.375 193.438 644.655 191.437 642.864 189.539Z" fill="#552A00"/>
<path d="M590.764 225.219C595.357 229.911 600.377 234.166 605.758 237.93L641.031 187.649C638.681 185.28 636.197 183.047 633.594 180.959L590.764 225.219Z" fill="#552A00"/>
<path d="M624.335 174.455L579.127 211.338C582.12 215.577 585.413 219.596 588.982 223.364L631.55 179.376C629.235 177.609 626.826 175.966 624.335 174.455Z" fill="#552A00"/>
<path d="M569.904 194.964C572.016 199.969 574.586 204.77 577.579 209.304L621.901 173.17C619.292 171.664 616.601 170.306 613.84 169.102L569.904 194.964Z" fill="#552A00"/>
<path d="M649.692 197.732L622.416 245.83C626.556 247.262 630.921 248.584 635.304 249.88C637.754 248.726 639.984 247.154 641.896 245.235C644.313 241.692 642.29 235.722 643.656 233.719C645.022 231.716 663.901 229.244 668.829 205.142C661.456 194.771 655.867 182.005 633.144 166.506C627.521 162.67 584.949 138.599 569.993 160.526C564.073 169.205 564.478 180.692 568.93 192.532L610.865 167.675C606.034 165.741 601.042 164.238 595.947 163.181C595.759 163.169 595.576 163.117 595.41 163.028C595.244 162.939 595.099 162.815 594.986 162.664C594.872 162.514 594.793 162.341 594.753 162.157C594.712 161.973 594.712 161.782 594.753 161.598C594.793 161.414 594.873 161.241 594.986 161.091C595.1 160.941 595.244 160.817 595.41 160.728C595.576 160.639 595.76 160.586 595.948 160.575C596.136 160.563 596.324 160.593 596.5 160.661C602.37 161.896 608.105 163.704 613.623 166.058L617.805 163.567C618.096 163.449 618.421 163.44 618.719 163.542C619.017 163.644 619.268 163.85 619.426 164.123C619.583 164.395 619.637 164.716 619.577 165.025C619.518 165.334 619.348 165.611 619.1 165.805L616.506 167.347C619.079 168.538 621.583 169.831 624.025 171.271L627.625 168.309C627.895 168.134 628.221 168.066 628.539 168.116C628.857 168.167 629.145 168.334 629.348 168.584C629.551 168.834 629.654 169.151 629.637 169.472C629.621 169.794 629.486 170.098 629.259 170.326L626.346 172.666C628.657 174.242 630.968 175.819 633.278 177.395C634.42 176.217 635.568 174.479 636.789 175.613C638.009 176.747 636.446 177.825 635.304 179.002C637.798 181.009 640.181 183.149 642.443 185.414L644.195 182.847C644.408 182.619 644.695 182.476 645.004 182.442C645.314 182.408 645.625 182.485 645.883 182.661C646.14 182.836 646.326 183.098 646.407 183.399C646.488 183.699 646.46 184.019 646.326 184.3L644.312 187.253C646.068 189.09 647.703 190.996 649.285 192.978C650.249 191.566 650.849 189.417 652.323 190.234C653.797 191.052 652.172 193.103 650.995 195.16C654.555 199.863 657.643 204.906 660.215 210.214C660.314 210.37 660.38 210.545 660.406 210.729C660.433 210.912 660.42 211.098 660.369 211.276C660.318 211.454 660.23 211.619 660.11 211.76C659.991 211.902 659.842 212.016 659.675 212.095C659.508 212.175 659.326 212.218 659.141 212.221C658.956 212.225 658.772 212.19 658.602 212.117C658.432 212.044 658.279 211.936 658.154 211.8C658.029 211.664 657.934 211.503 657.875 211.327C655.558 206.561 652.819 202.011 649.692 197.732Z" fill="#552A00"/>
<path d="M1167.32 789.838C1167.72 793.009 1167.87 796.208 1167.75 799.403L1178.55 797.889C1174.7 790.59 1171.85 787.659 1167.32 789.838Z" fill="#552A00"/>
<path d="M1167.54 804.275C1167.39 806.944 1167.25 809.642 1167.19 812.406L1184.91 811.018C1183.47 808.235 1182.17 805.4 1180.77 802.439L1167.54 804.275Z" fill="#552A00"/>
<path d="M1223.94 830.816L1172.28 835.923C1186.79 866.331 1217.75 857.443 1223.94 830.816Z" fill="#552A00"/>
<path d="M1198.26 814.793C1197.72 817.767 1196.81 819.886 1195.73 820.279C1192.81 821.342 1190.05 819.235 1187.62 815.624L1167.33 817.221C1167.62 821.998 1168.61 826.708 1170.26 831.2L1224.85 825.885C1225.31 821.486 1224.96 817.04 1223.82 812.767L1198.26 814.793Z" fill="#552A00"/>
<path d="M1199.73 799.739C1199.45 803.149 1199.28 806.781 1198.97 809.936L1222.45 808.007C1221.15 803.814 1220 800.198 1218.93 796.983L1199.73 799.739Z" fill="#552A00"/>
<path d="M1204.13 778.028C1201.5 778.984 1200.59 786.491 1200.06 794.922L1217.42 792.471C1215.22 786.426 1213.57 781.899 1211.77 776.934C1209.17 776.504 1206.5 776.886 1204.13 778.028Z" fill="#552A00"/>
<path d="M1204.32 714.655L1147.41 736.228C1148.81 738.46 1150.32 740.592 1151.94 742.682L1206.76 727.724C1206.36 723.301 1205.54 718.925 1204.32 714.655Z" fill="#552A00"/>
<path d="M1194.85 694.552L1141.38 725.125C1142.77 728.172 1144.32 731.14 1146.04 734.013L1203.47 712.25C1201.15 706.096 1198.27 700.171 1194.85 694.552Z" fill="#552A00"/>
<path d="M1184.27 679.847L1137.38 714.576C1138.22 717.353 1139.22 720.083 1140.35 722.754L1193.4 692.398C1190.66 688.002 1187.61 683.807 1184.27 679.847Z" fill="#552A00"/>
<path d="M1134.65 703.098C1135.14 706.071 1135.79 709.014 1136.61 711.913L1182.58 677.917C1178.96 673.873 1174.98 670.173 1170.68 666.866L1134.65 703.098Z" fill="#552A00"/>
<path d="M1134.19 699.925L1168.57 665.321C1158.2 658.112 1147.2 654.873 1137.3 658.477C1112.36 667.554 1125.16 714.723 1127.5 721.148C1136.89 746.966 1147.88 755.534 1156.11 765.24C1180.69 766.417 1188.15 748.584 1190.05 747.894C1191.95 747.203 1197.62 750.499 1201.62 749.043C1203.95 747.67 1206.02 745.907 1207.76 743.831C1207.58 739.264 1207.38 734.707 1207.01 730.342L1153.66 744.866C1157.07 748.996 1160.84 752.815 1164.92 756.278C1165.05 756.388 1165.16 756.522 1165.24 756.672C1165.31 756.822 1165.36 756.987 1165.37 757.155C1165.39 757.324 1165.37 757.493 1165.32 757.654C1165.26 757.815 1165.18 757.964 1165.07 758.093C1164.96 758.222 1164.83 758.328 1164.68 758.405C1164.53 758.482 1164.36 758.529 1164.2 758.543C1164.03 758.557 1163.86 758.537 1163.7 758.485C1163.54 758.434 1163.39 758.351 1163.26 758.241C1158.77 754.433 1154.65 750.206 1150.96 745.618C1148.66 746.222 1146.25 747.33 1145.85 745.66C1145.44 743.99 1147.61 743.862 1149.25 743.394C1147.72 741.371 1146.28 739.316 1144.93 737.16C1142.72 737.968 1140.59 739.403 1139.95 737.65C1139.32 735.898 1141.9 735.552 1143.6 734.935C1141.96 732.182 1140.48 729.345 1139.15 726.434C1137.71 727.221 1136.27 728.44 1135.48 727.006C1134.7 725.573 1136.65 724.86 1138.11 724.034C1137 721.459 1136.02 718.841 1135.24 716.149L1132.25 718.393C1131.97 718.557 1131.64 718.613 1131.33 718.549C1131.01 718.486 1130.73 718.308 1130.54 718.05C1130.35 717.791 1130.26 717.471 1130.29 717.15C1130.32 716.829 1130.46 716.531 1130.7 716.312L1134.46 713.555C1133.67 710.833 1133.03 708.088 1132.51 705.3C1131.23 706.593 1129.8 708.667 1128.54 707.473C1128.31 707.222 1128.18 706.893 1128.18 706.551C1128.17 706.209 1128.3 705.878 1128.53 705.625L1131.97 702.188C1131.04 696.268 1130.69 690.272 1130.92 684.283C1130.89 684.096 1130.91 683.906 1130.97 683.727C1131.03 683.548 1131.12 683.383 1131.25 683.244C1131.38 683.105 1131.53 682.996 1131.71 682.923C1131.88 682.85 1132.07 682.815 1132.26 682.822C1132.44 682.828 1132.63 682.875 1132.8 682.96C1132.96 683.044 1133.11 683.164 1133.23 683.311C1133.35 683.458 1133.43 683.629 1133.48 683.812C1133.52 683.994 1133.53 684.185 1133.49 684.37C1133.25 689.565 1133.49 694.772 1134.19 699.925Z" fill="#552A00"/>
<path d="M1127.02 1068.32C1125.21 1070.95 1123.19 1073.44 1120.97 1075.74L1130.03 1081.81C1132.03 1073.8 1131.85 1069.72 1127.02 1068.32Z" fill="#552A00"/>
<path d="M1117.57 1079.24C1115.68 1081.12 1113.77 1083.04 1111.89 1085.07L1126.03 1095.84C1126.81 1092.8 1127.73 1089.82 1128.65 1086.68L1117.57 1079.24Z" fill="#552A00"/>
<path d="M1141.93 1136.61L1100.01 1105.99C1090.57 1138.33 1119.57 1152.34 1141.93 1136.61Z" fill="#552A00"/>
<path d="M1133.46 1107.55C1131.08 1109.41 1128.99 1110.38 1127.92 1109.95C1125.03 1108.8 1124.39 1105.39 1124.97 1101.07L1108.78 1088.74C1105.82 1092.5 1103.42 1096.67 1101.66 1101.12L1145.9 1133.54C1149.17 1130.57 1151.88 1127.02 1153.87 1123.07L1133.46 1107.55Z" fill="#552A00"/>
<path d="M1144.59 1097.3C1142.11 1099.66 1139.56 1102.25 1137.23 1104.4L1156.02 1118.61C1157.85 1114.62 1159.4 1111.16 1160.75 1108.05L1144.59 1097.3Z" fill="#552A00"/>
<path d="M1162.34 1084.05C1159.74 1083.01 1154.06 1088 1148.05 1093.93L1162.63 1103.68C1165.01 1097.7 1166.8 1093.23 1168.76 1088.32C1167.11 1086.27 1164.87 1084.78 1162.34 1084.05Z" fill="#552A00"/>
<path d="M1204.71 1036.92L1147.9 1015.08C1147.47 1017.68 1147.17 1020.28 1146.98 1022.91L1197.82 1048.29C1200.47 1044.73 1202.78 1040.92 1204.71 1036.92Z" fill="#552A00"/>
<path d="M1211.05 1015.62L1150.81 1002.79C1149.81 1005.98 1148.99 1009.23 1148.36 1012.52L1205.69 1034.57C1208.06 1028.43 1209.85 1022.09 1211.05 1015.62Z" fill="#552A00"/>
<path d="M1212.96 997.611L1154.85 992.254C1153.63 994.888 1152.56 997.586 1151.62 1000.33L1211.41 1013.06C1212.29 1007.95 1212.81 1002.79 1212.96 997.611Z" fill="#552A00"/>
<path d="M1160.47 981.882C1158.85 984.421 1157.38 987.05 1156.05 989.755L1212.98 995.043C1212.99 989.619 1212.48 984.207 1211.48 978.877L1160.47 981.882Z" fill="#552A00"/>
<path d="M1162.25 979.21L1210.93 976.315C1208.01 964.034 1201.97 954.287 1192.18 950.376C1167.54 940.523 1145.65 984.222 1143.11 990.571C1132.91 1016.08 1135.39 1029.8 1135.06 1042.52C1152.6 1059.77 1170.05 1051.45 1171.93 1052.2C1173.8 1052.95 1175.83 1059.18 1179.78 1060.76C1182.43 1061.29 1185.16 1061.36 1187.83 1060.97C1190.75 1057.45 1193.63 1053.91 1196.27 1050.42L1146.81 1025.69C1146.6 1031.04 1146.87 1036.4 1147.6 1041.71C1147.63 1041.87 1147.62 1042.04 1147.57 1042.21C1147.53 1042.37 1147.46 1042.52 1147.35 1042.66C1147.25 1042.79 1147.12 1042.91 1146.98 1042.99C1146.83 1043.08 1146.67 1043.13 1146.5 1043.16C1146.34 1043.18 1146.17 1043.17 1146 1043.13C1145.84 1043.08 1145.69 1043.01 1145.55 1042.91C1145.42 1042.81 1145.3 1042.68 1145.22 1042.53C1145.13 1042.39 1145.08 1042.23 1145.05 1042.06C1144.24 1036.23 1143.99 1030.33 1144.29 1024.45C1142.18 1023.37 1139.65 1022.59 1140.45 1021.07C1141.26 1019.56 1142.97 1020.91 1144.51 1021.66C1144.71 1019.13 1145.01 1016.63 1145.44 1014.13C1143.25 1013.25 1140.71 1012.91 1141.4 1011.18C1142.09 1009.44 1144.25 1010.91 1145.92 1011.58C1146.54 1008.44 1147.33 1005.33 1148.27 1002.27C1146.68 1001.91 1144.79 1001.85 1145.16 1000.26C1145.53 998.668 1147.46 999.441 1149.1 999.793C1149.99 997.138 1151 994.529 1152.21 992.001L1148.49 991.684C1148.17 991.622 1147.89 991.444 1147.7 991.187C1147.5 990.929 1147.41 990.609 1147.44 990.288C1147.47 989.967 1147.62 989.668 1147.85 989.449C1148.09 989.229 1148.4 989.104 1148.72 989.099L1153.36 989.548C1154.58 986.991 1155.94 984.521 1157.41 982.096C1155.59 982.206 1153.14 982.801 1153 981.07C1152.99 980.728 1153.12 980.396 1153.34 980.139C1153.57 979.883 1153.88 979.72 1154.22 979.684L1159.08 979.418C1162.33 974.383 1166.06 969.676 1170.22 965.363C1170.33 965.208 1170.47 965.079 1170.63 964.983C1170.8 964.888 1170.98 964.829 1171.17 964.81C1171.35 964.792 1171.54 964.814 1171.72 964.875C1171.9 964.937 1172.06 965.036 1172.2 965.166C1172.33 965.296 1172.44 965.454 1172.51 965.629C1172.58 965.805 1172.61 965.993 1172.6 966.181C1172.59 966.369 1172.54 966.552 1172.45 966.719C1172.36 966.886 1172.24 967.031 1172.09 967.146C1168.45 970.86 1165.15 974.898 1162.25 979.21Z" fill="#552A00"/>
<path d="M887.3 293.602C889.077 296.26 890.635 299.057 891.959 301.967L900.944 295.798C894.245 290.982 890.385 289.631 887.3 293.602Z" fill="#552A00"/>
<path d="M893.943 306.422C894.996 308.879 896.072 311.357 897.258 313.855L912.497 304.708C909.965 302.862 907.54 300.902 904.959 298.881L893.943 306.422Z" fill="#552A00"/>
<path d="M956.255 305.022L912.301 332.634C938.847 353.378 962.596 331.612 956.255 305.022Z" fill="#552A00"/>
<path d="M926.127 302.134C926.972 305.036 927.098 307.341 926.306 308.175C924.166 310.429 920.764 309.77 916.97 307.626L899.524 318.105C901.919 322.249 904.906 326.023 908.389 329.306L954.876 300.199C953.325 296.057 951.027 292.235 948.098 288.922L926.127 302.134Z" fill="#552A00"/>
<path d="M920.725 288.007C921.995 291.183 923.466 294.509 924.599 297.469L944.749 285.272C941.72 282.097 939.077 279.373 936.685 276.973L920.725 288.007Z" fill="#552A00"/>
<path d="M914.98 266.611C913.054 268.64 915.592 275.763 918.872 283.548L933.321 273.609C928.655 269.18 925.161 265.863 921.329 262.225C918.812 263 916.595 264.531 914.98 266.611Z" fill="#552A00"/>
<path d="M886.88 209.809L845.569 254.501C847.825 255.871 850.121 257.108 852.504 258.256L894.895 220.417C892.564 216.636 889.881 213.084 886.88 209.809Z" fill="#552A00"/>
<path d="M869.44 196.039L835.224 247.251C837.823 249.36 840.538 251.323 843.357 253.129L885.053 208.032C880.232 203.559 875.005 199.544 869.44 196.039Z" fill="#552A00"/>
<path d="M853.414 187.596L826.934 239.596C828.929 241.704 831.036 243.704 833.245 245.587L867.186 194.756C862.772 192.044 858.17 189.651 853.414 187.596Z" fill="#552A00"/>
<path d="M819.378 230.537C821.137 232.982 823.033 235.325 825.056 237.556L851.036 186.625C845.998 184.617 840.784 183.082 835.462 182.039L819.378 230.537Z" fill="#552A00"/>
<path d="M817.551 227.903L832.879 181.601C820.388 179.771 809.096 181.779 801.842 189.421C783.568 208.671 816.065 245.177 821.024 249.884C840.95 268.8 854.608 271.567 866.303 276.583C888.821 266.676 887.55 247.385 888.94 245.92C890.331 244.455 896.872 244.878 899.803 241.79C901.277 239.522 902.349 237.018 902.974 234.387C900.782 230.377 898.567 226.389 896.294 222.645L855.019 259.443C859.913 261.618 864.99 263.355 870.191 264.632C870.355 264.673 870.51 264.745 870.646 264.846C870.782 264.946 870.897 265.072 870.984 265.217C871.072 265.361 871.13 265.522 871.156 265.689C871.181 265.856 871.173 266.027 871.133 266.191C871.092 266.355 871.02 266.51 870.92 266.646C870.819 266.782 870.693 266.897 870.549 266.984C870.404 267.072 870.243 267.13 870.076 267.155C869.909 267.181 869.739 267.173 869.574 267.133C863.856 265.727 858.285 263.782 852.935 261.322C851.151 262.885 849.49 264.951 848.379 263.639C847.267 262.327 849.152 261.244 850.419 260.09C848.147 258.962 845.94 257.766 843.772 256.438C842.146 258.151 840.885 260.382 839.533 259.098C838.18 257.814 840.341 256.351 841.582 255.044C838.893 253.308 836.297 251.431 833.807 249.42C832.875 250.763 832.128 252.498 830.785 251.565C829.442 250.633 830.875 249.123 831.806 247.735C829.671 245.922 827.621 244.019 825.72 241.958L824.049 245.299C823.874 245.569 823.605 245.766 823.294 245.85C822.983 245.934 822.652 245.9 822.364 245.754C822.077 245.609 821.853 245.363 821.736 245.063C821.62 244.762 821.618 244.43 821.732 244.128L823.866 239.984C821.944 237.901 820.15 235.727 818.443 233.463C817.872 235.193 817.519 237.686 815.857 237.18C815.537 237.059 815.274 236.823 815.119 236.518C814.965 236.212 814.93 235.86 815.023 235.531L816.574 230.918C813.099 226.035 810.107 220.827 807.639 215.365C807.536 215.208 807.467 215.03 807.439 214.844C807.41 214.658 807.423 214.468 807.475 214.287C807.527 214.106 807.617 213.938 807.74 213.795C807.863 213.653 808.015 213.538 808.187 213.46C808.358 213.382 808.544 213.341 808.733 213.342C808.921 213.342 809.107 213.384 809.278 213.463C809.449 213.542 809.601 213.657 809.723 213.8C809.845 213.944 809.935 214.112 809.986 214.293C812.089 219.05 814.621 223.605 817.551 227.903Z" fill="#552A00"/>
<path d="M651.628 110.087C654.182 112.009 656.575 114.136 658.785 116.447L665.232 107.659C657.319 105.322 653.229 105.32 651.628 110.087Z" fill="#552A00"/>
<path d="M662.128 119.998C663.932 121.97 665.765 123.955 667.709 125.921L679.078 112.26C676.078 111.352 673.142 110.302 670.039 109.245L662.128 119.998Z" fill="#552A00"/>
<path d="M720.489 98.1205L688.104 138.687C720.008 149.512 735.247 121.13 720.489 98.1205Z" fill="#552A00"/>
<path d="M691.095 105.333C692.85 107.794 693.729 109.928 693.257 110.977C691.981 113.81 688.551 114.311 684.263 113.538L671.249 129.186C674.878 132.308 678.942 134.885 683.314 136.835L717.597 94.0225C714.766 90.6241 711.336 87.7736 707.477 85.6124L691.095 105.333Z" fill="#552A00"/>
<path d="M681.335 93.7784C683.582 96.3584 686.068 99.0122 688.114 101.433L703.112 83.2713C699.206 81.2732 695.812 79.5742 692.762 78.0979L681.335 93.7784Z" fill="#552A00"/>
<path d="M668.854 75.476C667.705 78.0264 672.45 83.9135 678.115 90.1807L688.477 76.0317C682.611 73.3894 678.219 71.4109 673.401 69.241C671.28 70.8023 669.693 72.9795 668.854 75.476Z" fill="#552A00"/>
<path d="M623.589 31.1229L599.333 86.9403C601.915 87.4897 604.491 87.9002 607.118 88.1973L634.654 38.4932C631.207 35.6926 627.502 33.2248 623.589 31.1229Z" fill="#552A00"/>
<path d="M602.583 23.8765L587.175 83.5091C590.325 84.6429 593.536 85.5997 596.792 86.3753L621.278 30.0479C615.251 27.4159 608.993 25.3498 602.583 23.8765Z" fill="#552A00"/>
<path d="M584.669 21.1928L576.825 79.0171C579.404 80.3493 582.053 81.5424 584.759 82.5912L600.032 23.4091C594.971 22.3045 589.836 21.5638 584.669 21.1928Z" fill="#552A00"/>
<path d="M566.703 72.9584C569.171 74.6856 571.733 76.2724 574.379 77.7114L582.104 21.0603C576.685 20.8272 571.257 21.098 565.889 21.8692L566.703 72.9584Z" fill="#552A00"/>
<path d="M564.109 71.0739L563.305 22.3074C550.91 24.7006 540.913 30.3216 536.586 39.9281C525.685 64.1286 568.405 87.8712 574.64 90.6794C599.69 101.963 613.497 100.069 626.191 100.947C644.18 84.1665 636.617 66.3744 637.446 64.5325C638.276 62.6905 644.59 60.9328 646.339 57.0505C646.982 54.4236 647.168 51.7057 646.89 49.0156C643.497 45.9534 640.092 42.9194 636.71 40.135L609.884 88.4888C615.222 88.928 620.588 88.8925 625.919 88.3828C626.088 88.3668 626.257 88.3842 626.419 88.4339C626.581 88.4836 626.731 88.5646 626.861 88.6724C626.991 88.7801 627.099 88.9125 627.178 89.0619C627.258 89.2113 627.306 89.3749 627.322 89.5432C627.338 89.7115 627.321 89.8813 627.271 90.0429C627.222 90.2046 627.141 90.3548 627.033 90.4851C626.925 90.6154 626.793 90.7232 626.643 90.8024C626.494 90.8815 626.33 90.9304 626.162 90.9464C620.3 91.5059 614.399 91.5071 608.537 90.9499C607.369 93.0142 606.482 95.5122 605 94.6401C603.518 93.768 604.94 92.1247 605.756 90.6172C603.239 90.3016 600.76 89.9011 598.276 89.3617C597.306 91.5154 596.852 94.0378 595.152 93.2719C593.451 92.506 595.008 90.412 595.748 88.7684C592.637 88.0167 589.568 87.1007 586.554 86.0243C586.117 87.6 585.984 89.4833 584.408 89.0463C582.833 88.6092 583.688 86.7106 584.11 85.0938C581.495 84.0867 578.932 82.9662 576.458 81.6474L575.982 85.353C575.906 85.666 575.717 85.9398 575.451 86.1218C575.185 86.3038 574.862 86.3809 574.542 86.3386C574.223 86.2963 573.931 86.1375 573.721 85.8925C573.512 85.6476 573.401 85.3339 573.409 85.0119L574.057 80.3951C571.555 79.0635 569.145 77.603 566.786 76.0291C566.818 77.8501 567.307 80.3204 565.571 80.3906C565.229 80.3823 564.902 80.2461 564.656 80.0088C564.409 79.7716 564.261 79.4505 564.239 79.1091L564.182 74.2426C559.291 70.7794 554.748 66.8495 550.617 62.5081C550.467 62.3938 550.344 62.2484 550.256 62.0821C550.168 61.9157 550.116 61.7321 550.106 61.5441C550.095 61.356 550.125 61.1679 550.194 60.9926C550.263 60.8173 550.369 60.659 550.505 60.5286C550.641 60.3982 550.804 60.2988 550.982 60.2371C551.16 60.1754 551.349 60.153 551.536 60.1713C551.724 60.1896 551.905 60.2483 552.068 60.3433C552.23 60.4384 552.37 60.5675 552.478 60.7218C556.033 64.5184 559.926 67.9835 564.109 71.0739Z" fill="#552A00"/>
<path d="M1020.86 618.925C1015.75 621.546 1017.68 626.803 1020.46 632.739L1028.23 625.051C1025.6 623.223 1023.14 621.174 1020.86 618.925Z" fill="#552A00"/>
<path d="M1022.64 637.327C1024.05 640.11 1025.66 643.069 1026.87 645.693L1038.7 632.435C1036.5 630.786 1034.28 629.291 1032.04 627.813L1022.64 637.327Z" fill="#552A00"/>
<path d="M1054.41 650.789L1019.07 689.046C1043.86 699.975 1069.94 681.002 1054.41 650.789Z" fill="#552A00"/>
<path d="M1042.62 635.536L1029.06 650.712C1030.45 654.84 1030.57 658.238 1027.85 659.986C1026.78 660.674 1024.64 660.052 1021.95 658.679L1004.72 677.871C1007.43 681.372 1010.75 684.345 1014.53 686.641L1051.85 646.451C1049.33 642.375 1046.22 638.696 1042.62 635.536Z" fill="#552A00"/>
<path d="M1009.05 650.744L995.219 664.399C997.05 667.249 999.309 670.305 1001.89 673.857L1017.61 656.364C1014.95 654.75 1011.99 652.734 1009.05 650.744Z" fill="#552A00"/>
<path d="M989.037 641.034C986.666 642.22 984.737 644.133 983.53 646.493C986.369 650.912 988.973 654.965 992.451 660.378L1004.92 648.045C997.97 643.496 991.39 639.522 989.037 641.034Z" fill="#552A00"/>
<path d="M990.202 570.687L938.567 602.901C941.219 606.451 944.2 609.743 947.47 612.733L992.575 578.176C991.894 575.621 991.109 573.134 990.202 570.687Z" fill="#552A00"/>
<path d="M928.305 583.191C930.7 589.305 933.66 595.183 937.146 600.747L989.252 568.231C988.011 565.133 986.597 562.107 985.018 559.167L928.305 583.191Z" fill="#552A00"/>
<path d="M979.033 549.565L922.995 565.841C924.099 570.912 925.562 575.898 927.372 580.761L983.737 556.887C982.301 554.364 980.731 551.92 979.033 549.565Z" fill="#552A00"/>
<path d="M920.897 547.167C920.925 552.59 921.457 557.999 922.486 563.324L977.398 547.365C975.581 544.95 973.628 542.64 971.549 540.447L920.897 547.167Z" fill="#552A00"/>
<path d="M993.271 580.869L949.396 614.525C952.649 617.459 956.151 620.381 959.68 623.286C962.381 623.16 965.041 622.575 967.546 621.557C971.154 619.238 971.623 612.953 973.662 611.642C975.702 610.332 994.048 615.427 1008.01 595.188C1005.27 582.762 1005.11 568.827 990.246 545.686C986.567 539.959 956.773 501.176 934.443 515.523C925.605 521.202 921.492 531.934 920.967 544.573L969.329 538.142C965.639 534.487 961.637 531.163 957.367 528.205C957.204 528.119 957.061 528 956.947 527.854C956.833 527.708 956.752 527.54 956.708 527.361C956.664 527.182 956.659 526.995 956.692 526.813C956.726 526.631 956.797 526.459 956.903 526.307C957.008 526.155 957.144 526.028 957.302 525.932C957.461 525.837 957.637 525.776 957.821 525.754C958.004 525.732 958.19 525.75 958.366 525.805C958.543 525.86 958.705 525.952 958.843 526.075C963.76 529.512 968.333 533.415 972.5 537.73L977.339 537.096C977.654 537.101 977.956 537.219 978.191 537.43C978.425 537.64 978.576 537.928 978.614 538.24C978.653 538.553 978.578 538.869 978.402 539.13C978.226 539.391 977.962 539.58 977.658 539.662L974.651 540.042C976.555 542.143 978.355 544.312 980.04 546.591L984.528 545.296C984.856 545.203 985.206 545.244 985.504 545.41C985.801 545.576 986.02 545.853 986.112 546.181C986.205 546.508 986.164 546.859 985.998 547.156C985.832 547.453 985.555 547.672 985.228 547.765L981.649 548.808C983.161 551.161 984.673 553.515 986.169 555.842C987.679 555.203 989.431 554.078 990.096 555.572C990.76 557.066 988.934 557.501 987.423 558.139C988.933 560.961 990.292 563.862 991.491 566.829L994.106 565.149C994.391 565.023 994.712 565.003 995.01 565.093C995.308 565.182 995.565 565.375 995.733 565.637C995.901 565.899 995.97 566.213 995.928 566.521C995.885 566.83 995.734 567.113 995.501 567.32L992.494 569.251C993.376 571.603 994.154 574.021 994.837 576.464C996.191 575.409 997.667 573.796 998.688 575.098C999.709 576.4 997.446 577.707 995.559 579.14C996.988 584.853 997.856 590.692 998.152 596.573C998.161 596.742 998.137 596.911 998.08 597.071C998.024 597.23 997.937 597.377 997.824 597.503C997.711 597.628 997.574 597.731 997.422 597.804C997.269 597.877 997.104 597.919 996.935 597.928C996.766 597.937 996.597 597.913 996.438 597.856C996.278 597.8 996.132 597.713 996.006 597.6C995.88 597.487 995.778 597.35 995.705 597.198C995.632 597.045 995.59 596.88 995.581 596.711C995.28 591.372 994.507 586.071 993.271 580.869Z" fill="#552A00"/>
<path d="M107.986 1947.95C105.966 1950.43 103.748 1952.74 101.354 1954.86L109.9 1961.61C112.582 1953.71 112.715 1949.68 107.986 1947.95Z" fill="#552A00"/>
<path d="M97.6897 1958.04C95.6495 1959.76 93.6093 1961.49 91.5693 1963.36L104.78 1975.24C105.804 1972.28 106.966 1969.39 108.073 1966.47L97.6897 1958.04Z" fill="#552A00"/>
<path d="M117.293 2017.2L77.9403 1983.13C65.9578 2014.73 93.7014 2031.11 117.293 2017.2Z" fill="#552A00"/>
<path d="M111.237 1987.52C108.696 1989.21 106.543 1989.97 105.514 1989.46C102.731 1988.08 102.35 1984.66 103.302 1980.38L88.1699 1966.77C84.905 1970.28 82.1681 1974.25 80.0452 1978.55L121.513 2014.44C125.022 2011.75 128.003 2008.43 130.309 2004.65L111.237 1987.52Z" fill="#552A00"/>
<path d="M123.16 1978.21C120.426 1980.5 117.734 1982.77 115.249 1984.69L132.817 2000.38C134.979 1996.53 136.808 1993.2 138.387 1990.24L123.16 1978.21Z" fill="#552A00"/>
<path d="M141.96 1966.4C139.456 1965.15 133.389 1969.66 126.908 1975.08L140.659 1985.95C143.526 1980.2 145.673 1975.88 148.014 1971.18C146.555 1968.98 144.434 1967.31 141.96 1966.4Z" fill="#552A00"/>
<path d="M187.99 1922.96L133.153 1896.57C132.518 1899.1 131.994 1901.68 131.609 1904.27L180.197 1933.74C183.127 1930.4 185.736 1926.79 187.99 1922.96Z" fill="#552A00"/>
<path d="M196.043 1902.25L137.052 1884.55C135.8 1887.64 134.724 1890.81 133.829 1894.02L189.167 1920.67C192.026 1914.76 194.329 1908.59 196.043 1902.25Z" fill="#552A00"/>
<path d="M199.418 1884.46L141.955 1874.35C140.519 1876.89 139.22 1879.5 138.062 1882.17L196.609 1899.72C197.909 1894.71 198.848 1889.61 199.418 1884.46Z" fill="#552A00"/>
<path d="M148.387 1864.5C146.564 1866.9 144.879 1869.4 143.34 1871.99L199.664 1881.87C200.102 1876.47 200.037 1871.05 199.469 1865.66L148.387 1864.5Z" fill="#552A00"/>
<path d="M150.37 1861.98L199.131 1863.07C197.233 1850.56 192.003 1840.35 182.571 1835.66C158.811 1823.83 133.419 1865.63 130.386 1871.72C118.127 1896.34 119.485 1910.21 118.117 1922.86C134.189 1941.49 152.26 1934.62 154.069 1935.52C155.877 1936.42 157.403 1942.77 161.215 1944.67C163.815 1945.41 166.524 1945.7 169.222 1945.53C172.414 1942.26 175.577 1938.97 178.49 1935.7L131.197 1907.05C130.556 1912.36 130.388 1917.71 130.696 1923.05C130.731 1923.23 130.727 1923.42 130.684 1923.6C130.642 1923.78 130.561 1923.95 130.448 1924.09C130.335 1924.24 130.192 1924.36 130.029 1924.45C129.865 1924.53 129.685 1924.59 129.501 1924.6C129.316 1924.61 129.131 1924.58 128.958 1924.52C128.784 1924.45 128.627 1924.35 128.495 1924.22C128.364 1924.09 128.262 1923.94 128.196 1923.76C128.129 1923.59 128.101 1923.41 128.111 1923.22C127.784 1917.33 128.016 1911.43 128.804 1905.58C126.772 1904.36 124.255 1903.49 125.253 1901.9C126.251 1900.32 127.769 1901.94 129.23 1902.84C129.643 1900.34 130.153 1897.85 130.774 1895.42C128.659 1894.36 126.17 1893.78 126.988 1892.14C127.805 1890.5 129.851 1892.11 131.478 1892.89C132.346 1889.81 133.38 1886.77 134.576 1883.8C133.005 1883.33 131.142 1883.1 131.64 1881.54C132.137 1879.99 133.987 1880.94 135.587 1881.43C136.694 1878.85 137.913 1876.33 139.327 1873.91L135.656 1873.27C135.321 1873.21 135.021 1873.02 134.824 1872.75C134.627 1872.47 134.548 1872.12 134.604 1871.79C134.661 1871.45 134.848 1871.15 135.126 1870.96C135.403 1870.76 135.747 1870.68 136.083 1870.74L140.685 1871.53C142.098 1869.11 143.665 1866.73 145.315 1864.47C143.508 1864.4 141.007 1864.82 141.018 1863.06C141.039 1862.72 141.186 1862.4 141.431 1862.17C141.675 1861.94 141.999 1861.81 142.336 1861.8L147.201 1861.93C150.874 1857.18 155 1852.79 159.521 1848.83C159.645 1848.7 159.796 1848.59 159.966 1848.51C160.135 1848.44 160.318 1848.4 160.503 1848.4C160.687 1848.4 160.87 1848.44 161.037 1848.52C161.205 1848.6 161.354 1848.71 161.475 1848.85C161.597 1848.99 161.687 1849.15 161.74 1849.33C161.793 1849.51 161.808 1849.69 161.784 1849.88C161.76 1850.06 161.697 1850.24 161.6 1850.39C161.503 1850.55 161.373 1850.69 161.22 1850.79C157.271 1854.18 153.639 1857.93 150.37 1861.98Z" fill="#552A00"/>
<path d="M453.682 1571.81C450.929 1573.44 448.048 1574.84 445.069 1575.99L450.745 1585.29C455.998 1578.81 457.519 1575.07 453.682 1571.81Z" fill="#552A00"/>
<path d="M440.531 1577.7C438.019 1578.62 435.507 1579.53 432.947 1580.57L441.22 1596.3C443.206 1593.88 445.299 1591.57 447.35 1589.21L440.531 1577.7Z" fill="#552A00"/>
<path d="M438.421 1639.99L413.31 1594.4C391.121 1619.89 411.47 1644.87 438.421 1639.99Z" fill="#552A00"/>
<path d="M443.023 1610.06C440.056 1610.76 437.77 1610.73 436.982 1609.89C434.852 1607.63 435.679 1604.29 438.055 1600.6L428.576 1582.6C424.295 1584.76 420.352 1587.54 416.87 1590.84L443.336 1638.87C447.56 1637.56 451.506 1635.48 454.977 1632.74L443.023 1610.06Z" fill="#552A00"/>
<path d="M457.432 1605.46C454.076 1606.65 450.763 1607.85 447.767 1608.79L458.81 1629.6C462.173 1626.73 465.041 1624.25 467.549 1622.01L457.432 1605.46Z" fill="#552A00"/>
<path d="M479.162 1600.88C477.245 1598.85 469.991 1600.98 462.033 1603.82L471.165 1618.78C475.85 1614.37 479.359 1611.07 483.184 1607.47C482.576 1604.9 481.167 1602.6 479.162 1600.88Z" fill="#552A00"/>
<path d="M537.389 1576.09L495.096 1532.33C493.623 1534.48 492.236 1536.73 490.979 1539.02L526.347 1583.5C530.252 1581.38 533.949 1578.9 537.389 1576.09Z" fill="#552A00"/>
<path d="M552.12 1559.46L502.916 1522.41C500.67 1524.88 498.565 1527.47 496.612 1530.18L539.289 1574.35C544.019 1569.79 548.315 1564.81 552.12 1559.46Z" fill="#552A00"/>
<path d="M561.452 1543.93L511.049 1514.54C508.824 1516.42 506.701 1518.42 504.689 1520.53L553.527 1557.28C556.484 1553.02 559.133 1548.56 561.452 1543.93Z" fill="#552A00"/>
<path d="M520.496 1507.53C517.955 1509.15 515.508 1510.91 513.168 1512.8L562.578 1541.59C564.859 1536.68 566.678 1531.57 568.011 1526.32L520.496 1507.53Z" fill="#552A00"/>
<path d="M523.229 1505.85L568.594 1523.77C571.147 1511.38 569.778 1499.99 562.557 1492.32C544.367 1472.99 506.066 1503.4 501.109 1508.06C481.078 1526.91 477.547 1540.39 471.88 1551.79C480.503 1574.83 499.835 1574.64 501.22 1576.12C502.604 1577.59 501.836 1584.07 504.754 1587.17C506.935 1588.77 509.375 1589.98 511.967 1590.76C516.094 1588.79 520.2 1586.81 524.066 1584.75L489.629 1541.49C487.188 1546.24 485.176 1551.21 483.615 1556.32C483.585 1556.5 483.517 1556.68 483.414 1556.83C483.312 1556.99 483.177 1557.12 483.021 1557.21C482.864 1557.31 482.688 1557.38 482.505 1557.4C482.321 1557.43 482.135 1557.41 481.957 1557.36C481.78 1557.31 481.615 1557.22 481.475 1557.1C481.335 1556.98 481.222 1556.83 481.144 1556.66C481.066 1556.49 481.024 1556.31 481.022 1556.12C481.02 1555.94 481.057 1555.76 481.131 1555.59C482.864 1549.95 485.128 1544.49 487.893 1539.28C486.41 1537.43 484.35 1535.74 485.836 1534.6C487.322 1533.46 488.183 1535.51 489.241 1536.86C490.496 1534.65 491.836 1532.49 493.262 1530.43C491.644 1528.71 489.509 1527.3 490.845 1526.04C492.18 1524.79 493.542 1527.01 494.8 1528.3C496.682 1525.71 498.702 1523.22 500.853 1520.85C499.541 1519.87 497.875 1519 498.881 1517.71C499.888 1516.42 501.292 1517.96 502.625 1518.97C504.555 1516.94 506.571 1515 508.736 1513.22L505.517 1511.34C505.222 1511.17 505.006 1510.89 504.917 1510.56C504.828 1510.23 504.873 1509.88 505.042 1509.59C505.212 1509.29 505.491 1509.08 505.82 1508.99C506.148 1508.9 506.499 1508.95 506.794 1509.11L510.834 1511.46C512.999 1509.68 515.293 1507.99 517.627 1506.43C515.955 1505.74 513.463 1505.27 514.084 1503.62C514.221 1503.31 514.469 1503.06 514.779 1502.93C515.089 1502.8 515.437 1502.79 515.755 1502.9L520.274 1504.71C525.367 1501.52 530.757 1498.83 536.37 1496.69C536.533 1496.6 536.713 1496.55 536.898 1496.54C537.082 1496.53 537.267 1496.56 537.44 1496.62C537.612 1496.69 537.769 1496.79 537.899 1496.92C538.03 1497.05 538.131 1497.21 538.196 1497.38C538.262 1497.56 538.289 1497.74 538.278 1497.93C538.267 1498.11 538.216 1498.29 538.13 1498.45C538.044 1498.62 537.924 1498.76 537.779 1498.87C537.633 1498.99 537.465 1499.07 537.286 1499.11C532.405 1500.93 527.7 1503.18 523.229 1505.85Z" fill="#552A00"/>
<path d="M100.417 1793.16C96.3463 1789.1 91.9405 1792.61 87.1936 1797.09L96.9082 1802.08C97.8205 1799.01 98.9944 1796.03 100.417 1793.16Z" fill="#552A00"/>
<path d="M83.5162 1800.59C81.3177 1802.8 79.0108 1805.26 76.7789 1807.37L93.0767 1814.46C93.9526 1811.85 94.6974 1809.25 95.3985 1806.66L83.5162 1800.59Z" fill="#552A00"/>
<path d="M80.6832 1834.98L33.3606 1813.3C30.6475 1840.39 56.8544 1859.19 80.6832 1834.98Z" fill="#552A00"/>
<path d="M91.4549 1819.02L72.7952 1810.9C69.3125 1813.52 66.1208 1814.69 63.6098 1812.66C62.6199 1811.85 62.542 1809.63 63.0225 1806.62L39.3822 1796.3C36.911 1799.96 35.1295 1804.05 34.1253 1808.36L83.9986 1831.18C87.0748 1827.52 89.5879 1823.43 91.4549 1819.02Z" fill="#552A00"/>
<path d="M66.52 1791.89L49.1997 1783.05C47.086 1785.66 44.8915 1788.76 42.3055 1792.34L63.8447 1801.8C64.6026 1798.7 65.5515 1795.3 66.52 1791.89Z" fill="#552A00"/>
<path d="M69.4532 1769.86C67.5929 1767.98 65.1792 1766.73 62.5639 1766.32C59.2368 1770.42 56.2228 1774.14 52.1519 1779.16L67.7692 1787.14C70.0108 1778.99 71.6261 1771.62 69.4532 1769.86Z" fill="#552A00"/>
<path d="M136.646 1748.91L89.8807 1709.96C87.331 1713.6 85.1314 1717.47 83.3116 1721.52L130.277 1753.51C132.548 1751.99 134.606 1750.54 136.646 1748.91Z" fill="#552A00"/>
<path d="M105.424 1694C100.369 1698.19 95.7148 1702.84 91.5204 1707.89L138.72 1747.19C141.275 1745.05 143.706 1742.75 146.001 1740.33L105.424 1694Z" fill="#552A00"/>
<path d="M153.207 1731.69L120.179 1683.59C115.707 1686.23 111.43 1689.18 107.381 1692.42L147.707 1738.47C149.66 1736.31 151.496 1734.05 153.207 1731.69Z" fill="#552A00"/>
<path d="M137.238 1675.78C132.074 1677.46 127.077 1679.63 122.314 1682.24L154.688 1729.37C156.42 1726.94 158.014 1724.41 159.464 1721.8L137.238 1675.78Z" fill="#552A00"/>
<path d="M127.918 1755.04L82.2336 1723.89C80.4652 1727.9 78.7875 1732.14 77.1339 1736.4C78.0828 1738.94 79.4653 1741.29 81.2199 1743.35C84.5518 1746.05 90.6679 1744.53 92.5511 1746.06C94.4343 1747.58 95.3409 1766.6 118.955 1773.5C129.899 1767.01 143.082 1762.49 160.403 1741.12C164.689 1735.84 192.19 1695.4 171.571 1678.68C163.41 1672.07 151.929 1671.52 139.762 1674.98L160.938 1718.99C163.264 1714.34 165.174 1709.49 166.648 1704.5C166.675 1704.31 166.742 1704.13 166.845 1703.97C166.947 1703.82 167.083 1703.68 167.242 1703.58C167.401 1703.48 167.58 1703.42 167.767 1703.39C167.953 1703.37 168.143 1703.38 168.323 1703.44C168.503 1703.49 168.669 1703.59 168.81 1703.71C168.95 1703.84 169.062 1703.99 169.137 1704.17C169.212 1704.34 169.249 1704.52 169.245 1704.71C169.241 1704.9 169.196 1705.09 169.114 1705.26C167.386 1710.96 165.107 1716.48 162.309 1721.74L164.446 1726.12C164.54 1726.42 164.522 1726.74 164.396 1727.03C164.269 1727.32 164.043 1727.55 163.758 1727.69C163.474 1727.82 163.15 1727.85 162.847 1727.76C162.544 1727.68 162.281 1727.49 162.109 1727.22L160.786 1724.51C159.387 1726.98 157.891 1729.37 156.255 1731.68L158.91 1735.51C159.062 1735.8 159.103 1736.13 159.027 1736.44C158.95 1736.75 158.76 1737.03 158.494 1737.21C158.228 1737.39 157.904 1737.47 157.585 1737.42C157.265 1737.38 156.973 1737.22 156.765 1736.97L154.726 1733.96C152.965 1736.14 151.203 1738.31 149.442 1740.48C150.521 1741.72 152.158 1743 150.928 1744.13C149.697 1745.25 148.752 1743.6 147.672 1742.37C145.467 1744.69 143.137 1746.89 140.694 1748.95L143.108 1750.91C143.317 1751.14 143.436 1751.44 143.445 1751.75C143.453 1752.06 143.35 1752.37 143.154 1752.61C142.958 1752.85 142.682 1753.01 142.375 1753.07C142.069 1753.13 141.753 1753.07 141.484 1752.91L138.707 1750.66C136.731 1752.26 134.697 1753.73 132.591 1755.15C133.919 1756.22 136.011 1757 135.075 1758.4C134.139 1759.8 132.228 1758.01 130.276 1756.67C125.295 1759.83 120.015 1762.49 114.512 1764.62C114.349 1764.7 114.169 1764.76 113.984 1764.77C113.799 1764.78 113.614 1764.75 113.441 1764.68C113.268 1764.62 113.111 1764.52 112.98 1764.39C112.849 1764.26 112.748 1764.1 112.682 1763.93C112.617 1763.75 112.589 1763.57 112.6 1763.38C112.612 1763.2 112.662 1763.02 112.749 1762.85C112.835 1762.69 112.955 1762.55 113.102 1762.43C113.248 1762.32 113.416 1762.24 113.596 1762.19C118.575 1760.25 123.368 1757.85 127.918 1755.04Z" fill="#552A00"/>
<path d="M283.656 1589.53C280.522 1584.72 275.481 1587.23 269.906 1590.62L278.365 1597.53C279.897 1594.72 281.667 1592.04 283.656 1589.53Z" fill="#552A00"/>
<path d="M265.579 1593.27C262.966 1594.98 260.199 1596.9 257.576 1598.5L272.037 1608.83C273.438 1606.46 274.708 1604.08 275.935 1601.69L265.579 1593.27Z" fill="#552A00"/>
<path d="M255.638 1626.32L213.875 1595.25C205.574 1621.18 227.284 1645.03 255.638 1626.32Z" fill="#552A00"/>
<path d="M269.499 1612.96L252.943 1601.12C248.991 1602.96 245.625 1603.44 243.594 1600.93C242.793 1599.94 243.18 1597.74 244.278 1594.9L223.309 1579.88C220.128 1582.95 217.533 1586.57 215.653 1590.58L259.671 1623.3C263.443 1620.36 266.755 1616.88 269.499 1612.96Z" fill="#552A00"/>
<path d="M250.77 1581.22L235.673 1568.97C233.062 1571.08 230.269 1573.65 226.992 1576.62L246.086 1590.36C247.475 1587.48 249.11 1584.36 250.77 1581.22Z" fill="#552A00"/>
<path d="M258.231 1560.29C256.805 1558.06 254.703 1556.34 252.233 1555.39C248.123 1558.71 244.4 1561.72 239.371 1565.78L252.982 1576.84C256.872 1569.34 259.989 1562.47 258.231 1560.29Z" fill="#552A00"/>
<path d="M328.315 1553.81L290.699 1505.97C287.447 1509 284.489 1512.32 281.864 1515.9L321.127 1556.98C323.666 1555.97 325.981 1554.98 328.315 1553.81Z" fill="#552A00"/>
<path d="M309.23 1493.59C303.412 1496.64 297.89 1500.22 292.734 1504.28L330.702 1552.56C333.649 1551 336.504 1549.26 339.254 1547.37L309.23 1493.59Z" fill="#552A00"/>
<path d="M348.103 1540.42L325.83 1486.5C320.907 1488.14 316.109 1490.13 311.472 1492.46L341.31 1545.91C343.67 1544.2 345.938 1542.37 348.103 1540.42Z" fill="#552A00"/>
<path d="M344.144 1482.41C338.741 1482.98 333.403 1484.06 328.199 1485.62L350.035 1538.46C352.236 1536.44 354.323 1534.3 356.285 1532.05L344.144 1482.41Z" fill="#552A00"/>
<path d="M318.501 1557.99L280.316 1517.99C277.751 1521.55 275.226 1525.34 272.72 1529.17C273.119 1531.84 273.981 1534.43 275.267 1536.82C277.962 1540.15 284.262 1539.94 285.785 1541.83C287.309 1543.71 284.23 1562.5 305.886 1574.17C317.943 1570.1 331.779 1568.44 353.174 1551.15C358.468 1546.87 393.797 1513.05 377.116 1492.41C370.514 1484.24 359.399 1481.31 346.778 1482.16L358.312 1529.62C361.557 1525.55 364.437 1521.2 366.918 1516.63C366.984 1516.45 367.087 1516.29 367.22 1516.16C367.353 1516.03 367.514 1515.92 367.69 1515.86C367.867 1515.79 368.056 1515.77 368.243 1515.78C368.431 1515.8 368.614 1515.85 368.778 1515.94C368.943 1516.03 369.085 1516.16 369.197 1516.31C369.308 1516.46 369.385 1516.64 369.422 1516.82C369.459 1517.01 369.456 1517.2 369.413 1517.38C369.37 1517.57 369.288 1517.74 369.172 1517.89C366.293 1523.1 362.912 1528.03 359.079 1532.59L360.257 1537.32C360.286 1537.63 360.201 1537.94 360.018 1538.2C359.834 1538.45 359.564 1538.63 359.257 1538.71C358.951 1538.78 358.629 1538.74 358.35 1538.59C358.071 1538.45 357.855 1538.2 357.741 1537.91L357.013 1534.98C355.13 1537.1 353.169 1539.13 351.086 1541.05L352.884 1545.35C352.973 1545.66 352.945 1545.99 352.805 1546.28C352.664 1546.57 352.422 1546.8 352.124 1546.92C351.825 1547.04 351.493 1547.05 351.19 1546.94C350.886 1546.83 350.634 1546.62 350.481 1546.33L349.115 1542.96C346.939 1544.72 344.764 1546.48 342.588 1548.23C343.386 1549.67 344.719 1551.27 343.281 1552.11C341.844 1552.95 341.262 1551.14 340.464 1549.71C337.823 1551.52 335.087 1553.18 332.266 1554.7L334.219 1557.11C334.375 1557.38 334.43 1557.7 334.373 1558.01C334.316 1558.31 334.152 1558.59 333.91 1558.78C333.668 1558.98 333.363 1559.08 333.052 1559.07C332.741 1559.06 332.443 1558.94 332.212 1558.74L329.966 1555.96C327.7 1557.11 325.404 1558.12 323.05 1559.07C324.124 1560.4 326.008 1561.59 324.8 1562.77C323.593 1563.94 322.097 1561.79 320.467 1560.07C314.937 1562.12 309.218 1563.63 303.393 1564.56C303.215 1564.61 303.029 1564.62 302.846 1564.59C302.663 1564.57 302.487 1564.5 302.332 1564.4C302.176 1564.3 302.044 1564.17 301.943 1564.01C301.842 1563.86 301.776 1563.68 301.748 1563.5C301.72 1563.32 301.731 1563.13 301.781 1562.95C301.831 1562.77 301.918 1562.61 302.037 1562.47C302.155 1562.32 302.303 1562.21 302.469 1562.13C302.636 1562.05 302.817 1562 303.002 1562C308.279 1561.13 313.466 1559.79 318.501 1557.99Z" fill="#552A00"/>
<path d="M510.272 1435.33C507.45 1430.32 502.259 1432.51 496.48 1435.53L504.484 1442.96C506.191 1440.26 508.127 1437.7 510.272 1435.33Z" fill="#552A00"/>
<path d="M491.994 1437.91C489.277 1439.45 486.394 1441.19 483.674 1442.62L497.45 1453.85C498.999 1451.57 500.418 1449.27 501.793 1446.96L491.994 1437.91Z" fill="#552A00"/>
<path d="M479.973 1470.25L440.268 1436.6C430.336 1461.94 450.487 1487.13 479.973 1470.25Z" fill="#552A00"/>
<path d="M494.655 1457.8L478.884 1444.94C474.824 1446.52 471.434 1446.79 469.566 1444.15C468.83 1443.11 469.356 1440.95 470.632 1438.18L450.66 1421.85C447.29 1424.72 444.47 1428.17 442.339 1432.04L484.19 1467.5C488.141 1464.8 491.668 1461.54 494.655 1457.8Z" fill="#552A00"/>
<path d="M477.98 1424.94L463.692 1411.75C460.952 1413.69 458.001 1416.08 454.543 1418.84L472.725 1433.76C474.294 1430.98 476.124 1427.97 477.98 1424.94Z" fill="#552A00"/>
<path d="M486.756 1404.53C485.474 1402.21 483.486 1400.36 481.08 1399.25C476.768 1402.3 472.861 1405.07 467.585 1408.8L480.465 1420.71C484.824 1413.47 488.372 1406.81 486.756 1404.53Z" fill="#552A00"/>
<path d="M557.109 1402.51L522.609 1352.38C519.171 1355.19 516.008 1358.32 513.161 1361.73L549.735 1405.22C552.332 1404.37 554.706 1403.53 557.109 1402.51Z" fill="#552A00"/>
<path d="M541.889 1341.2C535.889 1343.87 530.151 1347.09 524.747 1350.82L559.571 1401.42C562.611 1400.04 565.571 1398.49 568.435 1396.78L541.889 1341.2Z" fill="#552A00"/>
<path d="M577.708 1390.41L558.906 1335.17C553.889 1336.5 548.974 1338.19 544.198 1340.22L570.58 1395.45C573.044 1393.9 575.423 1392.21 577.708 1390.41Z" fill="#552A00"/>
<path d="M577.442 1332.26C572.014 1332.49 566.619 1333.22 561.326 1334.45L579.761 1388.57C582.086 1386.7 584.304 1384.7 586.406 1382.57L577.442 1332.26Z" fill="#552A00"/>
<path d="M547.05 1406.05L511.483 1363.72C508.698 1367.1 505.936 1370.73 503.193 1374.38C503.421 1377.08 504.116 1379.72 505.248 1382.18C507.726 1385.68 514.027 1385.87 515.427 1387.85C516.828 1389.83 512.561 1408.38 533.433 1421.41C545.724 1418.11 559.637 1417.33 582.087 1401.43C587.643 1397.5 625.048 1366 609.713 1344.33C603.644 1335.76 592.737 1332.13 580.088 1332.17L588.583 1380.27C592.08 1376.42 595.23 1372.26 597.997 1367.86C598.074 1367.68 598.186 1367.53 598.328 1367.41C598.469 1367.28 598.636 1367.19 598.816 1367.14C598.997 1367.08 599.187 1367.07 599.373 1367.09C599.56 1367.12 599.738 1367.19 599.897 1367.29C600.055 1367.39 600.19 1367.53 600.291 1367.69C600.392 1367.84 600.458 1368.02 600.483 1368.21C600.509 1368.4 600.494 1368.59 600.439 1368.77C600.384 1368.95 600.291 1369.11 600.166 1369.25C596.961 1374.28 593.275 1378.98 589.159 1383.29L590.035 1388.08C590.044 1388.39 589.939 1388.7 589.74 1388.94C589.54 1389.19 589.259 1389.35 588.949 1389.4C588.638 1389.46 588.319 1389.39 588.051 1389.23C587.782 1389.07 587.581 1388.81 587.486 1388.51L586.946 1385.54C584.932 1387.54 582.846 1389.43 580.646 1391.22L582.166 1395.63C582.236 1395.94 582.187 1396.27 582.028 1396.55C581.87 1396.83 581.613 1397.04 581.308 1397.15C581.003 1397.25 580.67 1397.24 580.374 1397.11C580.079 1396.98 579.84 1396.75 579.706 1396.46L578.557 1393C576.274 1394.62 573.991 1396.24 571.708 1397.85C572.413 1399.33 573.642 1401.01 572.154 1401.76C570.666 1402.51 570.2 1400.67 569.495 1399.19C566.744 1400.83 563.907 1402.32 560.996 1403.65L562.792 1406.18C562.93 1406.46 562.965 1406.78 562.889 1407.08C562.813 1407.38 562.631 1407.65 562.377 1407.83C562.123 1408.01 561.813 1408.09 561.503 1408.06C561.193 1408.03 560.903 1407.9 560.686 1407.67L558.621 1404.76C556.286 1405.76 553.931 1406.63 551.521 1407.42C552.509 1408.82 554.313 1410.13 553.033 1411.22C551.753 1412.32 550.397 1410.08 548.88 1408.26C543.23 1409.96 537.428 1411.09 531.556 1411.65C531.375 1411.69 531.188 1411.69 531.007 1411.65C530.826 1411.61 530.655 1411.54 530.506 1411.43C530.357 1411.32 530.233 1411.18 530.143 1411.02C530.052 1410.85 529.997 1410.68 529.981 1410.49C529.964 1410.31 529.988 1410.12 530.049 1409.95C530.11 1409.77 530.207 1409.61 530.334 1409.48C530.462 1409.34 530.616 1409.24 530.788 1409.17C530.959 1409.1 531.143 1409.07 531.328 1409.07C536.649 1408.54 541.911 1407.53 547.05 1406.05Z" fill="#552A00"/>
<path d="M251.13 1720.6C248.646 1722.61 246.002 1724.42 243.226 1726L250.19 1734.39C254.374 1727.27 255.367 1723.31 251.13 1720.6Z" fill="#552A00"/>
<path d="M238.971 1728.38C236.62 1729.66 234.251 1730.95 231.872 1732.36L242.372 1746.7C243.98 1744.01 245.709 1741.42 247.487 1738.66L238.971 1728.38Z" fill="#552A00"/>
<path d="M246.057 1790.31L214.603 1748.99C196.313 1777.39 220.158 1799.05 246.057 1790.31Z" fill="#552A00"/>
<path d="M246.181 1760.04C243.368 1761.15 241.085 1761.48 240.182 1760.77C237.742 1758.85 238.087 1755.4 239.875 1751.42L227.847 1735.01C223.939 1737.77 220.454 1741.09 217.502 1744.86L250.734 1788.49C254.751 1786.61 258.388 1784 261.467 1780.81L246.181 1760.04Z" fill="#552A00"/>
<path d="M259.775 1753.35C256.728 1754.9 253.551 1756.67 250.706 1758.07L264.693 1777.02C267.578 1773.71 270.049 1770.83 272.22 1768.23L259.775 1753.35Z" fill="#552A00"/>
<path d="M280.594 1745.62C278.398 1743.89 271.537 1747.07 264.084 1751.05L275.301 1764.53C279.286 1759.48 282.27 1755.69 285.542 1751.55C284.541 1749.11 282.813 1747.04 280.594 1745.62Z" fill="#552A00"/>
<path d="M334.535 1712.52L286.257 1675.47C285.098 1677.84 284.076 1680.24 283.151 1682.72L324.722 1721.45C328.267 1718.79 331.552 1715.8 334.535 1712.52Z" fill="#552A00"/>
<path d="M346.654 1693.9L292.589 1664.43C290.726 1667.21 289.019 1670.1 287.478 1673.07L336.08 1710.62C340.117 1705.39 343.658 1699.79 346.654 1693.9Z" fill="#552A00"/>
<path d="M353.598 1677.17L299.397 1655.55C297.479 1657.73 295.68 1660.01 294.007 1662.38L347.726 1691.54C350.024 1686.9 351.986 1682.09 353.598 1677.17Z" fill="#552A00"/>
<path d="M307.727 1647.2C305.454 1649.17 303.293 1651.28 301.256 1653.49L354.348 1674.71C355.887 1669.51 356.939 1664.18 357.492 1658.79L307.727 1647.2Z" fill="#552A00"/>
<path d="M310.184 1645.14L357.692 1656.17C358.373 1643.57 355.342 1632.51 347.07 1625.98C326.231 1609.54 292.846 1645.24 288.611 1650.6C271.595 1672.18 270.087 1686.03 266.16 1698.13C278.083 1719.65 297.177 1716.62 298.763 1717.88C300.349 1719.13 300.525 1725.68 303.868 1728.32C306.261 1729.58 308.853 1730.41 311.53 1730.8C315.323 1728.25 319.092 1725.68 322.612 1723.07L282.198 1685.33C280.511 1690.37 279.271 1695.56 278.493 1700.82C278.468 1700.98 278.41 1701.14 278.323 1701.29C278.235 1701.43 278.12 1701.56 277.984 1701.66C277.848 1701.76 277.693 1701.83 277.529 1701.87C277.365 1701.91 277.195 1701.92 277.027 1701.9C276.86 1701.87 276.7 1701.81 276.555 1701.73C276.41 1701.64 276.284 1701.52 276.184 1701.39C276.083 1701.25 276.011 1701.1 275.97 1700.93C275.93 1700.77 275.922 1700.6 275.947 1700.43C276.824 1694.61 278.253 1688.88 280.214 1683.33C278.494 1681.7 276.285 1680.23 277.49 1679C278.695 1677.78 279.945 1679.55 281.21 1680.71C282.126 1678.35 283.115 1676.04 284.24 1673.76C282.386 1672.3 280.049 1671.24 281.204 1669.78C282.359 1668.32 284.013 1670.33 285.428 1671.45C286.916 1668.6 288.555 1665.84 290.338 1663.17C288.895 1662.39 287.1 1661.8 287.906 1660.38C288.712 1658.96 290.347 1660.25 291.813 1661.05C293.424 1658.76 295.132 1656.54 297.011 1654.46L293.531 1653.1C293.246 1652.95 293.026 1652.7 292.914 1652.4C292.801 1652.1 292.805 1651.76 292.923 1651.46C293.042 1651.16 293.267 1650.92 293.555 1650.78C293.843 1650.63 294.175 1650.6 294.485 1650.69L298.807 1652.43C300.706 1650.33 302.706 1648.34 304.805 1646.44C303.03 1646.03 300.515 1645.9 300.868 1644.2C300.959 1643.87 301.17 1643.59 301.46 1643.41C301.75 1643.22 302.097 1643.16 302.434 1643.22L307.169 1644.34C311.694 1640.47 316.581 1637.05 321.763 1634.12C321.91 1634.01 322.081 1633.92 322.264 1633.88C322.447 1633.83 322.637 1633.83 322.822 1633.86C323.007 1633.9 323.183 1633.97 323.336 1634.08C323.489 1634.19 323.617 1634.33 323.711 1634.49C323.805 1634.66 323.862 1634.84 323.878 1635.03C323.895 1635.21 323.871 1635.4 323.808 1635.58C323.745 1635.76 323.644 1635.92 323.512 1636.05C323.381 1636.19 323.221 1636.29 323.045 1636.36C318.501 1638.89 314.196 1641.83 310.184 1645.14Z" fill="#552A00"/>
<path d="M691.15 1407.66C687.986 1408.12 684.79 1408.31 681.594 1408.25L683.27 1419.01C690.51 1415.06 693.397 1412.16 691.15 1407.66Z" fill="#552A00"/>
<path d="M676.719 1408.11C674.048 1407.99 671.348 1407.89 668.584 1407.88L670.238 1425.58C672.999 1424.09 675.814 1422.75 678.753 1421.3L676.719 1408.11Z" fill="#552A00"/>
<path d="M651.029 1464.89L645.233 1413.29C614.96 1428.28 624.312 1459.11 651.029 1464.89Z" fill="#552A00"/>
<path d="M666.665 1438.98C663.683 1438.49 661.55 1437.6 661.14 1436.53C660.034 1433.62 662.1 1430.84 665.673 1428.35L663.772 1408.09C658.999 1408.45 654.305 1409.51 649.838 1411.23L655.974 1465.74C660.389 1466.18 664.847 1465.81 669.129 1464.65L666.665 1438.98Z" fill="#552A00"/>
<path d="M681.768 1440.21C678.354 1439.98 674.72 1439.87 671.561 1439.61L673.842 1463.05C678.015 1461.69 681.613 1460.49 684.812 1459.37L681.768 1440.21Z" fill="#552A00"/>
<path d="M703.6 1444.26C702.604 1441.65 695.085 1440.85 686.647 1440.44L689.358 1457.77C695.37 1455.48 699.871 1453.76 704.809 1451.88C705.199 1449.28 704.777 1446.62 703.6 1444.26Z" fill="#552A00"/>
<path d="M766.882 1443.53L744.456 1386.95C742.245 1388.39 740.136 1389.93 738.071 1391.58L753.88 1446.15C758.287 1445.69 762.64 1444.81 766.882 1443.53Z" fill="#552A00"/>
<path d="M786.841 1433.76L755.555 1380.73C752.528 1382.16 749.585 1383.76 746.737 1385.52L769.187 1442.68C775.336 1440.27 781.247 1437.28 786.841 1433.76Z" fill="#552A00"/>
<path d="M801.385 1422.96L765.955 1376.6C763.191 1377.48 760.476 1378.52 757.823 1379.69L788.972 1432.28C793.327 1429.48 797.475 1426.36 801.385 1422.96Z" fill="#552A00"/>
<path d="M777.391 1373.7C774.426 1374.23 771.493 1374.93 768.606 1375.79L803.289 1421.24C807.278 1417.57 810.918 1413.53 814.16 1409.18L777.391 1373.7Z" fill="#552A00"/>
<path d="M780.557 1373.19L815.673 1407.04C822.725 1396.57 825.799 1385.52 822.047 1375.68C812.595 1350.87 765.624 1364.38 759.235 1366.82C733.561 1376.6 725.159 1387.72 715.578 1396.09C714.77 1420.68 732.713 1427.88 733.433 1429.77C734.152 1431.65 730.941 1437.37 732.457 1441.35C733.865 1443.66 735.659 1445.71 737.761 1447.41C742.325 1447.17 746.878 1446.89 751.237 1446.46L735.913 1393.33C731.877 1396.8 728.154 1400.61 724.787 1404.72C724.68 1404.85 724.548 1404.96 724.398 1405.04C724.249 1405.12 724.086 1405.17 723.917 1405.19C723.749 1405.2 723.579 1405.19 723.418 1405.14C723.256 1405.09 723.105 1405.01 722.975 1404.9C722.844 1404.79 722.736 1404.66 722.657 1404.51C722.577 1404.36 722.528 1404.2 722.512 1404.03C722.496 1403.86 722.513 1403.69 722.562 1403.53C722.611 1403.37 722.692 1403.22 722.8 1403.09C726.54 1398.54 730.704 1394.36 735.236 1390.6C734.598 1388.31 733.454 1385.92 735.118 1385.49C736.782 1385.05 736.942 1387.22 737.435 1388.86C739.435 1387.3 741.468 1385.83 743.603 1384.45C742.762 1382.24 741.295 1380.14 743.038 1379.48C744.781 1378.81 745.165 1381.39 745.807 1383.08C748.544 1381.4 751.369 1379.87 754.27 1378.49C753.433 1377.08 752.192 1375.65 753.614 1374.85C755.035 1374.04 755.777 1375.98 756.625 1377.42C759.183 1376.28 761.786 1375.26 764.466 1374.44L762.177 1371.48C762.009 1371.21 761.949 1370.88 762.007 1370.56C762.066 1370.25 762.24 1369.96 762.495 1369.77C762.75 1369.57 763.069 1369.48 763.391 1369.5C763.712 1369.53 764.012 1369.67 764.235 1369.9L767.048 1373.62C769.758 1372.79 772.493 1372.11 775.273 1371.55C773.961 1370.29 771.865 1368.89 773.041 1367.61C773.288 1367.37 773.615 1367.24 773.957 1367.23C774.299 1367.22 774.631 1367.35 774.888 1367.57L778.377 1370.96C784.245 1369.97 790.196 1369.54 796.147 1369.68C796.334 1369.66 796.524 1369.67 796.704 1369.73C796.884 1369.78 797.05 1369.87 797.191 1370C797.332 1370.12 797.444 1370.28 797.519 1370.45C797.595 1370.62 797.632 1370.81 797.628 1371C797.625 1371.19 797.581 1371.37 797.499 1371.54C797.417 1371.71 797.299 1371.86 797.154 1371.98C797.009 1372.1 796.839 1372.19 796.657 1372.24C796.475 1372.28 796.285 1372.29 796.099 1372.26C790.901 1372.1 785.698 1372.41 780.557 1373.19Z" fill="#552A00"/>
</svg>
