<svg width="1048" height="2630" viewBox="0 0 1048 2630" fill="none" xmlns="http://www.w3.org/2000/svg">
<path d="M229.817 1389.38C235.142 1387.22 237.856 1392.12 240.533 1398.1L229.637 1398.96C229.976 1395.78 230.037 1392.57 229.817 1389.38Z" fill="#6A7282"/>
<path d="M242.587 1402.74C243.767 1405.64 244.957 1408.78 246.2 1411.56L228.429 1411.86C228.621 1409.11 228.938 1406.46 229.285 1403.79L242.587 1402.74Z" fill="#6A7282"/>
<path d="M232.014 1435.59L284.005 1433.63C276.141 1459.75 244.736 1467.09 232.014 1435.59Z" fill="#6A7282"/>
<path d="M228.176 1416.7L248.524 1416.35C250.737 1420.1 253.234 1422.41 256.334 1421.5C257.556 1421.13 258.481 1419.11 259.2 1416.17L284.983 1415.68C285.867 1420.01 285.945 1424.47 285.212 1428.83L230.408 1430.82C228.967 1426.25 228.215 1421.49 228.176 1416.7Z" fill="#6A7282"/>
<path d="M261.654 1401.35L281.031 1399.8C281.991 1403.05 282.829 1406.75 283.833 1411.03L260.314 1411.5C260.779 1408.25 261.194 1404.73 261.654 1401.35Z" fill="#6A7282"/>
<path d="M267.348 1379.73C269.795 1378.71 272.504 1378.5 275.079 1379.13C276.569 1384.17 277.935 1388.79 279.76 1394.96L262.277 1396.34C263.313 1387.89 264.666 1380.53 267.348 1379.73Z" fill="#6A7282"/>
<path d="M213.327 1334.62L271.453 1316.58C272.407 1320.91 272.952 1325.32 273.078 1329.74L217.445 1341.31C215.965 1339.15 214.595 1336.93 213.327 1334.62Z" fill="#6A7282"/>
<path d="M263.247 1295.96C266.31 1301.77 268.825 1307.85 270.76 1314.13L212.097 1332.32C210.563 1329.36 209.196 1326.31 208.003 1323.19L263.247 1295.96Z" fill="#6A7282"/>
<path d="M204.645 1312.39L253.584 1280.61C256.7 1284.76 259.519 1289.12 262.018 1293.67L207.114 1320.74C206.143 1318 205.319 1315.21 204.645 1312.39Z" fill="#6A7282"/>
<path d="M240.818 1266.82C244.905 1270.38 248.652 1274.32 252.011 1278.58L204.048 1309.71C203.408 1306.76 202.935 1303.77 202.633 1300.77L240.818 1266.82Z" fill="#6A7282"/>
<path d="M219.038 1343.62L273.184 1332.4C273.28 1336.78 273.203 1341.34 273.096 1345.91C271.236 1347.87 269.055 1349.51 266.647 1350.74C262.535 1351.95 257.47 1348.2 255.146 1348.89C252.821 1349.58 244.699 1366.82 220.245 1364.14C212.627 1353.95 202.184 1344.72 194.382 1318.34C192.451 1311.82 182.561 1263.92 208.013 1256.39C218.087 1253.41 228.899 1257.31 238.809 1265.17L202.339 1297.58C201.984 1292.4 202.082 1287.2 202.634 1282.03C202.675 1281.85 202.678 1281.67 202.642 1281.48C202.606 1281.3 202.533 1281.13 202.425 1280.98C202.318 1280.83 202.18 1280.7 202.021 1280.61C201.861 1280.52 201.684 1280.46 201.5 1280.44C201.317 1280.42 201.131 1280.44 200.955 1280.5C200.78 1280.56 200.618 1280.65 200.482 1280.77C200.346 1280.9 200.237 1281.05 200.164 1281.22C200.09 1281.39 200.054 1281.57 200.057 1281.76C199.476 1287.71 199.469 1293.7 200.035 1299.66L196.394 1302.9C196.192 1303.15 196.084 1303.45 196.09 1303.77C196.096 1304.08 196.216 1304.38 196.427 1304.62C196.638 1304.85 196.927 1305 197.239 1305.04C197.552 1305.08 197.868 1305 198.128 1304.82L200.381 1302.79C200.727 1305.61 201.201 1308.42 201.816 1311.15L197.903 1313.7C197.619 1313.89 197.421 1314.18 197.352 1314.52C197.284 1314.85 197.351 1315.2 197.538 1315.48C197.725 1315.77 198.017 1315.96 198.351 1316.03C198.684 1316.1 199.031 1316.03 199.315 1315.85L202.443 1313.82C203.236 1316.5 204.03 1319.18 204.814 1321.84C203.344 1322.56 201.347 1323.15 202.044 1324.63C202.741 1326.11 204.263 1325.01 205.734 1324.29C206.883 1327.27 208.191 1330.2 209.653 1333.05L206.673 1333.93C206.392 1334.06 206.167 1334.29 206.04 1334.57C205.913 1334.86 205.891 1335.18 205.98 1335.48C206.068 1335.78 206.26 1336.03 206.521 1336.2C206.783 1336.37 207.096 1336.44 207.405 1336.4L210.832 1335.39C212.035 1337.59 213.358 1339.76 214.761 1341.87C213.077 1342.21 210.892 1342.27 211.21 1343.9C211.528 1345.52 213.997 1344.66 216.315 1344.17C219.706 1348.98 223.558 1353.46 227.817 1357.52C227.926 1357.67 228.066 1357.79 228.227 1357.88C228.388 1357.97 228.566 1358.03 228.75 1358.04C228.933 1358.05 229.118 1358.03 229.29 1357.96C229.463 1357.9 229.619 1357.8 229.748 1357.67C229.878 1357.54 229.978 1357.38 230.041 1357.2C230.104 1357.03 230.128 1356.85 230.113 1356.66C230.098 1356.48 230.043 1356.3 229.953 1356.14C229.862 1355.98 229.738 1355.84 229.589 1355.74C225.72 1352.02 222.189 1347.97 219.038 1343.62Z" fill="#6A7282"/>
<path d="M134.081 1300.34C135.62 1303.14 137.385 1305.81 139.357 1308.33L129.732 1313.43C128.545 1305.27 129.126 1301.22 134.081 1300.34Z" fill="#6A7282"/>
<path d="M142.396 1312.15C144.09 1314.21 145.785 1316.28 147.455 1318.48L132.314 1327.79C131.842 1324.69 131.221 1321.64 130.617 1318.42L142.396 1312.15Z" fill="#6A7282"/>
<path d="M112.429 1366.8L157.288 1340.39C163.366 1373.64 133.06 1384.53 112.429 1366.8Z" fill="#6A7282"/>
<path d="M123.746 1338.7C125.94 1340.82 127.919 1341.96 129.024 1341.64C132.011 1340.78 132.995 1337.46 132.841 1333.1L150.182 1322.45C152.758 1326.5 154.733 1330.9 156.044 1335.51L108.776 1363.32C105.764 1360.06 103.379 1356.27 101.744 1352.15L123.746 1338.7Z" fill="#6A7282"/>
<path d="M113.699 1327.39C115.976 1330.13 118.214 1332.85 120.311 1335.19L100.198 1347.45C98.7677 1343.27 97.5693 1339.67 96.5511 1336.47L113.699 1327.39Z" fill="#6A7282"/>
<path d="M97.3432 1312.37C100.031 1311.6 105.182 1317.13 110.579 1323.63L95.0899 1331.84C93.31 1325.66 91.9772 1321.03 90.5241 1315.98C92.3563 1314.09 94.7445 1312.82 97.3432 1312.37Z" fill="#6A7282"/>
<path d="M59.9147 1261.34L118.618 1245.28C118.785 1247.89 118.833 1250.52 118.745 1253.14L65.6341 1273.34C63.3552 1269.53 61.4403 1265.51 59.9147 1261.34Z" fill="#6A7282"/>
<path d="M55.7339 1239.52L116.953 1232.76C117.626 1236.03 118.113 1239.33 118.412 1242.66L59.1713 1258.87C57.4267 1252.54 56.2758 1246.06 55.7339 1239.52Z" fill="#6A7282"/>
<path d="M55.6291 1221.4L113.973 1221.85C114.927 1224.6 115.733 1227.4 116.389 1230.24L55.6348 1236.93C55.2623 1231.76 55.2604 1226.57 55.6291 1221.4Z" fill="#6A7282"/>
<path d="M109.425 1210.99C110.785 1213.68 111.991 1216.44 113.037 1219.27L55.8543 1218.82C56.3979 1213.43 57.4419 1208.1 58.9729 1202.91L109.425 1210.99Z" fill="#6A7282"/>
<path d="M107.929 1208.16L59.7746 1200.42C63.9001 1188.46 70.8875 1179.36 81.0124 1176.45C106.519 1169.11 123.944 1214.8 125.827 1221.34C133.437 1247.77 129.596 1261.17 128.657 1273.86C109.485 1289.28 92.9515 1279.26 91.0102 1279.82C89.0688 1280.37 86.4212 1286.34 82.3294 1287.52C79.6377 1287.78 76.921 1287.58 74.2979 1286.92C71.7501 1283.13 69.2321 1279.33 66.9576 1275.58L118.682 1256.07C118.354 1261.4 117.552 1266.7 116.285 1271.89C116.218 1272.06 116.188 1272.25 116.197 1272.43C116.207 1272.62 116.256 1272.8 116.34 1272.96C116.425 1273.13 116.544 1273.27 116.689 1273.39C116.834 1273.5 117.001 1273.59 117.181 1273.63C117.36 1273.68 117.547 1273.68 117.729 1273.65C117.912 1273.62 118.085 1273.55 118.238 1273.44C118.39 1273.34 118.519 1273.2 118.616 1273.05C118.712 1272.89 118.773 1272.71 118.796 1272.53C120.182 1266.79 121.021 1260.94 121.301 1255.05C123.52 1254.22 126.153 1253.82 125.458 1252.08C124.763 1250.34 122.976 1251.66 121.377 1252.28C121.423 1249.75 121.371 1247.21 121.199 1244.7C123.469 1244.05 126.022 1243.93 125.515 1242.16C125.007 1240.4 122.704 1241.61 120.963 1242.08C120.667 1238.9 120.197 1235.73 119.557 1232.59C121.187 1232.41 123.062 1232.52 122.853 1230.9C122.645 1229.28 120.653 1229.88 118.992 1230.07C118.368 1227.34 117.624 1224.64 116.671 1222.01L120.398 1222.03C120.566 1222.04 120.734 1222 120.89 1221.94C121.047 1221.88 121.19 1221.79 121.31 1221.67C121.555 1221.43 121.695 1221.11 121.699 1220.77C121.704 1220.43 121.574 1220.1 121.337 1219.86C121.1 1219.61 120.776 1219.47 120.435 1219.47L115.765 1219.42C114.812 1216.78 113.701 1214.16 112.487 1211.63C114.277 1211.89 116.661 1212.76 116.969 1211.02C117.009 1210.69 116.921 1210.35 116.722 1210.08C116.524 1209.8 116.23 1209.61 115.899 1209.55L111.09 1208.8C108.343 1203.47 105.079 1198.42 101.347 1193.72C101.255 1193.55 101.129 1193.41 100.977 1193.3C100.825 1193.19 100.65 1193.11 100.466 1193.08C100.281 1193.04 100.091 1193.04 99.9073 1193.09C99.724 1193.13 99.5522 1193.21 99.4038 1193.33C99.2554 1193.44 99.1337 1193.59 99.0473 1193.76C98.9609 1193.92 98.9118 1194.11 98.9032 1194.3C98.8947 1194.48 98.927 1194.67 98.9979 1194.85C99.0688 1195.02 99.1766 1195.18 99.3139 1195.31C102.567 1199.32 105.451 1203.62 107.929 1208.16Z" fill="#6A7282"/>
<path d="M225.333 528.131C224.237 531.134 223.387 534.221 222.791 537.362L212.616 533.473C217.981 527.206 221.411 524.978 225.333 528.131Z" fill="#6A7282"/>
<path d="M221.919 542.16C221.478 544.797 221.038 547.433 220.478 550.141L203.504 544.869C205.527 542.474 207.418 539.996 209.446 537.42L221.919 542.16Z" fill="#6A7282"/>
<path d="M161.053 555.574L210.456 571.966C189.43 598.424 161.282 582.779 161.053 555.574Z" fill="#6A7282"/>
<path d="M189.653 545.599C189.504 548.645 189.945 550.888 190.912 551.51C193.525 553.193 196.675 551.746 199.851 548.764L219.285 554.807C217.935 559.41 215.923 563.792 213.312 567.817L161.265 550.536C161.735 546.123 163.017 541.836 165.046 537.889L189.653 545.599Z" fill="#6A7282"/>
<path d="M191.552 530.594C190.987 534.112 190.413 537.587 190.032 540.705L167.565 533.633C169.771 529.804 171.692 526.532 173.431 523.659L191.552 530.594Z" fill="#6A7282"/>
<path d="M192.094 508.393C194.446 509.907 193.669 517.429 192.329 525.77L175.952 519.514C179.434 514.105 182.042 510.054 184.885 505.638C187.52 505.768 190.044 506.733 192.094 508.393Z" fill="#6A7282"/>
<path d="M205.873 446.626L256.604 480.248C254.754 482.088 252.799 483.861 250.774 485.514L200.603 458.832C201.973 454.607 203.738 450.521 205.873 446.626Z" fill="#6A7282"/>
<path d="M219.551 429.114L264.935 470.752C262.917 473.41 260.75 475.952 258.444 478.365L207.244 444.441C210.861 438.961 214.981 433.829 219.551 429.114Z" fill="#6A7282"/>
<path d="M233.118 417.112L271.189 461.325C269.745 463.855 268.167 466.306 266.462 468.668L221.436 427.334C225.081 423.652 228.985 420.236 233.118 417.112Z" fill="#6A7282"/>
<path d="M276.366 450.758C275.238 453.551 273.952 456.277 272.513 458.924L235.215 415.578C239.628 412.442 244.323 409.723 249.241 407.457L276.366 450.758Z" fill="#6A7282"/>
<path d="M277.516 447.765L251.647 406.418C263.364 401.653 274.81 400.927 283.669 406.63C305.986 420.998 283.055 464.195 279.371 469.918C264.481 493.045 251.868 498.971 241.697 506.617C217.472 502.332 214.133 483.289 212.434 482.196C210.736 481.102 204.499 483.038 200.919 480.733C198.95 478.88 197.314 476.701 196.083 474.293C197.262 469.878 198.468 465.479 199.789 461.302L248.528 487.395C244.295 490.66 239.78 493.542 235.036 496.007C234.862 496.07 234.703 496.169 234.57 496.298C234.437 496.427 234.333 496.583 234.265 496.755C234.197 496.927 234.167 497.112 234.175 497.297C234.184 497.481 234.232 497.662 234.316 497.827C234.4 497.992 234.518 498.137 234.662 498.253C234.806 498.369 234.974 498.453 235.153 498.499C235.332 498.545 235.519 498.553 235.701 498.521C235.884 498.49 236.057 498.42 236.211 498.316C241.438 495.586 246.395 492.366 251.014 488.7C253.101 489.822 255.138 491.539 255.99 489.87C256.843 488.201 254.671 487.727 253.15 486.933C255.09 485.298 256.967 483.587 258.741 481.809C260.727 483.087 262.498 484.93 263.491 483.388C264.483 481.846 262.054 480.911 260.555 479.909C262.759 477.587 264.835 475.148 266.775 472.602C267.982 473.712 269.136 475.194 270.22 473.969C271.303 472.745 269.536 471.644 268.302 470.517C269.947 468.249 271.487 465.914 272.845 463.461L275.278 466.285C275.387 466.413 275.52 466.519 275.67 466.596C275.82 466.673 275.984 466.719 276.152 466.733C276.491 466.761 276.827 466.653 277.086 466.432C277.346 466.212 277.507 465.898 277.535 465.559C277.563 465.22 277.454 464.883 277.234 464.624L274.195 461.078C275.552 458.625 276.795 456.061 277.901 453.483C278.882 455.002 279.799 457.367 281.311 456.455C281.589 456.265 281.786 455.976 281.86 455.647C281.935 455.318 281.883 454.973 281.713 454.681L279.113 450.567C281.319 444.989 282.974 439.208 284.053 433.306C284.116 433.129 284.14 432.94 284.124 432.752C284.107 432.565 284.05 432.383 283.957 432.219C283.863 432.056 283.736 431.914 283.582 431.805C283.429 431.695 283.254 431.62 283.069 431.585C282.884 431.55 282.693 431.555 282.511 431.6C282.328 431.645 282.157 431.729 282.01 431.846C281.862 431.964 281.742 432.112 281.658 432.28C281.573 432.448 281.525 432.633 281.519 432.821C280.638 437.913 279.299 442.915 277.516 447.765Z" fill="#6A7282"/>
<path d="M159.815 869.85C165.561 869.663 166.383 875.236 166.796 881.746L156.289 878.761C157.717 875.897 158.897 872.915 159.815 869.85Z" fill="#6A7282"/>
<path d="M167.092 886.814C167.183 889.937 167.195 893.302 167.384 896.369L150.636 890.42C151.779 887.914 153.008 885.509 154.266 883.136L167.092 886.814Z" fill="#6A7282"/>
<path d="M145.678 913.874L195.051 930.352C178.537 951.993 146.551 947.835 145.678 913.874Z" fill="#6A7282"/>
<path d="M148.702 894.864L167.882 901.671C168.638 905.962 170.169 908.998 173.393 909.226C174.664 909.316 176.239 907.745 177.945 905.217L202.263 913.819C201.564 918.186 200.074 922.389 197.867 926.221L145.846 908.839C146.098 904.065 147.061 899.355 148.702 894.864Z" fill="#6A7282"/>
<path d="M185.447 892.068L204.136 897.438C203.898 900.817 203.385 904.551 202.826 908.936L180.632 901.137C182.199 898.35 183.822 895.225 185.447 892.068Z" fill="#6A7282"/>
<path d="M198.346 873.972C200.992 873.865 203.604 874.606 205.799 876.087C205.427 881.357 205.09 886.132 204.635 892.58L187.777 887.745C191.702 880.264 195.556 873.775 198.346 873.972Z" fill="#6A7282"/>
<path d="M163.563 812.784L224.324 816.264C223.703 820.662 222.667 824.991 221.23 829.194L165.076 820.493C164.445 817.956 163.942 815.366 163.563 812.784Z" fill="#6A7282"/>
<path d="M223.867 794.048C224.698 800.561 224.922 807.138 224.536 813.693L163.218 810.174C162.818 806.861 162.606 803.528 162.583 800.19L223.867 794.048Z" fill="#6A7282"/>
<path d="M163.225 788.895L220.196 776.311C221.665 781.288 222.775 786.364 223.517 791.5L162.61 797.607C162.659 794.694 162.865 791.786 163.225 788.895Z" fill="#6A7282"/>
<path d="M213.074 758.92C215.689 763.682 217.861 768.674 219.561 773.835L163.727 786.188C164.164 783.208 164.767 780.255 165.536 777.342L213.074 758.92Z" fill="#6A7282"/>
<path d="M165.755 823.222L220.402 831.66C218.957 835.795 217.286 840.04 215.585 844.281C213.159 845.487 210.543 846.262 207.852 846.571C203.573 846.269 200.146 840.979 197.727 840.809C195.309 840.638 181.66 853.913 159.698 842.829C156.136 830.613 149.589 818.311 151.526 790.873C152.005 784.084 159.529 735.76 186.006 737.629C196.485 738.369 205.244 745.811 211.77 756.647L166.262 774.123C167.741 769.134 169.658 764.286 171.989 759.634C172.097 759.479 172.169 759.303 172.202 759.118C172.235 758.932 172.228 758.742 172.18 758.56C172.133 758.377 172.046 758.207 171.927 758.062C171.808 757.916 171.658 757.798 171.489 757.715C171.319 757.633 171.134 757.588 170.946 757.584C170.758 757.58 170.571 757.616 170.398 757.691C170.225 757.766 170.071 757.878 169.945 758.018C169.819 758.158 169.725 758.324 169.67 758.504C166.998 763.875 164.858 769.495 163.282 775.283L158.735 777.019C158.461 777.174 158.253 777.423 158.148 777.72C158.043 778.017 158.049 778.342 158.165 778.635C158.281 778.928 158.499 779.169 158.779 779.313C159.059 779.458 159.381 779.497 159.687 779.423L162.505 778.344C161.843 781.102 161.305 783.868 160.92 786.676L156.364 787.663C156.059 787.767 155.803 787.979 155.645 788.26C155.488 788.541 155.439 788.871 155.51 789.185C155.581 789.499 155.765 789.776 156.028 789.963C156.29 790.149 156.612 790.232 156.932 790.196L160.574 789.362C160.377 792.152 160.181 794.943 159.984 797.733C158.352 797.898 156.277 797.72 156.409 799.381C156.541 801.042 158.356 800.484 159.988 800.319C160.015 803.52 160.216 806.717 160.589 809.896L157.489 809.677C157.179 809.703 156.888 809.839 156.669 810.061C156.45 810.283 156.318 810.575 156.296 810.886C156.274 811.196 156.364 811.505 156.55 811.755C156.735 812.005 157.004 812.181 157.307 812.25L160.873 812.502C161.225 815.019 161.705 817.484 162.278 819.954C160.573 819.834 158.515 818.972 158.242 820.635C157.969 822.298 160.586 822.296 162.929 822.649C164.411 828.358 166.451 833.908 169.019 839.218C169.08 839.393 169.177 839.553 169.304 839.687C169.431 839.822 169.585 839.928 169.756 839.998C169.928 840.069 170.112 840.102 170.297 840.095C170.482 840.089 170.663 840.044 170.829 839.962C170.995 839.88 171.142 839.764 171.26 839.621C171.377 839.478 171.464 839.312 171.512 839.134C171.561 838.955 171.571 838.768 171.542 838.585C171.513 838.403 171.445 838.228 171.343 838.074C169.042 833.299 167.172 828.329 165.755 823.222Z" fill="#6A7282"/>
<path d="M177.188 1134.38C182.659 1132.62 184.988 1137.74 187.182 1143.89L176.259 1143.92C176.841 1140.77 177.152 1137.58 177.188 1134.38Z" fill="#6A7282"/>
<path d="M188.867 1148.68C189.816 1151.65 190.757 1154.88 191.785 1157.78L174.046 1156.69C174.452 1153.96 174.969 1151.31 175.523 1148.68L188.867 1148.68Z" fill="#6A7282"/>
<path d="M175.757 1180.6L227.762 1182.8C217.865 1208.16 185.975 1213 175.757 1180.6Z" fill="#6A7282"/>
<path d="M173.414 1161.49L193.728 1162.74C195.64 1166.65 197.949 1169.15 201.111 1168.48C202.358 1168.21 203.438 1166.27 204.379 1163.37L230.127 1164.92C230.661 1169.31 230.39 1173.76 229.327 1178.05L174.529 1175.71C173.452 1171.05 173.077 1166.26 173.414 1161.49Z" fill="#6A7282"/>
<path d="M207.958 1148.66L227.404 1148.66C228.108 1151.97 228.646 1155.7 229.32 1160.07L205.835 1158.7C206.572 1155.59 207.268 1152.14 207.958 1148.66Z" fill="#6A7282"/>
<path d="M215.359 1127.7C217.873 1126.87 220.587 1126.86 223.106 1127.68C224.204 1132.85 225.198 1137.53 226.542 1143.85L209.004 1143.86C210.71 1135.59 212.623 1128.28 215.359 1127.7Z" fill="#6A7282"/>
<path d="M165.032 1078.5L224.39 1065.07C225.008 1069.46 225.208 1073.91 224.987 1078.35L168.614 1085.49C167.307 1083.23 166.108 1080.88 165.032 1078.5Z" fill="#6A7282"/>
<path d="M217.816 1043.84C220.414 1049.87 222.445 1056.13 223.885 1062.54L163.979 1076.09C162.679 1073.01 161.555 1069.87 160.612 1066.67L217.816 1043.84Z" fill="#6A7282"/>
<path d="M158.109 1055.63L209.39 1027.81C212.176 1032.18 214.645 1036.76 216.776 1041.49L159.924 1064.18C159.167 1061.36 158.561 1058.51 158.109 1055.63Z" fill="#6A7282"/>
<path d="M197.742 1013.06C201.571 1016.91 205.037 1021.11 208.096 1025.6L157.845 1052.89C157.441 1049.91 157.206 1046.9 157.14 1043.89L197.742 1013.06Z" fill="#6A7282"/>
<path d="M170.021 1087.93L224.872 1080.95C224.625 1085.32 224.192 1089.86 223.728 1094.41C221.73 1096.23 219.429 1097.7 216.928 1098.74C212.733 1099.63 207.977 1095.5 205.606 1096C203.235 1096.5 193.782 1113.03 169.613 1108.44C162.816 1097.69 153.126 1087.67 147.411 1060.76C145.997 1054.11 139.884 1005.58 165.847 1000.07C176.123 997.887 186.597 1002.62 195.861 1011.23L156.948 1040.6C156.993 1035.39 157.496 1030.2 158.452 1025.09C158.513 1024.91 158.534 1024.72 158.515 1024.53C158.495 1024.35 158.435 1024.17 158.339 1024C158.243 1023.84 158.113 1023.7 157.958 1023.6C157.803 1023.49 157.627 1023.42 157.441 1023.38C157.256 1023.35 157.066 1023.36 156.883 1023.41C156.701 1023.45 156.532 1023.54 156.386 1023.66C156.241 1023.78 156.123 1023.93 156.041 1024.1C155.959 1024.27 155.915 1024.46 155.911 1024.64C154.826 1030.54 154.322 1036.54 154.405 1042.53L150.514 1045.46C150.294 1045.68 150.162 1045.98 150.144 1046.29C150.125 1046.61 150.221 1046.92 150.413 1047.17C150.605 1047.42 150.881 1047.59 151.19 1047.65C151.499 1047.71 151.82 1047.66 152.093 1047.51L154.504 1045.69C154.629 1048.52 154.876 1051.33 155.281 1054.14L151.174 1056.34C150.91 1056.53 150.723 1056.8 150.649 1057.12C150.575 1057.43 150.62 1057.76 150.774 1058.04C150.929 1058.32 151.183 1058.54 151.487 1058.65C151.791 1058.75 152.123 1058.74 152.421 1058.62L155.691 1056.81C156.272 1059.55 156.853 1062.29 157.434 1065.02C155.912 1065.63 153.868 1066.03 154.454 1067.59C155.039 1069.15 156.63 1068.12 158.153 1067.51C159.063 1070.58 160.139 1073.59 161.375 1076.54L158.335 1077.19C158.044 1077.3 157.802 1077.51 157.653 1077.79C157.504 1078.06 157.458 1078.38 157.523 1078.68C157.588 1078.99 157.759 1079.26 158.006 1079.45C158.254 1079.64 158.56 1079.73 158.871 1079.71L162.367 1078.97C163.401 1081.29 164.543 1083.53 165.776 1085.75C164.104 1086.1 161.888 1085.84 162.085 1087.51C162.282 1089.19 164.797 1088.46 167.146 1088.16C170.147 1093.23 173.64 1098 177.575 1102.4C177.681 1102.55 177.819 1102.68 177.978 1102.77C178.138 1102.87 178.315 1102.92 178.499 1102.94C178.683 1102.97 178.869 1102.95 179.045 1102.89C179.221 1102.83 179.383 1102.74 179.52 1102.61C179.657 1102.49 179.766 1102.34 179.84 1102.17C179.913 1102 179.95 1101.81 179.948 1101.63C179.945 1101.44 179.903 1101.26 179.825 1101.09C179.746 1100.93 179.633 1100.78 179.493 1100.66C175.962 1096.7 172.793 1092.44 170.021 1087.93Z" fill="#6A7282"/>
<path d="M380.242 412.846C385.193 415.768 382.9 420.914 379.76 426.631L372.489 418.48C375.229 416.828 377.823 414.943 380.242 412.846Z" fill="#6A7282"/>
<path d="M377.295 431.069C375.698 433.754 373.905 436.602 372.42 439.292L361.469 425.294C363.776 423.791 366.103 422.419 368.436 421.09L377.295 431.069Z" fill="#6A7282"/>
<path d="M344.714 442.439L377.569 482.81C352.029 492.232 327.253 471.581 344.714 442.439Z" fill="#6A7282"/>
<path d="M357.454 428.01L370 444.034C368.339 448.063 368.004 451.447 370.604 453.367C371.63 454.124 373.802 453.641 376.596 452.421L392.518 472.715C389.588 476.028 386.078 478.778 382.16 480.83L347.554 438.278C350.325 434.382 353.662 430.921 357.454 428.01Z" fill="#6A7282"/>
<path d="M389.976 445.34L402.878 459.889C400.866 462.614 398.432 465.492 395.61 468.895L381.051 450.417C383.868 448.904 386.913 447.135 389.976 445.34Z" fill="#6A7282"/>
<path d="M410.564 436.975C412.855 438.303 414.663 440.327 415.723 442.754C412.584 447.005 409.741 450.855 405.901 456.056L394.26 442.94C401.582 438.726 408.313 435.313 410.564 436.975Z" fill="#6A7282"/>
<path d="M413.986 366.675L463.421 402.173C460.54 405.553 457.346 408.654 453.88 411.432L411.131 373.994C411.958 371.514 412.922 369.058 413.986 366.675Z" fill="#6A7282"/>
<path d="M474.94 383.17C472.152 389.115 468.816 394.788 464.978 400.115L415.093 364.285C416.531 361.274 418.138 358.346 419.907 355.516L474.94 383.17Z" fill="#6A7282"/>
<path d="M426.502 346.323L481.347 366.227C479.92 371.216 478.136 376.097 476.011 380.831L421.314 353.348C422.917 350.916 424.649 348.57 426.502 346.323Z" fill="#6A7282"/>
<path d="M484.652 347.728C484.309 353.15 483.467 358.529 482.137 363.797L428.377 344.307C430.342 342.024 432.434 339.855 434.644 337.807L484.652 347.728Z" fill="#6A7282"/>
<path d="M410.243 376.662L451.859 413.07C448.423 415.787 444.739 418.475 441.029 421.145C438.335 420.863 435.711 420.114 433.273 418.934C429.823 416.386 429.763 410.083 427.813 408.643C425.863 407.203 407.225 411.097 394.622 389.969C398.161 377.747 399.226 363.852 415.564 341.724C419.607 336.249 451.855 299.481 473.208 315.248C481.659 321.488 485.066 332.465 484.769 345.111L436.982 335.479C440.905 332.06 445.121 328.993 449.582 326.315C449.756 326.242 449.911 326.132 450.039 325.993C450.166 325.854 450.261 325.69 450.319 325.51C450.377 325.331 450.395 325.141 450.372 324.954C450.349 324.767 450.286 324.588 450.187 324.427C450.089 324.267 449.956 324.13 449.8 324.025C449.643 323.921 449.465 323.852 449.279 323.822C449.093 323.793 448.903 323.804 448.722 323.855C448.541 323.906 448.372 323.996 448.229 324.118C443.095 327.221 438.277 330.819 433.844 334.862L429.075 333.89C428.761 333.875 428.451 333.973 428.204 334.168C427.956 334.363 427.787 334.64 427.728 334.95C427.669 335.259 427.724 335.579 427.883 335.851C428.041 336.123 428.293 336.329 428.591 336.43L431.548 337.03C429.512 339.003 427.575 341.05 425.745 343.215L421.369 341.606C421.056 341.53 420.726 341.573 420.443 341.726C420.159 341.879 419.942 342.131 419.833 342.434C419.724 342.737 419.731 343.07 419.853 343.368C419.975 343.666 420.202 343.909 420.492 344.05L424.014 345.298C422.352 347.548 420.691 349.798 419.029 352.048C417.563 351.313 415.906 350.051 415.128 351.524C414.349 352.997 416.181 353.499 417.647 354.234C415.955 356.951 414.411 359.758 413.023 362.642L410.523 360.796C410.247 360.652 409.928 360.611 409.625 360.681C409.321 360.751 409.053 360.927 408.868 361.177C408.683 361.428 408.593 361.736 408.616 362.047C408.638 362.358 408.771 362.65 408.99 362.871L411.866 364.994C410.814 367.308 409.899 369.646 409.059 372.04C407.684 371.024 406.408 369.194 405.286 370.452C404.164 371.709 406.375 373.11 408.165 374.663C406.356 380.278 405.104 386.057 404.427 391.916C404.385 392.096 404.381 392.283 404.416 392.465C404.451 392.647 404.525 392.819 404.632 392.97C404.738 393.121 404.876 393.248 405.036 393.342C405.195 393.435 405.373 393.494 405.557 393.514C405.741 393.534 405.927 393.515 406.103 393.457C406.279 393.4 406.44 393.306 406.577 393.181C406.714 393.056 406.823 392.904 406.896 392.734C406.969 392.564 407.006 392.38 407.003 392.195C407.618 386.931 408.703 381.733 410.243 376.662Z" fill="#6A7282"/>
<path d="M576.854 222.953C580.564 227.345 576.703 231.446 571.852 235.807L567.677 225.714C570.809 225.058 573.879 224.134 576.854 222.953Z" fill="#6A7282"/>
<path d="M568.061 239.184C565.668 241.192 563.035 243.288 560.747 245.339L555.025 228.511C557.699 227.854 560.349 227.326 562.99 226.841L568.061 239.184Z" fill="#6A7282"/>
<path d="M533.552 239.17L551.252 288.119C524.033 288.589 507.456 260.92 533.552 239.17Z" fill="#6A7282"/>
<path d="M550.34 229.751L556.897 249.017C554.001 252.272 552.568 255.356 554.389 258.027C555.107 259.079 557.317 259.34 560.357 259.11L568.694 283.521C564.835 285.681 560.614 287.119 556.239 287.765L537.606 236.179C541.508 233.415 545.799 231.249 550.34 229.751Z" fill="#6A7282"/>
<path d="M575.325 256.84L582.705 274.83C579.906 276.739 576.659 278.653 572.873 280.934L565.224 258.688C568.382 258.189 571.841 257.523 575.325 256.84Z" fill="#6A7282"/>
<path d="M597.519 255.734C599.245 257.744 600.283 260.251 600.483 262.892C596.118 265.869 592.164 268.566 586.823 272.209L580.16 255.987C588.463 254.425 595.943 253.423 597.519 255.734Z" fill="#6A7282"/>
<path d="M623.94 190.498L658.898 240.316C655.064 242.557 651.025 244.43 646.837 245.91L618.831 196.466C620.43 194.397 622.15 192.396 623.94 190.498Z" fill="#6A7282"/>
<path d="M676.041 226.178C671.447 230.87 666.428 235.125 661.047 238.889L625.773 188.608C628.124 186.239 630.607 184.005 633.211 181.917L676.041 226.178Z" fill="#6A7282"/>
<path d="M642.469 175.414L687.678 212.297C684.685 216.536 681.392 220.555 677.823 224.323L635.255 180.335C637.57 178.568 639.979 176.925 642.469 175.414Z" fill="#6A7282"/>
<path d="M696.901 195.923C694.788 200.928 692.219 205.729 689.226 210.263L644.904 174.129C647.512 172.623 650.203 171.265 652.964 170.061L696.901 195.923Z" fill="#6A7282"/>
<path d="M617.113 198.691L644.389 246.789C640.249 248.221 635.884 249.543 631.501 250.839C629.051 249.685 626.821 248.113 624.909 246.194C622.492 242.651 624.515 236.681 623.149 234.678C621.783 232.675 602.904 230.203 597.976 206.101C605.349 195.73 610.938 182.964 633.661 167.465C639.284 163.629 681.856 139.558 696.812 161.485C702.731 170.164 702.327 181.651 697.875 193.491L655.94 168.634C660.771 166.7 665.763 165.196 670.858 164.14C671.046 164.128 671.229 164.076 671.395 163.987C671.561 163.898 671.706 163.774 671.819 163.623C671.933 163.473 672.012 163.3 672.052 163.116C672.093 162.932 672.093 162.741 672.052 162.557C672.012 162.373 671.932 162.2 671.819 162.05C671.705 161.9 671.56 161.776 671.395 161.687C671.229 161.598 671.045 161.545 670.857 161.534C670.669 161.522 670.481 161.552 670.305 161.62C664.435 162.855 658.7 164.663 653.182 167.017L649 164.526C648.709 164.408 648.384 164.399 648.086 164.501C647.788 164.603 647.537 164.809 647.379 165.082C647.221 165.354 647.168 165.675 647.227 165.984C647.287 166.293 647.457 166.57 647.705 166.764L650.299 168.306C647.725 169.497 645.222 170.79 642.78 172.23L639.18 169.268C638.91 169.093 638.584 169.025 638.266 169.075C637.948 169.126 637.66 169.293 637.457 169.543C637.254 169.793 637.151 170.11 637.168 170.431C637.184 170.753 637.319 171.057 637.546 171.285L640.459 173.625C638.148 175.201 635.837 176.778 633.526 178.354C632.385 177.176 631.237 175.438 630.016 176.572C628.796 177.706 630.359 178.784 631.5 179.961C629.007 181.968 626.624 184.108 624.362 186.373L622.61 183.806C622.397 183.578 622.11 183.435 621.801 183.401C621.491 183.367 621.18 183.444 620.922 183.62C620.665 183.795 620.479 184.057 620.398 184.358C620.316 184.658 620.345 184.978 620.479 185.259L622.493 188.212C620.737 190.049 619.102 191.955 617.519 193.937C616.556 192.525 615.956 190.376 614.482 191.193C613.008 192.011 614.633 194.062 615.81 196.119C612.25 200.822 609.162 205.865 606.59 211.173C606.491 211.329 606.425 211.504 606.399 211.687C606.372 211.871 606.385 212.057 606.436 212.235C606.487 212.413 606.575 212.578 606.694 212.719C606.814 212.861 606.962 212.975 607.13 213.054C607.297 213.134 607.479 213.177 607.664 213.18C607.849 213.184 608.032 213.149 608.203 213.076C608.373 213.003 608.526 212.895 608.651 212.759C608.776 212.623 608.871 212.462 608.929 212.286C611.247 207.52 613.986 202.97 617.113 198.691Z" fill="#6A7282"/>
<path d="M99.4875 790.797C99.0828 793.968 98.9363 797.166 99.0494 800.361L88.2558 798.847C92.1028 791.549 94.9555 788.618 99.4875 790.797Z" fill="#6A7282"/>
<path d="M99.2605 805.234C99.4137 807.903 99.5563 810.6 99.6087 813.365L81.8899 811.976C83.3326 809.194 84.6292 806.358 86.0373 803.398L99.2605 805.234Z" fill="#6A7282"/>
<path d="M42.8664 831.774L94.522 836.882C80.0151 867.289 49.0511 858.401 42.8664 831.774Z" fill="#6A7282"/>
<path d="M68.5428 815.751C69.081 818.725 69.9965 820.845 71.0771 821.238C73.9977 822.301 76.7493 820.193 79.1879 816.583L99.4769 818.179C99.1815 822.957 98.1917 827.666 96.5387 832.159L41.949 826.843C41.4899 822.444 41.8412 817.998 42.9857 813.726L68.5428 815.751Z" fill="#6A7282"/>
<path d="M67.0762 800.698C67.3567 804.107 67.523 807.74 67.8301 810.895L44.3548 808.965C45.6491 804.773 46.8 801.157 47.871 797.941L67.0762 800.698Z" fill="#6A7282"/>
<path d="M62.6748 778.986C65.3033 779.942 66.2092 787.449 66.7459 795.88L49.3807 793.429C51.581 787.384 53.2286 782.857 55.0357 777.892C57.6339 777.462 60.3014 777.844 62.6748 778.986Z" fill="#6A7282"/>
<path d="M62.4881 715.614L119.397 737.186C117.989 739.419 116.485 741.551 114.865 743.64L60.0468 728.683C60.4461 724.259 61.2635 719.883 62.4881 715.614Z" fill="#6A7282"/>
<path d="M71.9549 695.511L125.422 726.084C124.036 729.131 122.482 732.099 120.765 734.972L63.3306 713.209C65.6507 707.055 68.5378 701.13 71.9549 695.511Z" fill="#6A7282"/>
<path d="M82.5327 680.805L129.427 715.535C128.581 718.312 127.588 721.041 126.45 723.712L73.4 693.357C76.1407 688.96 79.1927 684.766 82.5327 680.805Z" fill="#6A7282"/>
<path d="M132.149 704.057C131.665 707.029 131.013 709.972 130.198 712.872L84.2273 678.876C87.8411 674.832 91.8228 671.132 96.1211 667.825L132.149 704.057Z" fill="#6A7282"/>
<path d="M132.609 700.883L98.2378 666.28C108.601 659.071 119.603 655.832 129.504 659.435C154.446 668.513 141.644 715.681 139.305 722.107C129.909 747.925 118.918 756.493 110.689 766.198C86.1165 767.376 78.6495 749.543 76.7511 748.852C74.8527 748.161 69.188 751.457 65.1868 750.001C62.8564 748.629 60.7794 746.866 59.0465 744.79C59.2204 740.222 59.4234 735.666 59.7885 731.301L113.143 745.825C109.734 749.955 105.964 753.774 101.879 757.237C101.75 757.346 101.644 757.48 101.567 757.63C101.49 757.781 101.443 757.945 101.429 758.114C101.415 758.282 101.435 758.452 101.487 758.613C101.539 758.774 101.622 758.923 101.731 759.052C101.841 759.181 101.974 759.287 102.125 759.364C102.275 759.441 102.439 759.488 102.608 759.501C102.776 759.515 102.946 759.496 103.107 759.444C103.268 759.392 103.417 759.309 103.546 759.2C108.037 755.391 112.155 751.165 115.846 746.577C118.14 747.18 120.548 748.288 120.958 746.618C121.367 744.948 119.198 744.82 117.549 744.352C119.079 742.329 120.522 740.274 121.868 738.119C124.088 738.927 126.212 740.361 126.85 738.609C127.488 736.856 124.901 736.51 123.207 735.894C124.84 733.141 126.325 730.303 127.658 727.393C129.091 728.179 130.533 729.398 131.319 727.965C132.106 726.531 130.149 725.819 128.696 724.993C129.799 722.417 130.785 719.799 131.567 717.107L134.553 719.352C134.83 719.516 135.159 719.571 135.474 719.508C135.79 719.444 136.071 719.266 136.264 719.008C136.456 718.75 136.547 718.429 136.517 718.109C136.488 717.788 136.341 717.489 136.104 717.27L132.345 714.513C133.137 711.792 133.773 709.046 134.291 706.258C135.573 707.552 137.001 709.626 138.263 708.431C138.496 708.181 138.626 707.852 138.628 707.509C138.63 707.167 138.504 706.837 138.274 706.583L134.829 703.146C135.76 697.226 136.115 691.23 135.888 685.242C135.91 685.055 135.892 684.865 135.835 684.686C135.777 684.506 135.681 684.342 135.554 684.203C135.427 684.064 135.271 683.954 135.097 683.881C134.924 683.808 134.736 683.774 134.548 683.78C134.36 683.787 134.175 683.834 134.007 683.918C133.838 684.003 133.69 684.122 133.573 684.269C133.455 684.417 133.37 684.587 133.325 684.77C133.28 684.953 133.274 685.143 133.31 685.328C133.549 690.524 133.315 695.73 132.609 700.883Z" fill="#6A7282"/>
<path d="M79.2682 1038.28C80.4173 1041.27 81.8069 1044.15 83.423 1046.91L73.2045 1050.7C73.1257 1042.45 74.2451 1038.52 79.2682 1038.28Z" fill="#6A7282"/>
<path d="M85.9219 1051.1C87.3237 1053.37 88.7299 1055.68 90.0882 1058.09L73.8341 1065.28C73.783 1062.14 73.5781 1059.03 73.4122 1055.76L85.9219 1051.1Z" fill="#6A7282"/>
<path d="M48.8866 1101.23L96.7753 1081.2C98.4423 1114.85 66.9703 1121.73 48.8866 1101.23Z" fill="#6A7282"/>
<path d="M63.879 1074.94C65.7645 1077.3 67.5763 1078.73 68.7141 1078.56C71.7892 1078.11 73.2104 1074.95 73.6428 1070.61L92.2577 1062.39C94.2658 1066.73 95.6303 1071.35 96.3081 1076.09L45.7383 1097.32C43.2458 1093.67 41.4445 1089.59 40.4237 1085.29L63.879 1074.94Z" fill="#6A7282"/>
<path d="M55.4419 1062.38C57.3074 1065.25 59.1782 1068.37 60.946 1071L39.3687 1080.45C38.5177 1076.14 37.8139 1072.41 37.2301 1069.07L55.4419 1062.38Z" fill="#6A7282"/>
<path d="M41.2611 1045.36C44.0287 1044.96 48.3897 1051.13 52.8643 1058.3L36.4173 1064.39C35.4839 1058.02 34.785 1053.25 34.0185 1048.03C36.1013 1046.42 38.6304 1045.48 41.2611 1045.36Z" fill="#6A7282"/>
<path d="M11.0127 989.675L71.3409 981.646C71.1616 984.28 70.8503 986.87 70.416 989.478L15.0681 1002.34C13.3196 998.254 11.9617 994.014 11.0127 989.675Z" fill="#6A7282"/>
<path d="M9.80121 967.488L71.3733 969.014C71.6003 972.354 71.6406 975.704 71.4939 979.048L10.6124 987.159C9.73297 980.641 9.46136 974.056 9.80121 967.488Z" fill="#6A7282"/>
<path d="M12.1303 949.524L69.8903 957.829C70.4646 960.674 70.886 963.548 71.1528 966.439L10.051 964.906C10.3759 959.736 11.0708 954.595 12.1303 949.524Z" fill="#6A7282"/>
<path d="M66.8374 946.434C67.8222 949.28 68.6459 952.18 69.3045 955.119L12.7057 947.021C13.9666 941.746 15.7148 936.6 17.9279 931.648L66.8374 946.434Z" fill="#6A7282"/>
<path d="M65.7362 943.422L19.0574 929.283C24.7562 918.019 32.9019 909.945 43.3266 908.417C69.5881 904.566 80.7128 952.158 81.7047 958.923C85.6906 986.107 80.0853 998.866 77.4501 1011.31C56.3814 1024.02 41.3438 1011.87 39.345 1012.16C37.3461 1012.45 33.9252 1018.04 29.7123 1018.66C27.0097 1018.56 24.3448 1017.99 21.834 1016.99C19.8189 1012.89 17.8346 1008.78 16.0836 1004.76L69.9381 992.218C68.8976 997.471 67.3927 1002.62 65.4413 1007.61C65.3799 1007.77 65.35 1007.94 65.3535 1008.1C65.357 1008.27 65.3937 1008.44 65.4617 1008.59C65.5296 1008.75 65.6273 1008.89 65.7494 1009.01C65.8714 1009.12 66.0152 1009.22 66.1727 1009.28C66.3303 1009.34 66.4983 1009.37 66.6673 1009.36C66.8364 1009.36 67.0031 1009.32 67.1579 1009.26C67.3128 1009.19 67.4528 1009.09 67.5698 1008.97C67.6869 1008.85 67.7787 1008.7 67.8402 1008.55C69.9848 1003.06 71.6035 997.387 72.6742 991.597C74.9797 991.039 77.6251 990.871 77.1926 989.206C76.7601 987.542 74.7899 988.459 73.1166 988.83C73.503 986.324 73.797 983.83 73.9591 981.294C76.2962 980.951 78.8465 981.205 78.576 979.36C78.3055 977.515 75.8649 978.438 74.0814 978.7C74.2112 975.502 74.1715 972.299 73.9624 969.105C75.5976 969.117 77.4451 969.505 77.4567 967.87C77.4682 966.235 75.4079 966.537 73.7375 966.499C73.4855 963.709 73.1104 960.937 72.5201 958.197L76.2143 958.754C76.5362 958.767 76.8513 958.66 77.0992 958.454C77.347 958.249 77.51 957.958 77.5568 957.64C77.6037 957.321 77.5311 956.996 77.3529 956.728C77.1747 956.459 76.9035 956.267 76.5916 956.186L71.974 955.544C71.3792 952.772 70.6351 950.054 69.768 947.355C71.5105 947.884 73.7521 949.032 74.2954 947.382C74.3811 947.051 74.3397 946.699 74.1791 946.397C74.0185 946.095 73.7505 945.864 73.4279 945.75L68.7636 944.361C66.7735 938.708 64.2392 933.262 61.1962 928.099C61.1274 927.924 61.0214 927.765 60.8855 927.635C60.7497 927.505 60.5872 927.405 60.4093 927.343C60.2313 927.281 60.0422 927.259 59.8547 927.277C59.6672 927.295 59.4859 927.354 59.3232 927.449C59.1606 927.544 59.0204 927.673 58.9123 927.827C58.8042 927.981 58.7308 928.157 58.697 928.343C58.6633 928.528 58.6701 928.718 58.7169 928.901C58.7637 929.083 58.8494 929.253 58.9682 929.4C61.6452 933.859 63.9106 938.552 65.7362 943.422Z" fill="#6A7282"/>
<path d="M379.503 294.561C377.726 297.218 376.169 300.016 374.845 302.926L365.86 296.756C372.558 291.94 376.419 290.589 379.503 294.561Z" fill="#6A7282"/>
<path d="M372.86 307.381C371.807 309.838 370.731 312.316 369.545 314.813L354.306 305.667C356.838 303.82 359.264 301.861 361.844 299.839L372.86 307.381Z" fill="#6A7282"/>
<path d="M310.549 305.981L354.503 333.593C327.956 354.337 304.207 332.571 310.549 305.981Z" fill="#6A7282"/>
<path d="M340.677 303.092C339.832 305.994 339.706 308.299 340.497 309.133C342.637 311.387 346.04 310.728 349.833 308.584L367.28 319.063C364.884 323.207 361.898 326.981 358.415 330.264L311.927 301.157C313.479 297.015 315.776 293.193 318.706 289.88L340.677 303.092Z" fill="#6A7282"/>
<path d="M346.078 288.965C344.809 292.141 343.337 295.467 342.205 298.427L322.055 286.23C325.083 283.055 327.726 280.331 330.119 277.931L346.078 288.965Z" fill="#6A7282"/>
<path d="M351.823 267.569C353.749 269.598 351.212 276.721 347.931 284.506L333.482 274.567C338.148 270.138 341.642 266.821 345.474 263.183C347.991 263.958 350.208 265.489 351.823 267.569Z" fill="#6A7282"/>
<path d="M379.923 210.767L421.235 255.459C418.979 256.829 416.682 258.066 414.3 259.214L371.909 221.375C374.239 217.594 376.923 214.042 379.923 210.767Z" fill="#6A7282"/>
<path d="M397.363 196.997L431.58 248.209C428.98 250.319 426.265 252.281 423.447 254.087L381.75 208.991C386.572 204.518 391.798 200.503 397.363 196.997Z" fill="#6A7282"/>
<path d="M413.39 188.555L439.869 240.555C437.874 242.663 435.767 244.663 433.558 246.546L399.617 195.715C404.031 193.003 408.634 190.61 413.39 188.555Z" fill="#6A7282"/>
<path d="M447.426 231.495C445.666 233.94 443.77 236.283 441.747 238.514L415.767 187.583C420.805 185.575 426.019 184.04 431.341 182.997L447.426 231.495Z" fill="#6A7282"/>
<path d="M449.253 228.861L433.925 182.559C446.416 180.73 457.707 182.738 464.961 190.379C483.235 209.629 450.738 246.135 445.779 250.843C425.853 269.759 412.195 272.526 400.501 277.542C377.983 267.635 379.254 248.343 377.863 246.878C376.472 245.413 369.932 245.837 367 242.749C365.527 240.481 364.454 237.977 363.829 235.345C366.022 231.335 368.236 227.348 370.51 223.604L411.785 260.401C406.891 262.577 401.814 264.313 396.613 265.591C396.449 265.631 396.294 265.704 396.158 265.804C396.022 265.904 395.906 266.03 395.819 266.175C395.732 266.32 395.673 266.48 395.648 266.647C395.623 266.815 395.63 266.985 395.671 267.149C395.711 267.313 395.784 267.468 395.884 267.604C395.984 267.74 396.11 267.855 396.255 267.943C396.4 268.03 396.56 268.089 396.727 268.114C396.895 268.139 397.065 268.132 397.229 268.091C402.947 266.686 408.519 264.74 413.869 262.28C415.653 263.844 417.314 265.909 418.425 264.597C419.536 263.285 417.652 262.203 416.385 261.049C418.657 259.921 420.864 258.725 423.031 257.396C424.657 259.109 425.918 261.341 427.271 260.057C428.623 258.773 426.463 257.31 425.222 256.002C427.911 254.266 430.506 252.389 432.997 250.379C433.929 251.722 434.675 253.456 436.019 252.524C437.362 251.591 435.928 250.081 434.997 248.694C437.133 246.881 439.183 244.977 441.083 242.916L442.755 246.258C442.93 246.528 443.199 246.724 443.51 246.808C443.821 246.892 444.152 246.858 444.439 246.713C444.727 246.568 444.951 246.321 445.067 246.021C445.184 245.721 445.186 245.388 445.072 245.087L442.937 240.942C444.86 238.86 446.653 236.686 448.361 234.422C448.931 236.151 449.284 238.645 450.946 238.138C451.266 238.018 451.53 237.782 451.684 237.476C451.839 237.171 451.873 236.819 451.781 236.489L450.23 231.876C453.704 226.994 456.697 221.785 459.164 216.324C459.268 216.167 459.336 215.989 459.365 215.803C459.393 215.616 459.381 215.426 459.329 215.245C459.277 215.064 459.186 214.897 459.063 214.754C458.94 214.611 458.788 214.497 458.617 214.418C458.445 214.34 458.259 214.3 458.071 214.3C457.883 214.301 457.697 214.342 457.526 214.421C457.355 214.5 457.203 214.616 457.081 214.759C456.959 214.902 456.869 215.07 456.818 215.252C454.715 220.008 452.183 224.564 449.253 228.861Z" fill="#6A7282"/>
<path d="M615.177 111.047C612.623 112.969 610.23 115.096 608.02 117.407L601.573 108.619C609.486 106.282 613.575 106.28 615.177 111.047Z" fill="#6A7282"/>
<path d="M604.677 120.958C602.872 122.93 601.039 124.915 599.096 126.881L587.727 113.22C590.727 112.312 593.662 111.262 596.766 110.205L604.677 120.958Z" fill="#6A7282"/>
<path d="M546.316 99.0805L578.701 139.646C546.797 150.472 531.558 122.09 546.316 99.0805Z" fill="#6A7282"/>
<path d="M575.71 106.293C573.955 108.754 573.075 110.889 573.548 111.937C574.824 114.771 578.254 115.271 582.542 114.499L595.555 130.146C591.927 133.268 587.863 135.845 583.491 137.796L549.208 94.983C552.039 91.5846 555.468 88.7341 559.327 86.5729L575.71 106.293Z" fill="#6A7282"/>
<path d="M585.469 94.7388C583.223 97.3188 580.737 99.9726 578.691 102.394L563.693 84.2318C567.599 82.2336 570.992 80.5347 574.043 79.0583L585.469 94.7388Z" fill="#6A7282"/>
<path d="M597.951 76.4355C599.1 78.9859 594.354 84.873 588.69 91.1402L578.328 76.9912C584.194 74.3489 588.586 72.3704 593.404 70.2004C595.524 71.7618 597.112 73.939 597.951 76.4355Z" fill="#6A7282"/>
<path d="M643.215 32.0829L667.472 87.9003C664.89 88.4496 662.314 88.8601 659.686 89.1573L632.15 39.4532C635.598 36.6526 639.303 34.1847 643.215 32.0829Z" fill="#6A7282"/>
<path d="M664.222 24.8369L679.629 84.4696C676.48 85.6033 673.269 86.5602 670.012 87.3357L645.526 31.0084C651.553 28.3763 657.812 26.3102 664.222 24.8369Z" fill="#6A7282"/>
<path d="M682.136 22.1532L689.98 79.9776C687.401 81.3098 684.752 82.5028 682.045 83.5516L666.772 24.3696C671.834 23.2649 676.968 22.5243 682.136 22.1532Z" fill="#6A7282"/>
<path d="M700.102 73.9179C697.634 75.6451 695.071 77.2319 692.425 78.6709L684.701 22.0198C690.119 21.7866 695.548 22.0575 700.916 22.8287L700.102 73.9179Z" fill="#6A7282"/>
<path d="M702.696 72.0339L703.5 23.2674C715.895 25.6606 725.892 31.2815 730.219 40.888C741.12 65.0886 698.399 88.8312 692.165 91.6394C667.115 102.923 653.308 101.029 640.614 101.907C622.624 85.1264 630.188 67.3344 629.358 65.4924C628.529 63.6505 622.215 61.8927 620.466 58.0105C619.823 55.3836 619.636 52.6657 619.915 49.9756C623.308 46.9133 626.713 43.8794 630.095 41.0949L656.92 89.4488C651.583 89.8879 646.217 89.8524 640.886 89.3427C640.717 89.3268 640.547 89.3441 640.386 89.3938C640.224 89.4435 640.074 89.5246 639.944 89.6323C639.813 89.7401 639.706 89.8725 639.626 90.0219C639.547 90.1713 639.498 90.3348 639.482 90.5032C639.466 90.6715 639.484 90.8413 639.533 91.0029C639.583 91.1645 639.664 91.3147 639.772 91.445C639.88 91.5753 640.012 91.6832 640.162 91.7623C640.311 91.8415 640.474 91.8904 640.643 91.9063C646.504 92.4658 652.406 92.467 658.268 91.9098C659.436 93.9741 660.323 96.4721 661.805 95.6001C663.287 94.728 661.865 93.0847 661.049 91.5771C663.566 91.2616 666.044 90.8611 668.528 90.3216C669.498 92.4753 669.953 94.9977 671.653 94.2318C673.353 93.466 671.797 91.3719 671.056 89.7284C674.168 88.9767 677.237 88.0607 680.251 86.9843C680.688 88.5599 680.821 90.4433 682.396 90.0062C683.972 89.5692 683.117 87.6706 682.695 86.0538C685.309 85.0467 687.873 83.9262 690.347 82.6073L690.823 86.3129C690.899 86.626 691.088 86.8998 691.354 87.0817C691.619 87.2637 691.943 87.3409 692.263 87.2986C692.582 87.2563 692.874 87.0974 693.084 86.8525C693.293 86.6076 693.404 86.2939 693.396 85.9719L692.748 81.3551C695.25 80.0235 697.66 78.5629 700.019 76.9891C699.987 78.8101 699.498 81.2803 701.234 81.3505C701.576 81.3422 701.902 81.2061 702.149 80.9688C702.395 80.7315 702.544 80.4105 702.565 80.069L702.623 75.2025C707.514 71.7394 712.057 67.8094 716.188 63.468C716.337 63.3537 716.461 63.2084 716.549 63.042C716.637 62.8756 716.688 62.6921 716.699 62.504C716.71 62.316 716.68 62.1279 716.611 61.9526C716.542 61.7773 716.435 61.619 716.3 61.4886C716.164 61.3582 716.001 61.2587 715.823 61.197C715.645 61.1354 715.456 61.1129 715.269 61.1313C715.081 61.1496 714.9 61.2083 714.737 61.3033C714.575 61.3983 714.434 61.5274 714.326 61.6817C710.772 65.4784 706.879 68.9434 702.696 72.0339Z" fill="#6A7282"/>
<path d="M245.942 619.884C251.056 622.504 249.119 627.762 246.34 633.697L238.571 626.009C241.199 624.182 243.665 622.133 245.942 619.884Z" fill="#6A7282"/>
<path d="M244.167 638.286C242.749 641.069 241.143 644.027 239.938 646.651L228.1 633.394C230.305 631.744 232.522 630.25 234.764 628.772L244.167 638.286Z" fill="#6A7282"/>
<path d="M212.393 651.747L247.733 690.005C222.942 700.934 196.861 681.96 212.393 651.747Z" fill="#6A7282"/>
<path d="M224.187 636.495L237.747 651.671C236.351 655.799 236.236 659.197 238.956 660.945C240.028 661.633 242.164 661.011 244.857 659.638L262.079 678.83C259.376 682.331 256.051 685.304 252.27 687.6L214.958 647.41C217.476 643.334 220.586 639.655 224.187 636.495Z" fill="#6A7282"/>
<path d="M257.749 651.703L271.585 665.357C269.753 668.208 267.495 671.263 264.917 674.816L249.188 657.322C251.851 655.708 254.808 653.693 257.749 651.703Z" fill="#6A7282"/>
<path d="M277.767 641.992C280.137 643.178 282.067 645.091 283.273 647.451C280.434 651.87 277.83 655.923 274.353 661.336L261.884 649.003C268.834 644.454 275.413 640.48 277.767 641.992Z" fill="#6A7282"/>
<path d="M276.601 571.646L328.237 603.859C325.585 607.41 322.604 610.702 319.333 613.692L274.228 579.134C274.909 576.58 275.694 574.092 276.601 571.646Z" fill="#6A7282"/>
<path d="M338.498 584.15C336.103 590.264 333.143 596.142 329.657 601.706L277.551 569.19C278.792 566.092 280.206 563.066 281.786 560.126L338.498 584.15Z" fill="#6A7282"/>
<path d="M287.77 550.524L343.808 566.8C342.704 571.871 341.241 576.857 339.431 581.72L283.066 557.846C284.502 555.323 286.073 552.879 287.77 550.524Z" fill="#6A7282"/>
<path d="M345.906 548.125C345.878 553.548 345.346 558.957 344.317 564.282L289.405 548.323C291.222 545.908 293.175 543.598 295.254 541.405L345.906 548.125Z" fill="#6A7282"/>
<path d="M273.532 581.827L317.407 615.483C314.155 618.417 310.652 621.339 307.124 624.244C304.422 624.118 301.762 623.533 299.258 622.515C295.649 620.196 295.181 613.911 293.141 612.6C291.101 611.29 272.755 616.386 258.791 596.146C261.529 583.72 261.689 569.785 276.557 546.644C280.236 540.917 310.03 502.134 332.361 516.481C341.199 522.16 345.312 532.892 345.836 545.531L297.474 539.1C301.164 535.445 305.167 532.121 309.436 529.164C309.599 529.077 309.743 528.958 309.856 528.812C309.97 528.666 310.052 528.498 310.095 528.319C310.139 528.14 310.145 527.953 310.111 527.771C310.078 527.589 310.006 527.417 309.901 527.265C309.795 527.113 309.659 526.986 309.501 526.89C309.343 526.795 309.166 526.734 308.982 526.712C308.799 526.69 308.613 526.708 308.437 526.763C308.261 526.818 308.098 526.91 307.96 527.033C303.043 530.47 298.47 534.373 294.303 538.688L289.464 538.054C289.149 538.059 288.847 538.177 288.612 538.388C288.378 538.598 288.228 538.886 288.189 539.198C288.15 539.511 288.226 539.827 288.401 540.088C288.577 540.349 288.842 540.538 289.146 540.62L292.152 541C290.248 543.102 288.449 545.27 286.763 547.549L282.275 546.254C281.948 546.161 281.597 546.202 281.3 546.368C281.003 546.534 280.784 546.811 280.691 547.139C280.598 547.466 280.639 547.817 280.805 548.114C280.971 548.411 281.248 548.63 281.576 548.723L285.154 549.766C283.642 552.119 282.13 554.473 280.635 556.8C279.124 556.161 277.372 555.036 276.707 556.53C276.043 558.024 277.87 558.459 279.38 559.097C277.87 561.919 276.512 564.82 275.312 567.787L272.697 566.107C272.412 565.981 272.092 565.961 271.793 566.051C271.495 566.14 271.239 566.333 271.07 566.595C270.902 566.857 270.833 567.171 270.876 567.479C270.918 567.788 271.07 568.071 271.303 568.278L274.31 570.209C273.427 572.561 272.649 574.979 271.966 577.422C270.612 576.367 269.136 574.754 268.115 576.056C267.094 577.358 269.358 578.665 271.244 580.098C269.816 585.811 268.947 591.65 268.651 597.531C268.642 597.7 268.667 597.869 268.723 598.029C268.779 598.188 268.866 598.335 268.979 598.461C269.092 598.586 269.229 598.689 269.381 598.762C269.534 598.835 269.699 598.877 269.868 598.886C270.037 598.895 270.206 598.871 270.366 598.814C270.525 598.758 270.672 598.671 270.797 598.558C270.923 598.445 271.026 598.308 271.099 598.156C271.171 598.003 271.214 597.838 271.223 597.669C271.523 592.33 272.296 587.029 273.532 581.827Z" fill="#6A7282"/>
<path d="M603.104 2147.5C605.563 2149.54 608.184 2151.38 610.942 2153L603.857 2161.27C599.702 2154.04 598.796 2150.11 603.104 2147.5Z" fill="#6A7282"/>
<path d="M615.149 2155.41C617.483 2156.71 619.818 2158.01 622.179 2159.45L611.505 2173.66C609.931 2170.95 608.232 2168.33 606.584 2165.68L615.149 2155.41Z" fill="#6A7282"/>
<path d="M607.308 2217.24L639.362 2176.23C657.206 2204.93 633.137 2226.35 607.308 2217.24Z" fill="#6A7282"/>
<path d="M607.534 2186.95C610.352 2188.11 612.613 2188.45 613.524 2187.75C615.988 2185.86 615.703 2182.43 613.944 2178.41L626.172 2162.14C630.053 2164.96 633.503 2168.33 636.415 2172.14L602.635 2215.34C598.674 2213.38 595.109 2210.69 592.119 2207.43L607.534 2186.95Z" fill="#6A7282"/>
<path d="M594.042 2180.11C597.165 2181.83 600.244 2183.54 603.052 2184.95L588.835 2203.73C585.972 2200.36 583.537 2197.45 581.416 2194.85L594.042 2180.11Z" fill="#6A7282"/>
<path d="M573.318 2172.14C575.535 2170.43 582.357 2173.69 589.761 2177.76L578.361 2191.08C574.438 2185.98 571.501 2182.16 568.298 2178C569.307 2175.56 571.065 2173.51 573.318 2172.14Z" fill="#6A7282"/>
<path d="M519.785 2138.38L568.51 2101.92C569.621 2104.28 570.633 2106.72 571.509 2109.18L529.506 2147.45C525.988 2144.74 522.733 2141.71 519.785 2138.38Z" fill="#6A7282"/>
<path d="M507.893 2119.61L562.37 2090.88C564.195 2093.67 565.859 2096.57 567.356 2099.55L518.187 2136.36C514.243 2131.11 510.796 2125.5 507.893 2119.61Z" fill="#6A7282"/>
<path d="M501.153 2102.8L555.595 2081.82C557.492 2084.03 559.27 2086.34 560.92 2088.74L506.85 2117.24C504.609 2112.57 502.705 2107.74 501.153 2102.8Z" fill="#6A7282"/>
<path d="M547.386 2073.39C549.636 2075.39 551.771 2077.52 553.78 2079.76L500.414 2100.31C498.945 2095.1 497.964 2089.76 497.484 2084.37L547.386 2073.39Z" fill="#6A7282"/>
<path d="M544.954 2071.3L497.315 2081.75C496.769 2069.12 499.935 2058.09 508.286 2051.67C529.323 2035.48 562.29 2071.61 566.44 2077C583.212 2098.81 584.55 2112.68 588.329 2124.83C576.146 2146.2 557.089 2142.94 555.488 2144.17C553.887 2145.4 553.613 2151.93 550.238 2154.52C547.83 2155.75 545.228 2156.56 542.546 2156.91C538.785 2154.31 535.047 2151.7 531.559 2149.05L572.449 2111.83C574.1 2116.91 575.296 2122.14 576.022 2127.43C576.022 2127.62 576.062 2127.8 576.139 2127.97C576.216 2128.14 576.327 2128.29 576.466 2128.41C576.605 2128.53 576.769 2128.62 576.946 2128.68C577.123 2128.73 577.309 2128.75 577.493 2128.72C577.677 2128.7 577.853 2128.64 578.011 2128.54C578.168 2128.44 578.304 2128.31 578.407 2128.16C578.511 2128.01 578.581 2127.83 578.613 2127.65C578.645 2127.47 578.637 2127.28 578.591 2127.1C577.778 2121.26 576.413 2115.51 574.514 2109.93C576.273 2108.34 578.575 2107 577.29 2105.63C576.005 2104.27 574.828 2106.16 573.568 2107.32C572.681 2104.95 571.702 2102.6 570.623 2100.33C572.495 2098.89 574.826 2097.84 573.708 2096.39C572.59 2094.94 570.892 2096.91 569.444 2097.99C568 2095.13 566.401 2092.35 564.655 2089.67C566.107 2088.91 567.89 2088.32 567.102 2086.89C566.313 2085.45 564.682 2086.75 563.206 2087.53C561.623 2085.22 559.942 2082.98 558.089 2080.88L561.566 2079.54C561.885 2079.42 562.142 2079.18 562.282 2078.87C562.423 2078.56 562.434 2078.2 562.314 2077.88C562.193 2077.57 561.952 2077.31 561.642 2077.17C561.332 2077.03 560.979 2077.02 560.66 2077.14L556.298 2078.81C554.445 2076.7 552.449 2074.67 550.393 2072.76C552.153 2072.35 554.689 2072.28 554.338 2070.55C554.253 2070.22 554.047 2069.94 553.762 2069.76C553.478 2069.58 553.135 2069.51 552.803 2069.57L548.054 2070.64C543.534 2066.68 538.64 2063.17 533.442 2060.16C533.294 2060.05 533.124 2059.97 532.944 2059.93C532.764 2059.89 532.577 2059.89 532.396 2059.92C532.215 2059.96 532.044 2060.04 531.894 2060.15C531.745 2060.25 531.62 2060.39 531.528 2060.55C531.436 2060.71 531.379 2060.89 531.361 2061.07C531.343 2061.26 531.364 2061.44 531.423 2061.62C531.482 2061.79 531.577 2061.95 531.703 2062.09C531.828 2062.23 531.981 2062.33 532.151 2062.4C536.681 2064.97 540.966 2067.95 544.954 2071.3Z" fill="#6A7282"/>
<path d="M943.623 2535.16C946.374 2536.78 949.254 2538.18 952.232 2539.35L946.546 2548.64C941.299 2542.15 939.783 2538.41 943.623 2535.16Z" fill="#6A7282"/>
<path d="M956.768 2541.06C959.279 2541.98 961.79 2542.89 964.349 2543.94L956.058 2559.66C954.075 2557.23 951.984 2554.92 949.936 2552.56L956.768 2541.06Z" fill="#6A7282"/>
<path d="M958.809 2603.35L983.97 2557.79C1006.13 2583.3 985.754 2608.26 958.809 2603.35Z" fill="#6A7282"/>
<path d="M954.24 2573.41C957.207 2574.11 959.493 2574.09 960.282 2573.25C962.414 2570.99 961.591 2567.65 959.218 2563.96L968.718 2545.96C972.996 2548.14 976.936 2550.92 980.414 2554.22L953.895 2602.22C949.672 2600.91 945.728 2598.82 942.261 2596.08L954.24 2573.41Z" fill="#6A7282"/>
<path d="M939.836 2568.8C943.191 2569.99 946.502 2571.19 949.498 2572.14L938.431 2592.93C935.071 2590.06 932.206 2587.58 929.701 2585.34L939.836 2568.8Z" fill="#6A7282"/>
<path d="M918.111 2564.2C920.03 2562.16 927.282 2564.3 935.237 2567.15L926.088 2582.1C921.408 2577.69 917.903 2574.38 914.082 2570.78C914.693 2568.21 916.104 2565.91 918.111 2564.2Z" fill="#6A7282"/>
<path d="M859.911 2539.34L902.254 2495.62C903.724 2497.78 905.109 2500.03 906.363 2502.32L870.946 2546.76C867.043 2544.64 863.349 2542.15 859.911 2539.34Z" fill="#6A7282"/>
<path d="M845.199 2522.69L894.444 2485.7C896.688 2488.17 898.789 2490.76 900.74 2493.47L858.014 2537.59C853.288 2533.03 848.998 2528.04 845.199 2522.69Z" fill="#6A7282"/>
<path d="M835.884 2507.15L886.32 2477.82C888.543 2479.7 890.664 2481.7 892.674 2483.81L843.794 2520.51C840.842 2516.25 838.199 2511.79 835.884 2507.15Z" fill="#6A7282"/>
<path d="M876.881 2470.8C879.42 2472.42 881.864 2474.18 884.203 2476.08L834.761 2504.81C832.485 2499.9 830.672 2494.78 829.345 2489.54L876.881 2470.8Z" fill="#6A7282"/>
<path d="M874.149 2469.12L828.765 2486.98C826.225 2474.59 827.607 2463.2 834.837 2455.54C853.048 2436.23 891.315 2466.68 896.267 2471.35C916.277 2490.22 919.793 2503.71 925.447 2515.11C916.799 2538.14 897.467 2537.94 896.081 2539.4C894.695 2540.87 895.456 2547.36 892.535 2550.46C890.352 2552.05 887.911 2553.26 885.318 2554.03C881.193 2552.06 877.089 2550.07 873.225 2548.01L907.71 2504.79C910.146 2509.55 912.152 2514.51 913.707 2519.63C913.737 2519.81 913.805 2519.99 913.908 2520.14C914.01 2520.29 914.144 2520.42 914.301 2520.52C914.458 2520.62 914.633 2520.69 914.817 2520.71C915 2520.74 915.187 2520.72 915.364 2520.67C915.542 2520.62 915.706 2520.53 915.846 2520.41C915.987 2520.29 916.1 2520.14 916.178 2519.97C916.256 2519.8 916.298 2519.62 916.3 2519.44C916.303 2519.25 916.266 2519.07 916.192 2518.9C914.465 2513.26 912.207 2507.8 909.449 2502.58C910.934 2500.74 912.995 2499.05 911.511 2497.91C910.026 2496.76 909.163 2498.81 908.103 2500.16C906.851 2497.95 905.513 2495.79 904.089 2493.72C905.71 2492.01 907.845 2490.6 906.511 2489.34C905.177 2488.09 903.813 2490.3 902.553 2491.59C900.675 2489 898.657 2486.51 896.509 2484.14C897.822 2483.16 899.489 2482.29 898.484 2481C897.479 2479.72 896.073 2481.25 894.739 2482.26C892.811 2480.23 890.797 2478.28 888.634 2476.5L891.856 2474.62C892.151 2474.46 892.367 2474.18 892.456 2473.85C892.546 2473.52 892.501 2473.17 892.332 2472.87C892.163 2472.58 891.884 2472.36 891.555 2472.27C891.227 2472.18 890.877 2472.23 890.581 2472.4L886.538 2474.74C884.375 2472.95 882.083 2471.26 879.751 2469.7C881.424 2469.02 883.917 2468.55 883.297 2466.89C883.161 2466.59 882.913 2466.34 882.603 2466.21C882.293 2466.07 881.945 2466.06 881.627 2466.17L877.106 2467.98C872.017 2464.78 866.629 2462.09 861.019 2459.94C860.855 2459.85 860.675 2459.8 860.491 2459.79C860.307 2459.78 860.122 2459.81 859.949 2459.87C859.777 2459.94 859.62 2460.04 859.489 2460.17C859.358 2460.3 859.257 2460.46 859.192 2460.63C859.126 2460.8 859.098 2460.99 859.109 2461.17C859.12 2461.36 859.171 2461.54 859.257 2461.7C859.342 2461.86 859.462 2462.01 859.608 2462.12C859.753 2462.24 859.921 2462.32 860.1 2462.36C864.979 2464.18 869.682 2466.44 874.149 2469.12Z" fill="#6A7282"/>
<path d="M328.9 1728.12C330.909 1730.61 333.117 1732.93 335.502 1735.06L326.928 1741.78C324.278 1733.87 324.163 1729.83 328.9 1728.12Z" fill="#6A7282"/>
<path d="M339.153 1738.25C341.186 1739.98 343.218 1741.72 345.25 1743.6L331.989 1755.43C330.978 1752.46 329.828 1749.56 328.733 1746.64L339.153 1738.25Z" fill="#6A7282"/>
<path d="M319.298 1797.33L358.795 1763.43C370.643 1795.08 342.829 1811.34 319.298 1797.33Z" fill="#6A7282"/>
<path d="M325.48 1767.68C328.013 1769.37 330.163 1770.15 331.195 1769.64C333.983 1768.27 334.379 1764.85 333.445 1760.57L348.635 1747.02C351.885 1750.55 354.605 1754.53 356.71 1758.84L315.089 1794.55C311.592 1791.84 308.625 1788.51 306.335 1784.73L325.48 1767.68Z" fill="#6A7282"/>
<path d="M313.596 1758.32C316.321 1760.62 319.004 1762.9 321.48 1764.83L303.845 1780.45C301.7 1776.58 299.885 1773.25 298.319 1770.28L313.596 1758.32Z" fill="#6A7282"/>
<path d="M294.847 1746.42C297.357 1745.19 303.404 1749.73 309.862 1755.17L296.065 1765.99C293.222 1760.21 291.093 1755.89 288.773 1751.18C290.241 1748.99 292.369 1747.32 294.847 1746.42Z" fill="#6A7282"/>
<path d="M249.003 1702.79L303.952 1676.63C304.576 1679.16 305.089 1681.75 305.463 1684.34L256.75 1713.6C253.834 1710.25 251.241 1706.63 249.003 1702.79Z" fill="#6A7282"/>
<path d="M241.038 1682.05L300.104 1664.6C301.343 1667.7 302.405 1670.86 303.286 1674.08L247.835 1700.49C245.001 1694.57 242.725 1688.4 241.038 1682.05Z" fill="#6A7282"/>
<path d="M237.739 1664.24L295.245 1654.38C296.67 1656.92 297.958 1659.54 299.104 1662.21L240.483 1679.52C239.204 1674.5 238.287 1669.39 237.739 1664.24Z" fill="#6A7282"/>
<path d="M288.855 1644.5C290.667 1646.91 292.342 1649.41 293.869 1652.01L237.504 1661.65C237.089 1656.25 237.177 1650.83 237.768 1645.45L288.855 1644.5Z" fill="#6A7282"/>
<path d="M286.882 1641.97L238.117 1642.85C240.068 1630.35 245.341 1620.17 254.793 1615.51C278.604 1603.78 303.817 1645.69 306.825 1651.79C318.978 1676.47 317.561 1690.33 318.875 1702.99C302.724 1721.55 284.682 1714.6 282.87 1715.49C281.058 1716.39 279.505 1722.73 275.685 1724.61C273.082 1725.34 270.372 1725.62 267.674 1725.44C264.497 1722.15 261.347 1718.85 258.448 1715.57L305.863 1687.12C306.481 1692.43 306.626 1697.79 306.295 1703.12C306.26 1703.3 306.263 1703.49 306.305 1703.67C306.347 1703.85 306.427 1704.02 306.539 1704.17C306.652 1704.32 306.794 1704.44 306.957 1704.52C307.12 1704.61 307.3 1704.66 307.484 1704.68C307.669 1704.69 307.854 1704.66 308.028 1704.6C308.201 1704.54 308.36 1704.44 308.491 1704.31C308.623 1704.18 308.726 1704.02 308.793 1703.85C308.86 1703.67 308.89 1703.49 308.88 1703.31C309.232 1697.42 309.026 1691.51 308.262 1685.66C310.299 1684.45 312.82 1683.59 311.829 1682C310.837 1680.41 309.313 1682.03 307.848 1682.92C307.446 1680.42 306.947 1677.93 306.336 1675.49C308.455 1674.45 310.946 1673.88 310.136 1672.23C309.326 1670.59 307.273 1672.19 305.642 1672.96C304.787 1669.87 303.766 1666.84 302.583 1663.86C304.156 1663.4 306.02 1663.17 305.529 1661.61C305.038 1660.05 303.184 1661 301.582 1661.48C300.486 1658.9 299.278 1656.38 297.875 1653.95L301.548 1653.32C301.884 1653.26 302.184 1653.08 302.382 1652.8C302.581 1652.53 302.661 1652.18 302.606 1651.85C302.551 1651.51 302.365 1651.21 302.088 1651.01C301.812 1650.81 301.468 1650.73 301.132 1650.79L296.527 1651.57C295.123 1649.14 293.567 1646.75 291.927 1644.48C293.734 1644.42 296.233 1644.85 296.23 1643.09C296.21 1642.75 296.064 1642.43 295.821 1642.2C295.577 1641.97 295.254 1641.83 294.917 1641.83L290.051 1641.94C286.399 1637.17 282.291 1632.76 277.787 1628.78C277.664 1628.65 277.513 1628.54 277.344 1628.46C277.175 1628.39 276.992 1628.35 276.808 1628.35C276.623 1628.35 276.44 1628.39 276.272 1628.47C276.104 1628.54 275.955 1628.66 275.833 1628.79C275.711 1628.93 275.62 1629.1 275.566 1629.27C275.512 1629.45 275.497 1629.64 275.52 1629.82C275.543 1630 275.605 1630.18 275.702 1630.34C275.798 1630.49 275.927 1630.63 276.08 1630.73C280.015 1634.14 283.631 1637.91 286.882 1641.97Z" fill="#6A7282"/>
<path d="M617.376 2029.09C621.196 2024.8 625.804 2028.04 630.81 2032.22L621.412 2037.79C620.318 2034.78 618.967 2031.87 617.376 2029.09Z" fill="#6A7282"/>
<path d="M634.691 2035.49C637.018 2037.58 639.468 2039.89 641.822 2041.86L625.978 2049.91C624.948 2047.36 624.049 2044.81 623.193 2042.27L634.691 2035.49Z" fill="#6A7282"/>
<path d="M639.579 2069.65L685.518 2045.18C689.849 2072.06 664.815 2092.4 639.579 2069.65Z" fill="#6A7282"/>
<path d="M627.871 2054.37L646.01 2045.15C649.644 2047.55 652.9 2048.53 655.284 2046.35C656.224 2045.49 656.169 2043.26 655.509 2040.29L678.489 2028.57C681.175 2032.08 683.198 2036.05 684.459 2040.29L636.042 2066.06C632.752 2062.6 629.998 2058.66 627.871 2054.37Z" fill="#6A7282"/>
<path d="M651.135 2025.79L667.895 2015.93C670.161 2018.41 672.538 2021.38 675.334 2024.8L654.4 2035.53C653.457 2032.47 652.307 2029.15 651.135 2025.79Z" fill="#6A7282"/>
<path d="M646.888 2003.98C648.632 2001.99 650.967 2000.61 653.553 2000.03C657.12 2003.93 660.351 2007.46 664.715 2012.23L649.604 2021.13C646.879 2013.13 644.824 2005.87 646.888 2003.98Z" fill="#6A7282"/>
<path d="M578.561 1987.1L622.909 1945.42C625.672 1948.89 628.099 1952.63 630.159 1956.56L585.194 1991.31C582.836 1989.93 580.695 1988.6 578.561 1987.1Z" fill="#6A7282"/>
<path d="M606.437 1930.41C611.734 1934.29 616.658 1938.65 621.148 1943.45L576.388 1985.5C573.709 1983.51 571.145 1981.37 568.708 1979.09L606.437 1930.41Z" fill="#6A7282"/>
<path d="M560.998 1970.9L591.085 1920.91C595.707 1923.27 600.153 1925.96 604.39 1928.95L566.894 1977.34C564.816 1975.3 562.847 1973.15 560.998 1970.9Z" fill="#6A7282"/>
<path d="M573.589 1914.13C578.845 1915.5 583.962 1917.36 588.873 1919.69L559.381 1968.67C557.506 1966.34 555.763 1963.92 554.159 1961.4L573.589 1914.13Z" fill="#6A7282"/>
<path d="M587.641 1992.69L631.377 1958.86C633.382 1962.75 635.311 1966.89 637.216 1971.04C636.421 1973.63 635.182 1976.06 633.554 1978.22C630.39 1981.12 624.194 1979.97 622.405 1981.6C620.617 1983.24 620.851 2002.28 597.693 2010.58C586.38 2004.75 572.95 2001.04 554.38 1980.74C549.785 1975.72 519.911 1937 539.491 1919.08C547.241 1911.99 558.669 1910.76 571.021 1913.48L552.52 1958.69C549.92 1954.18 547.722 1949.45 545.952 1944.56C545.914 1944.37 545.836 1944.2 545.725 1944.05C545.613 1943.9 545.469 1943.77 545.304 1943.68C545.14 1943.59 544.957 1943.53 544.769 1943.52C544.581 1943.51 544.393 1943.53 544.216 1943.6C544.04 1943.67 543.88 1943.77 543.747 1943.9C543.615 1944.04 543.512 1944.2 543.448 1944.38C543.383 1944.55 543.358 1944.74 543.373 1944.93C543.388 1945.12 543.444 1945.3 543.536 1945.46C545.603 1951.05 548.208 1956.43 551.317 1961.51L549.446 1966.01C549.37 1966.31 549.407 1966.64 549.55 1966.92C549.694 1967.2 549.934 1967.42 550.226 1967.53C550.518 1967.65 550.843 1967.66 551.14 1967.55C551.438 1967.45 551.688 1967.24 551.845 1966.97L553.002 1964.18C554.547 1966.56 556.183 1968.86 557.955 1971.07L555.534 1975.05C555.4 1975.35 555.378 1975.68 555.473 1975.99C555.569 1976.29 555.774 1976.56 556.051 1976.72C556.327 1976.89 556.655 1976.94 556.971 1976.88C557.288 1976.82 557.569 1976.64 557.763 1976.38L559.618 1973.26C561.506 1975.32 563.395 1977.38 565.283 1979.45C564.28 1980.74 562.722 1982.13 564.018 1983.17C565.313 1984.22 566.159 1982.52 567.162 1981.22C569.503 1983.41 571.96 1985.46 574.523 1987.38L572.23 1989.48C572.035 1989.72 571.934 1990.02 571.944 1990.34C571.955 1990.65 572.076 1990.94 572.286 1991.17C572.496 1991.4 572.782 1991.55 573.091 1991.59C573.4 1991.63 573.712 1991.55 573.972 1991.38L576.608 1988.97C578.677 1990.44 580.795 1991.79 582.982 1993.08C581.721 1994.23 579.679 1995.13 580.697 1996.47C581.716 1997.82 583.516 1995.92 585.384 1994.46C590.546 1997.31 595.976 1999.66 601.596 2001.45C601.764 2001.52 601.947 2001.56 602.132 2001.56C602.317 2001.56 602.5 2001.53 602.669 2001.45C602.838 2001.37 602.989 2001.26 603.111 2001.12C603.234 2000.99 603.326 2000.82 603.381 2000.65C603.436 2000.47 603.453 2000.28 603.43 2000.1C603.408 1999.92 603.346 1999.74 603.25 1999.58C603.154 1999.42 603.026 1999.29 602.873 1999.18C602.72 1999.08 602.547 1999.01 602.365 1998.97C597.278 1997.33 592.35 1995.22 587.641 1992.69Z" fill="#6A7282"/>
<path d="M938.98 2415.99C942.073 2411.14 947.135 2413.61 952.74 2416.95L944.342 2423.93C942.785 2421.13 940.991 2418.48 938.98 2415.99Z" fill="#6A7282"/>
<path d="M957.09 2419.56C959.718 2421.25 962.502 2423.15 965.139 2424.72L950.769 2435.18C949.347 2432.82 948.056 2430.45 946.809 2428.07L957.09 2419.56Z" fill="#6A7282"/>
<path d="M967.322 2452.52L1008.81 2421.09C1017.34 2446.94 995.839 2470.98 967.322 2452.52Z" fill="#6A7282"/>
<path d="M953.343 2439.29L969.794 2427.3C973.762 2429.1 977.133 2429.56 979.142 2427.03C979.934 2426.03 979.527 2423.84 978.404 2421L999.24 2405.8C1002.45 2408.84 1005.08 2412.44 1006.99 2416.43L963.262 2449.54C959.464 2446.63 956.121 2443.18 953.343 2439.29Z" fill="#6A7282"/>
<path d="M971.793 2407.39L986.781 2395C989.41 2397.08 992.226 2399.64 995.529 2402.57L976.557 2416.48C975.142 2413.62 973.48 2410.51 971.793 2407.39Z" fill="#6A7282"/>
<path d="M964.148 2386.52C965.554 2384.28 967.641 2382.54 970.103 2381.57C974.242 2384.85 977.991 2387.83 983.055 2391.84L969.543 2403.02C965.586 2395.56 962.409 2388.71 964.148 2386.52Z" fill="#6A7282"/>
<path d="M894.01 2380.66L931.204 2332.49C934.482 2335.48 937.47 2338.78 940.126 2342.34L901.225 2383.77C898.678 2382.78 896.354 2381.8 894.01 2380.66Z" fill="#6A7282"/>
<path d="M912.565 2320.27C918.409 2323.27 923.962 2326.8 929.153 2330.82L891.612 2379.43C888.652 2377.89 885.781 2376.18 883.014 2374.31L912.565 2320.27Z" fill="#6A7282"/>
<path d="M874.105 2367.44L895.903 2313.32C900.84 2314.92 905.656 2316.87 910.313 2319.16L880.946 2372.87C878.571 2371.18 876.287 2369.37 874.105 2367.44Z" fill="#6A7282"/>
<path d="M877.554 2309.39C882.962 2309.92 888.309 2310.95 893.526 2312.47L872.155 2365.5C869.937 2363.5 867.831 2361.38 865.849 2359.15L877.554 2309.39Z" fill="#6A7282"/>
<path d="M903.86 2384.75L941.692 2344.42C944.288 2347.95 946.846 2351.72 949.385 2355.52C949.01 2358.21 948.171 2360.8 946.906 2363.2C944.24 2366.56 937.939 2366.4 936.432 2368.3C934.925 2370.2 938.169 2388.96 916.616 2400.82C904.524 2396.86 890.675 2395.31 869.128 2378.21C863.797 2373.98 828.172 2340.48 844.671 2319.68C851.201 2311.46 862.289 2308.43 874.917 2309.17L863.801 2356.73C860.521 2352.69 857.603 2348.37 855.081 2343.82C855.014 2343.64 854.91 2343.48 854.775 2343.35C854.641 2343.22 854.479 2343.12 854.302 2343.05C854.125 2342.99 853.936 2342.96 853.748 2342.98C853.561 2343 853.379 2343.05 853.215 2343.15C853.051 2343.24 852.91 2343.37 852.8 2343.52C852.69 2343.67 852.615 2343.85 852.579 2344.03C852.543 2344.22 852.548 2344.41 852.593 2344.59C852.637 2344.77 852.721 2344.94 852.839 2345.09C855.763 2350.28 859.187 2355.18 863.061 2359.71L861.924 2364.44C861.897 2364.76 861.985 2365.07 862.171 2365.32C862.357 2365.58 862.629 2365.76 862.936 2365.83C863.243 2365.9 863.565 2365.85 863.842 2365.7C864.12 2365.55 864.334 2365.31 864.445 2365.01L865.147 2362.08C867.049 2364.18 869.027 2366.19 871.127 2368.1L869.368 2372.41C869.281 2372.72 869.312 2373.05 869.455 2373.34C869.598 2373.63 869.842 2373.86 870.141 2373.98C870.441 2374.1 870.773 2374.1 871.076 2373.99C871.378 2373.88 871.628 2373.66 871.779 2373.37L873.115 2369.99C875.306 2371.73 877.497 2373.47 879.688 2375.21C878.903 2376.65 877.584 2378.26 879.029 2379.09C880.474 2379.92 881.039 2378.1 881.825 2376.66C884.481 2378.45 887.233 2380.09 890.067 2381.58L888.135 2384.01C887.981 2384.28 887.929 2384.6 887.989 2384.9C888.048 2385.21 888.215 2385.49 888.459 2385.68C888.703 2385.87 889.008 2385.97 889.319 2385.96C889.63 2385.95 889.927 2385.83 890.156 2385.62L892.377 2382.82C894.654 2383.95 896.958 2384.94 899.321 2385.87C898.258 2387.2 896.385 2388.42 897.603 2389.58C898.821 2390.75 900.298 2388.58 901.912 2386.85C907.46 2388.85 913.192 2390.3 919.025 2391.18C919.203 2391.23 919.39 2391.24 919.573 2391.21C919.756 2391.19 919.93 2391.12 920.085 2391.02C920.24 2390.92 920.371 2390.78 920.47 2390.63C920.57 2390.47 920.635 2390.29 920.661 2390.11C920.687 2389.93 920.674 2389.74 920.623 2389.56C920.572 2389.39 920.483 2389.22 920.363 2389.08C920.243 2388.94 920.095 2388.83 919.928 2388.75C919.76 2388.67 919.578 2388.62 919.393 2388.62C914.109 2387.8 908.911 2386.5 903.86 2384.75Z" fill="#6A7282"/>
<path d="M774.519 2233.95C778.339 2229.65 782.947 2232.89 787.954 2237.07L778.556 2242.64C777.461 2239.63 776.111 2236.73 774.519 2233.95Z" fill="#6A7282"/>
<path d="M791.834 2240.35C794.161 2242.43 796.611 2244.74 798.965 2246.71L783.122 2254.77C782.091 2252.21 781.192 2249.67 780.337 2247.12L791.834 2240.35Z" fill="#6A7282"/>
<path d="M796.722 2274.51L842.661 2250.04C846.992 2276.91 821.959 2297.25 796.722 2274.51Z" fill="#6A7282"/>
<path d="M785.014 2259.23L803.154 2250C806.787 2252.41 810.043 2253.39 812.428 2251.2C813.368 2250.34 813.312 2248.12 812.652 2245.14L835.632 2233.42C838.318 2236.94 840.341 2240.91 841.602 2245.15L793.185 2270.92C789.896 2267.45 787.141 2263.51 785.014 2259.23Z" fill="#6A7282"/>
<path d="M808.279 2230.65L825.038 2220.79C827.304 2223.27 829.681 2226.23 832.477 2229.65L811.543 2240.39C810.6 2237.33 809.45 2234 808.279 2230.65Z" fill="#6A7282"/>
<path d="M804.031 2208.84C805.775 2206.84 808.11 2205.46 810.696 2204.89C814.263 2208.78 817.494 2212.32 821.859 2217.08L806.747 2225.98C804.022 2217.99 801.968 2210.73 804.031 2208.84Z" fill="#6A7282"/>
<path d="M735.705 2191.95L780.052 2150.27C782.815 2153.75 785.243 2157.48 787.302 2161.41L742.338 2196.16C739.979 2194.78 737.838 2193.45 735.705 2191.95Z" fill="#6A7282"/>
<path d="M763.58 2135.26C768.877 2139.14 773.802 2143.51 778.291 2148.3L733.531 2190.36C730.852 2188.37 728.288 2186.23 725.852 2183.95L763.58 2135.26Z" fill="#6A7282"/>
<path d="M718.141 2175.75L748.228 2125.76C752.85 2128.12 757.296 2130.81 761.533 2133.81L724.038 2182.19C721.959 2180.15 719.991 2178 718.141 2175.75Z" fill="#6A7282"/>
<path d="M730.732 2118.98C735.988 2120.36 741.105 2122.22 746.016 2124.54L716.524 2173.52C714.65 2171.2 712.906 2168.77 711.303 2166.25L730.732 2118.98Z" fill="#6A7282"/>
<path d="M744.784 2197.54L788.52 2163.71C790.525 2167.61 792.454 2171.74 794.36 2175.9C793.564 2178.48 792.325 2180.92 790.698 2183.08C787.533 2185.98 781.337 2184.82 779.549 2186.46C777.76 2188.09 777.995 2207.13 754.836 2215.44C743.523 2209.61 730.093 2205.89 711.523 2185.6C706.928 2180.58 677.054 2141.86 696.635 2123.94C704.384 2116.85 715.812 2115.62 728.164 2118.34L709.663 2163.54C707.063 2159.03 704.865 2154.31 703.095 2149.41C703.057 2149.23 702.98 2149.05 702.868 2148.9C702.756 2148.75 702.613 2148.63 702.448 2148.54C702.283 2148.44 702.1 2148.39 701.912 2148.38C701.724 2148.36 701.536 2148.39 701.359 2148.46C701.183 2148.52 701.023 2148.63 700.89 2148.76C700.758 2148.89 700.656 2149.05 700.591 2149.23C700.527 2149.41 700.501 2149.6 700.516 2149.78C700.532 2149.97 700.587 2150.15 700.68 2150.32C702.746 2155.91 705.352 2161.28 708.46 2166.37L706.589 2170.86C706.513 2171.17 706.55 2171.49 706.693 2171.77C706.837 2172.05 707.077 2172.27 707.369 2172.39C707.661 2172.51 707.986 2172.51 708.284 2172.41C708.581 2172.31 708.831 2172.1 708.988 2171.83L710.145 2169.04C711.69 2171.42 713.326 2173.71 715.098 2175.93L712.678 2179.91C712.543 2180.2 712.521 2180.53 712.616 2180.84C712.712 2181.15 712.918 2181.41 713.194 2181.58C713.471 2181.74 713.799 2181.8 714.115 2181.74C714.431 2181.67 714.713 2181.5 714.906 2181.24L716.761 2178.11C718.649 2180.17 720.538 2182.24 722.426 2184.3C721.423 2185.6 719.866 2186.98 721.161 2188.03C722.457 2189.08 723.302 2187.38 724.305 2186.08C726.646 2188.26 729.103 2190.32 731.666 2192.23L729.373 2194.33C729.179 2194.58 729.077 2194.88 729.088 2195.19C729.098 2195.5 729.219 2195.8 729.429 2196.03C729.639 2196.26 729.925 2196.41 730.234 2196.44C730.543 2196.48 730.856 2196.41 731.115 2196.24L733.752 2193.82C735.82 2195.3 737.938 2196.65 740.125 2197.93C738.864 2199.09 736.822 2199.99 737.841 2201.33C738.859 2202.67 740.659 2200.77 742.528 2199.31C747.689 2202.17 753.119 2204.51 758.739 2206.3C758.907 2206.38 759.09 2206.42 759.275 2206.42C759.46 2206.42 759.643 2206.38 759.812 2206.3C759.981 2206.23 760.132 2206.12 760.255 2205.98C760.377 2205.84 760.469 2205.68 760.524 2205.5C760.579 2205.32 760.596 2205.14 760.573 2204.95C760.551 2204.77 760.49 2204.59 760.394 2204.44C760.297 2204.28 760.169 2204.14 760.016 2204.04C759.864 2203.93 759.691 2203.86 759.508 2203.83C754.421 2202.18 749.493 2200.08 744.784 2197.54Z" fill="#6A7282"/>
<path d="M478.977 1825.45C483.094 1821.43 487.459 1824.99 492.155 1829.52L482.383 1834.41C481.506 1831.33 480.367 1828.33 478.977 1825.45Z" fill="#6A7282"/>
<path d="M495.791 1833.06C497.964 1835.31 500.243 1837.78 502.451 1839.92L486.073 1846.82C485.227 1844.2 484.512 1841.6 483.84 1839L495.791 1833.06Z" fill="#6A7282"/>
<path d="M498.23 1867.49L545.798 1846.35C548.201 1873.47 521.78 1891.97 498.23 1867.49Z" fill="#6A7282"/>
<path d="M487.642 1851.41L506.394 1843.5C509.846 1846.16 513.024 1847.37 515.558 1845.36C516.557 1844.57 516.661 1842.35 516.215 1839.33L539.972 1829.28C542.401 1832.98 544.135 1837.09 545.09 1841.4L494.958 1863.65C491.924 1859.96 489.458 1855.83 487.642 1851.41Z" fill="#6A7282"/>
<path d="M512.886 1824.56L530.307 1815.92C532.39 1818.56 534.549 1821.68 537.094 1825.3L515.448 1834.51C514.725 1831.39 513.815 1827.99 512.886 1824.56Z" fill="#6A7282"/>
<path d="M510.206 1802.5C512.087 1800.64 514.515 1799.43 517.135 1799.04C520.415 1803.18 523.386 1806.93 527.399 1812L511.692 1819.8C509.543 1811.63 508.013 1804.24 510.206 1802.5Z" fill="#6A7282"/>
<path d="M443.258 1780.79L490.466 1742.38C492.974 1746.04 495.129 1749.94 496.902 1754.01L449.574 1785.46C447.319 1783.91 445.278 1782.44 443.258 1780.79Z" fill="#6A7282"/>
<path d="M475.106 1726.23C480.113 1730.48 484.714 1735.18 488.85 1740.28L441.203 1779.04C438.673 1776.87 436.269 1774.55 434.001 1772.1L475.106 1726.23Z" fill="#6A7282"/>
<path d="M426.895 1763.37L460.471 1715.66C464.913 1718.34 469.156 1721.34 473.168 1724.63L432.317 1770.22C430.389 1768.04 428.579 1765.75 426.895 1763.37Z" fill="#6A7282"/>
<path d="M443.503 1707.65C448.648 1709.39 453.619 1711.62 458.352 1714.28L425.441 1761.04C423.737 1758.59 422.171 1756.04 420.751 1753.41L443.503 1707.65Z" fill="#6A7282"/>
<path d="M451.915 1787.01L497.953 1756.39C499.675 1760.42 501.304 1764.68 502.909 1768.96C501.931 1771.48 500.522 1773.82 498.743 1775.86C495.381 1778.52 489.283 1776.93 487.382 1778.43C485.481 1779.94 484.357 1798.95 460.666 1805.57C449.797 1798.96 436.666 1794.29 419.591 1772.73C415.366 1767.39 388.33 1726.64 409.139 1710.16C417.375 1703.64 428.862 1703.23 440.988 1706.82L419.309 1750.59C417.037 1745.91 415.183 1741.04 413.766 1736.03C413.741 1735.84 413.676 1735.66 413.576 1735.5C413.475 1735.35 413.341 1735.21 413.183 1735.11C413.025 1735.01 412.847 1734.94 412.66 1734.91C412.474 1734.88 412.284 1734.9 412.103 1734.95C411.922 1735 411.755 1735.1 411.614 1735.22C411.472 1735.34 411.359 1735.5 411.281 1735.67C411.204 1735.84 411.165 1736.03 411.167 1736.22C411.169 1736.4 411.212 1736.59 411.292 1736.76C412.954 1742.48 415.17 1748.03 417.907 1753.33L415.721 1757.67C415.623 1757.97 415.637 1758.3 415.76 1758.59C415.883 1758.88 416.107 1759.11 416.39 1759.25C416.673 1759.39 416.996 1759.42 417.301 1759.34C417.605 1759.26 417.869 1759.07 418.045 1758.81L419.398 1756.11C420.769 1758.59 422.237 1761 423.847 1763.33L421.148 1767.13C420.993 1767.41 420.948 1767.74 421.021 1768.06C421.094 1768.37 421.281 1768.65 421.545 1768.83C421.809 1769.02 422.132 1769.1 422.452 1769.06C422.771 1769.02 423.065 1768.86 423.277 1768.62L425.35 1765.63C427.086 1767.82 428.823 1770.02 430.559 1772.21C429.466 1773.43 427.814 1774.7 429.031 1775.84C430.249 1776.97 431.213 1775.34 432.307 1774.11C434.485 1776.46 436.79 1778.68 439.209 1780.78L436.773 1782.71C436.561 1782.94 436.438 1783.23 436.426 1783.55C436.414 1783.86 436.514 1784.16 436.707 1784.41C436.901 1784.65 437.175 1784.82 437.481 1784.88C437.786 1784.94 438.103 1784.89 438.374 1784.73L441.176 1782.51C443.134 1784.13 445.151 1785.63 447.24 1787.07C445.9 1788.13 443.799 1788.88 444.719 1790.29C445.639 1791.7 447.57 1789.94 449.538 1788.62C454.483 1791.83 459.732 1794.56 465.21 1796.74C465.372 1796.83 465.552 1796.88 465.736 1796.9C465.921 1796.91 466.106 1796.89 466.28 1796.82C466.454 1796.76 466.612 1796.66 466.744 1796.53C466.877 1796.4 466.98 1796.24 467.048 1796.07C467.115 1795.9 467.145 1795.72 467.136 1795.53C467.126 1795.35 467.078 1795.16 466.993 1795C466.909 1794.84 466.79 1794.69 466.645 1794.58C466.501 1794.46 466.333 1794.38 466.154 1794.33C461.197 1792.32 456.432 1789.88 451.915 1787.01Z" fill="#6A7282"/>
<path d="M338.038 1611.03C342.437 1607.33 346.531 1611.2 350.883 1616.06L340.782 1620.21C340.132 1617.08 339.214 1614.01 338.038 1611.03Z" fill="#6A7282"/>
<path d="M354.252 1619.86C356.256 1622.25 358.348 1624.89 360.393 1627.18L343.556 1632.87C342.903 1630.2 342.38 1627.55 341.9 1624.9L354.252 1619.86Z" fill="#6A7282"/>
<path d="M354.174 1654.36L403.156 1636.76C403.574 1663.98 375.875 1680.5 354.174 1654.36Z" fill="#6A7282"/>
<path d="M344.786 1637.56L364.065 1631.04C367.314 1633.94 370.396 1635.38 373.069 1633.56C374.123 1632.85 374.389 1630.64 374.164 1627.6L398.591 1619.31C400.744 1623.17 402.174 1627.39 402.811 1631.77L351.19 1650.3C348.434 1646.4 346.275 1642.1 344.786 1637.56Z" fill="#6A7282"/>
<path d="M371.921 1612.62L389.926 1605.28C391.812 1608.06 393.737 1611.33 396.011 1615.12L373.751 1622.73C373.258 1619.57 372.598 1616.11 371.921 1612.62Z" fill="#6A7282"/>
<path d="M370.857 1590.43C372.87 1588.71 375.38 1587.67 378.021 1587.48C380.99 1591.85 383.679 1595.81 387.312 1601.15L371.077 1607.79C369.531 1599.48 368.543 1592 370.857 1590.43Z" fill="#6A7282"/>
<path d="M305.672 1563.88L355.556 1529.02C357.79 1532.86 359.655 1536.9 361.126 1541.09L311.63 1569.01C309.494 1567.3 307.567 1565.68 305.672 1563.88Z" fill="#6A7282"/>
<path d="M341.415 1511.8C346.098 1516.4 350.343 1521.43 354.097 1526.82L303.75 1562C301.385 1559.64 299.156 1557.15 297.073 1554.55L341.415 1511.8Z" fill="#6A7282"/>
<path d="M290.623 1545.33L327.59 1500.19C331.824 1503.19 335.837 1506.49 339.598 1510.07L295.53 1552.55C293.767 1550.23 292.129 1547.82 290.623 1545.33Z" fill="#6A7282"/>
<path d="M311.251 1490.96C316.255 1493.08 321.051 1495.66 325.577 1498.66L289.343 1542.89C287.822 1540.32 286.446 1537.67 285.222 1534.94L311.251 1490.96Z" fill="#6A7282"/>
<path d="M313.852 1570.73L362.001 1543.54C363.425 1547.68 364.739 1552.05 366.027 1556.44C364.867 1558.88 363.291 1561.11 361.369 1563.02C357.821 1565.43 351.855 1563.4 349.85 1564.76C347.845 1566.12 345.337 1585 321.225 1589.88C310.868 1582.49 298.113 1576.87 282.656 1554.12C278.831 1548.49 254.84 1505.87 276.796 1490.96C285.485 1485.05 296.971 1485.48 308.803 1489.96L283.99 1532.02C282.065 1527.19 280.571 1522.19 279.523 1517.1C279.512 1516.91 279.46 1516.73 279.372 1516.56C279.283 1516.39 279.159 1516.25 279.009 1516.13C278.859 1516.02 278.686 1515.94 278.502 1515.9C278.318 1515.86 278.127 1515.86 277.943 1515.9C277.759 1515.94 277.586 1516.02 277.436 1516.13C277.285 1516.25 277.161 1516.39 277.071 1516.56C276.982 1516.72 276.93 1516.9 276.918 1517.09C276.906 1517.28 276.935 1517.47 277.003 1517.64C278.243 1523.47 280.048 1529.17 282.392 1534.65L279.894 1538.83C279.775 1539.12 279.765 1539.44 279.867 1539.74C279.968 1540.04 280.174 1540.29 280.446 1540.45C280.719 1540.61 281.039 1540.66 281.348 1540.6C281.657 1540.54 281.935 1540.37 282.129 1540.13L283.676 1537.53C284.862 1540.11 286.151 1542.62 287.586 1545.06L284.617 1548.66C284.442 1548.93 284.372 1549.25 284.423 1549.57C284.473 1549.89 284.639 1550.18 284.889 1550.38C285.139 1550.58 285.455 1550.69 285.776 1550.67C286.098 1550.65 286.403 1550.52 286.631 1550.29L288.917 1547.46C290.489 1549.78 292.061 1552.09 293.633 1554.4C292.453 1555.54 290.713 1556.69 291.844 1557.91C292.975 1559.13 294.057 1557.57 295.236 1556.43C297.238 1558.93 299.374 1561.32 301.635 1563.58L299.064 1565.33C298.836 1565.54 298.692 1565.83 298.657 1566.14C298.623 1566.45 298.7 1566.76 298.875 1567.02C299.05 1567.28 299.311 1567.46 299.612 1567.54C299.912 1567.63 300.232 1567.6 300.513 1567.46L303.47 1565.46C305.304 1567.22 307.206 1568.85 309.185 1570.44C307.771 1571.4 305.622 1572 306.436 1573.47C307.251 1574.95 309.305 1573.33 311.364 1572.15C316.061 1575.72 321.098 1578.82 326.401 1581.4C326.557 1581.5 326.732 1581.57 326.915 1581.59C327.098 1581.62 327.285 1581.61 327.463 1581.56C327.641 1581.51 327.806 1581.42 327.947 1581.3C328.089 1581.18 328.203 1581.03 328.283 1580.87C328.363 1580.7 328.406 1580.52 328.41 1580.33C328.415 1580.15 328.379 1579.96 328.307 1579.79C328.235 1579.62 328.127 1579.47 327.991 1579.34C327.855 1579.22 327.694 1579.12 327.519 1579.06C322.722 1576.7 318.147 1573.91 313.852 1570.73Z" fill="#6A7282"/>
<path d="M463.702 1938.32C465.929 1940.62 468.338 1942.73 470.907 1944.63L462.993 1952.12C459.686 1944.57 459.173 1940.51 463.702 1938.32Z" fill="#6A7282"/>
<path d="M474.847 1947.5C477.029 1949.05 479.227 1950.62 481.421 1952.3L469.287 1965.29C468.012 1962.42 466.603 1959.64 465.167 1956.7L474.847 1947.5Z" fill="#6A7282"/>
<path d="M460.432 2008.14L496.586 1970.86C511.361 2001.24 485.105 2019.91 460.432 2008.14Z" fill="#6A7282"/>
<path d="M463.916 1978.08C466.577 1979.51 468.804 1980.12 469.786 1979.52C472.438 1977.9 472.506 1974.43 471.204 1970.27L485.103 1955.41C488.654 1958.62 491.718 1962.33 494.2 1966.42L456.005 2005.78C452.242 2003.43 448.94 2000.41 446.264 1996.87L463.916 1978.08Z" fill="#6A7282"/>
<path d="M451.217 1969.81C454.057 1971.72 457.001 1973.85 459.658 1975.58L443.512 1992.73C441.042 1989.1 438.932 1985.95 437.086 1983.1L451.217 1969.81Z" fill="#6A7282"/>
<path d="M431.466 1959.66C433.853 1958.2 440.287 1962.17 447.212 1967.01L434.469 1979.06C431.114 1973.57 428.603 1969.46 425.848 1964.95C427.132 1962.65 429.094 1960.8 431.466 1959.66Z" fill="#6A7282"/>
<path d="M381.854 1920.37L434.204 1889.33C435.072 1891.82 435.801 1894.33 436.424 1896.9L390.533 1930.4C387.33 1927.34 384.425 1923.98 381.854 1920.37Z" fill="#6A7282"/>
<path d="M372.04 1900.43L429.232 1877.62C430.751 1880.6 432.101 1883.67 433.277 1886.8L380.547 1918.29C377.162 1912.62 374.314 1906.64 372.04 1900.43Z" fill="#6A7282"/>
<path d="M367.14 1882.99L423.531 1867.99C425.175 1870.38 426.69 1872.86 428.068 1875.41L371.258 1897.96C369.53 1893.08 368.153 1888.07 367.14 1882.99Z" fill="#6A7282"/>
<path d="M416.255 1858.7C418.277 1860.94 420.172 1863.28 421.93 1865.73L366.688 1880.47C365.779 1875.12 365.37 1869.7 365.464 1864.28L416.255 1858.7Z" fill="#6A7282"/>
<path d="M414.061 1856.36L365.576 1861.66C366.402 1849.06 370.73 1838.44 379.721 1832.95C402.37 1819.11 431.264 1858.53 434.829 1864.36C449.154 1887.81 449 1901.74 451.456 1914.23C437.054 1934.17 418.457 1928.89 416.733 1929.94C415.009 1931 414.054 1937.48 410.421 1939.7C407.895 1940.67 405.221 1941.19 402.518 1941.25C399.055 1938.27 395.62 1935.27 392.435 1932.26L437.058 1899.61C438.133 1904.81 438.746 1910.11 438.892 1915.42C438.897 1915.59 438.935 1915.76 439.005 1915.91C439.074 1916.07 439.173 1916.2 439.297 1916.32C439.42 1916.44 439.565 1916.53 439.723 1916.59C439.881 1916.65 440.049 1916.67 440.218 1916.67C440.387 1916.66 440.554 1916.63 440.708 1916.56C440.862 1916.49 441.001 1916.39 441.117 1916.26C441.232 1916.14 441.323 1916 441.383 1915.84C441.443 1915.68 441.471 1915.51 441.465 1915.34C441.288 1909.46 440.552 1903.6 439.267 1897.86C441.169 1896.44 443.537 1895.25 442.487 1893.88C441.436 1892.52 439.983 1894.14 438.59 1895.14C437.962 1892.68 437.255 1890.27 436.409 1887.87C438.425 1886.64 440.871 1885.88 439.899 1884.28C438.926 1882.69 437.043 1884.5 435.505 1885.44C434.367 1882.44 433.069 1879.5 431.618 1876.63C433.143 1876.03 434.995 1875.66 434.364 1874.15C433.734 1872.64 431.957 1873.73 430.405 1874.35C429.079 1871.88 427.647 1869.48 426.03 1867.19L429.647 1866.25C429.948 1866.14 430.196 1865.92 430.343 1865.63C430.491 1865.35 430.527 1865.01 430.445 1864.7C430.363 1864.39 430.169 1864.12 429.9 1863.94C429.631 1863.77 429.306 1863.7 428.987 1863.74L424.487 1864.96C422.854 1862.65 421.104 1860.44 419.247 1858.29C421.058 1858.1 423.57 1858.28 423.423 1856.54C423.372 1856.21 423.196 1855.9 422.93 1855.68C422.664 1855.47 422.326 1855.36 421.985 1855.38L417.149 1855.93C413.118 1851.55 408.673 1847.57 403.877 1844.05C403.745 1843.91 403.585 1843.81 403.409 1843.74C403.233 1843.68 403.045 1843.65 402.857 1843.66C402.669 1843.67 402.486 1843.73 402.321 1843.82C402.155 1843.91 402.012 1844.03 401.899 1844.18C401.787 1844.34 401.708 1844.51 401.669 1844.69C401.63 1844.88 401.632 1845.07 401.673 1845.25C401.715 1845.44 401.796 1845.61 401.911 1845.76C402.025 1845.91 402.171 1846.03 402.337 1846.12C406.548 1849.17 410.473 1852.6 414.061 1856.36Z" fill="#6A7282"/>
<path d="M772.882 2350.67C775.443 2352.59 778.156 2354.29 780.993 2355.76L774.365 2364.41C769.903 2357.47 768.755 2353.55 772.882 2350.67Z" fill="#6A7282"/>
<path d="M785.339 2357.97C787.737 2359.15 790.156 2360.36 792.589 2361.67L782.662 2376.41C780.95 2373.79 779.119 2371.27 777.235 2368.58L785.339 2357.97Z" fill="#6A7282"/>
<path d="M780.699 2420.13L810.499 2377.6C829.896 2405.26 806.924 2427.84 780.699 2420.13Z" fill="#6A7282"/>
<path d="M779.382 2389.89C782.236 2390.89 784.532 2391.13 785.406 2390.38C787.768 2388.36 787.287 2384.93 785.343 2381.03L796.715 2364.15C800.729 2366.76 804.342 2369.94 807.44 2373.59L775.955 2418.5C771.867 2416.78 768.13 2414.32 764.927 2411.25L779.382 2389.89Z" fill="#6A7282"/>
<path d="M765.535 2383.74C768.641 2385.17 771.886 2386.81 774.783 2388.1L761.554 2407.59C758.541 2404.4 755.959 2401.62 753.686 2399.1L765.535 2383.74Z" fill="#6A7282"/>
<path d="M744.427 2376.84C746.553 2375.02 753.535 2377.93 761.139 2381.61L750.462 2395.52C746.281 2390.63 743.15 2386.97 739.717 2382.96C740.621 2380.48 742.266 2378.35 744.427 2376.84Z" fill="#6A7282"/>
<path d="M689.223 2345.9L736.003 2306.97C737.254 2309.29 738.37 2311.65 739.392 2314.09L699.38 2354.43C695.733 2351.91 692.333 2349.05 689.223 2345.9Z" fill="#6A7282"/>
<path d="M676.379 2327.77L729.24 2296.19C731.212 2298.89 733.03 2301.71 734.688 2304.61L687.604 2344.05C683.364 2338.98 679.605 2333.53 676.379 2327.77Z" fill="#6A7282"/>
<path d="M668.781 2311.32L722.087 2287.58C724.089 2289.68 725.977 2291.89 727.743 2294.2L675.215 2325.45C672.736 2320.9 670.586 2316.18 668.781 2311.32Z" fill="#6A7282"/>
<path d="M713.434 2279.56C715.783 2281.45 718.025 2283.46 720.148 2285.6L667.934 2308.9C666.191 2303.76 664.93 2298.47 664.165 2293.1L713.434 2279.56Z" fill="#6A7282"/>
<path d="M710.898 2277.6L663.861 2290.5C662.684 2277.93 665.277 2266.76 673.285 2259.91C693.459 2242.67 728.226 2277.02 732.669 2282.21C750.523 2303.1 752.576 2316.88 756.977 2328.82C745.913 2350.79 726.714 2348.52 725.178 2349.83C723.643 2351.15 723.725 2357.7 720.489 2360.47C718.148 2361.82 715.591 2362.76 712.931 2363.25C709.04 2360.85 705.173 2358.43 701.552 2355.97L740.447 2316.66C742.332 2321.63 743.775 2326.76 744.76 2331.99C744.792 2332.15 744.856 2332.31 744.949 2332.45C745.042 2332.59 745.162 2332.72 745.302 2332.81C745.442 2332.9 745.599 2332.97 745.765 2333.01C745.93 2333.04 746.101 2333.04 746.267 2333.01C746.433 2332.98 746.591 2332.91 746.732 2332.82C746.873 2332.73 746.995 2332.61 747.09 2332.47C747.185 2332.33 747.251 2332.17 747.285 2332C747.319 2331.84 747.32 2331.67 747.288 2331.5C746.182 2325.72 744.529 2320.05 742.351 2314.58C744.005 2312.88 746.154 2311.33 744.902 2310.15C743.649 2308.97 742.47 2310.8 741.252 2312.01C740.243 2309.68 739.164 2307.41 737.95 2305.18C739.745 2303.64 742.039 2302.5 740.827 2301.08C739.615 2299.67 738.042 2301.75 736.672 2302.92C735.073 2300.13 733.326 2297.44 731.44 2294.84C732.85 2294 734.621 2293.34 733.759 2291.95C732.898 2290.56 731.315 2291.92 729.882 2292.78C728.182 2290.55 726.388 2288.4 724.428 2286.4L727.852 2284.9C728.131 2284.74 728.341 2284.48 728.441 2284.18C728.541 2283.87 728.525 2283.54 728.394 2283.24C728.264 2282.95 728.03 2282.71 727.736 2282.58C727.442 2282.45 727.11 2282.43 726.803 2282.53L722.553 2284.44C720.573 2282.41 718.496 2280.51 716.324 2278.69C718.081 2278.21 720.589 2277.99 720.17 2276.3C720.066 2275.97 719.844 2275.7 719.547 2275.53C719.25 2275.36 718.9 2275.31 718.566 2275.38L713.879 2276.69C709.205 2273 704.186 2269.78 698.893 2267.05C698.741 2266.94 698.567 2266.86 698.383 2266.83C698.198 2266.79 698.008 2266.79 697.824 2266.83C697.641 2266.87 697.469 2266.96 697.32 2267.07C697.171 2267.19 697.049 2267.33 696.961 2267.5C696.874 2267.67 696.825 2267.85 696.815 2268.04C696.806 2268.23 696.837 2268.42 696.908 2268.59C696.978 2268.76 697.085 2268.92 697.222 2269.05C697.358 2269.18 697.522 2269.28 697.7 2269.34C702.341 2271.69 706.758 2274.45 710.898 2277.6Z" fill="#6A7282"/>
<path d="M211.705 1520.32C213.848 1522.69 216.18 1524.88 218.678 1526.88L210.501 1534.08C207.467 1526.41 207.1 1522.34 211.705 1520.32Z" fill="#6A7282"/>
<path d="M222.514 1529.89C224.639 1531.51 226.779 1533.16 228.911 1534.92L216.32 1547.46C215.148 1544.56 213.84 1541.73 212.51 1538.73L222.514 1529.89Z" fill="#6A7282"/>
<path d="M205.936 1589.97L243.402 1554.01C257.08 1584.9 230.172 1602.62 205.936 1589.97Z" fill="#6A7282"/>
<path d="M210.494 1560.05C213.102 1561.58 215.307 1562.27 216.309 1561.7C219.017 1560.18 219.209 1556.72 218.057 1552.51L232.479 1538.16C235.913 1541.49 238.843 1545.31 241.176 1549.49L201.596 1587.46C197.92 1584.97 194.729 1581.84 192.181 1578.21L210.494 1560.05Z" fill="#6A7282"/>
<path d="M198.099 1551.34C200.869 1553.34 203.735 1555.58 206.329 1557.4L189.579 1573.96C187.24 1570.25 185.245 1567.02 183.502 1564.12L198.099 1551.34Z" fill="#6A7282"/>
<path d="M178.725 1540.49C181.162 1539.11 187.45 1543.31 194.198 1548.4L181.031 1559.98C177.875 1554.37 175.512 1550.18 172.921 1545.57C174.286 1543.32 176.313 1541.54 178.725 1540.49Z" fill="#6A7282"/>
<path d="M130.552 1499.44L183.98 1470.3C184.757 1472.82 185.396 1475.35 185.927 1477.94L138.866 1509.78C135.775 1506.6 132.991 1503.14 130.552 1499.44Z" fill="#6A7282"/>
<path d="M121.458 1479.17L179.431 1458.42C180.841 1461.45 182.081 1464.56 183.144 1467.74L129.32 1497.32C126.14 1491.53 123.508 1485.45 121.458 1479.17Z" fill="#6A7282"/>
<path d="M117.185 1461.57L174.078 1448.59C175.635 1451.04 177.06 1453.57 178.346 1456.17L120.765 1476.67C119.213 1471.73 118.016 1466.68 117.185 1461.57Z" fill="#6A7282"/>
<path d="M167.139 1439.05C169.08 1441.35 170.889 1443.76 172.559 1446.27L116.824 1459.02C116.108 1453.65 115.893 1448.22 116.181 1442.8L167.139 1439.05Z" fill="#6A7282"/>
<path d="M165.03 1436.63L116.387 1440.19C117.664 1427.63 122.369 1417.17 131.551 1412C154.681 1398.98 182.144 1439.41 185.498 1445.37C198.974 1469.31 198.321 1483.23 200.329 1495.8C185.222 1515.22 166.826 1509.27 165.065 1510.26C163.305 1511.25 162.118 1517.7 158.408 1519.79C155.849 1520.66 153.158 1521.09 150.454 1521.05C147.101 1517.95 143.775 1514.83 140.7 1511.71L186.464 1480.67C187.352 1485.91 187.775 1491.22 187.73 1496.54C187.729 1496.71 187.761 1496.88 187.825 1497.04C187.889 1497.19 187.983 1497.33 188.102 1497.45C188.221 1497.57 188.363 1497.67 188.519 1497.74C188.675 1497.8 188.842 1497.84 189.011 1497.84C189.18 1497.84 189.348 1497.8 189.504 1497.74C189.661 1497.68 189.803 1497.58 189.923 1497.46C190.043 1497.34 190.139 1497.2 190.204 1497.05C190.27 1496.89 190.304 1496.72 190.305 1496.55C190.339 1490.67 189.813 1484.79 188.734 1479C190.686 1477.65 193.095 1476.55 192.094 1475.15C191.093 1473.75 189.583 1475.31 188.154 1476.26C187.615 1473.78 186.995 1471.35 186.236 1468.92C188.294 1467.76 190.766 1467.09 189.851 1465.46C188.937 1463.84 186.99 1465.57 185.419 1466.46C184.389 1463.42 183.198 1460.43 181.85 1457.52C183.395 1456.97 185.259 1456.67 184.683 1455.14C184.107 1453.61 182.292 1454.63 180.72 1455.19C179.483 1452.68 178.138 1450.23 176.604 1447.88L180.252 1447.08C180.557 1446.97 180.813 1446.76 180.97 1446.48C181.128 1446.2 181.176 1445.87 181.105 1445.55C181.034 1445.24 180.85 1444.96 180.587 1444.78C180.325 1444.59 180.002 1444.51 179.682 1444.54L175.142 1445.6C173.592 1443.23 171.922 1440.96 170.144 1438.75C171.961 1438.62 174.465 1438.88 174.379 1437.15C174.341 1436.81 174.176 1436.5 173.918 1436.27C173.659 1436.05 173.326 1435.93 172.984 1435.94L168.132 1436.31C164.26 1431.79 159.96 1427.66 155.294 1423.96C155.167 1423.82 155.011 1423.71 154.837 1423.64C154.664 1423.57 154.476 1423.53 154.288 1423.54C154.1 1423.54 153.915 1423.59 153.747 1423.67C153.578 1423.76 153.43 1423.88 153.312 1424.03C153.194 1424.17 153.11 1424.34 153.064 1424.53C153.019 1424.71 153.013 1424.9 153.048 1425.08C153.083 1425.27 153.158 1425.44 153.267 1425.6C153.376 1425.75 153.518 1425.88 153.681 1425.97C157.78 1429.17 161.579 1432.74 165.03 1436.63Z" fill="#6A7282"/>
</svg>
