<svg width="1529" height="1420" viewBox="0 0 1529 1420" fill="none" xmlns="http://www.w3.org/2000/svg">
<path d="M1267.91 630.551C1262.52 628.558 1263.82 623.108 1265.87 616.883L1274.5 623.591C1272.1 625.714 1269.9 628.043 1267.91 630.551Z" fill="#6A7282"/>
<path d="M1267.48 612.068C1268.55 609.136 1269.8 606.008 1270.75 603.119L1284.08 614.871C1282.09 616.772 1280.07 618.52 1278.02 620.254L1267.48 612.068Z" fill="#6A7282"/>
<path d="M1297.42 594.917L1257.68 561.339C1281.09 547.338 1309.24 563.069 1297.42 594.917Z" fill="#6A7282"/>
<path d="M1287.53 611.466L1272.26 598.013C1273.15 593.749 1272.86 590.361 1269.95 588.95C1268.81 588.394 1266.76 589.266 1264.25 590.951L1244.86 573.947C1247.13 570.149 1250.08 566.801 1253.56 564.071L1295.39 599.528C1293.38 603.876 1290.73 607.899 1287.53 611.466Z" fill="#6A7282"/>
<path d="M1252.45 600.254L1237.08 588.345C1238.56 585.297 1240.44 581.994 1242.58 578.159L1260.28 593.654C1257.75 595.742 1255.06 598.068 1252.45 600.254Z" fill="#6A7282"/>
<path d="M1233.68 612.391C1231.18 611.496 1229.04 609.827 1227.56 607.627C1229.85 602.901 1231.95 598.567 1234.76 592.778L1248.61 603.538C1242.16 609.078 1236.19 613.612 1233.68 612.391Z" fill="#6A7282"/>
<path d="M1243.2 682.127L1188.1 656.295C1190.31 652.454 1192.87 648.83 1195.76 645.472L1244.67 674.408C1244.31 676.998 1243.82 679.562 1243.2 682.127Z" fill="#6A7282"/>
<path d="M1180.27 677.058C1181.92 670.702 1184.16 664.514 1186.96 658.574L1242.56 684.65C1241.7 687.874 1240.66 691.047 1239.44 694.154L1180.27 677.058Z" fill="#6A7282"/>
<path d="M1234.64 704.401L1177.06 694.917C1177.56 689.751 1178.41 684.627 1179.63 679.582L1238.44 696.571C1237.31 699.247 1236.05 701.86 1234.64 704.401Z" fill="#6A7282"/>
<path d="M1177.21 713.71C1176.59 708.322 1176.47 702.888 1176.86 697.478L1233.28 706.781C1231.76 709.395 1230.1 711.921 1228.3 714.347L1177.21 713.71Z" fill="#6A7282"/>
<path d="M1245.05 671.624L1197.48 643.436C1200.36 640.135 1203.49 636.817 1206.64 633.512C1209.34 633.315 1212.05 633.579 1214.66 634.291C1218.52 636.163 1219.73 642.348 1221.91 643.406C1224.09 644.464 1241.72 637.191 1257.98 655.65C1256.74 668.314 1258.24 682.169 1246.24 706.917C1243.27 713.041 1218.31 755.098 1194.43 743.514C1184.97 738.929 1179.61 728.763 1177.58 716.277L1226.37 716.9C1223.14 720.968 1219.56 724.746 1215.68 728.19C1215.52 728.295 1215.4 728.431 1215.3 728.589C1215.2 728.747 1215.14 728.924 1215.12 729.107C1215.1 729.291 1215.12 729.477 1215.17 729.653C1215.23 729.83 1215.32 729.992 1215.44 730.131C1215.56 730.269 1215.71 730.379 1215.88 730.455C1216.05 730.531 1216.23 730.57 1216.42 730.57C1216.6 730.57 1216.79 730.531 1216.95 730.455C1217.12 730.379 1217.27 730.268 1217.39 730.13C1221.83 726.123 1225.88 721.699 1229.47 716.918L1234.35 716.971C1234.66 716.928 1234.95 716.775 1235.15 716.538C1235.36 716.301 1235.48 715.997 1235.48 715.683C1235.48 715.368 1235.37 715.063 1235.16 714.824C1234.96 714.586 1234.67 714.43 1234.36 714.385L1231.33 714.366C1232.97 712.053 1234.51 709.657 1235.9 707.222L1240.51 707.973C1240.85 708.026 1241.19 707.943 1241.46 707.743C1241.74 707.543 1241.92 707.242 1241.98 706.906C1242.03 706.569 1241.95 706.226 1241.75 705.951C1241.55 705.676 1241.25 705.491 1240.91 705.438L1237.23 704.829C1238.45 702.312 1239.67 699.795 1240.88 697.307C1242.46 697.76 1244.33 698.669 1244.81 697.106C1245.29 695.544 1243.43 695.33 1241.85 694.876C1243.02 691.894 1244.02 688.852 1244.86 685.763L1247.65 687.12C1247.95 687.211 1248.27 687.193 1248.56 687.068C1248.84 686.944 1249.07 686.721 1249.21 686.441C1249.35 686.161 1249.38 685.841 1249.3 685.54C1249.22 685.239 1249.04 684.976 1248.78 684.799L1245.56 683.239C1246.16 680.799 1246.64 678.305 1247.03 675.798C1248.5 676.684 1250.16 678.11 1251.02 676.696C1251.88 675.281 1249.47 674.254 1247.43 673.055C1248.17 667.213 1248.33 661.312 1247.93 655.437C1247.95 655.254 1247.92 655.069 1247.87 654.895C1247.81 654.72 1247.71 654.561 1247.58 654.427C1247.46 654.294 1247.3 654.189 1247.13 654.121C1246.96 654.052 1246.78 654.022 1246.59 654.031C1246.41 654.04 1246.23 654.089 1246.07 654.175C1245.9 654.26 1245.76 654.38 1245.65 654.525C1245.54 654.671 1245.46 654.84 1245.42 655.019C1245.38 655.198 1245.37 655.385 1245.41 655.565C1245.77 660.918 1245.65 666.292 1245.05 671.624Z" fill="#6A7282"/>
<path d="M1384.86 151.204C1379.15 150.538 1379.13 144.935 1379.65 138.402L1389.62 142.887C1387.79 145.515 1386.2 148.298 1384.86 151.204Z" fill="#6A7282"/>
<path d="M1380.08 133.345C1380.44 130.242 1380.91 126.909 1381.15 123.877L1396.88 132.155C1395.39 134.472 1393.84 136.647 1392.25 138.816L1380.08 133.345Z" fill="#6A7282"/>
<path d="M1405.14 109.618L1358.6 86.3542C1378.05 67.2302 1409.12 75.8803 1405.14 109.618Z" fill="#6A7282"/>
<path d="M1399.43 128.032L1381.42 118.558C1381.28 114.204 1380.2 110.979 1377.04 110.294C1375.79 110.024 1374.01 111.354 1371.97 113.583L1349.12 101.628C1350.43 97.4025 1352.5 93.454 1355.24 89.9806L1404.26 114.577C1403.32 119.277 1401.7 123.812 1399.43 128.032Z" fill="#6A7282"/>
<path d="M1362.69 125.405L1344.95 117.454C1345.67 114.143 1346.72 110.49 1347.89 106.261L1368.75 117.146C1366.78 119.772 1364.72 122.665 1362.69 125.405Z" fill="#6A7282"/>
<path d="M1347.31 141.626C1344.67 141.344 1342.2 140.228 1340.24 138.439C1341.36 133.306 1342.38 128.598 1343.74 122.311L1359.74 129.502C1354.77 136.407 1350.04 142.219 1347.31 141.626Z" fill="#6A7282"/>
<path d="M1373.01 207.151L1313.36 195.037C1314.61 190.784 1316.25 186.657 1318.26 182.711L1372.61 199.305C1372.87 201.907 1373.01 204.512 1373.01 207.151Z" fill="#6A7282"/>
<path d="M1310.65 217.061C1310.76 210.495 1311.47 203.954 1312.79 197.521L1372.98 209.754C1372.9 213.091 1372.64 216.42 1372.19 219.727L1310.65 217.061Z" fill="#6A7282"/>
<path d="M1369.94 230.815L1311.75 235.171C1311.01 230.035 1310.63 224.852 1310.63 219.663L1371.78 222.31C1371.32 225.176 1370.7 228.015 1369.94 230.815Z" fill="#6A7282"/>
<path d="M1316.32 253.401C1314.44 248.31 1313.05 243.057 1312.15 237.708L1369.18 233.449C1368.32 236.347 1367.3 239.194 1366.12 241.976L1316.32 253.401Z" fill="#6A7282"/>
<path d="M1372.33 196.509L1319.45 180.329C1321.47 176.442 1323.73 172.479 1326.02 168.524C1328.59 167.697 1331.29 167.314 1333.99 167.392C1338.18 168.301 1340.82 174.026 1343.19 174.54C1345.56 175.054 1360.97 163.832 1381.13 177.937C1382.91 190.536 1387.63 203.646 1381.8 230.527C1380.36 237.178 1366.01 283.934 1340.07 278.306C1329.81 276.078 1322.2 267.462 1317.29 255.806L1364.84 244.912C1362.67 249.626 1360.08 254.141 1357.11 258.405C1356.99 258.543 1356.9 258.705 1356.84 258.881C1356.79 259.057 1356.77 259.243 1356.79 259.427C1356.81 259.61 1356.87 259.787 1356.97 259.945C1357.06 260.104 1357.19 260.24 1357.34 260.346C1357.49 260.451 1357.67 260.523 1357.85 260.557C1358.03 260.591 1358.22 260.586 1358.4 260.542C1358.58 260.499 1358.74 260.418 1358.89 260.304C1359.04 260.191 1359.16 260.047 1359.24 259.884C1362.61 254.944 1365.5 249.692 1367.86 244.199L1372.62 243.1C1372.91 242.985 1373.15 242.768 1373.3 242.489C1373.44 242.21 1373.48 241.888 1373.41 241.582C1373.34 241.275 1373.16 241.006 1372.9 240.822C1372.64 240.639 1372.33 240.555 1372.02 240.585L1369.07 241.28C1370.12 238.646 1371.05 235.954 1371.82 233.26L1376.48 232.903C1376.82 232.875 1377.14 232.714 1377.36 232.455C1377.58 232.195 1377.68 231.859 1377.66 231.52C1377.63 231.181 1377.47 230.867 1377.21 230.646C1376.95 230.426 1376.61 230.318 1376.27 230.345L1372.56 230.62C1373.15 227.887 1373.74 225.153 1374.33 222.45C1375.97 222.519 1378 222.961 1378.1 221.328C1378.2 219.696 1376.34 219.928 1374.7 219.859C1375.13 216.687 1375.39 213.494 1375.47 210.294L1378.51 210.954C1378.82 210.972 1379.13 210.879 1379.38 210.69C1379.62 210.502 1379.8 210.232 1379.86 209.927C1379.93 209.623 1379.88 209.305 1379.74 209.031C1379.59 208.757 1379.35 208.545 1379.06 208.432L1375.56 207.675C1375.57 205.163 1375.45 202.625 1375.24 200.098C1376.87 200.612 1378.82 201.607 1379.32 200.03C1379.82 198.453 1377.24 198.021 1374.98 197.338C1374.32 191.487 1373.09 185.713 1371.31 180.1C1371.28 179.917 1371.22 179.742 1371.12 179.587C1371.02 179.431 1370.89 179.299 1370.74 179.199C1370.58 179.099 1370.41 179.033 1370.22 179.007C1370.04 178.981 1369.86 178.994 1369.68 179.047C1369.5 179.099 1369.34 179.189 1369.2 179.311C1369.06 179.432 1368.95 179.582 1368.88 179.75C1368.8 179.918 1368.77 180.101 1368.77 180.285C1368.77 180.469 1368.81 180.65 1368.89 180.816C1370.5 185.935 1371.65 191.187 1372.33 196.509Z" fill="#6A7282"/>
<path d="M1278.67 760.852C1279.42 757.744 1279.92 754.581 1280.15 751.393L1290.7 754.109C1286.08 760.942 1282.92 763.542 1278.67 760.852Z" fill="#6A7282"/>
<path d="M1280.48 746.526C1280.62 743.857 1280.76 741.188 1281.01 738.434L1298.47 741.757C1296.73 744.364 1295.13 747.041 1293.41 749.829L1280.48 746.526Z" fill="#6A7282"/>
<path d="M1339.44 726.33L1288.5 715.618C1306.41 686.956 1336.14 699.325 1339.44 726.33Z" fill="#6A7282"/>
<path d="M1312.15 739.468C1311.95 736.425 1311.26 734.246 1310.23 733.737C1307.45 732.36 1304.48 734.153 1301.66 737.475L1281.67 733.664C1282.49 728.937 1283.99 724.356 1286.14 720.063L1339.8 731.359C1339.83 735.797 1339.04 740.202 1337.47 744.353L1312.15 739.468Z" fill="#6A7282"/>
<path d="M1311.96 754.592C1312.12 751.033 1312.3 747.516 1312.33 744.374L1335.45 748.866C1333.69 752.919 1332.15 756.387 1330.74 759.438L1311.96 754.592Z" fill="#6A7282"/>
<path d="M1313.92 776.712C1311.42 775.473 1311.34 767.912 1311.73 759.473L1328.71 763.841C1325.86 769.608 1323.72 773.927 1321.4 778.636C1318.76 778.804 1316.15 778.13 1313.92 776.712Z" fill="#6A7282"/>
<path d="M1307.2 839.639L1253 811.957C1254.63 809.92 1256.37 807.938 1258.2 806.067L1311.06 826.917C1310.18 831.269 1308.88 835.529 1307.2 839.639Z" fill="#6A7282"/>
<path d="M1295.59 858.583L1245.79 822.332C1247.5 819.463 1249.37 816.693 1251.39 814.035L1306.09 841.965C1303.11 847.818 1299.6 853.382 1295.59 858.583Z" fill="#6A7282"/>
<path d="M1283.46 872.04L1240.64 832.406C1241.79 829.729 1243.09 827.116 1244.51 824.576L1293.92 860.565C1290.71 864.635 1287.22 868.469 1283.46 872.04Z" fill="#6A7282"/>
<path d="M1236.69 843.489C1237.5 840.586 1238.47 837.732 1239.6 834.94L1281.55 873.8C1277.52 877.414 1273.16 880.646 1268.53 883.452L1236.69 843.489Z" fill="#6A7282"/>
<path d="M1235.89 846.592L1266.26 884.756C1255.15 890.813 1243.86 892.826 1234.42 888.159C1210.62 876.401 1228.53 830.893 1231.55 824.791C1243.73 800.131 1255.59 792.819 1264.84 784.074C1289.39 785.598 1294.86 804.142 1296.67 805.037C1298.48 805.932 1304.46 803.305 1308.28 805.191C1310.44 806.811 1312.31 808.791 1313.81 811.044C1313.13 815.565 1312.43 820.072 1311.59 824.371L1260.22 803.945C1264.06 800.223 1268.22 796.849 1272.65 793.864C1272.82 793.782 1272.97 793.666 1273.08 793.523C1273.2 793.38 1273.29 793.213 1273.33 793.035C1273.38 792.856 1273.39 792.669 1273.36 792.487C1273.33 792.304 1273.27 792.13 1273.16 791.975C1273.06 791.821 1272.93 791.69 1272.77 791.591C1272.61 791.492 1272.44 791.428 1272.26 791.402C1272.07 791.376 1271.89 791.39 1271.71 791.442C1271.53 791.494 1271.37 791.583 1271.23 791.703C1266.34 795.005 1261.78 798.764 1257.6 802.929C1255.4 802.049 1253.18 800.573 1252.52 802.327C1251.87 804.082 1254.08 804.307 1255.68 804.925C1253.94 806.768 1252.26 808.681 1250.7 810.648C1248.58 809.601 1246.62 807.97 1245.8 809.614C1244.99 811.258 1247.51 811.914 1249.11 812.74C1247.19 815.295 1245.4 817.953 1243.76 820.702C1242.43 819.735 1241.12 818.393 1240.18 819.732C1239.24 821.071 1241.12 821.966 1242.48 822.946C1241.1 825.385 1239.83 827.879 1238.76 830.469L1236.02 827.939C1235.9 827.823 1235.75 827.733 1235.6 827.674C1235.44 827.614 1235.27 827.586 1235.1 827.592C1234.76 827.602 1234.44 827.748 1234.21 827.996C1233.98 828.244 1233.85 828.574 1233.86 828.914C1233.87 829.255 1234.02 829.577 1234.27 829.809L1237.69 832.99C1236.61 835.581 1235.67 838.268 1234.86 840.954C1233.71 839.556 1232.54 837.309 1231.14 838.386C1230.88 838.607 1230.72 838.916 1230.68 839.251C1230.65 839.586 1230.74 839.923 1230.94 840.194L1233.99 843.988C1232.42 849.78 1231.43 855.711 1231.02 861.696C1230.98 861.88 1230.98 862.07 1231.02 862.255C1231.05 862.439 1231.13 862.614 1231.24 862.766C1231.35 862.918 1231.5 863.044 1231.66 863.135C1231.83 863.227 1232.01 863.282 1232.2 863.296C1232.38 863.31 1232.57 863.284 1232.75 863.218C1232.93 863.153 1233.09 863.05 1233.22 862.917C1233.35 862.783 1233.46 862.623 1233.52 862.446C1233.59 862.269 1233.61 862.081 1233.6 861.893C1233.9 856.734 1234.66 851.613 1235.89 846.592Z" fill="#6A7282"/>
<path d="M690.979 1270.02C693.812 1268.54 696.52 1266.83 699.077 1264.91L703.976 1274.64C695.788 1275.66 691.753 1274.99 690.979 1270.02Z" fill="#6A7282"/>
<path d="M702.954 1261.95C705.056 1260.3 707.158 1258.65 709.396 1257.03L718.387 1272.36C715.279 1272.77 712.212 1273.32 708.978 1273.86L702.954 1261.95Z" fill="#6A7282"/>
<path d="M756.97 1293.05L731.505 1247.65C764.869 1242.26 775.129 1272.79 756.97 1293.05Z" fill="#6A7282"/>
<path d="M729.114 1281.15C731.277 1279 732.462 1277.05 732.167 1275.94C731.369 1272.93 728.067 1271.88 723.71 1271.94L713.42 1254.38C717.52 1251.89 721.959 1250.01 726.6 1248.79L753.419 1296.63C750.099 1299.57 746.263 1301.88 742.104 1303.43L729.114 1281.15Z" fill="#6A7282"/>
<path d="M717.602 1290.96C720.389 1288.74 723.155 1286.56 725.537 1284.51L737.376 1304.88C733.166 1306.22 729.541 1307.34 726.321 1308.29L717.602 1290.96Z" fill="#6A7282"/>
<path d="M702.245 1307C701.527 1304.3 707.168 1299.26 713.778 1294L721.666 1309.66C715.448 1311.31 710.791 1312.55 705.715 1313.89C703.856 1312.02 702.641 1309.61 702.245 1307Z" fill="#6A7282"/>
<path d="M650.448 1343.36L635.611 1284.34C638.218 1284.23 640.856 1284.23 643.467 1284.37L662.566 1337.89C658.707 1340.09 654.65 1341.92 650.448 1343.36Z" fill="#6A7282"/>
<path d="M628.542 1347.09L623.057 1285.74C626.339 1285.14 629.652 1284.72 632.982 1284.49L647.963 1344.05C641.597 1345.67 635.095 1346.68 628.542 1347.09Z" fill="#6A7282"/>
<path d="M610.43 1346.82L612.083 1288.5C614.854 1287.6 617.672 1286.85 620.524 1286.25L625.949 1347.13C620.775 1347.4 615.589 1347.29 610.43 1346.82Z" fill="#6A7282"/>
<path d="M601.139 1292.82C603.854 1291.51 606.641 1290.36 609.487 1289.38L607.847 1346.54C602.473 1345.88 597.171 1344.73 592.011 1343.09L601.139 1292.82Z" fill="#6A7282"/>
<path d="M598.272 1294.25L589.533 1342.24C577.663 1337.86 568.716 1330.69 566.012 1320.51C559.2 1294.85 605.248 1278.38 611.826 1276.63C638.411 1269.57 651.724 1273.69 664.392 1274.9C679.407 1294.38 669.045 1310.7 669.563 1312.66C670.082 1314.61 675.995 1317.38 677.088 1321.5C677.294 1324.19 677.035 1326.9 676.323 1329.51C672.476 1331.98 668.622 1334.42 664.831 1336.62L646.393 1284.5C651.722 1284.94 657 1285.85 662.167 1287.22C662.338 1287.29 662.522 1287.33 662.707 1287.32C662.892 1287.32 663.073 1287.27 663.239 1287.19C663.406 1287.11 663.553 1286.99 663.671 1286.85C663.789 1286.71 663.875 1286.54 663.925 1286.36C663.974 1286.19 663.984 1286 663.956 1285.82C663.927 1285.63 663.86 1285.46 663.759 1285.3C663.657 1285.15 663.524 1285.02 663.368 1284.92C663.212 1284.82 663.037 1284.75 662.854 1284.73C657.151 1283.22 651.319 1282.26 645.435 1281.86C644.649 1279.62 644.301 1276.98 642.547 1277.64C640.792 1278.3 642.078 1280.11 642.667 1281.73C640.132 1281.63 637.591 1281.63 635.083 1281.75C634.477 1279.46 634.409 1276.91 632.637 1277.38C630.865 1277.85 632.029 1280.18 632.462 1281.93C629.269 1282.16 626.092 1282.56 622.943 1283.14C622.798 1281.5 622.945 1279.63 621.319 1279.8C619.693 1279.98 620.257 1281.98 620.41 1283.65C617.666 1284.22 614.955 1284.9 612.299 1285.8L612.403 1282.08C612.409 1281.91 612.382 1281.74 612.323 1281.58C612.264 1281.42 612.175 1281.28 612.06 1281.16C611.828 1280.91 611.507 1280.76 611.166 1280.75C610.826 1280.74 610.495 1280.86 610.246 1281.09C609.997 1281.32 609.851 1281.64 609.839 1281.98L609.696 1286.65C607.04 1287.55 604.394 1288.61 601.84 1289.77C602.139 1287.99 603.054 1285.62 601.323 1285.28C600.989 1285.23 600.649 1285.31 600.372 1285.5C600.095 1285.69 599.902 1285.99 599.83 1286.31L598.98 1291.11C593.591 1293.74 588.474 1296.9 583.701 1300.53C583.534 1300.62 583.389 1300.75 583.275 1300.9C583.161 1301.05 583.08 1301.22 583.039 1301.4C582.998 1301.59 582.997 1301.78 583.037 1301.96C583.076 1302.14 583.155 1302.32 583.268 1302.47C583.381 1302.62 583.525 1302.74 583.69 1302.83C583.856 1302.92 584.039 1302.98 584.227 1302.99C584.415 1303 584.603 1302.97 584.779 1302.91C584.955 1302.84 585.114 1302.73 585.246 1302.6C589.327 1299.43 593.687 1296.64 598.272 1294.25Z" fill="#6A7282"/>
<path d="M969.62 1061.64C965.248 1057.91 968.395 1053.23 972.476 1048.14L978.23 1057.43C975.245 1058.58 972.364 1059.99 969.62 1061.64Z" fill="#6A7282"/>
<path d="M975.672 1044.2C977.708 1041.83 979.967 1039.34 981.894 1036.94L990.262 1052.62C987.729 1053.7 985.2 1054.65 982.672 1055.56L975.672 1044.2Z" fill="#6A7282"/>
<path d="M1009.73 1038.63L984.343 993.189C1011.13 988.323 1031.96 1012.95 1009.73 1038.63Z" fill="#6A7282"/>
<path d="M994.685 1050.64L985.097 1032.69C987.429 1029.01 988.344 1025.73 986.115 1023.39C985.236 1022.47 983.013 1022.57 980.05 1023.29L967.875 1000.55C971.333 997.792 975.266 995.69 979.479 994.345L1006.21 1042.24C1002.81 1045.6 998.923 1048.43 994.685 1050.64Z" fill="#6A7282"/>
<path d="M965.647 1027.95L955.454 1011.39C957.907 1009.06 960.802 1006.64 964.169 1003.78L975.316 1024.49C972.28 1025.5 968.975 1026.71 965.647 1027.95Z" fill="#6A7282"/>
<path d="M943.924 1032.63C941.896 1030.93 940.466 1028.62 939.841 1026.05C943.667 1022.4 947.133 1019.1 951.814 1014.64L961.013 1029.58C953.073 1032.46 945.853 1034.66 943.924 1032.63Z" fill="#6A7282"/>
<path d="M928.404 1101.28L885.847 1057.78C889.269 1054.94 892.951 1052.44 896.845 1050.31L932.48 1094.57C931.237 1096.87 929.863 1099.12 928.404 1101.28Z" fill="#6A7282"/>
<path d="M871.217 1074.5C874.992 1069.13 879.257 1064.12 883.958 1059.53L926.901 1103.45C924.964 1106.16 922.875 1108.77 920.643 1111.25L871.217 1074.5Z" fill="#6A7282"/>
<path d="M912.559 1119.17L861.979 1090.08C864.247 1085.41 866.847 1080.92 869.759 1076.62L918.883 1113.14C916.884 1115.26 914.773 1117.27 912.559 1119.17Z" fill="#6A7282"/>
<path d="M855.526 1107.73C856.802 1102.45 858.561 1097.3 860.781 1092.34L910.364 1120.83C908.034 1122.74 905.598 1124.51 903.068 1126.15L855.526 1107.73Z" fill="#6A7282"/>
<path d="M933.816 1092.09L899.118 1049.04C902.972 1046.96 907.066 1044.95 911.181 1042.96C913.786 1043.7 916.241 1044.89 918.438 1046.48C921.396 1049.58 920.366 1055.8 922.038 1057.56C923.71 1059.31 942.74 1058.7 951.502 1081.69C945.904 1093.11 942.454 1106.62 922.537 1125.59C917.609 1130.28 879.492 1160.92 861.185 1141.7C853.94 1134.1 852.481 1122.69 854.959 1110.29L900.362 1128.04C895.908 1130.73 891.225 1133.02 886.368 1134.88C886.185 1134.93 886.012 1135.01 885.863 1135.12C885.713 1135.24 885.591 1135.38 885.503 1135.55C885.416 1135.72 885.365 1135.9 885.355 1136.09C885.345 1136.28 885.376 1136.46 885.446 1136.64C885.515 1136.81 885.622 1136.97 885.758 1137.1C885.894 1137.23 886.057 1137.33 886.235 1137.39C886.414 1137.45 886.603 1137.47 886.79 1137.46C886.978 1137.44 887.159 1137.38 887.321 1137.28C892.914 1135.11 898.282 1132.4 903.346 1129.19L907.875 1130.97C908.182 1131.04 908.504 1130.99 908.782 1130.84C909.059 1130.7 909.274 1130.45 909.385 1130.16C909.497 1129.86 909.498 1129.54 909.389 1129.24C909.28 1128.95 909.068 1128.7 908.791 1128.55L905.982 1127.45C908.329 1125.86 910.591 1124.17 912.767 1122.36L916.799 1124.7C917.094 1124.83 917.427 1124.84 917.732 1124.74C918.038 1124.64 918.296 1124.43 918.455 1124.15C918.615 1123.87 918.665 1123.54 918.597 1123.23C918.529 1122.91 918.346 1122.63 918.085 1122.44L914.832 1120.61C916.858 1118.68 918.883 1116.75 920.908 1114.82C922.226 1115.8 923.639 1117.33 924.661 1116.01C925.682 1114.69 923.965 1113.88 922.648 1112.9C924.784 1110.52 926.79 1108.02 928.655 1105.42L930.799 1107.67C931.046 1107.86 931.353 1107.96 931.663 1107.94C931.974 1107.92 932.269 1107.8 932.495 1107.58C932.72 1107.37 932.862 1107.08 932.893 1106.77C932.925 1106.46 932.844 1106.15 932.667 1105.89L930.202 1103.31C931.638 1101.21 932.943 1099.06 934.184 1096.85C935.363 1098.09 936.303 1100.11 937.625 1099.07C938.948 1098.02 937.012 1096.26 935.518 1094.42C938.27 1089.2 940.501 1083.73 942.181 1078.07C942.254 1077.9 942.29 1077.72 942.287 1077.54C942.283 1077.35 942.241 1077.17 942.162 1077C942.083 1076.83 941.969 1076.69 941.828 1076.57C941.687 1076.45 941.522 1076.36 941.344 1076.3C941.167 1076.25 940.98 1076.24 940.797 1076.27C940.613 1076.29 940.438 1076.36 940.282 1076.46C940.126 1076.56 939.992 1076.69 939.891 1076.84C939.789 1077 939.721 1077.17 939.692 1077.35C938.176 1082.43 936.21 1087.37 933.816 1092.09Z" fill="#6A7282"/>
<path d="M1135 854.451C1129.77 852.069 1131.51 846.71 1134.02 840.692L1142.12 848.027C1139.57 849.961 1137.19 852.11 1135 854.451Z" fill="#6A7282"/>
<path d="M1136 836.018C1137.31 833.179 1138.79 830.158 1139.98 827.325L1152.35 840.085C1150.22 841.823 1148.05 843.435 1145.87 845.003L1136 836.018Z" fill="#6A7282"/>
<path d="M1167.2 821.261L1130.25 784.597C1154.65 772.523 1181.47 790.435 1167.2 821.261Z" fill="#6A7282"/>
<path d="M1156.06 836.959L1141.88 822.353C1143.11 818.171 1143.08 814.771 1140.3 813.137C1139.2 812.493 1137.09 813.202 1134.44 814.712L1116.46 796.217C1119.02 792.613 1122.22 789.507 1125.9 787.051L1164.81 825.699C1162.47 829.867 1159.52 833.662 1156.06 836.959Z" fill="#6A7282"/>
<path d="M1121.88 823.17L1107.51 810.069C1109.23 807.146 1111.34 804.027 1113.79 800.345L1130.22 817.177C1127.58 818.979 1124.74 821.061 1121.88 823.17Z" fill="#6A7282"/>
<path d="M1102.3 833.669C1099.88 832.591 1097.87 830.769 1096.55 828.468C1099.23 823.909 1101.64 819.779 1104.91 814.201L1117.88 826.011C1111.04 830.976 1104.71 835.083 1102.3 833.669Z" fill="#6A7282"/>
<path d="M1106.34 903.935L1053.42 873.872C1055.93 870.205 1058.78 866.784 1061.93 863.655L1108.4 896.355C1107.84 898.909 1107.14 901.454 1106.34 903.935Z" fill="#6A7282"/>
<path d="M1043.98 893.987C1046.12 887.781 1048.84 881.786 1052.09 876.082L1105.49 906.428C1104.38 909.575 1103.09 912.657 1101.63 915.658L1043.98 893.987Z" fill="#6A7282"/>
<path d="M1096.05 925.498L1039.4 911.513C1040.29 906.4 1041.55 901.358 1043.16 896.426L1100.46 917.962C1099.13 920.551 1097.65 923.066 1096.05 925.498Z" fill="#6A7282"/>
<path d="M1038.08 930.259C1037.84 924.831 1038.11 919.393 1038.87 914.014L1094.4 927.701C1092.68 930.179 1090.83 932.558 1088.85 934.828L1038.08 930.259Z" fill="#6A7282"/>
<path d="M1109 893.608L1063.76 861.812C1066.89 858.746 1070.27 855.683 1073.68 852.636C1076.39 852.631 1079.08 853.097 1081.63 854.013C1085.33 856.181 1086.05 862.442 1088.14 863.667C1090.24 864.893 1108.36 859.047 1123.13 878.721C1120.9 891.25 1121.31 905.18 1107.41 928.913C1103.97 934.786 1075.8 974.761 1052.89 961.345C1043.83 956.035 1039.28 945.48 1038.24 932.874L1086.77 937.391C1083.24 941.206 1079.37 944.702 1075.22 947.838C1075.05 947.929 1074.91 948.054 1074.8 948.206C1074.68 948.357 1074.61 948.531 1074.57 948.716C1074.53 948.9 1074.53 949.091 1074.57 949.274C1074.62 949.458 1074.7 949.63 1074.81 949.779C1074.93 949.928 1075.07 950.05 1075.24 950.138C1075.41 950.225 1075.59 950.275 1075.78 950.284C1075.97 950.294 1076.16 950.262 1076.33 950.192C1076.51 950.122 1076.66 950.015 1076.79 949.879C1081.57 946.25 1085.98 942.161 1089.96 937.672L1094.8 938.133C1095.12 938.116 1095.42 937.985 1095.64 937.765C1095.87 937.545 1096.01 937.251 1096.03 936.937C1096.06 936.624 1095.97 936.311 1095.78 936.057C1095.6 935.803 1095.32 935.626 1095.02 935.556L1092.01 935.273C1093.83 933.096 1095.54 930.855 1097.13 928.509L1101.65 929.645C1101.97 929.687 1102.29 929.61 1102.56 929.428C1102.83 929.246 1103.01 928.972 1103.09 928.659C1103.17 928.346 1103.12 928.016 1102.97 927.732C1102.82 927.449 1102.57 927.231 1102.26 927.122L1098.63 926.254C1100.04 923.841 1101.46 921.427 1102.87 919.014C1104.41 919.589 1106.19 920.669 1106.81 919.122C1107.42 917.575 1105.55 917.269 1104.01 916.694C1105.41 913.813 1106.65 910.858 1107.72 907.843L1110.4 909.414C1110.69 909.529 1111.02 909.535 1111.31 909.434C1111.6 909.332 1111.85 909.128 1112.01 908.86C1112.17 908.591 1112.22 908.275 1112.17 907.969C1112.11 907.662 1111.95 907.385 1111.71 907.189L1108.62 905.382C1109.43 902.969 1110.09 900.548 1110.67 898.079C1112.14 898.943 1113.61 900.628 1114.59 899.259C1115.57 897.889 1113.22 896.73 1111.28 895.375C1112.48 889.601 1113.12 883.722 1113.17 877.824C1113.19 877.64 1113.18 877.454 1113.12 877.277C1113.07 877.1 1112.98 876.936 1112.86 876.798C1112.73 876.659 1112.58 876.547 1112.41 876.471C1112.25 876.394 1112.06 876.355 1111.88 876.354C1111.69 876.354 1111.51 876.393 1111.34 876.469C1111.17 876.545 1111.02 876.655 1110.9 876.794C1110.78 876.932 1110.68 877.095 1110.63 877.272C1110.57 877.449 1110.56 877.635 1110.58 877.819C1110.52 883.118 1110 888.403 1109 893.608Z" fill="#6A7282"/>
<path d="M498.835 1250.85C497.144 1245.35 502.305 1243.1 508.478 1240.99L508.36 1251.91C505.221 1251.28 502.034 1250.93 498.835 1250.85Z" fill="#6A7282"/>
<path d="M513.289 1239.37C516.278 1238.46 519.522 1237.56 522.432 1236.57L521.094 1254.3C518.376 1253.85 515.732 1253.3 513.112 1252.71L513.289 1239.37Z" fill="#6A7282"/>
<path d="M545.027 1252.92L547.946 1200.95C573.168 1211.19 577.564 1243.14 545.027 1252.92Z" fill="#6A7282"/>
<path d="M525.891 1255L527.416 1234.7C531.357 1232.84 533.884 1230.57 533.256 1227.4C533.009 1226.15 531.079 1225.04 528.191 1224.06L530.098 1198.34C534.495 1197.86 538.942 1198.19 543.22 1199.32L540.125 1254.08C535.452 1255.09 530.655 1255.4 525.891 1255Z" fill="#6A7282"/>
<path d="M513.533 1220.28L513.801 1200.83C517.124 1200.18 520.861 1199.69 525.239 1199.08L523.549 1222.54C520.448 1221.76 517.006 1221.02 513.533 1220.28Z" fill="#6A7282"/>
<path d="M492.683 1212.59C491.884 1210.06 491.913 1207.35 492.764 1204.84C497.947 1203.82 502.642 1202.89 508.984 1201.63L508.75 1219.17C500.5 1217.35 493.226 1215.33 492.683 1212.59Z" fill="#6A7282"/>
<path d="M442.791 1262.23L430.175 1202.7C434.582 1202.14 439.031 1202 443.464 1202.28L449.832 1258.75C447.55 1260.02 445.183 1261.19 442.791 1262.23Z" fill="#6A7282"/>
<path d="M408.861 1208.98C414.927 1206.46 421.213 1204.52 427.639 1203.17L440.364 1263.25C437.272 1264.51 434.112 1265.59 430.898 1266.49L408.861 1208.98Z" fill="#6A7282"/>
<path d="M419.831 1268.84L392.712 1217.18C397.128 1214.46 401.734 1212.05 406.494 1209.98L428.398 1267.14C425.574 1267.86 422.715 1268.43 419.831 1268.84Z" fill="#6A7282"/>
<path d="M377.805 1228.63C381.712 1224.85 385.958 1221.44 390.49 1218.45L417.087 1269.07C414.097 1269.43 411.089 1269.62 408.077 1269.65L377.805 1228.63Z" fill="#6A7282"/>
<path d="M452.286 1257.38L446.061 1202.43C450.431 1202.74 454.965 1203.24 459.505 1203.76C461.305 1205.79 462.741 1208.11 463.746 1210.62C464.58 1214.83 460.377 1219.53 460.848 1221.9C461.319 1224.28 477.716 1233.96 472.795 1258.07C461.945 1264.71 451.797 1274.26 424.815 1279.61C418.138 1280.93 369.537 1286.38 364.38 1260.34C362.339 1250.03 367.216 1239.63 375.955 1230.48L404.78 1269.79C399.578 1269.68 394.396 1269.1 389.295 1268.08C389.118 1268.01 388.929 1267.99 388.741 1268.01C388.553 1268.02 388.372 1268.08 388.208 1268.18C388.045 1268.27 387.904 1268.4 387.795 1268.55C387.686 1268.7 387.611 1268.88 387.576 1269.06C387.541 1269.25 387.546 1269.44 387.592 1269.62C387.637 1269.81 387.722 1269.98 387.839 1270.12C387.957 1270.27 388.105 1270.39 388.274 1270.47C388.442 1270.56 388.627 1270.61 388.815 1270.61C394.699 1271.78 400.684 1272.37 406.683 1272.36L409.553 1276.3C409.775 1276.52 410.07 1276.65 410.384 1276.68C410.698 1276.7 411.01 1276.61 411.262 1276.42C411.514 1276.23 411.689 1275.96 411.755 1275.65C411.821 1275.34 411.774 1275.02 411.622 1274.74L409.841 1272.31C412.675 1272.22 415.485 1272.02 418.296 1271.65L420.446 1275.79C420.626 1276.05 420.899 1276.24 421.211 1276.32C421.524 1276.4 421.854 1276.36 422.139 1276.21C422.424 1276.06 422.642 1275.81 422.753 1275.5C422.864 1275.2 422.86 1274.87 422.74 1274.57L420.979 1271.28C423.722 1270.73 426.466 1270.19 429.21 1269.65C429.799 1271.18 430.173 1273.22 431.74 1272.66C433.308 1272.1 432.293 1270.49 431.704 1268.96C434.786 1268.09 437.817 1267.06 440.786 1265.86L441.39 1268.91C441.497 1269.2 441.705 1269.45 441.976 1269.6C442.247 1269.75 442.564 1269.81 442.87 1269.75C443.175 1269.68 443.449 1269.52 443.642 1269.27C443.834 1269.03 443.933 1268.72 443.921 1268.41L443.226 1264.9C445.562 1263.9 447.814 1262.79 450.047 1261.59C450.379 1263.27 450.088 1265.48 451.765 1265.3C453.441 1265.13 452.751 1262.61 452.475 1260.25C457.594 1257.32 462.413 1253.9 466.861 1250.02C467.014 1249.92 467.143 1249.78 467.239 1249.62C467.335 1249.47 467.397 1249.29 467.42 1249.1C467.443 1248.92 467.426 1248.73 467.371 1248.56C467.317 1248.38 467.225 1248.22 467.103 1248.08C466.98 1247.94 466.829 1247.83 466.661 1247.75C466.492 1247.68 466.309 1247.64 466.124 1247.64C465.939 1247.64 465.756 1247.68 465.587 1247.75C465.419 1247.83 465.268 1247.94 465.146 1248.08C461.144 1251.56 456.841 1254.67 452.286 1257.38Z" fill="#6A7282"/>
<path d="M217.687 1281.61C216.693 1275.95 222.095 1274.35 228.482 1273.03L227.006 1283.85C223.969 1282.84 220.851 1282.09 217.687 1281.61Z" fill="#6A7282"/>
<path d="M233.458 1272.02C236.536 1271.49 239.867 1271.01 242.877 1270.39L239.344 1287.81C236.703 1287.03 234.148 1286.15 231.622 1285.24L233.458 1272.02Z" fill="#6A7282"/>
<path d="M263.263 1289.41L272.627 1238.21C296.377 1251.52 296.762 1283.77 263.263 1289.41Z" fill="#6A7282"/>
<path d="M244.016 1289.1L248.055 1269.15C252.197 1267.8 254.988 1265.85 254.76 1262.63C254.669 1261.36 252.892 1260.02 250.149 1258.69L255.243 1233.4C259.665 1233.48 264.035 1234.36 268.14 1236.01L258.254 1289.96C253.492 1290.38 248.693 1290.09 244.016 1289.1Z" fill="#6A7282"/>
<path d="M236.075 1253.11L238.761 1233.85C242.14 1233.61 245.909 1233.59 250.329 1233.53L245.733 1256.6C242.753 1255.44 239.43 1254.27 236.075 1253.11Z" fill="#6A7282"/>
<path d="M216.344 1242.89C215.866 1240.28 216.232 1237.59 217.389 1235.21C222.66 1234.84 227.434 1234.5 233.883 1234.04L231.468 1251.41C223.509 1248.58 216.542 1245.68 216.344 1242.89Z" fill="#6A7282"/>
<path d="M160.662 1285.94L155.554 1225.29C159.996 1225.29 164.428 1225.7 168.791 1226.53L168.082 1283.35C165.659 1284.34 163.165 1285.2 160.662 1285.94Z" fill="#6A7282"/>
<path d="M133.624 1228.87C139.955 1227.13 146.435 1225.98 152.979 1225.44L158.127 1286.65C154.903 1287.51 151.632 1288.19 148.332 1288.68L133.624 1228.87Z" fill="#6A7282"/>
<path d="M137.058 1289.63L116.579 1235C121.3 1232.85 126.169 1231.03 131.15 1229.58L145.77 1289.02C142.879 1289.38 139.971 1289.58 137.058 1289.63Z" fill="#6A7282"/>
<path d="M100.364 1244.5C104.71 1241.24 109.348 1238.39 114.217 1235.98L134.307 1289.52C131.296 1289.51 128.287 1289.32 125.295 1288.97L100.364 1244.5Z" fill="#6A7282"/>
<path d="M170.687 1282.3L171.349 1227.01C175.646 1227.86 180.083 1228.91 184.522 1230C186.057 1232.23 187.193 1234.71 187.878 1237.33C188.181 1241.61 183.427 1245.75 183.598 1248.17C183.769 1250.59 198.834 1262.23 190.951 1285.53C179.358 1290.78 168.1 1298.99 140.663 1300.94C133.874 1301.42 84.9724 1300.77 83.096 1274.3C82.3533 1263.82 88.4879 1254.1 98.2975 1246.11L122.005 1288.71C116.858 1287.94 111.788 1286.73 106.855 1285.08C106.686 1284.99 106.502 1284.94 106.313 1284.94C106.125 1284.93 105.938 1284.97 105.764 1285.04C105.59 1285.11 105.434 1285.22 105.307 1285.36C105.179 1285.5 105.084 1285.66 105.026 1285.84C104.968 1286.02 104.949 1286.21 104.972 1286.4C104.994 1286.58 105.057 1286.76 105.155 1286.92C105.254 1287.09 105.386 1287.22 105.543 1287.33C105.699 1287.43 105.877 1287.5 106.063 1287.53C111.756 1289.42 117.621 1290.75 123.574 1291.49L125.932 1295.75C126.124 1296 126.4 1296.17 126.709 1296.23C127.018 1296.3 127.339 1296.24 127.612 1296.09C127.886 1295.93 128.094 1295.68 128.198 1295.38C128.302 1295.09 128.295 1294.76 128.178 1294.47L126.714 1291.83C129.537 1292.1 132.351 1292.24 135.185 1292.23L136.804 1296.6C136.95 1296.89 137.196 1297.11 137.497 1297.23C137.797 1297.34 138.13 1297.35 138.431 1297.23C138.732 1297.12 138.981 1296.9 139.128 1296.61C139.276 1296.32 139.313 1295.99 139.231 1295.68L137.894 1292.19C140.684 1291.99 143.474 1291.8 146.264 1291.6C146.658 1293.19 146.774 1295.27 148.399 1294.91C150.025 1294.54 149.218 1292.82 148.824 1291.23C151.989 1290.75 155.126 1290.1 158.221 1289.29L158.441 1292.39C158.51 1292.69 158.686 1292.96 158.936 1293.15C159.186 1293.33 159.495 1293.42 159.805 1293.4C160.116 1293.38 160.408 1293.24 160.63 1293.02C160.852 1292.81 160.988 1292.52 161.014 1292.21L160.761 1288.64C163.204 1287.94 165.576 1287.11 167.941 1286.2C168.062 1287.9 167.499 1290.06 169.184 1290.1C170.869 1290.14 170.498 1287.54 170.517 1285.18C175.961 1282.9 181.169 1280.1 186.064 1276.81C186.229 1276.73 186.374 1276.61 186.489 1276.47C186.604 1276.32 186.687 1276.15 186.733 1275.97C186.779 1275.79 186.785 1275.61 186.753 1275.43C186.721 1275.24 186.65 1275.07 186.546 1274.92C186.442 1274.76 186.306 1274.64 186.148 1274.54C185.99 1274.44 185.814 1274.38 185.63 1274.36C185.446 1274.33 185.26 1274.35 185.083 1274.41C184.906 1274.46 184.743 1274.55 184.604 1274.67C180.201 1277.62 175.544 1280.18 170.687 1282.3Z" fill="#6A7282"/>
<path d="M960.942 1160.7C963.377 1158.63 965.641 1156.37 967.709 1153.93L974.666 1162.32C966.906 1165.12 962.823 1165.36 960.942 1160.7Z" fill="#6A7282"/>
<path d="M970.836 1150.19C972.521 1148.11 974.233 1146.02 976.057 1143.94L988.215 1156.91C985.274 1157.99 982.406 1159.21 979.371 1160.45L970.836 1150.19Z" fill="#6A7282"/>
<path d="M1030.39 1168.57L995.66 1129.99C1026.87 1117.29 1043.76 1144.72 1030.39 1168.57Z" fill="#6A7282"/>
<path d="M1000.62 1163.11C1002.23 1160.55 1002.98 1158.37 1002.45 1157.35C1001 1154.59 997.55 1154.3 993.315 1155.32L979.398 1140.47C982.835 1137.14 986.739 1134.33 990.987 1132.12L1027.75 1172.83C1025.12 1176.39 1021.87 1179.44 1018.14 1181.82L1000.62 1163.11Z" fill="#6A7282"/>
<path d="M991.564 1175.22C993.653 1172.51 995.978 1169.72 997.876 1167.18L1013.92 1184.42C1010.14 1186.65 1006.86 1188.54 1003.9 1190.2L991.564 1175.22Z" fill="#6A7282"/>
<path d="M980.189 1194.23C978.891 1191.75 983.279 1185.6 988.562 1179L999.744 1192.51C994.045 1195.5 989.777 1197.73 985.097 1200.19C982.887 1198.75 981.173 1196.67 980.189 1194.23Z" fill="#6A7282"/>
<path d="M937.631 1241.19L910.11 1186.91C912.655 1186.2 915.202 1185.64 917.808 1185.19L948.24 1233.17C944.964 1236.17 941.412 1238.86 937.631 1241.19Z" fill="#6A7282"/>
<path d="M917.091 1249.67L898.177 1191.05C901.254 1189.73 904.403 1188.59 907.608 1187.62L935.388 1242.4C929.527 1245.38 923.402 1247.82 917.091 1249.67Z" fill="#6A7282"/>
<path d="M899.367 1253.41L888.111 1196.15C890.607 1194.67 893.18 1193.32 895.82 1192.11L914.572 1250.28C909.585 1251.69 904.503 1252.73 899.367 1253.41Z" fill="#6A7282"/>
<path d="M878.366 1202.8C880.727 1200.93 883.191 1199.19 885.747 1197.6L896.814 1253.69C891.419 1254.24 885.985 1254.3 880.58 1253.84L878.366 1202.8Z" fill="#6A7282"/>
<path d="M875.888 1204.83L877.975 1253.56C865.46 1251.9 855.147 1246.89 850.259 1237.55C837.943 1214.04 879.182 1187.81 885.239 1184.64C909.577 1171.89 923.471 1172.96 936.091 1171.33C955.043 1187.02 948.547 1205.23 949.484 1207.02C950.422 1208.81 956.829 1210.19 958.804 1213.96C959.602 1216.54 959.949 1219.24 959.831 1221.95C956.625 1225.2 953.405 1228.43 950.195 1231.41L920.551 1184.73C925.854 1183.98 931.212 1183.7 936.564 1183.89C936.733 1183.9 936.902 1183.87 937.06 1183.81C937.219 1183.75 937.364 1183.66 937.487 1183.55C937.611 1183.43 937.711 1183.29 937.781 1183.14C937.851 1182.98 937.89 1182.82 937.896 1182.65C937.902 1182.48 937.875 1182.31 937.816 1182.15C937.757 1181.99 937.667 1181.85 937.551 1181.73C937.436 1181.6 937.298 1181.5 937.144 1181.43C936.99 1181.36 936.824 1181.32 936.655 1181.32C930.77 1181.11 924.879 1181.45 919.061 1182.36C917.772 1180.37 916.739 1177.93 915.311 1178.88C913.884 1179.84 915.4 1181.4 916.304 1182.85C913.81 1183.32 911.36 1183.87 908.912 1184.55C907.816 1182.46 907.213 1179.97 905.561 1180.83C903.909 1181.7 905.587 1183.7 906.424 1185.29C903.363 1186.23 900.353 1187.32 897.408 1188.58C896.878 1187.03 896.634 1185.16 895.087 1185.69C893.54 1186.22 894.506 1188.06 895.023 1189.65C892.473 1190.81 889.981 1192.08 887.589 1193.54L886.895 1189.87C886.8 1189.57 886.595 1189.3 886.319 1189.14C886.043 1188.97 885.715 1188.91 885.399 1188.97C885.082 1189.04 884.8 1189.21 884.606 1189.47C884.411 1189.73 884.319 1190.05 884.346 1190.37L885.266 1194.94C882.847 1196.41 880.528 1198.01 878.267 1199.73C878.191 1197.91 878.533 1195.41 876.796 1195.44C876.455 1195.47 876.137 1195.63 875.905 1195.88C875.673 1196.13 875.543 1196.46 875.542 1196.8L875.773 1201.66C871.096 1205.41 866.794 1209.6 862.927 1214.18C862.785 1214.3 862.67 1214.46 862.592 1214.63C862.514 1214.8 862.474 1214.99 862.474 1215.17C862.475 1215.36 862.516 1215.55 862.595 1215.72C862.674 1215.89 862.79 1216.04 862.933 1216.16C863.076 1216.29 863.244 1216.38 863.426 1216.43C863.607 1216.48 863.797 1216.49 863.983 1216.46C864.169 1216.43 864.347 1216.36 864.504 1216.26C864.66 1216.15 864.793 1216.01 864.891 1215.85C868.215 1211.85 871.896 1208.16 875.888 1204.83Z" fill="#6A7282"/>
<path d="M1142.62 991.437C1143.78 988.459 1144.7 985.391 1145.36 982.264L1155.47 986.346C1149.97 992.496 1146.49 994.649 1142.62 991.437Z" fill="#6A7282"/>
<path d="M1146.34 977.485C1146.83 974.858 1147.35 972.206 1147.97 969.512L1164.82 975.15C1162.75 977.5 1160.8 979.937 1158.72 982.468L1146.34 977.485Z" fill="#6A7282"/>
<path d="M1207.48 965.39L1158.6 947.926C1180.04 921.936 1207.93 938.058 1207.48 965.39Z" fill="#6A7282"/>
<path d="M1178.69 974.719C1178.88 971.703 1178.51 969.425 1177.56 968.782C1174.98 967.043 1171.8 968.422 1168.56 971.334L1149.26 964.872C1150.7 960.308 1152.8 955.979 1155.5 952.02L1207.17 970.397C1206.55 974.777 1205.14 979.005 1202.99 982.873L1178.69 974.719Z" fill="#6A7282"/>
<path d="M1176.46 989.679C1177.02 986.303 1177.74 982.738 1178.2 979.603L1200.51 987.16C1198.24 990.914 1196.25 994.144 1194.43 997.004L1176.46 989.679Z" fill="#6A7282"/>
<path d="M1175.48 1011.81C1173.16 1010.25 1174.1 1002.74 1175.62 994.434L1191.87 1001.02C1188.27 1006.35 1185.58 1010.34 1182.62 1014.72C1180 1014.51 1177.5 1013.49 1175.48 1011.81Z" fill="#6A7282"/>
<path d="M1160.31 1073.34L1110.32 1038.63C1112.23 1036.81 1114.2 1035.1 1116.28 1033.47L1165.84 1061.25C1164.39 1065.45 1162.53 1069.5 1160.31 1073.34Z" fill="#6A7282"/>
<path d="M1146.26 1090.56L1101.79 1047.94C1103.87 1045.32 1106.1 1042.82 1108.46 1040.45L1158.91 1075.47C1155.17 1080.88 1150.93 1085.93 1146.26 1090.56Z" fill="#6A7282"/>
<path d="M1132.43 1102.26L1095.35 1057.21C1096.84 1054.72 1098.46 1052.31 1100.21 1050L1144.33 1092.29C1140.61 1095.9 1136.63 1099.23 1132.43 1102.26Z" fill="#6A7282"/>
<path d="M1089.92 1067.69C1091.11 1064.92 1092.46 1062.22 1093.95 1059.61L1130.32 1103.72C1125.84 1106.77 1121.08 1109.4 1116.11 1111.56L1089.92 1067.69Z" fill="#6A7282"/>
<path d="M1088.71 1070.65L1113.68 1112.55C1101.88 1117.04 1090.42 1117.51 1081.69 1111.62C1059.68 1096.77 1083.53 1054.11 1087.35 1048.44C1102.72 1025.67 1115.46 1020.01 1125.79 1012.59C1149.92 1017.4 1152.85 1036.51 1154.52 1037.64C1156.2 1038.77 1162.49 1036.94 1166.02 1039.32C1167.95 1041.22 1169.54 1043.43 1170.72 1045.87C1169.44 1050.26 1168.14 1054.63 1166.73 1058.78L1118.48 1031.76C1122.79 1028.58 1127.37 1025.79 1132.17 1023.42C1132.32 1023.34 1132.46 1023.24 1132.57 1023.11C1132.68 1022.99 1132.77 1022.84 1132.82 1022.68C1132.88 1022.52 1132.9 1022.35 1132.89 1022.18C1132.87 1022.01 1132.83 1021.85 1132.76 1021.69C1132.68 1021.54 1132.58 1021.41 1132.45 1021.3C1132.32 1021.18 1132.17 1021.1 1132.01 1021.05C1131.85 1020.99 1131.68 1020.97 1131.52 1020.98C1131.35 1020.99 1131.18 1021.04 1131.03 1021.11C1125.75 1023.72 1120.73 1026.82 1116.04 1030.38C1113.96 1029.24 1111.89 1027.58 1111.09 1029.1C1110.29 1030.62 1112.36 1031.27 1113.85 1032.13C1111.87 1033.72 1109.98 1035.36 1108.15 1037.13C1106.19 1035.81 1104.48 1033.9 1103.43 1035.45C1102.39 1036.99 1104.82 1037.95 1106.31 1038.96C1104.06 1041.24 1101.93 1043.63 1099.93 1046.13C1098.73 1045.02 1097.63 1043.49 1096.52 1044.69C1095.41 1045.89 1097.14 1047.06 1098.34 1048.21C1096.65 1050.44 1095.06 1052.74 1093.65 1055.17L1091.3 1052.26C1091.07 1052.04 1090.76 1051.9 1090.44 1051.89C1090.12 1051.87 1089.8 1051.98 1089.55 1052.18C1089.3 1052.39 1089.14 1052.68 1089.09 1052.99C1089.04 1053.31 1089.11 1053.64 1089.29 1053.91L1092.27 1057.49C1090.84 1059.94 1089.56 1062.45 1088.38 1065.03C1087.45 1063.47 1086.57 1061.11 1085.05 1061.96C1084.77 1062.15 1084.56 1062.44 1084.47 1062.77C1084.39 1063.1 1084.43 1063.45 1084.59 1063.75L1087.1 1067.92C1084.77 1073.44 1082.97 1079.17 1081.74 1085.04C1081.67 1085.21 1081.65 1085.4 1081.66 1085.59C1081.67 1085.78 1081.72 1085.96 1081.81 1086.12C1081.9 1086.29 1082.03 1086.43 1082.18 1086.55C1082.33 1086.66 1082.5 1086.74 1082.69 1086.78C1082.87 1086.82 1083.06 1086.82 1083.25 1086.78C1083.43 1086.73 1083.6 1086.65 1083.75 1086.54C1083.9 1086.43 1084.03 1086.28 1084.11 1086.11C1084.2 1085.95 1084.25 1085.76 1084.26 1085.58C1085.29 1080.48 1086.78 1075.48 1088.71 1070.65Z" fill="#6A7282"/>
<path d="M419.688 1338.76C422.792 1337.99 425.828 1336.97 428.766 1335.71L431.25 1346.33C423.055 1345.37 419.292 1343.77 419.688 1338.76Z" fill="#6A7282"/>
<path d="M433.235 1333.76C435.668 1332.65 438.133 1331.55 440.692 1330.5L445.791 1347.53C442.676 1347.18 439.563 1347 436.294 1346.75L433.235 1333.76Z" fill="#6A7282"/>
<path d="M478.338 1376.77L464.46 1326.76C498.053 1329.31 500.939 1361.4 478.338 1376.77Z" fill="#6A7282"/>
<path d="M454.129 1358.61C456.708 1357.04 458.354 1355.42 458.331 1354.27C458.268 1351.16 455.31 1349.35 451.062 1348.38L445.229 1328.89C449.792 1327.44 454.541 1326.66 459.327 1326.58L474.07 1379.41C470.133 1381.43 465.86 1382.7 461.463 1383.18L454.129 1358.61Z" fill="#6A7282"/>
<path d="M440.619 1365.41C443.697 1363.92 447.025 1362.45 449.856 1361.03L456.529 1383.62C452.152 1383.92 448.364 1384.16 444.979 1384.32L440.619 1365.41Z" fill="#6A7282"/>
<path d="M421.959 1377.35C421.902 1374.55 428.576 1371 436.245 1367.46L440.227 1384.54C433.795 1384.67 428.978 1384.76 423.696 1384.87C422.357 1382.6 421.751 1379.98 421.959 1377.35Z" fill="#6A7282"/>
<path d="M362.924 1400.4L362.506 1339.54C365.096 1340.04 367.627 1340.68 370.16 1341.43L375.994 1397.96C371.724 1399.18 367.348 1400 362.924 1400.4Z" fill="#6A7282"/>
<path d="M340.759 1398.82L349.976 1337.92C353.319 1338.12 356.647 1338.5 359.947 1339.06L360.377 1400.48C353.801 1400.53 347.233 1399.98 340.759 1398.82Z" fill="#6A7282"/>
<path d="M323.228 1394.26L338.693 1338C341.588 1337.78 344.493 1337.72 347.394 1337.82L338.23 1398.25C333.14 1397.28 328.127 1395.95 323.228 1394.26Z" fill="#6A7282"/>
<path d="M327.006 1339.6C329.954 1338.98 332.933 1338.52 335.932 1338.24L320.816 1393.38C315.741 1391.47 310.854 1389.09 306.218 1386.27L327.006 1339.6Z" fill="#6A7282"/>
<path d="M323.881 1340.32L304.013 1384.86C293.55 1377.8 286.559 1368.7 286.347 1358.17C285.812 1331.63 334.421 1326.55 341.258 1326.41C368.727 1325.86 380.684 1333.02 392.705 1337.19C402.671 1359.68 388.735 1373.08 388.776 1375.1C388.816 1377.12 393.935 1381.21 394.021 1385.47C393.582 1388.14 392.687 1390.71 391.376 1393.08C387.054 1394.56 382.731 1396.02 378.529 1397.25L372.819 1342.25C377.901 1343.94 382.823 1346.08 387.527 1348.64C387.676 1348.72 387.839 1348.77 388.007 1348.79C388.175 1348.8 388.345 1348.79 388.507 1348.74C388.669 1348.69 388.82 1348.61 388.952 1348.51C389.083 1348.4 389.192 1348.27 389.273 1348.12C389.354 1347.97 389.404 1347.81 389.422 1347.64C389.44 1347.47 389.424 1347.3 389.376 1347.14C389.328 1346.98 389.249 1346.83 389.142 1346.7C389.036 1346.56 388.905 1346.46 388.756 1346.38C383.584 1343.56 378.156 1341.25 372.545 1339.46C372.28 1337.1 372.444 1334.46 370.739 1334.68C369.033 1334.9 369.697 1336.97 369.856 1338.67C367.417 1337.98 364.98 1337.37 362.483 1336.9C362.436 1334.53 363.007 1332.03 361.143 1332.07C359.278 1332.11 359.889 1334.65 359.925 1336.45C356.769 1335.92 353.586 1335.56 350.391 1335.37C350.607 1333.75 351.224 1331.96 349.603 1331.75C347.982 1331.53 348.024 1333.61 347.778 1335.26C344.978 1335.17 342.181 1335.19 339.388 1335.43L340.403 1331.84C340.456 1331.52 340.39 1331.19 340.216 1330.92C340.043 1330.65 339.776 1330.45 339.465 1330.37C339.155 1330.28 338.824 1330.31 338.535 1330.45C338.247 1330.6 338.021 1330.84 337.903 1331.14L336.688 1335.64C333.864 1335.89 331.074 1336.28 328.287 1336.81C329.03 1335.14 330.449 1333.06 328.88 1332.32C328.562 1332.19 328.208 1332.19 327.889 1332.31C327.569 1332.43 327.306 1332.67 327.153 1332.98L325.191 1337.43C319.333 1338.7 313.613 1340.53 308.11 1342.9C307.928 1342.95 307.757 1343.03 307.611 1343.15C307.464 1343.27 307.345 1343.42 307.262 1343.59C307.178 1343.76 307.132 1343.94 307.127 1344.13C307.122 1344.32 307.157 1344.51 307.231 1344.68C307.305 1344.85 307.415 1345.01 307.555 1345.13C307.694 1345.26 307.86 1345.36 308.039 1345.41C308.219 1345.47 308.409 1345.49 308.595 1345.46C308.782 1345.44 308.962 1345.38 309.122 1345.28C313.881 1343.18 318.821 1341.52 323.881 1340.32Z" fill="#6A7282"/>
<path d="M136.518 1355.48C139.668 1354.93 142.767 1354.12 145.786 1353.07L147.528 1363.83C139.419 1362.31 135.776 1360.45 136.518 1355.48Z" fill="#6A7282"/>
<path d="M150.378 1351.43C152.883 1350.5 155.418 1349.56 158.043 1348.7L161.951 1366.03C158.867 1365.48 155.775 1365.08 152.53 1364.61L150.378 1351.43Z" fill="#6A7282"/>
<path d="M192.393 1397.47L182.013 1346.61C215.349 1351.49 216.005 1383.69 192.393 1397.47Z" fill="#6A7282"/>
<path d="M169.501 1377.67C172.183 1376.28 173.937 1374.78 173.994 1373.63C174.146 1370.53 171.32 1368.52 167.15 1367.26L162.682 1347.4C167.334 1346.27 172.125 1345.83 176.905 1346.08L187.953 1399.8C183.886 1401.54 179.535 1402.52 175.116 1402.69L169.501 1377.67Z" fill="#6A7282"/>
<path d="M155.552 1383.52C158.727 1382.24 162.148 1381.01 165.071 1379.79L170.163 1402.78C165.775 1402.79 161.98 1402.76 158.592 1402.68L155.552 1383.52Z" fill="#6A7282"/>
<path d="M136.11 1394.14C136.247 1391.34 143.151 1388.26 151.047 1385.26L153.836 1402.57C147.41 1402.26 142.599 1402.02 137.322 1401.76C136.144 1399.4 135.72 1396.74 136.11 1394.14Z" fill="#6A7282"/>
<path d="M75.6209 1413.04L79.419 1352.3C81.968 1352.98 84.4488 1353.79 86.9236 1354.72L88.8277 1411.51C84.4836 1412.43 80.0615 1412.95 75.6209 1413.04Z" fill="#6A7282"/>
<path d="M53.618 1409.93L67.0316 1349.82C70.3523 1350.24 73.6467 1350.85 76.8995 1351.64L73.074 1412.94C66.5094 1412.55 59.996 1411.54 53.618 1409.93Z" fill="#6A7282"/>
<path d="M36.4444 1404.17L55.7706 1349.11C58.6735 1349.1 61.5749 1349.24 64.4625 1349.54L51.1339 1409.19C46.1239 1407.87 41.2148 1406.19 36.4444 1404.17Z" fill="#6A7282"/>
<path d="M44.0007 1349.9C46.9839 1349.48 49.988 1349.24 52.9989 1349.16L34.1002 1403.12C29.1691 1400.86 24.4585 1398.15 20.0291 1395.02L44.0007 1349.9Z" fill="#6A7282"/>
<path d="M40.8332 1350.4L17.9277 1393.46C7.97902 1385.69 1.63443 1376.13 2.15228 1365.61C3.45681 1339.1 52.3019 1337.39 59.1313 1337.73C86.5728 1339.08 98.0054 1347.05 109.709 1352.04C118.093 1375.17 103.262 1387.57 103.162 1389.59C103.063 1391.61 107.886 1396.05 107.676 1400.3C107.054 1402.93 105.983 1405.44 104.511 1407.71C100.097 1408.89 95.6835 1410.04 91.4052 1410.98L89.5194 1355.72C94.4722 1357.76 99.2343 1360.23 103.75 1363.11C103.892 1363.2 104.052 1363.26 104.218 1363.29C104.385 1363.32 104.555 1363.32 104.72 1363.28C104.885 1363.24 105.042 1363.17 105.18 1363.08C105.319 1362.98 105.437 1362.86 105.527 1362.71C105.618 1362.57 105.68 1362.41 105.709 1362.25C105.739 1362.08 105.735 1361.91 105.698 1361.74C105.661 1361.58 105.593 1361.42 105.496 1361.28C105.399 1361.15 105.275 1361.03 105.132 1360.94C100.167 1357.77 94.9129 1355.08 89.4395 1352.91C89.3383 1350.54 89.6854 1347.92 87.9689 1348.02C86.2524 1348.12 86.7709 1350.23 86.8111 1351.94C84.4264 1351.08 82.0372 1350.31 79.5798 1349.66C79.6959 1347.3 80.439 1344.85 78.5764 1344.76C76.7139 1344.66 77.1473 1347.24 77.0587 1349.04C73.9462 1348.29 70.7964 1347.71 67.6224 1347.3C67.9502 1345.7 68.6891 1343.96 67.0871 1343.63C65.4851 1343.3 65.3828 1345.38 65.0225 1347.01C62.2363 1346.72 59.444 1346.55 56.641 1346.6L57.9032 1343.08C57.9778 1342.77 57.934 1342.44 57.7801 1342.16C57.6262 1341.88 57.373 1341.66 57.0694 1341.55C56.7658 1341.44 56.4331 1341.45 56.1353 1341.58C55.8376 1341.7 55.5958 1341.93 55.4565 1342.22L53.9327 1346.62C51.0986 1346.67 48.2881 1346.87 45.4713 1347.2C46.3283 1345.6 47.8882 1343.62 46.3742 1342.77C46.0659 1342.62 45.7131 1342.59 45.3856 1342.69C45.0581 1342.79 44.7797 1343.01 44.6053 1343.3L42.3396 1347.61C36.4086 1348.47 30.5751 1349.9 24.9211 1351.89C24.7357 1351.92 24.5599 1351.99 24.4056 1352.1C24.2513 1352.21 24.1222 1352.35 24.0272 1352.51C23.9321 1352.67 23.8734 1352.86 23.8551 1353.04C23.8367 1353.23 23.8591 1353.42 23.9208 1353.6C23.9825 1353.78 24.0819 1353.94 24.2123 1354.07C24.3427 1354.21 24.501 1354.32 24.6763 1354.39C24.8516 1354.45 25.0397 1354.48 25.2278 1354.47C25.4158 1354.46 25.5994 1354.41 25.7658 1354.32C30.6586 1352.56 35.7019 1351.25 40.8332 1350.4Z" fill="#6A7282"/>
<path d="M737.566 1188.33C735.552 1182.95 740.526 1180.37 746.578 1177.86L747.139 1188.77C743.967 1188.35 740.764 1188.21 737.566 1188.33Z" fill="#6A7282"/>
<path d="M751.275 1175.93C754.198 1174.83 757.377 1173.72 760.036 1172.6L759.852 1190.37C757.111 1190.1 754.467 1189.71 751.814 1189.3L751.275 1175.93Z" fill="#6A7282"/>
<path d="M783.825 1187.39L783.484 1135.31C809.167 1143.93 815.658 1175.53 783.825 1187.39Z" fill="#6A7282"/>
<path d="M764.833 1190.71L765.037 1170.36C768.849 1168.25 771.224 1165.82 770.392 1162.7C770.063 1161.47 768.065 1160.49 765.151 1159.69L765.354 1133.9C769.71 1133.13 774.17 1133.18 778.511 1134.03L779.007 1188.87C774.4 1190.18 769.623 1190.81 764.833 1190.71Z" fill="#6A7282"/>
<path d="M750.278 1156.86L749.253 1137.45C752.526 1136.58 756.254 1135.84 760.553 1134.96L760.39 1158.48C757.335 1157.88 753.791 1157.38 750.278 1156.86Z" fill="#6A7282"/>
<path d="M728.943 1150.55C727.99 1148.08 727.853 1145.37 728.551 1142.81C733.627 1141.46 738.282 1140.22 744.498 1138.56L745.403 1156.07C737.203 1154.75 729.663 1153.26 728.943 1150.55Z" fill="#6A7282"/>
<path d="M682.41 1203.32L665.955 1144.73C670.307 1143.89 674.728 1143.47 679.159 1143.46L689.209 1199.39C686.984 1200.82 684.728 1202.13 682.41 1203.32Z" fill="#6A7282"/>
<path d="M645.093 1152.38C650.982 1149.48 657.13 1147.13 663.455 1145.37L680.053 1204.5C677.049 1205.95 673.965 1207.24 670.817 1208.34L645.093 1152.38Z" fill="#6A7282"/>
<path d="M659.925 1211.41L629.48 1161.63C633.712 1158.62 638.152 1155.92 642.766 1153.55L668.334 1209.17C665.573 1210.06 662.766 1210.81 659.925 1211.41Z" fill="#6A7282"/>
<path d="M615.349 1174.01C619.023 1170.02 623.06 1166.38 627.408 1163.14L657.235 1211.93C654.265 1212.49 651.266 1212.88 648.252 1213.1L615.349 1174.01Z" fill="#6A7282"/>
<path d="M691.537 1197.87L681.789 1143.44C686.17 1143.46 690.726 1143.66 695.291 1143.89C697.202 1145.8 698.774 1148.03 699.939 1150.47C701.044 1154.61 697.155 1159.57 697.78 1161.92C698.404 1164.26 715.394 1172.85 712.078 1197.22C701.683 1204.56 692.176 1214.75 665.598 1221.83C659.021 1223.58 610.875 1232.17 604.039 1206.52C601.334 1196.37 605.525 1185.67 613.652 1175.98L645.058 1213.31C639.869 1213.53 634.672 1213.29 629.524 1212.6C629.346 1212.55 629.159 1212.54 628.977 1212.57C628.795 1212.6 628.621 1212.67 628.468 1212.78C628.315 1212.88 628.185 1213.01 628.087 1213.17C627.99 1213.33 627.927 1213.5 627.902 1213.69C627.877 1213.87 627.892 1214.06 627.945 1214.23C627.998 1214.41 628.087 1214.57 628.208 1214.71C628.329 1214.85 628.478 1214.97 628.645 1215.04C628.813 1215.12 628.995 1215.16 629.18 1215.16C635.128 1215.94 641.138 1216.13 647.124 1215.75L650.273 1219.48C650.509 1219.69 650.812 1219.81 651.127 1219.81C651.442 1219.81 651.747 1219.7 651.986 1219.5C652.226 1219.29 652.383 1219.01 652.429 1218.69C652.475 1218.38 652.407 1218.07 652.237 1217.8L650.271 1215.49C653.094 1215.22 655.885 1214.83 658.666 1214.29L661.11 1218.27C661.289 1218.55 661.576 1218.76 661.908 1218.84C662.239 1218.92 662.588 1218.86 662.877 1218.68C663.166 1218.5 663.372 1218.21 663.449 1217.88C663.527 1217.55 663.47 1217.2 663.29 1216.91L661.349 1213.73C664.052 1213.01 666.754 1212.29 669.427 1211.58C670.114 1213.07 670.65 1215.08 672.148 1214.42C673.645 1213.77 672.588 1212.21 671.902 1210.72C674.919 1209.66 677.877 1208.43 680.763 1207.04L681.564 1210.05C681.689 1210.33 681.913 1210.56 682.193 1210.7C682.474 1210.83 682.794 1210.86 683.094 1210.78C683.395 1210.7 683.658 1210.52 683.834 1210.26C684.01 1210 684.089 1209.69 684.056 1209.38L683.136 1205.93C685.372 1204.79 687.577 1203.52 689.727 1202.18C690.017 1203.87 690.021 1206.06 691.652 1205.78C693.284 1205.51 692.492 1203.02 692.063 1200.69C696.968 1197.43 701.543 1193.7 705.725 1189.55C705.845 1189.43 705.941 1189.29 706.007 1189.14C706.073 1188.98 706.107 1188.81 706.108 1188.64C706.11 1188.47 706.077 1188.31 706.014 1188.15C705.95 1187.99 705.856 1187.85 705.738 1187.73C705.619 1187.61 705.478 1187.51 705.322 1187.45C705.166 1187.38 704.999 1187.35 704.83 1187.35C704.661 1187.35 704.493 1187.38 704.337 1187.44C704.18 1187.5 704.037 1187.6 703.917 1187.72C700.098 1191.46 695.956 1194.86 691.537 1197.87Z" fill="#6A7282"/>
<path d="M1422.91 313.468C1423.1 310.277 1423.03 307.075 1422.7 303.896L1433.57 304.708C1430.19 312.339 1427.56 315.396 1422.91 313.468Z" fill="#6A7282"/>
<path d="M1422.16 299.078C1421.82 296.426 1421.49 293.774 1421.25 291.02L1439.02 291.21C1437.77 294.083 1436.67 297 1435.51 299.899L1422.16 299.078Z" fill="#6A7282"/>
<path d="M1476.63 268.796L1424.6 267.238C1437.17 235.867 1468.68 242.587 1476.63 268.796Z" fill="#6A7282"/>
<path d="M1452.09 286.544C1451.36 283.583 1450.29 281.561 1449.19 281.241C1446.2 280.377 1443.61 282.636 1441.41 286.433L1421.06 286.208C1421.03 281.411 1421.71 276.636 1423.06 272.032L1477.87 273.685C1478.63 278.042 1478.58 282.502 1477.72 286.842L1452.09 286.544Z" fill="#6A7282"/>
<path d="M1454.56 301.465C1454.1 297.933 1453.65 294.439 1453.12 291.342L1476.68 291.684C1475.66 295.984 1474.76 299.669 1473.91 302.92L1454.56 301.465Z" fill="#6A7282"/>
<path d="M1460.4 322.889C1457.72 322.112 1456.31 314.683 1455.2 306.308L1472.68 307.611C1470.9 313.792 1469.56 318.419 1468.1 323.465C1465.54 324.094 1462.84 323.892 1460.4 322.889Z" fill="#6A7282"/>
<path d="M1464.89 386.016L1406.65 368.33C1407.9 366.037 1409.27 363.779 1410.73 361.615L1466.44 372.812C1466.34 377.253 1465.82 381.673 1464.89 386.016Z" fill="#6A7282"/>
<path d="M1456.8 406.712L1401.39 379.814C1402.56 376.689 1403.91 373.634 1405.43 370.661L1464.2 388.503C1462.3 394.789 1459.83 400.885 1456.8 406.712Z" fill="#6A7282"/>
<path d="M1447.24 422.097L1398.1 390.639C1398.76 387.801 1399.57 385 1400.53 382.249L1455.5 408.958C1453.06 413.529 1450.3 417.92 1447.24 422.097Z" fill="#6A7282"/>
<path d="M1396.16 402.244C1396.45 399.245 1396.9 396.265 1397.52 393.317L1445.67 424.166C1442.34 428.435 1438.62 432.385 1434.55 435.964L1396.16 402.244Z" fill="#6A7282"/>
<path d="M1395.92 405.441L1432.55 437.648C1422.68 445.569 1411.93 449.542 1401.8 446.615C1376.31 439.24 1385.91 391.285 1387.8 384.747C1395.44 358.324 1405.83 349.034 1413.39 338.796C1437.82 335.964 1446.48 353.253 1448.42 353.814C1450.36 354.376 1455.78 350.735 1459.87 351.918C1462.29 353.13 1464.48 354.749 1466.35 356.704C1466.48 361.272 1466.59 365.832 1466.52 370.212L1412.31 359.289C1415.43 354.948 1418.93 350.893 1422.77 347.173C1422.92 347.063 1423.04 346.922 1423.13 346.761C1423.22 346.599 1423.28 346.421 1423.3 346.236C1423.31 346.052 1423.29 345.866 1423.23 345.692C1423.17 345.517 1423.07 345.357 1422.94 345.223C1422.81 345.089 1422.66 344.984 1422.49 344.914C1422.32 344.845 1422.13 344.812 1421.95 344.819C1421.76 344.826 1421.58 344.873 1421.41 344.955C1421.25 345.037 1421.1 345.154 1420.98 345.297C1416.76 349.41 1412.93 353.915 1409.55 358.75C1407.23 358.273 1404.79 357.211 1404.45 359.054C1404.11 360.897 1406.33 360.729 1408.01 361.055C1406.62 363.177 1405.32 365.354 1404.13 367.566C1401.86 366.909 1399.63 365.651 1399.12 367.413C1398.61 369.174 1401.21 369.375 1402.93 369.905C1401.48 372.761 1400.19 375.692 1399.06 378.687C1397.59 377.97 1396.06 376.88 1395.37 378.364C1394.68 379.847 1396.69 380.396 1398.2 381.122C1397.27 383.766 1396.46 386.445 1395.87 389.183L1392.73 387.175C1392.44 386.99 1392.09 386.925 1391.76 386.996C1391.43 387.066 1391.14 387.266 1390.95 387.551C1390.77 387.837 1390.7 388.184 1390.77 388.517C1390.84 388.85 1391.04 389.141 1391.33 389.326L1395.26 391.854C1394.66 394.593 1394.2 397.405 1393.88 400.191C1392.5 399.017 1390.95 397.014 1389.76 398.321C1389.55 398.583 1389.44 398.916 1389.47 399.252C1389.49 399.589 1389.64 399.904 1389.88 400.136L1393.55 403.332C1393.04 409.319 1393.11 415.341 1393.75 421.315C1393.75 421.5 1393.79 421.683 1393.86 421.852C1393.94 422.021 1394.05 422.172 1394.19 422.296C1394.32 422.42 1394.49 422.513 1394.66 422.569C1394.84 422.626 1395.02 422.644 1395.21 422.624C1395.39 422.603 1395.57 422.543 1395.73 422.449C1395.88 422.355 1396.02 422.228 1396.13 422.077C1396.23 421.926 1396.31 421.754 1396.34 421.572C1396.38 421.391 1396.37 421.204 1396.33 421.024C1395.72 415.853 1395.58 410.637 1395.92 405.441Z" fill="#6A7282"/>
<path d="M1337.27 393.841C1331.52 393.614 1331.11 387.996 1331.16 381.473L1341.43 385.207C1339.8 387.961 1338.4 390.85 1337.27 393.841Z" fill="#6A7282"/>
<path d="M1331.23 376.398C1331.36 373.277 1331.6 369.919 1331.63 366.847L1347.9 373.986C1346.58 376.403 1345.18 378.714 1343.76 380.99L1331.23 376.398Z" fill="#6A7282"/>
<path d="M1354.54 350.95L1306.48 330.96C1324.51 310.564 1356.11 317.014 1354.54 350.95Z" fill="#6A7282"/>
<path d="M1350.15 369.693L1331.51 361.523C1331.07 357.189 1329.76 354.05 1326.56 353.591C1325.3 353.41 1323.61 354.864 1321.73 357.262L1298.1 346.932C1299.11 342.626 1300.9 338.542 1303.37 334.878L1354.01 355.96C1353.41 360.703 1352.11 365.332 1350.15 369.693Z" fill="#6A7282"/>
<path d="M1313.3 369.838L1295.05 363.136C1295.52 359.814 1296.31 356.096 1297.18 351.762L1318.76 361.138C1316.99 363.805 1315.15 366.806 1313.3 369.838Z" fill="#6A7282"/>
<path d="M1299.13 386.957C1296.49 386.873 1293.94 385.946 1291.85 384.311C1292.6 379.081 1293.28 374.343 1294.2 367.944L1310.67 373.98C1306.21 381.159 1301.9 387.354 1299.13 386.957Z" fill="#6A7282"/>
<path d="M1329.42 450.49L1269.07 442.646C1270.01 438.304 1271.35 434.06 1273.09 429.972L1328.47 442.692C1328.9 445.391 1329.23 447.887 1329.42 450.49Z" fill="#6A7282"/>
<path d="M1267.92 464.899C1267.56 458.342 1267.81 451.767 1268.66 445.256L1329.57 453.18C1329.73 456.513 1329.7 459.853 1329.48 463.184L1267.92 464.899Z" fill="#6A7282"/>
<path d="M1328.04 474.342L1270.31 482.793C1269.2 477.723 1268.46 472.58 1268.09 467.404L1329.28 465.697C1329.02 468.599 1328.61 471.485 1328.04 474.342Z" fill="#6A7282"/>
<path d="M1276.17 500.62C1273.9 495.684 1272.09 490.548 1270.77 485.277L1327.34 477.005C1326.74 479.929 1325.97 482.816 1325.04 485.654L1276.17 500.62Z" fill="#6A7282"/>
<path d="M1327.99 439.922L1274.09 427.573C1275.83 423.552 1277.8 419.439 1279.8 415.331C1282.31 414.303 1284.97 413.719 1287.68 413.604C1291.93 414.213 1294.96 419.736 1297.36 420.08C1299.76 420.424 1314.33 408.166 1335.44 420.803C1338.11 433.243 1343.76 445.985 1339.85 473.212C1338.88 479.949 1327.9 527.606 1301.63 523.836C1291.23 522.343 1283.03 514.29 1277.3 503.013L1323.98 488.643C1322.14 493.512 1319.88 498.21 1317.22 502.682C1317.1 502.828 1317.02 502.999 1316.97 503.181C1316.93 503.364 1316.92 503.554 1316.96 503.739C1316.99 503.925 1317.06 504.1 1317.17 504.254C1317.28 504.408 1317.42 504.537 1317.58 504.631C1317.75 504.725 1317.93 504.784 1318.12 504.801C1318.3 504.819 1318.49 504.796 1318.67 504.734C1318.85 504.671 1319.01 504.571 1319.15 504.44C1319.28 504.309 1319.39 504.151 1319.46 503.975C1322.47 498.832 1324.97 493.407 1326.93 487.779L1331.59 486.375C1331.87 486.24 1332.1 486.006 1332.22 485.718C1332.35 485.429 1332.37 485.104 1332.27 484.804C1332.18 484.504 1331.98 484.248 1331.71 484.083C1331.44 483.918 1331.12 483.857 1330.81 483.909L1327.92 484.782C1328.78 482.079 1329.52 479.359 1330.1 476.586L1334.72 475.929C1335.03 475.848 1335.3 475.654 1335.48 475.385C1335.66 475.116 1335.73 474.791 1335.68 474.472C1335.63 474.154 1335.47 473.864 1335.22 473.659C1334.97 473.454 1334.66 473.348 1334.34 473.362L1330.74 473.914C1331.14 471.145 1331.53 468.376 1331.93 465.607C1333.57 465.56 1335.63 465.886 1335.62 464.22C1335.6 462.555 1333.75 462.98 1332.11 463.027C1332.32 459.833 1332.35 456.63 1332.2 453.432L1335.28 453.873C1335.59 453.87 1335.89 453.755 1336.12 453.55C1336.36 453.344 1336.51 453.062 1336.56 452.754C1336.6 452.445 1336.53 452.132 1336.37 451.869C1336.2 451.606 1335.94 451.411 1335.65 451.32L1332.11 450.812C1331.94 448.276 1331.64 445.784 1331.24 443.278C1332.93 443.521 1334.92 444.529 1335.32 442.889C1335.71 441.25 1333.1 441.064 1330.79 440.544C1329.72 434.743 1328.08 429.06 1325.91 423.579C1325.86 423.4 1325.77 423.234 1325.65 423.09C1325.54 422.947 1325.39 422.83 1325.23 422.748C1325.06 422.666 1324.88 422.619 1324.69 422.612C1324.51 422.605 1324.32 422.637 1324.15 422.707C1323.98 422.777 1323.83 422.882 1323.7 423.016C1323.57 423.15 1323.47 423.309 1323.41 423.484C1323.35 423.659 1323.33 423.844 1323.34 424.029C1323.36 424.213 1323.41 424.392 1323.5 424.553C1325.46 429.531 1326.96 434.675 1327.99 439.922Z" fill="#6A7282"/>
<path d="M1369.51 545.991C1369.53 542.795 1369.28 539.602 1368.78 536.445L1379.68 536.629C1376.75 544.343 1374.28 547.6 1369.51 545.991Z" fill="#6A7282"/>
<path d="M1367.97 531.635C1367.5 529.005 1367.02 526.345 1366.63 523.607L1384.39 522.821C1383.3 525.759 1382.36 528.731 1381.32 531.841L1367.97 531.635Z" fill="#6A7282"/>
<path d="M1420.7 498.404L1368.79 499.736C1379.49 467.693 1411.31 472.732 1420.7 498.404Z" fill="#6A7282"/>
<path d="M1397.18 517.444C1396.28 514.558 1395.11 512.566 1393.99 512.308C1390.96 511.61 1388.49 514.038 1386.51 517.919L1366.18 518.813C1365.89 514.035 1366.29 509.24 1367.39 504.58L1422.22 503.186C1423.26 507.499 1423.51 511.966 1422.94 516.367L1397.18 517.444Z" fill="#6A7282"/>
<path d="M1400.46 532.236C1399.77 528.886 1399.16 525.301 1398.47 522.207L1422.01 521.254C1421.23 525.573 1420.53 529.303 1419.86 532.625L1400.46 532.236Z" fill="#6A7282"/>
<path d="M1407.47 553.307C1404.75 552.679 1402.93 545.339 1401.37 537.036L1418.9 537.347C1417.46 543.616 1416.37 548.311 1415.19 553.459C1412.66 554.203 1409.97 554.15 1407.47 553.307Z" fill="#6A7282"/>
<path d="M1415.42 616.092L1356.3 601.633C1357.43 599.245 1358.66 596.946 1360.01 594.674L1416.24 602.853C1416.38 607.282 1416.11 611.714 1415.42 616.092Z" fill="#6A7282"/>
<path d="M1408.48 637.201L1351.66 613.48C1352.66 610.287 1353.84 607.151 1355.19 604.089L1414.9 618.491C1413.35 624.914 1411.2 631.178 1408.48 637.201Z" fill="#6A7282"/>
<path d="M1399.78 653.088L1348.99 624.348C1349.49 621.488 1350.14 618.658 1350.95 615.868L1407.31 639.514C1405.13 644.213 1402.61 648.749 1399.78 653.088Z" fill="#6A7282"/>
<path d="M1347.69 636.073C1347.81 633.064 1348.1 630.063 1348.55 627.086L1398.33 655.211C1395.24 659.666 1391.74 663.825 1387.88 667.632L1347.69 636.073Z" fill="#6A7282"/>
<path d="M1347.62 639.278L1385.96 669.424C1376.56 677.845 1366.04 682.404 1355.77 680.037C1329.91 674.074 1336.85 625.695 1338.38 619.032C1344.56 592.26 1354.42 582.413 1361.4 571.774C1385.64 567.604 1395.23 584.391 1397.2 584.845C1399.17 585.299 1404.39 581.335 1408.54 582.291C1411.02 583.369 1413.3 584.865 1415.27 586.714C1415.66 591.268 1416.01 595.815 1416.18 600.192L1361.45 592.295C1364.33 587.823 1367.59 583.613 1371.21 579.714C1371.33 579.589 1371.41 579.444 1371.47 579.285C1371.53 579.126 1371.56 578.957 1371.55 578.789C1371.54 578.62 1371.5 578.454 1371.43 578.3C1371.36 578.147 1371.26 578.009 1371.14 577.894C1371.01 577.78 1370.87 577.691 1370.71 577.633C1370.55 577.575 1370.38 577.548 1370.21 577.555C1370.04 577.562 1369.88 577.602 1369.72 577.673C1369.57 577.744 1369.43 577.845 1369.32 577.969C1365.32 582.298 1361.75 586.996 1358.65 592C1356.3 591.682 1353.77 590.876 1353.57 592.584C1353.37 594.291 1355.54 594.153 1357.23 594.416C1355.96 596.611 1354.78 598.827 1353.71 601.131C1351.4 600.6 1349.12 599.436 1348.7 601.253C1348.28 603.07 1350.89 603.098 1352.65 603.502C1351.36 606.444 1350.23 609.452 1349.26 612.514C1347.75 611.878 1346.17 610.844 1345.57 612.363C1344.96 613.882 1346.99 614.35 1348.53 614.993C1347.75 617.683 1347.09 620.402 1346.65 623.17L1343.41 621.307C1343.11 621.178 1342.78 621.163 1342.48 621.265C1342.17 621.366 1341.91 621.577 1341.75 621.857C1341.59 622.137 1341.54 622.466 1341.61 622.781C1341.68 623.095 1341.86 623.374 1342.12 623.562L1346.19 625.84C1345.74 628.637 1345.44 631.44 1345.27 634.27C1343.84 633.143 1342.17 631.259 1341.06 632.599C1340.86 632.876 1340.77 633.218 1340.81 633.558C1340.85 633.898 1341.02 634.211 1341.28 634.434L1345.12 637.425C1344.93 643.375 1345.32 649.328 1346.28 655.203C1346.28 655.392 1346.32 655.578 1346.4 655.749C1346.48 655.92 1346.6 656.071 1346.74 656.194C1346.88 656.316 1347.05 656.406 1347.23 656.457C1347.41 656.508 1347.6 656.519 1347.79 656.49C1347.97 656.461 1348.15 656.392 1348.31 656.287C1348.47 656.183 1348.6 656.046 1348.7 655.885C1348.8 655.725 1348.86 655.545 1348.88 655.358C1348.9 655.171 1348.89 654.982 1348.83 654.802C1347.96 649.675 1347.55 644.479 1347.62 639.278Z" fill="#6A7282"/>
<path d="M1462.31 74.1518C1461.84 70.9894 1461.12 67.8703 1460.15 64.8251L1470.95 63.3642C1469.22 71.431 1467.26 75.0239 1462.31 74.1518Z" fill="#6A7282"/>
<path d="M1458.63 60.1917C1457.76 57.6639 1456.89 55.105 1456.09 52.4579L1473.53 49.0038C1472.89 52.0726 1472.41 55.1531 1471.85 58.3839L1458.63 60.1917Z" fill="#6A7282"/>
<path d="M1505.74 19.3916L1454.62 28.5342C1460.38 -4.75615 1492.59 -4.57123 1505.74 19.3916Z" fill="#6A7282"/>
<path d="M1485.36 41.7599C1484.03 39.0421 1482.58 37.2493 1481.43 37.1629C1478.33 36.9292 1476.25 39.7022 1474.88 43.8377L1454.92 47.7867C1453.91 43.107 1453.59 38.3055 1453.97 33.5334L1507.96 23.8907C1509.64 27.9965 1510.56 32.3755 1510.66 36.8112L1485.36 41.7599Z" fill="#6A7282"/>
<path d="M1490.84 55.8877C1489.64 52.681 1488.5 49.2287 1487.35 46.2747L1510.48 41.7845C1510.36 46.1708 1510.23 49.9635 1510.07 53.3486L1490.84 55.8877Z" fill="#6A7282"/>
<path d="M1500.94 75.6622C1498.15 75.4519 1495.25 68.4696 1492.45 60.4979L1509.83 58.1617C1509.35 64.5771 1508.99 69.3809 1508.59 74.6495C1506.2 75.7657 1503.53 76.1194 1500.94 75.6622Z" fill="#6A7282"/>
<path d="M1518.26 136.531L1457.64 131.149C1458.39 128.619 1459.26 126.16 1460.26 123.71L1517.08 123.319C1517.89 127.676 1518.28 132.099 1518.26 136.531Z" fill="#6A7282"/>
<path d="M1514.58 158.445L1454.83 143.561C1455.34 140.252 1456.04 136.975 1456.91 133.744L1518.11 138.981C1517.54 145.565 1516.36 152.081 1514.58 158.445Z" fill="#6A7282"/>
<path d="M1508.37 175.462L1453.84 154.706C1453.9 151.804 1454.12 148.907 1454.49 146.028L1513.77 160.909C1512.32 165.882 1510.52 170.746 1508.37 175.462Z" fill="#6A7282"/>
<path d="M1454.32 166.493C1453.98 163.5 1453.81 160.49 1453.81 157.478L1507.27 177.778C1504.88 182.649 1502.05 187.287 1498.8 191.633L1454.32 166.493Z" fill="#6A7282"/>
<path d="M1454.73 169.672L1497.18 193.693C1489.15 203.436 1479.44 209.529 1468.93 208.737C1442.46 206.741 1442.04 157.868 1442.55 151.05C1444.62 123.653 1452.88 112.432 1458.18 100.863C1481.52 93.0854 1493.53 108.235 1495.54 108.387C1497.56 108.539 1502.12 103.834 1506.36 104.154C1508.98 104.845 1511.46 105.98 1513.69 107.511C1514.75 111.955 1515.79 116.397 1516.62 120.698L1461.32 121.141C1463.49 116.286 1466.09 111.632 1469.07 107.233C1469.17 107.092 1469.23 106.935 1469.27 106.769C1469.3 106.603 1469.3 106.433 1469.27 106.267C1469.24 106.101 1469.17 105.943 1469.08 105.802C1468.99 105.661 1468.87 105.54 1468.73 105.445C1468.58 105.351 1468.43 105.285 1468.26 105.251C1468.1 105.218 1467.93 105.217 1467.76 105.249C1467.59 105.282 1467.44 105.346 1467.29 105.44C1467.15 105.533 1467.03 105.653 1466.94 105.794C1463.64 110.674 1460.82 115.857 1458.51 121.272C1456.14 121.311 1453.52 120.896 1453.58 122.614C1453.63 124.333 1455.76 123.87 1457.47 123.874C1456.54 126.236 1455.71 128.604 1455 131.043C1452.64 130.866 1450.21 130.059 1450.07 131.919C1449.93 133.778 1452.51 133.412 1454.31 133.547C1453.48 136.649 1452.82 139.793 1452.32 142.966C1450.73 142.566 1449.01 141.782 1448.64 143.375C1448.28 144.967 1450.35 145.124 1451.97 145.527C1451.61 148.304 1451.37 151.091 1451.34 153.895L1447.86 152.541C1447.55 152.458 1447.22 152.494 1446.93 152.64C1446.64 152.787 1446.42 153.034 1446.31 153.335C1446.19 153.635 1446.19 153.968 1446.31 154.269C1446.42 154.57 1446.64 154.818 1446.93 154.964L1451.29 156.603C1451.27 159.437 1451.4 162.252 1451.65 165.076C1450.07 164.178 1448.13 162.567 1447.24 164.058C1447.08 164.362 1447.05 164.714 1447.14 165.044C1447.23 165.374 1447.44 165.658 1447.73 165.84L1451.98 168.218C1452.69 174.127 1453.97 179.954 1455.81 185.618C1455.84 185.804 1455.9 185.982 1456.01 186.139C1456.11 186.296 1456.25 186.428 1456.41 186.528C1456.57 186.627 1456.75 186.69 1456.94 186.714C1457.12 186.737 1457.31 186.719 1457.49 186.662C1457.67 186.605 1457.84 186.51 1457.98 186.383C1458.12 186.256 1458.23 186.101 1458.3 185.928C1458.37 185.754 1458.41 185.567 1458.4 185.379C1458.4 185.19 1458.35 185.006 1458.27 184.837C1456.63 179.9 1455.45 174.824 1454.73 169.672Z" fill="#6A7282"/>
</svg>
