<svg width="1312" height="2059" viewBox="0 0 1312 2059" fill="none" xmlns="http://www.w3.org/2000/svg">
<path d="M1027.67 1247.28C1030.89 1252.04 1035.87 1249.47 1041.42 1245.99L1032.85 1239.22C1031.36 1242.05 1029.62 1244.75 1027.67 1247.28Z" fill="#6A7282"/>
<path d="M1045.71 1243.27C1048.3 1241.53 1051.04 1239.57 1053.62 1237.95L1039.02 1227.82C1037.65 1230.21 1036.44 1232.6 1035.24 1235L1045.71 1243.27Z" fill="#6A7282"/>
<path d="M1055.19 1210.09L1097.31 1240.64C1105.3 1214.56 1083.29 1190.99 1055.19 1210.09Z" fill="#6A7282"/>
<path d="M1041.5 1223.66L1058.22 1235.27C1062.14 1233.38 1065.5 1232.85 1067.57 1235.33C1068.38 1236.31 1068.02 1238.51 1066.99 1241.35L1088.14 1256.1C1091.29 1252.99 1093.83 1249.33 1095.65 1245.29L1051.2 1213.17C1047.47 1216.16 1044.19 1219.7 1041.5 1223.66Z" fill="#6A7282"/>
<path d="M1060.78 1255.04L1076.03 1267.1C1078.63 1264.93 1081.39 1262.32 1084.6 1259.33L1065.32 1245.85C1063.9 1248.81 1062.28 1251.97 1060.78 1255.04Z" fill="#6A7282"/>
<path d="M1053.5 1276.17C1054.96 1278.38 1057.1 1280.06 1059.59 1280.97C1063.62 1277.61 1067.33 1274.53 1072.28 1270.42L1058.51 1259.55C1054.68 1267.14 1051.71 1274.02 1053.5 1276.17Z" fill="#6A7282"/>
<path d="M983.508 1283.62L1021.79 1330.94C1024.98 1327.87 1027.89 1324.51 1030.46 1320.9L990.651 1280.35C988.222 1281.32 985.849 1282.4 983.508 1283.62Z" fill="#6A7282"/>
<path d="M1003.5 1343.51C1009.28 1340.38 1014.75 1336.73 1019.85 1332.59L981.21 1284.84C978.287 1286.45 975.456 1288.23 972.731 1290.15L1003.5 1343.51Z" fill="#6A7282"/>
<path d="M963.932 1297.26L986.929 1350.9C991.826 1349.18 996.596 1347.12 1001.2 1344.73L970.624 1291.7C968.296 1293.44 966.062 1295.29 963.932 1297.26Z" fill="#6A7282"/>
<path d="M968.649 1355.26C974.029 1354.57 979.332 1353.38 984.492 1351.71L961.948 1299.16C959.773 1301.26 957.718 1303.48 955.795 1305.81L968.649 1355.26Z" fill="#6A7282"/>
<path d="M993.263 1279.31L1032.02 1318.75C1034.54 1315.16 1037.01 1311.33 1039.46 1307.47C1039.01 1304.81 1038.1 1302.24 1036.79 1299.88C1034.05 1296.58 1027.75 1296.88 1026.2 1295.02C1024.65 1293.15 1027.49 1274.3 1005.68 1262.93C993.676 1267.17 979.865 1269.03 958.712 1286.61C953.478 1290.96 918.623 1325.27 935.589 1345.68C942.304 1353.76 953.458 1356.53 966.066 1355.51L953.778 1308.29C950.602 1312.4 947.791 1316.78 945.377 1321.38C945.312 1321.55 945.21 1321.71 945.08 1321.84C944.949 1321.97 944.792 1322.07 944.619 1322.13C944.447 1322.2 944.262 1322.23 944.078 1322.22C943.893 1322.21 943.713 1322.16 943.55 1322.07C943.386 1321.98 943.243 1321.86 943.129 1321.72C943.015 1321.57 942.933 1321.41 942.889 1321.23C942.845 1321.05 942.839 1320.86 942.873 1320.68C942.906 1320.5 942.978 1320.32 943.083 1320.17C945.909 1314.9 949.237 1309.92 953.018 1305.29L951.798 1300.56C951.765 1300.25 951.845 1299.93 952.025 1299.67C952.206 1299.42 952.473 1299.23 952.778 1299.15C953.084 1299.08 953.407 1299.11 953.688 1299.26C953.968 1299.4 954.188 1299.64 954.306 1299.93L955.051 1302.87C956.904 1300.72 958.86 1298.65 960.892 1296.72L959.059 1292.42C958.927 1292.11 958.925 1291.76 959.053 1291.44C959.182 1291.13 959.43 1290.88 959.744 1290.74C960.057 1290.61 960.411 1290.61 960.726 1290.74C961.041 1290.87 961.292 1291.11 961.424 1291.43L962.896 1294.85C965.047 1293.06 967.198 1291.28 969.326 1289.51C968.508 1288.09 967.177 1286.48 968.579 1285.64C969.98 1284.8 970.635 1286.56 971.453 1287.98C974.069 1286.14 976.782 1284.44 979.581 1282.88L977.594 1280.49C977.435 1280.23 977.375 1279.91 977.428 1279.6C977.48 1279.3 977.641 1279.02 977.88 1278.82C978.12 1278.62 978.422 1278.51 978.734 1278.52C979.045 1278.52 979.345 1278.64 979.578 1278.84L981.863 1281.59C984.089 1280.43 986.394 1279.36 988.735 1278.39C987.523 1277.17 985.742 1275.9 986.909 1274.73C988.077 1273.56 989.65 1275.65 991.303 1277.34C996.799 1275.23 1002.49 1273.65 1008.29 1272.64C1008.46 1272.58 1008.65 1272.55 1008.83 1272.57C1009.01 1272.59 1009.19 1272.64 1009.35 1272.73C1009.51 1272.82 1009.65 1272.95 1009.76 1273.1C1009.87 1273.25 1009.94 1273.42 1009.97 1273.6C1010.01 1273.78 1010 1273.96 1009.96 1274.14C1009.92 1274.32 1009.83 1274.49 1009.72 1274.63C1009.61 1274.78 1009.46 1274.89 1009.3 1274.98C1009.13 1275.06 1008.95 1275.11 1008.77 1275.11C1003.49 1276.05 998.296 1277.45 993.263 1279.31Z" fill="#6A7282"/>
<path d="M899.948 1267.95C902.812 1266.53 905.787 1265.34 908.842 1264.4L903.855 1254.72C898.218 1260.74 896.382 1264.4 899.948 1267.95Z" fill="#6A7282"/>
<path d="M913.516 1263.01C916.088 1262.28 918.659 1261.55 921.289 1260.69L914.177 1244.4C912.02 1246.68 909.765 1248.83 907.429 1251.13L913.516 1263.01Z" fill="#6A7282"/>
<path d="M920.135 1201.03L941.875 1248.33C965.853 1224.51 947.199 1198.26 920.135 1201.03Z" fill="#6A7282"/>
<path d="M913.375 1230.56C916.385 1230.07 918.663 1230.26 919.389 1231.16C921.349 1233.57 920.258 1236.86 917.645 1240.34L925.794 1258.99C930.22 1257.14 934.354 1254.66 938.066 1251.62L915.151 1201.8C910.817 1202.75 906.697 1204.5 902.998 1206.95L913.375 1230.56Z" fill="#6A7282"/>
<path d="M898.67 1234.1C902.105 1233.15 905.495 1232.2 908.552 1231.47L899.046 1209.92C895.484 1212.54 892.443 1214.81 889.78 1216.85L898.67 1234.1Z" fill="#6A7282"/>
<path d="M876.665 1237.09C878.43 1239.26 885.82 1237.66 893.962 1235.4L885.938 1219.82C880.946 1223.87 877.208 1226.91 873.132 1230.23C873.552 1232.83 874.79 1235.23 876.665 1237.09Z" fill="#6A7282"/>
<path d="M816.795 1257.59L855.806 1304.31C857.431 1302.27 858.977 1300.13 860.397 1297.93L828.345 1251.01C824.297 1252.84 820.43 1255.04 816.795 1257.59Z" fill="#6A7282"/>
<path d="M800.898 1273.12L847.287 1313.63C849.706 1311.33 851.993 1308.9 854.137 1306.34L814.774 1259.2C809.726 1263.4 805.08 1268.06 800.898 1273.12Z" fill="#6A7282"/>
<path d="M790.465 1287.93L838.606 1320.89C840.962 1319.18 843.224 1317.34 845.383 1315.38L799.336 1275.19C796.079 1279.22 793.114 1283.47 790.465 1287.93Z" fill="#6A7282"/>
<path d="M828.675 1327.2C831.327 1325.77 833.894 1324.19 836.366 1322.47L789.172 1290.18C786.541 1294.91 784.357 1299.88 782.647 1305.02L828.675 1327.2Z" fill="#6A7282"/>
<path d="M825.827 1328.67L781.88 1307.52C778.436 1319.69 778.976 1331.15 785.622 1339.33C802.363 1359.92 842.768 1332.37 848.049 1328.07C869.394 1310.72 873.893 1297.54 880.37 1286.58C873.44 1262.98 854.145 1261.76 852.871 1260.19C851.597 1258.62 852.833 1252.21 850.147 1248.91C848.088 1247.15 845.742 1245.77 843.213 1244.81C838.954 1246.47 834.715 1248.15 830.71 1249.93L862.018 1295.49C864.797 1290.92 867.164 1286.12 869.091 1281.13C869.134 1280.95 869.215 1280.78 869.328 1280.64C869.442 1280.49 869.585 1280.37 869.749 1280.28C869.912 1280.2 870.092 1280.15 870.277 1280.13C870.462 1280.12 870.647 1280.15 870.82 1280.22C870.993 1280.28 871.15 1280.38 871.281 1280.51C871.412 1280.64 871.514 1280.8 871.58 1280.97C871.646 1281.15 871.674 1281.33 871.663 1281.52C871.652 1281.7 871.601 1281.88 871.515 1282.05C869.378 1287.54 866.724 1292.82 863.59 1297.82C864.935 1299.77 866.866 1301.6 865.302 1302.64C863.737 1303.67 863.027 1301.56 862.069 1300.14C860.658 1302.24 859.165 1304.3 857.593 1306.26C859.082 1308.09 861.109 1309.65 859.686 1310.81C858.263 1311.96 857.066 1309.65 855.905 1308.27C853.84 1310.72 851.645 1313.05 849.328 1315.26C850.565 1316.34 852.164 1317.32 851.067 1318.53C849.97 1319.74 848.681 1318.11 847.425 1317.01C845.352 1318.89 843.201 1320.68 840.913 1322.3L843.987 1324.41C844.127 1324.5 844.247 1324.62 844.34 1324.76C844.433 1324.9 844.497 1325.06 844.529 1325.23C844.594 1325.56 844.524 1325.91 844.333 1326.19C844.143 1326.47 843.849 1326.66 843.515 1326.73C843.181 1326.79 842.834 1326.72 842.552 1326.53L838.692 1323.9C836.404 1325.52 833.994 1327.04 831.553 1328.43C833.171 1329.23 835.623 1329.88 834.883 1331.49C834.724 1331.78 834.459 1332.01 834.14 1332.12C833.822 1332.23 833.473 1332.22 833.164 1332.08L828.789 1329.95C823.487 1332.76 817.924 1335.04 812.178 1336.76C812.008 1336.85 811.823 1336.89 811.635 1336.9C811.447 1336.9 811.26 1336.86 811.087 1336.79C810.914 1336.71 810.759 1336.6 810.634 1336.46C810.508 1336.32 810.414 1336.16 810.358 1335.98C810.303 1335.8 810.287 1335.61 810.311 1335.42C810.336 1335.23 810.401 1335.05 810.501 1334.9C810.602 1334.74 810.736 1334.6 810.893 1334.5C811.051 1334.39 811.229 1334.33 811.416 1334.3C816.38 1332.86 821.203 1330.98 825.827 1328.67Z" fill="#6A7282"/>
<path d="M1089.97 570.147C1089.09 567.076 1088.45 563.937 1088.07 560.763L1077.65 563.942C1082.57 570.564 1085.84 573.022 1089.97 570.147Z" fill="#6A7282"/>
<path d="M1087.53 555.916C1087.28 553.255 1087.02 550.595 1086.65 547.855L1069.35 551.945C1071.2 554.473 1072.92 557.076 1074.76 559.786L1087.53 555.916Z" fill="#6A7282"/>
<path d="M1027.74 538.34L1078.15 525.392C1059 497.547 1029.84 511.216 1027.74 538.34Z" fill="#6A7282"/>
<path d="M1055.58 550.262C1055.64 547.214 1056.24 545.006 1057.24 544.452C1059.97 542.954 1063.01 544.614 1065.97 547.808L1085.78 543.119C1084.75 538.433 1083.04 533.923 1080.71 529.728L1027.6 543.381C1027.77 547.816 1028.75 552.181 1030.5 556.259L1055.58 550.262Z" fill="#6A7282"/>
<path d="M1056.44 565.363C1056.12 561.814 1055.79 558.308 1055.62 555.171L1032.72 560.678C1034.66 564.649 1036.35 568.046 1037.89 571.032L1056.44 565.363Z" fill="#6A7282"/>
<path d="M1055.45 587.548C1057.9 586.199 1057.65 578.642 1056.88 570.229L1040.11 575.341C1043.22 580.977 1045.54 585.198 1048.07 589.8C1050.71 589.851 1053.29 589.062 1055.45 587.548Z" fill="#6A7282"/>
<path d="M1064.94 650.117L1117.87 620.071C1116.15 618.108 1114.32 616.205 1112.42 614.416L1060.53 637.577C1061.6 641.887 1063.08 646.085 1064.94 650.117Z" fill="#6A7282"/>
<path d="M1077.38 668.53L1125.53 630.118C1123.7 627.327 1121.71 624.643 1119.58 622.076L1066.16 652.392C1069.39 658.108 1073.15 663.511 1077.38 668.53Z" fill="#6A7282"/>
<path d="M1090.09 681.439L1131.12 639.955C1129.85 637.331 1128.44 634.777 1126.91 632.303L1079.14 670.436C1082.52 674.36 1086.18 678.037 1090.09 681.439Z" fill="#6A7282"/>
<path d="M1135.55 650.853C1134.62 647.989 1133.52 645.18 1132.27 642.441L1092.07 683.113C1096.26 686.546 1100.76 689.582 1105.51 692.182L1135.55 650.853Z" fill="#6A7282"/>
<path d="M1136.49 653.918L1107.84 693.384C1119.2 698.945 1130.57 700.459 1139.8 695.379C1163.05 682.583 1143.15 637.909 1139.87 631.946C1126.61 607.848 1114.44 601.066 1104.81 592.738C1080.35 595.343 1075.71 614.11 1073.94 615.084C1072.17 616.058 1066.08 613.697 1062.35 615.75C1060.26 617.463 1058.48 619.524 1057.08 621.841C1057.95 626.328 1058.85 630.799 1059.88 635.057L1110.3 612.385C1106.31 608.836 1102 605.649 1097.44 602.863C1097.27 602.788 1097.12 602.678 1096.99 602.541C1096.87 602.403 1096.78 602.241 1096.72 602.064C1096.67 601.888 1096.65 601.702 1096.67 601.518C1096.69 601.334 1096.75 601.157 1096.85 600.998C1096.94 600.839 1097.07 600.703 1097.22 600.597C1097.37 600.491 1097.54 600.419 1097.73 600.385C1097.91 600.352 1098.1 600.357 1098.28 600.401C1098.46 600.445 1098.62 600.527 1098.77 600.641C1103.8 603.724 1108.52 607.278 1112.88 611.254C1115.03 610.279 1117.18 608.706 1117.92 610.43C1118.66 612.153 1116.46 612.476 1114.88 613.164C1116.71 614.929 1118.46 616.765 1120.11 618.662C1122.18 617.523 1124.07 615.807 1124.96 617.413C1125.84 619.02 1123.35 619.786 1121.79 620.682C1123.83 623.15 1125.73 625.726 1127.49 628.4C1128.77 627.376 1130.02 625.977 1131.02 627.273C1132.02 628.569 1130.18 629.546 1128.87 630.585C1130.35 632.961 1131.73 635.396 1132.91 637.937L1135.54 635.288C1135.65 635.168 1135.79 635.071 1135.95 635.005C1136.1 634.938 1136.27 634.903 1136.44 634.901C1136.78 634.897 1137.11 635.028 1137.35 635.265C1137.59 635.503 1137.73 635.828 1137.74 636.168C1137.74 636.508 1137.61 636.836 1137.37 637.08L1134.1 640.408C1135.28 642.949 1136.35 645.592 1137.27 648.24C1138.35 646.792 1139.43 644.496 1140.88 645.51C1141.14 645.719 1141.32 646.021 1141.37 646.354C1141.42 646.687 1141.35 647.028 1141.16 647.308L1138.28 651.232C1140.1 656.95 1141.35 662.831 1142.02 668.793C1142.07 668.974 1142.08 669.164 1142.05 669.35C1142.02 669.536 1141.95 669.714 1141.85 669.87C1141.74 670.027 1141.61 670.159 1141.45 670.258C1141.28 670.357 1141.11 670.42 1140.92 670.442C1140.73 670.465 1140.54 670.447 1140.36 670.389C1140.18 670.332 1140.02 670.236 1139.88 670.108C1139.74 669.981 1139.63 669.825 1139.56 669.652C1139.48 669.478 1139.45 669.291 1139.46 669.102C1138.93 663.962 1137.94 658.88 1136.49 653.918Z" fill="#6A7282"/>
<path d="M1232.99 750.792C1238.73 750.57 1239.16 744.953 1239.11 738.43L1228.84 742.154C1230.47 744.909 1231.85 747.799 1232.99 750.792Z" fill="#6A7282"/>
<path d="M1239.04 733.354C1238.91 730.233 1238.68 726.875 1238.65 723.802L1222.37 730.926C1223.69 733.344 1225.09 735.657 1226.51 737.934L1239.04 733.354Z" fill="#6A7282"/>
<path d="M1215.76 707.883L1263.84 687.939C1245.83 667.526 1214.22 673.946 1215.76 707.883Z" fill="#6A7282"/>
<path d="M1220.13 726.63L1238.77 718.479C1239.22 714.145 1240.54 711.007 1243.74 710.551C1245 710.371 1246.68 711.827 1248.56 714.227L1272.21 703.919C1271.2 699.613 1269.41 695.526 1266.94 691.861L1216.29 712.893C1216.88 717.638 1218.17 722.268 1220.13 726.63Z" fill="#6A7282"/>
<path d="M1256.98 726.809L1275.24 720.126C1274.76 716.772 1273.98 713.084 1273.11 708.75L1251.53 718.105C1253.29 720.773 1255.13 723.776 1256.98 726.809Z" fill="#6A7282"/>
<path d="M1271.13 743.943C1273.78 743.862 1276.33 742.937 1278.41 741.304C1277.67 736.073 1276.99 731.335 1276.08 724.935L1259.61 730.956C1264.05 738.139 1268.36 744.338 1271.13 743.943Z" fill="#6A7282"/>
<path d="M1240.78 807.447L1301.14 799.661C1300.21 795.318 1298.87 791.073 1297.14 786.983L1241.74 799.65C1241.29 802.226 1240.97 804.845 1240.78 807.447Z" fill="#6A7282"/>
<path d="M1302.26 821.852C1302.63 815.296 1302.39 808.72 1301.53 802.209L1240.62 810.075C1240.46 813.408 1240.48 816.748 1240.7 820.078L1302.26 821.852Z" fill="#6A7282"/>
<path d="M1242.14 831.301L1299.86 839.807C1300.97 834.738 1301.72 829.595 1302.09 824.419L1240.91 822.654C1241.16 825.556 1241.58 828.442 1242.14 831.301Z" fill="#6A7282"/>
<path d="M1293.99 857.659C1296.26 852.723 1298.07 847.589 1299.4 842.321L1242.83 833.964C1243.48 836.906 1244.29 839.809 1245.27 842.659L1293.99 857.659Z" fill="#6A7282"/>
<path d="M1242.23 796.88L1296.13 784.582C1294.4 780.56 1292.43 776.445 1290.43 772.335C1287.93 771.304 1285.26 770.718 1282.56 770.6C1278.31 771.205 1275.27 776.725 1272.87 777.067C1270.47 777.409 1255.91 765.137 1234.79 777.753C1232.11 790.191 1226.45 802.927 1230.33 830.158C1231.29 836.896 1242.23 884.563 1268.5 880.818C1278.9 879.336 1287.11 871.291 1292.85 860.019L1246.22 845.82C1248.05 850.69 1250.3 855.39 1252.96 859.865C1253.08 860.012 1253.16 860.182 1253.21 860.365C1253.26 860.547 1253.26 860.738 1253.23 860.923C1253.19 861.108 1253.12 861.284 1253.01 861.437C1252.9 861.591 1252.76 861.72 1252.6 861.814C1252.43 861.908 1252.25 861.966 1252.07 861.984C1251.88 862.001 1251.69 861.978 1251.51 861.916C1251.33 861.853 1251.17 861.753 1251.04 861.622C1250.9 861.491 1250.8 861.332 1250.73 861.156C1247.68 855.989 1245.15 850.535 1243.16 844.874L1238.5 843.465C1238.22 843.33 1237.99 843.096 1237.87 842.808C1237.74 842.519 1237.73 842.194 1237.82 841.894C1237.92 841.594 1238.12 841.338 1238.39 841.173C1238.65 841.009 1238.97 840.948 1239.28 841L1242.17 841.876C1241.32 839.172 1240.58 836.451 1240 833.677L1235.38 833.017C1235.07 832.935 1234.8 832.741 1234.62 832.472C1234.45 832.203 1234.38 831.878 1234.42 831.559C1234.47 831.241 1234.64 830.951 1234.88 830.746C1235.13 830.542 1235.45 830.436 1235.77 830.45L1239.46 831.023C1239.07 828.253 1238.67 825.484 1238.28 822.715C1236.64 822.666 1234.58 822.991 1234.6 821.325C1234.61 819.659 1236.46 820.086 1238.1 820.135C1237.9 816.94 1237.87 813.737 1238.02 810.54L1234.94 810.978C1234.63 810.974 1234.33 810.859 1234.1 810.653C1233.86 810.448 1233.71 810.165 1233.67 809.857C1233.62 809.549 1233.69 809.235 1233.86 808.972C1234.02 808.709 1234.28 808.515 1234.58 808.424L1238.12 807.92C1238.29 805.384 1238.59 802.892 1238.99 800.387C1237.3 800.628 1235.31 801.634 1234.92 799.994C1234.52 798.354 1237.14 798.171 1239.45 797.653C1240.52 791.853 1242.16 786.172 1244.35 780.693C1244.39 780.514 1244.48 780.347 1244.6 780.204C1244.71 780.061 1244.86 779.944 1245.03 779.862C1245.19 779.78 1245.37 779.734 1245.56 779.727C1245.74 779.72 1245.93 779.752 1246.1 779.822C1246.27 779.892 1246.42 779.997 1246.55 780.132C1246.68 780.266 1246.78 780.425 1246.84 780.6C1246.9 780.774 1246.92 780.96 1246.91 781.145C1246.89 781.329 1246.83 781.508 1246.74 781.669C1244.79 786.595 1243.28 791.685 1242.23 796.88Z" fill="#6A7282"/>
<path d="M1220.31 1030.49C1224.76 1034.14 1228.8 1030.22 1233.1 1025.31L1222.94 1021.28C1222.33 1024.42 1221.45 1027.5 1220.31 1030.49Z" fill="#6A7282"/>
<path d="M1236.42 1021.47C1238.39 1019.05 1240.45 1016.39 1242.47 1014.07L1225.56 1008.59C1224.94 1011.27 1224.45 1013.93 1224 1016.57L1236.42 1021.47Z" fill="#6A7282"/>
<path d="M1235.91 986.964L1285.11 1003.97C1285.19 976.743 1257.29 960.561 1235.91 986.964Z" fill="#6A7282"/>
<path d="M1226.73 1003.88L1246.09 1010.17C1249.31 1007.22 1252.37 1005.75 1255.06 1007.53C1256.13 1008.23 1256.42 1010.44 1256.23 1013.48L1280.76 1021.47C1282.87 1017.58 1284.24 1013.34 1284.83 1008.96L1232.98 991.061C1230.27 995.001 1228.17 999.323 1226.73 1003.88Z" fill="#6A7282"/>
<path d="M1254.18 1028.48L1272.27 1035.6C1274.14 1032.78 1276.01 1029.5 1278.23 1025.69L1255.88 1018.35C1255.43 1021.52 1254.81 1024.99 1254.18 1028.48Z" fill="#6A7282"/>
<path d="M1253.39 1050.69C1255.42 1052.39 1257.94 1053.39 1260.59 1053.55C1263.5 1049.14 1266.14 1045.15 1269.71 1039.76L1253.39 1033.33C1251.95 1041.65 1251.05 1049.15 1253.39 1050.69Z" fill="#6A7282"/>
<path d="M1188.53 1078.04L1238.84 1112.28C1241.03 1108.42 1242.84 1104.35 1244.26 1100.14L1194.43 1072.84C1192.38 1074.47 1190.41 1076.22 1188.53 1078.04Z" fill="#6A7282"/>
<path d="M1224.95 1129.62C1229.58 1124.96 1233.76 1119.88 1237.45 1114.45L1186.67 1079.9C1184.33 1082.28 1182.14 1084.79 1180.08 1087.43L1224.95 1129.62Z" fill="#6A7282"/>
<path d="M1173.71 1096.78L1211.24 1141.46C1215.43 1138.4 1219.4 1135.05 1223.12 1131.43L1178.53 1089.49C1176.8 1091.83 1175.19 1094.27 1173.71 1096.78Z" fill="#6A7282"/>
<path d="M1195 1150.91C1199.97 1148.73 1204.73 1146.09 1209.22 1143.03L1172.46 1099.23C1171 1101.86 1169.68 1104.57 1168.51 1107.35L1195 1150.91Z" fill="#6A7282"/>
<path d="M1196.63 1071.09L1245.11 1097.68C1246.48 1093.52 1247.74 1089.14 1248.98 1084.74C1247.79 1082.3 1246.18 1080.1 1244.24 1078.21C1240.66 1075.85 1234.72 1077.95 1232.7 1076.62C1230.68 1075.28 1227.93 1056.44 1203.76 1051.85C1193.5 1059.37 1180.81 1065.14 1165.64 1088.08C1161.88 1093.76 1138.42 1136.67 1160.56 1151.31C1169.32 1157.11 1180.8 1156.54 1192.58 1151.92L1167.13 1110.34C1165.26 1115.2 1163.83 1120.21 1162.84 1125.32C1162.84 1125.51 1162.79 1125.7 1162.7 1125.86C1162.61 1126.03 1162.49 1126.18 1162.34 1126.29C1162.19 1126.41 1162.02 1126.49 1161.84 1126.53C1161.65 1126.58 1161.46 1126.58 1161.28 1126.54C1161.09 1126.5 1160.92 1126.43 1160.77 1126.31C1160.62 1126.2 1160.49 1126.06 1160.4 1125.9C1160.31 1125.73 1160.25 1125.55 1160.24 1125.36C1160.22 1125.17 1160.25 1124.98 1160.32 1124.81C1161.47 1118.92 1163.19 1113.16 1165.47 1107.61L1162.92 1103.46C1162.8 1103.17 1162.78 1102.85 1162.88 1102.55C1162.98 1102.25 1163.18 1102 1163.45 1101.83C1163.72 1101.67 1164.04 1101.61 1164.35 1101.67C1164.66 1101.72 1164.94 1101.89 1165.14 1102.14L1166.72 1104.71C1167.87 1102.12 1169.13 1099.6 1170.53 1097.13L1167.52 1093.58C1167.34 1093.31 1167.27 1092.98 1167.32 1092.66C1167.36 1092.35 1167.52 1092.06 1167.77 1091.85C1168.02 1091.64 1168.33 1091.54 1168.66 1091.55C1168.98 1091.56 1169.28 1091.69 1169.52 1091.91L1171.9 1094.79C1173.44 1092.46 1174.98 1090.13 1176.53 1087.79C1175.33 1086.67 1173.58 1085.55 1174.69 1084.31C1175.81 1083.07 1176.91 1084.62 1178.1 1085.75C1180.08 1083.22 1182.18 1080.81 1184.41 1078.52L1181.82 1076.8C1181.59 1076.59 1181.44 1076.31 1181.41 1076C1181.37 1075.69 1181.44 1075.38 1181.61 1075.12C1181.78 1074.86 1182.04 1074.67 1182.34 1074.58C1182.64 1074.5 1182.96 1074.52 1183.24 1074.65L1186.23 1076.62C1188.04 1074.84 1189.92 1073.18 1191.88 1071.57C1190.45 1070.62 1188.3 1070.05 1189.09 1068.57C1189.89 1067.08 1191.96 1068.68 1194.04 1069.83C1198.69 1066.2 1203.69 1063.04 1208.96 1060.39C1209.11 1060.29 1209.29 1060.22 1209.47 1060.19C1209.65 1060.16 1209.84 1060.17 1210.02 1060.22C1210.2 1060.27 1210.36 1060.36 1210.51 1060.48C1210.65 1060.59 1210.77 1060.74 1210.85 1060.91C1210.93 1061.07 1210.97 1061.25 1210.98 1061.44C1210.99 1061.62 1210.95 1061.81 1210.88 1061.98C1210.81 1062.15 1210.71 1062.3 1210.57 1062.43C1210.44 1062.56 1210.28 1062.66 1210.1 1062.72C1205.37 1065.1 1200.86 1067.9 1196.63 1071.09Z" fill="#6A7282"/>
<path d="M929.219 270.957C933.51 267.131 930.264 262.527 926.076 257.526L920.521 266.931C923.53 268.022 926.44 269.369 929.219 270.957Z" fill="#6A7282"/>
<path d="M922.798 253.65C920.712 251.325 918.4 248.878 916.423 246.527L908.39 262.381C910.945 263.408 913.493 264.304 916.04 265.156L922.798 253.65Z" fill="#6A7282"/>
<path d="M888.631 248.805L913.046 202.835C886.164 198.538 865.857 223.598 888.631 248.805Z" fill="#6A7282"/>
<path d="M903.926 260.493L913.13 242.342C910.721 238.712 909.736 235.457 911.915 233.07C912.775 232.129 914.999 232.181 917.977 232.837L929.667 209.843C926.15 207.161 922.174 205.143 917.933 203.888L892.224 252.337C895.697 255.622 899.641 258.372 903.926 260.493Z" fill="#6A7282"/>
<path d="M932.475 237.193L942.315 220.421C939.813 218.137 936.867 215.785 933.44 212.993L922.735 233.941C925.792 234.879 929.122 236.026 932.475 237.193Z" fill="#6A7282"/>
<path d="M954.293 241.412C956.284 239.666 957.665 237.329 958.235 234.743C954.333 231.181 950.798 227.954 946.023 223.596L937.143 238.718C945.142 241.433 952.407 243.478 954.293 241.412Z" fill="#6A7282"/>
<path d="M971.266 309.718L1012.89 265.318C1009.41 262.559 1005.67 260.137 1001.74 258.082L967.048 303.091C968.34 305.364 969.761 307.587 971.266 309.718Z" fill="#6A7282"/>
<path d="M1027.87 281.728C1023.98 276.437 1019.61 271.517 1014.82 267.034L972.815 311.847C974.809 314.524 976.953 317.085 979.237 319.518L1027.87 281.728Z" fill="#6A7282"/>
<path d="M987.487 327.26L1037.44 297.11C1035.07 292.492 1032.38 288.049 1029.37 283.816L981.037 321.372C983.081 323.448 985.234 325.414 987.487 327.26Z" fill="#6A7282"/>
<path d="M1044.26 314.619C1042.88 309.366 1041.01 304.252 1038.68 299.342L989.717 328.875C992.087 330.733 994.56 332.457 997.124 334.037L1044.26 314.619Z" fill="#6A7282"/>
<path d="M965.661 300.645L999.437 256.866C995.54 254.866 991.404 252.943 987.247 251.042C984.659 251.84 982.23 253.083 980.067 254.713C977.175 257.881 978.338 264.076 976.703 265.866C975.069 267.657 956.03 267.447 947.758 290.615C953.597 301.921 957.333 315.347 977.648 333.89C982.675 338.479 1021.43 368.304 1039.33 348.701C1046.41 340.942 1047.63 329.513 1044.89 317.164L999.869 335.87C1004.38 338.464 1009.11 340.656 1014.01 342.419C1014.19 342.457 1014.36 342.535 1014.52 342.646C1014.67 342.758 1014.79 342.901 1014.88 343.066C1014.98 343.231 1015.03 343.413 1015.04 343.601C1015.06 343.789 1015.03 343.978 1014.97 344.154C1014.9 344.331 1014.8 344.491 1014.66 344.623C1014.53 344.756 1014.37 344.859 1014.19 344.923C1014.01 344.988 1013.83 345.014 1013.64 344.999C1013.45 344.984 1013.27 344.928 1013.1 344.836C1007.47 342.787 1002.04 340.19 996.911 337.082L992.42 338.959C992.115 339.035 991.792 338.999 991.511 338.856C991.231 338.713 991.011 338.473 990.894 338.181C990.776 337.889 990.768 337.564 990.87 337.266C990.973 336.969 991.18 336.718 991.453 336.561L994.238 335.4C991.858 333.859 989.562 332.225 987.347 330.456L983.365 332.882C983.073 333.017 982.741 333.039 982.433 332.944C982.125 332.849 981.864 332.644 981.698 332.367C981.533 332.091 981.475 331.763 981.537 331.447C981.598 331.131 981.775 330.849 982.032 330.655L985.245 328.748C983.179 326.862 981.113 324.977 979.047 323.091C977.751 324.096 976.37 325.655 975.321 324.361C974.272 323.066 975.972 322.219 977.268 321.214C975.081 318.876 973.023 316.422 971.103 313.861L969.007 316.156C968.765 316.351 968.46 316.453 968.149 316.443C967.838 316.433 967.54 316.313 967.31 316.103C967.08 315.893 966.933 315.607 966.895 315.298C966.856 314.989 966.93 314.677 967.102 314.417L969.512 311.777C968.032 309.711 966.681 307.595 965.394 305.409C964.241 306.672 963.344 308.715 962 307.698C960.656 306.681 962.554 304.879 964.008 303.008C961.147 297.851 958.799 292.424 957 286.806C956.923 286.638 956.883 286.455 956.883 286.27C956.882 286.085 956.921 285.902 956.996 285.733C957.072 285.564 957.183 285.413 957.321 285.29C957.459 285.167 957.622 285.075 957.799 285.02C957.975 284.964 958.162 284.947 958.345 284.97C958.529 284.992 958.706 285.053 958.864 285.149C959.023 285.245 959.159 285.373 959.264 285.526C959.368 285.678 959.44 285.851 959.473 286.033C961.096 291.079 963.167 295.969 965.661 300.645Z" fill="#6A7282"/>
<path d="M700.11 88.9715C703.481 84.3142 699.323 80.5139 694.159 76.5279L690.751 86.9059C693.924 87.3255 697.055 88.0165 700.11 88.9715Z" fill="#6A7282"/>
<path d="M690.125 73.4455C687.589 71.6223 684.806 69.7287 682.371 67.8559L677.926 85.0643C680.642 85.5197 683.324 85.8477 685.994 86.1333L690.125 73.4455Z" fill="#6A7282"/>
<path d="M655.715 76.0446L669.697 25.9066C642.52 27.4779 628.062 56.3109 655.715 76.0446Z" fill="#6A7282"/>
<path d="M673.161 84.179L678.256 64.4755C675.124 61.4469 673.464 58.4788 675.08 55.6795C675.717 54.576 677.901 54.1501 680.951 54.1521L687.434 29.185C683.424 27.3199 679.108 26.202 674.696 25.8861L659.982 78.7233C664.079 81.187 668.521 83.0258 673.161 84.179Z" fill="#6A7282"/>
<path d="M696.046 55.2949L702.057 36.8021C699.123 35.1082 695.742 33.4432 691.796 31.4519L685.835 54.2086C689.022 54.4695 692.52 54.8744 696.046 55.2949Z" fill="#6A7282"/>
<path d="M718.261 54.7345C719.831 52.6014 720.678 50.0228 720.68 47.3744C716.104 44.7326 711.959 42.3395 706.361 39.1071L700.932 55.7829C709.328 56.7185 716.862 57.1569 718.261 54.7345Z" fill="#6A7282"/>
<path d="M749.496 117.807L780.623 65.5098C776.631 63.5623 772.464 61.9974 768.177 60.836L743.954 112.239C745.703 114.182 747.568 116.049 749.496 117.807Z" fill="#6A7282"/>
<path d="M798.777 78.3238C793.844 73.9894 788.52 70.1224 782.872 66.7727L751.465 119.555C753.987 121.741 756.631 123.782 759.383 125.669L798.777 78.3238Z" fill="#6A7282"/>
<path d="M769.103 131.46L811.421 91.2942C808.119 87.291 804.533 83.5299 800.693 80.0398L761.539 127.094C763.981 128.683 766.506 130.14 769.103 131.46Z" fill="#6A7282"/>
<path d="M821.845 106.931C819.363 102.098 816.441 97.5035 813.117 93.2064L771.627 132.559C774.341 133.866 777.126 135.018 779.969 136.012L821.845 106.931Z" fill="#6A7282"/>
<path d="M742.074 110.149L765.669 60.142C761.434 59.0245 756.982 58.0331 752.514 57.0687C750.158 58.4039 748.051 60.1385 746.289 62.1952C744.144 65.9096 746.609 71.7108 745.396 73.8103C744.184 75.9097 725.543 79.7897 722.435 104.194C730.565 113.983 737.094 126.294 760.915 140.047C766.809 143.451 811.065 164.264 824.336 141.278C829.589 132.18 828.325 120.756 822.998 109.283L783.044 137.212C788.006 138.778 793.096 139.904 798.256 140.576C798.445 140.573 798.631 140.612 798.803 140.688C798.976 140.765 799.129 140.877 799.253 141.019C799.378 141.16 799.47 141.327 799.524 141.507C799.578 141.688 799.592 141.878 799.566 142.064C799.539 142.251 799.473 142.429 799.371 142.588C799.269 142.746 799.134 142.881 798.975 142.982C798.816 143.083 798.637 143.149 798.451 143.174C798.264 143.2 798.074 143.185 797.894 143.13C791.948 142.338 786.093 140.965 780.414 139.032L776.431 141.828C776.149 141.968 775.826 142.001 775.521 141.922C775.216 141.843 774.951 141.655 774.773 141.396C774.595 141.136 774.518 140.82 774.554 140.507C774.591 140.195 774.739 139.905 774.972 139.694L777.443 137.962C774.787 136.967 772.194 135.865 769.651 134.612L766.283 137.835C766.027 138.03 765.707 138.123 765.386 138.096C765.065 138.069 764.765 137.925 764.544 137.691C764.323 137.456 764.197 137.148 764.189 136.826C764.182 136.504 764.293 136.191 764.503 135.946L767.232 133.395C764.81 131.996 762.387 130.597 759.965 129.199C758.914 130.459 757.9 132.278 756.598 131.239C755.296 130.2 756.774 129.007 757.824 127.747C755.187 125.933 752.65 123.978 750.225 121.889L748.671 124.58C748.475 124.823 748.2 124.988 747.894 125.045C747.588 125.102 747.271 125.048 747.001 124.892C746.732 124.736 746.527 124.489 746.423 124.196C746.319 123.902 746.324 123.581 746.437 123.29L748.224 120.195C746.335 118.494 744.562 116.717 742.835 114.859C741.98 116.339 741.543 118.527 740.012 117.822C738.48 117.118 739.947 114.95 740.967 112.811C737.065 108.388 733.608 103.591 730.645 98.4901C730.534 98.342 730.456 98.172 730.416 97.9914C730.375 97.8108 730.374 97.6237 730.411 97.4425C730.449 97.2613 730.525 97.0901 730.633 96.9403C730.742 96.7906 730.881 96.6656 731.042 96.5738C731.203 96.482 731.381 96.4255 731.565 96.4079C731.75 96.3902 731.935 96.4119 732.111 96.4716C732.286 96.5313 732.446 96.6275 732.581 96.7539C732.716 96.8803 732.823 97.034 732.894 97.2048C735.563 101.784 738.634 106.116 742.074 110.149Z" fill="#6A7282"/>
<path d="M1177.97 829.955C1178.38 826.785 1179.05 823.654 1179.97 820.593L1169.15 819.314C1171.02 827.351 1173.03 830.91 1177.97 829.955Z" fill="#6A7282"/>
<path d="M1181.42 815.935C1182.24 813.393 1183.07 810.82 1183.82 808.159L1166.33 804.999C1167.02 808.057 1167.55 811.129 1168.16 814.35L1181.42 815.935Z" fill="#6A7282"/>
<path d="M1133.62 775.933L1184.88 784.122C1178.58 751.026 1146.37 751.752 1133.62 775.933Z" fill="#6A7282"/>
<path d="M1154.38 797.955C1155.66 795.216 1157.08 793.399 1158.23 793.293C1161.32 793.007 1163.45 795.745 1164.89 799.857L1184.92 803.469C1185.85 798.773 1186.08 793.967 1185.63 789.202L1131.48 780.469C1129.92 784.607 1129.13 788.996 1129.15 793.419L1154.38 797.955Z" fill="#6A7282"/>
<path d="M1149.14 812.142C1150.27 808.916 1151.36 805.445 1152.46 802.472L1129.26 798.371C1129.45 802.755 1129.64 806.545 1129.86 809.927L1149.14 812.142Z" fill="#6A7282"/>
<path d="M1139.36 832.022C1142.15 831.765 1144.93 824.735 1147.59 816.717L1130.18 814.674C1130.77 821.08 1131.21 825.877 1131.7 831.138C1134.1 832.214 1136.78 832.523 1139.36 832.022Z" fill="#6A7282"/>
<path d="M1123.07 893.266L1183.6 886.866C1182.8 884.348 1181.89 881.904 1180.85 879.472L1124.04 880.006C1123.3 884.386 1122.98 888.826 1123.07 893.266Z" fill="#6A7282"/>
<path d="M1127.12 915.116L1186.6 899.135C1186.04 895.836 1185.29 892.571 1184.36 889.355L1123.28 895.807C1123.96 902.348 1125.24 908.812 1127.12 915.116Z" fill="#6A7282"/>
<path d="M1133.61 932.026L1187.8 910.355C1187.68 907.455 1187.42 904.562 1186.99 901.69L1127.97 917.565C1129.5 922.514 1131.39 927.347 1133.61 932.026Z" fill="#6A7282"/>
<path d="M1187.51 922.149C1187.8 919.15 1187.92 916.138 1187.86 913.127L1134.76 934.323C1137.23 939.153 1140.14 943.743 1143.46 948.034L1187.51 922.149Z" fill="#6A7282"/>
<path d="M1187.15 925.334L1145.11 950.066C1153.3 959.672 1163.12 965.601 1173.61 964.632C1200.04 962.192 1199.65 913.318 1199.02 906.51C1196.49 879.151 1188.04 868.071 1182.55 856.593C1159.08 849.209 1147.33 864.558 1145.32 864.744C1143.31 864.93 1138.66 860.302 1134.42 860.694C1131.82 861.429 1129.36 862.606 1127.16 864.173C1126.17 868.635 1125.21 873.093 1124.45 877.408L1179.74 876.921C1177.5 872.06 1174.82 867.409 1171.75 863.021C1171.65 862.882 1171.59 862.726 1171.55 862.561C1171.51 862.396 1171.51 862.225 1171.54 862.059C1171.57 861.892 1171.63 861.733 1171.72 861.591C1171.81 861.448 1171.93 861.325 1172.07 861.228C1172.21 861.131 1172.36 861.063 1172.53 861.026C1172.69 860.99 1172.86 860.986 1173.03 861.016C1173.2 861.046 1173.36 861.108 1173.5 861.199C1173.64 861.29 1173.76 861.408 1173.86 861.546C1177.24 866.371 1180.15 871.506 1182.55 876.881C1184.92 876.88 1187.53 876.421 1187.5 878.14C1187.48 879.859 1185.35 879.432 1183.63 879.465C1184.6 881.811 1185.47 884.165 1186.22 886.592C1188.58 886.375 1191 885.527 1191.17 887.384C1191.34 889.241 1188.75 888.918 1186.95 889.084C1187.83 892.161 1188.55 895.284 1189.1 898.437C1190.68 898.041 1192.39 897.228 1192.78 898.814C1193.18 900.401 1191.11 900.592 1189.49 901.022C1189.9 903.793 1190.19 906.576 1190.26 909.378L1193.72 907.966C1194.03 907.878 1194.36 907.908 1194.65 908.05C1194.94 908.191 1195.17 908.435 1195.29 908.734C1195.41 909.032 1195.42 909.365 1195.31 909.668C1195.2 909.971 1194.98 910.222 1194.69 910.374L1190.36 912.085C1190.43 914.919 1190.35 917.735 1190.14 920.564C1191.71 919.638 1193.62 917.995 1194.54 919.471C1194.7 919.773 1194.74 920.124 1194.65 920.456C1194.57 920.787 1194.36 921.074 1194.08 921.261L1189.87 923.71C1189.27 929.672 1188.09 935.562 1186.34 941.296C1186.32 941.482 1186.25 941.661 1186.15 941.82C1186.05 941.979 1185.92 942.114 1185.76 942.216C1185.6 942.318 1185.42 942.384 1185.23 942.41C1185.05 942.437 1184.86 942.422 1184.68 942.369C1184.5 942.315 1184.33 942.222 1184.19 942.098C1184.05 941.973 1183.93 941.82 1183.86 941.648C1183.78 941.475 1183.74 941.289 1183.75 941.1C1183.75 940.912 1183.79 940.726 1183.87 940.556C1185.43 935.592 1186.52 930.497 1187.15 925.334Z" fill="#6A7282"/>
<path d="M1099.35 1064.14C1101.63 1061.9 1104.1 1059.85 1106.71 1058.01L1098.98 1050.32C1095.49 1057.8 1094.88 1061.84 1099.35 1064.14Z" fill="#6A7282"/>
<path d="M1110.72 1055.23C1112.94 1053.75 1115.18 1052.23 1117.41 1050.6L1105.6 1037.32C1104.26 1040.15 1102.78 1042.9 1101.27 1045.81L1110.72 1055.23Z" fill="#6A7282"/>
<path d="M1097.81 994.26L1133.08 1032.34C1148.55 1002.41 1122.76 983.105 1097.81 994.26Z" fill="#6A7282"/>
<path d="M1100.55 1024.4C1103.24 1023.03 1105.49 1022.48 1106.45 1023.11C1109.06 1024.79 1109.05 1028.26 1107.64 1032.38L1121.17 1047.59C1124.8 1044.47 1127.95 1040.83 1130.53 1036.8L1093.32 996.507C1089.54 998.798 1086.21 1001.76 1083.5 1005.26L1100.55 1024.4Z" fill="#6A7282"/>
<path d="M1087.67 1032.33C1090.55 1030.49 1093.55 1028.43 1096.25 1026.77L1080.53 1009.22C1077.97 1012.79 1075.78 1015.89 1073.87 1018.68L1087.67 1032.33Z" fill="#6A7282"/>
<path d="M1067.7 1041.93C1070.05 1043.45 1076.58 1039.64 1083.63 1034.97L1071.18 1022.61C1067.7 1028.02 1065.08 1032.07 1062.22 1036.5C1063.44 1038.83 1065.36 1040.73 1067.7 1041.93Z" fill="#6A7282"/>
<path d="M1017.09 1080.06L1068.65 1112.39C1069.58 1109.91 1070.37 1107.43 1071.06 1104.88L1026.03 1070.22C1022.74 1073.21 1019.75 1076.51 1017.09 1080.06Z" fill="#6A7282"/>
<path d="M1006.78 1099.75L1063.44 1123.89C1065.03 1120.95 1066.46 1117.92 1067.71 1114.81L1015.68 1082.19C1012.17 1087.75 1009.2 1093.63 1006.78 1099.75Z" fill="#6A7282"/>
<path d="M1001.45 1117.06L1057.46 1133.46C1059.16 1131.11 1060.73 1128.67 1062.17 1126.15L1005.94 1102.2C1004.09 1107.04 1002.59 1112.01 1001.45 1117.06Z" fill="#6A7282"/>
<path d="M1049.95 1142.56C1052.03 1140.38 1053.98 1138.08 1055.8 1135.68L1000.94 1119.58C999.897 1124.9 999.354 1130.31 999.315 1135.73L1049.95 1142.56Z" fill="#6A7282"/>
<path d="M1047.7 1144.84L999.362 1138.35C999.877 1150.97 1003.94 1161.69 1012.79 1167.4C1035.09 1181.8 1064.95 1143.11 1068.66 1137.36C1083.56 1114.28 1083.75 1100.34 1086.51 1087.92C1072.61 1067.63 1053.89 1072.45 1052.19 1071.35C1050.49 1070.26 1049.7 1063.75 1046.12 1061.44C1043.62 1060.41 1040.96 1059.82 1038.26 1059.7C1034.72 1062.59 1031.21 1065.51 1027.96 1068.44L1071.76 1102.18C1072.99 1096.97 1073.76 1091.66 1074.05 1086.31C1074.06 1086.14 1074.1 1085.98 1074.18 1085.83C1074.25 1085.67 1074.35 1085.54 1074.48 1085.43C1074.6 1085.31 1074.75 1085.23 1074.91 1085.17C1075.07 1085.11 1075.24 1085.09 1075.41 1085.1C1075.58 1085.11 1075.74 1085.15 1075.89 1085.22C1076.05 1085.3 1076.18 1085.4 1076.3 1085.53C1076.41 1085.65 1076.5 1085.8 1076.55 1085.96C1076.61 1086.12 1076.63 1086.29 1076.62 1086.46C1076.3 1092.34 1075.42 1098.17 1073.99 1103.88C1075.86 1105.35 1078.2 1106.6 1077.11 1107.93C1076.03 1109.27 1074.62 1107.62 1073.25 1106.58C1072.56 1109.03 1071.79 1111.42 1070.89 1113.79C1072.87 1115.07 1075.3 1115.9 1074.29 1117.47C1073.28 1119.03 1071.44 1117.18 1069.92 1116.2C1068.72 1119.17 1067.35 1122.07 1065.84 1124.88C1067.33 1125.55 1069.17 1125.96 1068.5 1127.46C1067.84 1128.95 1066.09 1127.82 1064.55 1127.16C1063.17 1129.6 1061.67 1131.96 1060 1134.21L1063.59 1135.24C1063.89 1135.36 1064.13 1135.59 1064.27 1135.88C1064.42 1136.17 1064.44 1136.5 1064.35 1136.81C1064.26 1137.12 1064.06 1137.38 1063.79 1137.55C1063.52 1137.72 1063.19 1137.79 1062.87 1137.73L1058.4 1136.4C1056.71 1138.68 1054.91 1140.84 1053 1142.94C1054.81 1143.18 1057.32 1143.06 1057.13 1144.79C1057.07 1145.13 1056.89 1145.43 1056.62 1145.64C1056.35 1145.85 1056.01 1145.95 1055.67 1145.92L1050.85 1145.25C1046.69 1149.56 1042.13 1153.47 1037.22 1156.9C1037.08 1157.04 1036.92 1157.14 1036.74 1157.2C1036.56 1157.26 1036.37 1157.28 1036.19 1157.27C1036 1157.25 1035.82 1157.19 1035.65 1157.1C1035.49 1157 1035.35 1156.87 1035.24 1156.72C1035.13 1156.57 1035.06 1156.39 1035.02 1156.2C1034.99 1156.02 1035 1155.83 1035.04 1155.65C1035.09 1155.46 1035.17 1155.29 1035.29 1155.15C1035.41 1155 1035.56 1154.88 1035.73 1154.8C1040.01 1151.85 1044.02 1148.52 1047.7 1144.84Z" fill="#6A7282"/>
<path d="M927.762 375.675C926.207 372.882 924.882 369.967 923.8 366.959L914.342 372.376C920.627 377.722 924.364 379.382 927.762 375.675Z" fill="#6A7282"/>
<path d="M922.185 362.357C921.335 359.823 920.465 357.265 919.486 354.679L903.553 362.554C905.926 364.601 908.184 366.752 910.591 368.977L922.185 362.357Z" fill="#6A7282"/>
<path d="M859.966 358.68L906.022 334.738C881.252 311.901 855.81 331.662 859.966 358.68Z" fill="#6A7282"/>
<path d="M889.759 364.011C889.153 361.05 889.215 358.742 890.072 357.975C892.388 355.903 895.726 356.837 899.332 359.282L917.574 350.259C915.524 345.933 912.854 341.929 909.65 338.373L860.947 363.599C862.156 367.853 864.135 371.85 866.785 375.391L889.759 364.011Z" fill="#6A7282"/>
<path d="M893.992 378.531C892.985 375.262 891.79 371.828 890.902 368.785L869.826 379.301C872.586 382.712 874.998 385.642 877.188 388.229L893.992 378.531Z" fill="#6A7282"/>
<path d="M897.976 400.323C900.061 398.458 898.112 391.152 895.476 383.126L880.266 391.855C884.556 396.65 887.768 400.24 891.291 404.178C893.863 403.611 896.197 402.265 897.976 400.323Z" fill="#6A7282"/>
<path d="M921.359 459.224L966.171 418.045C964.034 416.495 961.846 415.075 959.565 413.738L914.234 447.999C916.249 451.957 918.635 455.716 921.359 459.224Z" fill="#6A7282"/>
<path d="M937.619 474.369L975.892 426.112C973.473 423.799 970.926 421.622 968.264 419.592L923.035 461.144C927.476 465.995 932.358 470.422 937.619 474.369Z" fill="#6A7282"/>
<path d="M952.905 484.089L983.531 434.417C981.714 432.153 979.777 429.988 977.728 427.932L939.761 475.831C943.94 478.894 948.332 481.653 952.905 484.089Z" fill="#6A7282"/>
<path d="M990.324 444.061C988.77 441.481 987.071 438.991 985.236 436.603L955.196 485.25C960.054 487.661 965.125 489.616 970.345 491.088L990.324 444.061Z" fill="#6A7282"/>
<path d="M991.931 446.835L972.884 491.736C985.184 494.576 996.602 493.494 1004.45 486.468C1024.23 468.77 994.818 429.739 990.259 424.644C971.939 404.168 958.551 400.299 947.304 394.347C924.054 402.388 923.751 421.719 922.245 423.066C920.739 424.413 914.255 423.458 911.082 426.298C909.429 428.438 908.156 430.846 907.319 433.418C909.178 437.593 911.06 441.748 913.021 445.665L957.155 412.349C952.455 409.783 947.536 407.639 942.456 405.942C942.296 405.888 942.147 405.803 942.02 405.692C941.892 405.581 941.788 405.446 941.712 405.295C941.637 405.144 941.592 404.979 941.58 404.81C941.569 404.642 941.59 404.472 941.644 404.312C941.698 404.152 941.782 404.003 941.893 403.876C942.004 403.748 942.139 403.644 942.291 403.569C942.442 403.493 942.607 403.448 942.776 403.437C942.944 403.425 943.114 403.446 943.274 403.5C948.858 405.366 954.253 407.759 959.385 410.646C961.29 409.233 963.114 407.31 964.115 408.708C965.116 410.106 963.149 411.032 961.792 412.079C963.965 413.388 966.068 414.759 968.119 416.26C969.88 414.685 971.318 412.564 972.562 413.954C973.805 415.343 971.533 416.626 970.189 417.828C972.728 419.777 975.162 421.859 977.48 424.066C978.519 422.803 979.404 421.135 980.667 422.174C981.93 423.213 980.378 424.601 979.337 425.908C981.318 427.889 983.206 429.953 984.933 432.162L986.871 428.968C987.067 428.712 987.351 428.539 987.668 428.48C987.985 428.422 988.312 428.483 988.587 428.651C988.862 428.819 989.064 429.083 989.156 429.392C989.248 429.7 989.223 430.032 989.085 430.323L986.62 434.28C988.367 436.513 989.977 438.825 991.495 441.221C992.204 439.543 992.759 437.087 994.374 437.727C994.683 437.873 994.927 438.13 995.056 438.447C995.185 438.764 995.19 439.117 995.071 439.438L993.15 443.91C996.216 449.059 998.774 454.494 1000.79 460.138C1000.88 460.303 1000.93 460.486 1000.95 460.674C1000.96 460.862 1000.93 461.05 1000.86 461.226C1000.8 461.403 1000.69 461.562 1000.56 461.695C1000.43 461.827 1000.26 461.928 1000.09 461.993C999.911 462.057 999.722 462.082 999.534 462.066C999.347 462.05 999.164 461.994 999.001 461.901C998.837 461.808 998.695 461.681 998.585 461.528C998.475 461.375 998.399 461.2 998.363 461.016C996.654 456.103 994.501 451.357 991.931 446.835Z" fill="#6A7282"/>
<path d="M716.462 187.55C714.114 185.381 711.946 183.025 709.979 180.505L702.684 188.603C710.322 191.721 714.391 192.132 716.462 187.55Z" fill="#6A7282"/>
<path d="M707.008 176.637C705.41 174.494 703.785 172.336 702.049 170.185L689.368 182.638C692.262 183.842 695.078 185.181 698.059 186.543L707.008 176.637Z" fill="#6A7282"/>
<path d="M646.749 192.556L683.036 155.439C652.377 141.471 634.371 168.183 646.749 192.556Z" fill="#6A7282"/>
<path d="M676.717 188.325C675.218 185.701 674.557 183.489 675.132 182.493C676.686 179.802 680.148 179.648 684.337 180.846L698.853 166.581C695.556 163.111 691.77 160.14 687.616 157.761L649.215 196.923C651.691 200.588 654.818 203.768 658.441 206.305L676.717 188.325Z" fill="#6A7282"/>
<path d="M685.27 200.8C683.293 198.008 681.085 195.118 679.293 192.504L662.55 209.072C666.236 211.451 669.442 213.482 672.33 215.256L685.27 200.8Z" fill="#6A7282"/>
<path d="M695.854 220.261C697.253 217.838 693.121 211.505 688.113 204.702L676.386 217.741C681.958 220.958 686.13 223.367 690.705 226.009C692.972 224.668 694.77 222.661 695.854 220.261Z" fill="#6A7282"/>
<path d="M736.447 268.926L766.174 215.821C763.66 215.015 761.138 214.349 758.554 213.79L726.176 260.484C729.325 263.616 732.764 266.443 736.447 268.926Z" fill="#6A7282"/>
<path d="M756.621 278.241L777.927 220.453C774.906 219.009 771.808 217.735 768.645 216.637L738.638 270.228C744.371 273.45 750.391 276.133 756.621 278.241Z" fill="#6A7282"/>
<path d="M774.176 282.707L787.775 225.959C785.343 224.375 782.827 222.923 780.239 221.608L759.112 278.962C764.038 280.568 769.072 281.82 774.176 282.707Z" fill="#6A7282"/>
<path d="M797.239 233.002C794.957 231.036 792.566 229.201 790.077 227.504L776.715 283.096C782.083 283.871 787.511 284.145 792.929 283.916L797.239 233.002Z" fill="#6A7282"/>
<path d="M799.631 235.137L795.544 283.738C808.117 282.599 818.627 278.008 823.895 268.884C837.166 245.898 797.04 217.994 791.118 214.575C767.324 200.837 753.398 201.338 740.855 199.193C721.275 214.086 727.017 232.547 726.007 234.296C724.997 236.046 718.539 237.162 716.41 240.85C715.507 243.399 715.049 246.084 715.056 248.789C718.125 252.176 721.21 255.536 724.295 258.645L755.831 213.223C750.564 212.251 745.222 211.748 739.867 211.721C739.697 211.72 739.53 211.686 739.374 211.62C739.218 211.555 739.077 211.459 738.958 211.339C738.839 211.218 738.745 211.076 738.682 210.919C738.618 210.763 738.586 210.595 738.587 210.426C738.588 210.257 738.622 210.09 738.687 209.934C738.753 209.778 738.849 209.637 738.969 209.518C739.089 209.399 739.232 209.305 739.388 209.241C739.545 209.177 739.713 209.145 739.882 209.146C745.77 209.177 751.642 209.767 757.418 210.909C758.788 208.972 759.92 206.575 761.307 207.592C762.694 208.608 761.115 210.1 760.153 211.519C762.625 212.085 765.051 212.732 767.468 213.517C768.649 211.472 769.354 209.007 770.969 209.94C772.584 210.872 770.825 212.8 769.924 214.361C772.944 215.421 775.906 216.639 778.797 218.013C779.39 216.489 779.711 214.628 781.235 215.221C782.759 215.814 781.717 217.617 781.136 219.183C783.636 220.447 786.074 221.819 788.403 223.379L789.248 219.74C789.356 219.436 789.571 219.183 789.854 219.028C790.137 218.874 790.466 218.829 790.78 218.903C791.093 218.978 791.368 219.165 791.552 219.43C791.736 219.694 791.815 220.017 791.775 220.337L790.667 224.866C793.024 226.441 795.275 228.136 797.464 229.938C797.615 228.123 797.376 225.616 799.11 225.721C799.449 225.763 799.761 225.931 799.982 226.192C800.204 226.453 800.319 226.787 800.307 227.129L799.876 231.977C804.395 235.913 808.522 240.278 812.197 245.012C812.334 245.14 812.442 245.297 812.513 245.472C812.585 245.646 812.617 245.834 812.609 246.022C812.601 246.21 812.552 246.394 812.466 246.562C812.379 246.729 812.258 246.876 812.11 246.992C811.961 247.108 811.79 247.191 811.607 247.235C811.423 247.278 811.233 247.282 811.048 247.244C810.863 247.207 810.689 247.131 810.537 247.02C810.384 246.909 810.258 246.767 810.166 246.602C807.01 242.469 803.483 238.631 799.631 235.137Z" fill="#6A7282"/>
<path d="M1125.07 496.215C1130.38 494.036 1128.9 488.634 1126.63 482.485L1118.24 489.49C1120.7 491.532 1122.99 493.782 1125.07 496.215Z" fill="#6A7282"/>
<path d="M1124.85 477.729C1123.67 474.837 1122.33 471.753 1121.35 469.037L1108.43 481.247C1110.49 483.077 1112.57 484.754 1114.68 486.415L1124.85 477.729Z" fill="#6A7282"/>
<path d="M1094.33 461.633L1132.77 426.496C1108.99 413.513 1081.4 430.216 1094.33 461.633Z" fill="#6A7282"/>
<path d="M1104.79 477.827L1119.59 463.849C1118.54 459.619 1118.72 456.222 1121.57 454.711C1122.7 454.115 1124.78 454.916 1127.34 456.512L1146.12 438.842C1143.73 435.125 1140.66 431.882 1137.09 429.275L1096.52 466.171C1098.68 470.445 1101.47 474.374 1104.79 477.827Z" fill="#6A7282"/>
<path d="M1139.52 465.506L1154.46 453.068C1152.87 450.074 1150.88 446.838 1148.61 443.081L1131.46 459.184C1133.98 461.017 1136.76 463.275 1139.52 465.506Z" fill="#6A7282"/>
<path d="M1158.65 476.872C1161.11 475.89 1163.19 474.147 1164.59 471.897C1162.14 467.254 1159.89 462.996 1156.88 457.309L1143.41 468.545C1149.95 473.665 1156.17 478.18 1158.65 476.872Z" fill="#6A7282"/>
<path d="M1151.55 546.869L1205.72 519.13C1203.37 515.369 1200.68 511.836 1197.67 508.581L1149.81 539.207C1150.28 541.81 1150.85 544.355 1151.55 546.869Z" fill="#6A7282"/>
<path d="M1214.28 539.635C1212.41 533.341 1209.95 527.235 1206.95 521.396L1152.28 549.397C1153.26 552.588 1154.41 555.723 1155.74 558.786L1214.28 539.635Z" fill="#6A7282"/>
<path d="M1160.89 568.859L1218.1 557.372C1217.43 552.226 1216.39 547.135 1215 542.136L1156.82 561.166C1158.04 563.801 1159.4 566.369 1160.89 568.859Z" fill="#6A7282"/>
<path d="M1218.62 576.157C1219.05 570.751 1218.97 565.316 1218.4 559.923L1162.34 571.189C1163.94 573.749 1165.69 576.216 1167.58 578.577L1218.62 576.157Z" fill="#6A7282"/>
<path d="M1149.35 536.465L1195.91 506.633C1192.91 503.435 1189.67 500.228 1186.4 497.035C1183.7 496.933 1181 497.291 1178.42 498.094C1174.62 500.099 1173.63 506.323 1171.48 507.457C1169.34 508.59 1151.49 501.964 1135.87 520.952C1137.55 533.565 1136.53 547.464 1149.39 571.778C1152.57 577.794 1178.99 618.954 1202.45 606.544C1211.73 601.632 1216.74 591.285 1218.33 578.735L1169.6 581.061C1172.96 585.014 1176.67 588.664 1180.68 591.971C1180.83 592.071 1180.96 592.202 1181.07 592.357C1181.17 592.512 1181.23 592.686 1181.26 592.868C1181.29 593.051 1181.28 593.238 1181.23 593.416C1181.18 593.594 1181.1 593.76 1180.98 593.902C1180.86 594.044 1180.72 594.16 1180.55 594.242C1180.38 594.323 1180.2 594.369 1180.02 594.375C1179.83 594.382 1179.65 594.349 1179.48 594.279C1179.31 594.209 1179.15 594.103 1179.03 593.969C1174.42 590.13 1170.19 585.855 1166.4 581.203L1161.53 581.426C1161.21 581.395 1160.92 581.251 1160.71 581.022C1160.49 580.793 1160.36 580.493 1160.35 580.178C1160.34 579.864 1160.44 579.555 1160.64 579.31C1160.84 579.064 1161.12 578.898 1161.43 578.843L1164.45 578.718C1162.73 576.463 1161.12 574.15 1159.64 571.738L1155.06 572.649C1154.72 572.714 1154.38 572.643 1154.09 572.453C1153.81 572.262 1153.62 571.968 1153.55 571.634C1153.49 571.299 1153.56 570.953 1153.75 570.671C1153.94 570.389 1154.23 570.194 1154.57 570.13L1158.22 569.393C1156.91 566.92 1155.6 564.447 1154.31 562.002C1152.75 562.511 1150.91 563.484 1150.38 561.939C1149.84 560.395 1151.7 560.116 1153.26 559.607C1151.99 556.668 1150.88 553.663 1149.93 550.605L1147.19 552.058C1146.89 552.159 1146.57 552.152 1146.28 552.038C1145.99 551.924 1145.75 551.709 1145.61 551.434C1145.46 551.159 1145.42 550.841 1145.49 550.537C1145.56 550.233 1145.73 549.964 1145.98 549.778L1149.14 548.106C1148.46 545.689 1147.89 543.213 1147.41 540.722C1145.98 541.658 1144.37 543.141 1143.46 541.758C1142.55 540.374 1144.92 539.263 1146.92 537.994C1145.98 532.181 1145.61 526.29 1145.81 520.404C1145.81 520.235 1145.85 520.069 1145.92 519.915C1145.99 519.761 1146.09 519.622 1146.21 519.506C1146.34 519.39 1146.48 519.3 1146.64 519.24C1146.8 519.18 1146.97 519.152 1147.14 519.157C1147.31 519.163 1147.47 519.201 1147.63 519.271C1147.78 519.34 1147.92 519.439 1148.03 519.563C1148.15 519.686 1148.24 519.831 1148.3 519.989C1148.36 520.147 1148.39 520.315 1148.38 520.484C1148.23 525.829 1148.55 531.177 1149.35 536.465Z" fill="#6A7282"/>
<path d="M426.841 1560.09C429.593 1558.46 432.472 1557.06 435.451 1555.9L429.766 1546.61C424.518 1553.09 423.001 1556.83 426.841 1560.09Z" fill="#6A7282"/>
<path d="M439.987 1554.19C442.498 1553.27 445.009 1552.35 447.568 1551.31L439.28 1535.59C437.296 1538.01 435.205 1540.33 433.157 1542.68L439.987 1554.19Z" fill="#6A7282"/>
<path d="M442.038 1491.89L467.192 1537.46C489.357 1511.95 468.984 1486.99 442.038 1491.89Z" fill="#6A7282"/>
<path d="M437.464 1521.83C440.431 1521.13 442.717 1521.15 443.506 1521.99C445.638 1524.25 444.814 1527.59 442.441 1531.28L451.937 1549.28C456.216 1547.11 460.156 1544.33 463.635 1541.03L437.124 1493.02C432.901 1494.34 428.957 1496.42 425.489 1499.17L437.464 1521.83Z" fill="#6A7282"/>
<path d="M423.059 1526.45C426.415 1525.25 429.726 1524.05 432.722 1523.1L421.659 1502.31C418.298 1505.18 415.433 1507.67 412.927 1509.9L423.059 1526.45Z" fill="#6A7282"/>
<path d="M401.334 1531.04C403.253 1533.08 410.505 1530.94 418.46 1528.09L409.314 1513.14C404.633 1517.55 401.128 1520.85 397.306 1524.46C397.916 1527.02 399.327 1529.33 401.334 1531.04Z" fill="#6A7282"/>
<path d="M343.13 1555.89L385.465 1599.61C386.936 1597.46 388.321 1595.21 389.576 1592.92L354.166 1548.47C350.263 1550.59 346.568 1553.08 343.13 1555.89Z" fill="#6A7282"/>
<path d="M328.415 1572.54L377.654 1609.54C379.898 1607.07 382 1604.47 383.951 1601.77L341.232 1557.64C336.506 1562.19 332.215 1567.18 328.415 1572.54Z" fill="#6A7282"/>
<path d="M319.098 1588.07L369.529 1617.41C371.752 1615.53 373.873 1613.53 375.883 1611.42L327.01 1574.72C324.057 1578.98 321.413 1583.44 319.098 1588.07Z" fill="#6A7282"/>
<path d="M360.088 1624.43C362.627 1622.81 365.072 1621.05 367.411 1619.15L317.974 1590.41C315.697 1595.33 313.883 1600.44 312.555 1605.69L360.088 1624.43Z" fill="#6A7282"/>
<path d="M357.357 1626.11L311.975 1608.24C309.434 1620.64 310.814 1632.02 318.042 1639.69C336.25 1659 374.522 1628.55 379.475 1623.88C399.488 1605.01 403.006 1591.53 408.662 1580.13C400.017 1557.1 380.685 1557.3 379.3 1555.83C377.914 1554.36 378.676 1547.87 375.755 1544.78C373.572 1543.18 371.132 1541.97 368.539 1541.2C364.414 1543.17 360.309 1545.16 356.445 1547.22L390.924 1590.45C393.359 1585.69 395.367 1580.72 396.923 1575.61C396.953 1575.43 397.021 1575.25 397.123 1575.1C397.226 1574.94 397.36 1574.81 397.517 1574.71C397.673 1574.62 397.849 1574.55 398.032 1574.53C398.216 1574.5 398.402 1574.52 398.58 1574.57C398.757 1574.62 398.922 1574.71 399.062 1574.83C399.202 1574.95 399.315 1575.1 399.394 1575.27C399.472 1575.44 399.514 1575.62 399.516 1575.8C399.518 1575.99 399.481 1576.17 399.407 1576.34C397.68 1581.98 395.421 1587.44 392.662 1592.65C394.146 1594.5 396.207 1596.19 394.723 1597.33C393.238 1598.48 392.375 1596.43 391.315 1595.08C390.063 1597.28 388.724 1599.44 387.3 1601.51C388.921 1603.23 391.056 1604.63 389.722 1605.89C388.388 1607.15 387.024 1604.93 385.764 1603.64C383.885 1606.23 381.867 1608.72 379.719 1611.09C381.031 1612.08 382.699 1612.94 381.693 1614.23C380.688 1615.52 379.282 1613.98 377.949 1612.98C376.02 1615.01 374.006 1616.95 371.843 1618.73L375.064 1620.61C375.359 1620.78 375.575 1621.06 375.664 1621.39C375.754 1621.71 375.709 1622.07 375.54 1622.36C375.371 1622.66 375.091 1622.87 374.763 1622.96C374.435 1623.05 374.084 1623.01 373.789 1622.84L369.746 1620.5C367.583 1622.28 365.291 1623.97 362.958 1625.53C364.631 1626.22 367.124 1626.69 366.503 1628.34C366.367 1628.65 366.12 1628.89 365.81 1629.03C365.5 1629.16 365.151 1629.17 364.833 1629.06L360.313 1627.26C355.223 1630.45 349.835 1633.14 344.225 1635.29C344.061 1635.38 343.881 1635.43 343.697 1635.44C343.512 1635.45 343.328 1635.42 343.155 1635.36C342.982 1635.29 342.825 1635.19 342.695 1635.06C342.564 1634.93 342.463 1634.77 342.397 1634.6C342.332 1634.42 342.304 1634.24 342.315 1634.06C342.326 1633.87 342.377 1633.69 342.463 1633.53C342.548 1633.36 342.668 1633.22 342.814 1633.11C342.959 1632.99 343.127 1632.91 343.307 1632.87C348.185 1631.05 352.888 1628.79 357.357 1626.11Z" fill="#6A7282"/>
<path d="M372.834 1729.82C376.501 1734.25 381.22 1731.17 386.37 1727.17L377.174 1721.28C375.974 1724.24 374.523 1727.1 372.834 1729.82Z" fill="#6A7282"/>
<path d="M390.363 1724.03C392.763 1722.03 395.292 1719.81 397.714 1717.92L382.163 1709.32C381.043 1711.83 380.055 1714.35 379.111 1716.86L390.363 1724.03Z" fill="#6A7282"/>
<path d="M396.449 1690.07L441.5 1716.14C446.772 1689.43 422.469 1668.23 396.449 1690.07Z" fill="#6A7282"/>
<path d="M384.211 1704.93L402.015 1714.79C405.731 1712.51 409.02 1711.64 411.326 1713.91C412.235 1714.8 412.102 1717.02 411.337 1719.97L433.891 1732.49C436.699 1729.08 438.861 1725.18 440.269 1720.99L392.788 1693.53C389.379 1696.88 386.488 1700.72 384.211 1704.93Z" fill="#6A7282"/>
<path d="M406.457 1734.31L422.86 1744.75C425.212 1742.35 427.691 1739.47 430.605 1736.15L410.061 1724.69C409.012 1727.71 407.745 1731 406.457 1734.31Z" fill="#6A7282"/>
<path d="M401.446 1755.96C403.119 1758.01 405.404 1759.47 407.967 1760.14C411.669 1756.37 415.023 1752.95 419.552 1748.34L404.763 1738.91C401.758 1746.81 399.45 1754 401.446 1755.96Z" fill="#6A7282"/>
<path d="M332.568 1770.43L375.424 1813.64C378.307 1810.26 380.864 1806.62 383.06 1802.76L339.345 1766.46C336.939 1767.75 334.753 1769 332.568 1770.43Z" fill="#6A7282"/>
<path d="M358.434 1828.06C363.864 1824.37 368.939 1820.18 373.595 1815.55L330.34 1771.95C327.593 1773.84 324.955 1775.89 322.44 1778.08L358.434 1828.06Z" fill="#6A7282"/>
<path d="M314.446 1786L342.758 1837.02C347.46 1834.82 351.998 1832.29 356.337 1829.44L320.565 1779.77C318.416 1781.74 316.374 1783.82 314.446 1786Z" fill="#6A7282"/>
<path d="M325.034 1843.18C330.336 1841.99 335.515 1840.31 340.505 1838.16L312.752 1788.17C310.797 1790.43 308.969 1792.79 307.278 1795.25L325.034 1843.18Z" fill="#6A7282"/>
<path d="M341.838 1765.16L384.358 1800.51C386.499 1796.69 388.572 1792.62 390.623 1788.54C389.919 1785.92 388.766 1783.45 387.215 1781.23C384.155 1778.22 377.922 1779.16 376.192 1777.46C374.462 1775.76 375.365 1756.74 352.513 1747.63C341.002 1753.06 327.45 1756.3 308.179 1775.93C303.41 1780.78 272.193 1818.43 291.132 1837.03C298.628 1844.39 310.005 1846.02 322.446 1843.73L305.544 1797.91C302.787 1802.32 300.425 1806.97 298.484 1811.8C298.44 1811.98 298.356 1812.15 298.239 1812.3C298.122 1812.45 297.974 1812.57 297.806 1812.65C297.638 1812.74 297.454 1812.78 297.265 1812.79C297.077 1812.8 296.89 1812.76 296.716 1812.69C296.542 1812.62 296.385 1812.51 296.258 1812.37C296.13 1812.23 296.033 1812.07 295.975 1811.89C295.917 1811.71 295.898 1811.52 295.92 1811.34C295.942 1811.15 296.004 1810.97 296.102 1810.81C298.363 1805.29 301.156 1800.01 304.441 1795.04L302.729 1790.48C302.664 1790.17 302.713 1789.85 302.866 1789.58C303.019 1789.3 303.266 1789.09 303.562 1788.99C303.859 1788.88 304.183 1788.88 304.477 1789C304.771 1789.11 305.014 1789.33 305.161 1789.6L306.219 1792.43C307.847 1790.11 309.562 1787.87 311.411 1785.72L309.132 1781.66C309.008 1781.36 308.998 1781.03 309.104 1780.72C309.21 1780.42 309.425 1780.16 309.707 1780.01C309.989 1779.85 310.319 1779.81 310.632 1779.88C310.946 1779.95 311.222 1780.14 311.406 1780.4L313.15 1783.6C315.11 1781.6 317.069 1779.6 319.029 1777.61C318.072 1776.28 316.564 1774.84 317.896 1773.84C319.227 1772.84 320.012 1774.57 320.969 1775.9C323.385 1773.8 325.913 1771.83 328.542 1770.01L326.324 1767.83C326.138 1767.58 326.048 1767.27 326.069 1766.96C326.09 1766.65 326.222 1766.36 326.44 1766.13C326.658 1765.91 326.948 1765.77 327.259 1765.75C327.569 1765.72 327.879 1765.81 328.132 1765.99L330.682 1768.49C332.801 1767.09 334.965 1765.82 337.196 1764.61C335.976 1763.41 333.967 1762.44 335.032 1761.13C336.097 1759.83 337.829 1761.79 339.646 1763.31C344.904 1760.64 350.413 1758.49 356.092 1756.9C356.263 1756.83 356.448 1756.79 356.633 1756.8C356.817 1756.81 356.999 1756.85 357.165 1756.93C357.331 1757.01 357.478 1757.13 357.596 1757.27C357.714 1757.42 357.8 1757.58 357.848 1757.76C357.897 1757.94 357.907 1758.13 357.878 1758.31C357.849 1758.49 357.782 1758.67 357.68 1758.82C357.579 1758.98 357.446 1759.11 357.289 1759.21C357.133 1759.31 356.958 1759.37 356.774 1759.4C351.633 1760.86 346.634 1762.79 341.838 1765.16Z" fill="#6A7282"/>
<path d="M210.35 1903.09C215.089 1906.35 218.785 1902.1 222.642 1896.84L212.183 1893.69C211.842 1896.87 211.229 1900.02 210.35 1903.09Z" fill="#6A7282"/>
<path d="M225.624 1892.73C227.384 1890.15 229.208 1887.32 231.02 1884.84L213.706 1880.82C213.318 1883.55 213.057 1886.23 212.837 1888.91L225.624 1892.73Z" fill="#6A7282"/>
<path d="M222.173 1858.39L272.642 1871.13C270.398 1844 241.216 1830.26 222.173 1858.39Z" fill="#6A7282"/>
<path d="M214.473 1876.03L234.297 1880.64C237.247 1877.43 240.173 1875.7 243.011 1877.25C244.13 1877.86 244.61 1880.03 244.684 1883.08L269.804 1888.94C271.569 1884.89 272.58 1880.54 272.786 1876.13L219.601 1862.72C217.239 1866.88 215.511 1871.37 214.473 1876.03Z" fill="#6A7282"/>
<path d="M243.915 1898.2L262.551 1903.75C264.157 1900.8 265.752 1897.35 267.645 1893.36L244.748 1887.96C244.566 1891.15 244.248 1894.66 243.915 1898.2Z" fill="#6A7282"/>
<path d="M245.025 1920.39C247.196 1921.91 249.795 1922.69 252.443 1922.63C254.97 1917.99 257.26 1913.79 260.353 1908.11L243.548 1903.09C242.82 1911.51 242.569 1919.05 245.025 1920.39Z" fill="#6A7282"/>
<path d="M182.745 1953.18L235.798 1983C237.646 1978.96 239.107 1974.76 240.162 1970.44L188.175 1947.5C186.216 1949.41 184.456 1951.21 182.745 1953.18Z" fill="#6A7282"/>
<path d="M223.407 2001.52C227.618 1996.48 231.352 1991.06 234.561 1985.34L181.017 1955.25C178.894 1957.82 176.919 1960.51 175.101 1963.31L223.407 2001.52Z" fill="#6A7282"/>
<path d="M169.582 1973.12L210.784 2014.43C214.704 2011.03 218.375 2007.35 221.769 2003.42L173.76 1965.45C172.232 1967.93 170.837 1970.49 169.582 1973.12Z" fill="#6A7282"/>
<path d="M195.425 2025.21C200.198 2022.61 204.719 2019.58 208.929 2016.14L168.546 1975.67C167.284 1978.38 166.174 1981.15 165.222 1983.98L195.425 2025.21Z" fill="#6A7282"/>
<path d="M190.218 1945.57L240.793 1967.92C241.805 1963.66 242.686 1959.18 243.54 1954.69C242.146 1952.37 240.36 1950.31 238.261 1948.6C234.494 1946.54 228.756 1949.15 226.627 1947.99C224.498 1946.83 220.158 1928.29 195.684 1925.79C186.099 1934.16 173.953 1940.99 160.794 1965.15C157.538 1971.12 137.827 2015.88 161.135 2028.58C170.36 2033.6 181.749 2032.06 193.087 2026.45L164.281 1987.01C162.838 1992.01 161.839 1997.12 161.295 2002.3C161.302 2002.49 161.268 2002.67 161.196 2002.85C161.124 2003.02 161.015 2003.18 160.877 2003.31C160.738 2003.43 160.574 2003.53 160.395 2003.59C160.216 2003.65 160.026 2003.67 159.839 2003.64C159.652 2003.62 159.472 2003.56 159.311 2003.46C159.15 2003.36 159.013 2003.23 158.907 2003.08C158.802 2002.92 158.732 2002.74 158.702 2002.56C158.672 2002.37 158.682 2002.18 158.732 2002C159.397 1996.08 160.637 1990.23 162.434 1984.55L159.54 1980.64C159.393 1980.36 159.352 1980.04 159.423 1979.73C159.495 1979.42 159.676 1979.15 159.931 1978.97C160.187 1978.78 160.5 1978.7 160.814 1978.73C161.127 1978.76 161.42 1978.9 161.638 1979.13L163.43 1981.55C164.359 1978.87 165.397 1976.25 166.586 1973.68L163.28 1970.39C163.079 1970.14 162.978 1969.82 162.997 1969.5C163.016 1969.18 163.153 1968.88 163.382 1968.65C163.611 1968.42 163.915 1968.29 164.237 1968.27C164.559 1968.26 164.875 1968.36 165.125 1968.57L167.676 1971.16C169.014 1968.7 170.352 1966.25 171.69 1963.79C170.405 1962.77 168.562 1961.8 169.568 1960.48C170.574 1959.15 171.803 1960.6 173.088 1961.61C174.837 1958.93 176.729 1956.35 178.757 1953.87L176.028 1952.39C175.781 1952.2 175.609 1951.93 175.544 1951.62C175.48 1951.32 175.526 1951 175.675 1950.72C175.824 1950.45 176.066 1950.24 176.357 1950.13C176.648 1950.02 176.969 1950.02 177.262 1950.12L180.401 1951.83C182.054 1949.9 183.787 1948.08 185.602 1946.31C184.101 1945.49 181.903 1945.11 182.569 1943.56C183.236 1942.01 185.439 1943.43 187.602 1944.39C191.928 1940.38 196.638 1936.81 201.664 1933.72C201.809 1933.6 201.977 1933.52 202.157 1933.48C202.336 1933.43 202.523 1933.43 202.705 1933.46C202.887 1933.49 203.06 1933.56 203.213 1933.67C203.365 1933.77 203.493 1933.91 203.589 1934.07C203.685 1934.23 203.746 1934.4 203.768 1934.59C203.79 1934.77 203.773 1934.96 203.718 1935.13C203.663 1935.31 203.57 1935.47 203.447 1935.61C203.324 1935.75 203.173 1935.86 203.004 1935.94C198.461 1938.76 194.182 1941.98 190.218 1945.57Z" fill="#6A7282"/>
<path d="M577.727 1563.52C580.447 1568.58 585.681 1566.5 591.52 1563.59L583.668 1556C581.907 1558.67 579.919 1561.19 577.727 1563.52Z" fill="#6A7282"/>
<path d="M596.053 1561.31C598.8 1559.82 601.718 1558.14 604.466 1556.77L590.92 1545.26C589.326 1547.51 587.861 1549.77 586.439 1552.05L596.053 1561.31Z" fill="#6A7282"/>
<path d="M608.726 1529.21L647.742 1563.66C658.184 1538.52 638.546 1512.93 608.726 1529.21Z" fill="#6A7282"/>
<path d="M593.795 1541.36L609.302 1554.54C613.394 1553.04 616.788 1552.84 618.602 1555.52C619.317 1556.57 618.748 1558.72 617.416 1561.47L637.054 1578.19C640.481 1575.4 643.37 1572 645.579 1568.17L604.453 1531.88C600.449 1534.49 596.857 1537.69 593.795 1541.36Z" fill="#6A7282"/>
<path d="M609.802 1574.55L623.82 1588.03C626.599 1586.14 629.598 1583.81 633.111 1581.13L615.234 1565.84C613.609 1568.59 611.719 1571.56 609.802 1574.55Z" fill="#6A7282"/>
<path d="M600.615 1594.79C601.85 1597.13 603.8 1599.02 606.183 1600.17C610.556 1597.21 614.518 1594.52 619.869 1590.89L607.231 1578.73C602.727 1585.88 599.046 1592.47 600.615 1594.79Z" fill="#6A7282"/>
<path d="M530.235 1595.38L563.715 1646.2C567.209 1643.46 570.435 1640.39 573.351 1637.04L537.663 1592.82C535.049 1593.61 532.659 1594.41 530.235 1595.38Z" fill="#6A7282"/>
<path d="M544.214 1656.98C550.266 1654.43 556.068 1651.33 561.546 1647.71L527.752 1596.42C524.685 1597.74 521.694 1599.22 518.796 1600.88L544.214 1656.98Z" fill="#6A7282"/>
<path d="M509.396 1607.06L527.078 1662.66C532.121 1661.44 537.069 1659.85 541.885 1657.92L516.625 1602.16C514.13 1603.67 511.717 1605.3 509.396 1607.06Z" fill="#6A7282"/>
<path d="M508.486 1665.21C513.918 1665.09 519.327 1664.46 524.643 1663.34L507.306 1608.86C504.944 1610.68 502.686 1612.64 500.542 1614.72L508.486 1665.21Z" fill="#6A7282"/>
<path d="M540.364 1592.04L575.068 1635.09C577.921 1631.76 580.755 1628.19 583.572 1624.59C583.399 1621.89 582.757 1619.23 581.675 1616.75C579.268 1613.2 572.973 1612.89 571.613 1610.88C570.252 1608.87 574.893 1590.41 554.289 1576.97C541.934 1580.01 528.008 1580.51 505.241 1595.95C499.607 1599.77 461.572 1630.51 476.466 1652.48C482.361 1661.18 493.192 1665.02 505.84 1665.23L498.318 1616.98C494.745 1620.76 491.511 1624.85 488.655 1629.2C488.575 1629.37 488.46 1629.52 488.316 1629.64C488.172 1629.76 488.003 1629.85 487.822 1629.9C487.64 1629.95 487.45 1629.96 487.264 1629.93C487.078 1629.9 486.901 1629.83 486.745 1629.73C486.588 1629.62 486.457 1629.48 486.359 1629.32C486.261 1629.16 486.199 1628.98 486.177 1628.8C486.155 1628.61 486.174 1628.42 486.232 1628.24C486.291 1628.06 486.387 1627.9 486.515 1627.76C489.821 1622.8 493.601 1618.17 497.804 1613.95L497.025 1609.14C497.022 1608.83 497.133 1608.52 497.337 1608.28C497.542 1608.04 497.826 1607.89 498.137 1607.84C498.449 1607.79 498.767 1607.86 499.032 1608.03C499.298 1608.2 499.493 1608.46 499.582 1608.76L500.062 1611.74C502.116 1609.78 504.239 1607.93 506.476 1606.19L505.045 1601.75C504.981 1601.44 505.037 1601.11 505.201 1600.83C505.365 1600.55 505.626 1600.35 505.933 1600.25C506.241 1600.15 506.573 1600.17 506.866 1600.31C507.159 1600.44 507.392 1600.68 507.521 1600.97L508.6 1604.45C510.915 1602.88 513.23 1601.31 515.546 1599.74C514.87 1598.25 513.676 1596.54 515.179 1595.82C516.682 1595.1 517.11 1596.95 517.786 1598.45C520.568 1596.87 523.435 1595.44 526.373 1594.16L524.628 1591.59C524.495 1591.31 524.467 1590.99 524.55 1590.69C524.632 1590.39 524.818 1590.13 525.076 1589.95C525.334 1589.78 525.646 1589.7 525.955 1589.74C526.264 1589.77 526.551 1589.92 526.764 1590.14L528.769 1593.1C531.124 1592.14 533.497 1591.32 535.922 1590.58C534.963 1589.17 533.185 1587.82 534.487 1586.75C535.789 1585.68 537.099 1587.94 538.579 1589.79C544.262 1588.21 550.087 1587.19 555.969 1586.75C556.15 1586.72 556.337 1586.72 556.518 1586.76C556.698 1586.81 556.867 1586.89 557.013 1587C557.16 1587.11 557.281 1587.26 557.368 1587.42C557.456 1587.58 557.507 1587.76 557.52 1587.95C557.532 1588.13 557.505 1588.32 557.441 1588.49C557.376 1588.66 557.276 1588.82 557.146 1588.95C557.016 1589.08 556.859 1589.19 556.686 1589.25C556.514 1589.32 556.329 1589.35 556.144 1589.34C550.814 1589.76 545.532 1590.67 540.364 1592.04Z" fill="#6A7282"/>
<path d="M794.946 1417.68C797.655 1422.75 802.894 1420.68 808.739 1417.78L800.904 1410.17C799.137 1412.84 797.143 1415.35 794.946 1417.68Z" fill="#6A7282"/>
<path d="M813.278 1415.51C816.028 1414.03 818.95 1412.35 821.7 1410.99L808.18 1399.45C806.581 1401.69 805.111 1403.96 803.684 1406.23L813.278 1415.51Z" fill="#6A7282"/>
<path d="M826.021 1383.44L864.961 1417.98C875.458 1392.86 855.877 1367.23 826.021 1383.44Z" fill="#6A7282"/>
<path d="M811.064 1395.55L826.541 1408.77C830.636 1407.28 834.032 1407.09 835.839 1409.77C836.552 1410.83 835.978 1412.98 834.64 1415.72L854.241 1432.48C857.674 1429.7 860.571 1426.31 862.788 1422.48L821.743 1386.1C817.733 1388.7 814.133 1391.89 811.064 1395.55Z" fill="#6A7282"/>
<path d="M826.997 1428.78L840.986 1442.29C843.768 1440.41 846.772 1438.09 850.292 1435.41L832.449 1420.08C830.818 1422.83 828.92 1425.8 826.997 1428.78Z" fill="#6A7282"/>
<path d="M817.765 1449C818.995 1451.34 820.941 1453.23 823.321 1454.4C827.701 1451.44 831.669 1448.76 837.027 1445.15L824.417 1432.96C819.897 1440.1 816.201 1446.68 817.765 1449Z" fill="#6A7282"/>
<path d="M747.384 1449.43L780.752 1500.33C784.252 1497.59 787.485 1494.53 790.407 1491.19L754.818 1446.89C752.202 1447.68 749.81 1448.47 747.384 1449.43Z" fill="#6A7282"/>
<path d="M761.226 1511.07C767.284 1508.53 773.093 1505.44 778.579 1501.83L744.899 1450.47C741.829 1451.78 738.835 1453.26 735.933 1454.91L761.226 1511.07Z" fill="#6A7282"/>
<path d="M726.519 1461.07L744.078 1516.71C749.123 1515.5 754.075 1513.92 758.896 1512L733.759 1456.19C731.261 1457.69 728.844 1459.32 726.519 1461.07Z" fill="#6A7282"/>
<path d="M725.481 1519.21C730.913 1519.11 736.323 1518.49 741.642 1517.38L724.426 1462.86C722.059 1464.68 719.797 1466.63 717.648 1468.71L725.481 1519.21Z" fill="#6A7282"/>
<path d="M757.52 1446.12L792.129 1489.24C794.989 1485.92 797.832 1482.36 800.656 1478.76C800.489 1476.06 799.853 1473.41 798.777 1470.92C796.378 1467.36 790.083 1467.04 788.727 1465.03C787.371 1463.02 792.053 1444.56 771.479 1431.07C759.117 1434.09 745.189 1434.57 722.389 1449.95C716.746 1453.76 678.643 1484.42 693.489 1506.42C699.365 1515.13 710.187 1519 722.834 1519.24L715.42 1470.96C711.837 1474.74 708.595 1478.82 705.729 1483.16C705.649 1483.33 705.533 1483.48 705.389 1483.6C705.245 1483.73 705.076 1483.81 704.894 1483.86C704.713 1483.91 704.522 1483.92 704.337 1483.89C704.151 1483.86 703.974 1483.79 703.818 1483.69C703.662 1483.58 703.53 1483.44 703.433 1483.28C703.335 1483.12 703.273 1482.94 703.252 1482.75C703.23 1482.57 703.25 1482.38 703.309 1482.2C703.367 1482.02 703.464 1481.85 703.592 1481.72C706.909 1476.76 710.7 1472.15 714.911 1467.93L714.143 1463.12C714.141 1462.81 714.253 1462.5 714.458 1462.27C714.663 1462.03 714.947 1461.87 715.259 1461.82C715.57 1461.78 715.888 1461.85 716.153 1462.02C716.418 1462.19 716.613 1462.45 716.701 1462.75L717.175 1465.73C719.233 1463.78 721.36 1461.93 723.601 1460.19L722.179 1455.75C722.117 1455.44 722.173 1455.11 722.338 1454.83C722.503 1454.55 722.764 1454.35 723.072 1454.25C723.379 1454.16 723.711 1454.18 724.004 1454.31C724.297 1454.45 724.53 1454.68 724.658 1454.98L725.729 1458.46C728.048 1456.89 730.366 1455.33 732.685 1453.76C732.013 1452.27 730.822 1450.56 732.327 1449.84C733.832 1449.13 734.256 1450.98 734.928 1452.47C737.714 1450.9 740.584 1449.48 743.524 1448.21L741.786 1445.64C741.653 1445.35 741.626 1445.03 741.709 1444.73C741.792 1444.43 741.979 1444.17 742.237 1444C742.495 1443.82 742.807 1443.75 743.117 1443.78C743.426 1443.82 743.712 1443.96 743.924 1444.19L745.923 1447.16C748.28 1446.2 750.655 1445.39 753.081 1444.65C752.125 1443.23 750.351 1441.88 751.655 1440.81C752.959 1439.75 754.265 1442.01 755.741 1443.87C761.427 1442.3 767.254 1441.29 773.137 1440.87C773.318 1440.83 773.505 1440.84 773.686 1440.88C773.866 1440.92 774.034 1441 774.181 1441.12C774.327 1441.23 774.448 1441.37 774.535 1441.54C774.622 1441.7 774.673 1441.88 774.685 1442.06C774.697 1442.25 774.67 1442.43 774.605 1442.61C774.54 1442.78 774.439 1442.94 774.309 1443.07C774.178 1443.2 774.022 1443.3 773.849 1443.37C773.676 1443.43 773.491 1443.46 773.306 1443.45C767.975 1443.86 762.691 1444.76 757.52 1446.12Z" fill="#6A7282"/>
<path d="M252.179 1734.66C254.6 1732.57 257.186 1730.68 259.913 1729.01L252.693 1720.85C248.73 1728.08 247.861 1732.08 252.179 1734.66Z" fill="#6A7282"/>
<path d="M264.093 1726.5C266.403 1725.15 268.731 1723.78 271.065 1722.3L260.128 1708.29C258.604 1711.03 256.955 1713.68 255.264 1716.49L264.093 1726.5Z" fill="#6A7282"/>
<path d="M255.1 1664.82L287.813 1705.16C305.219 1676.2 280.718 1655.29 255.1 1664.82Z" fill="#6A7282"/>
<path d="M255.909 1695.08C258.687 1693.89 260.959 1693.48 261.883 1694.16C264.382 1696.01 264.143 1699.47 262.478 1703.5L275.007 1719.54C278.828 1716.65 282.209 1713.23 285.043 1709.37L250.482 1666.78C246.525 1668.79 242.969 1671.5 239.99 1674.79L255.909 1695.08Z" fill="#6A7282"/>
<path d="M242.528 1702.19C245.526 1700.54 248.647 1698.68 251.447 1697.19L236.882 1678.68C234.101 1682.07 231.72 1685.03 229.63 1687.7L242.528 1702.19Z" fill="#6A7282"/>
<path d="M221.957 1710.55C224.205 1712.21 230.965 1708.83 238.292 1704.62L226.665 1691.49C222.838 1696.66 219.972 1700.54 216.829 1704.78C217.905 1707.19 219.695 1709.2 221.957 1710.55Z" fill="#6A7282"/>
<path d="M169.063 1745.3L218.46 1780.85C219.545 1778.44 220.493 1776.01 221.341 1773.51L178.595 1736.07C175.134 1738.84 171.942 1741.93 169.063 1745.3Z" fill="#6A7282"/>
<path d="M157.523 1764.29L212.472 1792.07C214.248 1789.24 215.864 1786.3 217.314 1783.28L167.577 1747.25C163.703 1752.6 160.337 1758.31 157.523 1764.29Z" fill="#6A7282"/>
<path d="M151.098 1781.22L205.941 1801.16C207.79 1798.92 209.518 1796.59 211.117 1794.17L156.525 1766.68C154.371 1771.39 152.558 1776.25 151.098 1781.22Z" fill="#6A7282"/>
<path d="M197.871 1809.77C200.083 1807.72 202.178 1805.55 204.145 1803.27L150.424 1783.7C149.047 1788.95 148.159 1794.31 147.773 1799.72L197.871 1809.77Z" fill="#6A7282"/>
<path d="M195.479 1811.9L147.653 1802.34C147.361 1814.96 150.732 1825.92 159.201 1832.19C180.537 1847.98 212.806 1811.27 216.873 1805.77C233.217 1783.69 234.296 1769.79 237.848 1757.57C225.268 1736.43 206.276 1740.05 204.652 1738.85C203.028 1737.64 202.651 1731.1 199.228 1728.57C196.797 1727.38 194.181 1726.62 191.493 1726.32C187.781 1728.99 184.093 1731.67 180.654 1734.39L222.213 1770.86C223.744 1765.77 224.823 1760.55 225.439 1755.27C225.459 1755.1 225.512 1754.94 225.595 1754.8C225.677 1754.65 225.789 1754.52 225.921 1754.41C226.054 1754.31 226.207 1754.23 226.369 1754.19C226.532 1754.14 226.702 1754.13 226.87 1754.15C227.038 1754.17 227.2 1754.22 227.348 1754.3C227.495 1754.39 227.625 1754.5 227.729 1754.63C227.834 1754.76 227.911 1754.92 227.957 1755.08C228.002 1755.24 228.015 1755.41 227.995 1755.58C227.298 1761.43 226.047 1767.19 224.258 1772.8C226.027 1774.38 228.28 1775.78 227.113 1777.04C225.947 1778.31 224.643 1776.57 223.342 1775.45C222.5 1777.84 221.583 1780.18 220.528 1782.49C222.427 1783.9 224.795 1784.88 223.686 1786.38C222.577 1787.88 220.861 1785.91 219.412 1784.84C218.013 1787.73 216.46 1790.54 214.76 1793.27C216.226 1794 218.038 1794.53 217.277 1795.98C216.515 1797.43 214.841 1796.19 213.351 1795.43C211.812 1797.77 210.173 1800.04 208.359 1802.18L211.879 1803.43C212.169 1803.57 212.396 1803.81 212.518 1804.11C212.639 1804.41 212.646 1804.74 212.537 1805.05C212.428 1805.35 212.21 1805.6 211.926 1805.75C211.643 1805.91 211.313 1805.95 211 1805.87L206.626 1804.26C204.793 1806.42 202.854 1808.47 200.816 1810.44C202.602 1810.79 205.12 1810.84 204.82 1812.55C204.739 1812.88 204.537 1813.17 204.253 1813.36C203.969 1813.55 203.623 1813.63 203.285 1813.58L198.517 1812.6C194.114 1816.61 189.334 1820.18 184.245 1823.27C184.102 1823.39 183.933 1823.48 183.752 1823.53C183.571 1823.58 183.38 1823.59 183.194 1823.56C183.008 1823.53 182.831 1823.46 182.674 1823.36C182.518 1823.25 182.386 1823.12 182.287 1822.96C182.188 1822.8 182.126 1822.62 182.103 1822.43C182.081 1822.24 182.099 1822.05 182.157 1821.87C182.214 1821.69 182.31 1821.53 182.437 1821.39C182.565 1821.25 182.721 1821.14 182.894 1821.07C187.359 1818.4 191.571 1815.33 195.479 1811.9Z" fill="#6A7282"/>
<path d="M111.073 1931.64C113.021 1929.11 115.173 1926.74 117.505 1924.55L108.783 1918.02C106.366 1925.9 106.323 1929.99 111.073 1931.64Z" fill="#6A7282"/>
<path d="M121.09 1921.24C123.08 1919.46 125.084 1917.65 127.07 1915.72L113.525 1904.22C112.587 1907.21 111.507 1910.13 110.418 1913.22L121.09 1921.24Z" fill="#6A7282"/>
<path d="M99.8098 1862.66L140.004 1895.54C151.194 1863.67 122.969 1848.14 99.8098 1862.66Z" fill="#6A7282"/>
<path d="M106.722 1892.13C109.2 1890.4 111.343 1889.54 112.387 1890.03C115.208 1891.33 115.673 1894.77 114.857 1899.05L130.37 1912.22C133.53 1908.62 136.148 1904.58 138.143 1900.23L95.6825 1865.51C92.2138 1868.28 89.2809 1871.66 87.0284 1875.48L106.722 1892.13Z" fill="#6A7282"/>
<path d="M95.055 1901.8C97.6578 1899.58 100.337 1897.12 102.779 1895.1L84.7709 1879.92C82.7329 1883.8 80.9994 1887.18 79.492 1890.21L95.055 1901.8Z" fill="#6A7282"/>
<path d="M76.5999 1914.15C79.1384 1915.32 85.0736 1910.64 91.3983 1905.04L77.3559 1894.53C74.6539 1900.37 72.6306 1904.74 70.4115 1909.54C71.9511 1911.67 74.1121 1913.28 76.5999 1914.15Z" fill="#6A7282"/>
<path d="M31.8261 1958.87L87.3928 1983.7C87.9686 1981.12 88.4053 1978.55 88.7293 1975.93L39.296 1947.91C36.4663 1951.32 33.9652 1954.99 31.8261 1958.87Z" fill="#6A7282"/>
<path d="M24.3656 1979.8L83.7986 1995.91C84.9645 1992.77 85.9541 1989.57 86.7629 1986.32L30.7668 1961.09C28.055 1967.11 25.9119 1973.38 24.3656 1979.8Z" fill="#6A7282"/>
<path d="M21.4992 1997.69L79.2404 2006.12C80.5989 2003.56 81.8189 2000.92 82.8953 1998.23L23.8723 1982.35C22.716 1987.4 21.9229 1992.53 21.4992 1997.69Z" fill="#6A7282"/>
<path d="M73.0785 2016.18C74.8308 2013.73 76.4438 2011.19 77.9097 2008.56L21.3405 2000.25C21.052 2005.67 21.2673 2011.1 21.9837 2016.48L73.0785 2016.18Z" fill="#6A7282"/>
<path d="M71.1676 2018.76L22.3955 2019.06C24.662 2031.48 30.1806 2041.54 39.7424 2045.96C63.8303 2057.11 88.008 2014.63 90.8797 2008.43C102.419 1983.49 100.666 1969.67 101.673 1956.99C85.0772 1938.83 67.2088 1946.21 65.3755 1945.36C63.5421 1944.51 61.8489 1938.18 57.9847 1936.39C55.3645 1935.72 52.6487 1935.51 49.9558 1935.76C46.8591 1939.12 43.7906 1942.49 40.9717 1945.85L89.0491 1973.16C89.5187 1967.87 89.5205 1962.54 89.0546 1957.24C89.0404 1957.07 89.0594 1956.9 89.1108 1956.74C89.1621 1956.58 89.2447 1956.43 89.3538 1956.3C89.4629 1956.17 89.5963 1956.07 89.7465 1955.99C89.8968 1955.91 90.0608 1955.86 90.2293 1955.85C90.3978 1955.84 90.5674 1955.85 90.7285 1955.91C90.8896 1955.96 91.039 1956.04 91.1682 1956.15C91.2974 1956.26 91.4038 1956.39 91.4815 1956.54C91.5591 1956.69 91.6063 1956.86 91.6205 1957.02C92.1201 1962.89 92.0611 1968.79 91.444 1974.65C93.4963 1975.84 95.9851 1976.75 95.098 1978.22C94.2108 1979.7 92.5821 1978.26 91.083 1977.43C90.7418 1979.94 90.3159 1982.41 89.7512 1984.89C91.8948 1985.88 94.4124 1986.36 93.6292 1988.06C92.846 1989.75 90.768 1988.17 89.1321 1987.41C88.3462 1990.53 87.3946 1993.6 86.2812 1996.61C87.8654 1997.03 89.7473 1997.19 89.2942 1998.76C88.841 2000.33 86.9512 1999.45 85.3388 1999.02C84.3051 2001.62 83.1585 2004.17 81.8145 2006.63L85.515 2007.14C85.8272 2007.22 86.0991 2007.42 86.2784 2007.68C86.4576 2007.95 86.5315 2008.28 86.4859 2008.59C86.4403 2008.91 86.2785 2009.2 86.0315 2009.41C85.7844 2009.62 85.4696 2009.73 85.1477 2009.71L80.5377 2009.02C79.1807 2011.51 77.6956 2013.9 76.0977 2016.25C77.9189 2016.23 80.394 2015.77 80.4465 2017.5C80.4347 2017.85 80.2952 2018.17 80.0555 2018.42C79.8157 2018.66 79.4932 2018.81 79.1515 2018.82L74.2847 2018.83C70.7825 2023.64 66.8241 2028.11 62.4645 2032.16C62.3486 2032.31 62.2021 2032.43 62.0348 2032.52C61.8675 2032.61 61.6834 2032.66 61.4953 2032.66C61.3071 2032.67 61.1194 2032.64 60.9448 2032.57C60.7702 2032.5 60.613 2032.39 60.484 2032.25C60.355 2032.12 60.2572 2031.95 60.1973 2031.77C60.1375 2031.6 60.117 2031.41 60.1372 2031.22C60.1575 2031.03 60.218 2030.85 60.3147 2030.69C60.4113 2030.53 60.5419 2030.39 60.6973 2030.28C64.53 2026.77 68.0346 2022.91 71.1676 2018.76Z" fill="#6A7282"/>
<path d="M650.092 1401.52C652.993 1400.18 655.998 1399.07 659.078 1398.22L654.375 1388.39C648.579 1394.26 646.646 1397.86 650.092 1401.52Z" fill="#6A7282"/>
<path d="M663.786 1396.95C666.377 1396.29 668.992 1395.61 671.643 1394.82L664.969 1378.35C662.752 1380.57 660.44 1382.66 658.043 1384.9L663.786 1396.95Z" fill="#6A7282"/>
<path d="M672.059 1335.17L692.452 1382.93C717.134 1359.86 699.311 1333.03 672.059 1335.17Z" fill="#6A7282"/>
<path d="M664.537 1364.49C667.535 1364.1 669.832 1364.34 670.533 1365.25C672.428 1367.71 671.25 1370.97 668.544 1374.39L676.192 1393.25C680.658 1391.52 684.848 1389.16 688.632 1386.22L667.081 1335.79C662.726 1336.63 658.561 1338.27 654.795 1340.61L664.537 1364.49Z" fill="#6A7282"/>
<path d="M649.719 1367.66C653.054 1366.89 656.567 1365.95 659.667 1365.29L650.74 1343.5C647.134 1346 644.034 1348.19 641.292 1350.18L649.719 1367.66Z" fill="#6A7282"/>
<path d="M627.643 1370.05C629.348 1372.27 636.779 1370.87 644.978 1368.83L637.398 1353.02C632.299 1356.94 628.481 1359.88 624.294 1363.1C624.669 1365.71 625.838 1368.13 627.643 1370.05Z" fill="#6A7282"/>
<path d="M567.246 1388.95L604.995 1436.69C606.698 1434.68 608.276 1432.6 609.779 1430.42L578.943 1382.7C574.856 1384.41 570.939 1386.5 567.246 1388.95Z" fill="#6A7282"/>
<path d="M550.939 1404.05L596.155 1445.85C598.642 1443.6 601.002 1441.23 603.223 1438.72L565.281 1390.43C560.086 1394.51 555.285 1399.07 550.939 1404.05Z" fill="#6A7282"/>
<path d="M540.114 1418.57L587.382 1452.79C589.774 1451.15 592.077 1449.38 594.279 1447.48L549.323 1406.08C545.959 1410.02 542.881 1414.19 540.114 1418.57Z" fill="#6A7282"/>
<path d="M577.262 1458.85C579.95 1457.49 582.558 1455.98 585.076 1454.33L538.786 1420.77C536.022 1425.44 533.698 1430.35 531.843 1435.45L577.262 1458.85Z" fill="#6A7282"/>
<path d="M574.376 1460.25L531.009 1437.93C527.266 1449.99 527.5 1461.45 533.925 1469.8C550.11 1490.84 591.211 1464.39 596.631 1460.22C618.406 1443.47 623.256 1430.41 630.024 1419.63C623.726 1395.85 604.471 1394.12 603.239 1392.51C602.007 1390.91 603.439 1384.52 600.843 1381.14C598.831 1379.34 596.523 1377.89 594.021 1376.86C589.719 1378.41 585.437 1379.98 581.385 1381.64L611.342 1428.12C614.211 1423.64 616.681 1418.92 618.722 1414.01C618.787 1413.86 618.882 1413.72 619.003 1413.6C619.123 1413.48 619.265 1413.38 619.422 1413.32C619.578 1413.26 619.746 1413.22 619.915 1413.22C620.084 1413.22 620.251 1413.26 620.407 1413.32C620.563 1413.39 620.704 1413.48 620.823 1413.6C620.942 1413.73 621.037 1413.87 621.101 1414.02C621.165 1414.18 621.197 1414.35 621.196 1414.52C621.196 1414.69 621.161 1414.85 621.096 1415.01C618.821 1420.44 616.036 1425.64 612.777 1430.55C614.045 1432.55 615.828 1434.51 614.359 1435.41C612.891 1436.3 612.114 1434.27 611.17 1432.84C609.703 1434.91 608.18 1436.91 606.532 1438.84C607.972 1440.71 609.981 1442.31 608.503 1443.44C607.025 1444.58 605.914 1442.22 604.815 1440.79C602.676 1443.19 600.411 1445.46 598.03 1447.62C599.237 1448.73 600.834 1449.74 599.705 1450.92C598.576 1452.1 597.306 1450.45 596.08 1449.31C593.958 1451.14 591.76 1452.87 589.429 1454.43L592.471 1456.6C592.711 1456.82 592.863 1457.11 592.898 1457.43C592.933 1457.75 592.848 1458.07 592.66 1458.34C592.472 1458.6 592.193 1458.78 591.879 1458.85C591.564 1458.92 591.235 1458.87 590.955 1458.71L587.191 1455.96C584.836 1457.53 582.41 1458.97 579.909 1460.31C581.53 1461.14 583.938 1461.87 583.18 1463.44C583.011 1463.73 582.737 1463.96 582.412 1464.06C582.086 1464.17 581.733 1464.15 581.422 1464L577.105 1461.76C571.771 1464.4 566.195 1466.52 560.454 1468.1C560.283 1468.18 560.097 1468.22 559.908 1468.21C559.72 1468.21 559.534 1468.17 559.363 1468.09C559.192 1468.01 559.041 1467.9 558.919 1467.75C558.797 1467.61 558.707 1467.44 558.657 1467.26C558.606 1467.08 558.595 1466.89 558.625 1466.7C558.654 1466.52 558.724 1466.34 558.828 1466.18C558.933 1466.03 559.07 1465.9 559.231 1465.8C559.392 1465.7 559.572 1465.64 559.759 1465.61C564.784 1464.27 569.676 1462.48 574.376 1460.25Z" fill="#6A7282"/>
</svg>
